<svg xmlns="http://www.w3.org/2000/svg" viewBox="0 0 743.69 338.77"><defs><style>.cls-1,.cls-120,.cls-121,.cls-2{fill:none;stroke-miterlimit:10;}.cls-1,.cls-121{stroke:#ffa247;}.cls-1{stroke-width:2px;}.cls-2{stroke:#df7f1f;}.cls-3{fill:#1c9c47;}.cls-4{fill:#7bc343;}.cls-5{fill:#51bb48;}.cls-6{fill:#b9cf55;}.cls-7{fill:#e25a09;}.cls-8{fill:#e35b09;}.cls-9{fill:#e35c08;}.cls-10{fill:#e45d08;}.cls-11{fill:#e55e08;}.cls-12{fill:#e55f07;}.cls-13{fill:#e66007;}.cls-14{fill:#e76107;}.cls-15{fill:#e76206;}.cls-16{fill:#e86306;}.cls-17{fill:#e96406;}.cls-18{fill:#e96505;}.cls-19{fill:#ea6505;}.cls-20{fill:#ea6604;}.cls-21{fill:#eb6704;}.cls-22{fill:#ec6804;}.cls-23{fill:#ec6903;}.cls-24{fill:#ed6a03;}.cls-25{fill:#ee6b03;}.cls-26{fill:#ee6c02;}.cls-27{fill:#ef6d02;}.cls-28{fill:#f06e02;}.cls-29{fill:#f06f01;}.cls-30{fill:#f17001;}.cls-31{fill:#f17102;}.cls-32{fill:#f27203;}.cls-33{fill:#f27303;}.cls-34{fill:#f27404;}.cls-35{fill:#f37505;}.cls-36{fill:#f37606;}.cls-37{fill:#f37706;}.cls-38{fill:#f47807;}.cls-39{fill:#f47908;}.cls-40{fill:#f47a09;}.cls-41{fill:#f57b0a;}.cls-42{fill:#f57c0a;}.cls-43{fill:#f57d0b;}.cls-44{fill:#f67e0c;}.cls-45{fill:#f67f0d;}.cls-46{fill:#f6800e;}.cls-47{fill:#f7810f;}.cls-48{fill:#f78210;}.cls-49{fill:#f78310;}.cls-50{fill:#f88411;}.cls-51{fill:#f88512;}.cls-52{fill:#f88613;}.cls-53{fill:#f98714;}.cls-54{fill:#f98814;}.cls-55{fill:#f98915;}.cls-56{fill:#fa8a16;}.cls-57{fill:#fa8b17;}.cls-58{fill:#fa8c17;}.cls-59{fill:#fb8d18;}.cls-60{fill:#fb8e19;}.cls-61{fill:#fb8e1a;}.cls-62{fill:#fb8f1b;}.cls-63{fill:#fb8f1c;}.cls-64{fill:#fb901d;}.cls-65{fill:#fb901e;}.cls-66{fill:#fb911f;}.cls-67{fill:#fb9120;}.cls-68{fill:#fb9221;}.cls-69{fill:#fb9222;}.cls-70{fill:#fb9223;}.cls-71{fill:#fb9324;}.cls-72{fill:#fb9325;}.cls-73{fill:#fb9426;}.cls-74{fill:#fb9427;}.cls-75{fill:#fb9528;}.cls-76{fill:#fb9529;}.cls-77{fill:#fb962a;}.cls-78{fill:#fb962b;}.cls-79{fill:#fb972c;}.cls-80{fill:#fb972d;}.cls-81{fill:#fb972e;}.cls-82{fill:#fb982f;}.cls-83{fill:#fb9830;}.cls-84{fill:#fb9931;}.cls-85{fill:#fb9932;}.cls-86{fill:#fb9a33;}.cls-87{fill:#fb9a34;}.cls-88{fill:#fb9b35;}.cls-89{fill:#fc9b36;}.cls-90{fill:#fc9c37;}.cls-91{fill:#fc9c38;}.cls-92{fill:#fc9d39;}.cls-93{fill:#fc9d3a;}.cls-94{fill:#fc9e3b;}.cls-95{fill:#fc9e3c;}.cls-96{fill:#fc9f3d;}.cls-97{fill:#fc9f3e;}.cls-98{fill:#fc9f3f;}.cls-99{fill:#fca040;}.cls-100{fill:#fca041;}.cls-101{fill:#fca142;}.cls-102{fill:#fca143;}.cls-103{fill:#fca244;}.cls-104{fill:#fca245;}.cls-105{fill:#fca346;}.cls-106{fill:#fca347;}.cls-107{fill:#fca448;}.cls-108{fill:#fca449;}.cls-109{fill:#fca44a;}.cls-110{fill:#fca54b;}.cls-111{fill:#fca54c;}.cls-112{fill:#fca64d;}.cls-113{fill:#fca64e;}.cls-114{fill:#fca74f;}.cls-115{fill:#fca750;}.cls-116{fill:#fca851;}.cls-117{fill:#fca852;}.cls-118{fill:#e15f07;}.cls-119{fill:#f8901c;}.cls-120{stroke:#fea64f;stroke-width:10px;}</style></defs><title>carrot1</title><g id="Layer_2" data-name="Layer 2"><g id="Layer_1-2" data-name="Layer 1"><line class="cls-1" x1="280.87" y1="187.97" x2="280.87" y2="146.01"/><line class="cls-2" x1="277.93" y1="187.97" x2="277.93" y2="146.01"/><path class="cls-3" d="M198.9,182.32a52.08,52.08,0,0,0-2.77-19.09A36,36,0,0,0,188,150.35c-5-5.5-7.47-5.44-8.62-5.3-5,.58-9.76,5.55-11.42,7.38a133,133,0,0,1-23.79,14c-20,9-35.43,9-43.81,8.18,4.84-2.89,10.05-6.19,15.56-10,5.26-3.61,10.14-7.2,14.61-10.67-5,3-13.28,7.38-23,9-14.91,2.45-24-3.14-27.51-5.76a43.92,43.92,0,0,0,12.57-2,65.7,65.7,0,0,0,17.47-8.54,41.28,41.28,0,0,1-11.62,2.69C77.33,150.83,66.3,130.57,64,112.34c-.77-6-1.32-17.8,3.7-34.7a57.87,57.87,0,0,1,8.89,1,49.44,49.44,0,0,1,29.26,17.29,17.23,17.23,0,0,1,.48-7.59,27.35,27.35,0,0,1,4-8.36A21.92,21.92,0,0,1,120,84.86,24.8,24.8,0,0,1,127.18,97l.48-7.59a13.63,13.63,0,0,1,4.62-2.23,7.44,7.44,0,0,1,6.39,1.36c20.48,14.61,26.8,24.54,26.8,24.54a116.55,116.55,0,0,1,10.17,20.07A37.58,37.58,0,0,0,180,135.3a38.59,38.59,0,0,0,5.36,1.73c4.41,1.09,11.1,5.5,15.34,9.17,9.52,8.23,14.33,19.28,16.35,24.68Z"/><path class="cls-4" d="M212.24,172.36l-13.71,9.46a52.75,52.75,0,0,0-.39-15.35c-3-16-13.71-22-18.28-24.06a153.9,153.9,0,0,1-20.14,15.1c-26.79,16.73-48.83,17.68-59.37,17.14A57.23,57.23,0,0,0,116,166.59,78.79,78.79,0,0,0,131,152.34a66,66,0,0,1-16.57,7.34c-14.39,3.94-23.86-.06-27.9-2.26A35.69,35.69,0,0,0,102,152.66,56.52,56.52,0,0,0,113.61,144a50.91,50.91,0,0,1-21.16,1.6c-4-.64-16-3.19-23.44-15.17-8.34-13.52-5.8-30.82-4.85-36.94,1.16-7.53,3.27-14.88,3.63-15,.54-.13-1.91,15.58-1.12,15.38.54-.13,1.19-7.55,4.2-9.61,2.23-1.52,4,1.07,10.22,4.15a64.87,64.87,0,0,0,6.82,2.76c7.37,3,15,10.3,23.59,19.92,4.67,5.25,10.37,12.06,16.54,20.46a53,53,0,0,1-13-.43A40.8,40.8,0,0,1,93.74,121a53.84,53.84,0,0,0,25,15.14c4.22,1.16,8.58,1.83,43.9,2.61,17.65.4,17.69.25,19.49.64C192,141.54,204.27,148.7,212.24,172.36Z"/><path class="cls-5" d="M166.24,132.91c-1.14-1.85-3-3.42-5.58-6.24a65.27,65.27,0,0,0-5.6-5.25c-4.93-4.49-7.54-9.54-9.63-13.58-3.65-7.08-3.51-10.2-7.65-14.26a21.65,21.65,0,0,0-4.71-3.51,53.14,53.14,0,0,0-1.78,8.28,39.89,39.89,0,0,0,.82,15.57c-2.08-4.35-4-7.87-5.39-10.43-5.18-9.29-7.67-11.89-8.68-12.88A32.07,32.07,0,0,0,111,85.34a32.85,32.85,0,0,0-2.9,11.73c-.26,6.75,2.26,10.66,3.39,12.14a22,22,0,0,1-6.54-5.94,27.73,27.73,0,0,1-3.6-7C98,88.09,90.58,84.53,84.5,81.61c-3.5-1.68-9.36-1.8-16.42-2.5-.45,2.48-.26,3.2-.66,5.78-1.16,7.44-1.69,9.68-1.36,9.67s1.11-1.55,3.75-9a25.53,25.53,0,0,1,4.83.4c2.94.52,6.08,1.65,13.29,6.7,3.84,2.7,6.11,4.56,6.11,4.56a162.21,162.21,0,0,1,15.86,15c4.93,5.29,11.19,11.18,18.11,19.85a136.74,136.74,0,0,0,16.4,1.56A155.67,155.67,0,0,0,166.24,132.91Z"/><path class="cls-6" d="M78.72,131.27c-1.57,1.12-6.1-11.16-7.93-16.14-4.72-12.78-3.93-16.55-2.3-18.73a6.12,6.12,0,0,1,4.15-2.59c3,0,2.89,6.23,3.18,12.59C76.58,123.27,80,130.39,78.72,131.27Z"/><path class="cls-6" d="M171.28,147c.09,1.37-13.07,10.06-26.91,16.24-19.43,8.68-36.62,10.8-36.41,9.17.07-.56,2.13-1.48,26.09-11.19C167.83,147.5,171.24,146.27,171.28,147Z"/><path class="cls-3" d="M165.62,154.87a52,52,0,0,1-11.74,15.3,36.17,36.17,0,0,1-13.4,7.27c-7,2.37-9.17,1.08-10.11.41-4-2.93-5.8-9.61-6.36-12A132.66,132.66,0,0,0,110.12,142c-13-17.6-26.52-25.18-34.24-28.54,2.82,4.88,5.75,10.31,8.71,16.29,2.83,5.72,5.33,11.23,7.54,16.45-2.86-5.07-8-12.93-15.65-19-11.81-9.43-22.46-9-26.81-8.41a43.69,43.69,0,0,1,10,7.86,65.52,65.52,0,0,1,11.06,16,40.93,40.93,0,0,0-8.82-8C44.16,123,24.64,135.25,13.72,150,10.1,154.93,3.88,164.91,0,182.11a57.68,57.68,0,0,0,8.23,3.51,49.51,49.51,0,0,0,34-.79,17.14,17.14,0,0,0-3.29,6.86,27.1,27.1,0,0,0-.58,9.25,21.91,21.91,0,0,0,10.82.41,24.71,24.71,0,0,0,12.22-7.11l-3.29,6.86A13.6,13.6,0,0,0,61,205.3a7.45,7.45,0,0,0,6.23,1.94c25-2.75,35.38-8.32,35.38-8.32a117.77,117.77,0,0,0,18.68-12.55,38.52,38.52,0,0,1,4.82.29,37.51,37.51,0,0,1,5.52,1.11c4.38,1.2,12.37.62,17.87-.51,12.33-2.53,21.92-9.83,26.32-13.55Z"/><path class="cls-4" d="M172.4,170.08l-7.35-15a52.35,52.35,0,0,1-7.83,13.2c-10.39,12.5-22.72,12.51-27.71,12.07a153.11,153.11,0,0,0-10.2-23c-15.2-27.68-34-39.27-43.43-43.95a57.09,57.09,0,0,1,9.69,14.65,78.59,78.59,0,0,1,6.19,19.8,66.27,66.27,0,0,0-10.87-14.5C70.26,122.91,60,121.77,55.45,121.72a35.87,35.87,0,0,1,11.09,11.66,57,57,0,0,1,5.93,13.28,50.71,50.71,0,0,0-17.68-11.73c-3.8-1.4-15.57-5.07-27.87,1.78-13.87,7.72-20.11,24.06-22.28,29.86C2,173.71.23,181.15.5,181.4s6-14.53,6.54-14c.41.38-2.65,7.17-1,10.44,1.2,2.41,4,1,10.94,1.37a68,68,0,0,1,7.3.92c7.91,1,18.15-1.64,30.32-5.86,6.63-2.29,14.93-5.45,24.42-9.76a53.34,53.34,0,0,0-11.54-6A40.86,40.86,0,0,0,43.93,157a53.85,53.85,0,0,1,29.16-1c4.25,1,8.38,2.59,39.58,19.16,15.6,8.28,15.56,8.42,17.32,9C139.64,187.06,153.88,186.83,172.4,170.08Z"/><path class="cls-5" d="M113,182c-1.9,1.05-4.3,1.51-7.92,2.71a62.44,62.44,0,0,1-7.44,1.84c-6.49,1.52-11.24,4.65-15,7.16-6.65,4.39-8,7.18-13.65,8.7a21.54,21.54,0,0,1-5.81.76,53.71,53.71,0,0,1,2.48-8.09,39.93,39.93,0,0,1,8.33-13.19c-3.94,2.78-7.31,4.94-9.8,6.47-9.06,5.58-12.5,6.63-13.87,7a32.19,32.19,0,0,1-8.72,1.15,32.64,32.64,0,0,1,3.2-11.65c3.07-6,7.18-8.2,8.88-8.94a22.22,22.22,0,0,0-8.61,2,27.85,27.85,0,0,0-6.53,4.32c-6.94,5.54-15.15,5-21.88,4.6-3.88-.25-9-3-15.55-5.84.82-2.39,1.34-2.92,2.25-5.37,2.62-7.06,3.25-9.27,3.54-9.1s.21,1.9-1.1,9.64a25.75,25.75,0,0,0,4.4,2c2.82,1,6.12,1.53,14.88.64,4.66-.47,7.56-1,7.56-1a163.84,163.84,0,0,0,21.18-5.37c6.89-2.21,15.23-4.29,25.5-8.48a137.42,137.42,0,0,1,15.08,6.66A154.23,154.23,0,0,1,113,182Z"/><path class="cls-6" d="M35.82,140.7C35,139,25.05,147.46,21,150.91,10.66,159.76,9.5,163.44,9.86,166.14a6.09,6.09,0,0,0,2.36,4.27c2.66,1.49,5.56-4,8.92-9.43C30.05,146.63,36.46,142.07,35.82,140.7Z"/><path class="cls-6" d="M124.25,172.23c.75-1.16-6.48-15.17-15.54-27.33C96,127.83,82,117.59,81.41,119.12c-.21.52,1.14,2.33,17.3,22.5C121.49,170.07,123.87,172.81,124.25,172.23Z"/><path class="cls-3" d="M178.74,161.13a51.78,51.78,0,0,0,8.73-17.2,36,36,0,0,0,.76-15.22c-.88-7.34-3-8.74-4-9.29-4.39-2.37-11.18-1.08-13.59-.55a131.46,131.46,0,0,1-27.53-2.22c-21.51-4.14-34.17-13-40.53-18.54,5.62.43,11.78.73,18.46.82,6.37.08,12.43-.05,18.09-.31-5.81-.38-15.11-1.61-23.95-5.88C101.59,86.16,97.39,76.36,96,72.19a43.55,43.55,0,0,0,11.42,5.62,65.45,65.45,0,0,0,19.19,3.08,41.27,41.27,0,0,1-11-4.5c-18.11-11-15.45-33.92-6.84-50.15,2.86-5.39,9.17-15.31,23-26.24a57.23,57.23,0,0,1,6.72,5.91,49.51,49.51,0,0,1,14,31A17.18,17.18,0,0,1,157.21,31a27,27,0,0,1,8.09-4.52,21.93,21.93,0,0,1,5,9.57,24.77,24.77,0,0,1-1.13,14.09L174,44.19A13.41,13.41,0,0,1,179,45a7.42,7.42,0,0,1,4.44,4.78c8.33,23.74,7.78,35.5,7.78,35.5A117.1,117.1,0,0,1,188,107.58a36,36,0,0,0,2.34,4.22,38.81,38.81,0,0,0,3.39,4.51c3,3.43,5.9,10.88,7.26,16.33,3,12.21.61,24-.85,29.59Z"/><path class="cls-4" d="M195.39,160.67l-16.67-.15a53,53,0,0,0,8.53-12.77c6.77-14.78,1.46-25.9-1.09-30.21a154.57,154.57,0,0,1-25.17.75c-31.53-1.75-50.09-13.67-58.4-20.18a57,57,0,0,0,17.4,2.41,79,79,0,0,0,20.53-3A66.24,66.24,0,0,1,122.75,94c-14-5.06-19.47-13.79-21.5-17.92a35.68,35.68,0,0,0,15.31,5,56.12,56.12,0,0,0,14.53-.39A50.86,50.86,0,0,1,112.87,69.8C110,67,101.58,58,102.44,43.9c1-15.85,13-28.54,17.31-33C125,5.42,131,.62,131.33.76c.52.21-10.53,11.64-9.78,11.93.53.21,5.33-5.48,9-5.43,2.69,0,2.67,3.19,6,9.28a70.6,70.6,0,0,0,4,6.18c4.28,6.73,6.37,17.08,7.82,29.87.8,7,1.53,15.83,1.75,26.25A53.06,53.06,0,0,1,139.66,71a40.8,40.8,0,0,1-11.6-20.53,53.74,53.74,0,0,0,11.68,26.74c2.77,3.38,6,6.44,34.38,27.42,14.21,10.49,14.32,10.39,15.57,11.74C196.56,123.8,202.5,136.74,195.39,160.67Z"/><path class="cls-5" d="M180.5,101.93c.13-2.17-.5-4.53-1-8.31A60.69,60.69,0,0,0,178,86.1c-1.43-6.51-.66-12.14,0-16.65,1.09-7.89,3-10.36,2-16.07a21.62,21.62,0,0,0-1.82-5.57,53.39,53.39,0,0,0-6.23,5.74,39.79,39.79,0,0,0-8.29,13.21c.8-4.76,1.29-8.73,1.59-11.64,1.13-10.58.58-14.13.33-15.53a31.83,31.83,0,0,0-2.74-8.36,32.66,32.66,0,0,0-9.12,7.92c-4.1,5.36-4.29,10-4.22,11.87a22.13,22.13,0,0,1-1.93-8.63,28.06,28.06,0,0,1,1.07-7.75c2-8.65-2-15.83-5.3-21.72-1.9-3.39-6.62-6.85-12-11.5-1.79,1.77-2.05,2.47-3.87,4.35-5.23,5.41-7,6.94-6.68,7.12s1.81-.63,8.22-5.16a26.2,26.2,0,0,1,3.72,3.11c2.1,2.12,4,4.85,7,13.13,1.59,4.42,2.38,7.25,2.38,7.25a161.41,161.41,0,0,1,4.3,21.43c1,7.16,2.72,15.58,3.38,26.66A136.12,136.12,0,0,0,162.19,90,154.74,154.74,0,0,0,180.5,101.93Z"/><path class="cls-6" d="M109.89,50.19c-1.93,0,1.43-12.63,2.8-17.76,3.51-13.16,6.33-15.79,8.92-16.64,1.74-.56,3.82-.47,4.87.28,2.49,1.76-1.22,6.76-4.65,12.12C112.74,42.43,111.4,50.18,109.89,50.19Z"/><path class="cls-6" d="M176.52,116.33c-.72,1.18-16.48.7-31.36-2.21-20.88-4.1-36.16-12.26-35-13.48.38-.42,2.59,0,27.77,5.88C173.39,114.77,176.89,115.73,176.52,116.33Z"/><path class="cls-3" d="M168.63,141.21a51.59,51.59,0,0,1,8.73,17.2,36,36,0,0,1,.77,15.22c-.88,7.34-3,8.74-4,9.29-4.38,2.37-11.17,1.08-13.58.55A131.36,131.36,0,0,0,133,185.69c-21.51,4.14-34.17,13-40.54,18.54,5.63-.43,11.79-.73,18.46-.82,6.38-.08,12.43.05,18.09.31-5.81.38-15.11,1.61-23.94,5.88-13.6,6.58-17.8,16.38-19.17,20.55a43.46,43.46,0,0,1,11.41-5.62,65.51,65.51,0,0,1,19.2-3.08,41.31,41.31,0,0,0-11,4.5C87.38,237,90,259.87,98.64,276.1c2.86,5.39,9.18,15.31,23,26.24a57.23,57.23,0,0,0,6.72-5.91,49.47,49.47,0,0,0,14-31,17.08,17.08,0,0,0,4.76,5.93,27.37,27.37,0,0,0,8.1,4.52,21.92,21.92,0,0,0,5-9.58,24.77,24.77,0,0,0-1.13-14.09l4.76,5.92a13.41,13.41,0,0,0,5.06-.84,7.42,7.42,0,0,0,4.44-4.78c8.33-23.74,7.79-35.5,7.79-35.5a118.08,118.08,0,0,0-3.25-22.27,37.62,37.62,0,0,1,2.34-4.22,38.54,38.54,0,0,1,3.39-4.5c3-3.43,5.9-10.89,7.26-16.34,3-12.21.61-24-.85-29.59Z"/><path class="cls-4" d="M185.28,141.67l-16.66.16a52.42,52.42,0,0,1,8.52,12.76c6.78,14.78,1.47,25.9-1.08,30.21a154.61,154.61,0,0,0-25.17-.75c-31.53,1.75-50.1,13.67-58.41,20.18a57,57,0,0,1,17.41-2.41,79,79,0,0,1,20.53,3,66.38,66.38,0,0,0-17.78,3.54c-14,5.06-19.47,13.79-21.5,17.92a35.73,35.73,0,0,1,15.31-5,56.63,56.63,0,0,1,14.54.39,50.78,50.78,0,0,0-18.22,10.87c-2.9,2.82-11.29,11.85-10.43,25.9,1,15.85,13,28.54,17.3,33,5.29,5.48,11.24,10.28,11.59,10.14.51-.21-10.54-11.64-9.78-11.93.52-.21,5.32,5.48,9,5.43,2.7,0,2.68-3.19,6-9.28a68.32,68.32,0,0,1,4-6.18c4.28-6.73,6.36-17.08,7.82-29.87.79-7,1.53-15.83,1.75-26.25a52.82,52.82,0,0,0-10.39,7.83A40.87,40.87,0,0,0,118,251.86a53.83,53.83,0,0,1,11.68-26.74c2.78-3.38,6-6.44,34.39-27.42,14.2-10.49,14.32-10.39,15.57-11.74C186.45,178.54,192.39,165.6,185.28,141.67Z"/><path class="cls-5" d="M170.39,200.41c.13,2.17-.49,4.53-1,8.32a62.8,62.8,0,0,1-1.56,7.51c-1.44,6.51-.66,12.14,0,16.65,1.08,7.89,3,10.36,2,16.07a22,22,0,0,1-1.83,5.57,54.2,54.2,0,0,1-6.23-5.74,39.79,39.79,0,0,1-8.29-13.21c.8,4.76,1.29,8.73,1.6,11.64,1.12,10.58.57,14.13.32,15.53a31.88,31.88,0,0,1-2.73,8.36,32.66,32.66,0,0,1-9.12-7.92c-4.1-5.36-4.29-10-4.23-11.87a22.15,22.15,0,0,0-1.92,8.63,27.68,27.68,0,0,0,1.07,7.75c2,8.65-2,15.83-5.31,21.72-1.89,3.39-6.61,6.85-12,11.5-1.8-1.77-2.06-2.47-3.87-4.35-5.24-5.41-7-6.94-6.68-7.12s1.8.63,8.22,5.16a26.7,26.7,0,0,0,3.72-3.1c2.1-2.13,4-4.86,7-13.14,1.59-4.42,2.37-7.25,2.37-7.25a163.46,163.46,0,0,0,4.31-21.43c1-7.16,2.71-15.58,3.37-26.66a137.47,137.47,0,0,1,12.52-10.71A154.74,154.74,0,0,1,170.39,200.41Z"/><path class="cls-6" d="M99.78,252.15c-1.93,0,1.44,12.63,2.81,17.76,3.5,13.16,6.32,15.79,8.91,16.64,1.74.56,3.82.47,4.88-.28,2.49-1.76-1.22-6.76-4.65-12.12C102.64,259.91,101.29,252.16,99.78,252.15Z"/><path class="cls-6" d="M166.42,186c-.72-1.17-16.48-.7-31.36,2.21-20.89,4.1-36.16,12.26-35,13.49.38.41,2.6,0,27.77-5.89C163.28,187.57,166.78,186.61,166.42,186Z"/><path class="cls-3" d="M244.15,117.9a51.78,51.78,0,0,1-6.83,18,36.17,36.17,0,0,1-10.73,10.82c-6,4.29-8.47,3.68-9.56,3.3-4.71-1.64-8.33-7.53-9.56-9.67a132,132,0,0,0-20.18-18.85c-17.56-13.1-32.65-16.47-41-17.46,4.1,3.86,8.48,8.21,13,13.08,4.35,4.66,8.34,9.22,12,13.58-4.2-4-11.37-10.08-20.48-13.73-14-5.62-24.1-2.12-28.1-.33a43.87,43.87,0,0,1,11.84,4.65,65.53,65.53,0,0,1,15.21,12.12A40.74,40.74,0,0,0,139,128.31c-20.33-6-35.48,11.44-41.67,28.73-2,5.75-5.13,17.1-3.89,34.68a57.43,57.43,0,0,0,8.89,1,49.52,49.52,0,0,0,32.31-10.55,17.09,17.09,0,0,0-1.17,7.51,27.28,27.28,0,0,0,2.11,9A21.93,21.93,0,0,0,146,196a24.86,24.86,0,0,0,9.65-10.33l-1.17,7.51a13.67,13.67,0,0,0,4,3.18,7.41,7.41,0,0,0,6.52,0c23.16-9.83,31.48-18.16,31.48-18.16a116.68,116.68,0,0,0,14.27-17.4,38,38,0,0,1,10.31-1.64c4.54-.11,12-3,17-5.64,11.07-6,18.16-15.73,21.3-20.56Z"/><path class="cls-4" d="M255,130.51,243.68,118.3A52.64,52.64,0,0,1,240,133.2c-6.35,15-18.15,18.53-23.05,19.55a154.71,154.71,0,0,0-16.4-19.11c-22.54-22.12-43.85-27.81-54.26-29.56a57.27,57.27,0,0,1,13.51,11.23,78.94,78.94,0,0,1,11.63,17.18,66,66,0,0,0-14.59-10.75c-13.19-7-23.31-5.1-27.73-3.82a35.62,35.62,0,0,1,14,8,56.88,56.88,0,0,1,9.5,11,50.72,50.72,0,0,0-20.31-6.14c-4-.25-16.36-.36-26.17,9.74-11.06,11.39-12.32,28.83-12.72,35-.49,7.6,0,15.23.31,15.4.5.24,1.5-15.63,2.23-15.27.5.25-.47,7.63,2,10.29,1.84,2,4.16-.17,10.87-1.83a68.73,68.73,0,0,1,7.25-1.23c7.86-1.37,16.91-6.8,27.35-14.34,5.68-4.11,12.72-9.53,20.57-16.39a53.27,53.27,0,0,0-12.78-2.4,40.83,40.83,0,0,0-23,5.25,53.91,53.91,0,0,1,27.64-9.38c4.36-.22,8.77.07,43.42,6.94,17.32,3.44,17.33,3.58,19.17,3.6C228.56,156.22,242.13,151.89,255,130.51Z"/><path class="cls-5" d="M201.58,159.08c-1.51,1.56-3.68,2.68-6.8,4.88a61.87,61.87,0,0,1-6.6,3.91c-5.78,3.32-9.42,7.69-12.33,11.19-5.1,6.11-5.64,9.19-10.56,12.26a21.81,21.81,0,0,1-5.35,2.41,53.41,53.41,0,0,1,0-8.47,39.83,39.83,0,0,1,4.18-15c-3,3.8-5.58,6.83-7.52,9-7.07,8-10.06,9.95-11.27,10.7a31.48,31.48,0,0,1-8,3.61,32.62,32.62,0,0,1-.29-12.07c1.2-6.64,4.51-9.92,5.93-11.12a22.06,22.06,0,0,0-7.67,4.39,27.56,27.56,0,0,0-5,6c-5,7.3-13.06,9.18-19.63,10.71-3.78.88-9.52-.27-16.57-1.11.1-2.52.44-3.18.6-5.79.48-7.51.45-9.81.77-9.73s.75,1.76,1.72,9.55a26.91,26.91,0,0,0,4.8.66c3,.12,6.31-.3,14.43-3.68,4.33-1.8,6.95-3.13,6.95-3.13A162.34,162.34,0,0,0,142.12,167c6-4.09,13.35-8.49,22-15.46a135.49,135.49,0,0,1,16.35,2A153.94,153.94,0,0,1,201.58,159.08Z"/><path class="cls-6" d="M115.78,141.75c-1.29-1.44-8.36,9.57-11.23,14-7.37,11.47-7.42,15.32-6.3,17.8a6.13,6.13,0,0,0,3.49,3.42c3,.66,4.18-5.46,5.83-11.6C112,149.09,116.79,142.87,115.78,141.75Z"/><path class="cls-6" d="M209.55,146.44c.38-1.32-10.58-12.65-22.76-21.68-17.1-12.68-33.42-18.47-33.57-16.82-.06.56,1.76,1.9,23.05,16.56C206.29,145.18,209.35,147.11,209.55,146.44Z"/><path class="cls-7" d="M679.65,338.77a1717.31,1717.31,0,0,1-200.12-18.36c-196-29.72-239.29-71.54-253.11-86.54-7.4-8.05-55.25-64.39-33.84-106.22,12.29-24,41.1-32,69.16-40.65C317.1,70,366.15,76.47,403,81.75c49.07,7,82.63,19.42,129.49,36.72a782.73,782.73,0,0,1,132.44,62.94c47.9,28.71,71.95,43.52,76.52,65.57C750.75,291.82,687.5,333.71,679.65,338.77Z"/><path class="cls-8" d="M193.94,126.37c12.43-23.4,41-31.35,69-39.72a242.86,242.86,0,0,1,32.23-7.32c41.48-6.58,78.5-1.66,108.11,2.62,48.52,7,82.27,19.23,128.67,36.26a775.74,775.74,0,0,1,131.7,62.17c47.11,28.11,71.21,43,76.37,64.76,4.14,17.64-3,34.84-13.54,49.52-15.89,22.18-40.12,38.41-44.65,42.07A1818.61,1818.61,0,0,1,478,317.21c-194.66-29.71-238.56-70.36-252.35-86.46C218.06,221.86,172.23,167.19,193.94,126.37Z"/><path class="cls-9" d="M195.31,125.1c12.56-22.8,40.88-30.69,68.91-38.8a242.54,242.54,0,0,1,32-7c40.88-6.28,77.64-1.44,107.37,2.88,48,7,81.91,19,127.86,35.82a768.53,768.53,0,0,1,130.94,61.39c46.32,27.5,70.53,42.39,76.23,63.94,4.6,17.38-1.83,34.32-11.67,48.9-14.87,22.05-38.56,38.22-42.9,42.49A1926,1926,0,0,1,476.53,314c-193.28-29.7-237.81-69.19-251.6-86.37C217.1,217.89,173.3,164.91,195.31,125.1Z"/><path class="cls-10" d="M196.68,123.82c12.69-22.2,40.77-30,68.78-37.86a249.52,249.52,0,0,1,31.85-6.77c40.29-5.88,76.77-1.23,106.63,3.15,47.42,6.9,81.54,18.86,127,35.36a761.48,761.48,0,0,1,130.2,60.63c45.53,26.89,69.81,41.82,76.09,63.12,5,17.11-.68,33.81-9.8,48.28-13.83,21.93-37,38-41.16,42.91A2039.12,2039.12,0,0,1,475,310.81c-191.92-29.7-237.07-68-250.86-86.28C216.15,213.91,174.36,162.63,196.68,123.82Z"/><path class="cls-11" d="M198,122.54C210.87,101,238.71,93.27,266.7,85.61a253.41,253.41,0,0,1,31.67-6.49c39.68-5.55,75.9-1,105.88,3.41,46.87,6.86,81.18,18.68,126.22,34.91,35.75,12.75,81.14,31.49,129.46,59.86,44.74,26.29,69.09,41.25,75.94,62.31,5.48,16.84.49,33.3-7.92,47.65-12.78,21.82-35.45,37.82-39.42,43.34a2159.25,2159.25,0,0,1-215-23C283,277.92,237.24,240.7,223.44,221.42,215.21,209.93,175.43,160.35,198,122.54Z"/><path class="cls-12" d="M199.41,121.27c13-21,40.55-28.6,68.53-36a253.57,253.57,0,0,1,31.48-6.21c39.08-5.23,75-.81,105.14,3.67,46.32,6.82,80.78,18.58,125.41,34.46,36,12.81,81.14,31.31,128.71,59.08,43.94,25.68,68.37,40.69,75.8,61.5,5.91,16.57,1.64,32.8-6.05,47-11.74,21.72-33.89,37.62-37.68,43.75C600.52,322.94,526,313,472.05,304.4c-189.18-29.67-235.53-65.77-249.36-86.09C214.27,205.94,176.5,158.06,199.41,121.27Z"/><path class="cls-13" d="M200.77,120c13.14-20.36,40.45-27.91,68.41-35.07A256.24,256.24,0,0,1,300.47,79c38.49-4.91,74.17-.59,104.4,3.94,45.77,6.77,80.41,18.4,124.59,34,36.32,12.83,81.15,31.15,128,58.31,43.15,25.08,67.64,40.12,75.65,60.69,6.35,16.3,2.8,32.3-4.17,46.4C718.22,304,696.57,319.76,693,326.51c-91.65-6.18-167.45-16.45-222.42-25.31-187.8-29.67-234.74-64.65-248.61-86C213.34,202,177.64,155.83,200.77,120Z"/><path class="cls-14" d="M202.14,118.72C215.42,99,242.47,91.48,270.42,84.57a259.33,259.33,0,0,1,31.1-5.65c37.89-4.59,73.31-.38,103.66,4.2,45.22,6.74,80,18.22,123.77,33.55,36.63,12.84,81.16,31,127.23,57.54,42.36,24.47,66.92,39.56,75.51,59.87,6.77,16,4,31.81-2.3,45.79-9.64,21.52-30.78,37.23-34.2,44.59-93.07-6.74-170.12-17.35-226.14-26.46-186.43-29.66-233.94-63.53-247.85-85.92C212.41,198,178.71,153.56,202.14,118.72Z"/><path class="cls-15" d="M203.5,117.44c13.42-19.15,40.22-26.56,68.16-33.21a260.87,260.87,0,0,1,30.91-5.38c37.29-4.27,72.45-.16,102.93,4.47,44.66,6.69,79.67,18,123,33.1,36.92,12.84,81.16,30.8,126.47,56.76,41.57,23.87,66.2,39,75.37,59.06,7.21,15.77,5.12,31.31-.43,45.16-8.58,21.43-29.22,37-32.45,45-94.5-7.31-172.78-18.27-229.85-27.62C282.5,265.15,234.41,232.38,220.45,209,211.49,194,179.79,151.28,203.5,117.44Z"/><path class="cls-16" d="M204.87,116.16c13.56-18.54,40.1-25.88,68-32.28a264.82,264.82,0,0,1,30.72-5.1c36.69-4,71.59.06,102.19,4.73,44.12,6.65,79.3,17.86,122.13,32.65,37.23,12.85,81.18,30.63,125.73,56,40.78,23.27,65.46,38.43,75.22,58.25,7.64,15.5,6.29,30.82,1.45,44.54-7.52,21.34-27.67,36.84-30.72,45.44-95.91-7.87-175.44-19.18-233.56-28.78C282.37,262,233.72,230.28,219.7,205.86,210.57,190,180.86,149,204.87,116.16Z"/><path class="cls-17" d="M206.23,114.89c13.7-17.94,40-25.22,67.91-31.35a265,265,0,0,1,30.53-4.83c36.09-3.65,70.72.27,101.45,5,43.57,6.61,78.93,17.68,121.31,32.19,37.53,12.86,81.19,30.46,125,55.22,40,22.66,64.73,37.86,75.08,57.44,8.06,15.24,7.45,30.33,3.32,43.91-6.47,21.26-26.11,36.64-29,45.86-97.33-8.43-178.11-20.08-237.27-29.94C282.25,258.76,233,228.19,219,202.75,209.65,185.94,181.93,146.73,206.23,114.89Z"/><path class="cls-18" d="M207.6,113.61c13.83-17.33,39.87-24.54,67.78-30.42a269.87,269.87,0,0,1,30.34-4.55c35.48-3.34,69.86.49,100.71,5.26,43,6.57,78.57,17.5,120.5,31.75,37.83,12.85,81.19,30.28,124.24,54.44,39.19,22.06,64,37.3,74.93,56.63,8.48,15,8.63,29.84,5.2,43.29-5.4,21.18-24.56,36.44-27.24,46.28-98.75-9-180.77-21-241-31.1-180.95-29.62-230.72-59.1-244.86-85.55C208.74,181.94,183,144.45,207.6,113.61Z"/><path class="cls-19" d="M209,112.33c14-16.73,39.76-23.87,67.66-29.49a275.13,275.13,0,0,1,30.15-4.27c34.88-3,69,.7,100,5.53,42.47,6.52,78.21,17.3,119.68,31.29,38.14,12.86,81.2,30.12,123.5,53.67,38.4,21.45,63.24,36.74,74.79,55.81,8.9,14.71,9.8,29.36,7.07,42.67-4.33,21.1-23,36.25-25.5,46.7-100.17-9.56-183.44-21.9-244.71-32.25C282,252.38,231.68,224,217.46,196.52,207.83,177.93,184.06,142.17,209,112.33Z"/><path class="cls-20" d="M210.33,111.06C224.43,94.93,250,87.85,277.85,82.5a272.41,272.41,0,0,1,30-4c34.28-2.75,68.13.91,99.23,5.79,41.92,6.48,77.84,17.11,118.86,30.83,38.44,12.86,81.21,30,122.76,52.91,37.6,20.84,62.5,36.17,74.64,55a58.68,58.68,0,0,1,9,42c-3.25,21-21.45,36.05-23.76,47.12-101.59-10.12-186.1-22.82-248.42-33.41C281.87,249.18,231,221.89,216.71,193.41,206.93,173.93,185.12,139.89,210.33,111.06Z"/><path class="cls-21" d="M211.7,109.78c14.23-15.52,39.52-22.55,67.39-27.63a278.6,278.6,0,0,1,29.79-3.71c33.67-2.45,67.26,1.12,98.48,6,41.37,6.44,77.48,16.93,118,30.39,38.74,12.85,81.21,29.77,122,52.13,36.82,20.24,61.76,35.62,74.5,54.18,9.74,14.19,12.17,28.39,10.83,41.42-2.17,21-19.89,35.86-22,47.55-103-10.69-188.77-23.73-252.14-34.57C281.74,246,230.34,219.78,216,190.3,206,169.92,186.18,137.61,211.7,109.78Z"/><path class="cls-22" d="M213.06,108.51c14.37-14.93,39.41-21.89,67.27-26.71a280.52,280.52,0,0,1,29.6-3.43c33.06-2.16,66.4,1.34,97.74,6.32,40.82,6.39,77.12,16.73,117.23,29.93C564,127.47,606.13,144.22,646.16,166c36,19.63,61,35.06,74.36,53.37,10.15,13.93,13.36,27.91,12.69,40.79-1.07,20.89-18.33,35.67-20.27,48-104.43-11.25-191.44-24.64-255.85-35.72-175.47-29.59-227.41-54.71-241.87-85.2C205.13,165.91,187.24,135.33,213.06,108.51Z"/><path class="cls-23" d="M214.43,107.23C228.92,92.91,253.72,86,281.57,81.46A286,286,0,0,1,311,78.3c32.46-1.87,65.53,1.55,97,6.58,40.27,6.36,76.75,16.54,116.41,29.48,39.36,12.85,81.24,29.43,120.52,50.59,35.23,19,60.26,34.51,74.21,52.55,10.57,13.68,14.55,27.43,14.57,40.18,0,20.81-16.77,35.47-18.53,48.39-105.85-11.82-194.1-25.55-259.57-36.89-174.1-29.58-226.57-53.6-241.12-85.1C204.23,161.9,188.3,133,214.43,107.23Z"/><path class="cls-24" d="M215.79,106c14.63-13.72,39.17-20.57,67-24.84A289.41,289.41,0,0,1,312,78.23c31.86-1.59,64.67,1.77,96.27,6.85,39.71,6.31,76.38,16.34,115.59,29,39.66,12.83,81.24,29.25,119.77,49.81,34.44,18.43,59.51,34,74.07,51.74,11,13.42,15.75,27,16.44,39.55C735.31,276,719,290.48,717.38,304c-107.28-12.38-196.77-26.46-263.29-38-172.72-29.57-225.73-52.5-240.37-85C203.34,157.89,189.36,130.76,215.79,106Z"/><path class="cls-25" d="M217.16,104.68c14.75-13.13,39-19.92,66.89-23.91a290.43,290.43,0,0,1,29-2.61c31.26-1.31,63.81,2,95.53,7.11,39.17,6.28,76,16.14,114.77,28.58,40,12.82,81.25,29.09,119,49,33.65,17.82,58.76,33.41,73.92,50.93,11.39,13.16,17,26.46,18.32,38.93,2.26,20.65-13.67,35.07-15,49.23-108.7-12.94-199.43-27.37-267-39.2C281.24,233.22,227.7,211.37,213,177.85,202.44,153.88,190.42,128.47,217.16,104.68Z"/><path class="cls-26" d="M218.52,103.4c14.89-12.53,38.94-19.27,66.77-23,9.29-1.24,18.93-2,28.84-2.33,30.65-1,62.94,2.2,94.79,7.38,38.62,6.23,75.68,15.87,114,28.12,40.31,12.74,81.26,28.92,118.29,48.27,32.85,17.22,58,32.87,73.77,50.12,11.8,12.91,18.17,26,20.2,38.3,3.38,20.57-12.11,34.88-13.32,49.66C611.7,286.43,519.72,271.66,451.1,259.58c-170-29.56-224-50.31-238.87-84.84C201.55,149.87,191.47,126.18,218.52,103.4Z"/><path class="cls-27" d="M219.89,102.13c15-12,38.82-18.63,66.64-22.06,9.2-1.13,18.77-1.8,28.65-2,30.05-.76,62.08,2.41,94.05,7.64,38.07,6.19,75.32,15.69,113.14,27.68,40.6,12.73,81.26,28.74,117.53,47.49,32.07,16.61,57.26,32.32,73.64,49.31,12.21,12.65,19.37,25.47,22.07,37.68,4.52,20.48-10.56,34.68-11.58,50.07C612.5,283.82,519.27,268.7,449.61,256.38,281,226.83,226.4,207.16,211.48,171.63,200.66,145.86,192.48,123.83,219.89,102.13Z"/><path class="cls-28" d="M221.25,100.85c15.13-11.36,38.7-18,66.52-21.12,9.1-1,18.62-1.61,28.46-1.77,29.45-.5,61.22,2.62,93.31,7.9,37.52,6.15,74.95,15.5,112.32,27.22,40.91,12.74,81.28,28.57,116.79,46.72,31.27,16,56.5,31.78,73.49,48.49,12.62,12.41,20.59,25,24,37.06,5.65,20.39-9,34.49-9.84,50.5-113-14.64-207.42-30.1-278.14-42.68-167.24-29.53-222.36-48.11-237.37-84.65C199.78,141.84,193.55,121.54,221.25,100.85Z"/><path class="cls-29" d="M222.62,99.57C237.88,88.81,261.2,82.2,289,79.38c9-.93,18.46-1.43,28.27-1.49,28.85-.27,60.36,2.83,92.57,8.17a841.14,841.14,0,0,1,111.5,26.76c41.22,12.74,81.29,28.4,116,46,30.48,15.41,55.72,31.27,73.35,47.68,13,12.18,21.8,24.48,25.81,36.44,6.8,20.28-7.44,34.29-8.09,50.91-114.37-15.19-210.09-31-281.86-43.83-165.87-29.53-221.47-47-236.62-84.56C198.92,137.82,194.61,119.26,222.62,99.57Z"/><path class="cls-30" d="M730.69,291.76c-115.79-15.76-212.75-31.92-285.57-45-164.5-29.52-220.67-45.92-235.88-84.48C198,133.82,195.68,117,224,98.3c20.33-13.42,54-20.53,94.35-20.48C469.52,78,706.78,163.62,737,240.42,745,260.59,731.16,274.52,730.69,291.76Z"/><path class="cls-31" d="M225.34,98.14C245.53,84.69,279,77.68,319.18,77.76c28,0,59,3,91.14,8.33a860.85,860.85,0,0,1,95,21.69c86.53,24.78,167.83,62.55,207.75,100.58,10.68,10.21,18.61,20.7,22.8,31A34.11,34.11,0,0,1,738.41,254c-.6,13-8.44,23.81-8.9,36.26-115.14-15.59-212-32-284.35-45-163.57-29.21-219.41-45.44-234.54-83.6C199.45,133.53,197.34,116.79,225.34,98.14Z"/><path class="cls-32" d="M226.7,98C246.75,84.49,280,77.59,320,77.7c27.79.08,58.61,3,90.67,8.27a855.8,855.8,0,0,1,94.52,21.6c86.08,24.54,167,62.49,206.72,100,10.48,10,18.54,20.44,22.8,30.78a34,34,0,0,1,2.65,14.49c-.46,13-8.48,23.73-9,35.93-114.48-15.44-211.14-32.17-283.13-45-162.64-28.9-218.16-45-233.2-82.72C200.89,133.23,199,116.59,226.7,98Z"/><path class="cls-33" d="M228.07,97.84C248,84.3,281,77.49,320.86,77.64c27.6.1,58.25,3.06,90.2,8.21,30.2,4.91,63.37,12.78,94,21.51,85.61,24.3,166.33,62.35,205.67,99.47,10.31,9.72,18.45,20.18,22.82,30.51a34,34,0,0,1,2.77,14.37c-.29,13-8.51,23.66-9.21,35.59C613.32,272,516.82,255,445.24,242.36c-161.7-28.6-216.91-44.48-231.86-81.84C202.33,132.94,200.66,116.4,228.07,97.84Z"/><path class="cls-34" d="M229.43,97.68C249.19,84.1,282,77.4,321.7,77.58c27.41.12,57.89,3.07,89.73,8.15,29.81,4.81,63.23,12.82,93.53,21.42,85.15,24.06,165.57,62.27,204.64,98.91,10.11,9.49,18.36,19.93,22.83,30.25a34.48,34.48,0,0,1,2.9,14.25c-.13,12.95-8.55,23.59-9.37,35.25-113.17-15.1-209.51-32.4-280.68-44.92-160.77-28.29-215.66-44-230.53-81C203.77,132.65,202.32,116.21,229.43,97.68Z"/><path class="cls-35" d="M230.79,97.53c19.62-13.62,52.18-20.22,91.75-20,27.22.13,57.52,3.07,89.27,8.07,29.41,4.71,63.08,12.87,93,21.33,84.68,23.83,164.8,62.19,203.59,98.36,9.93,9.25,18.28,19.67,22.84,30a34.48,34.48,0,0,1,3,14.12c0,13-8.59,23.53-9.52,34.93-112.51-14.95-208.71-32.53-279.46-44.91-159.84-28-214.41-43.53-229.19-80.08C205.22,132.35,204,116,230.79,97.53Z"/><path class="cls-36" d="M232.15,97.38C251.64,83.72,284,77.22,323.38,77.47c27,.15,57.16,3.08,88.8,8,29,4.61,62.93,12.91,92.53,21.24,84.23,23.59,164,62.11,202.56,97.81,9.73,9,18.19,19.41,22.85,29.72a34.86,34.86,0,0,1,3.16,14c.2,13-8.63,23.46-9.69,34.59C611.74,268.06,515.7,250.2,445.36,238c-158.9-27.67-213.16-43-227.85-79.2C206.66,132.06,205.65,115.82,232.15,97.38Z"/><path class="cls-37" d="M233.51,97.23c19.37-13.67,51.43-20.1,90.71-19.82,26.84.18,56.8,3.09,88.33,8,28.62,4.5,62.79,13,92,21.15,83.76,23.35,163.26,62,201.52,97.25,9.53,8.78,18.09,19.16,22.85,29.46a34.9,34.9,0,0,1,3.29,13.88c.37,13-8.67,23.39-9.84,34.25-111.19-14.61-207.08-32.76-277-44.87-158-27.37-211.91-42.57-226.51-78.32C208.1,131.77,207.34,115.68,233.51,97.23Z"/><path class="cls-38" d="M234.87,97.07c19.24-13.7,51.06-20,90.19-19.72,26.65.2,56.43,3.1,87.87,7.89,28.22,4.4,62.64,13,91.53,21.06,83.3,23.11,162.49,62,200.48,96.69,9.35,8.54,18,18.91,22.87,29.21A35,35,0,0,1,731.22,246c.54,13-8.7,23.32-10,33.92C610.69,265.42,515,247,445.44,235c-157-27.06-210.65-42.09-225.18-77.44C209.54,131.47,209,115.49,234.87,97.07Z"/><path class="cls-39" d="M236.23,96.92c19.1-13.74,50.69-20,89.68-19.63,26.45.22,56.06,3.11,87.39,7.82,27.83,4.31,62.49,13,91,21C587.17,129,666.05,168,703.78,202.22c9.15,8.31,17.91,18.66,22.88,28.95a35.5,35.5,0,0,1,3.54,13.63c.71,13-8.75,23.24-10.15,33.58-109.89-14.29-205.47-33-274.57-44.84-156.1-26.75-209.4-41.61-223.84-76.56C211,131.18,210.67,115.3,236.23,96.92Z"/><path class="cls-40" d="M237.59,96.77c19-13.78,50.32-19.92,89.16-19.54,26.26.24,55.7,3,86.92,7.76,27.45,4.15,62.35,13.08,90.55,20.88,82.37,22.64,160.93,61.82,198.4,95.59,9,8.07,17.81,18.4,22.88,28.68a35.57,35.57,0,0,1,3.67,13.5c.88,13-8.78,23.18-10.31,33.25-109.22-14.12-204.65-33.12-273.34-44.82C290.35,205.62,237.37,190.93,223,156.39,212.42,130.89,212.34,115.11,237.59,96.77Z"/><path class="cls-41" d="M239,96.61c18.83-13.81,49.95-19.85,88.64-19.44,26.07.26,55.34,3,86.46,7.7,27.05,4,62.19,13.11,90,20.79,81.91,22.4,160.16,61.74,197.36,95,8.76,7.84,17.73,18.15,22.9,28.42a35.86,35.86,0,0,1,3.79,13.38c1.06,13-8.82,23.11-10.46,32.92-108.57-14-203.84-33.24-272.12-44.81-154.24-26.14-206.9-40.66-221.16-74.8C213.86,130.59,214,114.92,239,96.61Z"/><path class="cls-42" d="M240.31,96.46C259,82.6,289.89,76.67,328.43,77.12c25.88.28,55,3,86,7.63,26.65,3.93,62.05,13.15,89.55,20.7,81.44,22.16,159.38,61.67,196.32,94.47,8.56,7.61,17.63,17.9,22.9,28.16a36.24,36.24,0,0,1,3.93,13.26c1.23,13-8.86,23-10.62,32.58-107.92-13.79-203-33.36-270.9-44.79C292.3,203.3,240,189,225.78,155.21,215.31,130.3,215.67,114.73,240.31,96.46Z"/><path class="cls-43" d="M241.67,96.31c18.55-13.9,49.21-19.73,87.6-19.25,25.69.3,54.61,3.06,85.52,7.57,26.26,3.83,61.91,13.19,89,20.61,81,21.93,158.6,61.6,195.29,93.92,8.36,7.37,17.53,17.64,22.91,27.89a36.52,36.52,0,0,1,4.05,13.14c1.41,13-8.9,23-10.77,32.24C608.06,258.8,513.09,239,445.64,227.66c-152.37-25.52-204.4-39.7-218.49-73C216.75,130,217.33,114.54,241.67,96.31Z"/><path class="cls-44" d="M243,96.15C261.45,82.22,291.87,76.49,330.11,77c25.49.32,54.25,3.06,85.05,7.5C441,88.23,476.92,97.74,503.72,105c80.52,21.69,157.82,61.53,194.24,93.36,8.17,7.14,17.44,17.39,22.93,27.64a36.79,36.79,0,0,1,4.17,13c1.59,13-8.93,22.91-10.93,31.91-106.6-13.46-201.41-33.59-268.44-44.75C294.24,201,242.54,187,228.53,154,218.19,129.71,219,114.35,243,96.15Z"/><path class="cls-45" d="M244.39,96C262.67,82,292.85,76.4,331,76.94c25.3.34,53.89,3.07,84.59,7.44,25.47,3.63,61.61,13.28,88,20.43,80.06,21.46,157,61.47,193.21,92.81,8,6.91,17.34,17.14,22.93,27.38A37.25,37.25,0,0,1,724,237.88c1.77,13-9,22.84-11.09,31.58-105.94-13.3-200.6-33.72-267.22-44.74C295.22,199.81,243.83,186,229.91,153.44,219.63,129.42,220.65,114.15,244.39,96Z"/><path class="cls-45" d="M245.75,95.85c18.14-14,48.09-19.55,86-19,25.11.36,53.52,3.08,84.12,7.38,25.07,3.52,61.47,13.32,87.56,20.34,79.59,21.22,156.25,61.41,192.17,92.25,7.77,6.68,17.24,16.89,22.94,27.12A37.6,37.6,0,0,1,723,236.73c2,13-9,22.76-11.24,31.24-105.29-13.13-199.79-33.84-266-44.72-149.58-24.6-200.65-38.27-214.48-70.4C221.07,129.13,222.32,114,245.75,95.85Z"/><path class="cls-46" d="M247.11,95.7c18-14.07,47.72-19.49,85.53-18.88,24.91.39,53.15,3.09,83.64,7.32C441,87.56,477.6,97.5,503.34,104.39c79.13,21,155.46,61.35,191.13,91.7,7.58,6.44,17.14,16.63,22.95,26.85A37.94,37.94,0,0,1,722,235.58c2.14,13-9,22.69-11.39,30.9-104.64-13-199-34-264.78-44.71C297.16,197.49,246.41,184,232.66,152.26,222.51,128.83,224,113.77,247.11,95.7Z"/><path class="cls-47" d="M248.47,95.54c17.86-14.1,47.35-19.42,85-18.77,24.72.4,52.79,3.08,83.18,7.24,24.28,3.33,61.17,13.41,86.56,20.17,78.67,20.74,154.66,61.29,190.09,91.14,7.38,6.22,17,16.38,23,26.59A38.64,38.64,0,0,1,721,234.42c2.32,13-9.09,22.63-11.56,30.58-104-12.81-198.17-34.08-263.55-44.7C298.13,196.32,247.7,183,234,151.67,224,128.54,225.64,113.57,248.47,95.54Z"/><path class="cls-48" d="M249.83,95.39c17.72-14.15,47-19.36,84.49-18.68,24.53.42,52.42,3.09,82.71,7.18,23.89,3.23,61,13.44,86.06,20.08C581.3,124.47,657,165.2,692.14,194.55c7.18,6,16.94,16.14,23,26.33a39,39,0,0,1,4.82,12.39c2.51,13-9.12,22.56-11.71,30.24-103.32-12.64-197.36-34.2-262.33-44.68C299.11,195.16,249,182,235.42,151.08,225.4,128.25,227.3,113.38,249.83,95.39Z"/><path class="cls-49" d="M251.19,95.24c17.58-14.19,46.61-19.3,84-18.59,24.34.44,52.06,3.11,82.24,7.12,23.49,3.12,60.88,13.48,85.57,20,77.74,20.27,153.07,61.19,188,90,7,5.76,16.84,15.88,23,26.07a39.12,39.12,0,0,1,4.94,12.26c2.71,13-9.16,22.49-11.86,29.9-102.67-12.47-196.55-34.31-261.11-44.66C300.08,194,250.28,181,236.8,150.49,226.84,128,229,113.18,251.19,95.24Z"/><path class="cls-50" d="M252.55,95.08C270,80.85,298.79,75.85,336,76.59c24.15.46,51.69,3.12,81.78,7.06,23.09,3,60.73,13.52,85.06,19.89,77.28,20,152.28,61.14,187,89.48,6.77,5.53,16.73,15.64,23,25.81A40.14,40.14,0,0,1,717.88,231c2.89,13-9.2,22.42-12,29.57-102-12.32-195.73-34.44-259.88-44.65-144.92-23.06-194.39-35.87-207.79-66C228.28,127.66,230.62,113,252.55,95.08Z"/><path class="cls-51" d="M253.91,94.93c17.3-14.28,45.86-19.18,82.93-18.4,24,.49,51.33,3.13,81.31,7,22.7,2.92,60.59,13.56,84.57,19.8,76.82,19.79,151.47,61.1,185.93,88.92,6.58,5.31,16.63,15.39,23,25.55a40.45,40.45,0,0,1,5.2,12c3.09,13-9.24,22.36-12.18,29.24C603.32,246.9,509.74,224.49,446,214.42,302,191.67,252.87,179,239.55,149.31,229.72,127.37,232.28,112.79,253.91,94.93Z"/><path class="cls-52" d="M255.27,94.78c17.16-14.32,45.49-19.12,82.41-18.31,23.77.51,51,3.14,80.84,6.93C440.83,86.23,479,97,502.6,103.12c76.35,19.55,150.65,61.06,184.89,88.36,6.37,5.09,16.53,15.15,23,25.29a41,41,0,0,1,5.32,11.89c3.29,13-9.27,22.28-12.33,28.9-100.69-12-194.12-34.67-257.44-44.61C303,190.51,254.16,178,240.93,148.72,231.16,127.08,233.94,112.59,255.27,94.78Z"/><path class="cls-53" d="M256.63,94.62c17-14.36,45.12-19.05,81.89-18.21,23.58.53,50.6,3.16,80.38,6.87,21.9,2.73,60.29,13.65,83.57,19.63,75.89,19.31,149.85,61,183.86,87.81,6.17,4.85,16.42,14.89,23,25a41.79,41.79,0,0,1,5.46,11.77c3.48,13-9.32,22.21-12.49,28.57-100-11.83-193.31-34.8-256.22-44.6C304,189.35,255.45,177.05,242.31,148.13,232.6,126.78,235.59,112.39,256.63,94.62Z"/><path class="cls-54" d="M258,94.47c16.87-14.41,44.75-19,81.38-18.11,23.38.54,50.23,3.16,79.9,6.8,21.51,2.64,60.15,13.69,83.08,19.53,75.42,19.08,149,61,182.81,87.26a118.71,118.71,0,0,1,23,24.77,42.36,42.36,0,0,1,5.58,11.64c3.68,13-9.35,22.14-12.65,28.23-99.38-11.66-192.49-34.92-255-44.58C305,188.18,256.74,176.06,243.69,147.54,234.05,126.49,237.25,112.19,258,94.47Z"/><path class="cls-55" d="M259.35,94.32c16.7-14.49,44.38-18.93,80.86-18,23.19.56,49.85,3.23,79.43,6.74,21.11,2.58,60,13.73,82.58,19.44,75,18.84,148.21,61,181.78,86.7a120.16,120.16,0,0,1,23,24.51,43,43,0,0,1,5.7,11.51c3.89,13-9.39,22.08-12.8,27.9-98.72-11.49-191.69-35-253.77-44.56C305.92,187,258,175.07,245.06,147,235.49,126.2,238.87,112,259.35,94.32Z"/><path class="cls-56" d="M260.71,94.17c16.56-14.54,44-18.87,80.34-17.93,23,.59,49.49,3.24,79,6.67,20.72,2.48,59.86,13.78,82.09,19.36,74.5,18.61,147.37,61,180.74,86.14a121.5,121.5,0,0,1,23,24.25,43.74,43.74,0,0,1,5.84,11.39c4.09,13-9.43,22-13,27.56-98.07-11.32-190.88-35.15-252.55-44.54-139.32-21.21-186.88-33-199.77-60.71C236.93,125.9,240.53,111.76,260.71,94.17Z"/><path class="cls-57" d="M262.07,94c16.42-14.57,43.64-18.8,79.82-17.83,22.81.61,49.13,3.25,78.5,6.61C440.71,85.17,480.1,96.6,502,102.06c74,18.37,146.54,61,179.7,85.59a122.36,122.36,0,0,1,23.06,24,44.63,44.63,0,0,1,6,11.27c4.3,13-9.46,21.94-13.11,27.23C600.17,239,507.51,214.86,446.25,205.6c-138.38-20.9-185.63-32.52-198.43-59.83C238.37,125.61,242.19,111.57,262.07,94Z"/><path class="cls-58" d="M263.43,93.86c16.28-14.62,43.26-18.75,79.3-17.74,22.62.63,48.76,3.26,78,6.55,19.93,2.28,59.56,13.85,81.09,19.18,73.57,18.13,145.7,61,178.66,85a123.16,123.16,0,0,1,23.06,23.72,45,45,0,0,1,6.09,11.15c4.51,13-9.5,21.87-13.27,26.89-96.75-11-189.25-35.39-250.1-44.51-137.45-20.6-184.38-32-197.09-58.95C239.81,125.32,243.86,111.37,263.43,93.86Z"/><path class="cls-59" d="M264.8,93.71C280.94,79.05,307.68,75,343.57,76.06c22.43.65,48.4,3.27,77.56,6.49,19.53,2.17,59.42,13.89,80.59,19.08,73.12,17.9,144.85,61,177.63,84.48,4.93,3.54,15.75,13.45,23.07,23.46a46.86,46.86,0,0,1,6.22,11c4.71,13-9.54,21.8-13.43,26.56-96.1-10.83-188.45-35.51-248.88-44.49C309.81,182.37,263.2,171.1,250.58,144.59,241.25,125,245.52,111.18,264.8,93.71Z"/><path class="cls-60" d="M694,245.67C598.59,235,506.39,210,446.37,201.19,310.78,181.21,264.49,170.11,252,144c-9.26-19.27-4.77-33,14.21-50.45,25.95-23.84,79.56-19.33,155.35-11.12,19.13,2.07,59.27,13.93,80.09,19,72.65,17.66,144,61.06,176.58,83.93,6.49,4.55,24.65,21.46,29.43,34.09C712.53,232.45,698,241.17,694,245.67Z"/><path class="cls-61" d="M689.17,244.25c-94.46-10.66-185.6-35.37-245-44.21-133.48-19.7-179.13-30.79-191.44-56.64-9.1-19.18-4.46-32.9,14.48-50,25.68-23.41,78.63-19,153.42-10.83,19.42,2.15,59.36,14,80.35,19.16,72.77,17.9,144.34,61.35,176.71,84,5.49,4.35,22.65,20.83,26.7,33.16C708.58,231.49,693.76,240,689.17,244.25Z"/><path class="cls-62" d="M684.31,242.83C590.84,232.18,500.74,207.72,442,198.9c-131.37-19.42-176.36-30.51-188.46-56.11-8.93-19.08-4.14-32.78,14.77-49.6,25.41-23,77.69-18.58,151.48-10.54,19.71,2.22,59.45,14,80.61,19.32,72.88,18.15,144.69,61.65,176.85,84.1,4.47,4.16,20.64,20.2,24,32.23C704.62,230.55,689.49,238.83,684.31,242.83Z"/><path class="cls-63" d="M679.45,241.41C587,230.77,497.91,206.56,439.84,197.75c-129.25-19.14-173.67-30.19-185.48-55.56-8.82-19-3.81-32.66,15.06-49.18C294.55,70.45,346.19,74.59,419,82.76c20,2.24,59.54,14.06,80.87,19.49,73,18.39,145.05,61.94,177,84.18,3.47,4,18.65,19.58,21.24,31.29C700.68,229.61,685.22,237.66,679.45,241.41Z"/><path class="cls-64" d="M674.59,240c-91.5-10.63-179.5-34.59-236.93-43.39-127.14-18.85-170.94-29.89-182.49-55-8.68-18.86-3.5-32.54,15.34-48.75,24.86-22.14,75.84-18.11,147.6-10,20.29,2.31,59.63,14.11,81.13,19.67,73.12,18.64,145.4,62.23,177.11,84.26,2.47,3.76,16.66,19,18.51,30.36S681,236.49,674.59,240Z"/><path class="cls-65" d="M669.73,238.57C579.21,228,492.26,204.24,435.48,195.46c-125-18.58-168.2-29.6-179.51-54.48-8.53-18.76-3.18-32.43,15.62-48.33C296.18,70.94,346.5,74.86,417.26,83c20.58,2.37,59.71,14.19,81.39,19.83,73.19,19,145.75,62.53,177.25,84.35,1.45,3.57,14.66,18.36,15.77,29.43S676.68,235.32,669.73,238.57Z"/><path class="cls-66" d="M664.87,237.15c-89.53-10.6-175.43-34.07-231.57-42.84C310.39,176,267.84,165,256.77,140.37c-8.38-18.66-2.86-32.3,15.91-47.9C297,71.18,346.66,75,416.41,83.08c20.87,2.42,59.8,14.24,81.65,20,73.3,19.31,146.1,62.81,177.38,84.44.45,3.36,12.68,17.76,13,28.49S672.41,234.15,664.87,237.15Z"/><path class="cls-67" d="M660,235.73c-88.54-10.59-173.4-33.81-228.89-42.57-120.79-18-162.72-29-173.55-53.4-8.23-18.55-2.54-32.18,16.2-47.47,24-20.86,73-17.15,141.79-9.1,21.16,2.48,59.89,14.29,81.92,20.17,73.4,19.58,146.45,63.1,177.5,84.52-.55,3.17,10.69,17.17,10.32,27.56S668.13,233,660,235.73Z"/><path class="cls-68" d="M655.15,234.31C567.59,223.73,483.78,200.76,429,192c-118.69-17.72-160-28.7-170.57-52.85-8.09-18.46-2.22-32.07,16.48-47C298.63,71.67,347,75.29,414.71,83.3c21.45,2.54,60,14.34,82.18,20.33,73.51,19.85,146.8,63.4,177.64,84.61-1.57,3,8.69,16.61,7.58,26.62C681,225.09,663.86,231.81,655.15,234.31Z"/><path class="cls-69" d="M650.29,232.89c-86.57-10.56-169.33-33.28-223.52-42-116.57-17.44-157.24-28.41-167.59-52.32-7.94-18.35-1.9-31.94,16.76-46.62,23.5-20,71.18-16.49,137.92-8.52,21.74,2.6,60.07,14.39,82.44,20.5C569.92,124,643.45,167.6,674.07,188.6c-2.57,2.77,6.69,16.05,4.85,25.69C677,224.24,659.59,230.64,650.29,232.89Z"/><path class="cls-70" d="M645.43,231.47c-85.59-10.55-167.3-33-220.84-41.75C310.13,172.56,270.09,161.6,260,138c-7.79-18.26-1.58-31.83,17-46.21,23.22-19.58,70.24-16.14,136-8.22,22,2.66,60.16,14.44,82.7,20.67,73.73,20.38,147.5,64,177.9,84.77-3.57,2.58,4.68,15.51,2.12,24.76C673.06,223.39,655.32,229.47,645.43,231.47Z"/><path class="cls-71" d="M640.57,230.05c-84.6-10.54-165.26-32.76-218.16-41.48-112.34-16.87-151.76-27.82-161.62-51.23-7.65-18.15-1.27-31.71,17.33-45.78,22.95-19.15,69.31-15.8,134-7.93,22.32,2.72,60.25,14.49,83,20.83,73.84,20.65,147.85,64.28,178,84.87-4.59,2.37,2.64,15-.62,23.82C669.08,222.56,651.05,228.3,640.57,230.05Z"/><path class="cls-72" d="M635.71,228.63c-83.62-10.53-163.23-32.5-215.48-41.2-110.23-16.6-149-27.53-158.64-50.7-7.5-18-.94-31.58,17.62-45.35,22.67-18.73,68.37-15.46,132.1-7.64,22.61,2.78,60.34,14.53,83.22,21,74,20.91,148.21,64.57,178.17,85-5.59,2.18.6,14.44-3.34,22.89C665.08,221.73,646.78,227.13,635.71,228.63Z"/><path class="cls-73" d="M630.85,227.21c-82.63-10.52-161.2-32.24-212.8-40.93C309.94,170,271.78,159,262.39,136.13c-7.35-17.95-.62-31.47,17.91-44.93,22.4-18.3,67.43-15.11,130.16-7.35,22.89,2.84,60.43,14.58,83.48,21.17,74.06,21.16,148.56,64.85,178.3,85-6.59,2-1.47,13.91-6.07,21.95C661.07,220.91,642.51,226,630.85,227.21Z"/><path class="cls-74" d="M626,225.79c-81.65-10.5-159.16-32-210.11-40.66-106-16-143.54-26.94-152.68-49.61-7.21-17.85-.31-31.34,18.18-44.5,22.13-17.88,66.5-14.76,128.23-7.06,23.18,2.9,60.53,14.63,83.74,21.33,74.18,21.43,148.91,65.15,178.44,85.12-7.61,1.78-3.56,13.38-8.81,21C657,220.08,638.24,224.79,626,225.79Z"/><path class="cls-75" d="M621.13,224.37C540.47,213.88,464,192.65,413.7,184,309.81,168.24,272.91,157.33,264,134.92c-7.05-17.76,0-31.23,18.47-44.08C304.33,73.39,348,76.43,408.76,84.07c23.47,3,60.62,14.67,84,21.5C567.05,127.25,642,171,671.33,190.77c-8.61,1.59-5.66,12.84-11.54,20.09C653,219.25,634,223.62,621.13,224.37Z"/><path class="cls-76" d="M616.27,223c-79.67-10.48-155.1-31.46-204.75-40.11-101.78-15.47-138-26.36-146.72-48.53-6.9-17.65.34-31.11,18.76-43.65,21.58-17,64.63-14.06,124.35-6.48,23.76,3,60.71,14.72,84.26,21.67,74.4,21.94,149.62,65.73,178.7,85.28-9.62,1.39-7.77,12.3-14.26,19.16C648.93,218.41,629.69,222.45,616.27,223Z"/><path class="cls-77" d="M611.41,221.53c-78.69-10.47-153.06-31.2-202.07-39.84-99.66-15.18-135.3-26.07-143.74-48-6.75-17.55.66-31,19-43.22,21.31-16.6,63.69-13.7,122.41-6.19,24.05,3.08,60.8,14.76,84.53,21.83,74.5,22.2,150,66,178.83,85.38-10.63,1.19-9.9,11.73-17,18.22C644.85,217.55,625.42,221.28,611.41,221.53Z"/><path class="cls-78" d="M606.55,220.11c-77.7-10.46-151-30.93-199.39-39.57-97.55-14.9-132.55-25.78-140.75-47.44-6.61-17.46,1-30.87,19.32-42.8,21-16.18,62.76-13.34,120.48-5.9,24.34,3.14,60.89,14.81,84.79,22,74.61,22.45,150.31,66.32,179,85.46-11.63,1-12,11.15-19.73,17.28C640.77,216.67,621.15,220.1,606.55,220.11Z"/><path class="cls-79" d="M601.69,218.69C525,208.25,452.7,188,405,179.4c-95.43-14.62-129.81-25.49-137.77-46.91-6.45-17.36,1.29-30.75,19.61-42.37,20.76-15.75,61.82-13,118.55-5.61,24.62,3.2,61,14.85,85,22.17,74.73,22.7,150.66,66.6,179.09,85.54-12.64.79-14.16,10.57-22.46,16.35C636.68,215.79,616.88,218.93,601.69,218.69Z"/><path class="cls-80" d="M596.83,217.27c-75.73-10.43-147-30.41-194-39-93.33-14.34-127.07-25.2-134.8-46.36-6.3-17.26,1.61-30.63,19.9-41.95,20.49-15.33,60.88-12.62,116.61-5.32,24.91,3.27,61.06,14.9,85.3,22.33,74.84,23,151,66.9,179.23,85.63-13.65.6-16.3,10-25.2,15.42C632.59,214.88,612.61,217.76,596.83,217.27Z"/><path class="cls-81" d="M592,215.85C517.22,205.43,447,185.7,400.63,177.1c-91.21-14-124.32-24.91-131.81-45.82-6.15-17.16,1.93-30.51,20.18-41.52,20.21-14.9,59.94-12.25,114.67-5,25.2,3.33,61.15,14.94,85.56,22.5,74.95,23.21,151.37,67.19,179.36,85.71-14.65.4-18.43,9.38-27.92,14.49C628.5,214,608.34,216.59,592,215.85Z"/><path class="cls-82" d="M587.11,214.44C513.35,204,444.22,184.54,398.45,176c-89.1-13.77-121.57-24.63-128.83-45.29-6-17.06,2.25-30.39,20.46-41.1,19.95-14.47,59-11.87,112.74-4.73,25.49,3.39,61.24,15,85.82,22.67C563.71,131,640.36,175,668.13,193.3c-15.66.21-20.55,8.77-30.65,13.56C624.42,213,604.07,215.42,587.11,214.44Z"/><path class="cls-83" d="M582.25,213c-72.78-10.41-140.86-29.64-186-38.21-87-13.49-118.82-24.34-125.85-44.74-5.84-17,2.57-30.27,20.75-40.68,19.67-14,58.07-11.5,110.8-4.44,25.78,3.45,61.33,15,86.08,22.83,75.18,23.71,152.07,67.78,179.63,85.89-16.67,0-22.69,8.14-33.39,12.61C620.33,212.11,599.8,214.25,582.25,213Z"/><path class="cls-84" d="M577.39,211.6c-71.79-10.39-138.82-29.38-183.3-37.94-84.87-13.2-116.06-24-122.86-44.2-5.7-16.87,2.88-30.15,21-40.25,19.4-13.62,57.13-11.13,108.86-4.15,26.07,3.52,61.42,15.07,86.34,23,75.3,23.95,152.42,68.07,179.76,86-17.67-.2-24.8,7.52-36.12,11.68C616.26,211.17,595.53,213.08,577.39,211.6Z"/><path class="cls-85" d="M572.53,210.18c-70.8-10.38-136.79-29.12-180.62-37.67C309.16,159.59,278.6,148.75,272,128.86c-5.54-16.78,3.21-30,21.32-39.83,19.12-13.2,56.19-10.75,106.92-3.86,26.36,3.58,61.51,15.12,86.6,23.17,75.41,24.19,152.78,68.36,179.89,86-18.68-.39-26.92,6.9-38.85,10.75C612.18,210.22,591.26,211.91,572.53,210.18Z"/><path class="cls-86" d="M567.67,208.76c-69.82-10.37-134.76-28.86-177.93-37.39-80.65-12.64-110.57-23.48-116.91-43.12-5.38-16.68,3.53-29.91,21.6-39.4,18.86-12.77,55.26-10.37,105-3.57,26.65,3.65,61.61,15.16,86.86,23.33,75.53,24.45,153.13,68.65,180,86.14-19.69-.59-29,6.27-41.58,9.82C608.11,209.27,587,210.74,567.67,208.76Z"/><path class="cls-87" d="M562.81,207.34C494,197,430.09,178.75,387.56,170.22,309,157.86,279.75,147,273.64,127.65c-5.24-16.6,3.84-29.8,21.88-39,18.58-12.35,54.32-10,103.05-3.28,26.94,3.71,61.7,15.2,87.12,23.5,75.64,24.69,153.48,68.94,180.16,86.22-20.69-.78-31.14,5.64-44.31,8.89C604.05,208.31,582.71,209.57,562.81,207.34Z"/><path class="cls-88" d="M558,205.92c-67.85-10.35-130.69-28.33-172.57-36.85C309,157,280.32,146.17,274.44,127c-5.08-16.5,4.16-29.67,22.17-38.55,18.31-11.92,53.38-9.61,101.11-3,27.23,3.78,61.79,15.24,87.39,23.67,75.75,24.93,153.82,69.23,180.28,86.31-21.7-1-33.24,5-47,7.94A188.74,188.74,0,0,1,558,205.92Z"/><path class="cls-89" d="M553.09,204.5c-66.86-10.33-128.65-28.07-169.89-36.57-74.3-11.8-102.3-22.62-108-41.5-4.92-16.4,4.49-29.55,22.46-38.12,18-11.5,52.43-9.23,99.17-2.7,27.51,3.85,61.88,15.28,87.65,23.83,75.87,25.18,154.17,69.53,180.42,86.4-22.71-1.19-35.35,4.36-49.78,7A204.54,204.54,0,0,1,553.09,204.5Z"/><path class="cls-89" d="M548.23,203.08c-65.88-10.32-126.62-27.81-167.21-36.3-72.19-11.51-99.54-22.34-105-40.95-4.76-16.31,4.81-29.44,22.75-37.7,17.75-11.07,51.49-8.85,97.23-2.41,27.8,3.91,62,15.32,87.91,24,76,25.42,154.53,69.82,180.55,86.48-23.71-1.38-37.45,3.72-52.51,6.08A221.71,221.71,0,0,1,548.23,203.08Z"/><path class="cls-90" d="M543.37,201.66c-64.89-10.31-124.59-27.55-164.53-36-70.07-11.23-96.78-22-102-40.41C272.24,109,282,95.91,299.87,88c17.49-10.65,50.56-8.46,95.3-2.12,28.09,4,62.07,15.36,88.17,24.17,76.1,25.65,154.88,70.11,180.68,86.56-24.72-1.58-39.54,3.09-55.23,5.15A239.67,239.67,0,0,1,543.37,201.66Z"/><path class="cls-91" d="M538.51,200.24C474.6,189.94,416,173,376.66,164.49c-68-11-94-21.77-99-39.87-4.44-16.13,5.44-29.2,23.31-36.85,17.21-10.22,49.62-8.07,93.36-1.83,28.38,4,62.16,15.4,88.43,24.33C559,136.17,638,180.67,663.57,196.92c-25.73-1.77-41.64,2.45-58,4.21C583.78,203.49,561.36,203.72,538.51,200.24Z"/><path class="cls-92" d="M533.65,198.82c-62.92-10.29-120.52-27-159.16-35.48-65.85-10.67-91.27-21.49-96-39.33-4.28-16,5.76-29.08,23.6-36.43,16.94-9.79,48.67-7.67,91.42-1.53,28.67,4.12,62.25,15.45,88.69,24.5,76.33,26.14,155.58,70.69,181,86.73-26.73-2-43.73,1.81-60.7,3.28C579.73,202.53,557.09,202.55,533.65,198.82Z"/><path class="cls-93" d="M528.79,197.4c-61.93-10.27-118.48-26.77-156.48-35.21-63.74-10.38-88.5-21.2-93.05-38.79-4.13-15.94,6.08-28.95,23.88-36,16.66-9.36,47.73-7.28,89.48-1.24,29,4.19,62.34,15.48,88.95,24.66,76.45,26.38,155.94,71,181.08,86.83-27.74-2.18-45.81,1.16-63.43,2.34C575.69,201.56,552.82,201.38,528.79,197.4Z"/><path class="cls-94" d="M523.93,196C463,185.72,407.48,169.47,370.13,161c-61.62-10.09-85.74-20.92-90.07-38.24-4-15.85,6.4-28.84,24.16-35.58,16.4-8.94,46.8-6.89,87.55-1C421,90.53,454.2,101.79,481,111.1,557.55,137.71,637.27,182.38,662.2,198c-28.75-2.37-47.91.53-66.17,1.41C571.65,200.6,548.55,200.21,523.93,196Z"/><path class="cls-95" d="M519.07,194.56c-60-10.25-114.42-26.24-151.12-34.66-59.51-9.82-83-20.64-87.09-37.71-3.8-15.76,6.72-28.72,24.45-35.15,16.12-8.51,45.85-6.5,85.61-.66,29.53,4.34,62.53,15.56,89.47,25,76.69,26.85,156.64,71.57,181.35,87-29.75-2.57-50-.11-68.89.48C567.61,199.63,544.27,199,519.07,194.56Z"/><path class="cls-96" d="M514.21,193.14c-59-10.24-112.38-26-148.44-34.39-57.39-9.53-80.21-20.36-84.1-37.16-3.64-15.67,7-28.6,24.73-34.73,15.85-8.09,44.91-6.1,83.67-.37,29.82,4.41,62.62,15.6,89.73,25.16,76.81,27.09,157,71.87,181.48,87.08-30.76-2.76-52.07-.75-71.62-.46C563.57,198.66,540,197.87,514.21,193.14Z"/><path class="cls-97" d="M509.35,191.72C451.36,181.5,399,166,363.59,157.6c-55.28-9.25-77.44-20.08-81.12-36.62-3.47-15.58,7.36-28.48,25-34.3,15.57-7.66,44-5.71,81.73-.08,30.11,4.49,62.71,15.64,90,25.33,76.92,27.32,157.33,72.15,181.61,87.16-31.77-3-54.16-1.38-74.36-1.39C559.54,197.7,535.73,196.7,509.35,191.72Z"/><path class="cls-98" d="M504.49,190.3c-57-10.21-108.32-25.46-143.07-33.84-53.17-9-74.68-19.8-78.15-36.09C280,104.89,291,92,308.57,86.5c15.31-7.24,43-5.31,79.8.21,30.4,4.56,62.81,15.68,90.26,25.5,77,27.55,157.69,72.44,181.74,87.24-32.78-3.16-56.23-2-77.09-2.32C555.51,196.73,531.46,195.52,504.49,190.3Z"/><path class="cls-99" d="M499.63,188.88c-56-10.2-106.28-25.2-140.39-33.57-51.06-8.69-71.91-19.52-75.17-35.54-3.13-15.4,8-28.24,25.59-33.45,15-6.81,42.09-4.91,77.86.5,30.69,4.64,62.9,15.72,90.52,25.66,77.16,27.79,158,72.74,181.87,87.34-33.78-3.36-58.31-2.67-79.82-3.26C551.47,195.77,527.19,194.35,499.63,188.88Z"/><path class="cls-100" d="M494.77,187.46c-55-10.19-104.25-24.94-137.71-33.3-48.94-8.4-69.13-19.24-72.18-35-3-15.31,8.31-28.12,25.87-33,14.75-6.39,41.15-4.51,75.93.79,31,4.72,63,15.76,90.77,25.83,77.28,28,158.39,73,182,87.42-34.79-3.56-60.4-3.31-82.55-4.19C547.44,194.81,522.92,193.18,494.77,187.46Z"/><path class="cls-101" d="M489.91,186c-54.05-10.18-102.21-24.68-135-33-46.83-8.12-66.36-18.95-69.2-34.45-2.79-15.22,8.63-28,26.16-32.6,14.48-6,40.2-4.11,74,1.08,31.25,4.8,63.08,15.79,91,26,77.4,28.25,158.74,73.32,182.14,87.5-35.8-3.75-62.47-3.94-85.28-5.13C543.41,193.84,518.65,192,489.91,186Z"/><path class="cls-102" d="M485.05,184.62C432,174.46,384.87,160.2,352.7,151.87,308,144,289.12,133.19,286.48,118s9-27.88,26.44-32.17c14.21-5.54,39.27-3.71,72.06,1.37C416.52,92,448.15,103,476.27,113.31c77.52,28.49,159.1,73.62,182.27,87.59-36.8-4-64.54-4.58-88-6.06C539.39,192.88,514.38,190.84,485.05,184.62Z"/><path class="cls-103" d="M480.19,183.2C428.11,173.05,382,159,350.52,150.72c-42.6-7.56-60.8-18.4-63.23-33.37S296.56,89.58,314,85.6c13.94-5.11,38.32-3.31,70.12,1.66s63.26,15.87,91.55,26.33c77.64,28.72,159.45,73.91,182.41,87.67-37.81-4.15-66.63-5.21-90.75-7C535.36,191.91,510.11,189.67,480.19,183.2Z"/><path class="cls-104" d="M475.33,181.78c-51.09-10.14-96.11-23.89-127-32.21-40.49-7.27-58-18.12-60.26-32.83-2.26-14.95,9.59-27.64,27-31.33,13.66-4.68,37.38-2.89,68.18,2,32.11,5,63.36,15.9,91.81,26.5,77.76,28.95,159.8,74.19,182.54,87.75-38.82-4.34-68.7-5.85-93.47-7.92C531.33,191,505.84,188.5,475.33,181.78Z"/><path class="cls-105" d="M470.47,180.36c-50.11-10.13-94.08-23.63-124.3-31.93-38.38-7-55.25-17.85-57.28-32.3-2.08-14.86,9.91-27.52,27.3-30.9,13.39-4.25,36.43-2.49,66.24,2.25,32.39,5.14,63.45,15.94,92.07,26.66,77.88,29.18,160.15,74.49,182.67,87.85-39.82-4.55-70.77-6.5-96.2-8.86C527.3,190,501.56,187.33,470.47,180.36Z"/><path class="cls-106" d="M465.61,178.94c-49.12-10.12-92-23.37-121.62-31.66-36.26-6.71-52.47-17.56-54.29-31.75-1.91-14.78,10.23-27.41,27.58-30.48,13.11-3.83,35.49-2.08,64.3,2.54,32.68,5.24,63.54,16,92.33,26.83,78,29.41,160.5,74.78,182.81,87.93-40.83-4.75-72.85-7.13-98.94-9.8C523.28,189,497.29,186.16,465.61,178.94Z"/><path class="cls-107" d="M460.75,177.52c-48.14-10.1-90-23.11-118.94-31.39-34.15-6.43-49.68-17.28-51.31-31.21-1.72-14.69,10.55-27.28,27.86-30,12.85-3.4,34.55-1.67,62.37,2.83,33,5.33,63.64,16,92.59,27,78.12,29.63,160.86,75.07,182.94,88-41.84-4.94-74.92-7.77-101.67-10.73C519.25,188.07,493,185,460.75,177.52Z"/><path class="cls-108" d="M455.89,176.11c-47.15-10.1-88-22.86-116.26-31.12-32-6.15-46.89-17-48.33-30.67-1.53-14.6,10.87-27.17,28.15-29.63,12.57-3,33.6-1.26,60.43,3.12,33.25,5.43,63.73,16,92.86,27.16,78.24,29.87,161.2,75.37,183.06,88.1-42.84-5.14-77-8.4-104.4-11.66C515.23,187.11,488.75,183.82,455.89,176.11Z"/><path class="cls-109" d="M451,174.69c-46.17-10.09-85.94-22.6-113.58-30.85-29.92-5.86-44.1-16.73-45.35-30.13-1.34-14.51,11.19-27,28.44-29.2C332.83,82,353.2,83.66,379,87.92c33.53,5.53,63.83,16.08,93.12,27.33,78.36,30.09,161.55,75.66,183.2,88.18-43.85-5.33-79.07-9-107.13-12.59C511.21,186.15,484.48,182.65,451,174.69Z"/><path class="cls-110" d="M446.18,173.27c-45.19-10.08-83.92-22.34-110.9-30.58-27.81-5.58-41.32-16.44-42.37-29.59-1.15-14.42,11.51-26.92,28.72-28.77,12-2.13,31.71-.44,56.55,3.7,33.81,5.64,63.94,16.06,93.38,27.5,78.54,30.17,161.9,75.94,183.33,88.27C610,198.26,573.75,194.12,545,190.27,507.18,185.18,480.21,181.48,446.18,173.27Z"/><path class="cls-111" d="M441.32,171.85c-44.21-10.07-81.88-22.08-108.22-30.31-25.7-5.29-38.53-16.16-39.39-29-1-14.33,11.83-26.81,29-28.35,11.75-1.7,30.77,0,54.62,4,34.09,5.75,64,16.11,93.64,27.66,78.65,30.43,162.26,76.24,183.46,88.36-45.86-5.74-83.21-10.31-112.59-14.47C503.16,184.22,475.94,180.31,441.32,171.85Z"/><path class="cls-112" d="M436.46,170.43c-43.22-10.05-79.85-21.82-105.54-30-23.58-5-35.73-15.89-36.41-28.51C293.76,97.65,306.66,85.21,323.8,84c11.48-1.28,29.83.38,52.68,4.28,34.38,5.86,64.13,16.15,93.9,27.83C549.15,146.75,633,192.61,654,204.52c-46.87-5.93-85.29-11-115.33-15.4C499.14,183.27,471.67,179.14,436.46,170.43Z"/><path class="cls-113" d="M431.6,169c-42.23-10-77.82-21.55-102.86-29.76-21.47-4.73-32.94-15.6-33.42-28-.56-14.15,12.46-26.57,29.57-27.5,11.2-.86,28.88.79,50.74,4.57,34.66,6,64.22,16.19,94.16,28,78.89,30.91,163,76.82,183.73,88.52-47.88-6.13-87.36-11.58-118.06-16.33C495.11,182.31,467.4,178,431.6,169Z"/><path class="cls-114" d="M426.74,167.59c-41.25-10-75.78-21.29-100.18-29.49-19.35-4.45-30.14-15.32-30.44-27.42C295.77,96.62,308.9,84.23,326,83.61c10.93-.43,27.93,1.21,48.8,4.86,34.93,6.11,64.31,16.23,94.42,28.16,79,31.16,163.31,77.12,183.86,88.61C604.18,198.92,563.64,193,532.28,188,491.09,181.35,463.13,176.8,426.74,167.59Z"/><path class="cls-115" d="M421.88,166.17c-40.26-10-73.75-21-97.5-29.21-17.24-4.17-27.33-15-27.46-26.89-.14-14,13.11-26.32,30.14-26.64,10.66,0,27,1.62,46.87,5.15,35.21,6.24,64.4,16.27,94.68,28.33,79.12,31.41,163.66,77.41,184,88.69-49.89-6.52-91.49-12.89-123.52-18.19C487.08,180.33,458.85,175.63,421.88,166.17Z"/><path class="cls-116" d="M417,164.75c-39.28-10-71.71-20.77-94.82-28.94-15.12-3.89-24.53-14.75-24.47-26.34.06-13.87,13.42-26.21,30.42-26.23a345.59,345.59,0,0,1,44.93,5.45c35.49,6.39,64.49,16.31,94.94,28.5,79.24,31.65,164,77.7,184.13,88.78-50.9-6.73-93.56-13.51-126.25-19.14C483.05,179.4,454.58,174.46,417,164.75Z"/><path class="cls-117" d="M651.69,206.33c-51.9-6.92-95.64-14.12-129-20.07-43.68-7.79-72.4-13-110.55-22.93S342.48,142.82,320,134.66c-13-3.6-21.73-14.46-21.5-25.8.28-13.77,13.74-26.09,30.71-25.8,10.11.85,25.1,2.46,43,5.74,35.76,6.54,64.59,16.35,95.2,28.66C546.78,149.36,631.8,195.45,651.69,206.33Z"/><ellipse class="cls-118" cx="681.12" cy="269.27" rx="61.8" ry="68.19"/><ellipse class="cls-119" cx="684.07" cy="270.58" rx="58.86" ry="64.25"/><ellipse class="cls-120" cx="685.54" cy="270.58" rx="47.09" ry="49.83"/><ellipse class="cls-120" cx="685.54" cy="271.89" rx="22.07" ry="26.23"/><line class="cls-1" x1="388.22" y1="266.99" x2="388.22" y2="225.03"/><line class="cls-2" x1="385.28" y1="266.99" x2="385.28" y2="225.03"/><line class="cls-1" x1="444.21" y1="208.31" x2="461.52" y2="169.29"/><line class="cls-2" x1="441.47" y1="207.34" x2="458.79" y2="168.32"/><line class="cls-121" x1="535.37" y1="287.98" x2="535.37" y2="246.01"/><line class="cls-2" x1="532.43" y1="287.98" x2="532.43" y2="246.01"/><ellipse class="cls-118" cx="683.46" cy="269.33" rx="60.22" ry="68.59"/><ellipse class="cls-119" cx="686.63" cy="269.37" rx="51.26" ry="58.83"/><path class="cls-120" d="M688,224.35c22.35,0,40.47,20.15,40.47,45"/><path class="cls-120" d="M647.51,269.37c0-24.87,18.12-45,40.47-45"/><path class="cls-120" d="M688,314.4c-22.35,0-40.47-20.16-40.47-45"/><path class="cls-120" d="M728.45,269.37c0,24.87-18.12,45-40.47,45"/><path class="cls-120" d="M688,245.36c11.18,0,20.24,11.31,20.24,25.28"/><path class="cls-120" d="M667.74,270.64c0-14,9.06-25.28,20.24-25.28"/><path class="cls-120" d="M688,295.91c-11.18,0-20.24-11.31-20.24-25.27"/><path class="cls-120" d="M708.22,270.64c0,14-9.06,25.27-20.24,25.27"/><line class="cls-1" x1="277.64" y1="190.32" x2="277.64" y2="148.36"/><line class="cls-2" x1="274.7" y1="190.32" x2="274.7" y2="148.36"/></g></g></svg>