<svg xmlns="http://www.w3.org/2000/svg" xmlns:xlink="http://www.w3.org/1999/xlink" viewBox="0 0 108.09 634.16"><defs><style>.cls-1{fill:url(#linear-gradient);}.cls-2{opacity:0.56;}.cls-3{fill:#82654a;}.cls-4{fill:#dfe0e3;}.cls-5{fill:#e0e1e4;}.cls-6{fill:#e1e2e5;}.cls-7{fill:#e2e3e5;}.cls-8{fill:#e2e4e6;}.cls-9{fill:#e3e5e7;}.cls-10{fill:#e4e6e8;}.cls-11{fill:#e5e6e8;}.cls-12{fill:#e6e7e9;}.cls-13{fill:#e7e8ea;}.cls-14{fill:#e7e9eb;}.cls-15{fill:#e8eaeb;}.cls-16{fill:#e9ebec;}.cls-17{fill:#eaeced;}.cls-18{fill:#caced0;}.cls-19{fill:#f5f8fa;}</style><linearGradient id="linear-gradient" x1="181.48" y1="676.72" x2="253.48" y2="676.72" gradientTransform="translate(-181.48 -147.46)" gradientUnits="userSpaceOnUse"><stop offset="0"/><stop offset="0.12" stop-color="#1c140e"/><stop offset="0.27" stop-color="#38281c"/><stop offset="0.4" stop-color="#493425"/><stop offset="0.5" stop-color="#4f3828"/><stop offset="0.6" stop-color="#4a3425"/><stop offset="0.73" stop-color="#3a291d"/><stop offset="0.87" stop-color="#201710"/><stop offset="1"/></linearGradient></defs><title>knife</title><g id="Layer_2" data-name="Layer 2"><g id="Layer_1-2" data-name="Layer 1"><path class="cls-1" d="M0,424.36a57.13,57.13,0,0,0,42,0l30,194a17.5,17.5,0,0,1-3,7c-8.23,11.22-31.07,11.52-57,2l-4-9Q4,521.36,0,424.36Z"/><g class="cls-2"><path class="cls-3" d="M47.75,624.24A207.43,207.43,0,0,0,57,580.56a283.09,283.09,0,0,0,1.08-43.49c-1.38-28.63-6.17-56.13-10.76-82.76-.6.25-.11,3.31,0,3.92C49,469,50.49,479.5,51.59,490.61c0,0,.12,1.25.33,3.49s.43,5.52.58,9.64A198.47,198.47,0,0,1,51,537.09c-1.77,13.4-5.44,28.57-12.18,42.66a100.24,100.24,0,0,1-12.28,19.76A74.7,74.7,0,0,1,10,614.82a22.26,22.26,0,0,0,15.89-.43c5.65-2.15,11.54-6.45,16.9-12.83.34,2.28.6,4.72,1,7.17s.69,4.87,1.09,7.06a41.16,41.16,0,0,0,1.25,5.64C46.6,622.91,47.12,623.93,47.75,624.24Z"/></g><g class="cls-2"><path class="cls-3" d="M2.26,468.76A330.62,330.62,0,0,0,35.74,595.62c.52-.39-.54-2.67-.76-3.13a211,211,0,0,1-9.47-24.41l-.84-2.64c-.54-1.7-1.16-4.22-1.9-7.37a131,131,0,0,1-3.18-25.83,119.71,119.71,0,0,1,4.1-34.42A91.7,91.7,0,0,1,40.79,464a27.06,27.06,0,0,0-14.63,5.21,41.29,41.29,0,0,0-11.95,13.84,102.24,102.24,0,0,0-6.36-9.38C5.71,470.88,3.66,468.8,2.26,468.76Z"/></g><path class="cls-4" d="M.09,424c.41-46.92.67-87.5.83-123.19s.2-66.47.17-93.81c0-25.28-.12-59.64,4-106,3.27-36.66,8.23-70.44,14-101q5.23,4.4,10,9A212.77,212.77,0,0,1,67.57,59.28a263.65,263.65,0,0,1,22.94,56.37c10.91,38.52,13.85,77.82,13.58,111.35q2,78.5,4,157a121.91,121.91,0,0,0-30,6c-12.89,4.33-24.23,8.14-31,19a35.26,35.26,0,0,0-5,15,50.74,50.74,0,0,1-9,3C18.91,430.28,6.61,426.59.09,424Z"/><path class="cls-5" d="M89.48,116.37a380,380,0,0,1,10.25,54.48c2.41,20.49,3,40.45,3.21,58.92.5,40.44,2.1,80.73,3,120.89q.89,8.83,1.76,17.67l.37,15.67a127.88,127.88,0,0,0-29.78,5.76c-2.1.68-4.16,1.35-6.17,2-10.43,3.56-19.2,7.59-24.94,16.1a38.34,38.34,0,0,0-5.7,14c-.74.3-1.51.59-2.3.86a51.17,51.17,0,0,1-6.65,1.81A53.8,53.8,0,0,1,.09,420.62C1.12,378.84,2.18,342,3,309.09Q3,306,3.09,303c.62-33.91,1.13-63.38,1.53-89.77.18-12.15.34-26.42,1-43.13.69-17,1.82-36.32,3.91-58.45,3.34-35.13,8.17-67.55,13.67-96.91,1.47,1.15,2.92,2.33,4.34,3.51,1.69,1.42,3.35,2.85,5,4.3A183.05,183.05,0,0,1,68.21,66.58,221.55,221.55,0,0,1,89.48,116.37Z"/><path class="cls-6" d="M88.45,117.09a415.57,415.57,0,0,1,10,55.5c2.37,20.71,3,41,3.35,59.95.64,40.21,2.12,80.15,2.93,119.82l3,16.11.34,15.53a133.58,133.58,0,0,0-29.57,5.53c-2.08.63-4.12,1.29-6.13,2-10.56,3.45-19.26,7.37-25.09,15.3a44.2,44.2,0,0,0-6.4,12.93c-.74.27-1.5.53-2.29.78A53.55,53.55,0,0,1,32,422.06,52,52,0,0,1,.09,417.23C1.77,377.81,3.62,342.72,5,311c.09-2,.16-3.92.23-5.85,1.18-32.13,2-60.31,2.88-85.73.37-11.69.66-25.34,1.47-41.24.84-16.34,2.16-34.87,4.27-55.92C17.31,88.6,22,57.54,27.22,29.37c1.37,1,2.7,2,4,3q2.34,1.8,4.58,3.66a156,156,0,0,1,33,37.88A183.71,183.71,0,0,1,88.45,117.09Z"/><path class="cls-7" d="M87.41,117.81a454.61,454.61,0,0,1,9.74,56.53c2.34,20.91,3.1,41.5,3.48,61,.78,40,2.15,79.56,2.85,118.74q2.16,7.29,4.3,14.56l.31,15.39a140.49,140.49,0,0,0-29.36,5.29c-2.06.6-4.09,1.24-6.1,1.88-10.69,3.39-19.3,7.16-25.22,14.52-3.79,4.57-5.65,9-7.11,11.89-.73.24-1.5.47-2.28.69a54.46,54.46,0,0,1-6.57,1.32A50.72,50.72,0,0,1,.09,413.85c2.33-37.07,5-70.43,7-101,.13-1.87.23-3.72.34-5.57,1.68-30.35,3-57.22,4.23-81.69.56-11.22,1-24.25,2-39.34,1-15.73,2.48-33.43,4.61-53.4,3.51-32.08,8-61.78,13-88.75,1.25.8,2.48,1.62,3.68,2.44q2.16,1.48,4.22,3A130,130,0,0,1,69.5,81.19,145.93,145.93,0,0,1,87.41,117.81Z"/><path class="cls-8" d="M86.38,118.53a502,502,0,0,1,9.48,57.55c2.31,21.12,3.16,42,3.62,62,.9,39.75,2.17,79,2.77,117.67q2.77,6.5,5.57,13l.27,15.25a146.91,146.91,0,0,0-29.15,5.06c-2,.56-4.06,1.18-6.06,1.79-10.83,3.3-19.36,6.95-25.37,13.74-3.89,4.22-6,8.31-7.81,10.85q-1.1.31-2.28.6a54.71,54.71,0,0,1-6.52,1.08A49.74,49.74,0,0,1,.09,410.46c3-34.71,6.4-66.34,9.1-95.79.16-1.77.3-3.53.43-5.28,2.18-28.58,3.89-54.14,5.59-77.65.75-10.77,1.37-23.17,2.5-37.45,1.19-15.12,2.82-32,5-50.87,3.59-30.56,8-58.89,12.67-84.68,1.15.63,2.27,1.27,3.36,1.91,1.31.78,2.6,1.56,3.84,2.36a106,106,0,0,1,27.6,25.48A111.28,111.28,0,0,1,86.38,118.53Z"/><path class="cls-9" d="M85.35,119.25a556.54,556.54,0,0,1,9.22,58.57c2.27,21.33,3.22,42.56,3.76,63,1,39.52,2.19,78.4,2.68,116.59l6.84,11.45.24,15.11a153.94,153.94,0,0,0-28.93,4.82c-2,.54-4,1.13-6,1.72-11,3.2-19.42,6.73-25.51,12.94-4,3.89-6.35,7.59-8.51,9.82q-1.11.29-2.28.51a57.83,57.83,0,0,1-6.48.84A49.13,49.13,0,0,1,.09,407.08c3.63-32.36,7.81-62.26,11.17-90.55.2-1.67.37-3.34.54-5,2.67-26.79,4.81-51,6.94-73.61.94-10.3,1.73-22.08,3-35.55,1.38-14.51,3.12-30.54,5.33-48.35,3.6-29,7.92-56,12.34-80.59,1,.45,2,.91,3,1.37,1.19.56,2.34,1.13,3.47,1.72A84,84,0,0,1,70.79,95.8,79.68,79.68,0,0,1,85.35,119.25Z"/><path class="cls-10" d="M84.32,120c4,19.53,6.88,39.52,9,59.59,2.25,21.54,3.29,43.09,3.9,64.06,1.14,39.29,2.22,77.82,2.6,115.52l8.11,9.89.21,15a161.88,161.88,0,0,0-28.72,4.58c-2,.51-4,1.08-6,1.64-11.09,3.11-19.47,6.52-25.65,12.16-4.1,3.55-6.7,6.87-9.21,8.78-.74.16-1.49.3-2.27.43a59.8,59.8,0,0,1-6.44.59A48.79,48.79,0,0,1,.09,403.69c4.28-30,9.22-58.17,13.25-85.3.23-1.57.44-3.15.63-4.72,3.16-25,5.73-48,8.3-69.56,1.13-9.84,2.1-21,3.52-33.66,1.57-13.9,3.45-29.1,5.68-45.82,3.68-27.52,7.87-53.12,12-76.51.92.27,1.83.55,2.71.83,1.06.35,2.09.7,3.09,1.07A65.91,65.91,0,0,1,71.43,103.1,52.28,52.28,0,0,1,84.32,120Z"/><path class="cls-11" d="M83.29,120.69c3.79,19.81,6.63,40.12,8.69,60.61,2.22,21.76,3.35,43.61,4,65.08,1.25,39.07,2.24,77.24,2.51,114.45l9.38,8.34.18,14.83a168.88,168.88,0,0,0-28.51,4.35c-2,.48-4,1-6,1.55-11.23,3-19.53,6.31-25.79,11.38-4.21,3.2-6.83,6.65-9.92,7.74a11,11,0,0,1-2.26.34,59.65,59.65,0,0,1-6.4.35,48.9,48.9,0,0,1-29.16-9.4c4.93-27.64,10.6-54.08,15.32-80.06.27-1.48.51-3,.74-4.43,3.63-23.23,6.65-44.89,9.65-65.53,1.32-9.37,2.47-19.92,4-31.76,1.76-13.29,3.77-27.66,6-43.3,3.76-26,7.81-50.22,11.68-72.43.81.09,1.6.2,2.38.31s1.83.26,2.72.42a54.56,54.56,0,0,1,19.43,6.87A31.08,31.08,0,0,1,83.29,120.69Z"/><path class="cls-12" d="M82.25,121.4c3.61,20.09,6.38,40.73,8.44,61.64,2.18,22,3.41,44.14,4.17,66.11,1.36,38.84,2.27,76.66,2.43,113.38l10.65,6.78.15,14.69a177.43,177.43,0,0,0-28.3,4.11c-2,.45-3.94,1-5.93,1.47-11.36,2.92-19.58,6.1-25.93,10.59-4.31,2.87-7.27,5.83-10.62,6.71a12.61,12.61,0,0,1-2.26.25,59.32,59.32,0,0,1-6.35.11A49.3,49.3,0,0,1,.09,396.92c5.57-25.28,12-50,17.4-74.81.3-1.38.57-2.76.84-4.15,4.08-21.44,7.61-41.79,11-61.48,1.53-8.9,2.84-18.84,4.55-29.88,2-12.67,4.1-26.2,6.39-40.76C44.1,161.37,48,138.5,51.61,117.49c.7-.09,1.39-.16,2.06-.23s1.58-.17,2.34-.23a57.6,57.6,0,0,1,16.71.68C77,118.46,80.11,119.45,82.25,121.4Z"/><path class="cls-13" d="M81.22,122.12c3.43,20.37,6.13,41.33,8.18,62.67,2.15,22.17,3.46,44.66,4.31,67.13q2.19,57.91,2.34,112.3L108,369.44l.12,14.56A184.62,184.62,0,0,0,80,387.88c-1.94.42-3.91.9-5.89,1.39-11.51,2.82-19.63,5.88-26.07,9.8-4.42,2.52-7.68,5-11.32,5.68a18.49,18.49,0,0,1-2.26.16,59.57,59.57,0,0,1-6.3-.14A50.31,50.31,0,0,1,.09,393.54C6.31,370.61,13.41,347.63,19.56,324c.34-1.29.64-2.58.94-3.87C25,300.44,29,281.39,32.86,262.66c1.7-8.44,3.23-17.75,5.06-28,2.17-12.06,4.44-24.76,6.74-38.24,3.92-22.94,7.69-44.45,11-64.27l1.72-.76,2-.88c5.86-2.72,10.54-4.19,14-5.52C77.11,123.56,79.49,122.33,81.22,122.12Z"/><path class="cls-14" d="M80.19,122.84c3.25,20.65,5.87,41.94,7.92,63.69,2.12,22.38,3.51,45.19,4.45,68.16q2.32,57.57,2.25,111.23L108,369.58l.09,14.42a193.3,193.3,0,0,0-27.87,3.64c-1.93.4-3.88.85-5.86,1.31-11.65,2.72-19.69,5.67-26.22,9-4.52,2.18-8.07,4.19-12,4.64-.73.08-1.48.06-2.25.07a57.65,57.65,0,0,1-6.26-.38c-8.75-.9-18.44-4.62-27.52-12.15C7,369.58,14.73,348.32,21.64,325.84c.36-1.19.71-2.39,1-3.59,5-17.89,9.41-35.64,13.7-53.4,1.9-8,3.63-16.67,5.59-26.09,2.38-11.45,4.77-23.31,7.09-35.71,4-21.42,7.63-41.56,10.68-60.19.48-.44.95-.87,1.4-1.3l1.6-1.52c4.76-4.72,8.61-8.44,11.27-11.73A60.16,60.16,0,0,0,80.19,122.84Z"/><path class="cls-15" d="M79.16,123.56c3.06,20.92,5.61,42.54,7.65,64.71,2.1,22.59,3.61,45.72,4.59,69.19,1.71,38.15,2.34,74.91,2.17,110.15L108,369.72l.06,14.28a201.46,201.46,0,0,0-27.66,3.4c-1.91.37-3.85.79-5.83,1.23a146.81,146.81,0,0,0-26.35,8.23c-4.63,1.85-8.45,3.39-12.73,3.61-.73,0-1.48,0-2.24,0a51.64,51.64,0,0,1-6.22-.62c-8.21-1.22-17.64-5-27-13.06C7.61,368.55,16,349,23.71,327.7c.4-1.1.78-2.2,1.15-3.31,5.38-16.11,10.33-32.55,15-49.36,2.09-7.51,4-15.57,6.1-24.19,2.6-10.83,5.11-21.87,7.45-33.19,4.1-19.89,7.56-38.67,10.35-56.1l1.07-1.84c.42-.73.83-1.45,1.23-2.17a148.32,148.32,0,0,0,8.55-17.92A101.38,101.38,0,0,0,79.16,123.56Z"/><path class="cls-16" d="M78.13,124.28q4.32,31.8,7.39,65.73c2.06,22.8,3.64,46.25,4.73,70.22,1.76,37.92,2.36,74.33,2.08,109.08l15.73.55,0,14.14a208.62,208.62,0,0,0-27.45,3.17c-1.89.34-3.82.73-5.79,1.15a220.91,220.91,0,0,0-26.5,7.44c-4.73,1.5-8.8,2.6-13.43,2.57-.73,0-1.47-.05-2.23-.1a48.62,48.62,0,0,1-6.18-.87c-7.67-1.52-16.83-5.46-26.42-14,8.17-15.86,17.2-33.73,25.7-53.82.42-1,.83-2,1.24-3Q35.7,305,43.44,281.22c2.28-7.05,4.43-14.48,6.61-22.3q4.28-15.31,7.8-30.66c4.24-18.36,6.24-36,10-52,.19-.81.51-1.59.75-2.37.29-1,.58-1.88.85-2.82a235.38,235.38,0,0,0,5.83-24.12A212.36,212.36,0,0,0,78.13,124.28Z"/><path class="cls-17" d="M.09,380a472.8,472.8,0,0,0,27.77-48.58A473.16,473.16,0,0,0,54.09,267a473.25,473.25,0,0,0,18.27-79,475.17,475.17,0,0,0,4.73-63q4.05,32.22,7.14,66.75T89.09,263c1.83,37.69,2.39,73.75,2,108l17-1v14a217.68,217.68,0,0,0-33,4c-21.91,4.37-29.74,9.46-43,8C24.23,395.14,13,391.81.09,380Z"/><path class="cls-18" d="M15.59,15.5,18.53.5c15.9,15.28,43.5,42.77,61.68,84a269.55,269.55,0,0,1,22.49,95l4.89,186H91c1.87-79.09-.4-151.94-4.44-196-2.59-28.38-10.35-49.55-23-82C50.13,53,29,31.65,15.59,15.5Z"/><path class="cls-19" d="M14.09,16A250,250,0,0,1,43.73,51.37,232,232,0,0,1,66.18,91.73a223,223,0,0,1,7.94,21.73c2.29,7.37,4.15,14.87,5.83,22.39,3.33,15.07,5.67,30.33,7.61,45.62a908.45,908.45,0,0,1,6.72,92.21q1.09,46.24-2.19,92.47l-4-.3q3.74-45.94,3.17-92.11a907.27,907.27,0,0,0-5.72-92c-1.77-15.27-3.93-30.5-7.08-45.54-1.59-7.51-3.36-15-5.56-22.34a221.85,221.85,0,0,0-7.67-21.71A230.06,230.06,0,0,0,43.31,51.65,249.57,249.57,0,0,0,14.09,16Z"/></g></g></svg>