<svg xmlns="http://www.w3.org/2000/svg" xmlns:xlink="http://www.w3.org/1999/xlink" viewBox="0 0 776.12 632.83"><defs><style>.cls-1{fill:#724d31;}.cls-2{fill:#a97345;}.cls-3,.cls-4,.cls-7{fill:none;stroke-miterlimit:10;}.cls-3{stroke:#66452c;}.cls-3,.cls-4{stroke-width:4px;}.cls-4{stroke:#a97345;}.cls-5{fill:url(#linear-gradient);}.cls-6{fill:url(#linear-gradient-2);}.cls-7{stroke:#000;stroke-width:14px;}.cls-8{opacity:0.56;}.cls-9{fill:#82654a;}.cls-10{fill:url(#linear-gradient-3);}.cls-11{fill:url(#linear-gradient-4);}.cls-12{fill:url(#linear-gradient-5);}.cls-13{fill:url(#linear-gradient-6);}.cls-14{fill:url(#linear-gradient-7);}</style><linearGradient id="linear-gradient" x1="93.06" y1="191.01" x2="659.14" y2="191.01" gradientUnits="userSpaceOnUse"><stop offset="0"/><stop offset="0.12" stop-color="#1c140e"/><stop offset="0.27" stop-color="#38281c"/><stop offset="0.4" stop-color="#493425"/><stop offset="0.5" stop-color="#4f3828"/><stop offset="0.6" stop-color="#4a3425"/><stop offset="0.73" stop-color="#3a291d"/><stop offset="0.87" stop-color="#201710"/><stop offset="1"/></linearGradient><linearGradient id="linear-gradient-2" x1="89.14" y1="325.77" x2="660.19" y2="325.77" xlink:href="#linear-gradient"/><linearGradient id="linear-gradient-3" x1="194.18" y1="415.6" x2="265.32" y2="415.6" gradientTransform="translate(97.23 -40.41) rotate(12.73)" gradientUnits="userSpaceOnUse"><stop offset="0" stop-color="#fcee21"/><stop offset="0.59" stop-color="#f7931e"/><stop offset="1" stop-color="#f15a24"/></linearGradient><linearGradient id="linear-gradient-4" x1="268.17" y1="421.07" x2="339.31" y2="421.07" gradientTransform="translate(34.39 -8.44) rotate(4.94)" xlink:href="#linear-gradient-3"/><linearGradient id="linear-gradient-5" x1="355.48" y1="415.58" x2="426.63" y2="415.58" gradientTransform="translate(-22.3 49.27) rotate(-2.24)" xlink:href="#linear-gradient-3"/><linearGradient id="linear-gradient-6" x1="427.12" y1="389.49" x2="498.27" y2="389.49" gradientTransform="matrix(1, -0.06, 0.06, 1, -15.96, 79.91)" xlink:href="#linear-gradient-3"/><linearGradient id="linear-gradient-7" x1="508.69" y1="357.64" x2="579.83" y2="357.64" gradientTransform="translate(-96.04 299.31) rotate(-22.07)" xlink:href="#linear-gradient-3"/></defs><title>plate1</title><g id="Layer_2" data-name="Layer 2"><g id="Layer_1-2" data-name="Layer 1"><path class="cls-1" d="M740.57,322.91,386.15,286.53C333.24,281,285.43,310.6,270.7,355.31c-.24.74-.48,1.47-.7,2.21-15.11,50.08,21.61,102.12,74.9,107.59l306.27,31.44c44.57,7.05,88.35-14.49,108.61-53.39C780.2,404,772.44,355.33,740.57,322.91Z"/><ellipse class="cls-2" cx="704.12" cy="408.18" rx="92.5" ry="65.5" transform="translate(18.9 847.36) rotate(-62.76)"/><ellipse class="cls-3" cx="704.12" cy="408.18" rx="72.74" ry="51.5" transform="translate(18.9 847.36) rotate(-62.76)"/><ellipse class="cls-3" cx="704.39" cy="408.05" rx="49.55" ry="35.08" transform="translate(19.17 847.53) rotate(-62.76)"/><ellipse class="cls-3" cx="704.17" cy="408.11" rx="26.09" ry="18.48" transform="translate(19 847.36) rotate(-62.76)"/><line class="cls-4" x1="506.9" y1="425.31" x2="615.44" y2="437.32"/><line class="cls-4" x1="476.57" y1="418.69" x2="418.95" y2="412.64"/><line class="cls-4" x1="393.92" y1="411" x2="287.13" y2="402.14"/><line class="cls-4" x1="620.85" y1="396.24" x2="294.77" y2="361.08"/><line class="cls-4" x1="631.1" y1="474.63" x2="570.35" y2="468.1"/><line class="cls-4" x1="520.79" y1="461.7" x2="351.93" y2="444.5"/><line class="cls-4" x1="353.28" y1="330.47" x2="511.82" y2="350.23"/><line class="cls-4" x1="622.99" y1="365.85" x2="550.2" y2="356.5"/><line class="cls-4" x1="393.84" y1="304.11" x2="617.17" y2="329.11"/><path class="cls-1" d="M545,629.55,257.73,418.86c-42.94-31.39-58.57-85.4-39.51-128.45.31-.71.63-1.41,1-2.11C241.55,241,303.69,227,346.89,258.72L595.17,440.79c37.79,24.65,55.82,70,44.76,112.44C628.79,596,590.43,626.87,545,629.55Z"/><ellipse class="cls-2" cx="575.19" cy="541.84" rx="92.5" ry="65.5" transform="translate(-96.13 958.69) rotate(-75.13)"/><ellipse class="cls-3" cx="575.19" cy="541.84" rx="72.74" ry="51.5" transform="translate(-96.13 958.69) rotate(-75.13)"/><ellipse class="cls-3" cx="575.3" cy="542.13" rx="49.55" ry="35.08" transform="translate(-96.32 959.01) rotate(-75.13)"/><ellipse class="cls-3" cx="575.18" cy="541.93" rx="26.09" ry="18.48" transform="translate(-96.23 958.75) rotate(-75.13)"/><line class="cls-4" x1="440.38" y1="396.89" x2="528.95" y2="460.76"/><line class="cls-4" x1="413.43" y1="381.45" x2="366.63" y2="347.3"/><line class="cls-4" x1="346.97" y1="331.73" x2="261.81" y2="266.69"/><line class="cls-4" x1="505.41" y1="494.86" x2="239.95" y2="302.27"/><line class="cls-4" x1="565.58" y1="443.59" x2="516.14" y2="407.69"/><line class="cls-4" x1="475.08" y1="379.2" x2="338.28" y2="278.73"/><line class="cls-4" x1="262.81" y1="364.22" x2="393.67" y2="455.88"/><line class="cls-4" x1="486.62" y1="518.84" x2="426.35" y2="476.97"/><line class="cls-4" x1="275.23" y1="410.97" x2="457.66" y2="542.19"/><path class="cls-1" d="M193.53,527.09l216.5-283c32.25-42.3,86.57-56.82,129.22-36.9l2.09,1c46.81,23.33,59.53,85.74,27,128.29L381.23,581.05c-25.42,37.28-71.11,54.39-113.33,42.46C225.37,611.5,195.29,572.52,193.53,527.09Z"/><ellipse class="cls-2" cx="280.6" cy="559.01" rx="65.5" ry="92.5" transform="translate(-334.18 674.25) rotate(-73.96)"/><ellipse class="cls-3" cx="280.6" cy="559.01" rx="51.5" ry="72.74" transform="translate(-334.18 674.25) rotate(-73.96)"/><ellipse class="cls-3" cx="280.31" cy="559.12" rx="35.08" ry="49.55" transform="translate(-334.49 674.05) rotate(-73.96)"/><ellipse class="cls-3" cx="280.51" cy="559" rx="18.48" ry="26.09" transform="translate(-334.23 674.15) rotate(-73.96)"/><line class="cls-4" x1="428.27" y1="427.18" x2="362.61" y2="514.43"/><line class="cls-4" x1="444.25" y1="400.56" x2="479.35" y2="354.46"/><line class="cls-4" x1="495.32" y1="335.12" x2="562.07" y2="251.3"/><line class="cls-4" x1="329" y1="490.2" x2="526.95" y2="228.72"/><line class="cls-4" x1="379.03" y1="551.41" x2="415.93" y2="502.71"/><line class="cls-4" x1="445.25" y1="462.23" x2="548.49" y2="327.51"/><line class="cls-4" x1="464.55" y1="250.32" x2="370.25" y2="379.28"/><line class="cls-4" x1="305.4" y1="470.94" x2="348.49" y2="411.53"/><line class="cls-4" x1="417.55" y1="261.78" x2="282.65" y2="441.5"/><path class="cls-1" d="M72.12,535.71,403.88,405.83c49.57-19.32,78.54-67.51,71.17-114-.13-.76-.26-1.52-.4-2.28-9.48-51.44-65.95-80.9-115.83-61.37L72.12,340.41C29.27,354.54.21,393.73,0,437.6-.2,481.8,28.94,521.48,72.12,535.71Z"/><ellipse class="cls-2" cx="65.5" cy="443.21" rx="65.5" ry="92.5"/><ellipse class="cls-3" cx="65.5" cy="443.21" rx="51.5" ry="72.74"/><ellipse class="cls-3" cx="65.32" cy="443.46" rx="35.08" ry="49.55"/><ellipse class="cls-3" cx="65.49" cy="443.3" rx="18.48" ry="26.09"/><line class="cls-4" x1="233" y1="337.71" x2="131" y2="376.71"/><line class="cls-4" x1="263" y1="329.71" x2="317" y2="308.71"/><line class="cls-4" x1="340" y1="298.71" x2="439" y2="257.71"/><line class="cls-4" x1="145" y1="415.71" x2="451" y2="297.71"/><line class="cls-4" x1="100" y1="350.71" x2="157" y2="328.71"/><line class="cls-4" x1="204" y1="311.71" x2="362" y2="249.71"/><line class="cls-4" x1="413" y1="351.71" x2="263" y2="406.71"/><line class="cls-4" x1="157" y1="443.71" x2="226" y2="418.71"/><line class="cls-4" x1="389" y1="393.71" x2="179" y2="473.71"/><path class="cls-5" d="M645.61,207.7c-.09-8.9,10.84,47.08-.29,54.44-133,88-159.85,60.06-299,108-83.64,28.82-203-34-238.71-151.44a104.08,104.08,0,0,1-12-30c-7.82-34.35,4.53-62.4,8-70,12.77-27.94,33.6-42.3,57-58,12.93-8.67,41.46-26.21,91-40,20.46-5.69,81.1-20.93,162-14,28.77,2.47,74.49,6.77,128,30,54.14,23.51,77.42,49.55,83,56,13.63,15.79,38.47,44.56,34,81A78.72,78.72,0,0,1,645.61,207.7Z"/><path class="cls-6" d="M658.32,174.14c5,27-.65,80-10,113-7.1,25.09-22.67,77.62-69,121-55.19,51.69-122.21,60.59-163,66a311.94,311.94,0,0,1-57,3c-23.64-1-152.07-9.17-220-106-25.16-35.87-34.54-73.25-40-95-9.52-38-10.75-77.91-10-101,14,25.08,43.43,76.67,97,111,66.06,42.32,130.6,44.56,172,46,99.08,3.44,169.46-32.33,184-37C601.26,276.2,641.36,233.31,658.32,174.14Z"/><path class="cls-7" d="M127.61,243.7c-8.72-9.85-33.64-40.7-32-83,2-52.56,43.6-85.14,60-98,23.07-18.08,44.59-25.22,71-34,8.79-2.92,44.86-14.52,107-19,41.35-3,88.43-6.36,148,7,27.92,6.27,66.18,15.23,107,43,23.77,16.18,47.64,32.9,60,65,2.33,6,13.59,36.92,3,73-11.79,40.14-43.18,61.4-70,79-46.78,30.7-90.88,38.87-126,45-44.29,7.74-111,18.62-192-5C202.06,298.76,156.75,268.05,127.61,243.7Z"/><g class="cls-8"><path class="cls-9" d="M155.4,351.62A129.84,129.84,0,0,0,171.06,375a155.14,155.14,0,0,0,18.77,18.37,192.51,192.51,0,0,0,20,14.16c6.77,4.08,13.59,7.83,20.42,11.07s13.67,6.23,20.5,8.83l2.56,1,2.51.91,5,1.8c3.34,1.24,6.73,2.33,10.11,3.42a414.31,414.31,0,0,0,41.14,11,418.34,418.34,0,0,0,84.45,8.8A416.27,416.27,0,0,0,439,452.13c7.07-.7,14.09-1.6,21.37-2.8s14.65-2.69,22.14-4.6c-.64-1.12-7.43.44-8.79.7-5.93,1.17-11.73,2.09-17.42,2.83s-11.23,1.28-16.8,1.68-11.13.68-16.73.89c-2.8.11-5.61.06-8.42.09s-5.64,0-8.47-.1l-1.87,0-5.25-.19c-2.28,0-5.07-.33-8.32-.59l-5.21-.48c-1.85-.21-3.8-.48-5.85-.75l-6.45-.91-7-1.25c-4.83-.84-10-2.07-15.4-3.37a262.69,262.69,0,0,1-34.92-11.51,242,242,0,0,1-37-19.2c-3-1.95-6.09-3.91-9.06-6.08s-5.94-4.24-8.86-6.6-5.78-4.73-8.57-7.19-5.49-5.08-8.07-7.82-5-5.53-7.41-8.37c-1.15-1.47-2.27-2.94-3.38-4.41s-2.1-3-3.12-4.54a80,80,0,0,1-9.37-19,51.77,51.77,0,0,1-2.74-19,34.2,34.2,0,0,1,5.07-15.93A50.78,50.78,0,0,0,209.87,321a38.45,38.45,0,0,0-5.62,5.58,37,37,0,0,0-4.34,7,41.78,41.78,0,0,0-3.67,18.6A63.51,63.51,0,0,0,201.41,375c-4.43-1.72-9.21-3.84-14-6.21L183.84,367c-1.18-.62-2.4-1.2-3.53-1.89l-6.76-3.93C165,355.87,158.15,350.73,155.4,351.62Z"/></g><g class="cls-8"><path class="cls-9" d="M567.66,330.05c-3.23,0-6.45-.08-9.67-.07l-9.62.25-4.8.13c-1.6.06-3.19.17-4.78.26l-9.54.58c-3.18.2-6.32.54-9.48.81s-6.33.53-9.45.93c-6.24.78-12.53,1.43-18.69,2.41-24.79,3.6-49,8.62-72.52,14.41s-46.63,12.2-69.24,18.66l-17,4.85c-5.68,1.64-11.45,3.31-17.27,5.05C304,381.81,292.1,385.6,280.09,390c.69,1.09,6.17-.8,7.27-1.18,19.27-6.23,37.52-10.81,55.91-14.95l1.52-.36,4.29-.95c3.73-.8,9.2-1.9,16.1-3.07A413.64,413.64,0,0,1,422,363.75c5.79-.21,11.86-.17,18-.06,3.08,0,6.25.22,9.42.37s6.38.35,9.63.65c6.5.62,13.06,1.28,19.72,2.41,3.33.54,6.65,1.08,10,1.76s6.69,1.45,10,2.25c26.65,6.44,52.91,18.45,73.2,36.45.4-10.23-2.6-20.37-9.14-29.94a67.68,67.68,0,0,0-12.4-13.55q-1.87-1.59-3.9-3.14c-1.36-1-2.76-2.05-4.21-3q-4.35-2.87-9.29-5.49c3.61-1.74,7.48-3.77,11.31-5.83s7.64-4,11-6.08a85.84,85.84,0,0,0,8.56-5.72C566.1,333.07,567.49,331.43,567.66,330.05Z"/></g><path class="cls-10" d="M192.15,451.09c-6.63-9.83-3.15-25.19,5.77-33.75,11.4-10.94,24.35-3.72,38.39-14.14,16.74-12.42,13.61-34.05,18.12-33.74,5.11.36,9.33,28.13,7.32,55.07-1.25,16.75-3,40.35-16.87,44.6-4,1.22-9.6-.38-20.8-3.59C205.74,460.29,196.57,457.66,192.15,451.09Z"/><path class="cls-11" d="M268.27,477.5c-7.9-8.85-6.53-24.54,1.14-34.23,9.82-12.39,23.63-7,36.12-19.21,14.91-14.58,8.88-35.58,13.39-35.88,5.1-.34,13.05,26.6,14.71,53.57,1,16.76,2.48,40.39-10.67,46.47-3.8,1.76-9.56.93-21.1-.74C283,484.77,273.54,483.41,268.27,477.5Z"/><path class="cls-12" d="M357.56,493.24c-8.94-7.79-9.55-23.53-3.15-34.1,8.19-13.52,22.57-9.89,33.44-23.58,13-16.32,4.35-36.41,8.79-37.27,5-1,16.28,24.76,21.29,51.31,3.12,16.5,7.51,39.76-4.77,47.44-3.55,2.21-9.37,2.11-21,1.91C373.07,498.61,363.53,498.44,357.56,493.24Z"/><path class="cls-13" d="M441.44,486.54c-9.07-7.62-9.95-23.32-3.73-34,8-13.64,22.4-10.26,33-24.11,12.69-16.52,3.74-36.43,8.16-37.36,5-1.06,16.7,24.44,22.16,50.85,3.4,16.43,8.19,39.56-4,47.44-3.51,2.28-9.34,2.27-21,2.27C457,491.64,447.5,491.64,441.44,486.54Z"/><path class="cls-14" d="M532.09,476.84c-11.05-4.29-17-18.89-14.52-31,3.11-15.49,17.87-16.95,23.45-33.52,6.66-19.76-8.26-35.73-4.37-38.05,4.39-2.62,23.71,17.77,37.43,41.05,8.54,14.47,20.56,34.85,11.61,46.24-2.59,3.29-8.1,5.17-19.13,8.93C548.5,476.64,539.48,479.71,532.09,476.84Z"/></g></g></svg>