<svg xmlns="http://www.w3.org/2000/svg" viewBox="0 0 776.12 434.41"><defs><style>.cls-1{fill:#724d31;}.cls-2{fill:#a97345;}.cls-3,.cls-4{fill:none;stroke-miterlimit:10;stroke-width:4px;}.cls-3{stroke:#66452c;}.cls-4{stroke:#a97345;}</style></defs><title>wood</title><g id="Layer_2" data-name="Layer 2"><g id="Layer_1-2" data-name="Layer 1"><path class="cls-1" d="M740.57,124.49,386.15,88.11c-52.91-5.52-100.72,24.07-115.45,68.78-.24.74-.48,1.47-.7,2.21-15.11,50.08,21.61,102.12,74.9,107.59l306.27,31.44c44.57,7.05,88.35-14.49,108.61-53.39C780.2,205.53,772.44,156.91,740.57,124.49Z"/><ellipse class="cls-2" cx="704.12" cy="209.76" rx="92.5" ry="65.5" transform="translate(195.32 739.76) rotate(-62.76)"/><ellipse class="cls-3" cx="704.12" cy="209.76" rx="72.74" ry="51.5" transform="translate(195.32 739.76) rotate(-62.76)"/><ellipse class="cls-3" cx="704.39" cy="209.63" rx="49.55" ry="35.08" transform="translate(195.59 739.94) rotate(-62.76)"/><ellipse class="cls-3" cx="704.17" cy="209.69" rx="26.09" ry="18.48" transform="translate(195.41 739.77) rotate(-62.76)"/><line class="cls-4" x1="506.9" y1="226.89" x2="615.44" y2="238.9"/><line class="cls-4" x1="476.57" y1="220.27" x2="418.95" y2="214.22"/><line class="cls-4" x1="393.92" y1="212.58" x2="287.13" y2="203.72"/><line class="cls-4" x1="620.85" y1="197.82" x2="294.77" y2="162.66"/><line class="cls-4" x1="631.1" y1="276.21" x2="570.35" y2="269.68"/><line class="cls-4" x1="520.79" y1="263.28" x2="351.93" y2="246.08"/><line class="cls-4" x1="353.28" y1="132.05" x2="511.82" y2="151.81"/><line class="cls-4" x1="622.99" y1="167.43" x2="550.2" y2="158.08"/><line class="cls-4" x1="393.84" y1="105.69" x2="617.17" y2="130.69"/><path class="cls-1" d="M545,431.13,257.73,220.44C214.79,189.05,199.16,135,218.22,92c.31-.71.63-1.41,1-2.11C241.55,42.6,303.69,28.62,346.89,60.3L595.17,242.37C633,267,651,312.36,639.93,354.81,628.79,397.58,590.43,428.45,545,431.13Z"/><ellipse class="cls-2" cx="575.19" cy="343.42" rx="92.5" ry="65.5" transform="translate(95.64 811.2) rotate(-75.13)"/><ellipse class="cls-3" cx="575.19" cy="343.42" rx="72.74" ry="51.5" transform="translate(95.64 811.2) rotate(-75.13)"/><ellipse class="cls-3" cx="575.3" cy="343.71" rx="49.55" ry="35.08" transform="translate(95.45 811.52) rotate(-75.13)"/><ellipse class="cls-3" cx="575.18" cy="343.51" rx="26.09" ry="18.48" transform="translate(95.54 811.25) rotate(-75.13)"/><line class="cls-4" x1="440.38" y1="198.47" x2="528.95" y2="262.34"/><line class="cls-4" x1="413.43" y1="183.03" x2="366.63" y2="148.88"/><line class="cls-4" x1="346.97" y1="133.31" x2="261.81" y2="68.27"/><line class="cls-4" x1="505.41" y1="296.44" x2="239.95" y2="103.85"/><line class="cls-4" x1="565.58" y1="245.17" x2="516.14" y2="209.27"/><line class="cls-4" x1="475.08" y1="180.78" x2="338.28" y2="80.31"/><line class="cls-4" x1="262.81" y1="165.8" x2="393.67" y2="257.46"/><line class="cls-4" x1="486.62" y1="320.42" x2="426.35" y2="278.55"/><line class="cls-4" x1="275.23" y1="212.55" x2="457.66" y2="343.77"/><path class="cls-1" d="M193.53,328.67,410,45.71c32.25-42.3,86.57-56.82,129.22-36.9l2.09,1c46.81,23.33,59.53,85.74,27,128.29L381.23,382.63C355.81,419.91,310.12,437,267.9,425.09,225.37,413.08,195.29,374.1,193.53,328.67Z"/><ellipse class="cls-2" cx="280.6" cy="360.59" rx="65.5" ry="92.5" transform="translate(-143.48 530.65) rotate(-73.96)"/><ellipse class="cls-3" cx="280.6" cy="360.59" rx="51.5" ry="72.74" transform="translate(-143.48 530.65) rotate(-73.96)"/><ellipse class="cls-3" cx="280.31" cy="360.7" rx="35.08" ry="49.55" transform="translate(-143.79 530.45) rotate(-73.96)"/><ellipse class="cls-3" cx="280.51" cy="360.58" rx="18.48" ry="26.09" transform="translate(-143.53 530.55) rotate(-73.96)"/><line class="cls-4" x1="428.27" y1="228.76" x2="362.61" y2="316.01"/><line class="cls-4" x1="444.25" y1="202.14" x2="479.35" y2="156.04"/><line class="cls-4" x1="495.32" y1="136.7" x2="562.07" y2="52.88"/><line class="cls-4" x1="329" y1="291.78" x2="526.95" y2="30.3"/><line class="cls-4" x1="379.03" y1="352.99" x2="415.93" y2="304.29"/><line class="cls-4" x1="445.25" y1="263.81" x2="548.49" y2="129.09"/><line class="cls-4" x1="464.55" y1="51.9" x2="370.25" y2="180.86"/><line class="cls-4" x1="305.4" y1="272.52" x2="348.49" y2="213.11"/><line class="cls-4" x1="417.55" y1="63.36" x2="282.65" y2="243.08"/><path class="cls-1" d="M72.12,337.29,403.88,207.41c49.57-19.32,78.54-67.51,71.17-114-.13-.76-.26-1.52-.4-2.28-9.48-51.44-65.95-80.9-115.83-61.37L72.12,142C29.27,156.12.21,195.31,0,239.18-.2,283.38,28.94,323.06,72.12,337.29Z"/><ellipse class="cls-2" cx="65.5" cy="244.79" rx="65.5" ry="92.5"/><ellipse class="cls-3" cx="65.5" cy="244.79" rx="51.5" ry="72.74"/><ellipse class="cls-3" cx="65.32" cy="245.04" rx="35.08" ry="49.55"/><ellipse class="cls-3" cx="65.49" cy="244.88" rx="18.48" ry="26.09"/><line class="cls-4" x1="233" y1="139.29" x2="131" y2="178.29"/><line class="cls-4" x1="263" y1="131.29" x2="317" y2="110.29"/><line class="cls-4" x1="340" y1="100.29" x2="439" y2="59.29"/><line class="cls-4" x1="145" y1="217.29" x2="451" y2="99.29"/><line class="cls-4" x1="100" y1="152.29" x2="157" y2="130.29"/><line class="cls-4" x1="204" y1="113.29" x2="362" y2="51.29"/><line class="cls-4" x1="413" y1="153.29" x2="263" y2="208.29"/><line class="cls-4" x1="157" y1="245.29" x2="226" y2="220.29"/><line class="cls-4" x1="389" y1="195.29" x2="179" y2="275.29"/></g></g></svg>