<svg xmlns="http://www.w3.org/2000/svg" xmlns:xlink="http://www.w3.org/1999/xlink" viewBox="0 0 455.23 203.21"><defs><style>.cls-1{isolation:isolate;}.cls-2{fill:url(#Áåçûìÿííûé_ãðàäèåíò_1947);}.cls-3{opacity:0.58;fill:url(#Áåçûìÿííûé_ãðàäèåíò_1963);}.cls-15,.cls-3,.cls-4,.cls-6{mix-blend-mode:screen;}.cls-4{fill:url(#Áåçûìÿííûé_ãðàäèåíò_2092);}.cls-5,.cls-6{opacity:0.51;}.cls-10,.cls-12,.cls-13,.cls-5,.cls-7,.cls-8{mix-blend-mode:multiply;}.cls-5{fill:url(#Áåçûìÿííûé_ãðàäèåíò_1932);}.cls-6{fill:url(#Áåçûìÿííûé_ãðàäèåíò_1935);}.cls-7{opacity:0.24;fill:url(#Áåçûìÿííûé_ãðàäèåíò_1960);}.cls-10,.cls-12,.cls-8{fill:#d19676;}.cls-8{opacity:0.22;}.cls-9{opacity:0.64;}.cls-10{opacity:0.49;}.cls-11{opacity:0.31;}.cls-14{opacity:0.56;}.cls-15{fill:url(#Áåçûìÿííûé_ãðàäèåíò_1982);}</style><linearGradient id="Áåçûìÿííûé_ãðàäèåíò_1947" x1="227.61" y1="224.66" x2="227.61" y2="-8.17" gradientUnits="userSpaceOnUse"><stop offset="0.08" stop-color="#aa3c00"/><stop offset="0.15" stop-color="#ba4d0f"/><stop offset="0.36" stop-color="#ec823f"/><stop offset="0.46" stop-color="#ff9751"/><stop offset="0.81" stop-color="#ffc781"/><stop offset="1" stop-color="#ffdc95"/></linearGradient><linearGradient id="Áåçûìÿííûé_ãðàäèåíò_1963" x1="86.09" y1="243.43" x2="330.23" y2="-58.05" gradientUnits="userSpaceOnUse"><stop offset="0.28"/><stop offset="1" stop-color="#ff9751"/></linearGradient><linearGradient id="Áåçûìÿííûé_ãðàäèåíò_2092" x1="82.8" y1="240.77" x2="326.94" y2="-60.72" gradientUnits="userSpaceOnUse"><stop offset="0"/><stop offset="1" stop-color="#ff3b00"/></linearGradient><linearGradient id="Áåçûìÿííûé_ãðàäèåíò_1932" x1="337.45" y1="-11.28" x2="118.64" y2="207.53" gradientUnits="userSpaceOnUse"><stop offset="0" stop-color="#fff"/><stop offset="0.35" stop-color="#e0b8a2"/><stop offset="0.8" stop-color="#b95f2e"/><stop offset="1" stop-color="#aa3c00"/></linearGradient><linearGradient id="Áåçûìÿííûé_ãðàäèåíò_1935" x1="5.32" y1="99.11" x2="451.2" y2="99.11" gradientUnits="userSpaceOnUse"><stop offset="0"/><stop offset="0.53" stop-color="#f8934f"/><stop offset="1"/></linearGradient><linearGradient id="Áåçûìÿííûé_ãðàäèåíò_1960" x1="227.61" y1="224.66" x2="227.61" y2="-8.17" gradientUnits="userSpaceOnUse"><stop offset="0" stop-color="#fff"/><stop offset="0.31" stop-color="#e0b8a2"/><stop offset="0.72" stop-color="#b95f2e"/><stop offset="0.89" stop-color="#aa3c00"/></linearGradient><linearGradient id="Áåçûìÿííûé_ãðàäèåíò_1982" x1="212.78" y1="69.96" x2="451.2" y2="69.96" gradientUnits="userSpaceOnUse"><stop offset="0.08"/><stop offset="0.17" stop-color="#050302"/><stop offset="0.28" stop-color="#140c06"/><stop offset="0.41" stop-color="#2e1b0e"/><stop offset="0.54" stop-color="#51301a"/><stop offset="0.68" stop-color="#7e4a28"/><stop offset="0.83" stop-color="#b56b39"/><stop offset="0.98" stop-color="#f5914e"/><stop offset="1" stop-color="#ff9751"/></linearGradient></defs><title>bread1</title><g class="cls-1"><g id="Layer_2" data-name="Layer 2"><g id="Ñëîé_1" data-name="Ñëîé 1"><path class="cls-2" d="M455.13,72.19c0-.19,0-.44,0-.72a21.11,21.11,0,0,0-5-12.83c-5.26-6.31-16.12-17-36.25-28.11C380,11.73,320-5.83,216.64,1.85,106.14,10.06,51.9,27.49,25.48,43.06c-8.12,4.78-13.61,9.39-17.29,13.49A30.14,30.14,0,0,0,.8,73.88c-.07.65-.1,1.17-.13,1.76C.44,81-.72,109,.69,121.05c0,.27.06.51.1.76s.09.77.14,1.1c.91,4.75,3.94,8.83,7.94,12,25.36,20.12,77,68,219.09,68.29,139.71.33,203.48-56.85,219.77-73.28,3.95-4,7-8.67,7.39-13.79a1.7,1.7,0,0,0,0-.21C455.32,109.71,455.13,72.19,455.13,72.19Z"/><path class="cls-3" d="M450.12,58.64c-5.26-6.31-16.12-17-36.25-28.11C380,11.73,320-5.83,216.64,1.85,106.14,10.06,51.9,27.49,25.48,43.06c-8.12,4.78-13.61,9.39-17.29,13.49A30.14,30.14,0,0,0,.8,73.88c-.66,18,152.67,119.86,356.41,52.74,62.17-22.43,98.2-48.8,97.59-58A21.59,21.59,0,0,0,450.12,58.64Z"/><path class="cls-4" d="M8.87,71.25c25.36,20.13,77,68,219.09,68.3,139.71.32,203.26-57.08,219.77-73.29,5.42-5.32,3-6.84,2.39-7.62-5.26-6.31-16.12-17-36.25-28.11C380,11.73,320-5.83,216.64,1.85,106.14,10.06,51.9,27.49,25.48,43.06c-8.12,4.78-13.61,9.39-17.29,13.49-.2.23-.4.45-.59.68a9.92,9.92,0,0,0,1.2,14Z"/><path class="cls-5" d="M.67,75.64C.44,81-.72,109,.69,121.05c0,.27.06.51.1.76s.09.77.14,1.1c.91,4.75,3.94,8.83,7.94,12,25.36,20.12,77,68,219.09,68.29,139.71.33,203.48-56.85,219.77-73.28,3.95-4,7-8.67,7.39-13.79a1.7,1.7,0,0,0,0-.21c.05-1.55.07-5.06.08-9.46,1.88,42.81-160.39,96.73-169.07,73.84s71.07-53.69,71.07-53.69C153.47,193.74.14,91.85.8,73.88.73,74.53.7,75.05.67,75.64Z"/><path class="cls-6" d="M447.73,66.26c5.36-5.26,3.1-6.8,2.42-7.59a18.37,18.37,0,0,1-2.42,2.86c-16.51,16.2-80.06,73.61-219.77,73.28C85.84,134.47,34.23,86.64,8.87,66.51a9.42,9.42,0,0,1-3.28-5.18A9.73,9.73,0,0,0,8.8,71.19c25.43,20.19,77,68,219.16,68.36C367.67,139.87,431.22,82.47,447.73,66.26Z"/><path class="cls-7" d="M.69,121.05c0,.27.06.51.1.76s.09.77.14,1.1c.91,4.75,3.94,8.83,7.94,12,25.36,20.12,77,68,219.09,68.29,139.71.33,203.48-56.85,219.77-73.28,3.95-4,7-8.67,7.39-13.79a1.7,1.7,0,0,0,0-.21c.06-2,.08-7.39.08-13.69-.08,23-8.15,8.77-25.35,27.53-17.38,19-79.37,56.07-107.4,44.23s-36.32,6.31-56.07,7.89-41.06-24.48-65.54-2.37-48.17-27.64-65.54-15S93.85,183.85,85.56,159s-40.27-7.9-49.75-26.06S2.64,127.69.3,101.61C.24,101,.1,100.51,0,100A193.7,193.7,0,0,0,.69,121.05Z"/><path class="cls-8" d="M451.19,91.11c.71-5.6-24.59,17.07-20.31,20.37S448.19,114.52,451.19,91.11Z"/><path class="cls-8" d="M32.08,138.49c3.37-1.65-27-15.55-25.48-10.26S18,145.38,32.08,138.49Z"/><path class="cls-8" d="M161,171.32c3.15-1.92-19.53-6.35-19.3-2.66S147.86,179.33,161,171.32Z"/><path class="cls-8" d="M426.39,110.12c4.32-.75,4.06-5.43-2.35-2.32S420.83,111.1,426.39,110.12Z"/><path class="cls-8" d="M69.62,156.89c4.82,2,7.93-3.25-.64-4.08S63.44,154.3,69.62,156.89Z"/><path class="cls-8" d="M172.75,169.1c5.13-1,4.81-7.08-2.78-3S166.17,170.37,172.75,169.1Z"/><path class="cls-8" d="M286.51,194.52c12.37-6.94-7.5-11.64-8.09-5.52S275.26,200.84,286.51,194.52Z"/><path class="cls-8" d="M271.7,193.93c-4.7-.7-6.51-5.13-1.58-5.13S279.6,195.12,271.7,193.93Z"/><path class="cls-8" d="M249,159.6c-4.7-.7-6.51-5.13-1.58-5.13S256.91,160.79,249,159.6Z"/><path class="cls-8" d="M439.2,132.64c-4.7-.7-6.51-5.13-1.58-5.13S447.1,133.83,439.2,132.64Z"/><path class="cls-8" d="M224.64,189.24c-7.43-.34-3.66-8.76,0-7S228.88,189.43,224.64,189.24Z"/><path class="cls-8" d="M260.94,164.34c-7.44-.34-3.66-8.76,0-7S265.18,164.53,260.94,164.34Z"/><path class="cls-8" d="M394.62,141c-12.52-.56-6.16-14.75,0-11.75S401.75,141.34,394.62,141Z"/><path class="cls-8" d="M44.48,136.4c-7.44-.33-3.66-8.76,0-7S48.72,136.6,44.48,136.4Z"/><path class="cls-8" d="M216.16,182.26c-2.75.31-3.85-3.42-1-4S220,181.82,216.16,182.26Z"/><path class="cls-8" d="M381.17,143c-2.75.31-3.85-3.42-1-4S385,142.61,381.17,143Z"/><g class="cls-9"><path class="cls-10" d="M193.85,38.05c-1.57-2.23,22.22-1.86,19.49,1.27S200.42,47.38,193.85,38.05Z"/><path class="cls-10" d="M418.48,69.81c-3.37-1.83,27-17.24,25.49-11.38S432.56,77.44,418.48,69.81Z"/><path class="cls-10" d="M338.05,43.56c-3.15-2.13,19.53-7,19.3-3S351.22,52.44,338.05,43.56Z"/><path class="cls-10" d="M190.05,34.32c-4.33-.84-4.06-6,2.35-2.58S195.61,35.39,190.05,34.32Z"/><path class="cls-10" d="M373.49,62.2c-5.12-1.09-4.81-7.86,2.79-3.37S380.07,63.6,373.49,62.2Z"/><path class="cls-10" d="M355.38,29.77c-5.13-1.1-4.81-7.86,2.78-3.37S362,31.17,355.38,29.77Z"/><path class="cls-10" d="M322.23,29.25c-3.16-2.13,19.52-7,19.3-3S335.4,38.13,322.23,29.25Z"/><path class="cls-10" d="M339.55,15.46c-5.12-1.1-4.81-7.86,2.79-3.37S346.13,16.86,339.55,15.46Z"/><path class="cls-10" d="M162.75,97.52c-12.37-7.7,7.5-12.92,8.1-6.13S174,104.52,162.75,97.52Z"/><path class="cls-10" d="M177.56,96.86c4.7-.78,6.51-5.69,1.58-5.69S169.66,98.17,177.56,96.86Z"/><path class="cls-10" d="M66,94.61c4.7-.78,6.51-5.69,1.58-5.69S58.1,95.92,66,94.61Z"/><path class="cls-10" d="M262.46,74.2c4.7-.78,6.52-5.69,1.58-5.69S254.57,75.51,262.46,74.2Z"/><path class="cls-10" d="M233,31.49c4.7-.78,6.51-5.69,1.57-5.69S225.11,32.8,233,31.49Z"/><path class="cls-10" d="M323.79,94.4c7.43-.37,3.66-9.72,0-7.74S319.55,94.62,323.79,94.4Z"/><path class="cls-10" d="M250.54,79.45c7.43-.37,3.66-9.71,0-7.74S246.3,79.67,250.54,79.45Z"/><path class="cls-10" d="M116.24,65c12.51-.64,6.16-16.36,0-13S109.1,65.31,116.24,65Z"/><path class="cls-10" d="M417.56,62.65c7.44-.38,3.66-9.72,0-7.74S413.32,62.86,417.56,62.65Z"/><path class="cls-10" d="M332.26,86.66c2.76.34,3.86-3.79,1-4.43S328.41,86.18,332.26,86.66Z"/><path class="cls-10" d="M123.44,31.55c7.43-.37,3.66-9.72,0-7.74S119.2,31.77,123.44,31.55Z"/><path class="cls-10" d="M131.91,23.81c2.76.34,3.86-3.79,1-4.43S128.06,23.33,131.91,23.81Z"/><path class="cls-10" d="M129.68,67.19c2.76.34,3.86-3.79,1-4.43S125.83,66.71,129.68,67.19Z"/></g><g class="cls-11"><path class="cls-12" d="M47,53.47l-.1-.15C47,53.43,47,53.47,47,53.47Z"/><path class="cls-8" d="M174.06,58c-1.14-2,11.23-1.68,10.35,0S175.36,60.22,174.06,58Z"/><path class="cls-8" d="M174.14,58.1c1.43,2,8.81,1.59,10.13.08C183,57.1,175.3,56.94,174.14,58.1Z"/><path class="cls-8" d="M167.41,53c.55,1,6,1.14,7.18,0S166.17,50.81,167.41,53Z"/><path class="cls-8" d="M174.31,53.2c-1.35-.69-5.94-1.08-6.84-.14C168.17,53.92,172.77,54.09,174.31,53.2Z"/><path class="cls-8" d="M181,50.74c.68,1.16,4.85,1.12,5.34-.44S180.18,49.29,181,50.74Z"/><path class="cls-8" d="M186.16,50.67c-.87-.65-4-.43-4.93.3C182.19,51.8,185.26,51.76,186.16,50.67Z"/><g class="cls-13"><path class="cls-8" d="M131.86,44.22c-.57-2,5.62-1.67,5.18,0S132.51,46.44,131.86,44.22Z"/><path class="cls-8" d="M131.9,44.32c.72,2,4.41,1.58,5.07.07C136.33,43.32,132.48,43.15,131.9,44.32Z"/></g><g class="cls-13"><path class="cls-8" d="M122,25.15c.25,1,2.72,1.11,3.24,0S121.46,23,122,25.15Z"/><path class="cls-8" d="M125.13,25.35c-.6-.67-2.68-1-3.09-.14C122.36,26.05,124.44,26.22,125.13,25.35Z"/></g><g class="cls-13"><path class="cls-8" d="M196.76,41.72c.25,1,2.72,1.11,3.25,0S196.21,39.6,196.76,41.72Z"/><path class="cls-8" d="M199.88,41.92c-.61-.67-2.68-1.05-3.09-.14C197.11,42.62,199.19,42.78,199.88,41.92Z"/></g><g class="cls-13"><path class="cls-8" d="M215,68.29c.25,1,2.72,1.11,3.25,0S214.44,66.17,215,68.29Z"/><path class="cls-8" d="M218.12,68.5c-.61-.68-2.68-1-3.09-.14C215.35,69.19,217.43,69.36,218.12,68.5Z"/></g><g class="cls-13"><path class="cls-8" d="M152,73.1c.25,1,2.72,1.11,3.24,0S151.46,71,152,73.1Z"/><path class="cls-8" d="M155.13,73.3c-.6-.67-2.68-1-3.09-.13C152.36,74,154.44,74.17,155.13,73.3Z"/></g><g class="cls-13"><path class="cls-8" d="M140,80.23c.25,1,2.72,1.11,3.24,0S139.4,78.1,140,80.23Z"/><path class="cls-8" d="M143.08,80.43c-.61-.67-2.68-1.05-3.09-.14C140.31,81.13,142.38,81.29,143.08,80.43Z"/></g><g class="cls-13"><path class="cls-8" d="M112.4,43.75c.25,1,2.72,1.11,3.25,0S111.85,41.62,112.4,43.75Z"/><path class="cls-8" d="M115.52,44c-.61-.68-2.68-1.05-3.09-.14C112.75,44.64,114.83,44.81,115.52,44Z"/></g><g class="cls-13"><path class="cls-8" d="M73.5,53.36c.25,1,2.72,1.11,3.25,0S72.94,51.24,73.5,53.36Z"/><path class="cls-8" d="M76.62,53.56c-.61-.67-2.68-1.05-3.09-.14C73.85,54.26,75.93,54.42,76.62,53.56Z"/></g><g class="cls-13"><path class="cls-8" d="M61.35,58.62c.25,1,2.72,1.11,3.25,0S60.8,56.49,61.35,58.62Z"/><path class="cls-8" d="M64.47,58.82c-.61-.68-2.68-1-3.09-.14C61.7,59.51,63.78,59.68,64.47,58.82Z"/></g><g class="cls-13"><path class="cls-8" d="M88.56,74.39c.25,1,2.72,1.11,3.24,0S88,72.27,88.56,74.39Z"/><path class="cls-8" d="M91.68,74.59c-.61-.67-2.68-1-3.09-.14C88.91,75.29,91,75.46,91.68,74.59Z"/></g><g class="cls-13"><path class="cls-8" d="M126.46,29.52c.68,1.16,4.86,1.12,5.34-.44S125.61,28.07,126.46,29.52Z"/><path class="cls-8" d="M131.59,29.45c-.88-.65-4-.43-4.93.3C127.62,30.58,130.68,30.54,131.59,29.45Z"/></g><g class="cls-13"><path class="cls-8" d="M77.49,69.9c-1.15-2,11.23-1.68,10.34,0S78.79,72.11,77.49,69.9Z"/><path class="cls-8" d="M77.57,70c1.43,2,8.81,1.59,10.12.08C86.42,69,78.73,68.83,77.57,70Z"/></g><g class="cls-13"><path class="cls-8" d="M65.74,44.84c.55,1,6,1.14,7.17,0S64.5,42.65,65.74,44.84Z"/><path class="cls-8" d="M72.63,45.05c-1.34-.7-5.93-1.08-6.84-.15C66.5,45.76,71.1,45.93,72.63,45.05Z"/></g><g class="cls-13"><path class="cls-8" d="M74.92,40.68c.68,1.16,4.86,1.12,5.34-.44S74.07,39.23,74.92,40.68Z"/><path class="cls-8" d="M80.05,40.61c-.87-.65-4-.43-4.93.3C76.08,41.74,79.15,41.7,80.05,40.61Z"/></g><g class="cls-13"><path class="cls-8" d="M121.2,52.77c-.76-1.88,7.47-1.61,6.88,0S122.06,54.89,121.2,52.77Z"/><path class="cls-8" d="M121.26,52.86c.94,1.94,5.85,1.52,6.72.07C127.14,51.9,122,51.74,121.26,52.86Z"/></g><g class="cls-13"><path class="cls-8" d="M198.32,73.36c.56,1,6,1.14,7.18,0S197.09,71.17,198.32,73.36Z"/><path class="cls-8" d="M205.22,73.57c-1.34-.7-5.93-1.08-6.84-.15C199.09,74.28,203.69,74.46,205.22,73.57Z"/></g><g class="cls-13"><path class="cls-8" d="M207.58,65.73c.68,1.15,4.86,1.11,5.34-.45S206.73,64.28,207.58,65.73Z"/><path class="cls-8" d="M212.71,65.65c-.87-.65-4-.43-4.93.3C208.74,66.78,211.8,66.75,212.71,65.65Z"/></g><g class="cls-13"><path class="cls-8" d="M133.42,56.59c-1.15-2,11.23-1.67,10.35,0S134.72,58.81,133.42,56.59Z"/><path class="cls-8" d="M133.5,56.68c1.43,2,8.81,1.59,10.13.08C142.35,55.68,134.66,55.52,133.5,56.68Z"/></g><g class="cls-13"><path class="cls-8" d="M152.8,26.17c.55,1,6,1.14,7.18,0S151.56,24,152.8,26.17Z"/><path class="cls-8" d="M159.69,26.37c-1.34-.69-5.93-1.08-6.83-.14C153.56,27.09,158.16,27.26,159.69,26.37Z"/></g><g class="cls-13"><path class="cls-8" d="M162.1,30.62c.68,1.15,4.86,1.11,5.34-.45S161.25,29.17,162.1,30.62Z"/><path class="cls-8" d="M167.23,30.54c-.88-.65-4-.43-4.93.3C163.26,31.67,166.32,31.63,167.23,30.54Z"/></g><g class="cls-14"><path class="cls-12" d="M47,53.47l-.1-.15C47,53.43,47,53.47,47,53.47Z"/><path class="cls-8" d="M174.06,58c-1.14-2,11.23-1.68,10.35,0S175.36,60.22,174.06,58Z"/><path class="cls-8" d="M174.14,58.1c1.43,2,8.81,1.59,10.13.08C183,57.1,175.3,56.94,174.14,58.1Z"/><path class="cls-8" d="M167.41,53c.55,1,6,1.14,7.18,0S166.17,50.81,167.41,53Z"/><path class="cls-8" d="M174.31,53.2c-1.35-.69-5.94-1.08-6.84-.14C168.17,53.92,172.77,54.09,174.31,53.2Z"/><path class="cls-8" d="M181,50.74c.68,1.16,4.85,1.12,5.34-.44S180.18,49.29,181,50.74Z"/><path class="cls-8" d="M186.16,50.67c-.87-.65-4-.43-4.93.3C182.19,51.8,185.26,51.76,186.16,50.67Z"/><g class="cls-13"><path class="cls-8" d="M131.86,44.22c-.57-2,5.62-1.67,5.18,0S132.51,46.44,131.86,44.22Z"/><path class="cls-8" d="M131.9,44.32c.72,2,4.41,1.58,5.07.07C136.33,43.32,132.48,43.15,131.9,44.32Z"/></g><g class="cls-13"><path class="cls-8" d="M122,25.15c.25,1,2.72,1.11,3.24,0S121.46,23,122,25.15Z"/><path class="cls-8" d="M125.13,25.35c-.6-.67-2.68-1-3.09-.14C122.36,26.05,124.44,26.22,125.13,25.35Z"/></g><g class="cls-13"><path class="cls-8" d="M196.76,41.72c.25,1,2.72,1.11,3.25,0S196.21,39.6,196.76,41.72Z"/><path class="cls-8" d="M199.88,41.92c-.61-.67-2.68-1.05-3.09-.14C197.11,42.62,199.19,42.78,199.88,41.92Z"/></g><g class="cls-13"><path class="cls-8" d="M215,68.29c.25,1,2.72,1.11,3.25,0S214.44,66.17,215,68.29Z"/><path class="cls-8" d="M218.12,68.5c-.61-.68-2.68-1-3.09-.14C215.35,69.19,217.43,69.36,218.12,68.5Z"/></g><g class="cls-13"><path class="cls-8" d="M152,73.1c.25,1,2.72,1.11,3.24,0S151.46,71,152,73.1Z"/><path class="cls-8" d="M155.13,73.3c-.6-.67-2.68-1-3.09-.13C152.36,74,154.44,74.17,155.13,73.3Z"/></g><g class="cls-13"><path class="cls-8" d="M140,80.23c.25,1,2.72,1.11,3.24,0S139.4,78.1,140,80.23Z"/><path class="cls-8" d="M143.08,80.43c-.61-.67-2.68-1.05-3.09-.14C140.31,81.13,142.38,81.29,143.08,80.43Z"/></g><g class="cls-13"><path class="cls-8" d="M112.4,43.75c.25,1,2.72,1.11,3.25,0S111.85,41.62,112.4,43.75Z"/><path class="cls-8" d="M115.52,44c-.61-.68-2.68-1.05-3.09-.14C112.75,44.64,114.83,44.81,115.52,44Z"/></g><g class="cls-13"><path class="cls-8" d="M73.5,53.36c.25,1,2.72,1.11,3.25,0S72.94,51.24,73.5,53.36Z"/><path class="cls-8" d="M76.62,53.56c-.61-.67-2.68-1.05-3.09-.14C73.85,54.26,75.93,54.42,76.62,53.56Z"/></g><g class="cls-13"><path class="cls-8" d="M61.35,58.62c.25,1,2.72,1.11,3.25,0S60.8,56.49,61.35,58.62Z"/><path class="cls-8" d="M64.47,58.82c-.61-.68-2.68-1-3.09-.14C61.7,59.51,63.78,59.68,64.47,58.82Z"/></g><g class="cls-13"><path class="cls-8" d="M88.56,74.39c.25,1,2.72,1.11,3.24,0S88,72.27,88.56,74.39Z"/><path class="cls-8" d="M91.68,74.59c-.61-.67-2.68-1-3.09-.14C88.91,75.29,91,75.46,91.68,74.59Z"/></g><g class="cls-13"><path class="cls-8" d="M126.46,29.52c.68,1.16,4.86,1.12,5.34-.44S125.61,28.07,126.46,29.52Z"/><path class="cls-8" d="M131.59,29.45c-.88-.65-4-.43-4.93.3C127.62,30.58,130.68,30.54,131.59,29.45Z"/></g><g class="cls-13"><path class="cls-8" d="M77.49,69.9c-1.15-2,11.23-1.68,10.34,0S78.79,72.11,77.49,69.9Z"/><path class="cls-8" d="M77.57,70c1.43,2,8.81,1.59,10.12.08C86.42,69,78.73,68.83,77.57,70Z"/></g><g class="cls-13"><path class="cls-8" d="M65.74,44.84c.55,1,6,1.14,7.17,0S64.5,42.65,65.74,44.84Z"/><path class="cls-8" d="M72.63,45.05c-1.34-.7-5.93-1.08-6.84-.15C66.5,45.76,71.1,45.93,72.63,45.05Z"/></g><g class="cls-13"><path class="cls-8" d="M74.92,40.68c.68,1.16,4.86,1.12,5.34-.44S74.07,39.23,74.92,40.68Z"/><path class="cls-8" d="M80.05,40.61c-.87-.65-4-.43-4.93.3C76.08,41.74,79.15,41.7,80.05,40.61Z"/></g><g class="cls-13"><path class="cls-8" d="M121.2,52.77c-.76-1.88,7.47-1.61,6.88,0S122.06,54.89,121.2,52.77Z"/><path class="cls-8" d="M121.26,52.86c.94,1.94,5.85,1.52,6.72.07C127.14,51.9,122,51.74,121.26,52.86Z"/></g><g class="cls-13"><path class="cls-8" d="M198.32,73.36c.56,1,6,1.14,7.18,0S197.09,71.17,198.32,73.36Z"/><path class="cls-8" d="M205.22,73.57c-1.34-.7-5.93-1.08-6.84-.15C199.09,74.28,203.69,74.46,205.22,73.57Z"/></g><g class="cls-13"><path class="cls-8" d="M207.58,65.73c.68,1.15,4.86,1.11,5.34-.45S206.73,64.28,207.58,65.73Z"/><path class="cls-8" d="M212.71,65.65c-.87-.65-4-.43-4.93.3C208.74,66.78,211.8,66.75,212.71,65.65Z"/></g><g class="cls-13"><path class="cls-8" d="M133.42,56.59c-1.15-2,11.23-1.67,10.35,0S134.72,58.81,133.42,56.59Z"/><path class="cls-8" d="M133.5,56.68c1.43,2,8.81,1.59,10.13.08C142.35,55.68,134.66,55.52,133.5,56.68Z"/></g><g class="cls-13"><path class="cls-8" d="M338,32.25c-.57-1.95,5.62-1.67,5.17,0S338.66,34.47,338,32.25Z"/><path class="cls-8" d="M338.05,32.35c.71,2,4.41,1.58,5.06.07C342.48,31.35,338.63,31.19,338.05,32.35Z"/></g><g class="cls-13"><path class="cls-8" d="M328.16,13.19c.25,1,2.72,1.1,3.25,0S327.61,11.06,328.16,13.19Z"/><path class="cls-8" d="M331.28,13.39c-.61-.68-2.68-1.05-3.09-.14C328.51,14.08,330.59,14.25,331.28,13.39Z"/></g><g class="cls-13"><path class="cls-8" d="M318.55,31.78c.25.95,2.72,1.11,3.24,0S318,29.65,318.55,31.78Z"/><path class="cls-8" d="M321.67,32c-.61-.67-2.68-1.05-3.09-.14C318.9,32.68,321,32.84,321.67,32Z"/></g><g class="cls-13"><path class="cls-8" d="M332.61,17.56c.68,1.15,4.85,1.11,5.34-.45S331.75,16.11,332.61,17.56Z"/><path class="cls-8" d="M337.73,17.48c-.87-.65-4-.43-4.92.3C333.76,18.61,336.83,18.57,337.73,17.48Z"/></g><g class="cls-13"><path class="cls-8" d="M16.5,68.39c-.77-1.88,7.46-1.6,6.87,0S17.36,70.51,16.5,68.39Z"/><path class="cls-8" d="M16.55,68.48c.95,1.94,5.86,1.52,6.73.07C22.43,67.52,17.32,67.37,16.55,68.48Z"/></g><g class="cls-13"><path class="cls-8" d="M28.72,72.21c-1.15-2,11.23-1.67,10.34,0S30,74.43,28.72,72.21Z"/><path class="cls-8" d="M28.79,72.31c1.43,2,8.82,1.59,10.13.07C37.64,71.31,30,71.14,28.79,72.31Z"/></g><g class="cls-13"><path class="cls-8" d="M338,32.25c-.57-1.95,5.62-1.67,5.17,0S338.66,34.47,338,32.25Z"/><path class="cls-8" d="M338.05,32.35c.71,2,4.41,1.58,5.06.07C342.48,31.35,338.63,31.19,338.05,32.35Z"/></g><g class="cls-13"><path class="cls-8" d="M328.16,13.19c.25,1,2.72,1.1,3.25,0S327.61,11.06,328.16,13.19Z"/><path class="cls-8" d="M331.28,13.39c-.61-.68-2.68-1.05-3.09-.14C328.51,14.08,330.59,14.25,331.28,13.39Z"/></g><g class="cls-13"><path class="cls-8" d="M318.55,31.78c.25.95,2.72,1.11,3.24,0S318,29.65,318.55,31.78Z"/><path class="cls-8" d="M321.67,32c-.61-.67-2.68-1.05-3.09-.14C318.9,32.68,321,32.84,321.67,32Z"/></g><g class="cls-13"><path class="cls-8" d="M332.61,17.56c.68,1.15,4.85,1.11,5.34-.45S331.75,16.11,332.61,17.56Z"/><path class="cls-8" d="M337.73,17.48c-.87-.65-4-.43-4.92.3C333.76,18.61,336.83,18.57,337.73,17.48Z"/></g><path class="cls-10" d="M291.11,118.35c-5.13-1.09-4.81-7.86,2.78-3.37S297.69,119.76,291.11,118.35Z"/><g class="cls-13"><path class="cls-8" d="M279.72,116.08c.25,1,2.72,1.11,3.24,0S279.16,114,279.72,116.08Z"/><path class="cls-8" d="M282.83,116.28c-.6-.67-2.68-1-3.09-.14C280.06,117,282.14,117.14,282.83,116.28Z"/></g><g class="cls-13"><path class="cls-8" d="M284.16,120.45c.68,1.16,4.86,1.12,5.34-.44S283.31,119,284.16,120.45Z"/><path class="cls-8" d="M289.29,120.38c-.87-.65-4-.43-4.93.3C285.32,121.51,288.38,121.47,289.29,120.38Z"/></g><g class="cls-13"><path class="cls-8" d="M279.72,116.08c.25,1,2.72,1.11,3.24,0S279.16,114,279.72,116.08Z"/><path class="cls-8" d="M282.83,116.28c-.6-.67-2.68-1-3.09-.14C280.06,117,282.14,117.14,282.83,116.28Z"/></g><g class="cls-13"><path class="cls-8" d="M284.16,120.45c.68,1.16,4.86,1.12,5.34-.44S283.31,119,284.16,120.45Z"/><path class="cls-8" d="M289.29,120.38c-.87-.65-4-.43-4.93.3C285.32,121.51,288.38,121.47,289.29,120.38Z"/></g><g class="cls-13"><path class="cls-8" d="M16.5,68.39c-.77-1.88,7.46-1.6,6.87,0S17.36,70.51,16.5,68.39Z"/><path class="cls-8" d="M16.55,68.48c.95,1.94,5.86,1.52,6.73.07C22.43,67.52,17.32,67.37,16.55,68.48Z"/></g><g class="cls-13"><path class="cls-8" d="M28.72,72.21c-1.15-2,11.23-1.67,10.34,0S30,74.43,28.72,72.21Z"/><path class="cls-8" d="M28.79,72.31c1.43,2,8.82,1.59,10.13.07C37.64,71.31,30,71.14,28.79,72.31Z"/></g><g class="cls-13"><path class="cls-8" d="M152.8,26.17c.55,1,6,1.14,7.18,0S151.56,24,152.8,26.17Z"/><path class="cls-8" d="M159.69,26.37c-1.34-.69-5.93-1.08-6.83-.14C153.56,27.09,158.16,27.26,159.69,26.37Z"/></g><g class="cls-13"><path class="cls-8" d="M162.1,30.62c.68,1.15,4.86,1.11,5.34-.45S161.25,29.17,162.1,30.62Z"/><path class="cls-8" d="M167.23,30.54c-.88-.65-4-.43-4.93.3C163.26,31.67,166.32,31.63,167.23,30.54Z"/></g></g><path class="cls-12" d="M158.39,87.4l-.09-.16C158.39,87.36,158.39,87.4,158.39,87.4Z"/><path class="cls-8" d="M285.5,91.94c-1.15-2,11.23-1.68,10.34,0S286.79,94.15,285.5,91.94Z"/><path class="cls-8" d="M285.58,92c1.42,2,8.81,1.59,10.12.08C294.43,91,286.74,90.86,285.58,92Z"/><path class="cls-8" d="M278.85,86.93c.55,1,6,1.14,7.17,0S277.61,84.74,278.85,86.93Z"/><path class="cls-8" d="M285.74,87.13c-1.34-.69-5.93-1.08-6.84-.14C279.61,87.85,284.21,88,285.74,87.13Z"/><path class="cls-8" d="M292.47,84.67c.68,1.16,4.86,1.12,5.34-.44S291.62,83.22,292.47,84.67Z"/><path class="cls-8" d="M297.6,84.59c-.87-.64-4-.42-4.93.31C293.63,85.72,296.69,85.69,297.6,84.59Z"/><g class="cls-13"><path class="cls-8" d="M243.3,78.15c-.57-2,5.62-1.67,5.17,0S244,80.37,243.3,78.15Z"/><path class="cls-8" d="M243.34,78.25c.71,2,4.41,1.58,5.06.07C247.76,77.25,243.92,77.08,243.34,78.25Z"/></g><g class="cls-13"><path class="cls-8" d="M233.45,59.08c.25,1,2.72,1.11,3.25,0S232.9,57,233.45,59.08Z"/><path class="cls-8" d="M236.57,59.28c-.61-.67-2.68-1.05-3.09-.14C233.8,60,235.88,60.14,236.57,59.28Z"/></g><g class="cls-13"><path class="cls-8" d="M308.2,75.65c.25.95,2.72,1.11,3.24,0S307.64,73.52,308.2,75.65Z"/><path class="cls-8" d="M311.31,75.85c-.6-.67-2.67-1-3.08-.14C308.54,76.55,310.62,76.71,311.31,75.85Z"/></g><g class="cls-13"><path class="cls-8" d="M326.44,102.22c.25,1,2.72,1.11,3.24,0S325.88,100.1,326.44,102.22Z"/><path class="cls-8" d="M329.55,102.42c-.6-.67-2.68-1-3.08-.13C326.78,103.12,328.86,103.29,329.55,102.42Z"/></g><g class="cls-13"><path class="cls-8" d="M263.45,107c.25,1,2.72,1.11,3.25,0S262.9,104.91,263.45,107Z"/><path class="cls-8" d="M266.57,107.23c-.61-.67-2.68-1-3.09-.14C263.8,107.93,265.88,108.1,266.57,107.23Z"/></g><g class="cls-13"><path class="cls-8" d="M251.4,114.16c.25,1,2.72,1.11,3.24,0S250.84,112,251.4,114.16Z"/><path class="cls-8" d="M254.51,114.36c-.6-.67-2.68-1-3.09-.14C251.74,115.05,253.82,115.22,254.51,114.36Z"/></g><g class="cls-13"><path class="cls-8" d="M223.84,77.68c.25.95,2.72,1.11,3.24,0S223.28,75.55,223.84,77.68Z"/><path class="cls-8" d="M227,77.88c-.61-.68-2.68-1-3.09-.14C224.19,78.57,226.26,78.74,227,77.88Z"/></g><g class="cls-13"><path class="cls-8" d="M184.94,87.29c.25.95,2.72,1.11,3.24,0S184.38,85.16,184.94,87.29Z"/><path class="cls-8" d="M188.05,87.49c-.6-.67-2.68-1-3.08-.14C185.28,88.19,187.36,88.35,188.05,87.49Z"/></g><g class="cls-13"><path class="cls-8" d="M172.79,92.55c.25,1,2.72,1.1,3.24,0S172.23,90.42,172.79,92.55Z"/><path class="cls-8" d="M175.91,92.75c-.61-.68-2.68-1-3.09-.14C173.14,93.44,175.21,93.61,175.91,92.75Z"/></g><g class="cls-13"><path class="cls-8" d="M200,108.32c.25,1,2.72,1.11,3.24,0S199.44,106.19,200,108.32Z"/><path class="cls-8" d="M203.11,108.52c-.6-.67-2.68-1-3.09-.14C200.34,109.22,202.42,109.38,203.11,108.52Z"/></g><g class="cls-13"><path class="cls-8" d="M237.9,63.45c.68,1.16,4.85,1.12,5.34-.44S237,62,237.9,63.45Z"/><path class="cls-8" d="M243,63.38c-.87-.65-4-.43-4.93.3C239.05,64.51,242.12,64.47,243,63.38Z"/></g><g class="cls-13"><path class="cls-8" d="M188.93,103.83c-1.15-2,11.23-1.68,10.34,0S190.22,106,188.93,103.83Z"/><path class="cls-8" d="M189,103.92c1.42,2,8.81,1.59,10.12.08C197.85,102.92,190.17,102.75,189,103.92Z"/></g><g class="cls-13"><path class="cls-8" d="M177.17,78.77c.55,1,6,1.14,7.18,0S175.94,76.58,177.17,78.77Z"/><path class="cls-8" d="M184.07,79c-1.34-.69-5.93-1.07-6.84-.14C177.93,79.69,182.53,79.86,184.07,79Z"/></g><g class="cls-13"><path class="cls-8" d="M186.36,74.61c.68,1.16,4.86,1.12,5.34-.44S185.51,73.16,186.36,74.61Z"/><path class="cls-8" d="M191.49,74.54c-.88-.65-4-.43-4.93.3C187.52,75.67,190.58,75.63,191.49,74.54Z"/></g><g class="cls-13"><path class="cls-8" d="M232.64,86.7c-.76-1.88,7.46-1.61,6.88,0S233.5,88.82,232.64,86.7Z"/><path class="cls-8" d="M232.69,86.79c.95,1.94,5.86,1.52,6.73.07C238.57,85.83,233.46,85.67,232.69,86.79Z"/></g><g class="cls-13"><path class="cls-8" d="M309.76,107.29c.55,1,6,1.14,7.18,0S308.52,105.1,309.76,107.29Z"/><path class="cls-8" d="M316.66,107.5c-1.35-.7-5.94-1.08-6.84-.15C310.52,108.21,315.12,108.38,316.66,107.5Z"/></g><g class="cls-13"><path class="cls-8" d="M319,99.66c.68,1.15,4.86,1.11,5.34-.45S318.17,98.21,319,99.66Z"/><path class="cls-8" d="M324.15,99.58c-.88-.65-4-.43-4.93.3C320.18,100.71,323.24,100.67,324.15,99.58Z"/></g><g class="cls-13"><path class="cls-8" d="M244.86,90.52c-1.15-2,11.23-1.68,10.34,0S246.15,92.74,244.86,90.52Z"/><path class="cls-8" d="M244.94,90.61c1.42,2,8.81,1.59,10.12.08C253.79,89.61,246.1,89.45,244.94,90.61Z"/></g><g class="cls-13"><path class="cls-8" d="M264.23,60.1c.56,1,6,1.14,7.18,0S263,57.91,264.23,60.1Z"/><path class="cls-8" d="M271.13,60.3c-1.34-.69-5.93-1.08-6.84-.14C265,61,269.6,61.19,271.13,60.3Z"/></g><g class="cls-13"><path class="cls-8" d="M273.54,64.55c.68,1.15,4.85,1.11,5.34-.45S272.68,63.1,273.54,64.55Z"/><path class="cls-8" d="M278.66,64.47c-.87-.65-4-.43-4.92.3C274.69,65.6,277.76,65.56,278.66,64.47Z"/></g><g class="cls-14"><path class="cls-12" d="M158.39,87.4l-.09-.16C158.39,87.36,158.39,87.4,158.39,87.4Z"/><path class="cls-8" d="M285.5,91.94c-1.15-2,11.23-1.68,10.34,0S286.79,94.15,285.5,91.94Z"/><path class="cls-8" d="M285.58,92c1.42,2,8.81,1.59,10.12.08C294.43,91,286.74,90.86,285.58,92Z"/><path class="cls-8" d="M278.85,86.93c.55,1,6,1.14,7.17,0S277.61,84.74,278.85,86.93Z"/><path class="cls-8" d="M285.74,87.13c-1.34-.69-5.93-1.08-6.84-.14C279.61,87.85,284.21,88,285.74,87.13Z"/><path class="cls-8" d="M292.47,84.67c.68,1.16,4.86,1.12,5.34-.44S291.62,83.22,292.47,84.67Z"/><path class="cls-8" d="M297.6,84.59c-.87-.64-4-.42-4.93.31C293.63,85.72,296.69,85.69,297.6,84.59Z"/><g class="cls-13"><path class="cls-8" d="M243.3,78.15c-.57-2,5.62-1.67,5.17,0S244,80.37,243.3,78.15Z"/><path class="cls-8" d="M243.34,78.25c.71,2,4.41,1.58,5.06.07C247.76,77.25,243.92,77.08,243.34,78.25Z"/></g><g class="cls-13"><path class="cls-8" d="M233.45,59.08c.25,1,2.72,1.11,3.25,0S232.9,57,233.45,59.08Z"/><path class="cls-8" d="M236.57,59.28c-.61-.67-2.68-1.05-3.09-.14C233.8,60,235.88,60.14,236.57,59.28Z"/></g><g class="cls-13"><path class="cls-8" d="M308.2,75.65c.25.95,2.72,1.11,3.24,0S307.64,73.52,308.2,75.65Z"/><path class="cls-8" d="M311.31,75.85c-.6-.67-2.67-1-3.08-.14C308.54,76.55,310.62,76.71,311.31,75.85Z"/></g><g class="cls-13"><path class="cls-8" d="M326.44,102.22c.25,1,2.72,1.11,3.24,0S325.88,100.1,326.44,102.22Z"/><path class="cls-8" d="M329.55,102.42c-.6-.67-2.68-1-3.08-.13C326.78,103.12,328.86,103.29,329.55,102.42Z"/></g><g class="cls-13"><path class="cls-8" d="M263.45,107c.25,1,2.72,1.11,3.25,0S262.9,104.91,263.45,107Z"/><path class="cls-8" d="M266.57,107.23c-.61-.67-2.68-1-3.09-.14C263.8,107.93,265.88,108.1,266.57,107.23Z"/></g><g class="cls-13"><path class="cls-8" d="M251.4,114.16c.25,1,2.72,1.11,3.24,0S250.84,112,251.4,114.16Z"/><path class="cls-8" d="M254.51,114.36c-.6-.67-2.68-1-3.09-.14C251.74,115.05,253.82,115.22,254.51,114.36Z"/></g><g class="cls-13"><path class="cls-8" d="M223.84,77.68c.25.95,2.72,1.11,3.24,0S223.28,75.55,223.84,77.68Z"/><path class="cls-8" d="M227,77.88c-.61-.68-2.68-1-3.09-.14C224.19,78.57,226.26,78.74,227,77.88Z"/></g><g class="cls-13"><path class="cls-8" d="M184.94,87.29c.25.95,2.72,1.11,3.24,0S184.38,85.16,184.94,87.29Z"/><path class="cls-8" d="M188.05,87.49c-.6-.67-2.68-1-3.08-.14C185.28,88.19,187.36,88.35,188.05,87.49Z"/></g><g class="cls-13"><path class="cls-8" d="M172.79,92.55c.25,1,2.72,1.1,3.24,0S172.23,90.42,172.79,92.55Z"/><path class="cls-8" d="M175.91,92.75c-.61-.68-2.68-1-3.09-.14C173.14,93.44,175.21,93.61,175.91,92.75Z"/></g><g class="cls-13"><path class="cls-8" d="M200,108.32c.25,1,2.72,1.11,3.24,0S199.44,106.19,200,108.32Z"/><path class="cls-8" d="M203.11,108.52c-.6-.67-2.68-1-3.09-.14C200.34,109.22,202.42,109.38,203.11,108.52Z"/></g><g class="cls-13"><path class="cls-8" d="M237.9,63.45c.68,1.16,4.85,1.12,5.34-.44S237,62,237.9,63.45Z"/><path class="cls-8" d="M243,63.38c-.87-.65-4-.43-4.93.3C239.05,64.51,242.12,64.47,243,63.38Z"/></g><g class="cls-13"><path class="cls-8" d="M188.93,103.83c-1.15-2,11.23-1.68,10.34,0S190.22,106,188.93,103.83Z"/><path class="cls-8" d="M189,103.92c1.42,2,8.81,1.59,10.12.08C197.85,102.92,190.17,102.75,189,103.92Z"/></g><g class="cls-13"><path class="cls-8" d="M177.17,78.77c.55,1,6,1.14,7.18,0S175.94,76.58,177.17,78.77Z"/><path class="cls-8" d="M184.07,79c-1.34-.69-5.93-1.07-6.84-.14C177.93,79.69,182.53,79.86,184.07,79Z"/></g><g class="cls-13"><path class="cls-8" d="M186.36,74.61c.68,1.16,4.86,1.12,5.34-.44S185.51,73.16,186.36,74.61Z"/><path class="cls-8" d="M191.49,74.54c-.88-.65-4-.43-4.93.3C187.52,75.67,190.58,75.63,191.49,74.54Z"/></g><g class="cls-13"><path class="cls-8" d="M232.64,86.7c-.76-1.88,7.46-1.61,6.88,0S233.5,88.82,232.64,86.7Z"/><path class="cls-8" d="M232.69,86.79c.95,1.94,5.86,1.52,6.73.07C238.57,85.83,233.46,85.67,232.69,86.79Z"/></g><g class="cls-13"><path class="cls-8" d="M309.76,107.29c.55,1,6,1.14,7.18,0S308.52,105.1,309.76,107.29Z"/><path class="cls-8" d="M316.66,107.5c-1.35-.7-5.94-1.08-6.84-.15C310.52,108.21,315.12,108.38,316.66,107.5Z"/></g><g class="cls-13"><path class="cls-8" d="M319,99.66c.68,1.15,4.86,1.11,5.34-.45S318.17,98.21,319,99.66Z"/><path class="cls-8" d="M324.15,99.58c-.88-.65-4-.43-4.93.3C320.18,100.71,323.24,100.67,324.15,99.58Z"/></g><g class="cls-13"><path class="cls-8" d="M244.86,90.52c-1.15-2,11.23-1.68,10.34,0S246.15,92.74,244.86,90.52Z"/><path class="cls-8" d="M244.94,90.61c1.42,2,8.81,1.59,10.12.08C253.79,89.61,246.1,89.45,244.94,90.61Z"/></g><g class="cls-13"><path class="cls-8" d="M264.23,60.1c.56,1,6,1.14,7.18,0S263,57.91,264.23,60.1Z"/><path class="cls-8" d="M271.13,60.3c-1.34-.69-5.93-1.08-6.84-.14C265,61,269.6,61.19,271.13,60.3Z"/></g><g class="cls-13"><path class="cls-8" d="M273.54,64.55c.68,1.15,4.85,1.11,5.34-.45S272.68,63.1,273.54,64.55Z"/><path class="cls-8" d="M278.66,64.47c-.87-.65-4-.43-4.92.3C274.69,65.6,277.76,65.56,278.66,64.47Z"/></g></g><path class="cls-12" d="M165.8,33.75l-.09-.16C165.8,33.71,165.8,33.75,165.8,33.75Z"/><path class="cls-8" d="M292.91,38.28c-1.15-2,11.23-1.67,10.34,0S294.21,40.5,292.91,38.28Z"/><path class="cls-8" d="M293,38.37c1.43,2,8.81,1.59,10.12.08C301.84,37.37,294.15,37.21,293,38.37Z"/><path class="cls-8" d="M286.26,33.27c.55,1,6,1.14,7.17,0S285,31.08,286.26,33.27Z"/><path class="cls-8" d="M293.15,33.48c-1.34-.7-5.93-1.08-6.84-.15C287,34.19,291.62,34.37,293.15,33.48Z"/><path class="cls-8" d="M299.88,31c.68,1.15,4.86,1.11,5.34-.45S299,29.57,299.88,31Z"/><path class="cls-8" d="M305,30.94c-.87-.65-4-.43-4.93.3C301,32.07,304.1,32,305,30.94Z"/><g class="cls-13"><path class="cls-8" d="M250.71,24.5c-.57-2,5.62-1.68,5.17,0S251.36,26.71,250.71,24.5Z"/><path class="cls-8" d="M250.75,24.59c.71,2,4.41,1.59,5.06.08C255.18,23.59,251.33,23.43,250.75,24.59Z"/></g><g class="cls-13"><path class="cls-8" d="M241.59,9.18c.25,1,2.72,1.11,3.24,0S241,7.06,241.59,9.18Z"/><path class="cls-8" d="M244.71,9.38c-.61-.67-2.68-1.05-3.09-.14C241.94,10.08,244,10.24,244.71,9.38Z"/></g><g class="cls-13"><path class="cls-8" d="M315.61,22c.25.95,2.72,1.11,3.24,0S315.05,19.87,315.61,22Z"/><path class="cls-8" d="M318.73,22.2c-.61-.68-2.68-1.05-3.09-.14C316,22.89,318,23.06,318.73,22.2Z"/></g><g class="cls-13"><path class="cls-8" d="M333.85,48.57c.25,1,2.72,1.11,3.24,0S333.29,46.44,333.85,48.57Z"/><path class="cls-8" d="M337,48.77c-.61-.67-2.68-1.05-3.09-.14C334.19,49.46,336.27,49.63,337,48.77Z"/></g><g class="cls-13"><path class="cls-8" d="M270.87,53.38c.24.95,2.71,1.11,3.24,0S270.31,51.25,270.87,53.38Z"/><path class="cls-8" d="M274,53.58c-.61-.68-2.68-1-3.09-.14C271.21,54.27,273.29,54.44,274,53.58Z"/></g><g class="cls-13"><path class="cls-8" d="M258.81,60.5c.25,1,2.72,1.11,3.24,0S258.25,58.38,258.81,60.5Z"/><path class="cls-8" d="M261.92,60.71c-.6-.68-2.68-1.05-3.08-.14C259.15,61.4,261.23,61.57,261.92,60.71Z"/></g><g class="cls-13"><path class="cls-8" d="M231.25,24c.25.95,2.72,1.11,3.24,0S230.69,21.89,231.25,24Z"/><path class="cls-8" d="M234.37,24.22c-.61-.67-2.68-1-3.09-.14C231.6,24.92,233.67,25.08,234.37,24.22Z"/></g><g class="cls-13"><path class="cls-8" d="M192.35,33.64c.25,1,2.72,1.1,3.24,0S191.79,31.51,192.35,33.64Z"/><path class="cls-8" d="M195.47,33.84c-.61-.68-2.68-1.05-3.09-.14C192.69,34.53,194.77,34.7,195.47,33.84Z"/></g><g class="cls-13"><path class="cls-8" d="M180.2,38.89c.25,1,2.72,1.11,3.24,0S179.64,36.76,180.2,38.89Z"/><path class="cls-8" d="M183.32,39.09c-.61-.67-2.68-1.05-3.09-.14C180.55,39.79,182.62,40,183.32,39.09Z"/></g><g class="cls-13"><path class="cls-8" d="M207.41,54.67c.25.95,2.72,1.11,3.24,0S206.85,52.54,207.41,54.67Z"/><path class="cls-8" d="M210.52,54.87c-.6-.68-2.68-1-3.08-.14C207.75,55.56,209.83,55.73,210.52,54.87Z"/></g><g class="cls-13"><path class="cls-8" d="M246,13.55c.68,1.16,4.85,1.12,5.34-.44S245.18,12.1,246,13.55Z"/><path class="cls-8" d="M251.16,13.48c-.87-.65-4-.43-4.93.3C247.19,14.61,250.26,14.57,251.16,13.48Z"/></g><g class="cls-13"><path class="cls-8" d="M196.34,50.17c-1.15-2,11.23-1.67,10.34,0S197.63,52.39,196.34,50.17Z"/><path class="cls-8" d="M196.42,50.26c1.42,2,8.81,1.59,10.12.08C205.27,49.26,197.58,49.1,196.42,50.26Z"/></g><g class="cls-13"><path class="cls-8" d="M184.58,25.11c.56,1,6,1.15,7.18,0S183.35,22.92,184.58,25.11Z"/><path class="cls-8" d="M191.48,25.32c-1.34-.7-5.93-1.08-6.84-.14C185.35,26,190,26.21,191.48,25.32Z"/></g><g class="cls-13"><path class="cls-8" d="M193.77,21c.68,1.15,4.86,1.11,5.34-.45S192.92,19.51,193.77,21Z"/><path class="cls-8" d="M198.9,20.88c-.88-.65-4-.43-4.93.3C194.93,22,198,22,198.9,20.88Z"/></g><g class="cls-13"><path class="cls-8" d="M240.05,33c-.76-1.88,7.47-1.6,6.88,0S240.91,35.17,240.05,33Z"/><path class="cls-8" d="M240.1,33.13c1,1.94,5.86,1.52,6.73.07C246,32.17,240.87,32,240.1,33.13Z"/></g><g class="cls-13"><path class="cls-8" d="M317.17,53.64c.55,1,6,1.14,7.18,0S315.94,51.44,317.17,53.64Z"/><path class="cls-8" d="M324.07,53.84c-1.35-.69-5.94-1.08-6.84-.14C317.93,54.56,322.53,54.73,324.07,53.84Z"/></g><g class="cls-13"><path class="cls-8" d="M326.43,46c.68,1.16,4.86,1.12,5.34-.44S325.58,44.55,326.43,46Z"/><path class="cls-8" d="M331.56,45.93c-.88-.65-4-.43-4.93.3C327.59,47.06,330.65,47,331.56,45.93Z"/></g><g class="cls-13"><path class="cls-8" d="M252.27,36.86c-1.15-2,11.23-1.67,10.34,0S253.57,39.08,252.27,36.86Z"/><path class="cls-8" d="M252.35,37c1.43,2,8.81,1.59,10.12.07C261.2,36,253.51,35.79,252.35,37Z"/></g><g class="cls-13"><path class="cls-8" d="M272.37,10.2c.56,1,6,1.14,7.18,0S271.14,8,272.37,10.2Z"/><path class="cls-8" d="M279.27,10.4c-1.34-.69-5.93-1.08-6.84-.14C273.14,11.12,277.74,11.29,279.27,10.4Z"/></g><g class="cls-13"><path class="cls-8" d="M281.68,14.65c.68,1.15,4.85,1.11,5.34-.45S280.82,13.2,281.68,14.65Z"/><path class="cls-8" d="M286.8,14.57c-.87-.65-4-.43-4.93.3C282.83,15.7,285.9,15.66,286.8,14.57Z"/></g><g class="cls-14"><path class="cls-12" d="M165.8,33.75l-.09-.16C165.8,33.71,165.8,33.75,165.8,33.75Z"/><path class="cls-8" d="M292.91,38.28c-1.15-2,11.23-1.67,10.34,0S294.21,40.5,292.91,38.28Z"/><path class="cls-8" d="M293,38.37c1.43,2,8.81,1.59,10.12.08C301.84,37.37,294.15,37.21,293,38.37Z"/><path class="cls-8" d="M286.26,33.27c.55,1,6,1.14,7.17,0S285,31.08,286.26,33.27Z"/><path class="cls-8" d="M293.15,33.48c-1.34-.7-5.93-1.08-6.84-.15C287,34.19,291.62,34.37,293.15,33.48Z"/><path class="cls-8" d="M299.88,31c.68,1.15,4.86,1.11,5.34-.45S299,29.57,299.88,31Z"/><path class="cls-8" d="M305,30.94c-.87-.65-4-.43-4.93.3C301,32.07,304.1,32,305,30.94Z"/><g class="cls-13"><path class="cls-8" d="M250.71,24.5c-.57-2,5.62-1.68,5.17,0S251.36,26.71,250.71,24.5Z"/><path class="cls-8" d="M250.75,24.59c.71,2,4.41,1.59,5.06.08C255.18,23.59,251.33,23.43,250.75,24.59Z"/></g><g class="cls-13"><path class="cls-8" d="M241.59,9.18c.25,1,2.72,1.11,3.24,0S241,7.06,241.59,9.18Z"/><path class="cls-8" d="M244.71,9.38c-.61-.67-2.68-1.05-3.09-.14C241.94,10.08,244,10.24,244.71,9.38Z"/></g><g class="cls-13"><path class="cls-8" d="M315.61,22c.25.95,2.72,1.11,3.24,0S315.05,19.87,315.61,22Z"/><path class="cls-8" d="M318.73,22.2c-.61-.68-2.68-1.05-3.09-.14C316,22.89,318,23.06,318.73,22.2Z"/></g><g class="cls-13"><path class="cls-8" d="M333.85,48.57c.25,1,2.72,1.11,3.24,0S333.29,46.44,333.85,48.57Z"/><path class="cls-8" d="M337,48.77c-.61-.67-2.68-1.05-3.09-.14C334.19,49.46,336.27,49.63,337,48.77Z"/></g><g class="cls-13"><path class="cls-8" d="M270.87,53.38c.24.95,2.71,1.11,3.24,0S270.31,51.25,270.87,53.38Z"/><path class="cls-8" d="M274,53.58c-.61-.68-2.68-1-3.09-.14C271.21,54.27,273.29,54.44,274,53.58Z"/></g><g class="cls-13"><path class="cls-8" d="M258.81,60.5c.25,1,2.72,1.11,3.24,0S258.25,58.38,258.81,60.5Z"/><path class="cls-8" d="M261.92,60.71c-.6-.68-2.68-1.05-3.08-.14C259.15,61.4,261.23,61.57,261.92,60.71Z"/></g><g class="cls-13"><path class="cls-8" d="M231.25,24c.25.95,2.72,1.11,3.24,0S230.69,21.89,231.25,24Z"/><path class="cls-8" d="M234.37,24.22c-.61-.67-2.68-1-3.09-.14C231.6,24.92,233.67,25.08,234.37,24.22Z"/></g><g class="cls-13"><path class="cls-8" d="M192.35,33.64c.25,1,2.72,1.1,3.24,0S191.79,31.51,192.35,33.64Z"/><path class="cls-8" d="M195.47,33.84c-.61-.68-2.68-1.05-3.09-.14C192.69,34.53,194.77,34.7,195.47,33.84Z"/></g><g class="cls-13"><path class="cls-8" d="M180.2,38.89c.25,1,2.72,1.11,3.24,0S179.64,36.76,180.2,38.89Z"/><path class="cls-8" d="M183.32,39.09c-.61-.67-2.68-1.05-3.09-.14C180.55,39.79,182.62,40,183.32,39.09Z"/></g><g class="cls-13"><path class="cls-8" d="M207.41,54.67c.25.95,2.72,1.11,3.24,0S206.85,52.54,207.41,54.67Z"/><path class="cls-8" d="M210.52,54.87c-.6-.68-2.68-1-3.08-.14C207.75,55.56,209.83,55.73,210.52,54.87Z"/></g><g class="cls-13"><path class="cls-8" d="M246,13.55c.68,1.16,4.85,1.12,5.34-.44S245.18,12.1,246,13.55Z"/><path class="cls-8" d="M251.16,13.48c-.87-.65-4-.43-4.93.3C247.19,14.61,250.26,14.57,251.16,13.48Z"/></g><g class="cls-13"><path class="cls-8" d="M196.34,50.17c-1.15-2,11.23-1.67,10.34,0S197.63,52.39,196.34,50.17Z"/><path class="cls-8" d="M196.42,50.26c1.42,2,8.81,1.59,10.12.08C205.27,49.26,197.58,49.1,196.42,50.26Z"/></g><g class="cls-13"><path class="cls-8" d="M184.58,25.11c.56,1,6,1.15,7.18,0S183.35,22.92,184.58,25.11Z"/><path class="cls-8" d="M191.48,25.32c-1.34-.7-5.93-1.08-6.84-.14C185.35,26,190,26.21,191.48,25.32Z"/></g><g class="cls-13"><path class="cls-8" d="M193.77,21c.68,1.15,4.86,1.11,5.34-.45S192.92,19.51,193.77,21Z"/><path class="cls-8" d="M198.9,20.88c-.88-.65-4-.43-4.93.3C194.93,22,198,22,198.9,20.88Z"/></g><g class="cls-13"><path class="cls-8" d="M240.05,33c-.76-1.88,7.47-1.6,6.88,0S240.91,35.17,240.05,33Z"/><path class="cls-8" d="M240.1,33.13c1,1.94,5.86,1.52,6.73.07C246,32.17,240.87,32,240.1,33.13Z"/></g><g class="cls-13"><path class="cls-8" d="M317.17,53.64c.55,1,6,1.14,7.18,0S315.94,51.44,317.17,53.64Z"/><path class="cls-8" d="M324.07,53.84c-1.35-.69-5.94-1.08-6.84-.14C317.93,54.56,322.53,54.73,324.07,53.84Z"/></g><g class="cls-13"><path class="cls-8" d="M326.43,46c.68,1.16,4.86,1.12,5.34-.44S325.58,44.55,326.43,46Z"/><path class="cls-8" d="M331.56,45.93c-.88-.65-4-.43-4.93.3C327.59,47.06,330.65,47,331.56,45.93Z"/></g><g class="cls-13"><path class="cls-8" d="M252.27,36.86c-1.15-2,11.23-1.67,10.34,0S253.57,39.08,252.27,36.86Z"/><path class="cls-8" d="M252.35,37c1.43,2,8.81,1.59,10.12.07C261.2,36,253.51,35.79,252.35,37Z"/></g><g class="cls-13"><path class="cls-8" d="M272.37,10.2c.56,1,6,1.14,7.18,0S271.14,8,272.37,10.2Z"/><path class="cls-8" d="M279.27,10.4c-1.34-.69-5.93-1.08-6.84-.14C273.14,11.12,277.74,11.29,279.27,10.4Z"/></g><g class="cls-13"><path class="cls-8" d="M281.68,14.65c.68,1.15,4.85,1.11,5.34-.45S280.82,13.2,281.68,14.65Z"/><path class="cls-8" d="M286.8,14.57c-.87-.65-4-.43-4.93.3C282.83,15.7,285.9,15.66,286.8,14.57Z"/></g></g><path class="cls-12" d="M272.86,71l-.09-.16C272.86,70.92,272.86,71,272.86,71Z"/><path class="cls-8" d="M382.84,71.65c-1.14-2,11.23-1.68,10.35,0S384.14,73.87,382.84,71.65Z"/><path class="cls-8" d="M382.92,71.74c1.43,2,8.81,1.59,10.13.08C391.77,70.74,384.08,70.58,382.92,71.74Z"/><path class="cls-8" d="M376.19,66.64c.55,1,6,1.14,7.18,0S375,64.45,376.19,66.64Z"/><path class="cls-8" d="M383.09,66.85c-1.35-.7-5.94-1.08-6.84-.15C377,67.56,381.55,67.73,383.09,66.85Z"/><path class="cls-8" d="M389.82,64.38c.68,1.16,4.85,1.12,5.34-.44S389,62.94,389.82,64.38Z"/><path class="cls-8" d="M394.94,64.31c-.87-.65-4-.43-4.93.3C391,65.44,394,65.4,394.94,64.31Z"/><g class="cls-13"><path class="cls-8" d="M357.77,61.71c-.57-2,5.62-1.67,5.17,0S358.42,63.93,357.77,61.71Z"/><path class="cls-8" d="M357.81,61.81c.71,2,4.4,1.58,5.06.07C362.23,60.81,358.39,60.64,357.81,61.81Z"/></g><g class="cls-13"><path class="cls-8" d="M347.92,42.64c.25,1,2.72,1.11,3.24,0S347.36,40.52,347.92,42.64Z"/><path class="cls-8" d="M351,42.84c-.61-.67-2.68-1.05-3.09-.14C348.27,43.54,350.34,43.7,351,42.84Z"/></g><g class="cls-13"><path class="cls-8" d="M388.37,57.51c.25,1,2.72,1.11,3.24,0S387.81,55.39,388.37,57.51Z"/><path class="cls-8" d="M391.49,57.72c-.61-.68-2.68-1-3.09-.14C388.72,58.41,390.79,58.58,391.49,57.72Z"/></g><g class="cls-13"><path class="cls-8" d="M406.61,84.09c.25,1,2.72,1.11,3.24,0S406.05,82,406.61,84.09Z"/><path class="cls-8" d="M409.73,84.29c-.61-.68-2.68-1.05-3.09-.14C407,85,409,85.15,409.73,84.29Z"/></g><g class="cls-13"><path class="cls-8" d="M377.92,90.59c.25,1,2.72,1.11,3.25,0S377.37,88.47,377.92,90.59Z"/><path class="cls-8" d="M381,90.79c-.61-.67-2.68-1-3.09-.14C378.27,91.49,380.35,91.66,381,90.79Z"/></g><g class="cls-13"><path class="cls-8" d="M365.87,97.72c.25,1,2.72,1.11,3.24,0S365.31,95.59,365.87,97.72Z"/><path class="cls-8" d="M369,97.92c-.6-.67-2.68-1-3.09-.14C366.21,98.61,368.29,98.78,369,97.92Z"/></g><g class="cls-13"><path class="cls-8" d="M338.31,61.24c.25.95,2.72,1.11,3.24,0S337.75,59.11,338.31,61.24Z"/><path class="cls-8" d="M341.42,61.44c-.6-.68-2.67-1-3.08-.14C338.65,62.13,340.73,62.3,341.42,61.44Z"/></g><g class="cls-13"><path class="cls-8" d="M299.41,70.85c.25,1,2.72,1.11,3.24,0S298.85,68.72,299.41,70.85Z"/><path class="cls-8" d="M302.52,71.05c-.6-.67-2.68-1-3.09-.14C299.75,71.75,301.83,71.91,302.52,71.05Z"/></g><g class="cls-13"><path class="cls-8" d="M287.26,76.1c.25,1,2.72,1.11,3.24,0S286.7,74,287.26,76.1Z"/><path class="cls-8" d="M290.38,76.31c-.61-.68-2.68-1-3.09-.14C287.6,77,289.68,77.17,290.38,76.31Z"/></g><g class="cls-13"><path class="cls-8" d="M314.47,91.88c.25,1,2.72,1.11,3.24,0S313.91,89.75,314.47,91.88Z"/><path class="cls-8" d="M317.58,92.08c-.6-.67-2.68-1-3.09-.14C314.81,92.78,316.89,92.94,317.58,92.08Z"/></g><g class="cls-13"><path class="cls-8" d="M352.37,47c.68,1.16,4.85,1.12,5.34-.44S351.51,45.56,352.37,47Z"/><path class="cls-8" d="M357.49,46.94c-.87-.65-4-.43-4.93.3C353.52,48.07,356.59,48,357.49,46.94Z"/></g><g class="cls-13"><path class="cls-8" d="M303.4,87.38c-1.15-2,11.23-1.67,10.34,0S304.69,89.6,303.4,87.38Z"/><path class="cls-8" d="M303.47,87.48c1.43,2,8.82,1.59,10.13.08C312.32,86.48,304.63,86.31,303.47,87.48Z"/></g><g class="cls-13"><path class="cls-8" d="M291.64,62.33c.55,1,6,1.14,7.18,0S290.41,60.14,291.64,62.33Z"/><path class="cls-8" d="M298.54,62.53c-1.35-.69-5.93-1.08-6.84-.14C292.4,63.25,297,63.42,298.54,62.53Z"/></g><g class="cls-13"><path class="cls-8" d="M300.83,58.17c.68,1.16,4.86,1.12,5.34-.44S300,56.72,300.83,58.17Z"/><path class="cls-8" d="M306,58.1c-.88-.65-4-.43-4.93.3C302,59.23,305.05,59.19,306,58.1Z"/></g><g class="cls-13"><path class="cls-8" d="M347.11,70.26c-.76-1.88,7.46-1.61,6.87,0S348,72.38,347.11,70.26Z"/><path class="cls-8" d="M347.16,70.35c.95,1.94,5.86,1.52,6.73.07C353,69.39,347.93,69.23,347.16,70.35Z"/></g><g class="cls-13"><path class="cls-8" d="M389.93,89.15c.55,1,6,1.15,7.18,0S388.7,87,389.93,89.15Z"/><path class="cls-8" d="M396.83,89.36c-1.35-.69-5.93-1.08-6.84-.14C390.69,90.08,395.29,90.25,396.83,89.36Z"/></g><g class="cls-13"><path class="cls-8" d="M399.19,81.52c.68,1.16,4.86,1.12,5.34-.45S398.34,80.07,399.19,81.52Z"/><path class="cls-8" d="M404.32,81.44c-.87-.64-4-.42-4.93.31C400.35,82.57,403.41,82.54,404.32,81.44Z"/></g><g class="cls-13"><path class="cls-8" d="M359.33,74.08c-1.15-2,11.23-1.68,10.34,0S360.62,76.3,359.33,74.08Z"/><path class="cls-8" d="M359.41,74.17c1.42,2,8.81,1.59,10.12.08C368.26,73.17,360.57,73,359.41,74.17Z"/></g><g class="cls-13"><path class="cls-8" d="M378.7,43.66c.56,1,6,1.14,7.18,0S377.47,41.47,378.7,43.66Z"/><path class="cls-8" d="M385.6,43.86c-1.34-.69-5.93-1.08-6.84-.14C379.47,44.58,384.07,44.75,385.6,43.86Z"/></g><g class="cls-13"><path class="cls-8" d="M388,48.11c.68,1.15,4.85,1.11,5.34-.45S387.15,46.66,388,48.11Z"/><path class="cls-8" d="M393.13,48c-.87-.65-4-.43-4.93.3C389.16,49.16,392.23,49.12,393.13,48Z"/></g><g class="cls-14"><path class="cls-12" d="M272.86,71l-.09-.16C272.86,70.92,272.86,71,272.86,71Z"/><path class="cls-8" d="M382.84,71.65c-1.14-2,11.23-1.68,10.35,0S384.14,73.87,382.84,71.65Z"/><path class="cls-8" d="M382.92,71.74c1.43,2,8.81,1.59,10.13.08C391.77,70.74,384.08,70.58,382.92,71.74Z"/><path class="cls-8" d="M376.19,66.64c.55,1,6,1.14,7.18,0S375,64.45,376.19,66.64Z"/><path class="cls-8" d="M383.09,66.85c-1.35-.7-5.94-1.08-6.84-.15C377,67.56,381.55,67.73,383.09,66.85Z"/><path class="cls-8" d="M389.82,64.38c.68,1.16,4.85,1.12,5.34-.44S389,62.94,389.82,64.38Z"/><path class="cls-8" d="M394.94,64.31c-.87-.65-4-.43-4.93.3C391,65.44,394,65.4,394.94,64.31Z"/><g class="cls-13"><path class="cls-8" d="M357.77,61.71c-.57-2,5.62-1.67,5.17,0S358.42,63.93,357.77,61.71Z"/><path class="cls-8" d="M357.81,61.81c.71,2,4.4,1.58,5.06.07C362.23,60.81,358.39,60.64,357.81,61.81Z"/></g><g class="cls-13"><path class="cls-8" d="M347.92,42.64c.25,1,2.72,1.11,3.24,0S347.36,40.52,347.92,42.64Z"/><path class="cls-8" d="M351,42.84c-.61-.67-2.68-1.05-3.09-.14C348.27,43.54,350.34,43.7,351,42.84Z"/></g><g class="cls-13"><path class="cls-8" d="M388.37,57.51c.25,1,2.72,1.11,3.24,0S387.81,55.39,388.37,57.51Z"/><path class="cls-8" d="M391.49,57.72c-.61-.68-2.68-1-3.09-.14C388.72,58.41,390.79,58.58,391.49,57.72Z"/></g><g class="cls-13"><path class="cls-8" d="M406.61,84.09c.25,1,2.72,1.11,3.24,0S406.05,82,406.61,84.09Z"/><path class="cls-8" d="M409.73,84.29c-.61-.68-2.68-1.05-3.09-.14C407,85,409,85.15,409.73,84.29Z"/></g><g class="cls-13"><path class="cls-8" d="M377.92,90.59c.25,1,2.72,1.11,3.25,0S377.37,88.47,377.92,90.59Z"/><path class="cls-8" d="M381,90.79c-.61-.67-2.68-1-3.09-.14C378.27,91.49,380.35,91.66,381,90.79Z"/></g><g class="cls-13"><path class="cls-8" d="M365.87,97.72c.25,1,2.72,1.11,3.24,0S365.31,95.59,365.87,97.72Z"/><path class="cls-8" d="M369,97.92c-.6-.67-2.68-1-3.09-.14C366.21,98.61,368.29,98.78,369,97.92Z"/></g><g class="cls-13"><path class="cls-8" d="M338.31,61.24c.25.95,2.72,1.11,3.24,0S337.75,59.11,338.31,61.24Z"/><path class="cls-8" d="M341.42,61.44c-.6-.68-2.67-1-3.08-.14C338.65,62.13,340.73,62.3,341.42,61.44Z"/></g><g class="cls-13"><path class="cls-8" d="M299.41,70.85c.25,1,2.72,1.11,3.24,0S298.85,68.72,299.41,70.85Z"/><path class="cls-8" d="M302.52,71.05c-.6-.67-2.68-1-3.09-.14C299.75,71.75,301.83,71.91,302.52,71.05Z"/></g><g class="cls-13"><path class="cls-8" d="M287.26,76.1c.25,1,2.72,1.11,3.24,0S286.7,74,287.26,76.1Z"/><path class="cls-8" d="M290.38,76.31c-.61-.68-2.68-1-3.09-.14C287.6,77,289.68,77.17,290.38,76.31Z"/></g><g class="cls-13"><path class="cls-8" d="M314.47,91.88c.25,1,2.72,1.11,3.24,0S313.91,89.75,314.47,91.88Z"/><path class="cls-8" d="M317.58,92.08c-.6-.67-2.68-1-3.09-.14C314.81,92.78,316.89,92.94,317.58,92.08Z"/></g><g class="cls-13"><path class="cls-8" d="M352.37,47c.68,1.16,4.85,1.12,5.34-.44S351.51,45.56,352.37,47Z"/><path class="cls-8" d="M357.49,46.94c-.87-.65-4-.43-4.93.3C353.52,48.07,356.59,48,357.49,46.94Z"/></g><g class="cls-13"><path class="cls-8" d="M303.4,87.38c-1.15-2,11.23-1.67,10.34,0S304.69,89.6,303.4,87.38Z"/><path class="cls-8" d="M303.47,87.48c1.43,2,8.82,1.59,10.13.08C312.32,86.48,304.63,86.31,303.47,87.48Z"/></g><g class="cls-13"><path class="cls-8" d="M291.64,62.33c.55,1,6,1.14,7.18,0S290.41,60.14,291.64,62.33Z"/><path class="cls-8" d="M298.54,62.53c-1.35-.69-5.93-1.08-6.84-.14C292.4,63.25,297,63.42,298.54,62.53Z"/></g><g class="cls-13"><path class="cls-8" d="M300.83,58.17c.68,1.16,4.86,1.12,5.34-.44S300,56.72,300.83,58.17Z"/><path class="cls-8" d="M306,58.1c-.88-.65-4-.43-4.93.3C302,59.23,305.05,59.19,306,58.1Z"/></g><g class="cls-13"><path class="cls-8" d="M347.11,70.26c-.76-1.88,7.46-1.61,6.87,0S348,72.38,347.11,70.26Z"/><path class="cls-8" d="M347.16,70.35c.95,1.94,5.86,1.52,6.73.07C353,69.39,347.93,69.23,347.16,70.35Z"/></g><g class="cls-13"><path class="cls-8" d="M389.93,89.15c.55,1,6,1.15,7.18,0S388.7,87,389.93,89.15Z"/><path class="cls-8" d="M396.83,89.36c-1.35-.69-5.93-1.08-6.84-.14C390.69,90.08,395.29,90.25,396.83,89.36Z"/></g><g class="cls-13"><path class="cls-8" d="M399.19,81.52c.68,1.16,4.86,1.12,5.34-.45S398.34,80.07,399.19,81.52Z"/><path class="cls-8" d="M404.32,81.44c-.87-.64-4-.42-4.93.31C400.35,82.57,403.41,82.54,404.32,81.44Z"/></g><g class="cls-13"><path class="cls-8" d="M233.34,119.59c.25,1,2.72,1.11,3.25,0S232.79,117.46,233.34,119.59Z"/><path class="cls-8" d="M236.46,119.79c-.61-.68-2.68-1.05-3.09-.14C233.69,120.48,235.77,120.65,236.46,119.79Z"/></g><g class="cls-13"><path class="cls-8" d="M204.66,126.09c.25,1,2.72,1.11,3.24,0S204.1,124,204.66,126.09Z"/><path class="cls-8" d="M207.77,126.29c-.61-.67-2.68-1-3.09-.14C205,127,207.08,127.16,207.77,126.29Z"/></g><g class="cls-13"><path class="cls-8" d="M216.66,124.65c.56,1,6,1.15,7.18,0S215.43,122.46,216.66,124.65Z"/><path class="cls-8" d="M223.56,124.86c-1.34-.69-5.93-1.08-6.84-.14C217.43,125.58,222,125.75,223.56,124.86Z"/></g><g class="cls-13"><path class="cls-8" d="M225.92,117c.68,1.16,4.86,1.12,5.34-.44S225.07,115.57,225.92,117Z"/><path class="cls-8" d="M231.05,117c-.87-.65-4-.43-4.93.3C227.08,118.08,230.15,118,231.05,117Z"/></g><g class="cls-13"><path class="cls-8" d="M233.34,119.59c.25,1,2.72,1.11,3.25,0S232.79,117.46,233.34,119.59Z"/><path class="cls-8" d="M236.46,119.79c-.61-.68-2.68-1.05-3.09-.14C233.69,120.48,235.77,120.65,236.46,119.79Z"/></g><g class="cls-13"><path class="cls-8" d="M204.66,126.09c.25,1,2.72,1.11,3.24,0S204.1,124,204.66,126.09Z"/><path class="cls-8" d="M207.77,126.29c-.61-.67-2.68-1-3.09-.14C205,127,207.08,127.16,207.77,126.29Z"/></g><g class="cls-13"><path class="cls-8" d="M216.66,124.65c.56,1,6,1.15,7.18,0S215.43,122.46,216.66,124.65Z"/><path class="cls-8" d="M223.56,124.86c-1.34-.69-5.93-1.08-6.84-.14C217.43,125.58,222,125.75,223.56,124.86Z"/></g><g class="cls-13"><path class="cls-8" d="M225.92,117c.68,1.16,4.86,1.12,5.34-.44S225.07,115.57,225.92,117Z"/><path class="cls-8" d="M231.05,117c-.87-.65-4-.43-4.93.3C227.08,118.08,230.15,118,231.05,117Z"/></g><g class="cls-13"><path class="cls-8" d="M359.33,74.08c-1.15-2,11.23-1.68,10.34,0S360.62,76.3,359.33,74.08Z"/><path class="cls-8" d="M359.41,74.17c1.42,2,8.81,1.59,10.12.08C368.26,73.17,360.57,73,359.41,74.17Z"/></g><g class="cls-13"><path class="cls-8" d="M378.7,43.66c.56,1,6,1.14,7.18,0S377.47,41.47,378.7,43.66Z"/><path class="cls-8" d="M385.6,43.86c-1.34-.69-5.93-1.08-6.84-.14C379.47,44.58,384.07,44.75,385.6,43.86Z"/></g><g class="cls-13"><path class="cls-8" d="M388,48.11c.68,1.15,4.85,1.11,5.34-.45S387.15,46.66,388,48.11Z"/><path class="cls-8" d="M393.13,48c-.87-.65-4-.43-4.93.3C389.16,49.16,392.23,49.12,393.13,48Z"/></g><path class="cls-8" d="M408.08,72.38c.55,1,6,1.15,7.18,0S406.85,70.19,408.08,72.38Z"/><path class="cls-8" d="M415,72.59c-1.35-.69-5.93-1.08-6.84-.14C408.84,73.31,413.44,73.48,415,72.59Z"/><path class="cls-8" d="M421.71,70.13c.68,1.15,4.85,1.11,5.34-.45S420.86,68.68,421.71,70.13Z"/><path class="cls-8" d="M426.83,70.05c-.87-.65-4-.42-4.92.3C422.86,71.18,425.93,71.15,426.83,70.05Z"/><g class="cls-13"><path class="cls-8" d="M437.44,61.11c.25,1,2.72,1.11,3.24,0S436.88,59,437.44,61.11Z"/><path class="cls-8" d="M440.55,61.31c-.61-.67-2.68-1.05-3.09-.14C437.78,62,439.86,62.17,440.55,61.31Z"/></g><g class="cls-13"><path class="cls-8" d="M410.59,49.4c.56,1,6,1.14,7.18,0S409.36,47.21,410.59,49.4Z"/><path class="cls-8" d="M417.49,49.61c-1.34-.7-5.93-1.08-6.84-.15C411.36,50.32,416,50.5,417.49,49.61Z"/></g><g class="cls-13"><path class="cls-8" d="M419.9,53.85c.68,1.16,4.85,1.12,5.34-.45S419,52.4,419.9,53.85Z"/><path class="cls-8" d="M425,53.77c-.87-.65-4-.42-4.92.31C421.05,54.9,424.12,54.87,425,53.77Z"/></g><path class="cls-8" d="M408.08,72.38c.55,1,6,1.15,7.18,0S406.85,70.19,408.08,72.38Z"/><path class="cls-8" d="M415,72.59c-1.35-.69-5.93-1.08-6.84-.14C408.84,73.31,413.44,73.48,415,72.59Z"/><path class="cls-8" d="M421.71,70.13c.68,1.15,4.85,1.11,5.34-.45S420.86,68.68,421.71,70.13Z"/><path class="cls-8" d="M426.83,70.05c-.87-.65-4-.42-4.92.3C422.86,71.18,425.93,71.15,426.83,70.05Z"/><g class="cls-13"><path class="cls-8" d="M437.44,61.11c.25,1,2.72,1.11,3.24,0S436.88,59,437.44,61.11Z"/><path class="cls-8" d="M440.55,61.31c-.61-.67-2.68-1.05-3.09-.14C437.78,62,439.86,62.17,440.55,61.31Z"/></g><g class="cls-13"><path class="cls-8" d="M410.59,49.4c.56,1,6,1.14,7.18,0S409.36,47.21,410.59,49.4Z"/><path class="cls-8" d="M417.49,49.61c-1.34-.7-5.93-1.08-6.84-.15C411.36,50.32,416,50.5,417.49,49.61Z"/></g><g class="cls-13"><path class="cls-8" d="M419.9,53.85c.68,1.16,4.85,1.12,5.34-.45S419,52.4,419.9,53.85Z"/><path class="cls-8" d="M425,53.77c-.87-.65-4-.42-4.92.31C421.05,54.9,424.12,54.87,425,53.77Z"/></g></g><path class="cls-12" d="M341.41,31l-.09-.16C341.41,30.91,341.41,31,341.41,31Z"/><path class="cls-8" d="M157,121.57c-1.14-2,11.23-1.67,10.35,0S158.3,123.79,157,121.57Z"/><path class="cls-8" d="M157.08,121.67c1.43,2,8.81,1.58,10.13.07C165.93,120.67,158.24,120.5,157.08,121.67Z"/><path class="cls-8" d="M150.35,116.56c.55,1,6,1.15,7.18,0S149.12,114.37,150.35,116.56Z"/><path class="cls-8" d="M157.25,116.77c-1.35-.69-5.94-1.08-6.84-.14C151.11,117.49,155.71,117.66,157.25,116.77Z"/><path class="cls-8" d="M164,114.31c.68,1.15,4.85,1.11,5.34-.45S163.12,112.86,164,114.31Z"/><path class="cls-8" d="M169.1,114.23c-.87-.65-4-.43-4.92.3C165.13,115.36,168.2,115.33,169.1,114.23Z"/><g class="cls-13"><path class="cls-8" d="M128.4,100.37c-.57-2,5.62-1.68,5.17,0S129.05,102.58,128.4,100.37Z"/><path class="cls-8" d="M128.44,100.46c.71,2,4.41,1.59,5.06.08C132.87,99.46,129,99.3,128.44,100.46Z"/></g><g class="cls-13"><path class="cls-8" d="M105,88.72c.25,1,2.72,1.11,3.24,0S104.4,86.59,105,88.72Z"/><path class="cls-8" d="M108.07,88.92c-.6-.67-2.68-1-3.09-.14C105.3,89.61,107.38,89.78,108.07,88.92Z"/></g><g class="cls-13"><path class="cls-8" d="M179.71,105.29c.24.95,2.71,1.11,3.24,0S179.15,103.16,179.71,105.29Z"/><path class="cls-8" d="M182.82,105.49c-.61-.68-2.68-1-3.09-.14C180.05,106.18,182.13,106.35,182.82,105.49Z"/></g><g class="cls-13"><path class="cls-8" d="M356.5,103.67c.25,1,2.72,1.11,3.24,0S355.94,101.54,356.5,103.67Z"/><path class="cls-8" d="M359.62,103.87c-.61-.68-2.68-1.05-3.09-.14C356.85,104.56,358.92,104.73,359.62,103.87Z"/></g><g class="cls-13"><path class="cls-8" d="M232.65,103.85c.25,1,2.72,1.11,3.24,0S232.09,101.72,232.65,103.85Z"/><path class="cls-8" d="M235.76,104.05c-.6-.67-2.68-1-3.09-.14C233,104.75,235.07,104.91,235.76,104.05Z"/></g><g class="cls-13"><path class="cls-8" d="M220.59,111c.25,1,2.72,1.11,3.24,0S220,108.85,220.59,111Z"/><path class="cls-8" d="M223.71,111.18c-.61-.68-2.68-1.05-3.09-.14C220.94,111.87,223,112,223.71,111.18Z"/></g><g class="cls-13"><path class="cls-8" d="M108.94,99.89c.25,1,2.72,1.11,3.24,0S108.38,97.76,108.94,99.89Z"/><path class="cls-8" d="M112.06,100.09c-.61-.67-2.68-1-3.09-.14C109.29,100.79,111.36,101,112.06,100.09Z"/></g><g class="cls-13"><path class="cls-8" d="M51,67.09c.25,1,2.72,1.11,3.24,0S50.45,65,51,67.09Z"/><path class="cls-8" d="M54.13,67.29c-.61-.67-2.68-1.05-3.09-.14C51.36,68,53.43,68.15,54.13,67.29Z"/></g><g class="cls-13"><path class="cls-8" d="M45,63.68c.25.95,2.72,1.11,3.24,0S44.4,61.56,45,63.68Z"/><path class="cls-8" d="M48.07,63.88c-.61-.67-2.68-1-3.09-.13C45.3,64.58,47.38,64.75,48.07,63.88Z"/></g><g class="cls-13"><path class="cls-8" d="M66.07,88.12c.25.95,2.72,1.11,3.24,0S65.51,86,66.07,88.12Z"/><path class="cls-8" d="M69.19,88.32c-.61-.67-2.68-1-3.09-.14C66.41,89,68.49,89.18,69.19,88.32Z"/></g><g class="cls-13"><path class="cls-8" d="M109.4,93.09c.68,1.15,4.86,1.12,5.34-.45S108.55,91.64,109.4,93.09Z"/><path class="cls-8" d="M114.53,93c-.87-.65-4-.42-4.93.31C110.56,94.14,113.62,94.11,114.53,93Z"/></g><g class="cls-13"><path class="cls-8" d="M55,83.62c-1.15-2,11.23-1.67,10.34,0S56.29,85.84,55,83.62Z"/><path class="cls-8" d="M55.08,83.72c1.42,2,8.81,1.59,10.12.07C63.93,82.72,56.24,82.55,55.08,83.72Z"/></g><g class="cls-13"><path class="cls-8" d="M43.24,58.57c.56,1,6,1.14,7.18,0S42,56.38,43.24,58.57Z"/><path class="cls-8" d="M50.14,58.77c-1.34-.69-5.93-1.08-6.84-.14C44,59.49,48.61,59.66,50.14,58.77Z"/></g><g class="cls-13"><path class="cls-8" d="M52.43,54.41c.68,1.16,4.86,1.12,5.34-.44S51.58,53,52.43,54.41Z"/><path class="cls-8" d="M57.56,54.34c-.87-.65-4-.43-4.93.3C53.59,55.47,56.65,55.43,57.56,54.34Z"/></g><g class="cls-13"><path class="cls-8" d="M117.74,108.91c-.76-1.88,7.47-1.6,6.88,0S118.6,111,117.74,108.91Z"/><path class="cls-8" d="M117.79,109c.95,1.94,5.86,1.52,6.73.07C123.67,108,118.56,107.89,117.79,109Z"/></g><g class="cls-13"><path class="cls-8" d="M339.82,108.73c.55,1,6,1.14,7.18,0S338.59,106.54,339.82,108.73Z"/><path class="cls-8" d="M346.72,108.94c-1.35-.7-5.93-1.08-6.84-.14C340.58,109.65,345.18,109.83,346.72,108.94Z"/></g><g class="cls-13"><path class="cls-8" d="M349.08,101.1c.68,1.15,4.86,1.11,5.34-.45S348.23,99.65,349.08,101.1Z"/><path class="cls-8" d="M354.21,101c-.87-.65-4-.42-4.93.3C350.24,102.15,353.3,102.12,354.21,101Z"/></g><g class="cls-13"><path class="cls-8" d="M130,112.73c-1.15-2,11.23-1.67,10.34,0S131.25,115,130,112.73Z"/><path class="cls-8" d="M130,112.83c1.42,2,8.81,1.59,10.12.07C138.89,111.83,131.2,111.66,130,112.83Z"/></g><g class="cls-13"><path class="cls-8" d="M135.74,89.73c.55,1,6,1.15,7.18,0S134.5,87.54,135.74,89.73Z"/><path class="cls-8" d="M142.64,89.94c-1.35-.69-5.94-1.08-6.84-.14C136.5,90.66,141.1,90.83,142.64,89.94Z"/></g><g class="cls-13"><path class="cls-8" d="M145,94.18c.68,1.16,4.86,1.12,5.34-.44S144.19,92.73,145,94.18Z"/><path class="cls-8" d="M150.17,94.11c-.87-.65-4-.43-4.93.3C146.2,95.24,149.26,95.2,150.17,94.11Z"/></g><g class="cls-14"><path class="cls-12" d="M341.41,31l-.09-.16C341.41,30.91,341.41,31,341.41,31Z"/><path class="cls-8" d="M157,121.57c-1.14-2,11.23-1.67,10.35,0S158.3,123.79,157,121.57Z"/><path class="cls-8" d="M157.08,121.67c1.43,2,8.81,1.58,10.13.07C165.93,120.67,158.24,120.5,157.08,121.67Z"/><path class="cls-8" d="M150.35,116.56c.55,1,6,1.15,7.18,0S149.12,114.37,150.35,116.56Z"/><path class="cls-8" d="M157.25,116.77c-1.35-.69-5.94-1.08-6.84-.14C151.11,117.49,155.71,117.66,157.25,116.77Z"/><path class="cls-8" d="M164,114.31c.68,1.15,4.85,1.11,5.34-.45S163.12,112.86,164,114.31Z"/><path class="cls-8" d="M169.1,114.23c-.87-.65-4-.43-4.92.3C165.13,115.36,168.2,115.33,169.1,114.23Z"/><path class="cls-8" d="M391.33,37c-1.15-2,11.23-1.67,10.34,0S392.63,39.23,391.33,37Z"/><path class="cls-8" d="M391.41,37.11c1.43,2,8.81,1.58,10.12.07C400.26,36.11,392.57,35.94,391.41,37.11Z"/><path class="cls-8" d="M384.68,32c.55,1,6,1.15,7.18,0S383.44,29.81,384.68,32Z"/><path class="cls-8" d="M391.57,32.21c-1.34-.69-5.93-1.08-6.83-.14C385.44,32.93,390,33.1,391.57,32.21Z"/><path class="cls-8" d="M398.3,29.75c.68,1.15,4.86,1.11,5.34-.45S397.45,28.3,398.3,29.75Z"/><path class="cls-8" d="M403.43,29.67c-.87-.65-4-.43-4.93.3C399.46,30.8,402.53,30.77,403.43,29.67Z"/><path class="cls-8" d="M391.33,37c-1.15-2,11.23-1.67,10.34,0S392.63,39.23,391.33,37Z"/><path class="cls-8" d="M391.41,37.11c1.43,2,8.81,1.58,10.12.07C400.26,36.11,392.57,35.94,391.41,37.11Z"/><path class="cls-8" d="M384.68,32c.55,1,6,1.15,7.18,0S383.44,29.81,384.68,32Z"/><path class="cls-8" d="M391.57,32.21c-1.34-.69-5.93-1.08-6.83-.14C385.44,32.93,390,33.1,391.57,32.21Z"/><path class="cls-8" d="M398.3,29.75c.68,1.15,4.86,1.11,5.34-.45S397.45,28.3,398.3,29.75Z"/><path class="cls-8" d="M403.43,29.67c-.87-.65-4-.43-4.93.3C399.46,30.8,402.53,30.77,403.43,29.67Z"/><g class="cls-13"><path class="cls-8" d="M128.4,100.37c-.57-2,5.62-1.68,5.17,0S129.05,102.58,128.4,100.37Z"/><path class="cls-8" d="M128.44,100.46c.71,2,4.41,1.59,5.06.08C132.87,99.46,129,99.3,128.44,100.46Z"/></g><g class="cls-13"><path class="cls-8" d="M105,88.72c.25,1,2.72,1.11,3.24,0S104.4,86.59,105,88.72Z"/><path class="cls-8" d="M108.07,88.92c-.6-.67-2.68-1-3.09-.14C105.3,89.61,107.38,89.78,108.07,88.92Z"/></g><g class="cls-13"><path class="cls-8" d="M179.71,105.29c.24.95,2.71,1.11,3.24,0S179.15,103.16,179.71,105.29Z"/><path class="cls-8" d="M182.82,105.49c-.61-.68-2.68-1-3.09-.14C180.05,106.18,182.13,106.35,182.82,105.49Z"/></g><g class="cls-13"><path class="cls-8" d="M356.5,103.67c.25,1,2.72,1.11,3.24,0S355.94,101.54,356.5,103.67Z"/><path class="cls-8" d="M359.62,103.87c-.61-.68-2.68-1.05-3.09-.14C356.85,104.56,358.92,104.73,359.62,103.87Z"/></g><g class="cls-13"><path class="cls-8" d="M232.65,103.85c.25,1,2.72,1.11,3.24,0S232.09,101.72,232.65,103.85Z"/><path class="cls-8" d="M235.76,104.05c-.6-.67-2.68-1-3.09-.14C233,104.75,235.07,104.91,235.76,104.05Z"/></g><g class="cls-13"><path class="cls-8" d="M220.59,111c.25,1,2.72,1.11,3.24,0S220,108.85,220.59,111Z"/><path class="cls-8" d="M223.71,111.18c-.61-.68-2.68-1.05-3.09-.14C220.94,111.87,223,112,223.71,111.18Z"/></g><g class="cls-13"><path class="cls-8" d="M108.94,99.89c.25,1,2.72,1.11,3.24,0S108.38,97.76,108.94,99.89Z"/><path class="cls-8" d="M112.06,100.09c-.61-.67-2.68-1-3.09-.14C109.29,100.79,111.36,101,112.06,100.09Z"/></g><g class="cls-13"><path class="cls-8" d="M51,67.09c.25,1,2.72,1.11,3.24,0S50.45,65,51,67.09Z"/><path class="cls-8" d="M54.13,67.29c-.61-.67-2.68-1.05-3.09-.14C51.36,68,53.43,68.15,54.13,67.29Z"/></g><g class="cls-13"><path class="cls-8" d="M45,63.68c.25.95,2.72,1.11,3.24,0S44.4,61.56,45,63.68Z"/><path class="cls-8" d="M48.07,63.88c-.61-.67-2.68-1-3.09-.13C45.3,64.58,47.38,64.75,48.07,63.88Z"/></g><g class="cls-13"><path class="cls-8" d="M66.07,88.12c.25.95,2.72,1.11,3.24,0S65.51,86,66.07,88.12Z"/><path class="cls-8" d="M69.19,88.32c-.61-.67-2.68-1-3.09-.14C66.41,89,68.49,89.18,69.19,88.32Z"/></g><g class="cls-13"><path class="cls-8" d="M109.4,93.09c.68,1.15,4.86,1.12,5.34-.45S108.55,91.64,109.4,93.09Z"/><path class="cls-8" d="M114.53,93c-.87-.65-4-.42-4.93.31C110.56,94.14,113.62,94.11,114.53,93Z"/></g><g class="cls-13"><path class="cls-8" d="M55,83.62c-1.15-2,11.23-1.67,10.34,0S56.29,85.84,55,83.62Z"/><path class="cls-8" d="M55.08,83.72c1.42,2,8.81,1.59,10.12.07C63.93,82.72,56.24,82.55,55.08,83.72Z"/></g><g class="cls-13"><path class="cls-8" d="M43.24,58.57c.56,1,6,1.14,7.18,0S42,56.38,43.24,58.57Z"/><path class="cls-8" d="M50.14,58.77c-1.34-.69-5.93-1.08-6.84-.14C44,59.49,48.61,59.66,50.14,58.77Z"/></g><g class="cls-13"><path class="cls-8" d="M52.43,54.41c.68,1.16,4.86,1.12,5.34-.44S51.58,53,52.43,54.41Z"/><path class="cls-8" d="M57.56,54.34c-.87-.65-4-.43-4.93.3C53.59,55.47,56.65,55.43,57.56,54.34Z"/></g><g class="cls-13"><path class="cls-8" d="M117.74,108.91c-.76-1.88,7.47-1.6,6.88,0S118.6,111,117.74,108.91Z"/><path class="cls-8" d="M117.79,109c.95,1.94,5.86,1.52,6.73.07C123.67,108,118.56,107.89,117.79,109Z"/></g><g class="cls-13"><path class="cls-8" d="M339.82,108.73c.55,1,6,1.14,7.18,0S338.59,106.54,339.82,108.73Z"/><path class="cls-8" d="M346.72,108.94c-1.35-.7-5.93-1.08-6.84-.14C340.58,109.65,345.18,109.83,346.72,108.94Z"/></g><g class="cls-13"><path class="cls-8" d="M349.08,101.1c.68,1.15,4.86,1.11,5.34-.45S348.23,99.65,349.08,101.1Z"/><path class="cls-8" d="M354.21,101c-.87-.65-4-.42-4.93.3C350.24,102.15,353.3,102.12,354.21,101Z"/></g><g class="cls-13"><path class="cls-8" d="M130,112.73c-1.15-2,11.23-1.67,10.34,0S131.25,115,130,112.73Z"/><path class="cls-8" d="M130,112.83c1.42,2,8.81,1.59,10.12.07C138.89,111.83,131.2,111.66,130,112.83Z"/></g><g class="cls-13"><path class="cls-8" d="M135.74,89.73c.55,1,6,1.15,7.18,0S134.5,87.54,135.74,89.73Z"/><path class="cls-8" d="M142.64,89.94c-1.35-.69-5.94-1.08-6.84-.14C136.5,90.66,141.1,90.83,142.64,89.94Z"/></g><g class="cls-13"><path class="cls-8" d="M145,94.18c.68,1.16,4.86,1.12,5.34-.44S144.19,92.73,145,94.18Z"/><path class="cls-8" d="M150.17,94.11c-.87-.65-4-.43-4.93.3C146.2,95.24,149.26,95.2,150.17,94.11Z"/></g></g></g><path class="cls-15" d="M447.73,66.26c5.42-5.32,3-6.84,2.39-7.62-5.26-6.31-16.12-17-36.25-28.11C388,16.22,347,2.65,283.35.37c135.65,8.41,142,133.92-70.57,138.94,4.95.13,10,.22,15.18.24C367.67,139.87,431.22,82.47,447.73,66.26Z"/></g></g></g></svg>