<svg xmlns="http://www.w3.org/2000/svg" viewBox="0 0 646.01 497.27"><defs><style>.cls-1{fill:#cc6a27;}.cls-2{fill:#d97b2c;}.cls-3{fill:#db8c34;}.cls-4{fill:#e6873c;}.cls-5{fill:#b8551e;}.cls-6{fill:#d8702b;}.cls-7{fill:#ed9450;}.cls-8{fill:#e5913d;}.cls-9{fill:#f2a659;}.cls-10{fill:#e88e44;}.cls-11{fill:#fcc881;}.cls-12{fill:#d18d42;}.cls-13{fill:#e0a35a;}.cls-14{fill:#b7743c;}.cls-15{fill:#f6a770;}.cls-16{fill:#9c491e;}.cls-17{fill:#e2a041;}.cls-18{fill:#8e4420;}.cls-19{fill:#c1601e;}</style></defs><title>bread</title><g id="Layer_2" data-name="Layer 2"><g id="Capa_1" data-name="Capa 1"><path class="cls-1" d="M646,239.09c0-.33,0-.65,0-1v-.74c0-.67,0-1.35,0-2l0-1.45a.76.76,0,0,1,0-.15c0-.79-.06-1.59-.1-2.38,0-.45,0-.9-.08-1.34,0-.12,0-.24,0-.36,0-.34,0-.69-.06-1,0-.8-.12-1.59-.19-2.38l-.06-.78c0-.06,0-.11,0-.17-.09-1.06-.2-2.12-.32-3.18,0-.07,0-.14,0-.21l0-.27-.21-1.82c-.13-1-.26-2-.4-3-.07-.51-.16-1-.23-1.51,0-.1,0-.19,0-.28s0-.06,0-.09l-.06-.39,0-.18c-.16-1-.32-1.95-.5-2.92,0-.21-.07-.41-.11-.62s-.11-.59-.17-.89l-.3-1.58c0-.16-.07-.32-.1-.48s-.08-.35-.11-.53c-.15-.7-.29-1.4-.44-2.1l-.15-.66c0-.11-.06-.22-.08-.33v0c-.44-1.93-.92-3.86-1.43-5.77-.12-.46-.25-.92-.37-1.37-.29-1-.59-2.11-.9-3.15h0a169.28,169.28,0,0,0-28.78-55.62q-1.41-1.8-2.83-3.54h0c-.3-.36-.59-.74-.89-1.1s-.48-.58-.72-.87c-1-1.26-2.08-2.51-3.13-3.72-.15-.19-.31-.37-.47-.55-1.15-1.33-2.3-2.65-3.45-3.93l-.14-.16q-1.76-2-3.51-3.82c-.09-.09-.17-.19-.25-.28v0c-32.26-34.41-63.41-48.64-70.11-52,0,0-8.2-7.29-21.8-19.92s-48.16-30.58-83.14-22.81c0,0-3.88-7.77-11.66-11.66a104.53,104.53,0,0,0-13.38-4.8h0l-.29-.09-3.32-1-.18-.05c-1.26-.35-2.57-.71-3.92-1.06h-.05c-1.27-.33-2.58-.66-3.91-1L382.92,6c-1.36-.33-2.76-.65-4.18-1l-.28-.06c-1.29-.28-2.61-.54-3.94-.8L373.73,4c-1.42-.27-2.85-.52-4.3-.76L369,3.16c-1.29-.21-2.6-.4-3.91-.58H365l-.15,0-.76-.1-1.57-.19-1-.12c-.57-.06-1.14-.13-1.71-.18a3.16,3.16,0,0,0-.32,0l-.89-.08-3.11-.24-1-.06-.63,0-1.43-.05-1.57-.05-.69,0h-.69c-.54,0-1.07,0-1.61,0l-1.32,0-.92,0-.68,0h-.06l-1.21.05q-1,.06-1.95.15l-.82.07h-.11c-.89.09-1.77.19-2.64.32-.25,0-.5.08-.74.12l-.52.08-.63.1-.79.15-1,.2c-.56.11-1.11.24-1.64.37-.17,0-.35.07-.51.12l-.14,0-.33.1c-.52.14-1,.29-1.55.45l-.91.3c-.27.09-.53.18-.78.28l-.48.18-.32.13c-.25.1-.51.19-.75.3-.75.32-1.49.65-2.2,1,0,0-14.57-9.47-43.72-4.64,0,0-55.38-1.37-80.65,33,0,0-70.52-.78-106.86,52.73v0l-.35.54c-.74,1.1-1.47,2.22-2.17,3.36l-.21.33q-1.24,2-2.43,4.15l0,.06q-1.06,1.93-2.08,4l-.48,1c-.42.84-.82,1.7-1.22,2.57l-.78,1.69-.1.08h0l0,0h0l0,0h0l0,0h0l-.07.06-.09.06h0l-.08.06,0,0h0l-.13.09-.07.06-.15.12h0v0h0l0,0-.15.12-.14.11-.22.17-.08.06-.19.16-.11.08-.12.1-.11.09-.25.2-.4.32-.09.07L81,107l-.06,0-.09.08-.15.12,0,0-.31.25-.51.43-.21.17-.06,0-.2.17-.33.27-.61.53-.35.3-.06,0,0,0-.25.21-.15.13-.63.55-.73.64-.43.37-.11.1-.84.76-.08.07-.22.19,0,0-.12.1,0,0,0,0h0l-1,1-.15.14h0L73,114l-.08.06-.09.09-.2.19-.63.58-.14.12-1.62,1.54-.14.13c-.87.83-1.79,1.72-2.72,2.65l-.47.45-.37.38h0c-2,2-4,4.09-6.15,6.39l-.09.1q-1.68,1.8-3.42,3.77c-.55.61-1.11,1.27-1.66,1.9s-1,1.16-1.54,1.77c0,0,0,0,0,0s-.25.29-.37.43L52,136.16l0,.06-1.1,1.32-.05.05-1,1.31-1.33,1.64-.49.62-.06.07Q46.42,143.06,45,145l0,.07,0,0h0c-.46.6-.91,1.23-1.37,1.84l-.09.13-.34.47L42,149l-.06.08c-.29.4-.58.83-.87,1.24l-.21.28-.08.12c-.79,1.11-1.58,2.23-2.36,3.38l-.68,1-.29.43q-1.32,2-2.63,4l-.32.48-.24.38-.11.17c-.09.13-.17.28-.26.41l-1.22,2-.46.73-.14.23h0c-.59,1-1.18,1.93-1.77,2.92h0l-.78,1.35h0l0,0c-.15.26-.29.53-.45.79-.85,1.49-1.7,3-2.54,4.54-.29.53-.59,1.06-.87,1.6-1.06,2-2.11,4-3.13,6l-.46.93c-.76,1.57-1.52,3.15-2.25,4.75l0,.08-.23.43c-.43,1-.85,1.94-1.27,2.91-.11.27-.23.53-.34.79l-.29.66c-.47,1.1-.92,2.22-1.38,3.35-.19.47-.39.92-.57,1.4l-.22.52v0c-.29.74-.6,1.47-.89,2.22l-.09.23c-.57,1.51-1.11,3.05-1.66,4.59l-.17.48a.06.06,0,0,0,0,0c-.06.15-.12.3-.17.46s-.19.51-.27.76q-1.1,3.19-2.09,6.46c-.44,1.47-.87,3-1.29,4.45-.12.41-.22.83-.34,1.24-.3,1.12-.61,2.24-.9,3.38l-.33,1.31c-.29,1.17-.58,2.35-.86,3.54-.09.36-.17.72-.25,1.08l-.27,1.21v0h0c-.22,1-.45,2-.66,3l-.09.39c0,.09,0,.18,0,.27H5c-.25,1.19-.48,2.38-.71,3.57,0,.17-.07.33-.1.5s-.05.29-.08.43l-.06.37c0,.15,0,.29-.08.43-.13.7-.26,1.4-.38,2.1,0,.27-.1.54-.14.81-.19,1.06-.36,2.12-.53,3.19l-.15,1c-.13.81-.24,1.61-.36,2.42l-.06.43c0,.09,0,.18,0,.27l-.15,1.1c-.14,1-.27,2.06-.4,3.1,0,.22-.06.45-.08.68h0c0,.15,0,.29-.05.44-.12,1-.24,2.08-.34,3.12l-.12,1.13-.3,3.17c0,.35-.06.72-.08,1.08-.09,1.08-.18,2.17-.26,3.27,0,.29,0,.58-.05.87q-.12,1.75-.21,3.51c0,.13,0,.25,0,.38q-.39,8.07-.24,16.29c0,.23,0,.46,0,.7,0,1.07.07,2.15.1,3.23,0,.43,0,.87.05,1.3,0,1,.09,2,.15,3,0,.52.05,1,.09,1.56,0,1,.12,1.91.19,2.87,0,.56.08,1.12.13,1.68.07.94.16,1.87.25,2.8.05.59.11,1.18.17,1.77.09.92.19,1.83.29,2.75.07.61.14,1.22.22,1.83.05.41.09.81.14,1.22h0c.07.5.14,1,.2,1.49s.17,1.24.26,1.86c.12.86.25,1.72.38,2.58,0,.16.05.33.08.5L3,318.4c.15.9.3,1.79.46,2.69l.24,1.35c.08.4.15.8.23,1.2.13.68.25,1.35.39,2s.25,1.22.37,1.83c.1.44.19.88.28,1.33l.12.59.18.82c.12.54.26,1.07.38,1.61.26,1.15.53,2.29.81,3.43.08.33.17.66.25,1,.17.65.33,1.31.5,2l.24.93c.17.63.35,1.26.53,1.89.13.45.25.91.38,1.36s.24.88.37,1.31c.24.8.48,1.59.73,2.39.19.62.37,1.24.56,1.86,0,.07.05.15.08.22s0,.06,0,.08c.25.78.51,1.56.77,2.34s.48,1.47.74,2.2c.13.4.27.79.41,1.19s.2.54.29.82c0,.09.07.19.11.28.26.74.53,1.49.8,2.23s.57,1.51.86,2.26l0,.08.33.86c.17.44.35.87.52,1.3.29.75.6,1.48.9,2.22s.53,1.28.8,1.91c.12.28.23.56.35.83l.75,1.71c.06.13.12.26.17.39h0a.54.54,0,0,1,0,.11c.27.59.53,1.19.81,1.78s.48,1.08.73,1.61c.08.18.17.35.25.52h0l.4.82c.07.15.14.31.22.46l.49,1c.34.7.68,1.39,1,2.09l.48.95c.15.28.3.56.44.85s.2.36.29.54c.35.67.7,1.35,1.05,2s.72,1.32,1.09,2a.25.25,0,0,0,0,.07l.19.35.45.81.62,1.11c.49.85,1,1.69,1.49,2.54.08.15.17.3.26.44h0l.39.67c.12.2.24.41.37.61v0c.68,1.13,1.4,2.26,2.11,3.39v0c.17.26.32.52.49.78l.67,1,.86,1.3c.42.63.83,1.26,1.25,1.88s.78,1.12,1.17,1.68l.19.28c.06.07.11.15.16.22s.09.13.13.19l.67,1,.59.83,1.31,1.78c.58.78,1.15,1.56,1.74,2.33l.15.2.18.25,1.07,1.35c.59.76,1.19,1.51,1.79,2.26l1.14,1.4,0,0,.16.19.57.69c.47.57,1,1.13,1.43,1.69s1,1.2,1.54,1.79l0,.05.32.36.81.93.55.6.21.23c.53.59,1.06,1.18,1.6,1.76l.36.38.93,1,.73.78.08.08c.23.25.46.5.7.74s.58.6.87.89l.76.77,1.07,1.08.3.3c.55.55,1.1,1.1,1.67,1.64l.46.46,1.07,1,.92.87c.5.47,1,.95,1.52,1.42l1.33,1.2.7.63,1,.87,1.07,1c.85.73,1.71,1.46,2.58,2.18.3.25.59.51.89.75l.27.23.51.43c1.31,1.07,2.64,2.14,4,3.19l.15.12.25.2.51.38c.38.3.78.59,1.17.88L80,445.75l.31.23.43.32,1.67,1.19h0L84,448.59l.37.27.52.37.62.43,2,1.33,1.36.92.73.49a2.9,2.9,0,0,0,.29.19l.49.32,0,0,2.14,1.38.93.59.93.6,1,.63c.39.24.76.48,1.15.71l1.17.7.43.26c.4.23.78.48,1.18.71l1.26.73,2.18,1.25.27.15.17.1.95.55.27.15,1.54.83c.68.38,1.37.75,2.06,1.12l.34.18,1.32.72,1.11.57,1.26.64,1.89,1c.39.19.76.39,1.15.59l2.11,1c.62.3,1.23.61,1.86.9l.7.33.88.42c1.15.54,2.33,1.06,3.51,1.58l1.47.67.73.32.58.25,1.41.6,1,.41.52.22,1.87.79.51.21c.76.32,1.55.62,2.32.93l2,.79,1.44.57.26.1q3,1.17,6.18,2.28c89.39,31.92,166.29,17.67,273.79-16.54,64.13-20.4,170-81.61,206-143.79.72-1.24,1.41-2.48,2.09-3.72.22-.41.43-.82.65-1.22.05-.11.11-.21.16-.31.18-.35.37-.69.55-1l.62-1.18.73-1.46c.38-.76.76-1.52,1.13-2.28.08-.17.17-.33.25-.5a2.14,2.14,0,0,1,.1-.22c.14-.29.27-.58.4-.88.34-.72.68-1.44,1-2.16.25-.55.49-1.11.74-1.66l.3-.69c.07-.15.14-.3.2-.45.14-.32.27-.65.41-1l.71-1.71c.28-.69.56-1.38.83-2.07.13-.33.27-.66.4-1,.06-.17.12-.33.19-.5l.08-.24c.26-.68.51-1.36.76-2s.43-1.18.64-1.77c.13-.36.25-.72.38-1.07l.39-1.16c.17-.53.35-1.06.52-1.59s.42-1.32.62-2,.33-1,.48-1.53l.13-.46c.18-.59.34-1.19.51-1.78s.36-1.26.53-1.9c.1-.37.19-.74.29-1.12a2.45,2.45,0,0,1,.08-.29l.36-1.41c.26-1.06.51-2.11.75-3.17.1-.47.22-.94.32-1.41,0-.12.06-.23.08-.35.09-.43.17-.86.26-1.28,0-.23.09-.46.14-.69.09-.49.2-1,.29-1.46l.33-1.79c.1-.58.21-1.16.31-1.74l0-.24c.13-.78.25-1.57.37-2.35l.21-1.41c0-.23.07-.46.1-.69.08-.61.15-1.21.23-1.82l.15-1.22c.09-.79.17-1.57.25-2.35a.41.41,0,0,0,0-.11l0-.19c0-.36.07-.71.1-1.06s.06-.56.08-.84c0-.57.09-1.13.14-1.7,0-.37,0-.74.07-1.11s.06-.74.08-1.1l.09-1.58,0-.86c0-.1,0-.2,0-.3,0-.88.07-1.75.09-2.62,0-.1,0-.2,0-.31v0c0-.81,0-1.61,0-2.41C646,240.07,646,239.58,646,239.09Z"/><path class="cls-2" d="M244.56,412.73c-4-9.26-15.14-19-30.42-26.59-19.43-9.71-21.37-15.54-29-26.24a27.83,27.83,0,0,1-4.25-11.21l-.19.33c-.19.35-.38.7-.58,1.05l-1.13,2.09-.56,1c-.52,1-1,2-1.58,3l-.42.81-1.22,2.34-.63,1.24-1.05,2.06-.61,1.22c-.51,1-1,2-1.52,3.05l-.54,1.09c-.35.72-.7,1.45-1.06,2.17-.23.48-.46,1-.7,1.45l-.9,1.89c-.23.48-.47,1-.7,1.45l-.06.14c-.43.9-.85,1.8-1.27,2.7-.27.56-.53,1.13-.8,1.7s-.52,1.13-.79,1.69-.53,1.16-.8,1.74l-.69,1.52-.81,1.78-.61,1.35c-.52,1.15-1,2.3-1.54,3.45l-.5,1.11c-.3.7-.61,1.39-.92,2.09l-.39.89q-1.07,2.44-2.09,4.84h0c-2.65,6.16-5.09,12.06-7.24,17.44-1.22,3.05-2.34,5.94-3.36,8.61,0,0,.28-6.48.79-14.72.75-11.9,2-27.46,3.52-32.42a107.84,107.84,0,0,1,4.51-11,89.69,89.69,0,0,1-10-3.13c-17.7-6.56-25.87-14.57-42.19-27C87,326.25,70.31,317.75,70.4,311.39q-1.32,1.92-2.57,3.84l.07-.14,0-.1.17-.33c0-.07.08-.16.13-.24l.25-.47.19-.36c.11-.19.22-.4.34-.62l.27-.48.43-.77.32-.57c.18-.32.38-.66.59-1l0-.08v0s-3,1.64-13.95-9.35S33.29,274.5,31.9,262.79A70.82,70.82,0,0,1,32,245c-1.24,1.78-2.45,3.54-3.58,5.28h0q-1.22,1.86-2.34,3.69a120.61,120.61,0,0,1,6.28-11.42h0l0-.06,0,0h0s-7,8.61-11.4-.86c-3.66-7.94-5.11-36-5.49-44.9q-1.39,3.51-2.68,7.16l-.06.14-.17.48a.06.06,0,0,0,0,0c-.89,2.51-1.74,5.07-2.53,7.68s-1.46,5-2.13,7.58l-.18.68c-.68,2.61-1.33,5.26-1.93,7.95v0h0c-.22,1-.45,2-.66,3l-.09.39c0,.09,0,.18,0,.28-.31,1.48-.61,3-.89,4.48l-.06.37c0,.15,0,.29-.08.43-.25,1.37-.49,2.74-.72,4.12-.06.31-.11.63-.16,1-.24,1.47-.46,2.95-.68,4.44l-.06.43c-.24,1.7-.47,3.42-.67,5.15h0C20.2,436.63,171.09,456.19,205.27,458c26.31,1.43,36-13.61,39.3-26.16a49.07,49.07,0,0,0,1.64-11.73A18.19,18.19,0,0,0,244.56,412.73Z"/><path class="cls-3" d="M154.4,367.89a89.69,89.69,0,0,1-10-3.13c-17.7-6.56-25.87-14.57-42.19-27C87,326.25,70.31,317.75,70.4,311.39q-1.32,1.92-2.57,3.84l.07-.14,0-.1.17-.33c0-.07.08-.16.13-.24l.25-.47.19-.36c.11-.19.22-.4.34-.62l.27-.48.43-.77.32-.57c.18-.32.38-.66.59-1l0-.08v0s-3,1.64-13.95-9.35S33.29,274.5,31.9,262.79A70.82,70.82,0,0,1,32,245c-1.24,1.78-2.45,3.54-3.58,5.28h0q-1.22,1.86-2.34,3.69a120.61,120.61,0,0,1,6.28-11.42h0l0-.06,0,0h0s-7,8.61-11.4-.86c-3.66-7.94-5.11-36-5.49-44.9q-1.39,3.51-2.68,7.16l-.06.14-.17.48a.06.06,0,0,0,0,0c-.89,2.51-1.74,5.07-2.53,7.68s-1.46,5-2.13,7.58l-.18.68c-.68,2.61-1.33,5.26-1.93,7.95v0h0C8.33,252.21,12.93,282.9,21,300.69,35.61,332.7,53.1,332,53.1,332a22.07,22.07,0,0,0,0,24c8,13.12,31,32.79,45,42.26s27.41,18.89,32.73,16.74c3.61-1.47,11.09-2.95,15.51-3.75.75-11.9,2-27.46,3.52-32.42A107.84,107.84,0,0,1,154.4,367.89Z"/><path class="cls-3" d="M156.18,399.94h0l0-.05A.08.08,0,0,0,156.18,399.94Z"/><path class="cls-3" d="M214.87,410.67c-11.32-14.46-40.75-22.48-47.48-35.59-.43.9-.85,1.8-1.27,2.7-.27.56-.53,1.13-.8,1.7s-.52,1.13-.79,1.69-.53,1.16-.8,1.74l-.69,1.52-.81,1.78-.61,1.35c-.52,1.15-1,2.3-1.54,3.45l-.5,1.11c-.3.7-.61,1.39-.92,2.09l-.39.89q-1.07,2.44-2.09,4.84h0c-2.65,6.16-5.09,12.06-7.24,17.44,0,4.37,1.07,9.83,6.18,13,9.47,5.83,45.9,16,53.19,9.47S228,427.43,214.87,410.67Z"/><path class="cls-2" d="M156.18,399.94h0l0-.05A.08.08,0,0,0,156.18,399.94Z"/><path class="cls-4" d="M640.63,198.51c-.12-.46-.25-.92-.37-1.37-.29-1-.59-2.11-.9-3.15h0c-18.17,9.7-22.82,41.18-31.6,86.27C597,335.62,517.63,403.1,490.09,415c-95,41.08-119.49,17.59-124.2,11-7.83-11,3.66-36.49-7.83-49.12S337.8,374.2,324.91,388c-12.67,13.55-49.23,34.13-80.34,43.9-3.33,12.55-13,27.59-39.3,26.16C171.09,456.19,20.2,436.63,1.71,252.52c0,.15,0,.29-.05.44-.12,1-.24,2.08-.34,3.12l-.12,1.13-.3,3.17c0,.35-.06.72-.08,1.08-.09,1.08-.18,2.17-.26,3.27,0,.29,0,.58-.05.87q-.12,1.75-.21,3.51c0,.13,0,.25,0,.38q-.39,8.07-.24,16.29c0,.23,0,.46,0,.7,0,1.07.07,2.15.1,3.23,0,.43,0,.87.05,1.3,0,1,.09,2,.15,3,0,.52.05,1,.09,1.56,0,1,.12,1.91.19,2.87,0,.56.08,1.12.13,1.68.07.94.16,1.87.25,2.8.05.59.11,1.18.17,1.77.09.92.19,1.83.29,2.75.07.61.14,1.22.22,1.83.05.41.1.82.16,1.24,0,.26.06.52.1.79s.05.45.08.68c.09.62.17,1.24.26,1.86s.22,1.52.34,2.28l.12.8L3,318.4c.15.9.3,1.79.46,2.69l.24,1.35c.09.49.19,1,.28,1.48s.22,1.16.34,1.74.25,1.22.37,1.83c.07.3.13.6.19.9s.18.86.28,1.3c0,.18.07.36.11.54.12.54.26,1.07.38,1.61.26,1.13.52,2.25.8,3.38.09.37.19.75.29,1.13.15.62.31,1.24.47,1.86l.24.93c.16.59.34,1.19.5,1.78s.27,1,.41,1.47.24.88.37,1.31c.24.8.48,1.59.73,2.39.19.62.37,1.24.56,1.86,0,.07.05.15.08.22s0,.06,0,.08c.25.78.51,1.56.77,2.34s.48,1.47.74,2.2l.24.68c.17.49.34,1,.52,1.47a.78.78,0,0,0,0,.14c.26.74.53,1.49.8,2.23s.57,1.51.86,2.26l0,.08.33.86c.17.44.35.87.52,1.3.29.75.6,1.48.9,2.22s.53,1.28.8,1.91c.18.43.37.86.56,1.29l.54,1.25c.06.13.12.26.17.39,48.93,76.9,143,105.65,173.31,101.8,38.32-4.86,89.94-13.6,166.47-12.53s162.49-52.57,189.69-68.66,75.79-92.73,79.68-127.68c2.6-23.43,10.22-45.5,15-57.51Q641.39,201.38,640.63,198.51Z"/><path class="cls-5" d="M646,239.09c0-.33,0-.65,0-1v-.74c0-.67,0-1.35,0-2l0-1.45a.76.76,0,0,1,0-.15c0-.79-.06-1.59-.1-2.38,0-.45,0-.9-.08-1.34,0-.12,0-.24,0-.36,0-.34,0-.69-.06-1,0-.8-.12-1.59-.19-2.38l-.06-.78c0-.06,0-.11,0-.17-.09-1.06-.2-2.12-.32-3.18,0-.07,0-.14,0-.21l0-.27-.21-1.82c-.06-.4-.11-.8-.16-1.19l-.09-.62c0-.38-.09-.77-.15-1.15s-.16-1-.23-1.51c0-.1,0-.19,0-.28s0-.06,0-.09l-.06-.39,0-.18c-.16-1-.32-1.95-.5-2.92,0-.21-.07-.41-.11-.62s-.11-.59-.17-.89l-.3-1.58c0-.16-.07-.32-.1-.48s-.08-.35-.11-.53c-.15-.7-.29-1.4-.44-2.1l-.15-.66a2.46,2.46,0,0,1-.07-.29v-.06h0q-.66-2.91-1.42-5.78c-.12-.46-.25-.92-.37-1.37-.29-1-.59-2.11-.9-3.15h0c-18.17,9.7-22.82,41.18-31.6,86.27C597,335.62,517.63,403.1,490.09,415c-95,41.08-119.49,17.59-124.2,11-7.83-11,3.66-36.49-7.83-49.12S337.8,374.2,324.91,388c-12.67,13.55-49.23,34.13-80.34,43.9-3.33,12.55-13,27.59-39.3,26.16C171.09,456.19,20.2,436.63,1.71,252.52c0,.15,0,.29-.05.44-.12,1-.24,2.08-.34,3.12l-.12,1.13-.3,3.17c0,.35-.06.72-.08,1.08-.09,1.08-.18,2.17-.26,3.27,0,.29,0,.58-.05.87q-.12,1.75-.21,3.51c0,.13,0,.25,0,.38q-.39,8.07-.24,16.29c0,.23,0,.46,0,.7,0,1.07.07,2.15.1,3.23,0,.43,0,.87.05,1.3,0,1,.09,2,.15,3,0,.52.05,1,.09,1.56,0,1,.12,1.91.19,2.87,0,.56.08,1.12.13,1.68.07.94.16,1.87.25,2.8.05.59.11,1.18.17,1.77.09.92.19,1.83.29,2.75.07.61.14,1.22.22,1.83.05.41.1.82.16,1.24,0,.26.06.52.1.79s.05.45.08.68c.09.62.17,1.24.26,1.86s.22,1.52.34,2.28l.12.8L3,318.4c.15.9.3,1.79.46,2.69l.24,1.35c.09.49.19,1,.28,1.48s.22,1.16.34,1.74.25,1.22.37,1.83c.07.3.13.6.19.9s.18.86.28,1.3c0,.18.07.36.11.54.12.54.26,1.07.38,1.61.26,1.13.52,2.25.8,3.38.09.37.19.75.29,1.13.15.62.31,1.24.47,1.86l.24.93c.16.59.34,1.19.5,1.78s.27,1,.41,1.47.24.88.37,1.31c.24.8.48,1.59.73,2.39.19.62.37,1.24.56,1.86,0,.07.05.15.08.22s0,.06,0,.08c.25.78.51,1.56.77,2.34s.48,1.47.74,2.2l.24.68c.17.49.34,1,.52,1.47a.78.78,0,0,0,0,.14c.26.74.53,1.49.8,2.23s.57,1.51.86,2.26l0,.08.33.86c.17.44.35.87.52,1.3.29.75.6,1.48.9,2.22s.53,1.28.8,1.91c.18.43.37.86.56,1.29l.54,1.25c.06.13.12.26.17.39h0a.54.54,0,0,1,0,.11q1.07,2.38,2.2,4.75c.07.15.14.31.22.46q2.31,4.79,4.9,9.5h0l.19.35a.25.25,0,0,1,0,.07q1.23,2.2,2.52,4.39c.08.15.17.3.26.44h0c.94,1.57,1.89,3.13,2.88,4.69v0c1.49,2.33,3,4.65,4.63,6.94.06.07.11.15.16.22q2.41,3.45,5,6.83l.12.17.31.39q1.53,2,3.13,3.92l.22.28.16.19c0,.06.09.11.13.16,1.13,1.36,2.28,2.72,3.45,4.06l.32.36q1.73,2,3.53,3.9l.93,1q1.55,1.64,3.14,3.26l1.07,1.08c1.15,1.14,2.31,2.28,3.5,3.4l.92.87q1.74,1.63,3.54,3.24h0l1,.87h0c1.19,1.06,2.41,2.1,3.64,3.13.3.25.59.51.89.75l.07.06c1.54,1.28,3.1,2.54,4.7,3.79l.15.12q2,1.56,4.07,3.09l.31.23c1.31,1,2.65,1.93,4,2.88l.52.37c1.3.9,2.62,1.8,3.94,2.68l.73.49c1.27.85,2.58,1.68,3.88,2.5l.93.6c1.24.77,2.51,1.54,3.78,2.3.4.23.78.48,1.18.71,1.13.67,2.28,1.32,3.44,2l.27.15.17.1.95.55.27.15c1.18.66,2.39,1.3,3.6,1.95l.34.18,1.32.72c1.11.58,2.25,1.15,3.38,1.72l.88.45c.39.19.76.39,1.15.59,1.09.54,2.22,1.06,3.33,1.59l1.34.65.88.42c1.15.54,2.33,1.06,3.51,1.58l1.47.67.73.32c1,.43,2,.84,3,1.26l.52.22,1.87.79.51.21c1.2.5,2.42,1,3.64,1.45l.77.3,1.35.54.26.1q3,1.17,6.18,2.28c89.39,31.92,166.29,17.67,273.79-16.54,64.13-20.4,170-81.61,206-143.79.72-1.24,1.41-2.48,2.09-3.72.22-.41.43-.82.65-1.22.05-.11.11-.21.16-.31.18-.35.37-.69.55-1l.62-1.18.73-1.46c.38-.76.76-1.52,1.13-2.28.08-.17.17-.33.25-.5a2.14,2.14,0,0,1,.1-.22c.14-.29.27-.58.4-.88.34-.72.68-1.44,1-2.16.25-.55.49-1.11.74-1.66l.3-.69c.07-.15.14-.3.2-.45.14-.32.27-.65.41-1l.71-1.71c.28-.69.56-1.38.83-2.07.13-.33.27-.66.4-1,.06-.17.12-.33.19-.5l.08-.24c.26-.68.51-1.36.76-2s.43-1.18.64-1.77c.13-.36.25-.72.38-1.07s.21-.63.31-1l.08-.21c.17-.53.35-1.06.52-1.59s.42-1.32.62-2,.33-1,.48-1.53l.09-.32s0-.1,0-.14c.18-.59.34-1.19.51-1.78s.36-1.26.53-1.9c.1-.37.19-.74.29-1.12a2.45,2.45,0,0,1,.08-.29l.36-1.41c.26-1.06.51-2.11.75-3.17.1-.47.22-.94.32-1.41,0-.12.06-.23.08-.35.09-.43.17-.86.26-1.28,0-.23.09-.46.14-.69.09-.49.2-1,.29-1.46l.33-1.79.09-.53c.07-.41.15-.81.22-1.21l0-.24c.13-.78.25-1.57.37-2.35l.21-1.41c0-.23.07-.46.1-.69.08-.57.14-1.13.21-1.7l0-.12.15-1.22c.09-.79.17-1.57.25-2.35a.41.41,0,0,0,0-.11l0-.19c0-.36.07-.71.1-1.06s.06-.56.08-.84c0-.57.09-1.13.14-1.7,0-.37,0-.74.07-1.11s.06-.74.08-1.1l.09-1.58,0-.86c0-.1,0-.2,0-.3,0-.88.07-1.75.09-2.62,0-.1,0-.2,0-.31v0c0-.81,0-1.61,0-2.41C646,240.07,646,239.58,646,239.09Z"/><path class="cls-5" d="M3.63,239.52c0,.27-.1.54-.14.81s-.14.81-.2,1.21c.23-1.38.47-2.75.72-4.12C3.88,238.12,3.75,238.82,3.63,239.52Z"/><path class="cls-5" d="M5,232.13H5c-.25,1.19-.48,2.38-.71,3.57,0,.17-.07.33-.1.5s-.05.29-.08.43c.28-1.5.58-3,.89-4.48Z"/><path class="cls-5" d="M3,243.52l-.15,1c-.13.81-.24,1.61-.36,2.42.22-1.49.44-3,.68-4.44C3.08,242.83,3,243.17,3,243.52Z"/><path class="cls-5" d="M2.35,247.63l-.15,1.1c-.14,1-.27,2.06-.4,3.1,0,.22-.06.45-.08.68.2-1.73.43-3.45.67-5.15C2.38,247.45,2.36,247.54,2.35,247.63Z"/><path class="cls-5" d="M210.13,319.33c-2.15-3.23-3-5.46-3.07-7l-8.95,10.18c-.49.56-1,1.15-1.49,1.77l-.45.56L195,326.26l-.45.59c-.51.68-1,1.37-1.54,2.09l-.11.16c-.49.68-1,1.38-1.46,2.09l-.5.73-1.16,1.75-.48.73c-.53.82-1.06,1.64-1.59,2.49l-.2.34c-.48.75-1,1.53-1.43,2.31-.17.3-.35.6-.53.89-.39.65-.78,1.3-1.16,2C187,353.64,193,369,208.31,375.45c25,10.47,41.49,17.42,51.56,12.32s14.76-15,16.53-24.46-20-18.22-33.11-24.78S217.06,329.78,210.13,319.33Z"/><path class="cls-5" d="M57,207.44c7.5-9.63,16.64-20.71,27.75-33.18h0c-4.39-5.68-11.2,4-21.85,2.49a6.08,6.08,0,0,1-3.87-2.1c-5.52-6.34-2.32-24.93-2.74-33.49-.19-3.75-1.26-5.85-2.54-7h0s0,0,0,0c-.36.41-.72.85-1.07,1.27l-.09.1c-.19.24-.39.47-.58.7l-1.1,1.32-.05.05-.68.85-.33.41c-.62.76-1.24,1.52-1.86,2.31l-.06.07Q46.42,143.06,45,145l0,.07,0,0h0c-.46.6-.91,1.23-1.37,1.84l-.09.13-.34.47L42,149l-.06.08c-.29.4-.58.83-.87,1.24l-.21.28-.08.12-.87,1.25c-.73,1-1.45,2.07-2.17,3.13l-.29.43q-1.32,2-2.63,4l-.32.48-.24.38-.11.17c-.09.13-.17.28-.26.41l-1.22,2-.46.73c-.05.08-.1.16-.14.24-.6,1-1.19,1.93-1.78,2.92h0c.61,13,2.36,30.54,6.7,40.74C40.94,216.79,50.25,211.78,57,207.44Z"/><path class="cls-5" d="M99.27,277.9c-.22.68-.43,1.37-.65,2.07,4.57,6.07,20.33,17.41,32.24,24.31,15.08,8.74,33,16,43,18.22.75-6.15,6.29-9.23,11.24-18.95.56-1.11,1.1-2.16,1.63-3.19-8.43-1.83-20.54-3.82-30.54-11.38-10.6-8-23.65-19-28.91-25.51-2.39-3-1-7.66,1.19-11.89C118.74,259.66,108.71,268.55,99.27,277.9Z"/><polygon class="cls-5" points="210.12 308.83 210.12 308.83 210.13 308.83 210.12 308.83"/><path class="cls-5" d="M82.51,186.54c-.65.67-1.32,1.34-2,2l-1,1-2.06,2.13-1,1L74.4,194.9l-1,1-2.12,2.23-1,1.06-2.15,2.29-1,1L65,204.94c-.3.34-.61.67-.92,1l-.11.12c-.06.13-.13.26-.19.4-7.51,17.51,7.56,51.17,15.65,57,5.27,3.8,12.71,6.77,16.41,9.27a71.66,71.66,0,0,0,6.66-6.58l1-1.15.21-.25v0c6.81-7.83,14.67-16.16,23.62-24.69h0s-18.79,5.16-29.14,4.39-7.87-18.9-5.54-37c1.65-12.79-.8-21.28-3.92-27.16l-.36.35-1.85,1.86c-.34.34-.68.67-1,1l-1.92,1.94Z"/><path class="cls-5" d="M184.91,319.75l-.86,1.36-1.27,2.05c-.29.48-.58,1-.88,1.45l-1.17,2-.86,1.46L178.75,330l-.84,1.46-1.07,1.92-.79,1.43-1.06,2-.74,1.36-1.07,2.05-.65,1.24-1.15,2.29-.5,1q-1.63,3.28-3.13,6.49l-.34.75c-.38.81-.75,1.62-1.11,2.42l-.45,1c-.32.72-.64,1.44-.95,2.16-.16.35-.31.69-.46,1l-.88,2.07c-.15.36-.3.71-.44,1.06-.29.69-.57,1.37-.85,2.06-.14.33-.27.65-.4,1q-.44,1.05-.84,2.1l-.36.9c-.29.75-.57,1.49-.85,2.23l-.27.7c-.33.87-.64,1.72-1,2.57l-.12.31c-1.43,3.94-2.72,7.74-3.86,11.36a2,2,0,0,1-.07.23c-.16.52-.32,1-.47,1.54,1.43-4.52,4.77-13.65,8-17.12,3.49-3.8,4.74-9.47,6.92-14s2.55-12.07,6.56-14.38,7.65-14.57,9.57-17.13,5.73-6.92,8.65-10.83,4.37-5.93,6.56-9.2,2.55-4.38,5-8,.49-4.9,3-5.47,3.7,2,8.59-2.54h0c2.89-2.71,1.74-4.87.32-6.2h0l-.05,0c-.25-.18-.47-.34-.69-.48l-.13-.1-.59-.4-.06,0-.4-.26,0,0-.15-.09c-1.06,1.14-2.09,2.29-3.11,3.44l-1,1.14q-1,1.16-2,2.31l-1.18,1.38-1.74,2.08-1.21,1.47c-.55.67-1.09,1.33-1.62,2-.41.5-.81,1-1.21,1.51l-1.55,2-1.16,1.51c-.51.66-1,1.32-1.51,2l-1.12,1.48-1.48,2c-.35.48-.71,1-1,1.45-.51.7-1,1.41-1.51,2.11l-.94,1.34c-.57.82-1.13,1.63-1.68,2.45l-.68,1c-.77,1.13-1.52,2.27-2.26,3.4l-.67,1C185.93,318.16,185.41,319,184.91,319.75Z"/><path class="cls-5" d="M153.77,387.62l0-.12.28-.88c-.1.29-.18.56-.26.82A1.67,1.67,0,0,0,153.77,387.62Z"/><path class="cls-5" d="M153.72,387.78h0s0,0,0,0c-.35,1.16-.68,2.29-1,3.41-.12.39-.22.77-.33,1.16-.21.73-.41,1.45-.6,2.15-.12.42-.23.84-.34,1.26-.18.66-.35,1.32-.52,2-.1.4-.21.81-.31,1.2-.17.67-.33,1.31-.48,2-.09.34-.18.69-.26,1-.22.93-.44,1.85-.64,2.73l-.18.82c-.14.63-.28,1.25-.41,1.85-.08.39-.16.76-.24,1.13s-.19.92-.28,1.36l-.24,1.18c-.07.38-.15.76-.22,1.13s-.15.81-.23,1.19l-.15.84c-.65,3.6-1.07,6.48-1.33,8.48,0,.18,0,.38-.07.54s0,.07,0,.11,0,.08,0,.12c0,.24,0,.44-.07.65s0,.23,0,.33a.17.17,0,0,0,0,.07v.06c0,.08,0,.13,0,.2s0,.4-.06.55h0v0h0c0,.21,0,.38,0,.49h0v.05a1.09,1.09,0,0,0,0,.12s1.58-5,2.48-8.94a13.51,13.51,0,0,0,.58-4.19c-.44-1.92,3.56-11.66,5.08-16S152.58,391.67,153.72,387.78Z"/><path class="cls-4" d="M610.57,138.37q-1.41-1.8-2.83-3.54h0c-.3-.36-.59-.74-.89-1.1.29.35.58.73.88,1.1a25.58,25.58,0,0,0-3.4-1.36c1.14.43,2.27.89,3.4,1.36C608.68,136,609.62,137.16,610.57,138.37Z"/><path class="cls-4" d="M14.46,199.42c-.57,1.51-1.11,3.05-1.66,4.59l.06-.14C13.38,202.37,13.91,200.88,14.46,199.42Z"/><path class="cls-4" d="M361.49,2.14c-.57-.06-1.14-.13-1.71-.18a3.16,3.16,0,0,0-.32,0l.78.08Z"/><path class="cls-4" d="M12.62,204.53c-.06.15-.12.3-.17.46l.18-.5A.06.06,0,0,0,12.62,204.53Z"/><path class="cls-4" d="M341.72,1.67l-.82.07h-.11l.22,0Z"/><path class="cls-4" d="M3.29,241.54c.23-1.38.47-2.75.72-4.12-.13.7-.26,1.4-.38,2.1,0,.27-.1.54-.14.81-.19,1.06-.36,2.12-.53,3.19l-.15,1c-.13.81-.24,1.61-.36,2.42.22-1.49.44-3,.68-4.44C3.18,242.17,3.23,241.85,3.29,241.54Z"/><path class="cls-4" d="M5.09,231.86c0,.09,0,.18,0,.27H5c-.25,1.19-.48,2.38-.71,3.57,0,.17-.07.33-.1.5s-.05.29-.08.43c.28-1.5.58-3,.89-4.48C5.06,232,5.08,232,5.09,231.86Z"/><path class="cls-4" d="M8,219.79c.16-.63.33-1.27.5-1.89-.3,1.12-.61,2.24-.9,3.38.07-.27.15-.54.22-.81Z"/><path class="cls-4" d="M646,237.37c0-.67,0-1.35,0-2,0,.92,0,1.84,0,2.76Z"/><path class="cls-4" d="M645.65,228.63c0-.8-.12-1.59-.19-2.38l-.06-.78c.12,1.39.23,2.8.31,4.2C645.69,229.33,645.68,229,645.65,228.63Z"/><path class="cls-4" d="M646,239.09c0,1.29,0,2.58,0,3.88,0-.81,0-1.61,0-2.41C646,240.07,646,239.58,646,239.09Z"/><path class="cls-4" d="M645.91,233.75c0-.79-.06-1.59-.1-2.38,0-.45,0-.9-.08-1.34.08,1.29.14,2.58.19,3.87A.76.76,0,0,1,645.91,233.75Z"/><path class="cls-4" d="M2.35,247.63l-.15,1.1c-.14,1-.27,2.06-.4,3.1,0,.22-.06.45-.08.68.2-1.73.43-3.45.67-5.15C2.38,247.45,2.36,247.54,2.35,247.63Z"/><path class="cls-4" d="M642.29,205.29l-.15-.66a2.46,2.46,0,0,1-.07-.29c.23,1,.45,2,.66,3C642.58,206.69,642.44,206,642.29,205.29Z"/><path class="cls-4" d="M643.24,210l-.3-1.58c0-.16-.07-.32-.1-.48.2,1,.39,2,.57,3C643.35,210.58,643.3,210.28,643.24,210Z"/><path class="cls-4" d="M635.45,295.59c.06-.17.12-.33.19-.5l.08-.24c-.22.58-.44,1.16-.67,1.74C635.18,296.26,635.32,295.93,635.45,295.59Z"/><path class="cls-4" d="M644.6,260.18c.08-.57.14-1.13.21-1.7-.09.8-.2,1.59-.31,2.39C644.53,260.64,644.57,260.41,644.6,260.18Z"/><path class="cls-4" d="M645.73,248.68l.09-1.58c-.05.89-.11,1.79-.17,2.68C645.68,249.41,645.71,249,645.73,248.68Z"/><path class="cls-4" d="M644.8,219.82c-.06-.4-.11-.8-.16-1.19.13,1,.26,2,.37,3Z"/><path class="cls-4" d="M639.51,283.72l.09-.32c-.18.62-.38,1.23-.57,1.85C639.19,284.74,639.36,284.23,639.51,283.72Z"/><path class="cls-4" d="M637.89,288.81c.17-.53.35-1.06.52-1.59-.19.6-.4,1.2-.6,1.8Z"/><path class="cls-4" d="M645.23,254.79a.41.41,0,0,0,0-.11c-.08.82-.17,1.64-.26,2.46C645.07,256.35,645.15,255.57,645.23,254.79Z"/><path class="cls-4" d="M644.4,216.86c-.07-.51-.16-1-.23-1.51,0-.1,0-.19,0-.28.16,1,.3,2,.43,2.94C644.5,217.63,644.46,217.24,644.4,216.86Z"/><path class="cls-4" d="M643.58,266.61l.09-.53c-.14.77-.27,1.55-.42,2.32Z"/><path class="cls-4" d="M642.56,271.83c.09-.43.17-.86.26-1.28,0-.23.09-.46.14-.69-.16.77-.31,1.55-.48,2.32C642.5,272.06,642.54,272,642.56,271.83Z"/><path class="cls-4" d="M645.44,252.59c0-.57.09-1.13.14-1.7-.07.85-.14,1.69-.22,2.54C645.39,253.15,645.42,252.87,645.44,252.59Z"/><path class="cls-4" d="M645.87,245.94c0-.88.07-1.75.09-2.62,0,1-.06,2-.11,2.92C645.86,246.14,645.86,246,645.87,245.94Z"/><path class="cls-4" d="M630.35,307.4a2.14,2.14,0,0,1,.1-.22c.14-.29.27-.58.4-.88-.25.54-.49,1.07-.75,1.6C630.18,307.73,630.27,307.57,630.35,307.4Z"/><path class="cls-4" d="M641.41,276.76c.26-1.06.51-2.11.75-3.17-.35,1.53-.72,3.05-1.11,4.58Z"/><path class="cls-4" d="M22.44,218.05c4.18,12.63,14.3,11.83,20.47,8.39h0l-.15.22c-.72,1-1.4,2-2.06,3l-.42.6c-.81,1.21-1.59,2.37-2.33,3.49s-1.43,2.19-2.09,3.22l-.08.13c-.63,1-1.22,1.91-1.77,2.8l-.46.75c-.39.62-.78,1.26-1.13,1.84l0,0,0,.06h0A120.61,120.61,0,0,0,26.08,254q1.13-1.83,2.34-3.69h0c1.13-1.74,2.34-3.5,3.58-5.28,3.46-5,7.31-10,11.42-15.17l.19-.23q1.22-1.51,2.46-3l.44-.54,2.38-2.85.6-.72c.77-.91,1.54-1.83,2.32-2.74l.71-.82c.76-.89,1.53-1.77,2.3-2.65.25-.3.51-.6.77-.89l2.28-2.59.83-.93,2.25-2.5.89-1c.7-.78,1.41-1.55,2.11-2.32-.06.13-.13.26-.19.4C57.31,219.92,46.15,246.18,53.1,254c9.47,10.68,5.56,20,19.34,26.25,7.93,3.59,17-2.06,23.38-7.52a71.66,71.66,0,0,0,6.66-6.58c-6.82,7.92-12.58,15.31-17.3,21.81h0c-.82,1.12-1.59,2.2-2.34,3.27-.24.33-.46.65-.69,1l-1.46,2.1c-.26.38-.5.75-.76,1.12l-1.21,1.8c-.26.37-.5.74-.74,1.11L76.9,300c-.23.35-.45.7-.67,1l-1,1.53-.58.93-1,1.51-.45.74q-.65,1-1.2,2l-.12.19-1,1.66c-.11.17-.19.32-.29.49l0,.08c-.21.35-.41.69-.59,1l-.32.57-.43.77L69,313c-.12.22-.23.43-.34.62l-.19.36-.25.47c0,.08-.09.17-.13.24L68,315l0,.1-.07.14q1.24-1.92,2.57-3.84c3.12-4.48,6.59-9,10.29-13.41h0c5.7-6.83,12-13.56,18.58-20.08-.22.68-.43,1.37-.65,2.07-3.7,11.9-7.8,27.07-6,31.16,3,7,16.92-3.1,29.4,0s10.41,8.94,23.59,15.74c8,4.14,19.24,3.24,26.78,1.9-1,2.79-2.56,5.76-4.85,11.22-2.67,6.32-8.72,18.29-13.11,27.9a107.84,107.84,0,0,0-4.51,11c-1.55,5-2.77,20.52-3.52,32.42-.51,8.24-.79,14.72-.79,14.72,1-2.67,2.14-5.56,3.36-8.61,2.15-5.38,4.59-11.28,7.24-17.44h0q1-2.4,2.09-4.84l.39-.89c.31-.7.62-1.39.92-2.09l.5-1.11c.51-1.15,1-2.3,1.54-3.45l.61-1.35.81-1.78.69-1.52c.27-.58.54-1.16.8-1.74s.53-1.13.79-1.69.53-1.14.8-1.7c.42-.9.84-1.8,1.27-2.7l.06-.14c.23-.49.47-1,.7-1.45l.9-1.89c.24-.48.47-1,.7-1.45.36-.72.71-1.45,1.06-2.17l.54-1.09c.5-1,1-2,1.52-3.05l.61-1.22,1.05-2.06.63-1.24,1.22-2.34.42-.81c.53-1,1.06-2,1.58-3l.56-1,1.13-2.09c.2-.35.39-.7.58-1.05l.19-.33a27.83,27.83,0,0,0,4.25,11.21c7.68,10.7,9.62,16.53,29,26.24,15.28,7.64,26.41,17.33,30.42,26.59h0c22.15,8.41,55.09-21.36,61.45-27.39l.34.57h0l.11.19c1.9,3.18,2.87,4.89,2.87,4.89-.17-2.06-.47-4.24-.88-6.5,12.26.82,27.66-30.1,36-34.31,8.64-4.37,11.76,15.3,30,25.26s68.5,1,72.05-5.59,10.3-13.11,23.41-10,33.53,5.59,38.63,0a2.75,2.75,0,0,0,.24-.38l.12,0,.6.18.31.07a4.12,4.12,0,0,0,.59.07l.27,0a4.26,4.26,0,0,0,.8-.09h0a3.31,3.31,0,0,0,.74-.28l.22-.14A4,4,0,0,0,513,359l.23-.22a4.58,4.58,0,0,0,.44-.53,1.79,1.79,0,0,0,.2-.26,6.84,6.84,0,0,0,.56-1c2.6-5.73.74-8.95-3.65-15.49-.87-3.5-1.78-7.62-2.38-11.75-.93-6.41-3.66-11-7.64-17.18-1.95-7-3.45-11.9-3.45-11.9a87.29,87.29,0,0,0,24.4,10.86c13.85,3.62,19.68-15.29,31.63-26.22,10.52-9.61,7.38-40.65,9.43-54.18q1.62,3.15,3.15,6.35a58.56,58.56,0,0,0-2-10.82h0c4.33-9.1,16.79-14.94,28.45-19.16s5.1-51.89,6.56-61.79c.5-3.39-.12-8.6-1.14-14l.43.09.2,0,1.12.25.15,0,1.09.27h0l1.06.28h0c.93.26,1.76.51,2.47.75-2.2-.85-4.43-1.61-6.68-2.32-.72-3.7-1.62-7.46-2.47-10.73-32.26-34.41-63.41-48.64-70.11-52,0,0-8.2-7.29-21.8-19.92s-48.16-30.58-83.14-22.81c0,0-3.88-7.77-11.66-11.66a104.53,104.53,0,0,0-13.38-4.8h0l-.29-.09-3.32-1-.18-.05c-1.26-.35-2.57-.71-3.92-1.06h-.05c-1.27-.33-2.58-.66-3.91-1L382.92,6c-1.36-.33-2.76-.65-4.18-1l-.28-.06c-1.29-.28-2.61-.54-3.94-.8L373.73,4c-1.42-.27-2.85-.52-4.3-.76L369,3.16c-1.29-.21-2.6-.4-3.91-.58H365c-4.53,1.52-8.84,3.45-11.74,5.84h0C341.78,3.29,324.91,6,324.91,6s.82.44,2.35,1.29c-15.84-2.06-36.06-3.36-48.5.88-19.26,6.55-53,23.6-58.34,30.9-5.66-1.63-10.68-3.61-12.11-5.88-1-1.64-.13-5,1.56-8.87a63.43,63.43,0,0,0-8.63,9.19l3.2,2.18q-2-.68-3.9-1.29s4,2.45,11,7.15c-7.06-.83-16.57-1.4-25.32.45C167,46.07,133.87,54,119.35,69.72s-17.14,33.76-17.14,40.08c-3.72-3.58-7.44-7.59-9.52-11.75-1.15-2.3-.5-6.35,1-10.91v0l-.35.54c-.74,1.1-1.47,2.22-2.17,3.36l-.21.33q-1.24,2-2.43,4.15l0,.06q-1.06,1.93-2.08,4l-.48,1c-.42.84-.81,1.71-1.21,2.58h0l-.78,1.69-.1.08h0l0,0h0l0,0h0l0,0h0l-.07.06-.09.06h0l-.08.06,0,0h0l-.13.09-.07.06-.15.12h0v0h0l0,0-.15.12-.14.11-.22.17-.08.06-.19.16-.11.08-.12.1-.11.09-.25.2-.4.32-.09.07L81,107l-.06,0-.09.08-.15.12,0,0-.31.25-.51.43-.21.17-.06,0-.2.17-.33.27-.61.53-.35.3-.06,0,0,0-.25.21-.15.13-.63.55-.73.64-.43.37-.11.1-.84.76-.08.07-.22.19,0,0-.12.1,0,0,0,0h0l-1,1-.15.14h0L73,114l-.08.06-.09.09-.2.19-.63.58-.14.12-1.62,1.54-.14.13c-.87.83-1.79,1.72-2.72,2.65l-.47.45-.37.38h0c-2,2-4,4.09-6.15,6.39l-.09.1q-1.68,1.8-3.42,3.77c-.55.61-1.11,1.27-1.66,1.9s-1,1.16-1.54,1.77c0,0,0,0,0,0s-.25.29-.37.43L52,136.16l0,.06-1.1,1.32-.05.05-1,1.31-1.33,1.64-.49.62-.06.07Q46.42,143.06,45,145l0,.07,0,0h0c-.46.6-.91,1.23-1.37,1.84l-.09.13-.34.47L42,149l-.06.08c-.29.4-.58.83-.87,1.24l-.21.28-.08.12c-.79,1.11-1.58,2.23-2.36,3.38l-.68,1-.29.43q-1.32,2-2.63,4l-.32.48-.24.38-.11.17c-.09.13-.17.28-.26.41l-1.22,2-.46.73c-.05.08-.1.16-.14.24h0c-.59,1-1.18,1.93-1.77,2.92h0l-.78,1.35C29.44,168.34,18.26,205.45,22.44,218.05Zm81.23,46.71v0c-.07.07-.13.15-.2.23ZM66.57,120.2q5,3.9,9.82,7.83s-3.26,5-6.11,15.69c-2.63,9.87-1.21,27.19-11.3,30.93-5.52-6.34-2.32-24.93-2.74-33.49-.19-3.75-1.26-5.85-2.54-7C58.27,128.79,62.64,124.13,66.57,120.2Z"/><path class="cls-6" d="M295.59,368.67c-6.39-9.75-28-40.46-37.54-53.25l-.25-.33c-9.87-13.11-16.51-3.77-33.2-4.74-2.84-.16-6.87-2-11.6-4.8l-2.88,3.28h0c-1,1.12-2,2.28-3.06,3.49.11,1.55.92,3.78,3.07,7,6.93,10.45,20.05,12.64,33.16,19.2s34.87,15.3,33.11,24.78-6.46,19.37-16.53,24.46-26.58-1.85-51.56-12.32C193,369,187,353.64,184.43,342.39v0l-.51.87c-.54.91-1.07,1.84-1.61,2.79l-.31.56c-.39.68-.77,1.37-1.15,2.06a27.83,27.83,0,0,0,4.25,11.21c7.68,10.7,9.62,16.53,29,26.24,15.28,7.64,26.41,17.33,30.42,26.59h0c37.68-7.75,56.76-35,51.86-42.74Z"/><path class="cls-6" d="M52.63,213.06h0c1.37-1.81,2.82-3.69,4.31-5.62-6.7,4.34-16,9.35-20,.07-4.34-10.2-6.09-27.76-6.7-40.74l-.78,1.35c-.06.22-11.24,37.33-7.06,49.93s14.3,11.83,20.47,8.39h0l.45-.65c.71-1,1.44-2,2.2-3.1l.61-.86q1.37-1.89,2.83-3.89l.18-.25q1.64-2.22,3.41-4.57Z"/><path class="cls-6" d="M136.06,180q-11.7-11-24.17-22l-1.34,1.25-.6.56-.94.87-1,1-.68.63L106,163.53c-.19.17-.37.34-.56.53l-1.31,1.24-.77.73c-.44.42-.91.86-1.37,1.31l-.83.79-1.44,1.38-.91.88-1.55,1.51-.89.86-1.68,1.63-.91.9L92.05,177l-1,.93-1.8,1.79-.63.63c3.12,5.88,5.57,14.37,3.92,27.16-2.33,18.07-4.81,36.19,5.54,37s29.14-4.39,29.14-4.39h0c1-.92,1.94-1.85,2.94-2.78A41.83,41.83,0,0,1,122,203.47C124.64,189.43,131.52,185.26,136.06,180Z"/><path class="cls-6" d="M79.41,263.47c-8.09-5.83-23.16-39.49-15.65-57C57.31,219.92,46.15,246.18,53.1,254c9.47,10.68,5.56,20,19.34,26.25,7.93,3.59,17-2.06,23.38-7.52C92.12,270.24,84.68,267.27,79.41,263.47Z"/><path class="cls-6" d="M545,175.41c-1.94-5.23-5.34-7.89-7.65-12.26s-5.47-9.23-8.86-12.14-3.89-4.86-4.38-6.81,2.43-4.85,6.8-8.73a5.89,5.89,0,0,1,.57-.41c-.65.13-1.29.27-2,.42l-1.76.38-2.84.66-1.73.41-3.2.78-1.5.38q-2.38.6-4.85,1.27c23.29,27.83,36.19,50.8,43.35,67.51-1.76-4.76-3.54-10-3.91-12.88C552.27,188,546.92,180.64,545,175.41Z"/><path class="cls-6" d="M560.81,216.64s0,0,0,0h0Z"/><path class="cls-6" d="M474.62,80.57a111.72,111.72,0,0,0-12.9,5.73,540.47,540.47,0,0,1,42.61,42.32,240,240,0,0,1,50.52-4.15s-10.85-3.58-20.62-4.08-12.08,2-16,2c-3.63,0-8.95.53-11.85-4.32a11,11,0,0,1-.54-1s0,0,0-.08a12.18,12.18,0,0,0-2.12-3.21c-3.09-3.4-7.52-4.7-10.12-7.39-3.31-3.4-6.42-5.34-13.08-7.77s-9.37-7.77-12.82-10.84S474.35,80.67,474.62,80.57Z"/><path class="cls-6" d="M399.15,37.08a534.32,534.32,0,0,1,51.21,39.27,190.44,190.44,0,0,1,19.33-5.41c-.14,0-16.55.87-22.25-1.22S440.05,63.56,434.7,59a149.34,149.34,0,0,0-13.09-9.91c-5.32-3.78-6.51-6.56-11.44-9.67S402.55,39.37,399.15,37.08Z"/><path class="cls-6" d="M392.13,32.52c8.13-2.48,19.63-5.71,28-6.83,0,0-20.41,1.43-25,2.66s-7.52-3.17-11.89-7.54a20.77,20.77,0,0,0-6.46-3.74c5-3.71,11.72-6.19,18.34-7.84h0l-.29-.09-3.32-1-.18-.05c-1.26-.35-2.57-.71-3.92-1.06h-.05c-1.27-.33-2.58-.66-3.91-1L382.92,6c-1.36-.33-2.76-.65-4.18-1l-.28-.06c-1.29-.28-2.61-.54-3.94-.8L373.73,4c-1.42-.27-2.85-.52-4.3-.76L369,3.16c-1.29-.21-2.6-.4-3.91-.58H365l-.15,0-.76-.1-.28,0-1.29-.16-1-.12L360.24,2l-.46,0a3.16,3.16,0,0,0-.32,0l-.89-.08-3.11-.24-1-.06-.63,0-1.43-.05-1.57-.05h-1.38c-.54,0-1.07,0-1.61,0l-1.32,0-.92,0-.68,0h-.06l-1.21.05q-1,.06-1.95.15l-.71.06h-.22c-.89.09-1.77.19-2.64.32-.25,0-.5.08-.74.12l-.52.08-.63.1-.79.15-1,.2c-.56.11-1.11.24-1.64.37l-.2.05-.31.07-.14,0-.2.06-.13,0c-.52.14-1,.29-1.55.45l-.91.3c-.27.09-.53.18-.78.28l-.48.18-.32.13c-.25.1-.51.19-.75.3-.75.32-1.49.65-2.2,1C324.91,6,345.24,2.88,392.13,32.52Z"/><path class="cls-6" d="M300,64.7c-10.17,3.26-18.55,6.16-23.53,7.93q3.69,2.41,7.4,4.92c1.21.81,2.42,1.66,3.63,2.49s2.47,1.69,3.71,2.56c1.62,1.14,3.25,2.31,4.88,3.47l2.37,1.7q2.88,2.08,5.74,4.22l1.43,1.06c2.13,1.59,4.25,3.21,6.36,4.83l.75.57q3.39,2.63,6.77,5.31l.28.22q3.75,3,7.46,6c1.73,1.41,3.45,2.85,5.17,4.29.46.4.94.78,1.41,1.18l.11.1c1.07.9,2.15,1.79,3.22,2.71,3.73-2.2,9.41-5.34,17.06-9,15-7.22,37.55-16.55,68.05-25.14,1.55-.46,3-.88,4.39-1.22,0,0-41.54-1.39-77.91,9.2-15.11,4.39-39.33-7.08-51.44-13.68a13.32,13.32,0,0,1-2-2.25C292,71.09,300,64.71,300,64.7Z"/><path class="cls-6" d="M500.71,312.59c-2.52-3.93-5.54-8.5-8.92-14.61-8.75-15.77-23.32-42.52-29.3-53.5s-25.36-29.1-27.95-37-15.63-14.72-17.81-17.71,4.87-11,4.88-11q-8,3.57-16.55,7.52c41.27,47.76,79.16,102.46,89.89,127a161.36,161.36,0,0,0,15.78,28.23c-.87-3.5-1.78-7.62-2.38-11.75C507.42,323.36,504.69,318.79,500.71,312.59Z"/><path class="cls-6" d="M416.35,165.89a45,45,0,0,1-8.19-.32c8.66-3.09,16.89-9.79,12-11.63-7.33-2.75-52.36-28-64.26-29.55a7.86,7.86,0,0,1,1.85-5.07h0q-5.93,3.12-11.7,6.67c8.79,7.82,17.34,15.87,25.53,24.06,7.9,7.9,15.91,16.43,23.86,25.3q10.47-4.86,20.94-9.46ZM357.57,128h0l0,0Z"/><path class="cls-6" d="M220.63,42h0l.21.09q2.43,1,4.89,2.18l1.49.69c1.34.62,2.69,1.25,4,1.9l1.29.62c1.73.84,3.48,1.71,5.23,2.6l1,.51q2.17,1.11,4.37,2.28l1.58.84,4.41,2.4,1,.55q2.66,1.48,5.34,3l1.45.84q2.06,1.2,4.13,2.44l1.59.95q2.72,1.64,5.45,3.33,10.76-5.32,20.53-9.53c-7.7.48-19.85.95-24.19-.5-5.57-1.85-15.69-9.48-22.36-12.63,26.68-24.13,75.64-26.56,105.38-25.48C337.76,13.2,330.7,9.2,327.26,7.3,325.73,6.45,324.91,6,324.91,6s-14.57-9.47-43.72-4.64c0,0-55.38-1.37-80.65,33q1.94.62,3.9,1.29Q212.33,38.41,220.63,42Z"/><path class="cls-6" d="M192.16,202.93c2.77,3,5.54,6.15,8.32,9.29l.08.09c1.78,2,3.56,4.05,5.33,6.11l.51.58q2.47,2.88,4.95,5.8l.93,1.11q2.28,2.7,4.56,5.46c.46.55.92,1.12,1.38,1.68,1.37,1.68,2.75,3.36,4.12,5.06.63.78,1.25,1.58,1.88,2.36l3.63,4.57,2.54,3.28c1,1.27,2,2.54,3,3.83,1.79,2.34,3.57,4.71,5.34,7.08h0l.19.25s5.38-3.29,14.08-8.5c-1.67-.22-15.37-2.14-20.84-6.51-5.83-4.67-10.69-12.34-13.42-17.69s-16.91-13.11-17.19-19.28a60.58,60.58,0,0,1,1-12.59C198.93,197.53,195.46,200.19,192.16,202.93Z"/><path class="cls-6" d="M76.24,111.09l-.43.37-.11.1h0Z"/><path class="cls-6" d="M81.81,106.39l-.25.2.25-.2Z"/><path class="cls-6" d="M83.37,105.16Z"/><path class="cls-6" d="M83.45,105.1l-.07.05h0l.06,0Z"/><path class="cls-6" d="M80.68,107.31h0l-.31.25Z"/><path class="cls-6" d="M80.71,107.28l0,0,.1-.08Z"/><path class="cls-6" d="M119.86,132.22l.06-.07h0a108.15,108.15,0,0,1,13.36-13.8c-1.94.64-3.89,1.23-5.54,1.63a9.73,9.73,0,0,1-3.78.41c-3-.8-8.44,2.44-13.1-2.42-1.63-1.7-3.87-3.7-6.27-5.92C151.86,33.91,232,55.83,232.35,55.94c-8.44-6-15.49-10.84-20.79-14.38-7.05-4.7-11-7.15-11-7.15S130,33.63,93.68,87.14v0l-.35.54c-.74,1.1-1.47,2.22-2.17,3.36l-.21.33q-1.24,2-2.43,4.15l0,.06q-1.06,1.93-2.08,4l-.48,1c-.42.84-.82,1.7-1.22,2.57h0C93.12,109.61,105.34,119.5,119.86,132.22Z"/><path class="cls-6" d="M182.78,323.16l1.27-2.05.86-1.36c.5-.8,1-1.59,1.53-2.39l.67-1c.74-1.13,1.49-2.27,2.26-3.4l.68-1c.55-.82,1.11-1.63,1.68-2.45l.94-1.34c.5-.7,1-1.41,1.51-2.11.34-.49.7-1,1-1.45l1.48-2,1.12-1.48c.5-.67,1-1.33,1.51-2l1.16-1.51,1.55-2c.4-.5.8-1,1.21-1.51.53-.67,1.07-1.33,1.62-2l1.21-1.47,1.74-2.08,1.18-1.38q1-1.15,2-2.31l1-1.14c1-1.15,2.05-2.3,3.11-3.44,0,0-4.38-7.27-13.12,0a50.24,50.24,0,0,0-9.63,10.37C171,273.44,147.1,250.71,140.89,247a32.36,32.36,0,0,1-3.68-2.56q-4.31,3.45-8.75,7.13c-2.2,4.23-3.58,8.91-1.19,11.89C132.53,270,145.58,281,156.18,289c10,7.56,22.11,9.55,30.54,11.38-.53,1-1.07,2.08-1.63,3.19-5,9.72-10.49,12.8-11.24,18.95-10-2.19-27.91-9.48-43-18.22C119,297.38,103.19,286,98.62,280c-3.7,11.9-7.8,27.07-6,31.16,3,7,16.92-3.1,29.4,0s10.41,8.94,23.59,15.74c8,4.14,19.24,3.24,26.78,1.9-1,2.79-2.56,5.76-4.85,11.22-2.67,6.32-8.72,18.29-13.11,27.9a107.84,107.84,0,0,0-4.51,11c-1.55,5-2.77,20.52-3.52,32.42-.51,8.24-.79,14.72-.79,14.72a1.09,1.09,0,0,1,0-.12v-.05h0q0-.09,0-.24v-.06c0-.06,0-.13,0-.2v0h0c0-.15,0-.35.06-.55s0-.12,0-.2v-.06a.17.17,0,0,1,0-.07c0-.1,0-.23,0-.33s0-.41.07-.65c0,0,0-.08,0-.12s0-.08,0-.11,0-.34.07-.53h0c.25-2,.68-4.88,1.33-8.49l.15-.84c.08-.38.15-.79.23-1.19s.15-.75.22-1.13l.24-1.18c.09-.44.18-.9.28-1.36s.16-.74.24-1.13c.13-.6.27-1.22.41-1.85l.18-.82c.2-.88.42-1.8.64-2.73.08-.34.17-.69.26-1,.15-.65.31-1.29.48-2,.1-.39.21-.8.31-1.2.17-.64.34-1.3.52-2,.11-.42.22-.84.34-1.26.19-.7.39-1.42.6-2.15.11-.39.21-.77.33-1.16.32-1.12.65-2.25,1-3.41,0,0,0,0,0,0h0c0-.09.05-.18.08-.28l0,.12a1.67,1.67,0,0,1,0-.18c.24-.78.48-1.57.73-2.36a2,2,0,0,0,.07-.23c1.14-3.62,2.42-7.42,3.86-11.36l.12-.31c.31-.85.62-1.7,1-2.57l.27-.7c.28-.74.56-1.48.85-2.23l.36-.9q.41-1,.84-2.1c.13-.33.26-.65.4-1,.28-.69.56-1.37.85-2.06.14-.35.29-.7.44-1.06l.88-2.07c.15-.35.3-.69.46-1,.31-.72.63-1.44.95-2.16l.45-1c.36-.8.73-1.61,1.11-2.42l.34-.75q1.5-3.21,3.13-6.49l.5-1,1.15-2.29.65-1.24,1.07-2.05.74-1.36,1.06-2,.79-1.43,1.07-1.92.84-1.46,1.12-1.93.86-1.46,1.17-2C182.2,324.13,182.49,323.64,182.78,323.16Z"/><path class="cls-6" d="M237.46,115.06c20.41-8.75,32.94-14.58,30.13-24.78s-43,0-43,0S154.44,117.94,149.22,136c-2.31,8,2.62,17.4,9.89,25.55-10.06-9.42-17.06-9.29-19.78-15.86-2-4.71.39-11.76,1.88-15.37-5.08,3.87-9.21,7.28-12.27,9.92q6.51,5.86,13.47,12.36l.61.57c2,1.87,4,3.76,6,5.71l1.43,1.37c1.79,1.71,3.57,3.43,5.39,5.19l2.32,2.29c1.54,1.51,3.08,3,4.64,4.56l3.21,3.23c1.29,1.3,2.58,2.58,3.88,3.9l4.15,4.27c1,1.05,2,2.07,3,3.13q3.62,3.77,7.26,7.66a240.68,240.68,0,0,1,20.87-15.71l0,0s-5,.81-10.64,1.5c13.93-4.42,34.93-22.92,34.1-25.39-1-2.91-18.74-3.83-23.46-13.57S217.06,123.8,237.46,115.06ZM183,181.23c-6.27.07-11.43-6.68-18.51-14.25,8,7.37,17.27,12.9,22.93,14C185.8,181.14,184.29,181.22,183,181.23Z"/><path class="cls-6" d="M323,141.32s-97.22,37.89-114.7,58.77c0,0,31.1,49,35,48.54,3.26-.39,23.41-7.45,33.65-11.86l4-2.33c-4.44-.91-30.58-6.69-29.3-17.36,1.4-11.66-3.46-23.11,23.75-35.85s71.9-4,69-13.71S328.07,139.31,323,141.32Z"/><path class="cls-6" d="M296.45,323c-5.55-10.68-16.23-28.13-6.52-42.72S328.8,249.75,318.11,247,268,270.52,268,270.52s-10.11,3.93-6.23,9.74c1.21,1.8,5.39,9.89,10.85,20.74-6.92-11.82-12.47-19.93-13.94-20.74-4.56-2.52,0-10.46,0-10.46a17,17,0,0,1-2.32-.55c-2.34,1.58-4.68,3.16-7,4.77l1,1.46h0l.89,1.31q2.79,4.05,5.52,8.16c.32.48.65,1,1,1.45q1.3,2,2.6,4l1.35,2.11c.86,1.33,1.7,2.66,2.55,4,.41.65.82,1.31,1.22,2q4.41,7.08,8.6,14.31c.27.48.55,1,.83,1.43q1.26,2.21,2.49,4.42c.35.61.69,1.22,1,1.84q1.25,2.24,2.46,4.48c.25.47.5.95.76,1.42q4.06,7.61,7.83,15.35c.23.47.46.93.68,1.4q1.14,2.37,2.25,4.75l.76,1.65q1.13,2.43,2.21,4.88c.11.23.2.46.31.69A362.8,362.8,0,0,1,309.37,391c-.17-2.06-.47-4.24-.88-6.5-1.54-8.57-4.72-18.48-8.77-28.72,4.11,8.38,7.56,15.42,9.65,19.67,0,0-5.83-23.7,0-29.82s20.4-13.9,20.4-13.9S302,333.67,296.45,323Z"/><path class="cls-6" d="M32.21,163.6l-.14.23h0C32.11,163.76,32.16,163.68,32.21,163.6Z"/><path class="cls-6" d="M59,174.65a6.08,6.08,0,0,0,3.87,2.1c10.65,1.46,17.46-8.17,21.85-2.49h0q9.09-10.22,20-21.66c-10.31-2.29-19.23-4.18-20.74-6.44-1.23-1.85.17-5.57,2.66-9.78q-5.05-4.17-10.21-8.35-4.86-3.93-9.82-7.83c-3.93,3.93-8.3,8.59-12.87,13.93,1.28,1.18,2.35,3.28,2.54,7C56.66,149.72,53.46,168.31,59,174.65Z"/><path class="cls-4" d="M29,169c-.85,1.49-1.7,3-2.54,4.54-.29.53-.59,1.06-.87,1.6-1.06,2-2.11,4-3.13,6l-.46.93c-.76,1.57-1.52,3.15-2.25,4.75l0,.08,9.74-18.73C29.33,168.42,29.19,168.69,29,169Z"/><path class="cls-4" d="M350.53,1.4h.32l-.69,0h.37Z"/><path class="cls-4" d="M364.86,2.55l-.76-.1-1.57-.19,1.29.16Z"/><path class="cls-4" d="M15.66,196.43l-.22.52v0C15.51,196.79,15.58,196.61,15.66,196.43Z"/><path class="cls-4" d="M332.68,3.14l.2-.05c-.17,0-.35.07-.51.12l-.14,0-.33.1.13,0Z"/><path class="cls-7" d="M565.87,109.56c-14.09-8.11-29-36.46-40.32-35.4,0,0-53.93,4.14-51.5,11.59s7.29,5.5,17,12.79c9.25,6.94,8.67,9.48,12.65,15.16a12.18,12.18,0,0,1,2.12,3.21s0,0,0,.08a11,11,0,0,0,.54,1c2.9,4.85,8.22,4.32,11.85,4.32,3.89,0,6.2-2.44,16-2s20.61,4.07,20.62,4.08A178.69,178.69,0,0,1,579,126.74h0S580,117.68,565.87,109.56ZM543,105.34c-2.43,9.23-24.78-3.89-38.38-7.77s-19.32-2.69-19.92-11.82,39.84-8.28,39.84-8.28C531.46,80.07,545.47,96.11,543,105.34Z"/><path class="cls-7" d="M484.25,42c-15.54-3.71-19.43-10.54-41.77-13.43,0,0-13.08-1.81-20.87,4.68s-8.77,10.38-2.45,12.33,13.11,3,21.37,13.42a68.26,68.26,0,0,1,6.91,10.71h0c5.7,2.09,22.11,1.23,22.25,1.22,12.19-2.73,27.73-5,43.67-3.91C513.36,67,499.8,45.72,484.25,42Zm-21.86,2.6c-6.31-2.91-19.43.49-26.84,0s-11.05-.48-8.86-7.53,17.73-3.82,17.73-3.82c6.77.73,26.44,4,29.55,8.75S468.71,47.53,462.39,44.61Z"/><path class="cls-7" d="M586.28,135.47s-51,0-52,8.73,9.23,12.68,15.55,23.34,6.32,37.07,16,36.74,17-12.85,20.41-23.34S594.33,141.14,586.28,135.47ZM579,167.14c-5.29,7.4-13.65-.1-21.91-6.38s-12.36.05-13.81-11.7,35.72-7.9,35.72-7.9C592.7,144,584.33,159.75,579,167.14Z"/><path class="cls-8" d="M440.78,328.33c18.94,27.13,59,24.26,62.27,27.06a60.82,60.82,0,0,1-6-7h0s-23.52-2.6-31.54-18.62-8-31.49-10.93-38.33-16.26-37.31-16.65-38.2c-15.27-20.49-31.42-39.84-47.85-57.92,3.89,4.53,39.12,46,41.18,66C433.49,282.42,425.7,306.74,440.78,328.33Z"/><path class="cls-9" d="M465.55,329.77c8,16,31.54,18.62,31.54,18.62h0c-1.32-1.77-2.14-3-2.14-3-16.1-32.7-35.67-63.51-57-92.11.39.89,13.78,31.46,16.65,38.2S457.54,313.75,465.55,329.77Z"/><path class="cls-10" d="M185.09,72.32C168.88,77,146.37,93,137.2,106.07c-3.36,4.8-6.64,9.66-9.46,13.91,1.65-.4,3.6-1,5.54-1.63,36-31.4,91.61-42.79,116.2-46.44C238,70.7,201.91,67.45,185.09,72.32Z"/><path class="cls-11" d="M604.33,133.46c1.14.43,2.27.89,3.4,1.36h0A25.58,25.58,0,0,0,604.33,133.46Z"/><path class="cls-11" d="M66.57,120.2q5,3.9,9.82,7.83,5.16,4.17,10.21,8.35,9.47,7.86,18.54,15.73l-.46.49Q93.76,164,84.7,174.26C73.59,186.73,64.45,197.81,57,207.44c-1.49,1.93-2.94,3.81-4.31,5.62,2.19-2.87,15.2-14.7,17.37-18.16s4.95-5.39,8.23-9.4,7.29-7.29,10.93-11.3,5.1-5.46,7.29-8.74,4.73-5.1,9-7.44,6.48,0,6.48,0q12.49,11,24.17,22,15.25,14.33,29.17,28.42a373.58,373.58,0,0,0-35,28.85c-1,.93-2,1.86-2.94,2.78-9,8.53-16.81,16.86-23.62,24.69-.07.07-.13.15-.2.23l-1,1.15c-6.82,7.92-12.58,15.31-17.3,21.81.85-.7,1.66-1.32,2.4-1.85h0c.37-.26.72-.5,1.06-.71a39,39,0,0,0,9-9h0c3.13-5,6.56-10.59,9-11.49,4.57-1.67,5.83-3.65,9.11-7.65s4.73-5.83,8.19-8.65,4.56-5.93,9.3-9.94,12-9.83,15.38-12.38,5-4,8.66-6.62,8.75-8.32,10.94-8a5.33,5.33,0,0,1,2.35,1.53h0c2.6-1.14,3.26,4,3.26,4a1085.48,1085.48,0,0,1,84,97.81l.25.33c16.51,21.78,29,40.1,37.54,53.25l.86,1.32c3.05,4.74,5.56,8.75,7.53,12a35.42,35.42,0,0,1-3-6.48c-.14-.34-.27-.66-.39-1-2.2-4.66-11.48-15.69-13.73-19-2.44-3.6-4.26-16.93-10.43-22.28s-11.73-13.6-15.53-18-9.32-13.12-12.23-18-9.23-12.64-12.63-17a101,101,0,0,1-9.24-14.12c-3.88-6.8-6.8-7.77-11.17-13.11s-12.14-14.09-15.55-18-12.14-12.63-15-15.36-7.87-7-9.81-12.18-4.86-2.09-9.72-7.2-4.37-7-7.28-10.93-7.78-7.28-12.7-11.17-3.82-6.31-8.38-10.1-9.53-5.44-15.36-10.79-7.29-3.4-8.6-5.83.34-1.94,0-5-6.46-2.77-9.86-5.33S98,135,93.18,132.84s-2.8-8.53-13.12-12.45c-4.17-1.57-7.52-2.74-10-3.57,1-1,2-1.9,2.93-2.76l-.09.09-.2.19-.63.58-.14.12-1.62,1.54-.14.13c-.87.83-1.79,1.72-2.72,2.65l-.47.45-.37.38h0Z"/><path class="cls-11" d="M350.17,200.31c-4.86,4.13-8.26,3.95-13.12,7.2s-14.34,12.84-20.94,12.18-10.35,4.19-16.08,7.59-12.23,6.21-14.57,8.69-13.2,9.73-17.48,12.66c-2.52,1.73-4.4,5.82-6.41,9a56.63,56.63,0,0,0,10.14-2.08c10.34-3,5.64-5.28,13.75-11.06s25.14-16.72,29.74-19.63,9.22-5.89,14.57-9.14,19.06-8.48,23.49-12.06c2.67-2.15,10.33-6.44,17.13-9.67h0C361.83,195.22,355,196.18,350.17,200.31Z"/><path class="cls-11" d="M306.5,386.11l-.11-.19h0Z"/><path class="cls-11" d="M89.3,179.72l-1,1,.36-.35Z"/><path class="cls-11" d="M82.82,105.59l.07-.06-.17.14-.08.06-.22.17.22-.17Z"/><path class="cls-11" d="M76.16,111.17l.55-.49.59-.52.49-.42.58-.49.41-.36.55-.46.36-.3c.18-.15.36-.31.54-.45l.2-.17c.65-.54,1.22-1,1.7-1.38l.15-.11.06-.06-.19.16-.34.27-.25.2-.4.32-.09.07L81,107l-.23.2-.41.33-.51.43-.41.34,0,0,0,0-.33.27-.61.53-.35.3-.06,0,0,0-.25.21-.15.13-.63.55-.73.64-.54.48Z"/><path class="cls-11" d="M232.35,55.94c6.29,4.48,13.34,9.63,21,15.42l-3.89.55c-24.59,3.65-80.24,15-116.2,46.44a108.15,108.15,0,0,0-13.36,13.8l.21.31c3.57,3.11,8.81,7.81,8.81,7.81,3.06-2.64,7.19-6.05,12.27-9.92,22.7-17.28,64.71-43.88,118.7-54,17.21,13.19,37.08,29.3,58.13,48h0c.25.22.5.43.75.66-.59.16-1.17.34-1.76.51a33,33,0,0,1-10.64,8c-6.62,2.82-8.81,2.82-12.82,4.64s-5.1,5.31-11,7.34-11.77-.05-14.59,3.23-5.88,1.19-9.32,5.1-6.26,3.64-10.27,4.74a48.27,48.27,0,0,0-9.51,3.27c-4,1.83-8,2.4-11.62,6.3S222.67,172,218.7,176s-10.84,2.45-13.43,7.17-6.51,5.64-9.32,7.84h0a9.1,9.1,0,0,1,2.66-1.23c4.37-1.05,16.52-10.62,20.1-12.07s8.56-5.35,13.42-9.62,6.8-2,9.23-1,7.29-4.47,11.78-7.88a52.06,52.06,0,0,1,12-7.28,238.3,238.3,0,0,1,32.07-10.82c10.68-2.55,9.71-6.19,18-8.32s13.91,1.44,13.91,1.44c16.29,14.88,33.1,31.23,49.79,48.91,0,0,0,5.36-3.58,8.57a27.89,27.89,0,0,1,5.7-1.89c5.1-.73,7.87,4.09,7.87,4.09l1.23,1.36c16.43,18.08,32.58,37.43,47.85,57.92,21.31,28.6,40.88,59.41,57,92.11,0,0,.82,1.27,2.14,3a60.82,60.82,0,0,0,6,7,21.27,21.27,0,0,0,4.67,3.65,8.67,8.67,0,0,0,1.81-3.58c1-4.44-4.63-8.19-6.26-15.47s-7.11-5.83-10.76-14.58-2.55-6.08-6.09-12.29-4.11-7.38-11.39-18.31-5.11-10.93-13-23.47-12.52-18.07-24.09-29.2-19.77-25.31-28.51-38.49-8.74-12.32-19.68-22.42-7.28-8.12-10.86-14.09S362.8,152,354.06,146.49,340.94,131.57,332,124.31,316.16,107.53,313.89,103s-13-7.16-18.57-9.33S280.46,83.48,276.4,81.76,263,70.36,254.82,68.37,220.63,42,220.63,42q-8.3-3.59-16.19-6.31-2-.68-3.9-1.29s4,2.45,11,7.15C216.86,45.1,223.91,49.92,232.35,55.94Z"/><path class="cls-11" d="M83.83,104.81l.06,0a.11.11,0,0,0,0,0l-.1.08h0Z"/><path class="cls-11" d="M347.45,19.13c6.86,4.19,15,9.36,24.16,15.43-11.53.74-40,4.56-83,23.18q-9.78,4.23-20.53,9.53a9.44,9.44,0,0,0,8.41,5.36c5-1.77,13.36-4.67,23.53-7.93,26.29-8.42,64.64-19.2,87.9-19h0c14.28,10,30.08,21.81,46.37,35.18-4.13,1.06-8.12,2.14-12,3.24-30.5,8.59-53.08,17.92-68.05,25.14-7.65,3.68-13.33,6.82-17.06,9-1.07-.92-2.15-1.81-3.22-2.71,2.45,2.24,7.37,7.48,12,10.4q5.76-3.55,11.7-6.67c34.76-18.32,72.61-25.54,89-28a620.28,620.28,0,0,1,48,45.76c-24,6.5-51.05,16.79-78.4,28.78q-10.46,4.59-20.94,9.46c.32,9.76,9.65,11,9.65,11q8.54-3.94,16.55-7.52C469.88,157.28,503,146.16,503,146.16c22.95,25.61,43.9,54.11,59.68,85q1.62,3.15,3.15,6.35c0-2.17-11.42-28.93-14.33-33.22a28.5,28.5,0,0,1-4.37-9.38c-.73-2.5-1.22-3.09-4.13-5.52a12.73,12.73,0,0,1-4.86-8c-.73-3.4-2.91-5.1-5.59-7.29a11,11,0,0,1-4.13-8.26c-.24-3.4-2.18-4.37-5.83-6.31s-7.52-8.5-9.27-10.69-4.57-2.67-4.57-4.62c0,0-2.13-4.07,0-6.8s5.95-2,7.77-3.26,1.28-1.47,3.65-2,3.09-1.2,4.73-1.15,3.65.67,6,0,2.55-.85,4.92-1.4,3.83,0,6.93,0,2.73,1.15,6.55-.24,7.29-1,10.39-1.58,3.52-1.28,6.13-.91a77.22,77.22,0,0,0,8.44,1.09c3.65.18,6.26,1.47,9.48.91s9.08,2,11.47,2.13a31.82,31.82,0,0,1,6.6,1.74c.93.26,1.76.51,2.47.75-2.2-.85-4.43-1.61-6.68-2.32a138,138,0,0,0-18.63-4.4,178.69,178.69,0,0,0-24.17-2.27,240,240,0,0,0-50.52,4.15,34.29,34.29,0,0,1-5.5,2.22c-3.16,1-4.62-3.88-6.07-4.13s-3.16-2.91-3.4-3.88-2.19-2-4.38-2.44-2.91-3.39-3.15-3.48-1.22-3.56-4.38-4.53-3.64-3.16-4.85-6.07-1.46-1.7-3.89-2.43-1-4.13-2.43-6.07-7.29-3.89-9.23-5.1,4.67-6.41,4.67-6.41a111.72,111.72,0,0,1,12.9-5.73c23.24-8.76,50.45-12.15,50.45-12.15A106.45,106.45,0,0,0,513.36,67c-15.94-1-31.48,1.18-43.67,3.91a190.44,190.44,0,0,0-19.33,5.41l-1,.63-.1.07h0a64.13,64.13,0,0,1-6.79,3.8c-2.92,1.25-8-9.52-9-9.52s-3.4-3.4-4.37-5.44S424.26,65,421.61,64s-1.24-3.88-2.94-3.88-5.34-2.67-8.5-6.32S404.1,50,401.91,49.1s-4.61-5.22-4.86-7.09,2.1-4.93,2.1-4.93a208.59,208.59,0,0,1,21-11.39c-8.37,1.12-19.87,4.35-28,6.83a32.81,32.81,0,0,1-6,2.86c-3.89,1.46-7-2.43-10.69-2.67S374,31,370.82,28.82s-3.4-1.94-5.81-3.15-1.24-4.38-5.37-4.86-4.61-1.7-6.8-4.62S348,14,344.48,13s-19.57-7-19.57-7,.82.44,2.35,1.29C330.7,9.2,337.76,13.2,347.45,19.13Z"/><path class="cls-11" d="M74.81,112.37c.25-.23.5-.46.75-.67l.12-.11c-.27.23-.54.48-.82.73l-.08.07-.22.19,0,0-.12.1Z"/><path class="cls-11" d="M83.27,105.24l0,0-.08,0-.07.06-.13.1,0,0h0l.09-.07Z"/><path class="cls-11" d="M238.88,259.49a24.6,24.6,0,0,0,6,1.1C241.52,260,238.88,259.49,238.88,259.49Z"/><path class="cls-11" d="M189.69,196.71c-1,1.1-2.64.16-3.84-.82.17.24.32.49.5.72,2.91,3.13,5.81,6.32,5.81,6.32l-4-4.47S188.77,197.74,189.69,196.71Z"/><path class="cls-11" d="M83.43,105.12l0,0,0,0,0,0Z"/><path class="cls-11" d="M70.68,310.06l0,.08.33-.57C70.86,309.74,70.78,309.89,70.68,310.06Z"/><path class="cls-11" d="M26.08,254q1.13-1.83,2.34-3.69c1.3-2.52,2.67-5.18,3.94-7.73A120.61,120.61,0,0,0,26.08,254Z"/><path class="cls-11" d="M35.87,237c.66-1,1.36-2.1,2.09-3.22C37.23,234.86,36.53,235.93,35.87,237Z"/><path class="cls-11" d="M32.43,242.48l0,0,1.16-1.88C33.17,241.26,32.78,241.9,32.43,242.48Z"/><path class="cls-12" d="M513.63,139.36q2.46-.68,4.85-1.27l1.5-.38,3.2-.78,1.73-.41,2.84-.66,1.76-.38c.66-.15,1.3-.29,2-.42l.71-.16,1.75-.36,2.55-.5,1.68-.32,2.48-.46,1.6-.28,2.44-.41,1.5-.24,2.41-.36,1.39-.2,2.46-.33,1.19-.16,2.62-.31.91-.1c1.07-.11,2.11-.22,3.14-.31l.25,0q3.39-.3,6.51-.48l.62,0,2.39-.11.85,0,2-.06h1l1.78,0h2.63l1,0,1.51,0,1,0c.48,0,1,0,1.42.06l.93,0,1.31.09.92.06,1.21.11.9.08,1.09.11.9.1.87.11c1.42.18,2.75.38,4,.59l.26,0,1.23.23.25.05.75.15.43.09.2,0,1.12.25.15,0,1.09.27h0l1.06.28h0a31.82,31.82,0,0,0-6.6-1.74c-2.39-.16-8.26-2.69-11.47-2.13s-5.83-.73-9.48-.91a77.22,77.22,0,0,1-8.44-1.09c-2.61-.37-3,.36-6.13.91s-6.56.18-10.39,1.58-3.46.24-6.55.24-4.56-.55-6.93,0-2.55.73-4.92,1.4-4.37.06-6,0-2.37.6-4.73,1.15-1.83.73-3.65,2-5.64.53-7.77,3.26,0,6.8,0,6.8C508.79,142.26,513.63,139.36,513.63,139.36Z"/><path class="cls-13" d="M306,385.34l.34.57h0A116.38,116.38,0,0,1,301,375.47a35.42,35.42,0,0,0,3,6.48h0Z"/><path class="cls-13" d="M250.33,275.48l.9,1.31-.89-1.31Z"/><path class="cls-13" d="M233.35,252.15q2.68,3.53,5.34,7.09h0C236.92,256.86,235.14,254.49,233.35,252.15Z"/><path class="cls-13" d="M75.68,111.59l-.12.11c.2-.19.4-.36.6-.53l-.46.4Z"/><path class="cls-13" d="M74.81,112.37l-.4.35,0,0Z"/><path class="cls-13" d="M82.13,106.13c-.48.38-1,.84-1.7,1.38C81.08,107,81.65,106.51,82.13,106.13Z"/><path class="cls-13" d="M83.69,104.92h0l0,0Z"/><path class="cls-13" d="M80.06,120.39c10.32,3.92,8.26,10.32,13.12,12.45s6.8,5.77,10.2,8.32,9.52,2.28,9.86,5.33-1.32,2.57,0,5,2.77.49,8.6,5.83,10.8,7,15.36,10.79,3.45,6.21,8.38,10.1,9.78,7.29,12.7,11.17,2.42,5.83,7.28,10.93,7.78,2,9.72,7.2,7,9.44,9.81,12.18,11.56,11.47,15,15.36,11.18,12.63,15.55,18,7.29,6.31,11.17,13.11A101,101,0,0,0,236,280.26c3.4,4.34,9.71,12.12,12.63,17s8.42,13.6,12.23,18,9.35,12.63,15.53,18,8,18.68,10.43,22.28c2.25,3.35,11.53,14.38,13.73,19a7.44,7.44,0,0,1-.53-2c-.15-3.32-5.24-10.21-7.67-17.08s-4.86-9.64-9.79-16.93S275.36,324,268,317.15s-7.69-14.09-13.16-18.46-3.75-5.34-8.61-14.57-3.89-7.29-5.35-12.78-1.94-3.25-4.85-6.65-5.35-1.95-8.75-4.86-1.46-4.86-3.57-7.78-10-8.74-15.38-13.6-3.4-6.8-6.31-11.66-12.15-9.23-16.91-13.6-1.07-5.83-2.52-9.72-4.38-4.86-8.75-5-7.29-8.59-9.23-13.45-4.86-3.88-9.72-9.23-2.91-1.94-9.29-8.64-4.79-4.47-10.51-7.88-8.37-5.83-11.11-13.54-1.63-8.8-4.61-9.29-1.88.49-8.49,0-7-4.37-10.59-8.4-7.48-3.66-9.89-3.72-3-5.85-7.49-9.24c-2.36-1.79-6.44-1.68-9.76-1.18L73,114l-.08.06c-.93.86-1.91,1.78-2.93,2.76C72.54,117.65,75.89,118.82,80.06,120.39Z"/><path class="cls-13" d="M184.6,194.75l1.75,1.86c-.18-.23-.33-.48-.5-.72A16.78,16.78,0,0,1,184.6,194.75Z"/><path class="cls-13" d="M119.92,132.15l-.06.07.27.24-.21-.31Z"/><path class="cls-13" d="M82.64,105.73l-.22.17-.08.06-.06.06Z"/><path class="cls-13" d="M82.89,105.53l-.07.06.26-.21-.09.07v0h0Z"/><path class="cls-13" d="M83.36,105.17h0l0,0,0,0,.18-.14,0,0Z"/><path class="cls-11" d="M185.09,328.81c2-5.83,5.25-6.8,9.14-11.66s3.4-3.4,7.28-8.32,2.43-6.25,3.76-10.62,3.53-2.43,9.85-8.26a11.31,11.31,0,0,0,1.78-2.06c-4.89,4.58-6,2-8.59,2.54s-.62,1.83-3,5.47-2.79,4.74-5,8-3.65,5.3-6.56,9.2S187,321.4,185.09,324s-5.55,14.82-9.57,17.13-4.37,9.82-6.56,14.38-3.43,10.24-6.92,14c-3.19,3.47-6.53,12.6-8,17.12l-.28.88c0,.1-.05.19-.08.28-1.14,3.89,1.52,4.68,0,9.05s-5.52,14.11-5.08,16a13.51,13.51,0,0,1-.58,4.19c2.42-5.51,5.75-11.55,6.33-12.92,1-2.31,3.4-18,4.86-23.33,1.4-5.14,6.38-11.86,9.35-19.07-.46-2.66.17-3,1.59-3.94a128.88,128.88,0,0,1,8-16.34C181.59,335.62,183.05,334.64,185.09,328.81Z"/><path class="cls-11" d="M145.64,425.32h0c0,.07,0,.14,0,.2S145.63,425.38,145.64,425.32Z"/><path class="cls-11" d="M154.62,384.85c1.14-3.62,2.43-7.42,3.86-11.36C157,377.43,155.76,381.23,154.62,384.85Z"/><path class="cls-11" d="M154.55,385.08c-.25.79-.49,1.58-.73,2.36.08-.26.16-.53.26-.82C154.23,386.1,154.39,385.6,154.55,385.08Z"/><path class="cls-11" d="M146,422.65c.26-2,.68-4.88,1.33-8.48-.65,3.61-1.08,6.49-1.33,8.49Z"/><path class="cls-10" d="M303.05,300.69c12.39,10.15,37.16,10,46.64,10.44s38.87,1.89,51.5-5.39.05-44.11-10-57.1c-13.11-17-34.6-20.06-41.53-15.77,0,0-10,3.64-19.92,18.94S290.66,290.54,303.05,300.69Z"/><path class="cls-10" d="M305.23,181.23S278.82,178.28,268,191s-19.42,25.1-7.11,28,39.51-4.26,48.5-10.88S319.65,181.13,305.23,181.23Z"/><path class="cls-10" d="M224.6,132.84c-4.47,18.41,8.49,12.61,16.51,13.32S279,133.37,281.92,128.1s-4.24-20.17-13.94-18.39C268,109.71,229.08,114.44,224.6,132.84Z"/><path class="cls-14" d="M82.89,115.07c4.46,3.39,5.08,9.17,7.49,9.24s6.3-.31,9.89,3.72,4,7.91,10.59,8.4,5.52-.49,8.49,0,1.88,1.58,4.61,9.29,5.4,10.14,11.11,13.54,4.13,1.19,10.51,7.88,4.44,3.3,9.29,8.64,7.78,4.38,9.72,9.23,4.86,13.29,9.23,13.45,7.29,1.13,8.75,5-2.24,5.35,2.52,9.72,14,8.74,16.91,13.6,1,6.8,6.31,11.66,13.26,10.69,15.38,13.6.17,4.86,3.57,7.78,5.83,1.45,8.75,4.86,3.4,1.15,4.85,6.65.49,3.55,5.35,12.78,3.13,10.2,8.61,14.57,5.78,11.66,13.16,18.46,9.66,14.09,14.59,21.38,7.36,10.06,9.79,16.93,7.52,13.76,7.67,17.08a7.44,7.44,0,0,0,.53,2c.12.31.25.63.39,1a116.38,116.38,0,0,0,5.44,10.45l.11.19c1.9,3.18,2.87,4.89,2.87,4.89a362.8,362.8,0,0,0-13.72-35.92c-.11-.23-.2-.46-.31-.69q-1.08-2.44-2.21-4.88l-.76-1.65q-1.11-2.39-2.25-4.75c-.22-.47-.45-.93-.68-1.4q-3.76-7.74-7.83-15.35c-.26-.47-.51-.95-.76-1.42q-1.22-2.25-2.46-4.48c-.34-.62-.68-1.23-1-1.84q-1.23-2.22-2.49-4.42c-.28-.48-.56-.95-.83-1.43q-4.19-7.23-8.6-14.31c-.4-.66-.81-1.32-1.22-2-.85-1.34-1.69-2.67-2.55-4l-1.35-2.11q-1.29-2-2.6-4c-.32-.49-.65-1-1-1.45q-2.73-4.11-5.52-8.16l-.9-1.31-1-1.46-10.45-14.53-.19-.25q-2.66-3.57-5.34-7.09c-1-1.29-2-2.56-3-3.83L227.85,245l-3.63-4.57c-.63-.78-1.25-1.58-1.88-2.36-1.37-1.7-2.75-3.38-4.12-5.06-.46-.56-.92-1.13-1.38-1.68q-2.28-2.76-4.56-5.46l-.93-1.11q-2.47-2.93-4.95-5.8l-.51-.58c-1.77-2.06-3.55-4.09-5.33-6.11l-.08-.09c-2.78-3.14-5.55-6.25-8.32-9.29,0,0-2.9-3.19-5.81-6.32l-1.75-1.86a16.78,16.78,0,0,0,1.25,1.14c1.2,1,2.85,1.92,3.84.82h0a43.92,43.92,0,0,1,6.25-5.68h0c2.81-2.2,6.72-3.12,9.32-7.84S214.73,180,218.7,176s4.92-4,8.56-7.91,7.65-4.47,11.62-6.3a48.27,48.27,0,0,1,9.51-3.27c4-1.1,6.83-.83,10.27-4.74s6.49-1.82,9.32-5.1,8.69-1.2,14.59-3.23,7-5.52,11-7.34,6.2-1.82,12.82-4.64a33,33,0,0,0,10.64-8c.65-.71,1-1.17,1-1.17h0c-52.18,16.62-90.82,39.43-112.79,54.49a240.68,240.68,0,0,0-20.87,15.71q-3.65-3.88-7.26-7.66c-1-1.06-2-2.08-3-3.13l-4.15-4.27c-1.3-1.32-2.59-2.6-3.88-3.9l-3.21-3.23c-1.56-1.55-3.1-3-4.64-4.56l-2.32-2.29c-1.82-1.76-3.6-3.48-5.39-5.19l-1.43-1.37c-2-1.95-4.05-3.84-6-5.71l-.61-.57q-6.94-6.48-13.47-12.36s-5.24-4.7-8.81-7.81l-.27-.24C105.34,119.5,93.12,109.61,84.73,103h0l-.78,1.69a.11.11,0,0,1,0,0l-.06,0,0,0,0,0h0l0,0h0l0,0-.07.06-.09.06h0l0,0,0,0-.18.14-.19.14-.26.21-.18.14-.36.29-.15.11c-.48.38-1,.84-1.7,1.38l-.2.17c-.18.14-.36.3-.54.45l-.36.3-.55.46-.41.36-.58.49-.49.42-.59.52-.55.49c-.2.17-.4.34-.6.53s-.5.44-.75.67l-.43.38,0,0h0l-1,1-.15.14h0C76.45,113.39,80.53,113.28,82.89,115.07Z"/><path class="cls-13" d="M145.62,425.57q0,.15,0,.24c0-.11,0-.28,0-.49,0,.06,0,.13,0,.19Z"/><path class="cls-13" d="M216.91,287.89h0a11.31,11.31,0,0,1-1.78,2.06c-6.32,5.83-8.52,3.89-9.85,8.26s.13,5.7-3.76,10.62-3.4,3.47-7.28,8.32-7.1,5.83-9.14,11.66-3.5,6.81-6.9,12.64a128.88,128.88,0,0,0-8,16.34,13.36,13.36,0,0,0,2.78-2.33c3.28-3.57,2.92-5.27,7.41-9.83s5.71-10.74,7.82-15.12,2.62-4.37,7-11.18,5.46-4.12,8-7.78,4-4,6.56-8,3.28-4,5.1-7.29,2.55-2.18,5.76-4.37.12-7.23,0-7.41a38.06,38.06,0,0,0-3.41-2.79C218.65,283,219.8,285.18,216.91,287.89Z"/><path class="cls-13" d="M167.39,375.08l.06-.14c-.44.94-.89,1.89-1.33,2.84C166.54,376.88,167,376,167.39,375.08Z"/><path class="cls-13" d="M159.49,387.62c-.05-4.6,2.76-1.46,5.14-6.67s0-5.62,1.78-8.53a14.85,14.85,0,0,0,2.19-10.65v0c-3,7.21-7.95,13.93-9.35,19.07-1.46,5.34-3.89,21-4.86,23.33-.58,1.37-3.91,7.41-6.33,12.92-.9,3.9-2.48,8.94-2.48,8.94,1-2.67,2.14-5.56,3.36-8.61,2.16-5.4,4.6-11.31,7.26-17.49C156.84,398.38,159.54,392.18,159.49,387.62Z"/><path class="cls-13" d="M146,422.66c0,.19,0,.36-.07.53,0-.16.05-.36.07-.54Z"/><path class="cls-14" d="M182.3,346.07c.54-.95,1.07-1.88,1.61-2.79l.51-.87v0c.38-.66.77-1.31,1.16-2,.18-.29.36-.59.53-.89.48-.78.95-1.56,1.43-2.31l.2-.34c.53-.85,1.06-1.67,1.59-2.49l.48-.73,1.16-1.75.5-.73c.49-.71,1-1.41,1.46-2.09l.11-.16c.52-.72,1-1.41,1.54-2.09l.45-.59,1.13-1.43.45-.56c.5-.62,1-1.21,1.49-1.77l8.95-10.18c1.07-1.21,2.08-2.37,3.06-3.49h0l2.88-3.28c5-5.75,8.72-10,10.86-12.69a3.38,3.38,0,0,0,.53-.91s0,0,0,0a3,3,0,0,0,.19-.92s0-.05,0-.08a3.68,3.68,0,0,0-.1-.93.5.5,0,0,0,0-.12,5,5,0,0,0-.32-.92l-.06-.14a8.09,8.09,0,0,0-.5-.9l-.1-.18q-.28-.44-.63-.87l-.15-.19c-.23-.28-.47-.56-.72-.83l-.19-.2c-.25-.27-.51-.54-.78-.8l-.21-.19-.19-.18v0c.11.18,3.14,5.26,0,7.41s-3.94,1.09-5.76,4.37-2.55,3.28-5.1,7.29-4,4.33-6.56,8-3.64,1-8,7.78-4.89,6.81-7,11.18-3.32,10.55-7.82,15.12-4.13,6.26-7.41,9.83a13.36,13.36,0,0,1-2.78,2.33c-1.42.94-2.05,1.28-1.59,3.94v0a14.85,14.85,0,0,1-2.19,10.65c-1.82,2.91.6,3.33-1.78,8.53s-5.19,2.07-5.14,6.67-2.65,10.76-3.29,12.27a.08.08,0,0,0,0,.05h0q1-2.4,2.09-4.84l.39-.89c.31-.7.62-1.39.92-2.09l.5-1.11c.51-1.15,1-2.3,1.54-3.45l.61-1.35.81-1.78.69-1.52c.27-.58.54-1.16.8-1.74s.53-1.13.79-1.69.53-1.14.8-1.7c.44-.95.89-1.9,1.33-2.84.23-.49.47-1,.7-1.45l.9-1.89c.24-.48.47-1,.7-1.45.36-.72.71-1.45,1.06-2.17l.54-1.09c.5-1,1-2,1.52-3.05l.61-1.22,1.05-2.06.63-1.24,1.22-2.34.42-.81c.53-1,1.06-2,1.58-3l.56-1,1.13-2.09c.2-.35.39-.7.58-1.05l.19-.33c.38-.69.76-1.38,1.15-2.06Z"/><path class="cls-13" d="M80.75,297.89c.89-1.08,4.39-5.11,4.9-7.94a6,6,0,0,1,1.93-3.83c-.74.53-1.55,1.15-2.4,1.85h0c-.82,1.12-1.59,2.2-2.34,3.27-.24.33-.46.65-.69,1l-1.46,2.1c-.26.38-.5.75-.76,1.12l-1.21,1.8c-.26.37-.5.74-.74,1.11L76.9,300c-.23.35-.45.7-.67,1l-1,1.53-.58.93-1,1.51-.45.74q-.65,1-1.2,2l-.12.19-1,1.66-.33.57c-.21.35-.41.69-.59,1l-.32.57-.43.77L69,313c-.12.22-.23.43-.34.62l-.19.36-.25.47c0,.08-.09.17-.13.24L68,315l0,.1-.07.14q1.24-1.92,2.57-3.84c3.12-4.48,6.59-9,10.29-13.41Z"/><path class="cls-13" d="M104.35,269.3c1.94-2.67,2.43-2.19,5.1-3.64s6.56-6.08,9.9-8.5,2-3.16,4.61-5.59,1.76-1.7,4.44-2.94,4.37-3.38,6.56-6.53,2.67-2.92,4.61-5.59,2.92-1.7,6-3.16,2.25-1.46,4.92-3.64,2.67-1.7,5.68-2.92,1.85-1.21,2.58-2.67,1.46-1.46,3.64-2.43,1.46-1.7,2.68-3.4a13.93,13.93,0,0,1,5.51-5,5.33,5.33,0,0,0-2.35-1.53c-2.19-.36-7.29,5.35-10.94,8s-5.29,4.07-8.66,6.62-10.65,8.38-15.38,12.38-5.84,7.13-9.3,9.94-4.91,4.64-8.19,8.65-4.54,6-9.11,7.65c-2.47.9-5.9,6.51-9,11.49C98.27,275.4,102.41,272,104.35,269.3Z"/><path class="cls-14" d="M85.65,290c-.51,2.83-4,6.86-4.9,7.94l-.06.09h0c5.7-6.83,12-13.56,18.58-20.08,9.44-9.35,19.47-18.24,29.19-26.32q4.44-3.68,8.75-7.13,4.88-3.88,9.49-7.42l.1-.07c.95-.74,1.9-1.46,2.84-2.17l.18-.14c3.83-2.9,7.46-5.59,10.82-8l.07-.06,1.87-1.35.89-.64L165,223.5l1.11-.79,1.29-.92,1.22-.85,1.09-.78,1.34-.93.81-.56,2-1.39s-.66-5.16-3.26-4h0a13.93,13.93,0,0,0-5.51,5c-1.22,1.7-.49,2.43-2.68,3.4s-2.91,1-3.64,2.43.42,1.46-2.58,2.67-3,.73-5.68,2.92-1.83,2.18-4.92,3.64-4.06.49-6,3.16-2.43,2.43-4.61,5.59-3.89,5.3-6.56,6.53-1.83.51-4.44,2.94-1.26,3.16-4.61,5.59-7.23,7-9.9,8.5-3.16,1-5.1,3.64-6.08,6.1-6.72,7.12h0a39,39,0,0,1-9,9c-.34.21-.69.45-1.06.71h0A6,6,0,0,0,85.65,290Z"/><path class="cls-13" d="M43.61,229.64q1.22-1.51,2.46-3l.44-.54,2.38-2.85.6-.72c.77-.91,1.54-1.83,2.32-2.74l.71-.82c.76-.89,1.53-1.77,2.3-2.65.25-.3.51-.6.77-.89l2.28-2.59.83-.93,2.25-2.5.89-1c.7-.78,1.41-1.55,2.11-2.32l.11-.12c.31-.34.62-.67.92-1l2.19-2.37,1-1,2.15-2.29,1-1.06L73.4,196l1-1,2.09-2.17,1-1,2.06-2.13,1-1c.66-.69,1.33-1.36,2-2l1-1,1.92-1.94c.33-.34.67-.67,1-1l1.85-1.86,1-1,1.8-1.79,1-.93,1.74-1.71.91-.9,1.68-1.63.89-.86,1.55-1.51.91-.88,1.44-1.38.83-.79c.46-.45.93-.89,1.37-1.31l.77-.73,1.31-1.24c.19-.19.37-.36.56-.53l1.31-1.25.68-.63,1-1,.94-.87.6-.56,1.34-1.25s-2.26-2.33-6.48,0-6.77,4.16-9,7.44-3.65,4.74-7.29,8.74-7.65,7.29-10.93,11.3-6,5.93-8.23,9.4-15.18,15.29-17.37,18.16h0l0,.05q-1.77,2.35-3.41,4.57l-.18.25q-1.47,2-2.83,3.89l-.61.86c-.76,1.06-1.49,2.1-2.2,3.1l-.45.65-.15.22c-.72,1-1.4,2-2.06,3l-.42.6c-.81,1.21-1.59,2.37-2.33,3.49s-1.43,2.19-2.09,3.22l-.08.13c-.63,1-1.22,1.91-1.77,2.8l-.46.75-1.16,1.88,0,.06h0c-1.27,2.55-2.64,5.21-3.94,7.73h0c1.13-1.74,2.34-3.5,3.58-5.28,3.46-5,7.31-10,11.42-15.17Z"/><path class="cls-13" d="M388.89,194s-2.77-4.82-7.87-4.09a27.89,27.89,0,0,0-5.7,1.89,9.15,9.15,0,0,1-4.93,2.22c-6.8,3.23-14.46,7.52-17.13,9.67-4.43,3.58-18.15,8.81-23.49,12.06s-10,6.22-14.57,9.14-21.63,13.84-29.74,19.63-3.41,8.06-13.75,11.06a56.63,56.63,0,0,1-10.14,2.08c-1.41,2.22-2.87,4-4.67,4.18-2.46.26-7.82-.5-12.06-1.21a24.6,24.6,0,0,1-6-1.1L249.33,274c2.33-1.61,4.67-3.19,7-4.77C301.82,238.58,348.52,213.38,388.89,194Z"/><path class="cls-14" d="M256.9,261.8c1.8-.18,3.26-2,4.67-4.18,2-3.17,3.89-7.26,6.41-9,4.28-2.93,15.15-10.18,17.48-12.66s8.84-5.29,14.57-8.69,9.48-8.26,16.08-7.59,16.09-8.93,20.94-12.18,8.26-3.07,13.12-7.2,11.66-5.09,20.2-6.32h0a9.15,9.15,0,0,0,4.93-2.22c3.58-3.21,3.58-8.57,3.58-8.57-19.35,6.34-64.22,31.53-98,51.25l-4,2.33c-9.28,5.43-17.54,10.35-24,14.22-8.7,5.21-14.08,8.5-14.08,8.5s2.64.54,6,1.1C249.08,261.3,254.44,262.06,256.9,261.8Z"/><path class="cls-13" d="M329.11,134.28s-5.64-3.57-13.91-1.44-7.3,5.77-18,8.32A238.3,238.3,0,0,0,265.15,152a52.06,52.06,0,0,0-12,7.28c-4.49,3.41-9.35,9-11.78,7.88s-4.37-3.3-9.23,1-9.83,8.16-13.42,9.62-15.73,11-20.1,12.07a9.1,9.1,0,0,0-2.66,1.23,43.92,43.92,0,0,0-6.25,5.68h0c-.92,1-1.49,1.75-1.49,1.75l4,4.47c3.3-2.74,6.77-5.4,10.35-8C245.74,163.43,306.93,141.58,329.11,134.28Z"/><path class="cls-13" d="M508.62,359.46l.17.06.12,0,.6.18.31.07a4.12,4.12,0,0,0,.59.07l.27,0a4.26,4.26,0,0,0,.8-.09h0a3.31,3.31,0,0,0,.74-.28l.22-.14A4,4,0,0,0,513,359l.23-.22a4.58,4.58,0,0,0,.44-.53,1.79,1.79,0,0,0,.2-.26,6.84,6.84,0,0,0,.56-1c2.6-5.73.74-8.95-3.65-15.49A161.36,161.36,0,0,1,495,313.29c-10.73-24.51-48.62-79.21-89.89-127,0,0-9.33-1.21-9.65-11-8-8.87-16-17.4-23.86-25.3-8.19-8.19-16.74-16.24-25.53-24.06-4.68-2.92-9.6-8.16-12-10.4l-.11-.1c-.47-.4-.95-.78-1.41-1.18-1.72-1.44-3.44-2.88-5.17-4.29q-3.72-3.06-7.46-6l-.28-.22q-3.37-2.69-6.77-5.31l-.75-.57c-2.11-1.62-4.23-3.24-6.36-4.83L304.23,92q-2.87-2.13-5.74-4.22l-2.37-1.7c-1.63-1.16-3.26-2.33-4.88-3.47-1.24-.87-2.47-1.71-3.71-2.56s-2.42-1.68-3.63-2.49q-3.7-2.51-7.4-4.92a9.44,9.44,0,0,1-8.41-5.36q-2.73-1.69-5.45-3.33L261.05,63q-2.07-1.25-4.13-2.44l-1.45-.84q-2.68-1.56-5.34-3l-1-.55-4.41-2.4-1.58-.84q-2.19-1.17-4.37-2.28l-1-.51c-1.75-.89-3.5-1.76-5.23-2.6l-1.29-.62c-1.35-.65-2.7-1.28-4-1.9l-1.49-.69q-2.46-1.12-4.89-2.18l-.21-.09h0s26,24.36,34.19,26.36S272.33,80,276.4,81.76s13.37,9.77,18.92,11.94,16.29,4.83,18.57,9.33S323,117,332,124.31s13.33,16.7,22.08,22.18,21.27,14.69,24.84,20.65-.08,4,10.86,14.09,10.94,9.24,19.68,22.42S426.39,231,438,242.14s16.21,16.66,24.09,29.2,5.7,12.54,13,23.47,7.85,12.11,11.39,18.31,2.45,3.55,6.09,12.29,9.13,7.29,10.76,14.58,7.24,11,6.26,15.47a8.67,8.67,0,0,1-1.81,3.58l0,0C508,359.21,508.33,359.34,508.62,359.46Z"/><path class="cls-8" d="M276.5,32c-13.77,10.69-9.27,16-.1,17s13.71-4.72,26.25-7,49-7.6,48-12-8.25-5.48-13.12-5.71C337.54,24.33,290.27,21.3,276.5,32Z"/><path class="cls-7" d="M329.11,83c10.69.49,15.41-1.46,28.19-2.91s35.14-2.43,41.94-2.43,12.14,4.68,10.69-3.49-21.13-20.32-27.7-23.23c0,0-52.46,4.94-62.66,18.79C311.43,80.76,318.42,82.51,329.11,83Z"/><path class="cls-13" d="M352.84,16.19c2.19,2.92,2.67,4.13,6.8,4.62s3,3.64,5.37,4.86,2.65,1,5.81,3.15,1,3.65,4.61,3.89,6.8,4.13,10.69,2.67a32.81,32.81,0,0,0,6-2.86,7,7,0,0,0-2.73.54c-1.33.6-1.58-.35-3-.11a12.19,12.19,0,0,1-3,0c-1.1,0-1.94-.85-3.28-1.57a28,28,0,0,1-2.55-1.58,43,43,0,0,1-4.13-2.56,4.43,4.43,0,0,1-1.09-1.82c-.37-.85-.85-.48-2.07-1.09s-3.16-.85-4-1.33S366,21.54,365,20.25,361.59,19,360,18a23.92,23.92,0,0,1-3.77-2.43A6.83,6.83,0,0,0,353.09,14c-1.34-.37-3.16-1.22-4.13-1.58A20.31,20.31,0,0,1,346,11.34a6.53,6.53,0,0,0-3.16-.61,30.46,30.46,0,0,1-3-.61c-1.82-.36-2.8-1.33-5.83-1.94S324.91,6,324.91,6s16.06,6.05,19.57,7S350.66,13.28,352.84,16.19Z"/><path class="cls-13" d="M450.36,76.35l-1,.63Z"/><path class="cls-13" d="M445.63,77.29a3.81,3.81,0,0,1-2.43-1.71c-.85-1.09-.48-1-1-2.06S440.53,74,439,73s-1.09-2.18-1.45-3.64-1.34-.61-2.92-1.09-1.34-.85-1.94-2.41a14.84,14.84,0,0,0-1.22-2.69c-.6-1.1-1.33-.25-2.06-1a3.4,3.4,0,0,0-1.7-1.22A6.64,6.64,0,0,0,425,61c-.73,0-1-1.34-1.29-2s-.9-.55-1.87-1.16-1-.36-1.7-1.45a11.86,11.86,0,0,0-1.34-2.07,6.52,6.52,0,0,0-2.67-1.94c-1-.37-.73-.13-1.34-.73s-1.09-.37-1.82-.73-.73-.12-1.21-1.09-.73-.73-1.58-.74-3.16-1.57-4-2.3A12.35,12.35,0,0,1,404.1,45a9.68,9.68,0,0,0-3-2.07,6.22,6.22,0,0,1-2.67-2.55,2,2,0,0,1-.25-1.74,16.71,16.71,0,0,1,1-1.54s-2.34,3.05-2.1,4.93,2.67,6.22,4.86,7.09,5.1,1.1,8.26,4.74,6.8,6.32,8.5,6.32.29,2.91,2.94,3.88,6.53-.2,7.51,1.85,3.4,5.44,4.37,5.44,6.07,10.77,9,9.52a64.13,64.13,0,0,0,6.79-3.8A8.69,8.69,0,0,1,445.63,77.29Z"/><path class="cls-13" d="M461.72,86.3s-6.61,5.19-4.67,6.41,7.77,3.15,9.23,5.1,0,5.34,2.43,6.07,2.67-.48,3.89,2.43,1.7,5.1,4.85,6.07,4.13,4.45,4.38,4.53,1,3,3.15,3.48,4.13,1.47,4.38,2.44,1.94,3.64,3.4,3.88,2.91,5.11,6.07,4.13a34.29,34.29,0,0,0,5.5-2.22A540.47,540.47,0,0,0,461.72,86.3Z"/><path class="cls-13" d="M560.82,216.68s0,0,0,0q-1.56-4.45-3.83-9.77c-7.16-16.71-20.06-39.68-43.35-67.51,0,0-4.84,2.9-4.84,4.84s2.83,2.43,4.57,4.62,5.63,8.74,9.27,10.69,5.59,2.91,5.83,6.31a11,11,0,0,0,4.13,8.26c2.68,2.19,4.86,3.89,5.59,7.29a12.73,12.73,0,0,0,4.86,8c2.91,2.43,3.4,3,4.13,5.52a28.5,28.5,0,0,0,4.37,9.38c2.91,4.29,14.34,31.05,14.33,33.22a58.56,58.56,0,0,0-2-10.82C563.17,223.86,562.17,220.52,560.82,216.68Z"/><path class="cls-12" d="M339.85,10.12a30.46,30.46,0,0,0,3,.61,6.53,6.53,0,0,1,3.16.61A20.31,20.31,0,0,0,349,12.43c1,.36,2.79,1.21,4.13,1.58a6.83,6.83,0,0,1,3.15,1.58A23.92,23.92,0,0,0,360,18c1.58,1,4.06.95,5,2.23s.34,2.26,1.19,2.75,2.8.73,4,1.33,1.7.24,2.07,1.09a4.43,4.43,0,0,0,1.09,1.82,43,43,0,0,0,4.13,2.56,28,28,0,0,0,2.55,1.58c1.34.72,2.18,1.57,3.28,1.57a12.19,12.19,0,0,0,3,0c1.46-.24,1.71.71,3,.11a7,7,0,0,1,2.73-.54C345.24,2.88,324.91,6,324.91,6S331,7.57,334,8.18,338,9.76,339.85,10.12Z"/><path class="cls-12" d="M398.14,38.62a2,2,0,0,0,.25,1.74,6.22,6.22,0,0,0,2.67,2.55,9.68,9.68,0,0,1,3,2.07,12.35,12.35,0,0,0,2.06,1.82c.85.73,3.15,2.28,4,2.3s1.09-.23,1.58.74.48.72,1.21,1.09,1.22.12,1.82.73.37.36,1.34.73a6.52,6.52,0,0,1,2.67,1.94,11.86,11.86,0,0,1,1.34,2.07c.73,1.09.73.85,1.7,1.45s1.55.5,1.87,1.16.56,2,1.29,2a6.64,6.64,0,0,1,2.67,0,3.4,3.4,0,0,1,1.7,1.22c.73.72,1.46-.13,2.06,1a14.84,14.84,0,0,1,1.22,2.69c.6,1.56.36,1.92,1.94,2.41s2.55-.37,2.92,1.09S437.38,72.06,439,73s2.8-.6,3.28.49.12,1,1,2.06a3.81,3.81,0,0,0,2.43,1.71,8.69,8.69,0,0,0,3.64-.24h0l.1-.07,1-.63a534.32,534.32,0,0,0-51.21-39.27A16.71,16.71,0,0,0,398.14,38.62Z"/><path class="cls-15" d="M444.42,33.26S428.88,30,426.69,37.08s1.46,7.05,8.86,7.53,20.53-2.91,26.84,0S477.08,46.78,474,42,451.19,34,444.42,33.26Z"/><path class="cls-15" d="M524.58,77.47s-40.44-.86-39.84,8.28,6.31,7.93,19.92,11.82,35.95,17,38.38,7.77S531.46,80.07,524.58,77.47Z"/><path class="cls-15" d="M579,141.16s-37.17-3.84-35.72,7.9,5.55,5.41,13.81,11.7,16.62,13.78,21.91,6.38S592.7,144,579,141.16Z"/><path class="cls-7" d="M446.51,187.55c13.94,11.79,26.33,8,45.28,25.55s32.06,51.1,45.54,50.37,19.31-20.4,13.48-35.71-33.27-59.18-42-63.39a30.82,30.82,0,0,0-28.28-3.61C464.09,166.55,432.58,175.76,446.51,187.55Zm38.22-20.41c22.1-5.23,28.63,8.27,28.63,8.27,4.07,4.7,21.19,22.26,20.87,35.77s-20.58-.91-36.17-10.22-29.59-9.63-41.37-17.77S462.64,172.38,484.73,167.14Z"/><path class="cls-15" d="M456.69,183.19c11.78,8.14,25.78,8.45,41.37,17.77s35.85,23.72,36.17,10.22-16.8-31.07-20.87-35.77c0,0-6.53-13.5-28.63-8.27S444.92,175.05,456.69,183.19Z"/><path class="cls-16" d="M646,238.11c0-.92,0-1.84,0-2.76l0-1.45c0-1.29-.11-2.58-.19-3.87,0-.12,0-.24,0-.36-.08-1.4-.19-2.81-.31-4.2,0-.06,0-.11,0-.17-.09-1.06-.2-2.12-.32-3.18,0-.07,0-.14,0-.21l0-.27c-.11-1-.24-2-.37-3l-.09-.62c-.13-1-.27-2-.43-2.94,0,0,0-.06,0-.09l-.06-.39,0-.18c-.16-1-.32-1.95-.5-2.92,0-.21-.07-.41-.11-.62-.18-1-.37-2-.57-3,0-.18-.08-.35-.11-.53-.21-1-.43-2-.66-3v-.06h0c-4.74,12-12.36,34.08-15,57.51-3.89,34.95-52.47,111.59-79.68,127.68s-113.15,69.73-189.69,68.66-128.15,7.67-166.47,12.53c-30.34,3.85-124.38-24.9-173.31-101.8h0a.54.54,0,0,1,0,.11q1.07,2.38,2.2,4.75c.07.15.14.31.22.46q2.31,4.79,4.9,9.5h0l.19.35a.25.25,0,0,1,0,.07q1.23,2.2,2.52,4.39c.08.15.17.3.26.44h0c.94,1.57,1.89,3.13,2.88,4.69v0c1.49,2.33,3,4.65,4.63,6.94.06.07.11.15.16.22q2.41,3.45,5,6.83l.12.17.31.39q1.53,2,3.13,3.92l.22.28.16.19c0,.06.09.11.13.16,1.13,1.36,2.28,2.72,3.45,4.06l.32.36q1.73,2,3.53,3.9l.93,1q1.55,1.64,3.14,3.26l1.07,1.08c1.15,1.14,2.31,2.28,3.5,3.4l.92.87q1.74,1.63,3.54,3.24h0l1,.87h0c1.19,1.06,2.41,2.1,3.64,3.13.3.25.59.51.89.75l.07.06c1.54,1.28,3.1,2.54,4.7,3.79l.15.12q2,1.56,4.07,3.09l.31.23c1.31,1,2.65,1.93,4,2.88l.52.37c1.3.9,2.62,1.8,3.94,2.68l.73.49c1.27.85,2.58,1.68,3.88,2.5l.93.6c1.24.77,2.51,1.54,3.78,2.3.4.23.78.48,1.18.71,1.13.67,2.28,1.32,3.44,2l.27.15.17.1.95.55.27.15c1.18.66,2.39,1.3,3.6,1.95l.34.18,1.32.72c1.11.58,2.25,1.15,3.38,1.72l.88.45c.39.19.76.39,1.15.59,1.09.54,2.22,1.06,3.33,1.59l1.34.65.88.42c1.15.54,2.33,1.06,3.51,1.58l1.47.67.73.32c1,.43,2,.84,3,1.26l.52.22,1.87.79.51.21c1.2.5,2.42,1,3.64,1.45l.77.3,1.35.54.26.1q3,1.17,6.18,2.28c89.39,31.92,166.29,17.67,273.79-16.54,64.13-20.4,170-81.61,206-143.79.72-1.24,1.41-2.48,2.09-3.72.22-.41.43-.82.65-1.22.05-.11.11-.21.16-.31.18-.35.37-.69.55-1l.62-1.18.73-1.46c.38-.76.76-1.52,1.13-2.28.26-.53.5-1.06.75-1.6.34-.72.68-1.44,1-2.16.25-.55.49-1.11.74-1.66l.3-.69c.07-.15.14-.3.2-.45.14-.32.27-.65.41-1l.71-1.71c.28-.69.56-1.38.83-2.07s.45-1.16.67-1.74.51-1.36.76-2,.43-1.18.64-1.77c.13-.36.25-.72.38-1.07s.21-.63.31-1c.2-.6.41-1.2.6-1.8s.42-1.32.62-2,.39-1.23.57-1.85c0,0,0-.1,0-.14.18-.59.34-1.19.51-1.78s.36-1.26.53-1.9c.1-.37.19-.74.29-1.12a2.45,2.45,0,0,1,.08-.29c.39-1.53.76-3.05,1.11-4.58.1-.47.22-.94.32-1.41.17-.77.32-1.55.48-2.32.09-.49.2-1,.29-1.46.15-.77.28-1.55.42-2.32.07-.41.15-.81.22-1.21l0-.24c.13-.78.25-1.57.37-2.35l.21-1.41c.11-.8.22-1.59.31-2.39l0-.12.15-1.22c.09-.82.18-1.64.26-2.46l0-.19c0-.36.07-.71.1-1.06.08-.85.15-1.69.22-2.54,0-.37,0-.74.07-1.11.06-.89.12-1.79.17-2.68l0-.86c0-1,.09-2,.11-2.92,0-.1,0-.2,0-.31v0c0-1.3,0-2.59,0-3.88C646,238.76,646,238.44,646,238.11Z"/><path class="cls-17" d="M17.39,241.61c-1.09-4.37-.26-8-2-12.39s-.46-14.14-3.52-13.48c0,0-2.55,2.92-1.82,6.19s-.13.9.85,9.19S9,253.07,13.38,255.54,21,253.27,21,250.72,18.48,246,17.39,241.61Z"/><path class="cls-17" d="M23.45,276.22c.86,5.47.39,4.74,2.63,12.39s3.33,8.38,7,16.76,2.55,9.84,7.65,12.39,11.66,1.82,14.21,0,4.95-2.69,1-6.63-11.25-13.58-16.51-19.69-13.34-28-13.34-28-6.5,5.89-5,7.87S22.59,270.76,23.45,276.22Z"/><path class="cls-17" d="M70,345.63c2.76,4.19,7.31,7.11,10.68,15.85s4.84,9.72,11.76,14,9.84,3.33,16.39,12.17S115,400.83,124,401.56s15.13-1.45,18.41-6.55,9.47-9.48,0-14.94-33.89-14.21-41.18-22.23-31.5-30.15-33.36-27.91c0,0-6.35,6.78-3.8,9A22.79,22.79,0,0,1,70,345.63Z"/><path class="cls-17" d="M163.13,394.28s-6.55,8.09-2.91,12.6,5.83,2,7.65,4.16,1.39,3.64,6,9.11,8.81,9.47,14.35,10.2,14.39,1.49,17.07-4.36,2.32-8.76-4.24-9.49-26.24-15-29.52-14.8S166.41,392.45,163.13,394.28Z"/><path class="cls-18" d="M545,175.41c-1.94-5.23-5.34-7.89-7.65-12.26s-5.47-9.23-8.86-12.14-3.89-4.86-4.38-6.81,2.43-4.85,6.8-8.73a5.89,5.89,0,0,1,.57-.41c-.65.13-1.29.27-2,.42l-1.76.38-2.84.66-1.73.41-3.2.78-1.5.38q-2.38.6-4.85,1.27c23.29,27.83,36.19,50.8,43.35,67.51-1.76-4.76-3.54-10-3.91-12.88C552.27,188,546.92,180.64,545,175.41Z"/><path class="cls-18" d="M560.81,216.64s0,0,0,0h0Z"/><path class="cls-18" d="M518.26,122.34c-3.63,0-8.95.53-11.85-4.32a11,11,0,0,1-.54-1s0,0,0-.08a12.18,12.18,0,0,0-2.12-3.21c-3.09-3.4-7.52-4.7-10.12-7.39-3.31-3.4-6.42-5.34-13.08-7.77s-9.37-7.77-12.82-10.84,6.66-7,6.93-7.13a111.72,111.72,0,0,0-12.9,5.73,540.47,540.47,0,0,1,42.61,42.32,240,240,0,0,1,50.52-4.15s-10.85-3.58-20.62-4.08S522.15,122.34,518.26,122.34Z"/><path class="cls-18" d="M447.44,69.72h0c-5.71-2.1-7.39-6.16-12.74-10.71a149.34,149.34,0,0,0-13.09-9.91c-5.32-3.78-6.51-6.56-11.44-9.67s-7.62-.06-11-2.35a534.32,534.32,0,0,1,51.21,39.27,190.44,190.44,0,0,1,19.33-5.41C469.55,71,453.14,71.81,447.44,69.72Z"/><path class="cls-18" d="M392.13,32.52c8.13-2.48,19.63-5.71,28-6.83,0,0-20.41,1.43-25,2.66s-7.52-3.17-11.89-7.54a20.77,20.77,0,0,0-6.46-3.74c-6.36-2.64-15.54-5.12-23.48-8.66h0C341.78,3.29,324.91,6,324.91,6S345.24,2.88,392.13,32.52Z"/><path class="cls-18" d="M287.53,80c1.24.85,2.47,1.69,3.71,2.56,1.62,1.14,3.25,2.31,4.88,3.47l2.37,1.7q2.88,2.08,5.74,4.22l1.43,1.06c2.13,1.59,4.25,3.21,6.36,4.83l.75.57q3.39,2.63,6.77,5.31l.28.22q3.75,3,7.46,6c1.73,1.41,3.45,2.85,5.17,4.29.46.4.94.78,1.41,1.18l.11.1c1.07.9,2.15,1.79,3.22,2.71,3.73-2.2,9.41-5.34,17.06-9l-.19-.55s-6.81,3.83-17.3.83-7-6.25-13.75-12.35c-5.9-5.3-19.89-13.39-25.67-18.77a13.32,13.32,0,0,1-2-2.25C292,71.09,300,64.71,300,64.7c-10.17,3.26-18.55,6.16-23.53,7.93q3.69,2.41,7.4,4.92C285.11,78.36,286.32,79.21,287.53,80Z"/><path class="cls-18" d="M510.73,341.52c-.87-3.5-1.78-7.62-2.38-11.75-.93-6.41-3.66-11-7.64-17.18-2.52-3.93-5.54-8.5-8.92-14.61-8.75-15.77-23.32-42.52-29.3-53.5s-25.36-29.1-27.95-37-15.63-14.72-17.81-17.71,4.87-11,4.88-11q-8,3.57-16.55,7.52c41.27,47.76,79.16,102.46,89.89,127A161.36,161.36,0,0,0,510.73,341.52Z"/><path class="cls-18" d="M395.41,175.35q10.47-4.86,20.94-9.46h0a45,45,0,0,1-8.19-.32c-4.24-.55-9.29-1.84-13.06-4.81-7.84-6.17-11.94-6.55-16.2-14.27S361.54,132.14,357.58,128h0a5.64,5.64,0,0,1-1.69-3.63,7.86,7.86,0,0,1,1.85-5.07h0q-5.93,3.12-11.7,6.67c8.79,7.82,17.34,15.87,25.53,24.06C379.45,158,387.46,166.48,395.41,175.35Z"/><path class="cls-18" d="M220.84,42.1q2.43,1,4.89,2.18l1.49.69c1.34.62,2.69,1.25,4,1.9l1.29.62c1.73.84,3.48,1.71,5.23,2.6l1,.51q2.17,1.11,4.37,2.28l1.58.84,4.41,2.4,1,.55q2.66,1.48,5.34,3l1.45.84q2.06,1.2,4.13,2.44l1.59.95q2.72,1.64,5.45,3.33,10.76-5.32,20.53-9.53c-7.7.48-19.85.95-24.19-.5-5.57-1.85-15.69-9.48-22.36-12.63a17.13,17.13,0,0,0-3.19-1.21c-3.39-.81-11.42-2.29-18.46-4.32-5.66-1.63-10.68-3.61-12.11-5.88-1-1.64-.13-5,1.56-8.87a63.43,63.43,0,0,0-8.63,9.19l3.2,2.18q7.89,2.71,16.19,6.31h0Z"/><path class="cls-18" d="M194.63,180.28a15.28,15.28,0,0,1-6.67.85l-.56-.12c-1.6.13-3.11.21-4.42.22-6.27.07-11.43-6.68-18.51-14.25-1.87-1.71-3.67-3.52-5.36-5.4-10.06-9.42-17.06-9.29-19.78-15.86-2-4.71.39-11.76,1.88-15.37-5.08,3.87-9.21,7.28-12.27,9.92q6.51,5.86,13.47,12.36l.61.57c2,1.87,4,3.76,6,5.71l1.43,1.37c1.79,1.71,3.57,3.43,5.39,5.19l2.32,2.29c1.54,1.51,3.08,3,4.64,4.56l3.21,3.23c1.29,1.3,2.58,2.58,3.88,3.9l4.15,4.27c1,1.05,2,2.07,3,3.13q3.62,3.77,7.26,7.66a240.68,240.68,0,0,1,20.87-15.71l0,0S200.3,179.59,194.63,180.28Z"/><path class="cls-18" d="M232.12,244.48c-5.83-4.67-10.69-12.34-13.42-17.69s-16.91-13.11-17.19-19.28a60.58,60.58,0,0,1,1-12.59c-3.58,2.61-7,5.27-10.35,8,2.77,3,5.54,6.15,8.32,9.29l.08.09c1.78,2,3.56,4.05,5.33,6.11l.51.58q2.47,2.88,4.95,5.8l.93,1.11q2.28,2.7,4.56,5.46c.46.55.92,1.12,1.38,1.68,1.37,1.68,2.75,3.36,4.12,5.06.63.78,1.25,1.58,1.88,2.36l3.63,4.57,2.54,3.28c1,1.27,2,2.54,3,3.83,1.79,2.34,3.57,4.71,5.34,7.08h0l.19.25s5.38-3.29,14.08-8.5C251.29,250.77,237.59,248.85,232.12,244.48Z"/><path class="cls-18" d="M76.24,111.09l-.43.37-.11.1h0Z"/><path class="cls-18" d="M81.81,106.39l-.25.2.25-.2Z"/><path class="cls-18" d="M299.72,355.78c-8.2-16.7-19.05-38.74-27.12-54.78-6.92-11.82-12.47-19.93-13.94-20.74-4.56-2.52,0-10.46,0-10.46a17,17,0,0,1-2.32-.55c-2.34,1.58-4.68,3.16-7,4.77l1,1.46h0l.89,1.31q2.79,4.05,5.52,8.16c.32.48.65,1,1,1.45q1.3,2,2.6,4l1.35,2.11c.86,1.33,1.7,2.66,2.55,4,.41.65.82,1.31,1.22,2q4.41,7.08,8.6,14.31c.27.48.55,1,.83,1.43q1.26,2.21,2.49,4.42c.35.61.69,1.22,1,1.84q1.25,2.24,2.46,4.48c.25.47.5.95.76,1.42q4.06,7.61,7.83,15.35c.23.47.46.93.68,1.4q1.14,2.37,2.25,4.75l.76,1.65q1.13,2.43,2.21,4.88c.11.23.2.46.31.69A362.8,362.8,0,0,1,309.37,391c-.17-2.06-.47-4.24-.88-6.5C307,375.93,303.77,366,299.72,355.78Z"/><path class="cls-18" d="M83.43,105.12l0,0-.07.05h0Z"/><path class="cls-18" d="M80.71,107.28l0,0-.31.25.41-.33Z"/><path class="cls-18" d="M119.86,132.22l.06-.07h0a108.15,108.15,0,0,1,13.36-13.8c-1.94.64-3.89,1.23-5.54,1.63a9.73,9.73,0,0,1-3.78.41c-3-.8-8.44,2.44-13.1-2.42-1.63-1.7-3.87-3.7-6.27-5.92-.78-.73-1.58-1.48-2.38-2.25-3.72-3.58-7.44-7.59-9.52-11.75-1.15-2.3-.5-6.35,1-10.91v0l-.35.54c-.74,1.1-1.47,2.22-2.17,3.36l-.21.33q-1.24,2-2.43,4.15l0,.06q-1.06,1.93-2.08,4l-.48,1c-.42.84-.81,1.71-1.21,2.58C93.12,109.61,105.34,119.5,119.86,132.22Z"/><path class="cls-18" d="M145.59,425.82h0q0-.09,0-.24v-.06c0-.06,0-.13,0-.2v0h0c0-.15,0-.35.06-.55s0-.12,0-.2v-.06a.17.17,0,0,1,0-.07c0-.1,0-.23,0-.33s0-.41.07-.65c0,0,0-.08,0-.12s0-.08,0-.11,0-.34.07-.53h0c.25-2,.68-4.88,1.33-8.49l.15-.84c.08-.38.15-.79.23-1.19s.15-.75.22-1.13l.24-1.18c.09-.44.18-.9.28-1.36s.16-.74.24-1.13c.13-.6.27-1.22.41-1.85l.18-.82c.2-.88.42-1.8.64-2.73.08-.34.17-.69.26-1,.15-.65.31-1.29.48-2,.1-.39.21-.8.31-1.2.17-.64.34-1.3.52-2,.11-.42.22-.84.34-1.26.19-.7.39-1.42.6-2.15.11-.39.21-.77.33-1.16.32-1.12.65-2.25,1-3.41,0,0,0,0,0,0h0c0-.09.05-.18.08-.28l0,.12a1.67,1.67,0,0,1,0-.18c.24-.78.48-1.57.73-2.36a2,2,0,0,0,.07-.23c1.14-3.62,2.42-7.42,3.86-11.36l.12-.31c.31-.85.62-1.7,1-2.57l.27-.7c.28-.74.56-1.48.85-2.23l.36-.9q.41-1,.84-2.1c.13-.33.26-.65.4-1,.28-.69.56-1.37.85-2.06.14-.35.29-.7.44-1.06l.88-2.07c.15-.35.3-.69.46-1,.31-.72.63-1.44.95-2.16l.45-1c.36-.8.73-1.61,1.11-2.42l.34-.75q1.5-3.21,3.13-6.49l.5-1,1.15-2.29.65-1.24,1.07-2.05.74-1.36,1.06-2,.79-1.43,1.07-1.92.84-1.46,1.12-1.93.86-1.46,1.17-2c.3-.48.59-1,.88-1.45l1.27-2.05.86-1.36c.5-.8,1-1.59,1.53-2.39l.67-1c.74-1.13,1.49-2.27,2.26-3.4l.68-1c.55-.82,1.11-1.63,1.68-2.45l.94-1.34c.5-.7,1-1.41,1.51-2.11.34-.49.7-1,1-1.45l1.48-2,1.12-1.48c.5-.67,1-1.33,1.51-2l1.16-1.51,1.55-2c.4-.5.8-1,1.21-1.51.53-.67,1.07-1.33,1.62-2l1.21-1.47,1.74-2.08,1.18-1.38q1-1.15,2-2.31l1-1.14c1-1.15,2.05-2.3,3.11-3.44,0,0-4.38-7.27-13.12,0a50.24,50.24,0,0,0-9.63,10.37,88.2,88.2,0,0,0-5.65,9.73c-.53,1-1.07,2.08-1.63,3.19-5,9.72-10.49,12.8-11.24,18.95a26.36,26.36,0,0,1-1.49,6.27c-1,2.79-2.56,5.76-4.85,11.22-2.67,6.32-8.72,18.29-13.11,27.9a107.84,107.84,0,0,0-4.51,11c-1.55,5-2.77,20.52-3.52,32.42-.51,8.24-.79,14.72-.79,14.72a1.09,1.09,0,0,1,0-.12Z"/><path class="cls-19" d="M201.24,33.52a63.43,63.43,0,0,1,8.63-9.19c-1.69,3.85-2.59,7.23-1.56,8.87,1.43,2.27,6.45,4.25,12.11,5.88,5.37-7.3,39.08-24.35,58.34-30.9,12.44-4.24,32.66-2.94,48.5-.88C325.73,6.45,324.91,6,324.91,6s-14.57-9.47-43.72-4.64c0,0-55.38-1.37-80.65,33q1.94.62,3.9,1.29Z"/><path class="cls-19" d="M85.94,100.46c-.42.84-.82,1.7-1.22,2.57h0C85.13,102.17,85.52,101.3,85.94,100.46Z"/><path class="cls-19" d="M92.69,98.05c2.08,4.16,5.8,8.17,9.52,11.75,0-6.32,2.63-24.38,17.14-40.08S167,46.07,186.24,42c8.75-1.85,18.26-1.28,25.32-.45-7.05-4.7-11-7.15-11-7.15S130,33.63,93.68,87.14C92.19,91.7,91.54,95.75,92.69,98.05Z"/><path class="cls-19" d="M32.21,163.6l-.14.23h0C32.11,163.76,32.16,163.68,32.21,163.6Z"/><path class="cls-19" d="M70.28,143.72C73.13,133,76.39,128,76.39,128q-4.86-3.93-9.82-7.83c-3.93,3.93-8.3,8.59-12.87,13.93,1.28,1.18,2.35,3.28,2.54,7,.42,8.56-2.78,27.15,2.74,33.49C69.07,170.91,67.65,153.59,70.28,143.72Z"/><path class="cls-19" d="M353.26,8.41h0C356.17,6,360.48,4.09,365,2.57h0l-.15,0-1-.13-1.29-.16-1-.12L360.24,2l-.78-.08-.89-.08-3.11-.24-1-.06-.63,0-1.43-.05-1.57-.05h-1.38c-.54,0-1.07,0-1.61,0l-1.32,0-.92,0-.68,0h-.06l-1.21.05q-1,.06-1.95.15l-.71.06-.22,0c-.89.09-1.77.19-2.64.32-.25,0-.5.08-.74.12l-.52.08-.63.1-.79.15-1,.2c-.56.11-1.11.24-1.64.37l-.2.05-.65.17-.13,0c-.52.14-1,.29-1.55.45l-.91.3c-.27.09-.53.18-.78.28l-.48.18-.32.13c-.25.1-.51.19-.75.3-.75.32-1.49.65-2.2,1C324.91,6,341.78,3.29,353.26,8.41Z"/></g></g></svg>