<svg xmlns="http://www.w3.org/2000/svg" xmlns:xlink="http://www.w3.org/1999/xlink" viewBox="0 0 454.62 267.94"><defs><style>.cls-1{isolation:isolate;}.cls-2{fill:url(#Áåçûìÿííûé_ãðàäèåíò_1945);}.cls-3,.cls-4,.cls-7{mix-blend-mode:screen;}.cls-3{fill:url(#Áåçûìÿííûé_ãðàäèåíò_1938);}.cls-4{opacity:0.49;fill:url(#Áåçûìÿííûé_ãðàäèåíò_1938-2);}.cls-5{opacity:0.51;fill:url(#Áåçûìÿííûé_ãðàäèåíò_1960);}.cls-5,.cls-6,.cls-8,.cls-9{mix-blend-mode:multiply;}.cls-6{fill:#d19676;opacity:0.22;}.cls-7{fill:url(#Áåçûìÿííûé_ãðàäèåíò_1938-3);}.cls-8{opacity:0.36;}.cls-9{fill:#aa3c00;}.cls-10{fill:url(#Áåçûìÿííûé_ãðàäèåíò_1970);}.cls-11{fill:url(#Áåçûìÿííûé_ãðàäèåíò_1970-2);}.cls-12{fill:url(#Áåçûìÿííûé_ãðàäèåíò_1970-3);}.cls-13{fill:url(#Áåçûìÿííûé_ãðàäèåíò_1970-4);}.cls-14{fill:url(#Áåçûìÿííûé_ãðàäèåíò_1970-5);}.cls-15{fill:url(#Áåçûìÿííûé_ãðàäèåíò_1970-6);}.cls-16{fill:url(#Áåçûìÿííûé_ãðàäèåíò_1970-7);}.cls-17{fill:url(#Áåçûìÿííûé_ãðàäèåíò_1970-8);}.cls-18{fill:url(#Áåçûìÿííûé_ãðàäèåíò_1970-9);}.cls-19{fill:url(#Áåçûìÿííûé_ãðàäèåíò_1970-10);}.cls-20{fill:url(#Áåçûìÿííûé_ãðàäèåíò_1970-11);}.cls-21{fill:url(#Áåçûìÿííûé_ãðàäèåíò_1970-12);}.cls-22{fill:url(#Áåçûìÿííûé_ãðàäèåíò_1970-13);}.cls-23{fill:url(#Áåçûìÿííûé_ãðàäèåíò_1970-14);}.cls-24{fill:url(#Áåçûìÿííûé_ãðàäèåíò_1970-15);}.cls-25{fill:url(#Áåçûìÿííûé_ãðàäèåíò_1970-16);}.cls-26{fill:url(#Áåçûìÿííûé_ãðàäèåíò_1970-17);}.cls-27{fill:url(#Áåçûìÿííûé_ãðàäèåíò_1970-18);}.cls-28{fill:url(#Áåçûìÿííûé_ãðàäèåíò_1970-19);}.cls-29{fill:url(#Áåçûìÿííûé_ãðàäèåíò_1970-20);}.cls-30{fill:url(#Áåçûìÿííûé_ãðàäèåíò_1970-21);}.cls-31{fill:url(#Áåçûìÿííûé_ãðàäèåíò_1970-22);}.cls-32{fill:url(#Áåçûìÿííûé_ãðàäèåíò_1970-23);}.cls-33{fill:url(#Áåçûìÿííûé_ãðàäèåíò_1970-24);}.cls-34{fill:url(#Áåçûìÿííûé_ãðàäèåíò_1970-25);}.cls-35{fill:url(#Áåçûìÿííûé_ãðàäèåíò_1970-26);}</style><linearGradient id="Áåçûìÿííûé_ãðàäèåíò_1945" x1="227.31" y1="267.94" x2="227.31" y2="2.7" gradientUnits="userSpaceOnUse"><stop offset="0" stop-color="#ffdc95"/><stop offset="0.12" stop-color="#ffc781"/><stop offset="0.35" stop-color="#ff9751"/><stop offset="0.5" stop-color="#ec823f"/><stop offset="0.82" stop-color="#ba4d0f"/><stop offset="0.92" stop-color="#aa3c00"/></linearGradient><linearGradient id="Áåçûìÿííûé_ãðàäèåíò_1938" x1="287.51" y1="8.05" x2="225.91" y2="149.82" gradientUnits="userSpaceOnUse"><stop offset="0" stop-color="#ff9751"/><stop offset="0.02" stop-color="#f5914e"/><stop offset="0.17" stop-color="#b56b39"/><stop offset="0.32" stop-color="#7e4a28"/><stop offset="0.46" stop-color="#51301a"/><stop offset="0.59" stop-color="#2e1b0e"/><stop offset="0.72" stop-color="#140c06"/><stop offset="0.83" stop-color="#050302"/><stop offset="0.92"/></linearGradient><linearGradient id="Áåçûìÿííûé_ãðàäèåíò_1938-2" x1="227.31" y1="267.94" x2="227.31" y2="158.24" xlink:href="#Áåçûìÿííûé_ãðàäèåíò_1938"/><linearGradient id="Áåçûìÿííûé_ãðàäèåíò_1960" x1="346.16" y1="44.9" x2="95.16" y2="295.9" gradientUnits="userSpaceOnUse"><stop offset="0" stop-color="#fff"/><stop offset="0.31" stop-color="#e0b8a2"/><stop offset="0.72" stop-color="#b95f2e"/><stop offset="0.89" stop-color="#aa3c00"/></linearGradient><linearGradient id="Áåçûìÿííûé_ãðàäèåíò_1938-3" x1="181.94" y1="577.17" x2="212.8" y2="662.79" gradientTransform="matrix(0, 1, -1, 0, 912.55, -133.43)" xlink:href="#Áåçûìÿííûé_ãðàäèåíò_1938"/><linearGradient id="Áåçûìÿííûé_ãðàäèåíò_1970" x1="224.51" y1="26.23" x2="220.55" y2="32.65" gradientUnits="userSpaceOnUse"><stop offset="0" stop-color="#f1f5d0"/><stop offset="0.2" stop-color="#efe8bc"/><stop offset="0.6" stop-color="#eac68a"/><stop offset="1" stop-color="#e59f51"/></linearGradient><linearGradient id="Áåçûìÿííûé_ãðàäèåíò_1970-2" x1="184.09" y1="36.59" x2="180.13" y2="43" xlink:href="#Áåçûìÿííûé_ãðàäèåíò_1970"/><linearGradient id="Áåçûìÿííûé_ãðàäèåíò_1970-3" x1="265.6" y1="14" x2="261.64" y2="20.41" xlink:href="#Áåçûìÿííûé_ãðàäèåíò_1970"/><linearGradient id="Áåçûìÿííûé_ãðàäèåíò_1970-4" x1="277.45" y1="5.47" x2="273.49" y2="11.88" xlink:href="#Áåçûìÿííûé_ãðàäèåíò_1970"/><linearGradient id="Áåçûìÿííûé_ãðàäèåíò_1970-5" x1="294.81" y1="55.21" x2="290.85" y2="61.62" xlink:href="#Áåçûìÿííûé_ãðàäèåíò_1970"/><linearGradient id="Áåçûìÿííûé_ãðàäèåíò_1970-6" x1="228.33" y1="109.63" x2="224.37" y2="116.04" xlink:href="#Áåçûìÿííûé_ãðàäèåíò_1970"/><linearGradient id="Áåçûìÿííûé_ãðàäèåíò_1970-7" x1="351.68" y1="48.21" x2="347.72" y2="54.62" xlink:href="#Áåçûìÿííûé_ãðàäèåíò_1970"/><linearGradient id="Áåçûìÿííûé_ãðàäèåíò_1970-8" x1="351.63" y1="124.51" x2="347.67" y2="130.92" xlink:href="#Áåçûìÿííûé_ãðàäèåíò_1970"/><linearGradient id="Áåçûìÿííûé_ãðàäèåíò_1970-9" x1="571.31" y1="-334.96" x2="567.35" y2="-328.55" gradientTransform="translate(-108.66 605.11) rotate(-22.81)" xlink:href="#Áåçûìÿííûé_ãðàäèåíò_1970"/><linearGradient id="Áåçûìÿííûé_ãðàäèåíò_1970-10" x1="537.28" y1="-431.44" x2="533.32" y2="-425.03" gradientTransform="translate(-108.66 605.11) rotate(-22.81)" xlink:href="#Áåçûìÿííûé_ãðàäèåíò_1970"/><linearGradient id="Áåçûìÿííûé_ãðàäèåíò_1970-11" x1="639.23" y1="-283.23" x2="635.27" y2="-276.82" gradientTransform="translate(-108.66 605.11) rotate(-22.81)" xlink:href="#Áåçûìÿííûé_ãðàäèåíò_1970"/><linearGradient id="Áåçûìÿííûé_ãðàäèåíò_1970-12" x1="627.34" y1="-360.03" x2="623.38" y2="-353.62" gradientTransform="translate(-108.66 605.11) rotate(-22.81)" xlink:href="#Áåçûìÿííûé_ãðàäèåíò_1970"/><linearGradient id="Áåçûìÿííûé_ãðàäèåíò_1970-13" x1="2772.55" y1="574.55" x2="2768.59" y2="580.96" gradientTransform="matrix(-0.92, -0.39, -0.39, 0.92, 2951.54, 605.11)" xlink:href="#Áåçûìÿííûé_ãðàäèåíò_1970"/><linearGradient id="Áåçûìÿííûé_ãðàäèåíò_1970-14" x1="2681.13" y1="1195.24" x2="2677.17" y2="1201.65" gradientTransform="matrix(-0.68, -0.73, -0.73, 0.68, 2803.48, 1228.9)" xlink:href="#Áåçûìÿííûé_ãðàäèåíò_1970"/><linearGradient id="Áåçûìÿííûé_ãðàäèåíò_1970-15" x1="2791.6" y1="520.39" x2="2787.65" y2="526.8" gradientTransform="matrix(-0.92, -0.39, -0.39, 0.92, 2951.54, 605.11)" xlink:href="#Áåçûìÿííûé_ãðàäèåíò_1970"/><linearGradient id="Áåçûìÿííûé_ãðàäèåíò_1970-16" x1="2820.72" y1="602.07" x2="2816.76" y2="608.48" gradientTransform="matrix(-0.92, -0.39, -0.39, 0.92, 2951.54, 605.11)" xlink:href="#Áåçûìÿííûé_ãðàäèåíò_1970"/><linearGradient id="Áåçûìÿííûé_ãðàäèåíò_1970-17" x1="2653.79" y1="-24.44" x2="2649.83" y2="-18.03" gradientTransform="matrix(-0.99, 0.12, 0.12, 0.99, 2769.32, -155.83)" xlink:href="#Áåçûìÿííûé_ãðàäèåíò_1970"/><linearGradient id="Áåçûìÿííûé_ãðàäèåíò_1970-18" x1="2676.34" y1="-121.06" x2="2672.38" y2="-114.65" gradientTransform="matrix(-0.99, 0.12, 0.12, 0.99, 2769.32, -155.83)" xlink:href="#Áåçûìÿííûé_ãðàäèåíò_1970"/><linearGradient id="Áåçûìÿííûé_ãðàäèåíò_1970-19" x1="2501.77" y1="-95.21" x2="2497.81" y2="-88.8" gradientTransform="matrix(-0.99, 0.12, 0.12, 0.99, 2769.32, -155.83)" xlink:href="#Áåçûìÿííûé_ãðàäèåíò_1970"/><linearGradient id="Áåçûìÿííûé_ãðàäèåíò_1970-20" x1="2447.02" y1="-47.98" x2="2443.06" y2="-41.57" gradientTransform="matrix(-0.99, 0.12, 0.12, 0.99, 2769.32, -155.83)" xlink:href="#Áåçûìÿííûé_ãðàäèåíò_1970"/><linearGradient id="Áåçûìÿííûé_ãðàäèåíò_1970-21" x1="2443.08" y1="1384.67" x2="2439.12" y2="1391.08" gradientTransform="matrix(-0.51, -0.86, -0.86, 0.51, 2626.63, 1510.52)" xlink:href="#Áåçûìÿííûé_ãðàäèåíò_1970"/><linearGradient id="Áåçûìÿííûé_ãðàäèåíò_1970-22" x1="2391.79" y1="1203.59" x2="2387.84" y2="1210" gradientTransform="matrix(-0.51, -0.86, -0.86, 0.51, 2626.63, 1510.52)" xlink:href="#Áåçûìÿííûé_ãðàäèåíò_1970"/><linearGradient id="Áåçûìÿííûé_ãðàäèåíò_1970-23" x1="2710" y1="390.32" x2="2706.04" y2="396.73" gradientTransform="matrix(-0.98, -0.22, -0.22, 0.98, 2932.83, 338.86)" xlink:href="#Áåçûìÿííûé_ãðàäèåíò_1970"/><linearGradient id="Áåçûìÿííûé_ãðàäèåíò_1970-24" x1="2813.78" y1="310.69" x2="2809.82" y2="317.1" gradientTransform="matrix(-0.98, -0.22, -0.22, 0.98, 2932.83, 338.86)" xlink:href="#Áåçûìÿííûé_ãðàäèåíò_1970"/><linearGradient id="Áåçûìÿííûé_ãðàäèåíò_1970-25" x1="2420.79" y1="1234.39" x2="2416.83" y2="1240.8" gradientTransform="matrix(-0.51, -0.86, -0.86, 0.51, 2626.63, 1510.52)" xlink:href="#Áåçûìÿííûé_ãðàäèåíò_1970"/><linearGradient id="Áåçûìÿííûé_ãðàäèåíò_1970-26" x1="2594.61" y1="387.59" x2="2590.65" y2="394" gradientTransform="matrix(-0.98, -0.22, -0.22, 0.98, 2932.83, 338.86)" xlink:href="#Áåçûìÿííûé_ãðàäèåíò_1970"/></defs><title>bread2</title><g class="cls-1"><g id="Layer_2" data-name="Layer 2"><g id="Ñëîé_1" data-name="Ñëîé 1"><path class="cls-2" d="M8.23,208.24A17,17,0,0,1,.07,192C2.65,162.93,19.62,77.44,128.35,23.78,257.54-40,414.45,48.8,453.93,184.12a17.29,17.29,0,0,1-6.85,19.14c-20.71,14.21-79.14,65-218.85,64.68C86.12,267.61,27.94,220,8.23,208.24Z"/><path class="cls-3" d="M332.43,153c98.87-9.16,79-56.35,43.44-89C308.32,5.45,212.47-17.74,128.35,23.78,39.46,71.83,214.77,163.94,332.43,153Z"/><path class="cls-4" d="M8.23,208.24c19.71,11.77,77.89,59.37,220,59.7,139.71.33,198.14-50.47,218.85-64.68a17.29,17.29,0,0,0,6.85-19.14,240.17,240.17,0,0,0-9.23-25.88c17.74,45.46-40.61,47.52-50,63.63S349,247.93,324,240.09s-19.22-.06-42,6.26-38.81-25.27-68.13-9.48-77.29,3.95-89.13-10.26-20.53,6.31-37.91-18.45S-3.95,201.33,6.39,159.4A172.4,172.4,0,0,0,.07,192,17,17,0,0,0,8.23,208.24Z"/><path class="cls-5" d="M.07,192a17,17,0,0,0,8.16,16.21c19.71,11.77,77.89,59.37,220,59.7,139.71.33,198.14-50.47,218.85-64.68a17.29,17.29,0,0,0,6.85-19.14,244.27,244.27,0,0,0-24.33-55.77c17.38,33.47,16.78,75-72.8,91.94-90.22,17-377.7-79.61-283.19-161.24C13.47,109.35,2.14,168.75.07,192Z"/><path class="cls-6" d="M15.31,168.16c-.85-7.31,29.11,22.28,24,26.58S18.85,198.71,15.31,168.16Z"/><path class="cls-6" d="M426.35,201.05c-3.37-1.65,27-15.55,25.48-10.27S440.43,207.94,426.35,201.05Z"/><path class="cls-6" d="M67.49,77.37C64.33,75.46,87,71,86.79,74.71S80.66,85.38,67.49,77.37Z"/><path class="cls-6" d="M44.68,193c-5.13-1-4.81-7.09,2.78-3S51.26,194.23,44.68,193Z"/><path class="cls-6" d="M365.19,200c-5.13-1-4.81-7.09,2.78-3S371.77,201.3,365.19,200Z"/><path class="cls-6" d="M159.38,195.51c-5.12-1-4.81-7.09,2.79-3S166,196.78,159.38,195.51Z"/><path class="cls-6" d="M84.81,64.93c-5.12-1-4.81-7.08,2.79-3S91.4,66.2,84.81,64.93Z"/><path class="cls-6" d="M116,239.41c-12.36-6.94,7.51-11.64,8.1-5.52S127.21,245.73,116,239.41Z"/><path class="cls-6" d="M130.76,238.82c4.7-.7,6.52-5.13,1.58-5.13S122.86,240,130.76,238.82Z"/><path class="cls-6" d="M230.07,23.47c-12.37-6.95,7.5-11.65,8.09-5.53S241.32,29.78,230.07,23.47Z"/><path class="cls-6" d="M244.88,22.87c4.7-.7,6.51-5.13,1.58-5.13S237,24.06,244.88,22.87Z"/><path class="cls-6" d="M268.8,251c4.7-.71,6.51-5.13,1.58-5.13S260.9,252.15,268.8,251Z"/><path class="cls-6" d="M83.77,187c4.7-.71,6.51-5.13,1.58-5.13S75.87,188.17,83.77,187Z"/><path class="cls-6" d="M320.42,216.88c7.44-.34,3.66-8.77,0-7S316.18,217.07,320.42,216.88Z"/><path class="cls-6" d="M256.87,255.71c7.44-.34,3.66-8.77,0-7S252.63,255.9,256.87,255.71Z"/><path class="cls-6" d="M181.57,142.12c12.52-.57,6.16-14.75,0-11.75S174.44,142.45,181.57,142.12Z"/><path class="cls-6" d="M173.18,209.22c12.51-.57,6.16-14.75,0-11.75S166,209.55,173.18,209.22Z"/><path class="cls-6" d="M444.38,187.35c7.44-.33,3.66-8.76,0-7S440.14,187.55,444.38,187.35Z"/><path class="cls-6" d="M328.9,209.9c2.75.31,3.85-3.42,1-4S325.05,209.46,328.9,209.9Z"/><path class="cls-6" d="M195,144.15c2.75.31,3.85-3.42,1-4S191.17,143.72,195,144.15Z"/><ellipse class="cls-7" cx="292.1" cy="64.09" rx="45.23" ry="91.81" transform="translate(112.62 303.3) rotate(-65.49)"/><g class="cls-8"><path class="cls-9" d="M228.9,34.63c0-6.9-9.66-5.64-12.4-5.15l-.19,0-.57.12C210.12,30.25,228.9,41.21,228.9,34.63Z"/><path class="cls-9" d="M176.09,39.84l-.19,0-.57.11c-2.11.24-.79,1.92,1.69,3.6a26.78,26.78,0,0,0,2.78,1.61c4,2,8.69,3.09,8.69-.21C188.5,38.09,178.83,39.35,176.09,39.84Z"/><path class="cls-9" d="M257.6,17.25l-.2,0-.56.11c-2.11.24-.79,1.93,1.69,3.6a26.78,26.78,0,0,0,2.78,1.61c4,2,8.69,3.09,8.69-.21C270,15.5,260.34,16.76,257.6,17.25Z"/><path class="cls-9" d="M281.85,13.86c0-7-10-5.6-12.55-5.12l-.62.12c-1.05.12-1.25.6-.87,1.26a3.26,3.26,0,0,0,.56.71C271.28,13.87,281.84,18.8,281.85,13.86Z"/><path class="cls-9" d="M299.21,63.6c0-6-7.4-5.82-11.1-5.35-.43.06-.73.11-1,.17l-.46.07-.56.11c-1.06.12-1.26.6-.88,1.26,1.63,2.86,14,9.1,14,3.74Z"/><path class="cls-9" d="M220.32,112.88l-.19,0-.57.11c-1.4.16-1.28,1-.31,2a22.29,22.29,0,0,0,9,4.83l.49.11c2.26.46,4,.1,4-1.91C232.73,111.13,223.06,112.38,220.32,112.88Z"/><path class="cls-9" d="M353.23,58.69a3.31,3.31,0,0,0,2-.38,1.89,1.89,0,0,0,.8-1.7c0-7-10-5.61-12.54-5.13l-.62.12c-1.06.12-1.25.6-.88,1.26a8.88,8.88,0,0,0,2.57,2.34C347.09,56.87,350.72,58.52,353.23,58.69Z"/><path class="cls-9" d="M343.49,127.78c-.42.07-.62.12-.62.12-1.06.12-1.25.6-.88,1.26a8.74,8.74,0,0,0,2.57,2.33c2.48,1.68,6.11,3.33,8.62,3.5a3.38,3.38,0,0,0,2.05-.39,1.89,1.89,0,0,0,.8-1.7C356,125.91,346.07,127.3,343.49,127.78Z"/><path class="cls-9" d="M280.51,81.54c-.57.32-.76.64-.7.95.38,1.22,4.64,2.17,8.51,2.17.56,0,1.1,0,1.63-.06,3.16-.25,5.59-1.28,4.63-3.55C291.48,73.65,280.51,81.54,280.51,81.54Z"/><path class="cls-9" d="M217.93,8.87a23.47,23.47,0,0,0,3.25,0c.52,0,1-.11,1.5-.19a4.68,4.68,0,0,0,3.06-1.49,1.88,1.88,0,0,0,.07-1.87c-3.11-7.41-14.07.49-14.07.49a1.49,1.49,0,0,0-.64.59c-.43.82,1.22,1.6,3.59,2.07.49.09,1,.18,1.54.25S217.36,8.83,217.93,8.87Z"/><path class="cls-9" d="M377.25,102.39c-3.11-7.4-14.07.5-14.07.5-1.23.69-.81,1.38.47,1.94a9,9,0,0,0,1.12.39,19,19,0,0,0,2.91.57c.53.07,1.08.13,1.64.16s1.12.06,1.67.06c3.36,0,6.37-.72,6.47-2.58A2.33,2.33,0,0,0,377.25,102.39Z"/><path class="cls-9" d="M331.88,39.76a11.72,11.72,0,0,0,2.82-.52,3.31,3.31,0,0,0,1.74-1.15,1.87,1.87,0,0,0,.08-1.88c-2.33-5.55-9.08-2.5-12.31-.62a20.46,20.46,0,0,0-1.76,1.12c-1.24.68-.82,1.38.47,1.94A11.73,11.73,0,0,0,324,39,24.31,24.31,0,0,0,331.88,39.76Z"/><path class="cls-9" d="M180.65,66.5s-.69-.49-1.77-1.12c-3.23-1.87-10-4.92-12.3.63a1.87,1.87,0,0,0,.07,1.88A3.35,3.35,0,0,0,168.39,69a11.81,11.81,0,0,0,2.82.52,24.31,24.31,0,0,0,7.85-.72,8.79,8.79,0,0,0,1.11-.4C181.46,67.89,181.88,67.19,180.65,66.5Z"/><path class="cls-9" d="M89.35,95.7A1.87,1.87,0,0,0,89,98.34a4.84,4.84,0,0,0,.75.87,14.35,14.35,0,0,0,3.82,2.34c.51.23,1,.44,1.55.63a22.49,22.49,0,0,0,4.46,1.18,6,6,0,0,0,2.08,0c.74-.17,1-.65.31-1.49C102,101.88,95.2,90.21,89.35,95.7Z"/><path class="cls-9" d="M184.08,9.19l-.47-.32c-2.17-1.43-10.89-6.64-13.6-.17a2.2,2.2,0,0,0-.17.83c0,.06,0,.14,0,.2.1,1.88,3.14,2.58,6.47,2.58.55,0,1.11,0,1.67-.06a18.63,18.63,0,0,0,5.67-1.12,4,4,0,0,0,.79-.44c.4-.31.53-.64.31-1A1.73,1.73,0,0,0,184.08,9.19Z"/><path class="cls-9" d="M126.2,73.72a1.74,1.74,0,0,0-.63-.52s-11-7.89-14.07-.49a1.87,1.87,0,0,0,.08,1.88,3.37,3.37,0,0,0,1.74,1.15,11.63,11.63,0,0,0,2.82.52,25.61,25.61,0,0,0,4.94-.15c.53-.07,1-.15,1.54-.25,1.95-.39,3.44-1,3.66-1.64A.54.54,0,0,0,126.2,73.72Z"/><path class="cls-9" d="M139.84,132.48S126.41,131,127.35,139a1.89,1.89,0,0,0,1,1.6c1.62.8,4.87-.58,7.67-2.41C139.74,135.73,142.67,132.47,139.84,132.48Z"/><path class="cls-9" d="M105.91,42a8.41,8.41,0,0,0,.78-.89c.85-1.12.87-1.93-.55-1.92,0,0-.84-.09-2.08-.11-3.74,0-11.11.64-10.4,6.61.29,2.46,2.91,2.15,5.78.81A24.48,24.48,0,0,0,105.91,42Z"/><path class="cls-9" d="M282.53,44.43s-.84-.09-2.08-.11c-3.74,0-11.11.64-10.4,6.61a1.87,1.87,0,0,0,1,1.6C274.8,54.41,287.49,44.4,282.53,44.43Z"/><path class="cls-9" d="M343,86.86c.85-1.12.87-1.93-.54-1.92,0,0-.84-.09-2.09-.11-3.73,0-11.1.64-10.4,6.61.29,2.46,2.92,2.15,5.79.81a24.48,24.48,0,0,0,6.47-4.5A9.52,9.52,0,0,0,343,86.86Z"/><path class="cls-9" d="M198.32,117.52c.29-.19.33-.59,0-1.24,0,0-4.06-12.88-11-8.81a1.87,1.87,0,0,0-.89,2.5,6.45,6.45,0,0,0,1.39,2.06,20.69,20.69,0,0,0,3.73,3C194.42,116.89,197.46,118.11,198.32,117.52Z"/><path class="cls-9" d="M380.46,68.73s-.07-.2-.19-.53c-.88-2.43-4.74-11.83-10.79-8.27-5.32,3.13,11,12.68,11.17,9.6a1.82,1.82,0,0,0-.19-.79Z"/><path class="cls-9" d="M211.4,131s-12.18-5.84-13.93,2a1.9,1.9,0,0,0,.4,1.84,3.38,3.38,0,0,0,1.92.82c2.48.39,6.39-.43,9.18-1.52S213.41,131.64,211.4,131Z"/><path class="cls-9" d="M127.6,30.5l-.53-.24c-2.39-1-11.87-4.61-13.41,2.23-.72,3.22,4.11,3.18,8.44,2.11a22.86,22.86,0,0,0,4.35-1.53,6.05,6.05,0,0,0,1.73-1.15C128.69,31.36,128.61,30.84,127.6,30.5Z"/><path class="cls-9" d="M328.23,50.54a2.45,2.45,0,0,0-.37.34,1.78,1.78,0,0,0-.5.65,1.92,1.92,0,0,0,0,1.51,4.6,4.6,0,0,0,.54,1,17,17,0,0,0,4.58,4.08c2.81,1.82,5.85,3,6.71,2.46.29-.2.33-.6,0-1.24C339.21,59.36,335.15,46.47,328.23,50.54Z"/><path class="cls-9" d="M324.59,153.57s-12.18-5.84-13.94,2c-.9,4,6.86,3,11.5,1.14C324.93,155.62,326.6,154.26,324.59,153.57Z"/></g><path class="cls-10" d="M215.74,27.49s13.17-3,13.16,5C228.9,39.07,210.12,28.11,215.74,27.49Z"/><path class="cls-6" d="M228.9,32.49c.14,3.29-16-4.81-11.13-5.34-1.2.15-2,.34-2,.34C210.12,28.11,228.9,39.07,228.9,32.49Z"/><path class="cls-11" d="M175.33,37.84s13.17-3,13.16,5C188.49,49.43,169.7,38.47,175.33,37.84Z"/><path class="cls-6" d="M188.49,42.84c.13,3.29-16-4.8-11.14-5.34-1.19.15-2,.34-2,.34C169.7,38.47,188.49,49.43,188.49,42.84Z"/><path class="cls-12" d="M256.84,15.25s13.16-3,13.16,5C270,26.84,251.21,15.88,256.84,15.25Z"/><path class="cls-6" d="M270,20.25c.13,3.29-16-4.8-11.14-5.34-1.2.15-2,.34-2,.34C251.21,15.88,270,26.84,270,20.25Z"/><path class="cls-13" d="M268.68,6.72s13.17-3,13.17,5C281.84,18.31,263.06,7.34,268.68,6.72Z"/><path class="cls-6" d="M281.85,11.72c.13,3.29-16-4.8-11.14-5.34-1.2.15-2,.34-2,.34C263.06,7.34,281.84,18.31,281.85,11.72Z"/><path class="cls-14" d="M286.05,56.46s13.16-3,13.16,5C299.2,68.05,280.42,57.09,286.05,56.46Z"/><path class="cls-6" d="M299.21,61.46c.13,3.29-16-4.8-11.14-5.34-1.2.15-2,.34-2,.34C280.42,57.09,299.2,68.05,299.21,61.46Z"/><path class="cls-15" d="M219.56,110.88s13.17-3,13.16,5C232.72,122.47,213.94,111.51,219.56,110.88Z"/><path class="cls-6" d="M232.72,115.88c.14,3.29-16-4.8-11.13-5.34-1.2.15-2,.34-2,.34C213.94,111.51,232.72,122.47,232.72,115.88Z"/><path class="cls-16" d="M342.92,49.46s13.16-3,13.16,5C356.07,61.05,337.29,50.09,342.92,49.46Z"/><path class="cls-6" d="M356.08,54.47c.13,3.29-16-4.81-11.14-5.35-1.2.15-2,.34-2,.34C337.29,50.09,356.07,61.05,356.08,54.47Z"/><path class="cls-17" d="M342.87,125.76s13.16-3,13.16,5C356,137.35,337.24,126.39,342.87,125.76Z"/><path class="cls-6" d="M356,130.76c.13,3.29-16-4.8-11.14-5.34-1.2.15-2,.34-2,.34C337.24,126.39,356,137.35,356,130.76Z"/><path class="cls-18" d="M280.51,79.4s11-7.89,14.07-.49C297.13,85,275.57,82.16,280.51,79.4Z"/><path class="cls-6" d="M294.58,78.91c1.4,3-16.6,1.77-12.34-.61-1,.6-1.73,1.1-1.73,1.1C275.57,82.16,297.13,85,294.58,78.91Z"/><path class="cls-19" d="M211.74,3.66s11-7.9,14.07-.49C228.36,9.24,206.8,6.42,211.74,3.66Z"/><path class="cls-6" d="M225.81,3.17c1.4,3-16.6,1.77-12.34-.61-1,.6-1.73,1.1-1.73,1.1C206.8,6.42,228.36,9.24,225.81,3.17Z"/><path class="cls-20" d="M363.18,100.75s11-7.9,14.07-.5C379.8,106.33,358.24,103.5,363.18,100.75Z"/><path class="cls-6" d="M377.25,100.25c1.4,3-16.6,1.78-12.34-.6-1,.6-1.73,1.1-1.73,1.1C358.24,103.5,379.8,106.33,377.25,100.25Z"/><path class="cls-21" d="M322.45,34.57s11-7.9,14.07-.5C339.07,40.15,317.5,37.32,322.45,34.57Z"/><path class="cls-6" d="M336.52,34.07c1.39,3-16.61,1.77-12.34-.6a19.77,19.77,0,0,0-1.73,1.1C317.5,37.32,339.07,40.15,336.52,34.07Z"/><path class="cls-22" d="M180.65,64.36s-11-7.89-14.07-.49C164,69.94,185.59,67.12,180.65,64.36Z"/><path class="cls-6" d="M166.58,63.87c-1.4,3,16.6,1.77,12.34-.6,1,.6,1.73,1.09,1.73,1.09C185.59,67.12,164,69.94,166.58,63.87Z"/><path class="cls-23" d="M102,99.74s-6.8-11.67-12.65-6.18C84.55,98.08,105.4,104.26,102,99.74Z"/><path class="cls-6" d="M89.35,93.56c-2.49,2.16,14.45,8.37,11.52,4.47A19.64,19.64,0,0,1,102,99.74C105.4,104.26,84.55,98.08,89.35,93.56Z"/><path class="cls-24" d="M184.08,7.05s-11-7.9-14.07-.49C167.46,12.63,189,9.81,184.08,7.05Z"/><path class="cls-6" d="M170,6.56c-1.4,3,16.6,1.77,12.34-.61,1,.6,1.73,1.1,1.73,1.1C189,9.81,167.46,12.63,170,6.56Z"/><path class="cls-25" d="M125.57,71.06s-11-7.89-14.07-.49C109,76.64,130.52,73.82,125.57,71.06Z"/><path class="cls-6" d="M111.5,70.57c-1.4,3,16.6,1.77,12.34-.61,1,.61,1.73,1.1,1.73,1.1C130.52,73.82,109,76.64,111.5,70.57Z"/><path class="cls-26" d="M139.84,130.34s-13.43-1.46-12.49,6.51C128.12,143.39,145.5,130.31,139.84,130.34Z"/><path class="cls-6" d="M127.35,136.85c.26,3.28,15.32-6.64,10.44-6.61,1.21,0,2.05.1,2.05.1C145.5,130.31,128.12,143.39,127.35,136.85Z"/><path class="cls-27" d="M106.14,37s-13.42-1.47-12.48,6.5C94.43,50.07,111.81,37,106.14,37Z"/><path class="cls-6" d="M93.66,43.53c.25,3.29,15.32-6.64,10.44-6.6,1.2,0,2,.1,2,.1C111.81,37,94.43,50.07,93.66,43.53Z"/><path class="cls-28" d="M282.53,42.29s-13.43-1.47-12.48,6.5C270.82,55.33,288.19,42.25,282.53,42.29Z"/><path class="cls-6" d="M270.05,48.79c.25,3.29,15.32-6.64,10.44-6.6,1.2,0,2,.1,2,.1C288.19,42.25,270.82,55.33,270.05,48.79Z"/><path class="cls-29" d="M342.43,82.8S329,81.33,329.94,89.3C330.72,95.84,348.09,82.76,342.43,82.8Z"/><path class="cls-6" d="M329.94,89.3c.26,3.29,15.32-6.64,10.44-6.61,1.21,0,2.05.11,2.05.11C348.09,82.76,330.72,95.84,329.94,89.3Z"/><path class="cls-30" d="M198.36,114.14s-4.06-12.88-11-8.81C181.71,108.67,200.67,119.31,198.36,114.14Z"/><path class="cls-6" d="M187.38,105.33c-2.9,1.55,12.25,11.35,10.25,6.89.48,1.11.73,1.92.73,1.92C200.67,119.31,181.71,108.67,187.38,105.33Z"/><path class="cls-31" d="M380.46,66.6s-4.06-12.88-11-8.81C363.8,61.13,382.77,71.77,380.46,66.6Z"/><path class="cls-6" d="M369.48,57.79c-2.91,1.55,12.24,11.35,10.25,6.89.47,1.11.73,1.92.73,1.92C382.77,71.77,363.8,61.13,369.48,57.79Z"/><path class="cls-32" d="M211.4,128.81s-12.18-5.84-13.93,2C196,137.23,216.76,130.65,211.4,128.81Z"/><path class="cls-6" d="M197.47,130.8c-.85,3.18,16.65-1.18,12-2.77,1.13.41,1.89.78,1.89.78C216.76,130.65,196,137.23,197.47,130.8Z"/><path class="cls-33" d="M127.6,28.36s-12.18-5.84-13.94,2C112.22,36.78,133,30.2,127.6,28.36Z"/><path class="cls-6" d="M113.66,30.35c-.85,3.18,16.66-1.18,12-2.77,1.14.41,1.9.78,1.9.78C133,30.2,112.22,36.78,113.66,30.35Z"/><path class="cls-34" d="M339.21,57.22s-4.06-12.89-11-8.82C322.56,51.74,341.53,62.38,339.21,57.22Z"/><path class="cls-6" d="M328.23,48.4c-2.9,1.56,12.25,11.35,10.25,6.9.48,1.11.73,1.92.73,1.92C341.53,62.38,322.56,51.74,328.23,48.4Z"/><path class="cls-35" d="M324.59,151.43s-12.18-5.84-13.94,2C309.21,159.85,329.94,153.27,324.59,151.43Z"/><path class="cls-6" d="M310.65,153.43c-.85,3.18,16.66-1.19,12-2.77,1.13.41,1.9.77,1.9.77C329.94,153.27,309.21,159.85,310.65,153.43Z"/></g></g></g></svg>