<svg xmlns="http://www.w3.org/2000/svg" xmlns:xlink="http://www.w3.org/1999/xlink" viewBox="0 0 292.41 297.85"><defs><style>.cls-1{isolation:isolate;}.cls-2{fill:url(#linear-gradient);}.cls-3{fill:url(#Gradient_158);}.cls-4{fill:url(#Gradient_161);}.cls-5{fill:url(#Gradient_162);}.cls-35,.cls-38,.cls-39,.cls-6,.cls-60,.cls-67,.cls-68,.cls-69,.cls-70,.cls-71,.cls-72,.cls-73,.cls-74,.cls-75,.cls-76,.cls-82,.cls-85{mix-blend-mode:multiply;}.cls-7{fill:url(#Gradient_105);}.cls-8{fill:url(#Gradient_105-2);}.cls-9{fill:url(#Gradient_105-3);}.cls-10{fill:url(#Gradient_105-4);}.cls-11{fill:url(#Gradient_105-5);}.cls-12{fill:url(#Gradient_105-6);}.cls-13{fill:url(#Gradient_105-7);}.cls-14{fill:url(#Gradient_105-8);}.cls-15{fill:url(#Gradient_105-9);}.cls-16{fill:url(#Gradient_105-10);}.cls-17{fill:url(#Gradient_105-11);}.cls-18{fill:url(#Gradient_105-12);}.cls-19{fill:url(#Gradient_105-13);}.cls-20{fill:url(#Gradient_105-14);}.cls-21{fill:url(#Gradient_105-15);}.cls-22{fill:url(#Gradient_105-16);}.cls-23{fill:url(#Gradient_105-17);}.cls-24{fill:url(#Gradient_105-18);}.cls-25{fill:url(#Gradient_105-19);}.cls-26{fill:url(#Gradient_105-20);}.cls-27{fill:url(#Gradient_105-21);}.cls-28{fill:url(#Gradient_105-22);}.cls-29{fill:url(#Gradient_105-23);}.cls-30{fill:url(#Gradient_105-24);}.cls-31{fill:url(#Gradient_105-25);}.cls-32{fill:url(#Gradient_105-26);}.cls-33{fill:url(#Gradient_105-27);}.cls-34{fill:url(#Gradient_105-28);}.cls-35,.cls-36,.cls-38,.cls-70,.cls-71,.cls-82,.cls-84{opacity:0.5;}.cls-35{fill:url(#Gradient_160);}.cls-36,.cls-86,.cls-89{mix-blend-mode:soft-light;}.cls-37{fill:#ffe29e;}.cls-38{fill:#a11010;}.cls-39,.cls-60,.cls-68,.cls-69{opacity:0.3;}.cls-40{fill:url(#Gradient_159);}.cls-41{fill:url(#Gradient_159-2);}.cls-42{fill:url(#Gradient_159-3);}.cls-43{fill:url(#Gradient_159-4);}.cls-44{fill:url(#Gradient_159-5);}.cls-45{fill:url(#Gradient_159-6);}.cls-46{fill:url(#Gradient_159-7);}.cls-47{fill:url(#Gradient_159-8);}.cls-48{fill:url(#Gradient_159-9);}.cls-49{fill:url(#Gradient_159-10);}.cls-50{fill:url(#Gradient_159-11);}.cls-51{fill:url(#Gradient_159-12);}.cls-52{fill:url(#Gradient_159-13);}.cls-53{fill:url(#Gradient_159-14);}.cls-54{fill:url(#Gradient_159-15);}.cls-55{fill:url(#Gradient_159-16);}.cls-56{fill:url(#Gradient_159-17);}.cls-57{fill:url(#Gradient_159-18);}.cls-58{fill:url(#Gradient_159-19);}.cls-59{fill:url(#Gradient_159-20);}.cls-60{fill:#c91010;}.cls-61{fill:#ffe8ea;}.cls-62{opacity:0.95;fill:url(#Gradient_163);}.cls-63{fill:url(#Gradient_165);}.cls-64{fill:url(#Gradient_165-2);}.cls-65{fill:url(#Gradient_165-3);}.cls-66{fill:url(#Gradient_163-2);}.cls-67{fill:url(#Gradient_166);}.cls-68{fill:#b30010;}.cls-69{fill:#ce0010;}.cls-70{fill:#c40010;}.cls-71{fill:#d81310;}.cls-72,.cls-73,.cls-74,.cls-75{opacity:0.78;}.cls-72{fill:url(#Gradient_167);}.cls-73{fill:url(#Gradient_167-2);}.cls-74{fill:url(#Gradient_167-3);}.cls-75{fill:url(#Gradient_167-4);}.cls-76{fill:#9c0010;opacity:0.8;}.cls-77{fill:url(#Gradient_168);}.cls-78,.cls-79,.cls-80,.cls-81{opacity:0.76;mix-blend-mode:screen;}.cls-78{fill:url(#Gradient_132);}.cls-79{fill:url(#Gradient_132-2);}.cls-80{fill:url(#Gradient_132-3);}.cls-81{fill:url(#Gradient_132-4);}.cls-82,.cls-85{fill:#8b0010;}.cls-83,.cls-84{fill:#ff1f6a;mix-blend-mode:color-dodge;}.cls-85{opacity:0.4;}.cls-86{fill:#ffe8c9;}.cls-87{fill:#fff;}.cls-88{fill:#ffd6bf;}.cls-89{fill:#ffbdb3;}.cls-90{fill:#ff9fff;}</style><linearGradient id="linear-gradient" x1="-119.07" y1="202.22" x2="130.32" y2="202.22" gradientTransform="translate(154.8 31.97) rotate(8.98)" gradientUnits="userSpaceOnUse"><stop offset="0" stop-color="#e98c4b"/><stop offset="0.07" stop-color="#a43148"/><stop offset="0.09" stop-color="#a63345"/><stop offset="0.19" stop-color="#b03d34"/><stop offset="0.32" stop-color="#b84429"/><stop offset="0.5" stop-color="#bc4822"/><stop offset="1" stop-color="#bd4920"/></linearGradient><linearGradient id="Gradient_158" x1="-118.92" y1="179.54" x2="129.77" y2="179.54" gradientTransform="translate(154.8 31.97) rotate(8.98)" gradientUnits="userSpaceOnUse"><stop offset="0" stop-color="#d94f36"/><stop offset="1" stop-color="#f56f31"/></linearGradient><linearGradient id="Gradient_161" x1="-147.64" y1="103.7" x2="149.12" y2="145.67" gradientTransform="translate(154.8 31.97) rotate(8.98)" gradientUnits="userSpaceOnUse"><stop offset="0" stop-color="#ff9b86"/><stop offset="1" stop-color="#ffc39a"/></linearGradient><linearGradient id="Gradient_162" x1="-138.25" y1="40.44" x2="156.76" y2="82.17" gradientTransform="translate(154.8 31.97) rotate(8.98)" gradientUnits="userSpaceOnUse"><stop offset="0" stop-color="#ffbeb2"/><stop offset="1" stop-color="#ffe6ae"/></linearGradient><linearGradient id="Gradient_105" x1="-189.88" y1="323.48" x2="-191.36" y2="319.34" gradientTransform="matrix(0.88, 0.48, -0.48, 0.88, 526.26, 92.03)" gradientUnits="userSpaceOnUse"><stop offset="0" stop-color="#ffdbea"/><stop offset="0.1" stop-color="#f9cfe2"/><stop offset="0.27" stop-color="#e8b0ce"/><stop offset="0.51" stop-color="#ce7eac"/><stop offset="0.79" stop-color="#a9397f"/><stop offset="1" stop-color="#8b0059"/></linearGradient><linearGradient id="Gradient_105-2" x1="-228.39" y1="323.16" x2="-231.87" y2="313.4" xlink:href="#Gradient_105"/><linearGradient id="Gradient_105-3" x1="-218.74" y1="313.06" x2="-220.27" y2="308.75" xlink:href="#Gradient_105"/><linearGradient id="Gradient_105-4" x1="-229.38" y1="610.12" x2="-233.09" y2="599.31" gradientTransform="matrix(1.34, 0.73, -0.7, 1.29, 842.87, -352.54)" xlink:href="#Gradient_105"/><linearGradient id="Gradient_105-5" x1="-186.73" y1="302.83" x2="-189.86" y2="294.04" xlink:href="#Gradient_105"/><linearGradient id="Gradient_105-6" x1="-219.24" y1="330.93" x2="-221.58" y2="324.34" xlink:href="#Gradient_105"/><linearGradient id="Gradient_105-7" x1="-289.09" y1="364.9" x2="-292.69" y2="354.79" xlink:href="#Gradient_105"/><linearGradient id="Gradient_105-8" x1="-211.62" y1="313.3" x2="-212.63" y2="310.45" xlink:href="#Gradient_105"/><linearGradient id="Gradient_105-9" x1="-373.21" y1="358.45" x2="-373.21" y2="355.17" xlink:href="#Gradient_105"/><linearGradient id="Gradient_105-10" x1="-172.39" y1="288.38" x2="-173.41" y2="285.51" xlink:href="#Gradient_105"/><linearGradient id="Gradient_105-11" x1="-274.54" y1="330.5" x2="-276.86" y2="324" xlink:href="#Gradient_105"/><linearGradient id="Gradient_105-12" x1="-233.35" y1="338" x2="-234.65" y2="334.36" xlink:href="#Gradient_105"/><linearGradient id="Gradient_105-13" x1="-298.04" y1="355.28" x2="-299.86" y2="350.16" xlink:href="#Gradient_105"/><linearGradient id="Gradient_105-14" x1="-266.36" y1="357.49" x2="-268.08" y2="352.66" xlink:href="#Gradient_105"/><linearGradient id="Gradient_105-15" x1="-227.69" y1="326.46" x2="-228.96" y2="322.89" xlink:href="#Gradient_105"/><linearGradient id="Gradient_105-16" x1="-281.9" y1="356.97" x2="-282.96" y2="353.99" xlink:href="#Gradient_105"/><linearGradient id="Gradient_105-17" x1="155.24" y1="408.52" x2="155.24" y2="386.8" gradientTransform="translate(-200.24 -143.19) rotate(-9.09)" xlink:href="#Gradient_105"/><linearGradient id="Gradient_105-18" x1="-334.54" y1="375.26" x2="-336.11" y2="370.86" xlink:href="#Gradient_105"/><linearGradient id="Gradient_105-19" x1="-339.84" y1="366.35" x2="-344.23" y2="354.01" xlink:href="#Gradient_105"/><linearGradient id="Gradient_105-20" x1="-356.1" y1="368.21" x2="-357.6" y2="364" xlink:href="#Gradient_105"/><linearGradient id="Gradient_105-21" x1="-366.02" y1="378.49" x2="-366.02" y2="370.89" xlink:href="#Gradient_105"/><linearGradient id="Gradient_105-22" x1="-166.41" y1="296.79" x2="-168.19" y2="291.81" xlink:href="#Gradient_105"/><linearGradient id="Gradient_105-23" x1="-191.6" y1="307.37" x2="-192.35" y2="305.25" xlink:href="#Gradient_105"/><linearGradient id="Gradient_105-24" x1="-263.96" y1="345.94" x2="-267.56" y2="335.84" xlink:href="#Gradient_105"/><linearGradient id="Gradient_105-25" x1="-333.81" y1="350.27" x2="-335.28" y2="346.15" xlink:href="#Gradient_105"/><linearGradient id="Gradient_105-26" x1="36.1" y1="256.64" x2="36.1" y2="243.59" gradientTransform="translate(154.8 31.97) rotate(8.98)" xlink:href="#Gradient_105"/><linearGradient id="Gradient_105-27" x1="-45.12" y1="251.72" x2="-45.12" y2="234.6" gradientTransform="translate(154.8 31.97) rotate(8.98)" xlink:href="#Gradient_105"/><linearGradient id="Gradient_105-28" x1="-25.57" y1="224.1" x2="-25.57" y2="211.86" gradientTransform="translate(154.8 31.97) rotate(8.98)" xlink:href="#Gradient_105"/><linearGradient id="Gradient_160" x1="7.63" y1="214.73" x2="7.63" y2="192.34" gradientTransform="translate(154.8 31.97) rotate(8.98)" gradientUnits="userSpaceOnUse"><stop offset="0" stop-color="#90004a"/><stop offset="0.1" stop-color="#950a51"/><stop offset="0.26" stop-color="#a32565"/><stop offset="0.47" stop-color="#b95286"/><stop offset="0.72" stop-color="#d88fb2"/><stop offset="1" stop-color="#ffdbea"/></linearGradient><linearGradient id="Gradient_159" x1="115.8" y1="154.89" x2="115.8" y2="132.61" gradientTransform="translate(154.8 31.97) rotate(8.98)" gradientUnits="userSpaceOnUse"><stop offset="0" stop-color="#ffdbea"/><stop offset="0.21" stop-color="#eeafb8"/><stop offset="0.48" stop-color="#d9797c"/><stop offset="0.71" stop-color="#ca524f"/><stop offset="0.89" stop-color="#c03a34"/><stop offset="1" stop-color="#bd312a"/></linearGradient><linearGradient id="Gradient_159-2" x1="116.28" y1="163.88" x2="116.28" y2="156.75" xlink:href="#Gradient_159"/><linearGradient id="Gradient_159-3" x1="32.25" y1="159.34" x2="32.25" y2="144.59" xlink:href="#Gradient_159"/><linearGradient id="Gradient_159-4" x1="-23.1" y1="149.97" x2="-23.1" y2="122.16" xlink:href="#Gradient_159"/><linearGradient id="Gradient_159-5" x1="6.11" y1="122.23" x2="6.11" y2="114.34" xlink:href="#Gradient_159"/><linearGradient id="Gradient_159-6" x1="-76.91" y1="185.82" x2="-76.91" y2="171.31" xlink:href="#Gradient_159"/><linearGradient id="Gradient_159-7" x1="-86.78" y1="170.59" x2="-86.78" y2="158.04" xlink:href="#Gradient_159"/><linearGradient id="Gradient_159-8" x1="-118.99" y1="161.56" x2="-118.99" y2="124.28" xlink:href="#Gradient_159"/><linearGradient id="Gradient_159-9" x1="-102.98" y1="123.25" x2="-102.98" y2="109.02" xlink:href="#Gradient_159"/><linearGradient id="Gradient_159-10" x1="-2.19" y1="155.48" x2="-2.19" y2="143.37" xlink:href="#Gradient_159"/><linearGradient id="Gradient_159-11" x1="64.5" y1="207.09" x2="64.5" y2="197.54" xlink:href="#Gradient_159"/><linearGradient id="Gradient_159-12" x1="43.16" y1="196.84" x2="43.16" y2="183.36" xlink:href="#Gradient_159"/><linearGradient id="Gradient_159-13" x1="120.33" y1="120.31" x2="120.33" y2="111.76" xlink:href="#Gradient_159"/><linearGradient id="Gradient_159-14" x1="106.73" y1="126.1" x2="106.73" y2="120.79" xlink:href="#Gradient_159"/><linearGradient id="Gradient_159-15" x1="110.99" y1="200.38" x2="110.99" y2="188.83" xlink:href="#Gradient_159"/><linearGradient id="Gradient_159-16" x1="-33.14" y1="118.9" x2="-33.14" y2="111.39" xlink:href="#Gradient_159"/><linearGradient id="Gradient_159-17" x1="-125.42" y1="95.25" x2="-125.42" y2="80.73" xlink:href="#Gradient_159"/><linearGradient id="Gradient_159-18" x1="-83.95" y1="88.04" x2="-83.95" y2="81.28" xlink:href="#Gradient_159"/><linearGradient id="Gradient_159-19" x1="-46.58" y1="153.2" x2="-46.58" y2="147.72" xlink:href="#Gradient_159"/><linearGradient id="Gradient_159-20" x1="-51.38" y1="186.8" x2="-51.38" y2="175.91" xlink:href="#Gradient_159"/><linearGradient id="Gradient_163" x1="50.41" y1="210.76" x2="50.41" y2="20.39" gradientTransform="translate(111.56 20.17) rotate(6.37)" gradientUnits="userSpaceOnUse"><stop offset="0" stop-color="#f30"/><stop offset="0.34" stop-color="#e01f17"/><stop offset="0.77" stop-color="#bf082f"/><stop offset="1" stop-color="#b30038"/></linearGradient><linearGradient id="Gradient_165" x1="17.48" y1="59.38" x2="17.48" y2="3.37" gradientTransform="translate(111.56 20.17) rotate(6.37)" gradientUnits="userSpaceOnUse"><stop offset="0" stop-color="#dd0908"/><stop offset="0.44" stop-color="#ad0421"/><stop offset="0.8" stop-color="#8c0132"/><stop offset="1" stop-color="#7f0038"/></linearGradient><linearGradient id="Gradient_165-2" x1="76.92" y1="45.89" x2="76.92" y2="-28.45" xlink:href="#Gradient_165"/><linearGradient id="Gradient_165-3" x1="109.33" y1="81.11" x2="109.33" y2="26.69" xlink:href="#Gradient_165"/><linearGradient id="Gradient_163-2" x1="55.05" y1="84.14" x2="55.05" y2="21.82" xlink:href="#Gradient_163"/><linearGradient id="Gradient_166" x1="102.35" y1="216.31" x2="102.35" y2="95.19" gradientTransform="translate(111.56 20.17) rotate(6.37)" gradientUnits="userSpaceOnUse"><stop offset="0" stop-color="#b10059"/><stop offset="0.21" stop-color="#c5397f"/><stop offset="0.49" stop-color="#de7eac"/><stop offset="0.73" stop-color="#f0b0ce"/><stop offset="0.9" stop-color="#fbcfe2"/><stop offset="1" stop-color="#ffdbea"/></linearGradient><linearGradient id="Gradient_167" x1="54.9" y1="71.32" x2="54.9" y2="22.43" gradientTransform="translate(111.56 20.17) rotate(6.37)" gradientUnits="userSpaceOnUse"><stop offset="0" stop-color="#ffdbea"/><stop offset="0.1" stop-color="#fbcfe2"/><stop offset="0.27" stop-color="#f2b0ce"/><stop offset="0.51" stop-color="#e27eac"/><stop offset="0.79" stop-color="#cc397f"/><stop offset="1" stop-color="#ba0059"/></linearGradient><linearGradient id="Gradient_167-2" x1="113.19" y1="70.65" x2="113.19" y2="28.34" xlink:href="#Gradient_167"/><linearGradient id="Gradient_167-3" x1="79.25" y1="25.97" x2="79.25" y2="-26" xlink:href="#Gradient_167"/><linearGradient id="Gradient_167-4" x1="11.17" y1="49.63" x2="11.17" y2="4.82" xlink:href="#Gradient_167"/><linearGradient id="Gradient_168" x1="74.07" y1="95.77" x2="74.07" y2="39.44" gradientTransform="translate(111.56 20.17) rotate(6.37)" gradientUnits="userSpaceOnUse"><stop offset="0" stop-color="#ef0000"/><stop offset="0.42" stop-color="#c3001c"/><stop offset="0.8" stop-color="#a20030"/><stop offset="1" stop-color="#950038"/></linearGradient><linearGradient id="Gradient_132" x1="-13.43" y1="77.19" x2="186.64" y2="77.19" gradientTransform="translate(73.38 12.63) rotate(4.13)" gradientUnits="userSpaceOnUse"><stop offset="0" stop-color="#844fbd"/><stop offset="0.04" stop-color="#7c4ab2"/><stop offset="0.3" stop-color="#503073"/><stop offset="0.53" stop-color="#2e1b42"/><stop offset="0.73" stop-color="#150c1e"/><stop offset="0.89" stop-color="#060308"/><stop offset="1"/></linearGradient><linearGradient id="Gradient_132-2" x1="20.94" y1="39.81" x2="52.76" y2="39.81" gradientTransform="translate(111.56 20.17) rotate(6.37)" xlink:href="#Gradient_132"/><linearGradient id="Gradient_132-3" x1="-60.81" y1="32.23" x2="-16.55" y2="32.23" gradientTransform="translate(111.56 20.17) rotate(6.37)" xlink:href="#Gradient_132"/><linearGradient id="Gradient_132-4" x1="-11.54" y1="17.3" x2="18.76" y2="17.3" gradientTransform="translate(111.56 20.17) rotate(6.37)" xlink:href="#Gradient_132"/></defs><title>cake</title><g class="cls-1"><g id="Layer_2" data-name="Layer 2"><g id="objects"><path class="cls-2" d="M9.76,248.73C7.41,240,5.29,206.75,7.29,204c4.81-6.73,91-30.93,131-24.59,51.29,8.1,110.52,68.71,112.69,74.72s-12.37,37-20,41.5c-7.31,4.36-43.36,3.78-129.52-14.27C42.29,268.91,11,253.45,9.76,248.73Z"/><path class="cls-3" d="M7.29,204C2,214.52,168.79,257.25,250.07,254.13c11.18-.43-63.58-63.74-111.74-74.76S12.91,192.82,7.29,204Z"/><path class="cls-4" d="M273,205.9c-11.08,4-16.48,19.14-11.42,25.38-6,12.84-10.48,21.93-10.48,21.93s-37.85-1.7-103.64-12.1C88.26,231.76,13.6,213.56,8.59,204.82S-4.83,84.35,3.59,78.33,88.81,55.48,129.8,62,289.7,135,292.31,151.63C293.57,159.48,282.83,183.24,273,205.9Z"/><path class="cls-5" d="M3.77,77.13C-5.36,93,279.23,153.38,290.88,153.61S231.43,86.14,162.55,60.77C113.56,42.73,11.17,64.32,3.77,77.13Z"/><g class="cls-6"><path class="cls-7" d="M204.16,281.16c-4.56,2,1,5.46,2.92,3.66S206.71,280,204.16,281.16Z"/><path class="cls-8" d="M165.66,258.56c1-6.3,17.15-.19,11.76,6.14s-4-2.09-8.31-3.18S165.52,259.42,165.66,258.56Z"/><path class="cls-9" d="M183.29,258.21c-1.76,3,.19,5.59,2.89,2.84S184.09,256.88,183.29,258.21Z"/><path class="cls-10" d="M98.49,258.07c-.46-14.56,24.87-11.93,24,.66S98.66,263.42,98.49,258.07Z"/><path class="cls-11" d="M213.25,260.89c-6,5.18,6.31,11.23,10.49,5.51S217.54,257.22,213.25,260.89Z"/><path class="cls-12" d="M170.89,274.85c-2.83-7.28,14.72-3.63,9.85.55S171.78,277.13,170.89,274.85Z"/><path class="cls-13" d="M92.6,264.73c-5.93,9.51,7.54,12.12,12.72,5.77S94.61,261.52,92.6,264.73Z"/><path class="cls-14" d="M188.56,264.84c.87-2.63,3.89-2.46,4.28-.15S188.3,265.64,188.56,264.84Z"/><path class="cls-15" d="M25.49,227.08c.74-2.67,3.75-2.5,4.26-.15S25.27,227.89,25.49,227.08Z"/><path class="cls-16" d="M234.92,261.71c.92-2.63,4-2.47,4.31-.14S234.64,262.52,234.92,261.71Z"/><path class="cls-17" d="M123.71,244.26c-5.49,4.25,5.11,9,8.54,5.89S126.44,242.14,123.71,244.26Z"/><path class="cls-18" d="M157.53,273.61c-2.17,2,3.78,5.15,5.1,3.11S159,272.19,157.53,273.61Z"/><path class="cls-19" d="M94.32,255.9c-2.14-.71-1.4,3.08,1.33,5.36S96.05,256.47,94.32,255.9Z"/><path class="cls-20" d="M120.94,273.6c-4,2.81-1.5,6.53,2.22,3.89S122.13,272.75,120.94,273.6Z"/><path class="cls-21" d="M167.42,267.7c2.31-2.37,7.58-1.93,5.83.93S166.58,268.57,167.42,267.7Z"/><path class="cls-22" d="M106.69,268.72c1.5-3,3.71.21,2.84,1.47S106,270.07,106.69,268.72Z"/><path class="cls-23" d="M8.69,216.06c2.56-4.85,14.13,4.93,13.45,13.82s-7.61,5.33-8.63,2.36S8.69,216.06,8.69,216.06Z"/><path class="cls-24" d="M53,257.06c-1.7.75-1.2,2.28.32,4.24S56.11,255.68,53,257.06Z"/><path class="cls-25" d="M46.52,241.41c1-4.06,5.12-5.39,10.67-1s3.2,10.35,2.28,10.7S43.67,253.38,46.52,241.41Z"/><path class="cls-26" d="M35.41,242.12c-2.24,1.86,1.43,3.87,4.22,2.18S39.73,238.56,35.41,242.12Z"/><path class="cls-27" d="M21.75,248.17c-7.83-4.37-2.47-10.58,3.76-6.59s9,7.59,7.68,7.6S24.54,249.72,21.75,248.17Z"/><path class="cls-28" d="M236.65,269.19c-5.5,4.76,2,4.13,5,1.1S238.07,268,236.65,269.19Z"/><path class="cls-29" d="M210.93,268c-2.19-.81-2.62,2.19.38,2.26S213.12,268.84,210.93,268Z"/><path class="cls-30" d="M128.71,260.64c-9.76,3.59-4.57,7.85-.83,8.69s7.78-3.57,7.78-3.57S140.58,256.28,128.71,260.64Z"/><path class="cls-31" d="M63.69,236.05c-1.38,3.53,3,5.39,4.58,2.37S64.12,235,63.69,236.05Z"/><path class="cls-32" d="M129.42,287.23c-8.6-2.19,1.68-11.75,15.86-10.13s30.08,13.49,30.14,15S147.13,291.73,129.42,287.23Z"/><path class="cls-33" d="M58.92,267.25c-2.51-3.3,8.41-12.74,19-9.84s8.49,15.6,3.33,17.21S58.92,267.25,58.92,267.25Z"/><path class="cls-34" d="M75.91,235.8c-1.25,4.48,5.62,14.8,21.13,12.68s22.19-6.09,18.45-7.36-11.51-3.05-24-4.4S76.49,233.71,75.91,235.8Z"/></g><path class="cls-35" d="M13.66,209.68a81.45,81.45,0,0,0,17.13,11.88c4.27,2.05,9.28,1,13.61.77s6.34,1.73,18.6,4.32c13.09,2.76,17.91,3.85,17.53,5.85s9.8,3.94,14.81,3.29,17.23-1.18,27.27,2.41,2.2,2.68,11.39,5.84,11.3,2.19,16,1.92,7.05,1.3,18.41,5,20.06,1.3,27.26,1.93c10.11.9,15.57,0,17.19.17s15.76,2,21.62,3.43,7.45,1.93,12.1.27,4.83-4.64,4.83-4.64-70.07-2.2-142.75-23.17C64,216.08,70.73,217.19,61.05,217.17S38,214.66,36.38,213c-9.62-9.61-12.81-5.81-18-7.39S8.31,204.55,13.66,209.68Z"/><g class="cls-36"><path class="cls-37" d="M127.71,252.91c-6.24,1.47-1,6.41,10.1,4.27S135,251.19,127.71,252.91Z"/><path class="cls-37" d="M140.61,247.57c-7.53,1.42,6.52,10.44,19.29,7.75S155.67,244.72,140.61,247.57Z"/><path class="cls-37" d="M143.61,262.19c-15.42,8.76,7.41,11.54,11.73,5.19S148.45,259.43,143.61,262.19Z"/><path class="cls-37" d="M181.74,282.86c-9.21,2.82,12.52,10.78,18.78,8.17S194.48,279,181.74,282.86Z"/><path class="cls-37" d="M195.78,273.86c-5.17,2.4,3.91,4.16,4.91,1.58S199.19,272.29,195.78,273.86Z"/><path class="cls-37" d="M223.69,274.43c-6.54,7.84,3.38,8,5.64,2.77S226.23,271.39,223.69,274.43Z"/><path class="cls-37" d="M224.63,259.79c-2.08.76,1.26,2,3.21,1.56S226.72,259,224.63,259.79Z"/><path class="cls-37" d="M74.16,245c-6.44-.49-4,11.56,6.21,11.45S92.21,246.34,74.16,245Z"/><path class="cls-37" d="M90.71,249.46c-3.49,2.11,5.28,4.55,8.16,1.75S92.66,248.28,90.71,249.46Z"/><path class="cls-37" d="M42.16,227.38c-8,.48,7.22,10.28,12.9,9.52s8-5.09,8-5.65S55.44,226.6,42.16,227.38Z"/><path class="cls-37" d="M65.29,233.49c-1.83,1,5.31,2.5,6.06,1.74S68.45,231.73,65.29,233.49Z"/><path class="cls-37" d="M67.08,250.83c-5-2-2.27,4.95-1,5.28S70.71,252.27,67.08,250.83Z"/><path class="cls-37" d="M31.32,228.76c-12.2,4.5,9.36,12.65,11.83,9.34S36.81,226.73,31.32,228.76Z"/></g><path class="cls-38" d="M136.16,277.57c-11,1.44,17.22,13.24,25.64,11.61S159.27,274.55,136.16,277.57Z"/><path class="cls-38" d="M107.68,248.69c-10.13,1.32-9.12,8.16,4.94,12.64S126.45,246.23,107.68,248.69Z"/><path class="cls-38" d="M84.28,236.62c-9.67-.23-4.45,3.45,5.29,7.1s20.69.49,22.3-.92S106.86,237.17,84.28,236.62Z"/><path class="cls-38" d="M126.61,244.44c-4.52-.07-2,5.33,3.36,5.11S131.13,244.52,126.61,244.44Z"/><path class="cls-38" d="M55.33,239.57c-9.42-3-10.38,6.89-.24,10.1S59,240.75,55.33,239.57Z"/><g class="cls-39"><path class="cls-40" d="M229.71,190.06c-10.52,14.73,11.44,12.34,20.88,6.82s12.59,3.94,14.68-1.2S245.13,168.47,229.71,190.06Z"/><path class="cls-41" d="M242.57,206.5c-5.34,7.53,2.53,5.44,5.12,2.36S244.81,203.36,242.57,206.5Z"/><path class="cls-42" d="M154.07,181.85c-13.82,9.41,11.92,16.89,19.63,9.93S163.6,175.37,154.07,181.85Z"/><path class="cls-43" d="M92.4,150.28c-16.24,8.48,1.9,14.92,16.72,24.47s18.69-5.88,25.91-8.66S111.08,140.54,92.4,150.28Z"/><path class="cls-44" d="M140,145.51c-9,.69,4.05,9.13,6.8,8.89S145.14,145.12,140,145.51Z"/><path class="cls-45" d="M43.92,198.65c.48-8,14.26-13.54,14-4.35S43.43,206.63,43.92,198.65Z"/><path class="cls-46" d="M38.12,179.45c0,8.21,7.07,11,10.6,1.67S38.1,173.85,38.12,179.45Z"/><path class="cls-47" d="M5.14,142.61c13.28-17.31,25.7,2.34,21,19-4.63,16.52-13,14.27-18.57,3.9S3,145.34,5.14,142.61Z"/><path class="cls-48" d="M25.79,127.34c-4.94,2,.41,12.23,12.34,9.89S50.92,117.09,25.79,127.34Z"/><path class="cls-49" d="M125.91,181.28c6.67-13.73,10-6.41,3.93.62S125.91,181.28,125.91,181.28Z"/><path class="cls-50" d="M157.07,240.56c7.35,1.4,1.55-8.24,25.25-4.25s33.47,13.07,33.47,13.07S177.89,247.3,157.07,240.56Z"/><path class="cls-51" d="M161.7,224.71c-9.12,8.27,8.79,12,13.69,2.16S166.23,220.6,161.7,224.71Z"/><path class="cls-52" d="M251.89,163.07c-5.61,5.8,5.52,9.45,8.36,3.15S254.1,160.79,251.89,163.07Z"/><path class="cls-53" d="M239,170.05c-3.87,3.75,3.28,3.85,4.59.73S241.94,167.24,239,170.05Z"/><path class="cls-54" d="M235.32,236.75c-18.41,4.8-11.74,13.72,2.07,7.55S239.92,235.55,235.32,236.75Z"/><path class="cls-55" d="M101,136.61c-10.87,1.5.47,9.23,7.88,7.85S107.47,135.71,101,136.61Z"/><path class="cls-56" d="M18.21,92.2c-17.63,1-9.5,12,1.77,14.84S24.61,91.83,18.21,92.2Z"/><path class="cls-57" d="M53.73,98.9c-10.68,0,10.56,8.39,11.28,8S72.72,98.93,53.73,98.9Z"/><path class="cls-58" d="M83.29,172c-2.85,3.38,1.7,5.87,4.32,1.95S84.77,170.21,83.29,172Z"/><path class="cls-59" d="M62.66,199.5c-5.75,4.44,14.17,13,24.84,7.48S70.53,193.44,62.66,199.5Z"/></g><path class="cls-60" d="M110.17,148.66c-22.4-1.25-8.83,17.06,2.29,21.44s20.15-4.4,19.06-8.31S120.63,149.24,110.17,148.66Z"/><path class="cls-60" d="M229.71,190.06c-6.44,6.79,15.21,5.6,22,3.61s-2.61-8.4,3.82-8-4.72-6.54-12.68-4.7S229.71,190.06,229.71,190.06Z"/><path class="cls-60" d="M168.13,235.68c-9.67,1.16,6.9,8.29,19.36,8.63s14.79-2,14.79-2S184.15,233.76,168.13,235.68Z"/><path class="cls-61" d="M21.91,88.6C29.48,93.84,43.26,95.73,56.4,97s3.81,3.93,15.06,7,51.6,12.72,51.6,12.72a227.08,227.08,0,0,1-45.33-21C53.8,81.15,52.5,79.22,26.82,78.56S21.91,88.6,21.91,88.6Z"/><path class="cls-60" d="M140.29,181.12c-4.7,4.56,14.26,12.89,18,4.42S146.47,175.11,140.29,181.12Z"/><path class="cls-62" d="M156.18,50.47C116.23,35.4,81.87,41,62.41,44.72S40.1,61,40.1,61s28.59.8,43.81,4.89-13.17-.32-39.73,7.43C17.8,81,88.36,113.14,116.33,116.52s17.32,21.16,20.58,23.41c12.18,8.43.59,58.59-6.61,70.53S127,234,142.38,235.68c20,2.23,17.76-20.21,17.5-35.9s8.1-56.05,13.9-61.9,7.87,17.47,23.34,20.93c21.12,4.73,22.16-14.26,38.06-15.55s51.11.5,18.31-23.09c-33.18-23.88-33.58-30.62-33.69-37.78S172.42,56.59,156.18,50.47Z"/><path class="cls-63" d="M114.37,80C85.6,74.2,89.09,49.79,104.16,34.69c15.23-15.25,40-11.2,49.88,8.1C163.78,61.89,151.53,87.39,114.37,80Z"/><path class="cls-64" d="M154.94,57.92C137.2,37.54,145.33,11.8,176.43,1.51c31.36-10.37,59.37,35.06,47.88,64.16C213,94.26,154.94,57.92,154.94,57.92Z"/><path class="cls-65" d="M186.64,87.58c-4.17-21.56,3.28-26.11,32.71-27.84s26.07,21.65,22,42.6C237.38,123,192,115.06,186.64,87.58Z"/><path class="cls-66" d="M131.22,97.79c-13.31-24.35-8.36-52,32.4-49.72,41.23,2.32,36.72,32,26.66,48.76C178.56,116.42,139,112,131.22,97.79Z"/><path class="cls-67" d="M135.88,128.63c3.24,4.08,4.66,4,10.55,12.37s-4.09,49.12-11.81,66c-7.64,16.67-8.17,28.16,11.45,29.11s7.47-47.93,13.15-78.29c5.79-30.94,14.42-26.15,17.91-27.24S182.38,143.7,191,153s28.14-1.66,39.09-14.1,24.87-.22,30.24-.43a6.65,6.65,0,0,0,6.33-5.23s3.12,1.83.47,6.73-11.83,2.27-25.3,4.24-21.16,4.85-29.13,18.13-27.73,7.55-28.91-7.89-5.83-19.69-10-15.74-9.83,33.27-12.63,45.82,1.83,24.37,0,34.26-.31,22.25-18.72,22.24-17.29-13.93-14.74-24.9,13.61-35.3,13.13-56.46c-.49-21.43-3.25-15.91-4.52-21.85S135.88,128.63,135.88,128.63Z"/><path class="cls-68" d="M136.84,122.38c-1-4.78,24.46,3.52,32,7.25s-7.07,14-11.6,39.85C152.81,194.91,146.74,196.2,144,168,141.21,139.32,136.84,122.38,136.84,122.38Z"/><path class="cls-68" d="M181.88,131.09c-4.16.35-3.54,19.61,13.12,24.65s30.77-12.06,36.72-15.27S200.77,129.46,181.88,131.09Z"/><path class="cls-68" d="M46.33,76.06c-5,2.9.27,12.94,35.24,26.74,34.76,13.72,49.84,10.26,54.56,10.79S100.28,96.32,108.45,93.8s4.86-17-18-20.84S46.33,76.06,46.33,76.06Z"/><path class="cls-69" d="M131.28,221.39c-4.12,5.53,2.84-18.7,15-22.57s12,13.08,9.82,17.46S139.3,210.63,131.28,221.39Z"/><path class="cls-70" d="M131.78,233.23c-6.89-11.46,2.21-32.52,17.35-32.86s12.61,30.71,2.41,37.74S131.78,233.23,131.78,233.23Z"/><path class="cls-71" d="M181.92,142.13c-.12-9.44,34.5-8.53,33.69.66s13.56-.58,20.9-1.74-27-8.91-47.32-10.17S181.92,142.13,181.92,142.13Z"/><path class="cls-72" d="M156.18,50.47c-24,4.71-32.52,15.69-27.16,35.26,5.3,19.36,22.18,3,32.61-4.94s30.28-4.93,30.78,1.27S203.32,41.21,156.18,50.47Z"/><path class="cls-73" d="M198.05,92.87c-3-3.81-2.06-22.32,5-28.34s26.26-6.08,33.55,6.39,2.45,28-5.39,32.49S209,92.5,206.68,82.68,198.05,92.87,198.05,92.87Z"/><path class="cls-74" d="M186,46.25c-26.17-6.93-35.57-19.06-29.25-28.81S185-6.25,204.34,9.61c19.2,15.74,25.39,41.52,15.07,47.25s-19.87-14.45-26.22-14.49S186,46.25,186,46.25Z"/><path class="cls-75" d="M107.12,69.61c-27.34-7.88-6.18-36.21,11.42-41.83s28.2,12.06,26.34,16.64-14.91,10-18.33,15.41-5-2.86-12.36-3.69,5.39,3,5.32,8.72S107.12,69.61,107.12,69.61Z"/><path class="cls-76" d="M161.18,110.83s15.24,1.74,23.55-.84,3.25-7.6,12.07-4.46,1.8,6.1,18.21,7.63a164,164,0,0,0,29.25.17L238.38,108s-14.25,6-23.69,3.11S196.32,89,195.6,84.58C195.6,84.58,187.35,113.76,161.18,110.83Z"/><path class="cls-76" d="M98.47,72.55s2.13,2.63,13.2,4.2,13.44-7.44,13.44-7.44-1.46,14.56,4.14,24.57c0,0-9.81-3-13.94-6.43s-4-7.36-11.65-10.29S98.47,72.55,98.47,72.55Z"/><path class="cls-70" d="M192.7,3.09c-19.55-6.73-20.62,19.36-.88,36.6,19.57,17.09,28.56,18.09,31.83,15S220.16,12.55,192.7,3.09Z"/><path class="cls-70" d="M98.32,50.5c-6,18.6,21.12,13.55,36.31-.9C150,35,109.58,15.75,98.32,50.5Z"/><path class="cls-70" d="M148.37,54.38C130,65.47,169.63,76.8,185.94,74S179.7,35.5,148.37,54.38Z"/><path class="cls-70" d="M231.69,65.4c-15.37-15.19-29.13,17.69-13.11,29.69S250.34,83.82,231.69,65.4Z"/><path class="cls-77" d="M134.22,93.92c13.81,13.49,50,9.49,59-2.75s14.92,8.92,24.48,14.48,20.49-8.45,25.58-13.3,4.62,10.13,10.71,15.52c11.84,10.5,11,22.49,11,22.49s-3.45,4.54-62.26-4.2-79.95-22.47-77.92-26S104.53,82.24,95,73.63s-2.24-15.88-2.24-15.88-.83,10.15,12.66,13,18.5-6.09,20.71-8S118.15,78.23,134.22,93.92Z"/><path class="cls-78" d="M246.19,113.11c14.36,13.24,6.79,12.66-43.17,7.47S99.92,106,73.34,91.68c-26.76-14.42-20.75-19.27-1.52-22.2s27,3.65,30,7.54,9.3,22.5-27.33,3.15c-13.87-7.33,22,15,73.47,24.67s83.41,17.69,90.85,14.81,1.64-11.05,1.64-11.05Z"/><path class="cls-79" d="M127.77,79.71c-4-14.47,5.72-24.1,14-28.62S160.85,48,161.51,48s-10.74,5.64-17.21,13,4.45,2.59-3.85,11.95S127.77,79.71,127.77,79.71Z"/><path class="cls-80" d="M46.6,53.86s4.9-7.41,17.73-9.5a240.39,240.39,0,0,1,28.15-2.45S87,43.54,74.07,50,46.6,53.86,46.6,53.86Z"/><path class="cls-81" d="M96.7,49.19a33.36,33.36,0,0,1,15.71-18.63c12.28-6.43,17.41-4.94,17.41-4.94s-9.79,2.32-13.44,5.49,9.13.64-1.2,12.07S96.7,49.19,96.7,49.19Z"/><path class="cls-82" d="M244.42,94.73s-8.36,14.33-22.87,13.85-16-15.38-21.82-18.81S194,95,182.28,100.9s-30,3.38-30,3.38,14.52,6.19,26.76,4,1.94-10.45,18.1-9.11.34,2.29-2.21,9.17,26.77,8.42,42.18,6.14,14.69-6.09,11.62-12.62S244.42,94.73,244.42,94.73Z"/><path class="cls-82" d="M131.64,95.1c-15.28-8-11.34-17.54-19-19.78s8-2.69,10.36-5.26S122.21,82.59,131.64,95.1Z"/><path class="cls-82" d="M40.1,61c-6.4-.24,24.6-2.15,37.27-4.53s14.77-.34,13.69,5.59-3.67,5.32-3.67,5.32S58,61.71,40.1,61Z"/><path class="cls-83" d="M230,116.71c-19,3.43-24.14,4.17-27.63,5.62s31.65,7,47.05,6.36,11.77-9.21,8.17-15-4.14-2.81-13.34-.35S230,116.71,230,116.71Z"/><path class="cls-83" d="M149.45,43.27c-7.94-8.51-1.9-15.93.66-21.24s1.64,8.26,13,16.53S154.37,48.56,149.45,43.27Z"/><path class="cls-83" d="M133,86.47c-5-9,11.37-14.34,23.14-13s-7.54,14.33-11.87,15.74,3.31.81,15.83-7.19,28.29-.61,26.07,7.69-22.28,17.2-38.58,9.8S133,86.47,133,86.47Z"/><path class="cls-84" d="M156.89,23.29c-1.39-2.4,4.15-10.89,9.07-13S163.25,34.29,156.89,23.29Z"/><path class="cls-84" d="M124.82,34.29c-3.91,2.71-1.7,9.56,3.73,5.24S127.73,32.27,124.82,34.29Z"/><path class="cls-83" d="M72.75,51.73c-9,5.74,5.47,5.94,14.2-1.85S78.17,48.26,72.75,51.73Z"/><path class="cls-85" d="M142.05,174.09c6.84-30.21,14.06-25.92,15.53-11.05s12.76-19,16.69-27.63-18.64-7.33-30-11.71-5.57,14.87-4.58,16.54,3.37-1.77,3.92,6.6S142.05,174.09,142.05,174.09Z"/><path class="cls-86" d="M137.27,110.62c-7.32,1.36,14.51,13.69,39,16.87s38.71,3.48,55,6.14,19.07-3.7,19.07-3.7-25.25-1.82-44.23-7.18,15.78-3.56-15.13-8.51S145,109.18,137.27,110.62Z"/><path class="cls-87" d="M155.35,210.85c-4-1.27-4.47,6.4-1,8.3S159.69,212.24,155.35,210.85Z"/><path class="cls-87" d="M198.56,129.42c-2.93-.93,8.89-1.36,23.5-1.13s21.15,4.06,18.88,5S209.67,132.93,198.56,129.42Z"/><path class="cls-87" d="M208.65,114.59c-3.81.37,1.8,5.22,6.58,3.16S210.69,114.39,208.65,114.59Z"/><path class="cls-87" d="M231.49,67.51c-4,1.06,2.43,9,4.85,8.74S239.4,65.44,231.49,67.51Z"/><path class="cls-87" d="M178.26,68.57c-6.07,2,1.22,7.23,4.13,3.57S181.31,67.59,178.26,68.57Z"/><path class="cls-87" d="M206.64,22.93c-4.29,1.37-2.95,11.92,7.41,12.09S214.7,20.35,206.64,22.93Z"/><path class="cls-87" d="M124,76.58c-.28-1.21-.18,5.29,1.41,10.47s5,6.34,5.35,6.78A76.68,76.68,0,0,1,124,76.58Z"/><path class="cls-87" d="M85.06,94c-3.94,0,4.73,4.2,12.57,6.28s8.78,1.89,8.78,1.89S102.53,94.14,85.06,94Z"/><path class="cls-87" d="M207.19,101c-2.3-1.59,2.29.07,7.74,3.41s7.19,3.53,7.19,3.53S214.15,110.56,207.19,101Z"/><path class="cls-87" d="M218.83,144.14c-2.58,5,3.26,2.74,4.37.48S219.81,142.22,218.83,144.14Z"/><path class="cls-88" d="M227.1,195.23s.14,5.86,8.58,5.9a29.31,29.31,0,0,0,14.91-4.25s-4.82,7.74-16.62,6.9S227.1,195.23,227.1,195.23Z"/><path class="cls-88" d="M89.43,162.38c3.78,2.78,10.37,4.43,18.62,9.89s11.25,5.65,15.83,2.5A49.74,49.74,0,0,0,131,169s-6.16,6.5-8.34,10.27-13-.42-22.47-7.06S89.43,162.38,89.43,162.38Z"/><path class="cls-88" d="M96.62,138.53c.37,2,4,5.13,8.66,5.52s6.07-.82,6.07-.82-.64,2.83-8.56,1.55S96.62,138.53,96.62,138.53Z"/><path class="cls-88" d="M5.43,160.7s2.19,7.69,9.52,10.62,11.74-12,11.74-12S24.83,173.7,17.2,176,5.43,160.7,5.43,160.7Z"/><path class="cls-88" d="M24,130.41s.61,4.91,10.47,5.49,11.71-6.13,11.71-6.13,3.17,7.82-9.73,8.28S24,130.41,24,130.41Z"/><path class="cls-61" d="M245.76,145s8.77-3.37,21.91-2.09,21.37,6.74,21.9,8.24-3.81,1.92-23-.67S245.76,145,245.76,145Z"/><path class="cls-88" d="M62.66,199.5c-2.93,3.94,8.4,8.79,15.72,8.52s10.28-1.76,10.28-1.76-1.66,5.61-15.72,3.39S58.45,201.24,62.66,199.5Z"/><path class="cls-88" d="M239,170.05c-1.69,4.41,3.45,2.07,3.45,2.07s-.67,3.48-5.23,3.78S239,170.05,239,170.05Z"/><path class="cls-89" d="M168.6,168.3c-.11,3.67,12.25,14.29,11,22s-8.07-5.36-11,10.89,16.45,8.39,13,16.81-5.73,11.38-2.52,14.86,32.83,9.67,40.14,8.6,16.19-15.6,23-12.56,12.62-14.11-4.93-16.61-21.3-12-9.29-24.58,37-3.17,38.56-.29a12.61,12.61,0,0,1,.29,12.29c-2.59,5.3,3.25,6.42,10.6-7.58s15-27.09,7.73-30.87-17.29-14.18-18.07-5.62-6.11,16.18-12.2,14.48-7.19-6-9.8.93-14.05,12.79-12.06,4.33,7.77-11.58,15.3-13.63,14.72-5.79,9.22-8.49-19.15-9.67-28.86-2.67-7.67,22-17.83,28-23.12-4.72-28.18-21.18S168.85,159.92,168.6,168.3Z"/><path class="cls-89" d="M35.1,106.21c-8.18,10.55,9.13,10.66,15.3,19.63S43,142.39,34.83,140.9,31,167.37,27.75,173.21s17.71-16.83,23.92-3.15,21.66,14.77,23.47,9.31,11.71-12.5,15.25-12.89-17.73-11.61-5.75-19.78,2.49-13.78,9-16.83,21.77,3.81,22.53,9.14-.24,3.12,5.52,7.83,18.49,2.84,12.92-3.1,4-9.55-3.54-16.21S82,110.07,77,109.37s-7,5.88-16.14,2.44S44.24,94.41,35.1,106.21Z"/><path class="cls-90" d="M125.31,67.51s2.8-10.72,12.6-16.06a38.63,38.63,0,0,1,20.34-4.22S136.87,49.1,125.31,67.51Z"/></g></g></g></svg>