<svg xmlns="http://www.w3.org/2000/svg" xmlns:xlink="http://www.w3.org/1999/xlink" viewBox="0 0 579.57 189.86"><defs><style>.cls-1{isolation:isolate;}.cls-2{fill:url(#Áåçûìÿííûé_ãðàäèåíò_5);}.cls-3{opacity:0.44;mix-blend-mode:multiply;fill:url(#Áåçûìÿííûé_ãðàäèåíò_1888);}.cls-4,.cls-5,.cls-6,.cls-7{mix-blend-mode:screen;}.cls-4{fill:url(#linear-gradient);}.cls-5,.cls-6{opacity:0.55;}.cls-5{fill:url(#linear-gradient-2);}.cls-6{fill:url(#linear-gradient-3);}.cls-7,.cls-8{fill:#fff;}.cls-7{opacity:0.9;}</style><linearGradient id="Áåçûìÿííûé_ãðàäèåíò_5" x1="259.44" y1="234.11" x2="305.36" y2="21.63" gradientUnits="userSpaceOnUse"><stop offset="0" stop-color="#ff4f00"/><stop offset="0.06" stop-color="#ff5a00"/><stop offset="0.51" stop-color="#ff9f00"/><stop offset="0.84" stop-color="#ffca00"/><stop offset="1" stop-color="#ffdb00"/></linearGradient><linearGradient id="Áåçûìÿííûé_ãðàäèåíò_1888" x1="247.65" y1="-70.39" x2="330.02" y2="281.26" gradientUnits="userSpaceOnUse"><stop offset="0" stop-color="#fff"/><stop offset="0.07" stop-color="#fff0e9"/><stop offset="0.33" stop-color="#ffb897"/><stop offset="0.57" stop-color="#ff8b56"/><stop offset="0.76" stop-color="#ff6a28"/><stop offset="0.91" stop-color="#ff560b"/><stop offset="1" stop-color="#ff4f00"/></linearGradient><linearGradient id="linear-gradient" x1="64.08" y1="78.09" x2="567.19" y2="78.09" gradientUnits="userSpaceOnUse"><stop offset="0"/><stop offset="0.1" stop-color="#050400"/><stop offset="0.23" stop-color="#141100"/><stop offset="0.36" stop-color="#2d2600"/><stop offset="0.5" stop-color="#4f4400"/><stop offset="0.65" stop-color="#7b6a00"/><stop offset="0.81" stop-color="#b19800"/><stop offset="0.97" stop-color="#f0ce00"/><stop offset="1" stop-color="#ffdb00"/></linearGradient><linearGradient id="linear-gradient-2" x1="259.63" y1="153.33" x2="372.66" y2="153.33" xlink:href="#linear-gradient"/><linearGradient id="linear-gradient-3" x1="482.51" y1="101.38" x2="570.57" y2="101.38" xlink:href="#linear-gradient"/></defs><title>cheese</title><g class="cls-1"><g id="Layer_2" data-name="Layer 2"><g id="Ñëîé_1" data-name="Ñëîé 1"><path class="cls-2" d="M250.49,187.69c-4.46,3.58-10.9,2.7-12.44-2.81-2.39-8.56-6.86-18.54-15.19-24.53C206,148.24,84.41,78.22,61.77,72.43c-16.44-4.2-40.66,5.2-56.12,15.1C1.41,90.25-1.64,86.23,1,81.91c4.65-7.71,10.85-18,25-27.38C58.61,33,63.35,47.16,96.52,29.26S135,14.52,159.16,7.68s110-13.16,192.68,0S535.57,28.74,546.63,53c9.78,21.42,35.63,31.72,32.71,50.94a3.66,3.66,0,0,1-6.23,1.91c-5-5.12-17-10.34-44.91-1.79-44.74,13.69-130,48.57-191.1,54.36C294.43,162.42,286.55,158.77,250.49,187.69Z"/><path class="cls-3" d="M437.39,131.53c-85.6,25.87-135,3.16-161.09,21.71s-31.21,36.87-38.7,10.27S195,123.24,151.92,109,115.2,87.7,81.25,67.17,9.39,80.59,12.15,71.51,31.1,45.45,71,42.29s13.43-3.15,47-15.39S197.63,3.21,267.22,3.21a852.29,852.29,0,0,1,87.36,4.9l-2.74-.43C269.19-5.48,183.38.84,159.16,7.68s-29.48,3.69-62.64,21.58S58.61,33,26,54.53C11.82,63.89,5.62,74.2,1,81.91c-2.61,4.32.44,8.34,4.68,5.62,15.46-9.9,39.68-19.3,56.12-15.1C84.41,78.22,206,148.24,222.86,160.35c8.33,6,12.8,16,15.19,24.52,1.54,5.52,8,6.46,12.44,2.82,35.09-28.92,43.94-25.27,86.61-29.31,61.07-5.79,146.36-40.67,191.1-54.36,28-8.55,39.89-3.33,44.91,1.79C540.62,73.77,523,105.66,437.39,131.53Z"/><path class="cls-4" d="M64.08,40.08c21.29-5.48,90.87,47.1,113,63.41s67.91,45.81,205.32,7.9,170.1-43.83,184.81-32.71C560,71.2,551.4,63.4,546.63,53a17,17,0,0,0-4.53-5.63c11.54,11.24-138,72.23-255.55,69.85S84.08,39.67,102.13,26.3c-1.79.92-3.64,1.9-5.61,3C81.7,37.26,72.57,38.85,64.08,40.08Z"/><path class="cls-5" d="M303.54,139.82c-21.71-2-32.14,10.62-43.91,27.22a168.81,168.81,0,0,1,16.67-13.8c18.61-13.25,49.24-5.52,96.36-9.4C340.61,144.59,313.93,140.76,303.54,139.82Z"/><path class="cls-6" d="M570.57,103.43c-16.13-18-24.62-28.54-88.06,11.88C529.29,95.87,546.23,81.41,570.57,103.43Z"/><path class="cls-7" d="M321.3,115.74c-2-4.28,20.85-3.23,18.53-.78S324,121.45,321.3,115.74Z"/><path class="cls-7" d="M237.29,114.19c-4.58-1.33-1.68-8.83.72-8.87S241.85,115.51,237.29,114.19Z"/><path class="cls-7" d="M244.32,114.13a4.42,4.42,0,0,1-1.39-5.91C244,106.66,259.61,122.72,244.32,114.13Z"/><path class="cls-8" d="M524.34,65.5C515,62.89,530.23,52.73,534.41,54S530.48,67.22,524.34,65.5Z"/><path class="cls-8" d="M538.58,59.76c-2.93,2.84.25-10.09,3.2-10.28S543,55.5,538.58,59.76Z"/></g></g></g></svg>