<svg xmlns="http://www.w3.org/2000/svg" xmlns:xlink="http://www.w3.org/1999/xlink" viewBox="0 0 558.66 187.12"><defs><style>.cls-1{isolation:isolate;}.cls-2{fill:url(#Áåçûìÿííûé_ãðàäèåíò_1926);}.cls-16,.cls-17,.cls-20,.cls-22,.cls-23,.cls-27,.cls-29,.cls-3,.cls-30,.cls-31,.cls-32,.cls-35,.cls-36,.cls-37,.cls-8{mix-blend-mode:screen;}.cls-3{fill:url(#Áåçûìÿííûé_ãðàäèåíò_1925);}.cls-4{opacity:0.19;fill:url(#Áåçûìÿííûé_ãðàäèåíò_1890);}.cls-12,.cls-14,.cls-18,.cls-19,.cls-25,.cls-33,.cls-34,.cls-4,.cls-5,.cls-6,.cls-7,.cls-9{mix-blend-mode:multiply;}.cls-5{opacity:0.44;fill:url(#Áåçûìÿííûé_ãðàäèåíò_1888);}.cls-12,.cls-6{opacity:0.21;}.cls-6{fill:url(#Áåçûìÿííûé_ãðàäèåíò_1891);}.cls-7{opacity:0.68;fill:url(#Áåçûìÿííûé_ãðàäèåíò_1893);}.cls-8{fill:#ffffa6;opacity:0.9;}.cls-9{opacity:0.35;}.cls-10,.cls-11,.cls-12{fill:#ffba4f;}.cls-11{opacity:0.64;}.cls-13{fill:#c90000;}.cls-14{fill:url(#Áåçûìÿííûé_ãðàäèåíò_1454);}.cls-15{fill:#b30000;}.cls-16,.cls-27{fill:#fc5a3a;}.cls-16,.cls-17{opacity:0.36;}.cls-17{fill:#ef9c9c;}.cls-18{fill:#c30000;}.cls-19{fill:#c80000;}.cls-20{opacity:0.6;}.cls-21{fill:#efe09c;}.cls-22{fill:url(#Áåçûìÿííûé_ãðàäèåíò_1446);}.cls-23{fill:url(#Áåçûìÿííûé_ãðàäèåíò_1455);}.cls-24{fill:#fff;}.cls-25{fill:url(#Áåçûìÿííûé_ãðàäèåíò_1454-2);}.cls-26{fill:#d90000;}.cls-28{fill:#d10000;}.cls-29{opacity:0.89;}.cls-30{fill:url(#Áåçûìÿííûé_ãðàäèåíò_1446-2);}.cls-31{fill:url(#Áåçûìÿííûé_ãðàäèåíò_1457);}.cls-32{fill:url(#Áåçûìÿííûé_ãðàäèåíò_1462);}.cls-33{fill:url(#Áåçûìÿííûé_ãðàäèåíò_1468);}.cls-34{fill:url(#Áåçûìÿííûé_ãðàäèåíò_1454-3);}.cls-35{fill:url(#Áåçûìÿííûé_ãðàäèåíò_1446-3);}.cls-36{fill:url(#Áåçûìÿííûé_ãðàäèåíò_1457-2);}.cls-37{fill:url(#Áåçûìÿííûé_ãðàäèåíò_1470);}</style><linearGradient id="Áåçûìÿííûé_ãðàäèåíò_1926" x1="279.33" y1="160.13" x2="279.33" y2="32.29" gradientUnits="userSpaceOnUse"><stop offset="0" stop-color="#e5cd39"/><stop offset="0.13" stop-color="#e6d045"/><stop offset="0.38" stop-color="#e9d966"/><stop offset="0.7" stop-color="#ede79a"/><stop offset="1" stop-color="#f1f5d0"/></linearGradient><linearGradient id="Áåçûìÿííûé_ãðàäèåíò_1925" x1="299.12" y1="140.65" x2="299.12" y2="17.06" gradientUnits="userSpaceOnUse"><stop offset="0" stop-color="#ffc"/><stop offset="0.03" stop-color="#f0f0c0"/><stop offset="0.19" stop-color="#b1b18e"/><stop offset="0.35" stop-color="#7b7b63"/><stop offset="0.5" stop-color="#4f4f3f"/><stop offset="0.64" stop-color="#2d2d24"/><stop offset="0.77" stop-color="#141410"/><stop offset="0.9" stop-color="#050504"/><stop offset="1"/></linearGradient><linearGradient id="Áåçûìÿííûé_ãðàäèåíò_1890" x1="279.32" y1="194.34" x2="279.32" y2="46.93" gradientUnits="userSpaceOnUse"><stop offset="0" stop-color="#ff4f00"/><stop offset="0.15" stop-color="#ff5103"/><stop offset="0.28" stop-color="#ff590e"/><stop offset="0.4" stop-color="#ff6520"/><stop offset="0.52" stop-color="#ff7639"/><stop offset="0.63" stop-color="#ff8d59"/><stop offset="0.74" stop-color="#ffa881"/><stop offset="0.85" stop-color="#ffc9b0"/><stop offset="0.95" stop-color="#ffeee6"/><stop offset="1" stop-color="#fff"/></linearGradient><linearGradient id="Áåçûìÿííûé_ãðàäèåíò_1888" x1="297.75" y1="50.62" x2="297.75" y2="-72.96" gradientUnits="userSpaceOnUse"><stop offset="0" stop-color="#fff"/><stop offset="0.07" stop-color="#fff0e9"/><stop offset="0.33" stop-color="#ffb897"/><stop offset="0.57" stop-color="#ff8b56"/><stop offset="0.76" stop-color="#ff6a28"/><stop offset="0.91" stop-color="#ff560b"/><stop offset="1" stop-color="#ff4f00"/></linearGradient><linearGradient id="Áåçûìÿííûé_ãðàäèåíò_1891" x1="279.31" y1="194.49" x2="279.31" y2="49.83" gradientUnits="userSpaceOnUse"><stop offset="0" stop-color="#ff4f00"/><stop offset="0.09" stop-color="#ff560b"/><stop offset="0.24" stop-color="#ff6a28"/><stop offset="0.43" stop-color="#ff8b56"/><stop offset="0.67" stop-color="#ffb897"/><stop offset="0.93" stop-color="#fff0e9"/><stop offset="1" stop-color="#fff"/></linearGradient><linearGradient id="Áåçûìÿííûé_ãðàäèåíò_1893" x1="305.49" y1="160.13" x2="305.49" y2="8.01" gradientUnits="userSpaceOnUse"><stop offset="0" stop-color="#ff4f00"/><stop offset="0.04" stop-color="#ff6c2a"/><stop offset="0.1" stop-color="#ff8a56"/><stop offset="0.16" stop-color="#ffa67f"/><stop offset="0.22" stop-color="#ffbea1"/><stop offset="0.29" stop-color="#ffd3bf"/><stop offset="0.37" stop-color="#ffe3d6"/><stop offset="0.46" stop-color="#fff0e9"/><stop offset="0.56" stop-color="#fff8f5"/><stop offset="0.7" stop-color="#fffefd"/><stop offset="1" stop-color="#fff"/></linearGradient><linearGradient id="Áåçûìÿííûé_ãðàäèåíò_1454" x1="106.09" y1="62.49" x2="310.64" y2="62.49" gradientUnits="userSpaceOnUse"><stop offset="0" stop-color="#c80000"/><stop offset="0.02" stop-color="#ca0a0a"/><stop offset="0.18" stop-color="#d84a4a"/><stop offset="0.34" stop-color="#e48181"/><stop offset="0.49" stop-color="#eeaeae"/><stop offset="0.64" stop-color="#f5d1d1"/><stop offset="0.78" stop-color="#fbebeb"/><stop offset="0.9" stop-color="#fefafa"/><stop offset="1" stop-color="#fff"/></linearGradient><linearGradient id="Áåçûìÿííûé_ãðàäèåíò_1446" x1="121.17" y1="72.89" x2="355.57" y2="72.89" gradientUnits="userSpaceOnUse"><stop offset="0"/><stop offset="0.05" stop-color="#050302"/><stop offset="0.11" stop-color="#140d07"/><stop offset="0.18" stop-color="#2e1c0f"/><stop offset="0.25" stop-color="#51311b"/><stop offset="0.33" stop-color="#7e4d2a"/><stop offset="0.41" stop-color="#b56f3c"/><stop offset="0.49" stop-color="#f59651"/><stop offset="0.5" stop-color="#fe9c54"/></linearGradient><linearGradient id="Áåçûìÿííûé_ãðàäèåíò_1455" x1="168.29" y1="-4.62" x2="293.43" y2="95.58" gradientUnits="userSpaceOnUse"><stop offset="0.45"/><stop offset="0.51" stop-color="#050302"/><stop offset="0.58" stop-color="#140d07"/><stop offset="0.65" stop-color="#2e1c0f"/><stop offset="0.73" stop-color="#51311b"/><stop offset="0.81" stop-color="#7e4d2a"/><stop offset="0.9" stop-color="#b56f3c"/><stop offset="0.99" stop-color="#f59651"/><stop offset="1" stop-color="#fe9c54"/></linearGradient><linearGradient id="Áåçûìÿííûé_ãðàäèåíò_1454-2" x1="49.14" y1="107.69" x2="258.87" y2="107.69" xlink:href="#Áåçûìÿííûé_ãðàäèåíò_1454"/><linearGradient id="Áåçûìÿííûé_ãðàäèåíò_1446-2" x1="87.24" y1="123.6" x2="303.99" y2="123.6" xlink:href="#Áåçûìÿííûé_ãðàäèåíò_1446"/><linearGradient id="Áåçûìÿííûé_ãðàäèåíò_1457" x1="196.48" y1="90.77" x2="261.1" y2="155.38" gradientUnits="userSpaceOnUse"><stop offset="0"/><stop offset="0.1" stop-color="#050302"/><stop offset="0.22" stop-color="#140d07"/><stop offset="0.36" stop-color="#2e1c0f"/><stop offset="0.51" stop-color="#51311b"/><stop offset="0.66" stop-color="#7e4d2a"/><stop offset="0.82" stop-color="#b56f3c"/><stop offset="0.98" stop-color="#f59651"/><stop offset="1" stop-color="#fe9c54"/></linearGradient><linearGradient id="Áåçûìÿííûé_ãðàäèåíò_1462" x1="166.23" y1="73.84" x2="166.23" y2="57.27" gradientUnits="userSpaceOnUse"><stop offset="0.3"/><stop offset="0.37" stop-color="#050302"/><stop offset="0.46" stop-color="#140d07"/><stop offset="0.55" stop-color="#2e1c0f"/><stop offset="0.65" stop-color="#51311b"/><stop offset="0.76" stop-color="#7e4d2a"/><stop offset="0.87" stop-color="#b56f3c"/><stop offset="0.98" stop-color="#f59651"/><stop offset="1" stop-color="#fe9c54"/></linearGradient><linearGradient id="Áåçûìÿííûé_ãðàäèåíò_1468" x1="158.28" y1="92.38" x2="260.2" y2="92.46" gradientUnits="userSpaceOnUse"><stop offset="0.06" stop-color="#fff"/><stop offset="0.15" stop-color="#f8f1f1"/><stop offset="0.31" stop-color="#e7cdcd"/><stop offset="0.53" stop-color="#cc9393"/><stop offset="0.79" stop-color="#a64343"/><stop offset="1" stop-color="#860000"/></linearGradient><linearGradient id="Áåçûìÿííûé_ãðàäèåíò_1454-3" x1="424.07" y1="151.02" x2="627.1" y2="151.02" gradientTransform="matrix(0.98, 0.2, -0.2, 0.98, -163.77, -187.04)" xlink:href="#Áåçûìÿííûé_ãðàäèåíò_1454"/><linearGradient id="Áåçûìÿííûé_ãðàäèåíò_1446-3" x1="458.73" y1="160.28" x2="673.02" y2="160.28" gradientTransform="matrix(0.98, 0.2, -0.2, 0.98, -163.77, -187.04)" xlink:href="#Áåçûìÿííûé_ãðàäèåíò_1446"/><linearGradient id="Áåçûìÿííûé_ãðàäèåíò_1457-2" x1="574.03" y1="137.55" x2="629.3" y2="192.82" gradientTransform="matrix(0.98, 0.2, -0.2, 0.98, -163.77, -187.04)" xlink:href="#Áåçûìÿííûé_ãðàäèåíò_1457"/><linearGradient id="Áåçûìÿííûé_ãðàäèåíò_1470" x1="212.61" y1="33.02" x2="301.61" y2="33.02" gradientUnits="userSpaceOnUse"><stop offset="0" stop-color="#fe9c54"/><stop offset="0.02" stop-color="#f59651"/><stop offset="0.18" stop-color="#b56f3c"/><stop offset="0.34" stop-color="#7e4d2a"/><stop offset="0.49" stop-color="#51311b"/><stop offset="0.64" stop-color="#2e1c0f"/><stop offset="0.78" stop-color="#140d07"/><stop offset="0.9" stop-color="#050302"/><stop offset="1"/></linearGradient></defs><title>cheeseTomato</title><g class="cls-1"><g id="Layer_2" data-name="Layer 2"><g id="Ñëîé_1" data-name="Ñëîé 1"><path class="cls-2" d="M178.61,143.23a5.31,5.31,0,0,1,5.95,4.57c1.18,9.94,6.17,30.58,27.18,36.8,28,8.29,28-5.71,26.85-15.1s2.37-5.83,7.31-3.66,9.67,2.17,12.63-3.55,7.11.39,13.82,4.14,13,2.37,31-5.72,30.62-6.56,43.95,4,41.17,17.29,62.29,10.78,33-17.58,35.94-35.15S457,114.71,473,115.89s30.88,11,38.78-.11c0,0,7.7,5,11.05-3.83s10.07-6.12,16,2,13.95,10.07,18-2.76,2.31-37.91-18.22-44.42c0,0,3-12.64-14.61-14,0,0-8.29-20.14-35.54-20.14s-45.21.6-55.87-5.52S416.27,20,411.92,24.69c0,0-5.72-11.06-22.5-7.31s-26.06,4.94-45,7.7-24.48,4.74-88.84-2S137.91-2.16,105.14.21,41.56,31.79,39.59,42.46c0,0-16.38,1.18-20.92,9.47s3.35,13,0,18.36-16,4.94-18.36,13,9.47,34,18.75,33.76,5.33-18.81,13-23.52,13.62.42,19.15,6.54,10.27,6.91,19.55,6.71,11,4.94,15.59,10.66,24.09,15.21,64.75,11.85c0,0,4.55,10.66,12.44,13.23C168.1,144,174.22,143.74,178.61,143.23Z"/><path class="cls-3" d="M538.67,66.74c-2,11.65-37.91,30.47-69.52,14.15S413.9,56.67,349.67,84s-100,29-154.45,16.85S49,29,77.5,8.11C56.8,18.16,41,34.92,39.59,42.46c11.45-27.25,49,10.66,118.6,48.95s87.9,33.17,145.21,15.4S430.88,64.17,463.25,80.75s33.17,17,55.28,4.74,38.45-6.38,40.08,15C559.08,87.54,554.37,71.72,538.67,66.74Z"/><path class="cls-4" d="M18.67,51.93c-4.54,8.29,3.35,13,0,18.36s-16,4.94-18.36,13,9.47,34,18.75,33.76,5.33-18.81,13-23.52,13.62.42,19.15,6.54,10.27,6.91,19.55,6.71,11,4.94,15.59,10.66,24.09,15.21,64.75,11.85c0,0,4.54,10.66,12.44,13.23,4.53,1.47,10.65,1.19,15,.68a5.31,5.31,0,0,1,5.95,4.57c1.18,9.94,6.17,30.58,27.18,36.8,28,8.29,28-5.71,26.85-15.1s2.37-5.83,7.31-3.66,9.67,2.17,12.63-3.55,7.11.39,13.82,4.14,13,2.37,31-5.72,30.62-6.56,43.95,4,41.17,17.29,62.3,10.78,33-17.58,35.93-35.15S457,114.71,473,115.89s30.88,11,38.78-.11c0,0,7.7,5,11.05-3.83s10.07-6.12,16,2,13.95,10.07,18-2.76A42.39,42.39,0,0,0,558.63,98c0,3.8-2.53,10.19-9.5,6.42-7.31-3.94-18.36-15-25.86-2.76S516.16,103.46,510,110s-22.31-10.46-36.92-9.08-22.7,11.45-30,37.51S395,176.3,370.66,154.79s-38.69-16.59-61.59-3-32,10.07-38.36,1.78-14,6.52-26.2-2.17-10.85,21.12-33,12.83-17.37-37.7-25.46-32.57-22.11,9.87-29-9.68-42.65,16.39-60.61-6.51-29.61-10.27-36.33-13S47.49,72.66,34.26,85.1.31,97.34,3.07,85.89s21.52-8.1,26.45-12.64S14.35,51.16,26.64,45.57C23.34,47,20.27,49,18.67,51.93Z"/><path class="cls-5" d="M216.55,23.5c79.42,16.59,86,14.74,128.12,3.69s60.54-5,67.39.26,3.42-6.32,16.84,0,6.9,7.82,35.54,6.58,43.45,2.6,53.55,10.09c-5.3-5.47-14.51-11.54-29.47-11.54-27.24,0-45.21.6-55.87-5.52S416.27,20,411.92,24.69c0,0-5.72-11.06-22.5-7.31s-26.06,4.94-45,7.7-24.48,4.74-88.84-2S137.91-2.16,105.14.21A76.64,76.64,0,0,0,77.5,8.11C107.51-5.71,137.13,6.92,216.55,23.5Z"/><path class="cls-6" d="M18.67,51.93c-4.54,8.29,3.35,13,0,18.36s-16,4.94-18.36,13,9.47,34,18.75,33.76,5.33-18.81,13-23.52,13.62.42,19.15,6.54,10.27,6.91,19.55,6.71,11,4.94,15.59,10.66,24.09,15.21,64.75,11.85c0,0,4.54,10.66,12.44,13.23,4.53,1.47,10.65,1.19,15,.68a5.31,5.31,0,0,1,5.95,4.57c1.18,9.94,6.17,30.58,27.18,36.8,28,8.29,28-5.71,26.85-15.1s2.37-5.83,7.31-3.66,9.67,2.17,12.63-3.55,7.11.39,13.82,4.14,13,2.37,31-5.72,30.62-6.56,43.95,4,41.17,17.29,62.3,10.78,33-17.58,35.93-35.15S457,114.71,473,115.89s30.88,11,38.78-.11c0,0,7.7,5,11.05-3.83s10.07-6.12,16,2,13.95,10.07,18-2.76a41,41,0,0,0,1.73-10.72c-1.12,5.51-12.47-6.28-21-10.08-9.47-4.21-23.69,17.28-42.67,9.48s-46.82-21.06-79.85-1.58-18-10-41.2,5.79-36.82-7.79-92.15,12.3-81.58,14-87.67,4-31.29-18.38-46.29-24.17-31.33-25.79-52.91-23S35.38,50.88,39.59,42.46C39.59,42.46,23.21,43.64,18.67,51.93Z"/><path class="cls-7" d="M195.22,100.89C249.65,113,285.44,111.42,349.67,84s87.87-19.47,119.48-3.15,67.54-2.5,69.52-14.15a10.83,10.83,0,0,0-5.09-11.34c10.31,8.6-9.92,16.27-18.21,13.51s-18.95-11.45-24.48,2-29.9,5.93-41.06-2.76-19.67-1.31-32.38-8.29-28.82-4.35-39.88,4.39-33.16-4.39-56.85,20.88S234.25,74,223.5,79.57s-11.76-5.92-32.68-2.37-29.62-38.69-73-33.08-47-32.4-40.27-36C49,29,140.87,88.8,195.22,100.89Z"/><path class="cls-8" d="M251.39,119.77c-5-4.11,23.77-9.62,31-6.61S254.19,122.06,251.39,119.77Z"/><path class="cls-8" d="M242,120.32c6.34-4.12-21.09-5.28-18.44-1.69S233.59,125.79,242,120.32Z"/><path class="cls-8" d="M392.7,80.9c-6.19-3,18.31-6.05,19.62-3.69S397,83,392.7,80.9Z"/><path class="cls-8" d="M438.12,75.34c-.06-3.52,5.52-1.12,6.58,1S438.16,77.73,438.12,75.34Z"/><path class="cls-8" d="M447.66,76.37c0-3.33,13.15,0,13.83,3.54S447.66,79,447.66,76.37Z"/><g class="cls-9"><path class="cls-10" d="M96.84,16.4C90.69,9.15,114.57,9.29,119.53,14S103.56,24.29,96.84,16.4Z"/><path class="cls-10" d="M122.25,23.5c-4.56-.59-.53-5.52,2.63-4.47S128.3,24.29,122.25,23.5Z"/><path class="cls-10" d="M107,29.83c-2.11-1.85,2.37-4.75,5-3.17S109.08,31.68,107,29.83Z"/><path class="cls-10" d="M406.53,34.82c6-1-.79-4.45-6.32-4.46S401.79,35.61,406.53,34.82Z"/><path class="cls-10" d="M412.57,33.82c-2.09-1.1,5-4.43,5.8-1.19S414.66,34.91,412.57,33.82Z"/><path class="cls-10" d="M441.46,40.88c-3.93-2.59,5.47-3.69,6.2-1.32S445.86,43.77,441.46,40.88Z"/><path class="cls-10" d="M508.4,50.62c-8.16-2.11.79-9.83,4.73-6.5S516.56,52.72,508.4,50.62Z"/><path class="cls-11" d="M227.84,66.94c6.14-2,3.86-7.11,0-6.32S225.39,67.73,227.84,66.94Z"/><path class="cls-11" d="M236,60.54c7-1.11,8.42-11.85,0-9.44S229,61.64,236,60.54Z"/><path class="cls-11" d="M345.2,63.77c.79-2.76-16.55,1.28-13,5.53S344.41,66.53,345.2,63.77Z"/><path class="cls-11" d="M348.36,62.11c0-2.55,8.42-4.11,8.42-1.36S348.36,64.65,348.36,62.11Z"/></g><path class="cls-12" d="M433.11,147.75c5.74-7.59,3.69-25.27-5.26-17.9S424.16,159.59,433.11,147.75Z"/><path class="cls-12" d="M420.22,135.64c5.42-5.42.79-11-2.77-7.55S415.08,140.77,420.22,135.64Z"/><path class="cls-12" d="M354.08,157.94c.59-5.92,17.57-1.57,17,6.72S353.49,163.87,354.08,157.94Z"/><path class="cls-12" d="M350.53,151.14c2.79-2.44-2.32-7.61-5.31-5.63S346.58,154.6,350.53,151.14Z"/><path class="cls-12" d="M233.18,149.46c7.79-4.13,2.78-13.23-3-9.09S228,152.22,233.18,149.46Z"/><path class="cls-12" d="M433.05,143.84a18.22,18.22,0,0,0,3.13-9.32c-.61-5.22-3.43-8.71-8.33-4.67-2.84,2.34-4.24,6.19-4.55,10C424.05,146.21,427.94,150.6,433.05,143.84Z"/><path class="cls-12" d="M63.94,95.32c2.85-2.88,1.83-9.59-2.62-6.79S59.49,99.81,63.94,95.32Z"/><path class="cls-12" d="M63.91,93.84a5.94,5.94,0,0,0,1.56-3.54c-.31-2-1.71-3.3-4.15-1.77a5,5,0,0,0-2.26,3.79C59.43,94.74,61.37,96.4,63.91,93.84Z"/><path class="cls-12" d="M420.15,131.73a8.38,8.38,0,0,0,2.05-3.18c-.93-1.63-3-2.17-4.75-.46a7,7,0,0,0-1.8,3.41C416.24,133.33,417.74,134.14,420.15,131.73Z"/><path class="cls-12" d="M470.82,109.94c5.42-3.32.79-6.71-2.76-4.62S465.69,113.08,470.82,109.94Z"/><path class="cls-12" d="M470.75,107.55a5.6,5.6,0,0,0,2.05-2,3.94,3.94,0,0,0-4.74-.28,4.1,4.1,0,0,0-1.8,2.08C466.85,108.53,468.35,109,470.75,107.55Z"/><path class="cls-12" d="M370.66,162.17c-2.21-5.91-13.3-8.85-16-5.59C357.52,161.69,368.57,167,370.66,162.17Z"/><path class="cls-12" d="M10.55,103.75c.26-2.57,7.62-.69,7.36,2.91S10.29,106.31,10.55,103.75Z"/><path class="cls-12" d="M17.74,105.58c-1-2.56-5.77-3.83-6.93-2.42C12,105.37,16.83,107.68,17.74,105.58Z"/><path class="cls-12" d="M350.46,147.24c-1.23-1.67-3.55-2.85-5.24-1.73-.15.1-.21.26-.33.39C346,147.8,348.27,149.15,350.46,147.24Z"/><path class="cls-12" d="M150.53,125.7c2.79-2.44-2.32-7.6-5.31-5.63S146.58,129.17,150.53,125.7Z"/><path class="cls-12" d="M150.46,121.8c-1.23-1.67-3.55-2.84-5.23-1.73-.16.1-.22.27-.33.4C146,122.37,148.28,123.72,150.46,121.8Z"/><path class="cls-12" d="M233.11,145.55a7.44,7.44,0,0,0,3.64-3.77c-1-2.25-3.7-3.47-6.58-1.41a7,7,0,0,0-2.61,3.37A3.75,3.75,0,0,0,233.11,145.55Z"/><path class="cls-12" d="M76,92.64c7.79-4.13,2.78-13.23-3-9.08S70.77,95.4,76,92.64Z"/><path class="cls-12" d="M75.92,88.73A7.36,7.36,0,0,0,79.55,85c-1-2.26-3.69-3.48-6.57-1.41a7,7,0,0,0-2.61,3.36A3.75,3.75,0,0,0,75.92,88.73Z"/><path class="cls-10" d="M119.24,17.28c-4.22-3.51-19-4.3-22.56-1.14.07.09.09.16.16.26C102,22.45,115.46,20.61,119.24,17.28Z"/><path class="cls-10" d="M508.4,50.61c3.61.94,5.65.39,6.54-.76a7.33,7.33,0,0,0-1.81-2.27c-2.15-1.82-5.78-.34-7.32,1.72A5.37,5.37,0,0,0,508.4,50.61Z"/><path class="cls-11" d="M227.84,64.08a2.74,2.74,0,0,0-2,1.56c.41.94,1.14,1.58,2,1.29A6.36,6.36,0,0,0,231,65,3.2,3.2,0,0,0,227.84,64.08Z"/><path class="cls-11" d="M236,54.56c-2.94.84-4.61,2.38-5.33,4,.8,1.46,2.64,2.42,5.33,2A6.87,6.87,0,0,0,241.35,56C240.66,54.55,239,53.7,236,54.56Z"/><path class="cls-11" d="M332.8,69.75c2.82,2.21,7.83-.65,10.57-3.41C340.51,66.34,335.12,67.78,332.8,69.75Z"/><path class="cls-13" d="M220.29,30.79c55.55-1.23,122.4.62,113.62,31.83C330.64,74.26,313.67,86.29,248,92.2c-95.78,8.62-138.08-9-141.39-27.45C100.59,31.21,145.91,32.45,220.29,30.79Z"/><path class="cls-14" d="M220.29,30.79c-74.38,1.66-119.7.42-113.66,34,3.31,18.4,45.61,36.07,141.39,27.45,24-2.17,41.47-5.15,54.17-8.63-68.93,17.24-150.82-1-150.82-1,86.7,10.91,159.27-11.61,159.27-11.61l-15-37.32C273.78,30.32,245.85,30.22,220.29,30.79Z"/><path class="cls-15" d="M220.29,20.1C315.07,18,406.65,67.23,248,81.51,70.63,97.48,58.63,23.7,220.29,20.1Z"/><path class="cls-16" d="M220.16,22.71c85.75-1.93,164.5,42.17,24.29,54.58C89.79,91,74.23,26,220.16,22.71Z"/><path class="cls-17" d="M263.65,29.19c34.16,6.13,20,12.11-4.92,15.22-3.31.41-2.56,1.79,1.11,2,22.83,1,56.89,4.45,26.82,16.85-31.4,12.94-58.41,1.7-67.81-7.27-1.12-1.06-6.23-1-7.41,0-7.17,6.54-25.27,17.4-56.91,9.21-26.65-6.9-1.87-13.09,17.87-16.48,3.37-.57,2.19-2-1.61-1.93-18.72.29-41.3-.92-30-8.9,14.19-10,54.84-9.69,66.15-2.4,1.29.83,5.74.74,6.66-.14C219.05,30.12,231.93,23.5,263.65,29.19Z"/><path class="cls-18" d="M234.84,35.91s-9,3.51,16,2.76c0,0-4.43,7.75,13.65,4.92,21.06-3.28,30.47-8.78-.88-14.4-27.67-5-40.82-.63-47.43,4C211.23,38.76,234.84,35.91,234.84,35.91Z"/><path class="cls-19" d="M185.17,56.78s3.72-2.83-5.85-3.18c0,0,3.55-7-12.41-3.88-18.31,3.51-36.63,9.19-12.38,15.47,25.65,6.64,42.77.58,52-5.41C214.7,54.14,185.17,56.78,185.17,56.78Z"/><path class="cls-19" d="M272.55,47.15c-16.83-1.09-10.8,4.05-10.8,4.05s-13.69-.94-22.95,0-6.46,6.12-6.46,6.12-16.6-2.94-8.58,2.39c12.13,7.81,36.21,14.48,62.9,3.48C311.62,52.91,292.65,48.83,272.55,47.15Z"/><path class="cls-18" d="M166.79,41.89s17.73,2.4,27.17,0c9.24-2.37-.42-6.28-.42-6.28s17.37,2.52,12.53-.56c-12.23-6.83-51.39-7-65.3,2.85-9.71,6.87,5.81,8.73,22.34,8.92C181.91,47.06,166.79,41.89,166.79,41.89Z"/><g class="cls-20"><path class="cls-21" d="M186.9,34.54s-6.54-3.73-11.16-1.9S186.9,34.54,186.9,34.54Z"/><path class="cls-21" d="M169,35.43s-11.38-2.75-13.38-.61S169,35.43,169,35.43Z"/><path class="cls-21" d="M172.44,39.65a5.85,5.85,0,0,0-5.82-1.54C162.92,39.1,172.44,39.65,172.44,39.65Z"/><path class="cls-21" d="M193.11,34.36s.08-2.53-4.07-1.81S193.11,34.36,193.11,34.36Z"/><path class="cls-21" d="M160.74,39.56a10.54,10.54,0,0,0-10-2.39C144.92,38.94,160.74,39.56,160.74,39.56Z"/><path class="cls-21" d="M163.64,41.36s-11.63-2.91-13.75-.65S163.64,41.36,163.64,41.36Z"/></g><g class="cls-20"><path class="cls-21" d="M235.72,33.09s4.22-4,9.74-2.48S235.72,33.09,235.72,33.09Z"/><path class="cls-21" d="M253.58,33s9.39-3.3,12.53-1.33S253.58,33,253.58,33Z"/><path class="cls-21" d="M252.64,37.27s.65-2.57,4.74-1.83S252.64,37.27,252.64,37.27Z"/><path class="cls-21" d="M229.56,33.26s-1.52-2.46,2.93-2S229.56,33.26,229.56,33.26Z"/><path class="cls-21" d="M263.86,36.52s1.67-4.26,8.18-2.88S263.86,36.52,263.86,36.52Z"/><path class="cls-21" d="M262.09,38.43s9.5-3.48,12.8-1.41S262.09,38.43,262.09,38.43Z"/></g><g class="cls-20"><path class="cls-21" d="M244.64,59.51s9.09,4.84,13.51,2.39S244.64,59.51,244.64,59.51Z"/><path class="cls-21" d="M264.26,58.32s14.66,3.44,15.36.7S264.26,58.32,264.26,58.32Z"/><path class="cls-21" d="M258.26,53.35s3.62,2.91,7.07,1.75S258.26,53.35,258.26,53.35Z"/><path class="cls-21" d="M237.72,59.77s.7,3.26,5.23,2.3S237.72,59.77,237.72,59.77Z"/><path class="cls-21" d="M270.81,53.4s7.3,4.88,12.4,2.74S270.81,53.4,270.81,53.4Z"/><path class="cls-21" d="M266.68,51.41s14.25,3.23,14.91.66S266.68,51.41,266.68,51.41Z"/></g><g class="cls-20"><path class="cls-21" d="M191.07,60.12s4.14,5.33-4.79,4.56S191.07,60.12,191.07,60.12Z"/><path class="cls-21" d="M174.08,60.53s-9.4,5-13.7,2.59S174.08,60.53,174.08,60.53Z"/><path class="cls-21" d="M177.41,55.64s-1.59,3.12-5.84,2.22S177.41,55.64,177.41,55.64Z"/><path class="cls-21" d="M164.92,56.58a10.26,10.26,0,0,1-10.55,3.59C147.85,58.45,164.92,56.58,164.92,56.58Z"/><path class="cls-21" d="M167.66,54.33s-12,4.2-14.51,1.7S167.66,54.33,167.66,54.33Z"/></g><path class="cls-22" d="M248,81.51c45.45-4.09,70.34-11.06,80.51-18.86C313.31,73,244.13,87.74,143,78.44,167.3,80.68,201.59,85.69,248,81.51Z"/><path class="cls-23" d="M253.58,81c59.33-5.89,81.3-16.86,80.47-27.9A11.88,11.88,0,0,0,333,49.39a18.23,18.23,0,0,0-1.8-2.63c-7.87-9.46-30.86-18.23-59.52-23,10,2.44,16.89,5.68,21,9.41,21.4,19.48-33.12,52-113.58,49.95h-.63s104.67,9,30.59,11.2c11.9-.2,24.79-.84,39-2.12,5.72-.52,11-1.1,16-1.7C227,91.51,224.67,83.9,253.58,81Z"/><path class="cls-24" d="M294.7,69.87c3.91.61,16.83-2.84,14.27-5.05S289.87,69.12,294.7,69.87Z"/><path class="cls-24" d="M311.33,64.73c2.56-.68,2.41-3.26-.45-2.42S308.78,65.41,311.33,64.73Z"/><path class="cls-13" d="M305.38,118.8c-7.44,44.3-246.19,54.34-255.5-1.09-.52-3.08-1.44-18.85.16-23.5,15.88-46,247-47.59,255.62,4.44C306.27,102.31,305.77,116.5,305.38,118.8Z"/><path class="cls-25" d="M50,94.21c-1.6,4.65-.68,20.42-.16,23.5,6.83,40.67,137.11,46.06,209,28.57-75,16.22-155.48-8.6-155.48-8.6,69,15.69,145.3-4.81,145.3-4.81L188.51,59.8C125.21,58.31,58.33,70.19,50,94.21Z"/><path class="cls-26" d="M305.38,103.1c-7.85,46.77-273.44,55.35-254.85-10.95C64.22,43.34,315.2,44.62,305.38,103.1Z"/><path class="cls-27" d="M291.5,102c-8.42,40.94-241,48.2-227-9.75C75.23,48.07,302.36,49.14,291.5,102Z"/><path class="cls-17" d="M248,117.58c-39.92,11.92-63.43,2.47-69.32-9.09-.75-1.46-6.77-1.73-8.58-.37-11.49,8.6-37.56,21-74.13,3.26C64.18,96,110.17,90.47,145.09,89.91c4.32-.07,5.78-1.81,2.14-2.51-21.13-4.05-51.07-12-15.2-19.67,30.74-6.59,46.29,1.73,53.83,8.64,1.35,1.23,7.2,1.17,8-.09,3.73-6.06,14-12.83,43.62-7.91C279.15,75.29,269,90.11,232.25,92c-4.07.21-4.81,1.9-1,2.56C254.34,98.55,284.86,106.57,248,117.58Z"/><path class="cls-28" d="M223.08,102.55s-13.36-4.81-17,5.25c0,0-32.19-4.84-25.74,3.34,8,10.25,31,17.37,67.58,6.44,32.19-9.6,13.13-16.91-7.54-21.27C216.54,92.51,223.08,102.55,223.08,102.55Z"/><path class="cls-19" d="M152.11,78.64s9.32,1.86,13.33-1.14c0,0,25.82,2.81,18-3.11C175.23,68,160,61.74,132,67.73c-29.13,6.25-14.82,12.66,3,17C153.09,89,152.11,78.64,152.11,78.64Z"/><path class="cls-19" d="M162.74,112.77c9.86-6.13-13-5.88-13-5.88s8.13-4.77,7.21-8.5-21.22-4.29-21.22-4.29,16.09-4.8-6-3.63c-31,1.75-61.15,7.66-33.82,20.91C125.78,125.84,149.11,120.08,162.74,112.77Z"/><path class="cls-19" d="M214.55,76.07s-14.36,5.38-6.85,9.28C215.38,89.34,235,87,235,87s-15.55,5.59-.54,4.8c34.9-2.38,43.78-16.68,3-23.45-25.68-4.27-36.72.22-41.69,5.42C189.79,79.88,214.55,76.07,214.55,76.07Z"/><g class="cls-29"><path class="cls-21" d="M241.34,84.93s18.59-1.31,11.2-3.48A10.15,10.15,0,0,0,241.34,84.93Z"/><path class="cls-21" d="M241.56,78.35s14.79-3.27,5.74-4.44S241.56,78.35,241.56,78.35Z"/><path class="cls-21" d="M222.52,78.5s11.29-.12,8-1.61S222.52,78.5,222.52,78.5Z"/><path class="cls-21" d="M240.69,87.24s11.57.8,9.21-.95S240.69,87.24,240.69,87.24Z"/><path class="cls-21" d="M225.73,74.58s18.71-.48,12.48-2.79S225.73,74.58,225.73,74.58Z"/><path class="cls-21" d="M217.55,75.14s14.95-3.21,6-4.37S217.55,75.14,217.55,75.14Z"/></g><g class="cls-29"><path class="cls-21" d="M236,104s18.42,3.44,9.49,5.06S236,104,236,104Z"/><path class="cls-21" d="M232,111.43s13.81,5.62,3.17,6S232,111.43,232,111.43Z"/><path class="cls-21" d="M212,109.12s11.78,1.4,7.16,2.76S212,109.12,212,109.12Z"/><path class="cls-21" d="M236.77,101.51s12.15.37,8.78,2S236.77,101.51,236.77,101.51Z"/><path class="cls-21" d="M212.27,114.07s19.87,2.78,11.39,4.9S212.27,114.07,212.27,114.07Z"/><path class="cls-21" d="M204,112.46s13.51,5.66,2.77,6S204,112.46,204,112.46Z"/></g><g class="cls-29"><path class="cls-21" d="M123.79,97.67s-20.25,1.54-13.13,3.92S123.79,97.67,123.79,97.67Z"/><path class="cls-21" d="M121.57,105.07s-17.67,4-7.92,5.39S121.57,105.07,121.57,105.07Z"/><path class="cls-21" d="M142.42,104.74s-12.35.24-9.07,2S142.42,104.74,142.42,104.74Z"/><path class="cls-21" d="M125.13,95.19s-11.81-.78-9.94,1.06S125.13,95.19,125.13,95.19Z"/><path class="cls-21" d="M138.08,109.44S117,110.2,123.25,113,138.08,109.44,138.08,109.44Z"/><path class="cls-21" d="M147.29,108.68s-17.49,4.1-7.59,5.48S147.29,108.68,147.29,108.68Z"/></g><g class="cls-29"><path class="cls-21" d="M138.48,79.75s-19.55.07-14.19-2.5S138.48,79.75,138.48,79.75Z"/><path class="cls-21" d="M142.08,74.39s-14.14-3.76-4.86-4.6S142.08,74.39,142.08,74.39Z"/><path class="cls-21" d="M158.49,76.45s-10.7-1.16-6.29-2.29A5.5,5.5,0,0,1,158.49,76.45Z"/><path class="cls-21" d="M158.66,72.37s-17.51-2.18-9.65-3.83S158.66,72.37,158.66,72.37Z"/><path class="cls-21" d="M166,73.67s-11.67-4.47-2.16-4.77S166,73.67,166,73.67Z"/></g><path class="cls-30" d="M304,107.18c-16.75,21.26-137.4,43.2-216.75,23.09C154.11,150.14,288.1,138.26,304,107.18Z"/><path class="cls-31" d="M153,155.37c43.86,1.73,91.61-3.33,121.82-13.69-30.87,7.26-81.42,2.14-40-6.36,3.84-.79,8.41-1.61,13.93-2.45,5.45-1.09,10.65-2.29,15.53-3.62,23.26-6.29,39.32-15.17,41.16-26.15a19.45,19.45,0,0,0,.16-4.86,20.65,20.65,0,0,0-5.21-11.59c-11.27-13.35-39.59-22.07-73.42-26.31a73.86,73.86,0,0,1,15.52,4.4c43.32,18.08,22.24,70.6-58.29,75.06-1.34.08-2.63.18-4,.23C180.14,140,279.89,143.1,153,155.37Z"/><path class="cls-24" d="M256.82,124.76c-3.77-.31,22-11.14,24.15-10.42S271.42,126,256.82,124.76Z"/><path class="cls-32" d="M70.54,73.84C96.64,62.35,188,50.58,247.93,64.39a113.65,113.65,0,0,0,14,2.54C206.12,51.87,112,54.61,70.54,73.84Z"/><path class="cls-33" d="M305.38,118.8c.39-2.3.89-16.49.28-20.15,0-.1-.07-.19-.09-.29C303.22,68.1,226.93,54.9,158.3,57.61c36.13,1,55.46,11.56,55.46,11.56-1.36,23.63,86.44,43.29,86.44,43.29l.3,15.16A16.89,16.89,0,0,0,305.38,118.8Z"/><path class="cls-13" d="M442.73,66.25c16.36,9.91,27.21,5.09,27.53,13.69.07,2-3.67,18.47-4.33,20.33-10.44,29.27-109.52,40.65-208.11-11.85-25.47-13.56-36.67-25.64-37.41-35.51-.22-2.88,2-17.7,4.39-22.81C238.7.45,358.17,15,442.73,66.25Z"/><path class="cls-34" d="M224.8,30.1c-2.39,5.11-4.61,19.93-4.39,22.81.74,9.87,11.94,22,37.41,35.51,56.91,30.31,114,39.3,154,35.88-83.53,4.35-142.41-43.57-142.41-43.57,92.66,40,141.59,26.88,141.59,26.88l-118-91.54C257.76,12.54,231,17,224.8,30.1Z"/><path class="cls-26" d="M446.27,49.26c79.75,48.31-53,92.41-184.91,22.17C144.26,9.07,328.68-22,446.27,49.26Z"/><path class="cls-27" d="M435.82,49.78c70.53,43-48,81.54-164.86,19.72C165.84,13.87,330.49-14.48,435.82,49.78Z"/><path class="cls-17" d="M440.41,72.07c-.5,17.44-32.69,11-59.71-.39-3.51-1.47-7.79-.94-6.08.76,10.72,10.67,20,26.91-39.52,13.69-55.43-12.31-37.62-25-15.88-30.44,2.67-.67-.29-2.86-4.27-3.16-23.37-1.81-62.81-7.05-56.76-21.34,5.23-12.35,36-4.12,57.11,3.21,3.7,1.29,7.43.43,5.08-1.16C308.93,25.45,300,15.76,331.22,18c42.35,3,67.22,21.52,48.28,28.43-2.11.76,1,2.77,4.7,3C406.69,50.84,440.88,55.64,440.41,72.07Z"/><path class="cls-19" d="M395.75,59.33s-18.23-3.53.36,7.93c0,0-29.92-.93-8.88,7,25.45,9.63,52.72,13.8,53.18-2.21.41-14.32-25.35-19.77-46.84-21.9C370.75,49.05,395.75,59.33,395.75,59.33Z"/><path class="cls-19" d="M298,41.64s10.53.93,6.27-3.15c0,0,23.51-.15,4.85-6.14-20.51-6.63-46.21-12.39-51-1.16-4.92,11.61,20.4,17.28,42.62,20C322.44,53.58,298,41.64,298,41.64Z"/><path class="cls-19" d="M379.76,78.39c-6.65-7.88-20.39-4.51-20.39-4.51a41.47,41.47,0,0,0-13.7-10.27c-8.58-4-23.14-1.89-23.14-1.89s-.28-7.64-12.12-3.3c-16.47,6.29-22.82,17.16,24.69,27.71C384,97,386.45,87.89,379.76,78.39Z"/><path class="cls-19" d="M333.54,30.25s2.66,8.25,16.15,11.8,21-1.67,21-1.67,2.08,8.39,9.82,5.53c16.73-7.23-7.84-25-49.31-27.94-27-1.92-24,5.06-15.25,12C325.88,38,333.54,30.25,333.54,30.25Z"/><g class="cls-29"><path class="cls-21" d="M370.22,37.14s9-3.92-.34-5.49S370.22,37.14,370.22,37.14Z"/><path class="cls-21" d="M356.13,29.43s2.37-5.8-6.06-6S356.13,29.43,356.13,29.43Z"/><path class="cls-21" d="M344.16,32.09s7-1.62,1.6-3S344.16,32.09,344.16,32.09Z"/><path class="cls-21" d="M374.75,39.88s8.95-.58,3.78-2.28S374.75,39.88,374.75,39.88Z"/><path class="cls-21" d="M337.51,27s11.13-3,1.92-5S337.51,27,337.51,27Z"/><path class="cls-21" d="M333.42,28.75s2.58-5.81-5.93-6.05S333.42,28.75,333.42,28.75Z"/></g><g class="cls-29"><path class="cls-21" d="M406.64,59.25s17.94,1.3,15.81,4.2S406.64,59.25,406.64,59.25Z"/><path class="cls-21" d="M419,67.71s19.12,4.09,13.6,5.87S419,67.71,419,67.71Z"/><path class="cls-21" d="M402.34,67.89s9.93-.06,9.86,2S402.34,67.89,402.34,67.89Z"/><path class="cls-21" d="M402,56.39s8.13-1.19,9.32,1S402,56.39,402,56.39Z"/><path class="cls-21" d="M412.44,73.11s17.26.27,16.39,3.6S412.44,73.11,412.44,73.11Z"/><path class="cls-21" d="M404.24,72.5s19.28,4.14,13.65,6S404.24,72.5,404.24,72.5Z"/></g><g class="cls-29"><path class="cls-21" d="M322.75,67.34s-9.69,4.53.25,6.16S322.75,67.34,322.75,67.34Z"/><path class="cls-21" d="M337.67,75.79s-2.46,6.8,6.66,6.89S337.67,75.79,337.67,75.79Z"/><path class="cls-21" d="M350.19,72.56s-7.32,2-1.52,3.36S350.19,72.56,350.19,72.56Z"/><path class="cls-21" d="M318.07,64.39s-9.48.76-4.08,2.57S318.07,64.39,318.07,64.39Z"/><path class="cls-21" d="M357.5,78.21s-11.65,3.73-1.67,5.86S357.5,78.21,357.5,78.21Z"/><path class="cls-21" d="M361.65,76.14s-2.22,6.77,6.81,6.86S361.65,76.14,361.65,76.14Z"/></g><g class="cls-29"><path class="cls-21" d="M291.45,44.79s-13.05,2.77-15.53-1S291.45,44.79,291.45,44.79Z"/><path class="cls-21" d="M281.22,37.92s-18.79-2.63-14.4-4.91S281.22,37.92,281.22,37.92Z"/><path class="cls-21" d="M297.19,38.16s-10,.06-9.63-1.89S297.19,38.16,297.19,38.16Z"/><path class="cls-21" d="M287.7,33.24s-17.2-.28-15.78-3.36S287.7,33.24,287.7,33.24Z"/><path class="cls-21" d="M295.76,33.82S277.18,30,283,28.32,295.76,33.82,295.76,33.82Z"/></g><path class="cls-35" d="M466.17,88.81C432.39,114.71,330.63,109.47,252,66.12c2.89,1.75,6,3.51,9.36,5.31C353.43,120.46,445.83,113.75,466.17,88.81Z"/><path class="cls-36" d="M410.64,107.68l.4-.07c34.48-2.11,57.53-13.08,59.18-27.83.45-4-.63-8.23-3.5-12.66-3.73-5.74-10.39-11.77-20.45-17.86a246.78,246.78,0,0,0-22.51-12.07c15.94,9.63,23.22,20.72,22.74,31C445.41,91.8,404,111.22,334,99.56c-2.62-.44-5.25-.88-8-1.41,0,0,105.94,32.61-22.63,10.28,46.78,16.35,90.39,19.38,120.78,14.34C358.93,127.76,344.7,116.27,410.64,107.68Z"/><path class="cls-24" d="M441.91,93.68c-1.31-.69,3.66-4.82,4.37-2.67S443.22,94.38,441.91,93.68Z"/><path class="cls-24" d="M449.1,90.34c2.26-.32,5.24-5.55,2.22-5.37S446.83,90.65,449.1,90.34Z"/><path class="cls-37" d="M312.93,8.94c-67.8-4.47-115,16.16-73.3,48.77C217.57,35.49,239.23,7,312.93,8.94Z"/></g></g></g></svg>