<svg xmlns="http://www.w3.org/2000/svg" viewBox="0 0 1563.12 1663.57"><defs><style>.cls-1{fill:#ffd03a;}.cls-2{fill:#faba27;}.cls-3{fill:#f9af10;}.cls-4{fill:#fec924;}.cls-5{fill:#ffd859;}.cls-6{fill:#ffe5aa;}.cls-7{fill:#f39e03;}</style></defs><title>cheeseTriangle</title><g id="Layer_2" data-name="Layer 2"><g id="Capa_2" data-name="Capa 2"><path class="cls-1" d="M1018.34,179.91Q965.84,89,910.29,0h0c-5.56,1.55-11.07,3.21-16.54,4.94-1.67.52-3.31,1.09-5,1.63C885,7.8,881.2,9.05,877.45,10.36c-1.92.68-3.82,1.37-5.73,2.06q-5.22,1.89-10.4,3.86c-1.89.73-3.77,1.46-5.66,2.21q-5.22,2.06-10.38,4.2l-5.14,2.15q-5.57,2.39-11,4.83l-4.06,1.82q-6.64,3-13.14,6.17l-1.55.74c-4.56,2.21-9,4.47-13.49,6.74L793.32,47c-3.74,1.94-7.45,3.9-11.1,5.88l-1.6.84h0c-97.08,52.81-162.12,115.92-162.12,115.92q-19.17,30.69-37.91,61.64c-5.68,9.35-11.38,18.69-17,28.07l.09.1q-27,44.85-53.22,90.1c-209.32,362.27-352.16,678-479.2,1064.75h0l-.75,2.31q-7.07,21.56-14.09,43.38l-1.26,3.93Q7.54,1487.64,0,1511.76c368.52,175.42,1080.53,194.32,1271.35,79.86l-.07-.21c39.7-15,87-40.05,131.82-66.29,0,0,0,0,0,0l1.16-.69c7.83-4.6,15.6-9.23,23.23-13.85h0c56.11-34,105.09-67.35,125.46-81.48h0q4-2.76,6.46-4.5l.87-.61,1-.7,1-.73.54-.38.26-.18A6153,6153,0,0,0,1018.34,179.91Z"/><path class="cls-2" d="M1553,1429.11c-20.44,14.17-69.4,47.53-125.46,81.48C1483.6,1476.61,1532.58,1443.24,1553,1429.11Z"/><path class="cls-2" d="M1018.34,179.91Q965.84,89,910.29,0h0Q902,2.34,893.75,4.94c-1.67.52-3.31,1.09-5,1.63C885,7.8,881.2,9.05,877.45,10.36c-1.92.68-3.82,1.37-5.73,2.06q-5.22,1.89-10.4,3.86c-1.89.73-3.77,1.46-5.66,2.21q-5.22,2.06-10.38,4.2l-5.14,2.15q-5.57,2.39-11,4.83l-4.06,1.82q-6.64,3-13.14,6.17l-1.55.74c-4.56,2.21-9,4.47-13.49,6.74L793.32,47c-3.74,1.94-7.45,3.9-11.1,5.88l-1.6.84h0c-97.08,52.81-162.12,115.92-162.12,115.92q55.59,89,108.06,179.91A6152.82,6152.82,0,0,1,1190.33,1350q43,119.82,81,241.37c39.7-15,87-40.05,131.82-66.29,0,0,0,0,0,0l1.16-.69c7.83-4.6,15.6-9.23,23.23-13.85h0c56.06-33.95,105-67.31,125.46-81.48h0q4-2.76,6.46-4.5l.87-.61,1-.7,1-.73.54-.38.26-.18A6153,6153,0,0,0,1018.34,179.91ZM1154,652.67c.5-.52,1-1,1.56-1.48.32-.3.62-.63,1-.91a31.67,31.67,0,0,1,3.2-2.39c.42-.27.85-.52,1.28-.77.85-.5,1.73-1,2.62-1.36.41-.18.8-.38,1.2-.54a29.14,29.14,0,0,1,3.91-1.24c.32-.08.66-.12,1-.18a27.55,27.55,0,0,1,3.45-.47c.42,0,.84-.07,1.26-.08a31,31,0,0,1,4.6.13c28.26,3,57.41,41.49,65.1,85.85s-9,77.85-37.25,74.8a35.83,35.83,0,0,1-5.25-1c-1.1-.28-2.18-.7-3.27-1.08-.65-.23-1.29-.38-1.94-.64h0c-24.68-9.93-47.91-44.26-54.65-83.15-5-28.74.3-52.84,12.3-65.48Zm16,384.05c-2-11.52.12-21.18,4.93-26.25h0c.07-.08.16-.13.24-.21a12,12,0,0,1,1.64-1.4c.11-.09.22-.18.34-.26a11.53,11.53,0,0,1,2.17-1.14l.4-.13a11.81,11.81,0,0,1,2-.49l.66-.09a12.43,12.43,0,0,1,2.59,0c11.33,1.22,23,16.64,26.1,34.42s-3.61,31.21-14.94,30a15.92,15.92,0,0,1-2.11-.39c-.42-.11-.84-.27-1.25-.42s-.56-.16-.83-.27h0C1182,1066.08,1172.7,1052.32,1170,1036.72ZM788,195.14h0c.53-2.16,1.16-4.22,1.78-6.29.26-.87.47-1.8.75-2.65,1-3.11,2.1-6.12,3.3-9l.3-.71a86.42,86.42,0,0,1,8-14.72c.23-.34.48-.67.72-1,1.32-1.86,2.7-3.64,4.16-5.32.26-.3.5-.61.76-.9a61.44,61.44,0,0,1,5.24-5.22c.31-.27.64-.52,1-.78a55.39,55.39,0,0,1,4.77-3.62l1.58-1.07a57.35,57.35,0,0,1,6.23-3.48c10.28-4.83,21.66-6.39,33.7-5a85.77,85.77,0,0,1,12.24,2.34,108.32,108.32,0,0,1,12.59,4.23,138,138,0,0,1,17.69,8.75q4.46,2.59,8.94,5.59C950.5,182.21,990,230.11,1018.56,291c35.21,74.9,44.81,149.93,29.55,197.89a104.84,104.84,0,0,1-4.77,12.39,82,82,0,0,1-9.47,15.79,64.36,64.36,0,0,1-7.85,8.5,57.57,57.57,0,0,1-14,9.38q-2.55,1.2-5.18,2.13c-1.33.47-2.7.84-4.06,1.21-.42.11-.84.27-1.27.38q-2.58.63-5.24,1l-.23.05c-1.73.25-3.48.42-5.25.53-.13,0-.25,0-.37,0h0c-53.94,3.13-125.55-60.45-170.44-156C786.77,313.78,776.39,243.18,788,195.14Zm97.42,351.92c259.54,395.43,369.47,867.19,369.47,867.19C1134.32,1041.73,885.46,547.06,885.46,547.06Zm503.47,870.07c-1.63-.18-3.27-.42-4.91-.73-1.49-.27-3-.61-4.48-1-.14,0-.27-.05-.4-.09-1.61-.41-3.22-.89-4.83-1.42l-.84-.31c-1.32-.45-2.64-.92-4-1.45l-.14-.05h0c-46.16-18.59-89.63-82.82-102.25-155.59-9.32-53.75.52-98.91,23-122.55l0,0c1-1.08,2.12-2.05,3.2-3.05.43-.39.84-.84,1.28-1.22a58.8,58.8,0,0,1,5.15-4l.41-.28a54,54,0,0,1,10.61-5.58l.86-.31a51.06,51.06,0,0,1,4.92-1.54c.28-.08.57-.17.86-.24a54.55,54.55,0,0,1,5.78-1.06l1-.1c1.63-.17,3.29-.28,5-.31l1.6,0c2,0,4.06.1,6.15.32,36,3.89,72.79,38.59,97.13,86.54,2.72,5.35,5.34,10.82,7.73,16.49q2.37,5.63,4.52,11.45c1,2.73,2,5.48,2.91,8.27,1.15,3.5,2.22,7.06,3.25,10.63a261.83,261.83,0,0,1,6.27,27.26C1473,1360.17,1441.81,1422.84,1388.93,1417.13Z"/><path class="cls-3" d="M910.29,0h0Q902,2.34,893.75,4.94c-1.67.52-3.31,1.09-5,1.63C885,7.8,881.2,9.05,877.45,10.36c-1.92.68-3.82,1.37-5.73,2.06q-5.22,1.89-10.4,3.86c-1.89.73-3.77,1.46-5.66,2.21q-5.22,2.06-10.38,4.2l-5.14,2.15q-5.57,2.39-11,4.83l-4.06,1.82q-6.64,3-13.14,6.17l-1.55.74c-4.56,2.21-9,4.47-13.49,6.74L793.32,47c-3.74,1.94-7.45,3.9-11.1,5.88l-1.6.84h0c69.09,3.78,138.66,36,187.29,86.38,79.22,82.1,110.11,200.88,111.48,315,.61,50.52-1.15,108.28,36,142.52,31.86,29.38,81.43,29.9,117.12,54.5,42.79,29.49,56.29,86.58,57.76,138.54s-5.51,105.34,10,154.94c19,60.54,68.26,105.8,103.57,158.51,57.58,86,77.59,196.21,53.89,296.94a377.32,377.32,0,0,1-54.68,124.14c8.23-4.82,16.38-9.69,24.39-14.54h0c56.06-33.95,105-67.31,125.46-81.48h0q4-2.76,6.46-4.5l.87-.61,1-.7,1-.73.54-.38.26-.18A6153,6153,0,0,0,1018.34,179.91Q965.84,89,910.29,0Z"/><path class="cls-4" d="M726.58,349.53q-52.51-90.86-108.06-179.91-19.17,30.69-37.91,61.64c-5.68,9.35-11.38,18.69-17,28.07l.09.1c229.58,231.82,379.67,539.29,444.06,860.16,8.25,41.14,11.94,98.2-17.85,132.15-48.37,55.12-121.09-8.92-173-25-74.33-23-160.11-11.56-226,29.53-25.18,15.7-47.6,35.27-69.43,55.65-9.34,93.47-52.32,169.56-109,197.16h0l-.78.36q-3,1.41-6,2.64l-2.24.88c-1.62.62-3.24,1.21-4.88,1.75-.73.25-1.46.5-2.19.73-2.3.71-4.61,1.37-6.94,1.93l-.4.08c-2.23.53-4.47,1-6.73,1.34-.72.12-1.45.22-2.18.32-1.76.26-3.54.47-5.32.63-.72.07-1.44.15-2.16.2-2.43.17-4.87.29-7.33.29h0c-3.21,0-6.38-.2-9.54-.5-.92-.08-1.83-.2-2.74-.31-2.39-.29-4.78-.66-7.14-1.11-.84-.16-1.67-.3-2.5-.48-3-.65-6-1.42-9-2.34-.7-.22-1.39-.49-2.08-.72q-3.45-1.14-6.86-2.52-1.56-.63-3.12-1.32c-2.08-.91-4.13-1.9-6.18-3-.87-.44-1.75-.85-2.62-1.32-2.65-1.43-5.26-3-7.84-4.62-1.11-.71-2.2-1.48-3.3-2.22-1.62-1.1-3.22-2.23-4.81-3.41-1.2-.89-2.4-1.79-3.59-2.72-1.6-1.27-3.18-2.61-4.76-4-1.81-1.56-3.6-3.18-5.38-4.84-1.4-1.33-2.81-2.65-4.18-4s-2.56-2.65-3.83-4q-1.67-1.78-3.28-3.63c-1.28-1.45-2.56-2.89-3.81-4.4-1.08-1.3-2.12-2.66-3.17-4q-3.18-4-6.22-8.32c-.63-.89-1.28-1.74-1.9-2.65-54.79,7.79-109.66,4-169.22-16.34a556.13,556.13,0,0,1-56.94-23.21h0l-.75,2.31q-7.07,21.56-14.09,43.38l-1.26,3.93Q7.54,1487.64,0,1511.76c368.52,175.42,1080.53,194.32,1271.35,79.86l-.07-.21q-38-121.5-81-241.37A6152.82,6152.82,0,0,0,726.58,349.53Zm63,1041.56h0l-.24.06c-1.29.42-2.6.77-3.94,1.08-.43.1-.88.18-1.32.27-1,.21-2.09.37-3.15.51-.44.06-.88.12-1.33.16-1.47.14-3,.24-4.46.24-26.76,0-48.44-23-48.44-51.45a54.19,54.19,0,0,1,2.18-15.3c6.13-20.94,24.52-36.15,46.26-36.15,1.52,0,3,.1,4.49.24.42,0,.83.1,1.24.15,1.1.14,2.18.32,3.25.53.42.08.85.16,1.26.26,1.35.31,2.67.66,4,1.08l.23.07h0c19.7,6.52,34,26.05,34,49.12S809.25,1384.57,789.55,1391.09Zm295.59,160.33h0c-.11,0-.24.08-.35.12a61.4,61.4,0,0,1-6,1.86c-.64.17-1.3.31-2,.45-1.58.36-3.18.66-4.8.89-.66.1-1.31.2-2,.28a60,60,0,0,1-6.73.41c-40.34,0-73-39.7-73-88.67s32.71-88.66,73-88.66a60,60,0,0,1,6.73.41c.67.07,1.33.18,2,.28,1.6.23,3.19.52,4.76.88.66.15,1.33.29,2,.46,2,.53,4,1.13,5.93,1.85l.36.12h0c29.71,11.24,51.27,44.89,51.27,84.65S1114.85,1540.17,1085.14,1551.42Z"/><path class="cls-5" d="M365.27,1027.06h0c2.46,0,4.9.11,7.33.29.72.05,1.44.12,2.16.19,1.78.17,3.56.37,5.32.63.73.11,1.46.21,2.18.33q3.39.55,6.73,1.33c.13,0,.27.05.4.09,2.33.55,4.64,1.21,6.93,1.92l2.22.74q2.43.81,4.83,1.74c.76.29,1.53.58,2.3.9q2.9,1.18,5.76,2.55c.32.15.65.28,1,.44l0,0c59.55,29,104,111.32,110.22,211.2,24.76-22.61,43.7-49.3,49.29-76.1,11.55-55.41-30.91-105.35-65.32-143.7-35.65-39.73-80-71.57-135.07-74-49.91-2.18-100.93,20.49-130.42,60.82-32.24,44.12-33.85,98.75-17.8,148.85,2.1-6.69,4.37-13.23,6.84-19.56C257.81,1074.6,308,1027.06,365.27,1027.06Z"/><path class="cls-6" d="M522.57,1249.44c-6.24-99.88-50.67-182.25-110.22-211.2-64.26,31.3-110.89,124.85-110.89,235.4s46.66,204.14,110.93,235.43c56.72-27.6,99.7-103.69,109-197.16,1.24-12.47,1.9-25.25,1.9-38.27C523.33,1265.47,523.06,1257.4,522.57,1249.44Z"/><path class="cls-6" d="M343.35,1517.82c-3-.65-6-1.42-9-2.34C337.32,1516.4,340.32,1517.17,343.35,1517.82Z"/><path class="cls-6" d="M275.81,1476.83q-1.67-1.78-3.28-3.63Q274.15,1475,275.81,1476.83Z"/><path class="cls-6" d="M283.82,1484.88c-1.4-1.33-2.81-2.65-4.18-4C281,1482.23,282.42,1483.55,283.82,1484.88Z"/><path class="cls-6" d="M268.72,1468.8c-1.08-1.3-2.12-2.66-3.17-4C266.6,1466.14,267.64,1467.5,268.72,1468.8Z"/><path class="cls-6" d="M294,1493.68c-1.6-1.27-3.18-2.61-4.76-4C290.78,1491.07,292.36,1492.41,294,1493.68Z"/><path class="cls-6" d="M322.3,1510.92c-2.08-.91-4.13-1.9-6.18-3C318.17,1509,320.22,1510,322.3,1510.92Z"/><path class="cls-6" d="M257.43,1453.83c.62.91,1.27,1.76,1.9,2.65-.83-1.17-1.66-2.34-2.48-3.54C257.05,1453.23,257.23,1453.54,257.43,1453.83Z"/><path class="cls-6" d="M302.36,1499.81c-1.62-1.1-3.22-2.23-4.81-3.41C299.14,1497.58,300.74,1498.71,302.36,1499.81Z"/><path class="cls-6" d="M332.28,1514.76q-3.45-1.14-6.86-2.52Q328.83,1513.62,332.28,1514.76Z"/><path class="cls-6" d="M313.5,1506.65c-2.65-1.43-5.26-3-7.84-4.62C308.24,1503.67,310.85,1505.22,313.5,1506.65Z"/><path class="cls-6" d="M250.82,1443.54c-.48-.8-1-1.58-1.47-2.39C249.83,1442,250.33,1442.74,250.82,1443.54Z"/><path class="cls-6" d="M365.27,1520.22h0c-3.21,0-6.38-.2-9.54-.5C358.89,1520,362.06,1520.22,365.27,1520.22Z"/><path class="cls-6" d="M237.33,1418.28c-.48-1-1-2-1.45-3C236.34,1416.28,236.85,1417.26,237.33,1418.28Z"/><path class="cls-6" d="M243.83,1431.29c-.5-.93-1-1.83-1.51-2.77C242.81,1429.46,243.33,1430.36,243.83,1431.29Z"/><path class="cls-6" d="M353,1519.41c-2.39-.29-4.78-.66-7.14-1.11C348.21,1518.75,350.6,1519.12,353,1519.41Z"/><path class="cls-6" d="M230.09,1145.78c27.72-71.18,77.89-118.72,135.18-118.72h0C308,1027.06,257.81,1074.6,230.09,1145.78Z"/><path class="cls-3" d="M301.46,1273.64c0-110.55,46.63-204.1,110.89-235.4l0,0c-.32-.16-.65-.29-1-.44q-2.87-1.37-5.76-2.55c-.77-.32-1.54-.61-2.3-.9q-2.4-.93-4.83-1.74l-2.22-.74c-2.29-.71-4.6-1.37-6.93-1.92-.13,0-.27-.06-.4-.09q-3.35-.78-6.73-1.33c-.72-.12-1.45-.22-2.18-.33-1.76-.26-3.54-.46-5.32-.63-.72-.07-1.44-.14-2.16-.19-2.43-.18-4.87-.29-7.33-.29h0c-57.29,0-107.46,47.54-135.18,118.72-2.47,6.33-4.74,12.87-6.84,19.56-10.26,32.69-16,69.44-16,108.3,0,46.81,8.36,90.58,22.88,127.86q2.74,7,5.79,13.75c.46,1,1,2,1.45,3,1.61,3.47,3.26,6.91,5,10.24.49.94,1,1.84,1.51,2.77,1.79,3.36,3.62,6.66,5.52,9.86.48.81,1,1.59,1.47,2.39q2.94,4.82,6,9.4c.82,1.2,1.65,2.37,2.48,3.54q3,4.29,6.22,8.32c1.05,1.34,2.09,2.7,3.17,4,1.25,1.51,2.53,3,3.81,4.4q1.62,1.85,3.28,3.63c1.27,1.36,2.53,2.71,3.83,4s2.78,2.71,4.18,4c1.78,1.66,3.57,3.28,5.38,4.84,1.58,1.35,3.16,2.69,4.76,4,1.19.93,2.39,1.83,3.59,2.72,1.59,1.18,3.19,2.31,4.81,3.41,1.1.74,2.19,1.51,3.3,2.22,2.58,1.64,5.19,3.19,7.84,4.62.87.47,1.75.88,2.62,1.32,2.05,1,4.1,2,6.18,3q1.56.69,3.12,1.32,3.4,1.38,6.86,2.52c.69.23,1.38.5,2.08.72,3,.92,6,1.69,9,2.34.83.18,1.66.32,2.5.48,2.36.45,4.75.82,7.14,1.11.91.11,1.82.23,2.74.31,3.16.3,6.33.5,9.54.5h0c2.46,0,4.9-.12,7.33-.29.72,0,1.44-.13,2.16-.2,1.78-.16,3.56-.37,5.32-.63.73-.1,1.46-.2,2.18-.32,2.26-.38,4.5-.81,6.73-1.34l.4-.08c2.33-.56,4.64-1.22,6.94-1.93.73-.23,1.46-.48,2.19-.73,1.64-.54,3.26-1.13,4.88-1.75l2.24-.88q3-1.23,6-2.64l.78-.36h0C348.12,1477.78,301.46,1384.21,301.46,1273.64Z"/><path class="cls-5" d="M610,869.46c23.52,3,46.55-1.48,67.65-11.21,13.26-52,47.84-91.4,90.26-100.42,20.58-55.43,17.44-120.41-13.52-170.76C735.85,557,700.14,526.26,662,514.3a123.71,123.71,0,0,1,.83,13.9c0,35.33-14.91,65.22-35.45,75.22h0l-.23.1a36.19,36.19,0,0,1-4.12,1.66c-.45.15-.91.27-1.36.4-1.09.32-2.2.58-3.31.79-.46.09-.91.18-1.37.25a32.75,32.75,0,0,1-4.65.36c-26.53,0-48.23-31.91-50.3-72.46-35.89,25-64.92,63.76-77.51,102.53-18.49,57-7.9,122.58,27.6,170.83C535.61,839.78,570.66,864.52,610,869.46Z"/><path class="cls-6" d="M592,528.2c0,35.33,14.9,65.22,35.44,75.22,20.54-10,35.45-39.89,35.45-75.22a123.71,123.71,0,0,0-.83-13.9c-3.33-29.09-16.84-52.68-34.62-61.33C606.87,463,592,492.87,592,528.2Z"/><path class="cls-3" d="M612.36,607a32.75,32.75,0,0,0,4.65-.36c.46-.07.91-.16,1.37-.25,1.11-.21,2.22-.47,3.31-.79.45-.13.91-.25,1.36-.4a36.19,36.19,0,0,0,4.12-1.66l.23-.1h0c-20.54-10-35.44-39.89-35.44-75.22S606.87,463,627.41,453h0l-.23-.1a36.11,36.11,0,0,0-4.12-1.65c-.45-.16-.91-.28-1.36-.41-1.09-.32-2.2-.58-3.31-.79-.46-.08-.91-.18-1.37-.24a32.76,32.76,0,0,0-4.65-.37c-27.9,0-50.51,35.27-50.51,78.79,0,2.13.1,4.23.21,6.32C564.13,575.07,585.83,607,612.36,607Z"/><path class="cls-6" d="M1085.14,1382.11c-29.7,11.24-51.27,44.89-51.27,84.65s21.57,73.41,51.27,84.66c29.71-11.25,51.27-44.89,51.27-84.66S1114.85,1393.35,1085.14,1382.11Z"/><path class="cls-3" d="M1033.87,1466.76c0-39.76,21.57-73.41,51.27-84.65h0l-.36-.12c-1.94-.72-3.92-1.32-5.93-1.85-.66-.17-1.33-.31-2-.46-1.57-.36-3.16-.65-4.76-.88-.67-.1-1.33-.21-2-.28a60,60,0,0,0-6.73-.41c-40.34,0-73,39.69-73,88.66s32.71,88.67,73,88.67a60,60,0,0,0,6.73-.41c.67-.08,1.32-.18,2-.28,1.62-.23,3.22-.53,4.8-.89.65-.14,1.31-.28,2-.45a61.4,61.4,0,0,0,6-1.86c.11,0,.24-.07.35-.12h0C1055.44,1540.17,1033.87,1506.52,1033.87,1466.76Z"/><path class="cls-6" d="M789.55,1292.85c-19.7,6.53-34,26.05-34,49.12s14.3,42.6,34,49.12c19.7-6.52,34-26,34-49.12S809.25,1299.37,789.55,1292.85Z"/><path class="cls-3" d="M755.55,1342c0-23.07,14.3-42.59,34-49.12h0l-.23-.07c-1.3-.42-2.62-.77-4-1.08-.41-.1-.84-.18-1.26-.26-1.07-.21-2.15-.39-3.25-.53-.41-.05-.82-.11-1.24-.15-1.48-.14-3-.24-4.49-.24-21.74,0-40.13,15.21-46.26,36.15a54.19,54.19,0,0,0-2.18,15.3c0,28.42,21.68,51.45,48.44,51.45,1.51,0,3-.1,4.46-.24.45,0,.89-.1,1.33-.16,1.06-.14,2.11-.3,3.15-.51.44-.09.89-.17,1.32-.27,1.34-.31,2.65-.66,3.94-1.08l.24-.06h0C769.85,1384.57,755.55,1365,755.55,1342Z"/><path class="cls-6" d="M740.14,905.39c0,67,33.79,123.67,80.34,142.7,46.7-18.91,80.66-75.58,80.66-142.7s-34-123.79-80.66-142.71C773.93,781.72,740.14,838.4,740.14,905.39Z"/><path class="cls-3" d="M677.6,858.25a191.36,191.36,0,0,0-5.84,47.14c0,82.59,51.35,149.54,114.69,149.54,2.65,0,5.28-.16,7.89-.39l1.9-.19a90.69,90.69,0,0,0,15.3-3l1.71-.52c2.49-.78,5-1.63,7.39-2.61l-.16-.08c-46.55-19-80.34-75.72-80.34-142.7s33.79-123.67,80.34-142.71l.16-.07c-2.42-1-4.9-1.83-7.39-2.61l-1.71-.52a89.71,89.71,0,0,0-15.3-3.05l-1.9-.19c-2.61-.23-5.24-.39-7.89-.39a89.69,89.69,0,0,0-18.59,2C725.44,766.85,690.86,806.2,677.6,858.25Z"/><path class="cls-7" d="M958.43,351.1c33.15,70.53,43.57,141.15,31.94,189.19h0c.12,0,.24,0,.37,0,1.77-.11,3.52-.28,5.25-.53l.23-.05q2.65-.4,5.24-1c.43-.11.85-.27,1.27-.38,1.36-.37,2.73-.74,4.06-1.21q2.63-.93,5.18-2.13a57.57,57.57,0,0,0,14-9.38,64.36,64.36,0,0,0,7.85-8.5,82,82,0,0,0,9.47-15.79,104.84,104.84,0,0,0,4.77-12.39c15.26-48,5.66-123-29.55-197.89C990,230.11,950.5,182.21,911.69,156.28q-4.49-3-8.94-5.59a138,138,0,0,0-17.69-8.75,108.32,108.32,0,0,0-12.59-4.23,85.77,85.77,0,0,0-12.24-2.34c-12-1.38-23.42.18-33.7,5a57.35,57.35,0,0,0-6.23,3.48l-1.58,1.07a55.39,55.39,0,0,0-4.77,3.62c-.31.26-.64.51-1,.78a61.44,61.44,0,0,0-5.24,5.22c-.26.29-.5.6-.76.9-1.46,1.68-2.84,3.46-4.16,5.32-.24.34-.49.67-.72,1a87.12,87.12,0,0,0-8,14.72l-.3.71c-1.2,2.87-2.3,5.88-3.3,9-.28.85-.49,1.78-.75,2.65-.62,2.07-1.25,4.13-1.78,6.29h0C842,192.05,913.55,255.62,958.43,351.1Z"/><path class="cls-7" d="M1208.61,735.83c5,28.72-.27,52.86-12.24,65.5h0c.65.26,1.29.41,1.94.64,1.09.38,2.17.8,3.27,1.08a35.83,35.83,0,0,0,5.25,1c28.26,3.05,44.94-30.44,37.25-74.8s-36.84-82.8-65.1-85.85a31,31,0,0,0-4.6-.13c-.42,0-.84,0-1.26.08a27.55,27.55,0,0,0-3.45.47c-.32.06-.66.1-1,.18a29.14,29.14,0,0,0-3.91,1.24c-.4.16-.79.36-1.2.54-.89.41-1.77.86-2.62,1.36-.43.25-.86.5-1.28.77a31.67,31.67,0,0,0-3.2,2.39c-.33.28-.63.61-1,.91-.53.49-1.06,1-1.56,1.48l.06,0C1178.67,662.67,1201.87,697,1208.61,735.83Z"/><path class="cls-7" d="M1192.73,1070.33c.41.15.83.31,1.25.42a15.92,15.92,0,0,0,2.11.39c11.33,1.22,18-12.2,14.94-30s-14.77-33.2-26.1-34.42a12.43,12.43,0,0,0-2.59,0l-.66.09a11.81,11.81,0,0,0-2,.49l-.4.13a11.53,11.53,0,0,0-2.17,1.14c-.12.08-.23.17-.34.26a12,12,0,0,0-1.64,1.4c-.08.08-.17.13-.24.21h0c9.88,4,19.19,17.75,21.89,33.33,2,11.51-.11,21.19-4.91,26.26h0C1192.17,1070.17,1192.45,1070.24,1192.73,1070.33Z"/><path class="cls-7" d="M1458.63,1277.17a261.83,261.83,0,0,0-6.27-27.26c-1-3.57-2.1-7.13-3.25-10.63-.93-2.79-1.9-5.54-2.91-8.27q-2.15-5.82-4.52-11.45c-2.39-5.67-5-11.14-7.73-16.49-24.34-48-61.09-82.65-97.13-86.54-2.09-.22-4.13-.3-6.15-.32l-1.6,0c-1.69,0-3.35.14-5,.31l-1,.1a54.55,54.55,0,0,0-5.78,1.06c-.29.07-.58.16-.86.24a51.06,51.06,0,0,0-4.92,1.54l-.86.31a53.51,53.51,0,0,0-10.61,5.58l-.41.28a58.8,58.8,0,0,0-5.15,4c-.44.38-.85.83-1.28,1.22-1.08,1-2.17,2-3.2,3.05l0,0c46.15,18.61,89.59,82.83,102.21,155.58,9.31,53.73-.5,98.9-22.91,122.56h0l.14.05c1.32.53,2.64,1,4,1.45l.84.31q2.42.8,4.83,1.42c.13,0,.26.06.4.09,1.49.38,3,.72,4.48,1,1.64.31,3.28.55,4.91.73C1441.81,1422.84,1473,1360.17,1458.63,1277.17Z"/><path class="cls-5" d="M423.08,751.19a14.31,14.31,0,1,0-14.31-14.31A14.31,14.31,0,0,0,423.08,751.19Z"/><path class="cls-5" d="M669.13,1038.93a14.31,14.31,0,1,0,14.32,14.31A14.31,14.31,0,0,0,669.13,1038.93Z"/><path class="cls-5" d="M575.28,396.53A14.32,14.32,0,1,0,561,382.22,14.31,14.31,0,0,0,575.28,396.53Z"/><path class="cls-5" d="M138,1358.48a14.31,14.31,0,1,0-14.31-14.31A14.31,14.31,0,0,0,138,1358.48Z"/><path class="cls-5" d="M928.94,1197.94a36.09,36.09,0,1,0-36.09-36.08A36.08,36.08,0,0,0,928.94,1197.94Z"/><path class="cls-5" d="M1254.93,1414.25S1145,942.49,885.46,547.06C885.46,547.06,1134.32,1041.73,1254.93,1414.25Z"/></g></g></svg>