<svg xmlns="http://www.w3.org/2000/svg" viewBox="0 0 151.33 73.13"><defs><style>.cls-1{fill:#fd982f;}.cls-2{fill:#f77e09;}.cls-3{fill:#fdd0ca;}.cls-4{fill:#fd9931;}.cls-5{fill:#f87f0a;}.cls-6{fill:#fdd0c9;}.cls-7{fill:#fdc0ac;}.cls-8{fill:#fdc0ab;}.cls-9{fill:#c95517;}.cls-10{fill:#f87e08;}.cls-11{fill:#e56b08;}.cls-12{fill:#e66d0b;}.cls-13{fill:#fec0ad;}.cls-14{fill:#e56c08;}.cls-15{fill:#c95316;}.cls-16{fill:#f67c08;}.cls-17{fill:#e66c08;}.cls-18{fill:#fdcec4;}.cls-19{fill:#fd972d;}.cls-20{fill:#f47a08;}.cls-21{fill:#e3670d;}.cls-22{fill:#f98717;}.cls-23{fill:#b8331f;}.cls-24{fill:#feab40;}.cls-25{fill:#fe982e;}.cls-26{fill:#ffac41;}.cls-27{fill:#da4f1d;}.cls-28{fill:#fcbf92;}.cls-29{fill:#fdc0a9;}.cls-30{fill:#d97242;}.cls-31{fill:#e76d08;}.cls-32{fill:#c24615;}.cls-33{fill:#c1491c;}.cls-34{fill:#ef7508;}</style></defs><title>chickenL_1</title><g id="Layer_2" data-name="Layer 2"><g id="Layer_1-2" data-name="Layer 1"><path class="cls-1" d="M85.82,0h4.57L94,1.52,98,4.57l6.09,1,3.05,2h5.08l7.11,2,2,2.54,2,5.08,2.54,2.53,7.61.51,3.56,5.59,3,2.54L144.22,30l2,2,3.05,6.1,2,3v2.54l-2.54,5.08-2,9.14-3,2.54-5.08,1-3.55,3-2,2.54L129,68.55l-8.12,1.53-4.57,2.54-2,.51H88.87L84.3,71.6l-4.07-3-3.55-.5-4.06.5-3.05,3.56H60.43l-2,1-4.57-.51-6.1-3.05-4.57.51-5.07,2.54-3.56.51L28.44,71.6l-3.56-2H19.3l-5.08.51-3.56-1.53L8.13,67V66l-2-1L2.54,60.94,1,58.91,0,56.37V52.3l1.52-2V46.21L1,41.64,4.57,39.1h1l1-2,1.53-.51.5-4.06,2-2.54,6.61-1.52,2.53-1.53h1l1-2.53,2-2.54,3-1.53H37.07l2.54-1,3.55-1h5.08L51.8,19.8h9.65v1l2.53-1,4.57-2h1l1-3,2-3.05,2.54-2,2-1.52,1.52-3.56L81.25,2Z"/><path class="cls-2" d="M120.35,34l2,2.54,3.05,2,4.57,1,1,.51-.51,2-2,3.05L128,48.75l5.08-3h3l2.54,3.56,4.07,1,2,2.54,2,1.53v3.55l-3,2.54-5.08,1-3.55,3-2,2.54L129,68.55l-8.12,1.53-4.57,2.54-2,.51H88.87L84.3,71.6l-4.07-3-3.55-.5-4.06.5-3.05,3.56H60.43l-2,1-4.57-.51-6.1-3.05-4.57.51-5.07,2.54-3.56.51L28.44,71.6l-3.56-2H19.3l-5.08.51-3.56-1.53L8.13,67V66l-2-1L2.54,60.94,1,58.91v-2l1.52-.51,7.62,2,2.54,1h4.06l4.57-2,4.06.51,5.08,3.56L34,60.94l3-.51,3.56,2,1.52-5.08,2-3,4.57-3.05,7.11-5.08,2.54-1,3.05,2.53h1L65,44.18l2.54.51,2,1.52,2.54-.51,2-2.54,1-.5,4.57.5,3.55.51,1-3h.5V57.38h1.53l-6.1,5.08-1.52,1L78.2,65l2.54,1,3.56.5L88.36,65h4.06l6.6,3h5.08l5.08-2,4.06-3.56,2.54-4.57,1.52-6.6,3-5.59,1.53-2.54V39.1l-1.53-3.55Z"/><path class="cls-3" d="M92.93,8.13H98l3.55,1.52,6.1.51,4.06,2,.51.51,1,5.58,2,3.56,3,3.55,1.52,6.6,1.53,5.08,1,2v4.06l-4.57,8.13-2,8.12L112.23,64,108.16,67l-4.06,1.52H99l-6.6-3H88.36L84.3,67l-3.56-.51L78.2,65l.51-2,7.11-5.59.51-16.25-3.56-5.58L80.23,32l-.5,2-2.54-3.55V29l-2-1-2-1.52v-1h1l1.52-2.54,4.07-5.08,3.55-5.07,2.54-2,4.57-2Z"/><path class="cls-4" d="M85.82,0h4.57L94,1.52,98,4.57l6.09,1,3.05,2h5.08l7.11,2,2,2.54,2,5.08,2.54,2.53,7.61.51,3.56,5.59,3,2.54L144.22,30l2,2,3.05,6.1,2,3v2.54l-2.54,5.08-1.52,7.62-1-2-3.55-3.05v-1l-4.07-.5-2.54-3.56h-3L129,48.75h-1V45.2l2-3.05,1-2-6.61-1.53-3-2.54-1.53-1.52-1.52-8.12-2-3.05-3.05-3.56-1-3-.51-4.06-4.06-2-6.1-.5L98,8.63H92.93l-5.08,1.53L83.79,12.7l-4.06,5.58-4.07,5.08-1,3.05-.51-1-2,1.52h-1l-.5-3.55-2.54-1-4.57-1,1-2,5.08-1.53,1-3,2-3.05,2.54-2,2-1.52,1.52-3.56L81.25,2Z"/><path class="cls-5" d="M120.35,34l2,2.54,3.05,2,4.57,1,1,.51-.51,2-2,3.05L128,48.75l5.08-3h3l2.54,3.56,4.07,1,2,2.54,2,1.53v3.55l-3,2.54-5.08,1-3.55,3-2,2.54L129,68.55l-8.12,1.53-4.57,2.54-2,.51h-7.62l-3.55-.51-2-.51-1.52.51H96V69.57L91.41,67h-6.1l1.53-1.52L88.36,65h4.06l6.6,3h5.08l5.08-2,4.06-3.56,2.54-4.57,1.52-6.6,3-5.59,1.53-2.54V39.1l-1.53-3.55Z"/><path class="cls-6" d="M104.1,40.12l3.56.51,2.54,2,4.06,5.07,2.54,3.56v4.57l-1.53,4.06-3,4.06L108.16,67l-4.06,1.52H99L91.41,65l-2-1,4.06-4.57L97,51.29l2.54-6.6,1.52-3Z"/><path class="cls-7" d="M104.61,34h6.6l5.59,2,3.55,2h1.53l.5,1v4.06l-4.57,8.13-1,1.52-2-3.55-3.56-4.57-2.54-2.54-2.54-1.52-3.55.5-1.53,1-3,7.62L94.45,58.4l-3,4.06L89.88,64l1.53,1-4.57,1L84.3,67l-3.56-.51L78.2,65l.51-2,7.11-5.59,1-15.74,1,1,2.54-2.54,1,.51v3l-2,3-2.54,1,.5,8.64,4.57-4.57,3-5.08L99,38.09l3.56-3.56Z"/><path class="cls-7" d="M112.23,18.28h1l2,3.56,3,3.55,1.52,6.6.51,3.56L114.77,33l-3-1-5.08-.51-4.57,1-3,2-4.57,5.08-1.52-.51-1-2,.51-3L96,28.44l5.07-5.08,4.58-2.54,4.57-2Z"/><path class="cls-8" d="M92.93,8.13H98l3.55,1.52,6.1.51,4.06,2,.51.51v3.55l-2.54-1.52-4.06-2-2-.51H96.48l-6.09,2.54-5.08,4.06-.51,1-3,1.53h-1l-.51,2.54-3.55,3h-1l-.5,1-2-1.52v-1h1l1.52-2.54,4.07-5.08,3.55-5.07,2.54-2,4.57-2Z"/><path class="cls-9" d="M88.87,4.06l3.55.51,1,.51v1l2,.51L96,8.13,88.87,9.65,84.3,12.19l-3.56,4.57-4.06,5.58-1.52,1.53-.51,2.54-.51-1-2,1.52h-1l-.5-3.55-2.54-1-4.57-1L64,19.8l4.57,1.53,3.56-.51,3-5.59,2-2,4.06-1.52,6.6-7.11Z"/><path class="cls-1" d="M77.7,63.48,78.2,65l2.54,1,3.56.5h7.11l5.07,3v2.54h3l2.54-.51,4.57,1v.51H88.87L84.3,71.6l-4.07-3-2.53-1-.51-2Z"/><path class="cls-10" d="M121.88,22.34l2,1,2.54,6.09,3,2,.51,2-1.52,2.53-.51.51h-3L122.38,35l-1.52-3.56-1.52-7.61Z"/><path class="cls-11" d="M133.05,56.37l2.54,1,2.54,2,1.52.51,1-2,2,1,.5,1-4.57,1.53-3.55,3-2,2.54L129,68.55h-4.57l2-.5,1-2,2-3,3-6.09Z"/><path class="cls-12" d="M83.79,51.29h.51l.5,6.09h1.53l-6.1,5.08-2.53,1-.51,3,1,.51-1.52,1-4.06.5-2.54,3H67.54l1.52-1.52,3.56-3,2.54-6.09,4.57-4.57,3.55-2.54Z"/><path class="cls-10" d="M50.27,42.15h5.08l1.53,1-.51,2-5.08,4.06L46.21,51.8l-1-1V47.23l3-4.07Z"/><path class="cls-13" d="M102.07,46.72l2.54,1,1.52,2-.5,2.53-2.54,2.54-1,.51H99V51.29l1.53-4.06Z"/><path class="cls-14" d="M116.8,67h3l1,1,3,.5-1.53,1-6.09,3.05H110.2v-2l4.06-2.54Z"/><path class="cls-15" d="M88.87,4.06l3.55.51,1,.51v1l2,.51L96,8.13,88.87,9.65l-3.05,1-1-1-2,1,3-4.06Z"/><path class="cls-16" d="M53.83,36.56l3.05,1,.5,2.54-.5.51H52.3l-1-.51.51-2.54Z"/><path class="cls-17" d="M75.66,65l1.53.51v1l1,.51-1.52,1-4.06.5-2.54,3H67.54l1.52-1.52,3.56-3,1-1Z"/><path class="cls-18" d="M79.73,64l3,.51h5.08v1L84.3,67l-3.56-.51-2-2Z"/><path class="cls-19" d="M47.23,59.41h3.55v2l-3.55,2L45.7,63l.51-3Z"/><path class="cls-20" d="M116.29,17.27l2.54.5,1,2-.5,2.54-2-1-2-3Z"/><path class="cls-21" d="M87.34,6.6l2,1v1l1,.51-4.57,1.52-1-1-2,1,2-3,2-.51Z"/><path class="cls-22" d="M77.7,63.48,78.2,65l2.54,1,2.54,2-.51.5-3.55-.5L77.7,67l-.51-1.52Z"/><path class="cls-23" d="M71.6,22.34l3.05,1v3.05l-.51-1-2,1.52h-1l-.5-4.06Z"/><path class="cls-24" d="M100.55,7.11l4.57.51.51,1.52-1.53,1h-2.54Z"/><path class="cls-25" d="M131.52,50.78l2,.51v2.54l-.5.51h-2.54l-1-1.53Z"/><path class="cls-26" d="M28.44,23.36l.51,1L25.9,28.44,24.38,31l-2,.5,2.54-4.06,1.53-2.54Z"/><path class="cls-27" d="M84.8,9.14l1,2-3.55,2.54-1.53-.51,1-2Z"/><path class="cls-26" d="M36.05,23.36l3.56.51v1l-3.56,1H34V24.38Z"/><path class="cls-28" d="M77.19,29l2,.5L80.74,31l-.51,3L77.7,31.48Z"/><path class="cls-29" d="M96.48,22.34l1.53.51-1,2.54-2,1-.51-2Z"/><path class="cls-30" d="M82.77,58.91v1.52l-4.06,3L77.19,63l2.54-2.54Z"/><path class="cls-31" d="M57.38,45.2l2,1-2,.51L52.3,50.27l-1-.5Z"/><path class="cls-32" d="M64,19.8l4.57,1.53,3.56.51-.51,1-6.6-1-1.52-.51Z"/><path class="cls-33" d="M75.66,63l2,.51v2L75.16,66H73.63Z"/><path class="cls-34" d="M67.54,43.16h3l1,2-1.52.5-2.54-1.52Z"/></g></g></svg>