<svg xmlns="http://www.w3.org/2000/svg" viewBox="0 0 136.6 90.9"><defs><style>.cls-1{fill:#f77d08;}.cls-2{fill:#fd982e;}.cls-3{fill:#e46a08;}.cls-4{fill:#feab41;}.cls-5{fill:#fe982e;}.cls-6{fill:#fd9a32;}.cls-7{fill:#f87f0a;}.cls-8{fill:#f77d09;}.cls-9{fill:#fd9b35;}.cls-10{fill:#fd9a33;}.cls-11{fill:#e96f08;}.cls-12{fill:#ffac41;}.cls-13{fill:#f87e08;}.cls-14{fill:#e56b08;}.cls-15{fill:#feac44;}.cls-16{fill:#feaf50;}.cls-17{fill:#e76d08;}.cls-18{fill:#fead49;}.cls-19{fill:#fd9830;}</style></defs><title>chickenT</title><g id="Layer_2" data-name="Layer 2"><g id="Layer_1-2" data-name="Layer 1"><path class="cls-1" d="M116.8,0h6.09l3.56,2.54,2,6.6,1,2,3,1,3.55,4.57.51,1.52v4.06l-3,5.08-5.07,6.1L125.94,35h-4.06l-7.11-2-4.07-2-3.55.5-4.06,2-2.54,3.55L99,42.15l-2,2-3.55,1-1.53,3L90.39,52.3l-1.52,1.53H85.82l-2,2-2.54,9.65-3,3.55-4.57,2-.5,7.11-3,5.08-3.56,3-2.54,1-3.55-.5-2-.51H54.84l-2,1.52H50.27l-2-2.54-2-.51-8.12,5.08L35,90.9l-4.57-.51-3.56-1H22.34l-5.07,1-2-1-3.55-6.61-3-2.54L5.08,78.71,1.52,74.65,0,70.08V66l1.52-3.56,2-3.05-.5-2.53-2-2L0,51.29l.51-3.56.51-.5.5-7.62,3.56-5.08L6.6,28.44,9.14,25.9l4.06-2.54h1.53l.5-1.52,3.05-2.54,2.54-4.57,3.56-2.54,7.1-2L35,6.09l1.52-1.52,3,.51,1.52,1h3.56l3.55-1.52,4.06.51,4.07,2.54h5.08L63,6.6h3l7.61,4.06,4.07,1h7.1l5.08-3.55,2.54.5,4.06,4.07,2,1h4.57l3-2,4.07-6.09L114.77,1Z"/><path class="cls-2" d="M116.8,0h6.09l3.56,2.54,2,6.6,1,2,3,1,.51,2-1.53,6.6L128,24.88l-4.06,2-1.53.51H117.3l-6.09-5.08-1-.5h-3l-5.08,3.55-3,1.52-6.09-1.52H86.84L75.16,28.44l-8.13,3-2,3.05-1.52,5.59-4.07,1.52-5.58,1L51.29,45.2l-3,4.57-2,1-5.58.51-4.58,3.05L32,57.89l-3.55-.51L23.36,51.8l-3.05-1.53H16.25L5.59,54.34l-2,.5-.5,1.53L1,54.84,0,51.29l.51-3.56.51-.5.5-7.62,3.56-5.08L6.6,28.44,9.14,25.9l4.06-2.54h1.53l.5-1.52,3.05-2.54,2.54-4.57,3.56-2.54,7.1-2L35,6.09l1.52-1.52,3,.51,1.52,1h3.56l3.55-1.52,4.06.51,4.07,2.54h5.08L63,6.6h3l7.61,4.06,4.07,1h7.1l5.08-3.55,2.54.5,4.06,4.07,2,1h4.57l3-2,4.07-6.09L114.77,1Z"/><path class="cls-3" d="M132.54,13.2l2.54,2.54,1.52,2.54v4.06l-3,5.08-5.07,6.1L125.94,35h-4.06l-7.11-2-4.07-2-3.55.5-4.06,2-2.54,3.55L99,42.15l-2,2-3.55,1-1.53,3L90.39,52.3l-1.52,1.53H85.82l-2,2-2.54,9.65-3,3.55-4.57,2-.5,7.11-3,5.08-3.56,3-2.54,1-3.55-.5-2-.51H54.84l-2,1.52H50.27l-2-2.54-2-.51-8.12,5.08L35,90.9l-4.57-.51-3.56-1H22.34l-5.07,1-2-1-3.55-6.61-3.55-3,.5-3.56,5.08-2h4.57l-2-6.6V63l1.52-3.56,2-.5,2,2.54,6.6,2L29,73.13l3,6.09,5.08,2.54h4.57l4.06-1.53,3,.51,2,2h3l2.54-2,3.55-7.11,1.53-6.09,3-4.57,5.59-3,.51-1.52,1.52-1.52,1.52-8.64,2-3,3.56-4.07V34l1.52-2.54L83.28,29l6.1-2.54-1-1h6.09l4.57,1,5.59-3.05,2.54-2h3l4.57,3.55,2.53,2h5.08l4.57-2,3.56-3,1-2.54.51-3.56Z"/><path class="cls-4" d="M112.23,3.55l2,1,3.55-.51,3-.51,2.54,2-.51,2.54-3,5.07-4.57,5.08-1,1h-8.63l-4.58,3.55-2,1H94L81.76,19.3l-6.6-2.54h-3L64,20.82l-6.6,4.06-3.55,1.53-4.57,1L46.72,30l-5.59,6.09-.5.51-6.1.51-1-.51L34,34,35.55,30l-6.1.51L25.39,33l-1.52,3L19.8,39.1l-2.53,1H12.19l-7.62-1,3.05-3.55L12.19,31l6.09-8.13.51-2,1-1.52h-1l1-2.54,1.53-2.54,3.05-2,7.1-2L35,6.09l1.52-1.52,3,.51,1.52,1h3.56l3.55-1.52,4.06.51,4.07,2.54h5.08L63,6.6h3l7.61,4.06,4.07,1h7.1l5.08-3.55,2.54.5,4.06,4.07,2,1h4.57l3-2,4.07-6.09Z"/><path class="cls-5" d="M71.6,31h3.56l2,3,1,4.07-.5,3-5.08,3.56-1.53,3,.51,9.65-1,1.53-9.65,3-6.6,4.57L52.81,66l-1.52-3.56V54.34l1.52-4.57,3-3.56,7.62-3.05,2-2.53L68.05,34Z"/><path class="cls-6" d="M48.24,4.57l4.06.51,4.07,2.54h5.08L63,6.6h3l7.61,4.06,4.07,1h7.1l5.08-3.55,2.54.5L98,14.22h-6.1l-7.11,2-5.58-.51-6.09-1H65l-5.59.5L54.34,12.7l-6.1-4.57L45.7,7.62v1l-4.57,1.53-1.52-1,.51-3.05h4.57Z"/><path class="cls-7" d="M132.54,13.2l2.54,2.54,1.52,2.54v4.06l-3,5.08-5.07,6.1L125.94,35h-4.06l-7.11-2-3-1.53-1.52-4.06-1.53-2h-3l-3,2H97.5l-1.52-1h3l5.59-3.05,2.54-2h3l4.57,3.55,2.53,2h5.08l4.57-2,3.56-3,1-2.54.51-3.56Z"/><path class="cls-1" d="M86.84,24.88h6.09v.51l-3.05.51-1,1.52-5.59,2-3,3.05-.5,3v5.58L76.17,45.2l-2,3-1.52,8.64L71.09,58.4V53.32l-.5-5.59,2-3.55,4.57-3,.51-3L76.17,33l-1-1.53H70.08L66,34.53l-1,1,.51-3,2.54-2,12.18-4.06Z"/><path class="cls-8" d="M65.51,76.17h3.55l1.53,2.54-.51,3.05-1,2-2.54,2.54-2.54,1-3.55-.5-2-1,1.52-3.55L64,77.19Z"/><path class="cls-9" d="M36.56,4.57l2.54.51L38.59,6.6H37.07l-.51,2.54h-1L35,10.66,32,11.17l-1,2.54-4.07,4.57-1.52-.51v-.5l-2,2-3.05-.51V15.23l4.07-3,7.1-2L35,6.09Z"/><path class="cls-10" d="M36.56,4.57l2.54.51L38.59,6.6H37.07l-.51,2.54h-1L35,10.66,32,11.17l-1,2.54-4.07,4.57-1.52-.51,2-3,2-1-.5-2,4.06-3,2-2.54Z"/><path class="cls-3" d="M132.54,22.34h1l-.5,2L129,29.45,127.46,31h-1.52l.51-3.05,2-3.05Z"/><path class="cls-3" d="M58.91,67.54h1.52l-1,6.09-1.52,2-1.52-.5-.51-1V70.59l2.54-2.54Z"/><path class="cls-11" d="M80.23,26.41h2.54l-1,1L71.09,31,66,34.53l-1,1,.51-3,2.54-2Z"/><path class="cls-12" d="M5.08,40.12H8.13l1.52,1.52v1L5.59,44.18H3.05l1.52-3.55Z"/><path class="cls-13" d="M19.8,82.77l1.53.51-.51,2.54-1,3.05-3.55.51V87.85Z"/><path class="cls-14" d="M1.52,68.55l2.54,1,2,3.05.51,3.55-2-1L3.05,71.6H2l-1,1L.51,70.08h1Z"/><path class="cls-5" d="M47.73,57.38l2,1v4.06l-.51,1-2-1-1-1,.51-3.05Z"/><path class="cls-13" d="M90.39,29l1.52,1-4.06,3L84.3,32.5V31Z"/><path class="cls-15" d="M28.44,11.17l1,.51.51,2-1,1-4.07.5-.5-3Z"/><path class="cls-13" d="M31.48,86.84l4.57.5v2l-3,1-1.53-.51Z"/><path class="cls-16" d="M17.77,19.8v1.53l-1.52,1.52h-1l-1,2.54-2,2-.51-2-1-.51,2.54-1.52h1.53l.5-1.52Z"/><path class="cls-17" d="M69.57,30h1.52v1L66,34.53l-1,1,.51-3,2.54-2Z"/><path class="cls-18" d="M6.6,28.44h1V31l1,1-.5,2L5.59,33Z"/><path class="cls-13" d="M77.19,46.21l.51,2-1.53,5.08-1,1V50.27Z"/><path class="cls-5" d="M103.09,13.71h1.52l-.51,2-4.06.51-1-1.52Z"/><path class="cls-19" d="M136.09,18.28h.51v4.06l-1.52,1.53h-1l.51-3.05h1.52Z"/></g></g></svg>