<svg xmlns="http://www.w3.org/2000/svg" viewBox="0 0 154.38 80.74"><defs><style>.cls-1{fill:#f77e08;}.cls-2{fill:#fd982e;}.cls-3{fill:#e46a08;}.cls-4{fill:#fd982f;}.cls-5{fill:#feab40;}.cls-6{fill:#e56b08;}.cls-7{fill:#feaa40;}.cls-8{fill:#f87e08;}.cls-9{fill:#e76d08;}.cls-10{fill:#feaa3f;}.cls-11{fill:#fe982e;}.cls-12{fill:#e76f0c;}.cls-13{fill:#ffac41;}.cls-14{fill:#f77f0b;}.cls-15{fill:#f67c08;}.cls-16{fill:#f77e09;}.cls-17{fill:#fda145;}.cls-18{fill:#fe992f;}.cls-19{fill:#d75f0e;}.cls-20{fill:#fe9e34;}</style></defs><title>chickenB</title><g id="Layer_2" data-name="Layer 2"><g id="Layer_1-2" data-name="Layer 1"><path class="cls-1" d="M103.59,0l3.56,1,5.58,3,3,1h5.59l1.52-.51h3.56L131,7.62l3.55,3.55h3.05l2-1.52h4.57l6.6,2.54,3.56,1.52v3.05l-1,1.52.51,4.06.51,1.53v5.58l-2.54,5.08-3.56,4.06-4.57,2-3.05,2-2,3-2,6.6-2.54,2-2.54,1.52-1,1L129,63.48l-2.53,2-5.59.51-3,2-4.06,5.58-2.54,2-2.54,1-7.62,1-4.06,2-3,.5-3-1-2.54-.51-1.52,1.52-4.07.51L78.2,79.22H73.63l-5.58.51-5.59-1-4.57-2-6.09-.51-4.07,1-4.57-.51-6.09-5.59L33,68.55l-6.6-2-7.62-2-2-3-1.53-3.56-3.55-3-1-2-.5-6.6L7.62,43.67l-3.56-3L2.54,36.05,2,32.5,0,29V25.39l2-4.57.51-6.6,2-1.52,5.08-1.53,5.58-4.06,3.05-2,1.52-.51h4.58L32,6.6h5.08l4.57-2h5.08l3.05,1.52,2-.5L55.86,1h3l6.09,3H78.2l4.07-1h9.14l4.06,2h3L100,3.55l2.54-3Z"/><path class="cls-2" d="M103.59,0l3.56,1,5.58,3,3,1h5.59l1.52-.51h3.56L131,7.62l3.55,3.55h3.05l2-1.52h4.57l6.6,2.54,3.56,1.52v3.05l-1,1.52.51,4.06.51,1.53v5.58l-2.54,5.08-3.56,4.06-4.57,2-3.05,2-2,3-.5,2.54-1.53,1.53-3.55-.51-.51-1H129l-3.55,2-2.54-.5-1.52-1.53-.51-1.52h-6.09l-3.56-1V41.13l7.62-13.2,3-6.09,1.52-5.08V13.71l-4.06,2-3.56,4.06-3,6.1-3,7.62-3.56,4.57-3.55,3.55-5.08,3-4.57,4.57-2-.51-1-1-3,.51-3.56.51-1.52-1.52v-3l3-5.08L89.38,33,94,25.39,98,17.27l2.54-5.59.5-2.54L96,10.66l-4.57,3.56L87.85,19.8,85.31,30l-3.55,5.59-5.08,4.57-6.6,4.57-3-1-1.52-1H57.89l-.51-3.56L64,30.47l6.1-7.62,2.54-4.57,1.52-4.06.51-4.57-2.54,1.52-3,2.54-6.6,8.63-5.08,7.11-6.09,8.64-2,1.52-.51-.51L48.24,35l-3,2-5.08,1H37.58l-1-1V34.53l7.11-9.14,5.59-7.62,2-4.06,1-3.05-.5-2-3,2-5.59,5.59-5.07,6.6L31.48,32,30,33l-3.05-1.53-2,1L23.36,34l-2-1V30l3.55-5.58,4.57-7.11,1-2.54L31,11.68,28.44,13.2l-4.57,5.08L18.28,25.9l-2.54,3.55-2.54-1L9.65,29l-2,1.52H5.08l-2-.51L1.52,32,0,29V25.39l2-4.57.51-6.6,2-1.52,5.08-1.53,5.58-4.06,3.05-2,1.52-.51h4.58L32,6.6h5.08l4.57-2h5.08l3.05,1.52,2-.5L55.86,1h3l6.09,3H78.2l4.07-1h9.14l4.06,2h3L100,3.55l2.54-3Z"/><path class="cls-2" d="M55.86,1h3l6.09,3H78.2l2.54-.51L80.23,6.6l1.53,2.54,3.55,1.52,6.1.51,1,2-3.55,4.57-1.53,4.07-2,8.12-3.55,5.59-5.08,4.57-6.6,4.57-3-1-1.52-1H57.89l-.51-3.56L64,30.47l6.1-7.62,2.54-4.57,1.52-4.06.51-4.57-2.54,1.52-3,2.54-6.6,8.63-5.08,7.11-6.09,8.64-2,1.52-.51-.51L48.24,35l-3,2-5.08,1H37.58l-1-1V34.53l7.11-9.14,5.59-7.62,2-4.06,1-3.05-.5-2-3,2-5.59,5.59-5.07,6.6L31.48,32,30,33l-3.05-1.53-2,1L23.36,34l-2-1V30l3.55-5.58,4.57-7.11,1-2.54L31,11.68,28.44,13.2l-4.57,5.08L18.28,25.9l-2.54,3.55-2.54-1L9.65,29l-2,1.52H5.08l-2-.51L1.52,32,0,29V25.39l2-4.57.51-6.6,2-1.52,5.08-1.53,5.58-4.06,3.05-2,1.52-.51h4.58L32,6.6h5.08l4.57-2h5.08l3.05,1.52,2-.5Z"/><path class="cls-3" d="M9.65,42.15l3,.51v1h1v1l2,1,3.56,2,1.52,2.54,1.52,5.08,2.54,2.54H36.05L40.12,62l7.11-2,3.55-.51,4.06,1L58.91,64l1,1,6.1.51,6.09,3.55,3.55.51,3-1.52h4.06v1l2,1,3,2,2.54-.51,2.54-1.52h3.55L100,71.6h7.62l2.54-1.52.5-1.53h1l.51-3,1-2,1.53-.51h3.55l2,.51V65h1l1-2.54,2-3.05L128,57.89l.51-3,.5-2,5.08.51v1l-2.54,1.52-1,1L129,63.48l-2.53,2-5.59.51-3,2-4.06,5.58-2.54,2-2.54,1-7.62,1-4.06,2-3,.5-3-1-2.54-.51-1.52,1.52-4.07.51L78.2,79.22H73.63l-5.58.51-5.59-1-4.57-2-6.09-.51-4.07,1-4.57-.51-6.09-5.59L33,68.55l-6.6-2-7.62-2-2-3-1.53-3.56-3.55-3-1-2-.5-6.6-1-2.54Z"/><path class="cls-4" d="M19.8,4.57h4.58L32,6.6h5.08l4.57-2h5.08l4.06,2,2,1.53-4.06,2.53-5.59,5.59-5.07,6.6L31.48,32,30,33l-3.05-1.53-2,1L23.36,34l-2-1V30l3.55-5.58,4.57-7.11,1-2.54L31,11.68,28.44,13.2l-4.57,5.08L18.28,25.9l-2.54,3.55-2.54-1L9.65,29l-2,1.52H5.08l-2-.51L1.52,32,0,29V25.39l2-4.57.51-6.6,2-1.52,5.08-1.53,5.58-4.06,3.05-2Z"/><path class="cls-5" d="M82.27,11.17h9.14l1,2-3.55,4.57-1.53,4.07-2,8.12-3.55,5.59-5.08,4.57-6.6,4.57-3-1-1.52-1H57.89l-.51-3.56L64,30.47l6.1-7.62,2-3.05,2.54-2.53L78.2,13.2l2-1.52Z"/><path class="cls-6" d="M98.52,9.14h2.53l-.5,3.56L96,22.85,89.88,33l-6.6,9.14-1,2-2.54,2-3,4.06-2,3.56-4.06,3.55-2.54,2-1.53.51-1-.51V54.34l2-6.1,3-4.57,7.11-5.08L81.76,35l3-5.08L87.34,19.8l3.56-5.58L95,10.66Z"/><path class="cls-3" d="M121.88,13.71h1.52l.51,3.05-2,6.09L116.8,32.5l-6.1,10.16-3.55,4.57-4.06,6.09-1.53.51-.51,2-3,3H96.48V55.35L100,44.69l1.52-3,4.07-3.55,3.55-4.57,5.08-12.19,4.06-5.08Z"/><path class="cls-6" d="M73.13,9.65h1.52v4.57l-2.54,6.09-3.56,5.08L62.46,33,57.89,39.1h-1l-1,2-6.09,6.6L46.21,51.8l-2.54.5.51-3,4.57-8.13,2-3L55.86,31,62,22.34l5.59-7.11,3-3.55Z"/><path class="cls-3" d="M51.8,8.13l1,.5-.51,3.56-2,4.57-4.57,6.6L38.59,32.5,32.5,39.61,26.91,45.7l-2,1.53-1.52-.51.51-3L29,35,35,26.41l4.57-6.1,4.57-5.58,5.59-5.59Z"/><path class="cls-6" d="M29.45,11.68H31l-.51,4.57-3.56,6.09L22.34,29,19.8,31.48l-5.58,6.1H12.7L13.2,34,15.74,29l5.08-7.11,5.08-6.61Z"/><path class="cls-7" d="M110.2,22.34l1,1,1,2.54L111.72,29l-3,6.09-4.57,5.08-2.54,2L98,42.66l.51-3.56,4.06-7.62,5.08-7.1Z"/><path class="cls-8" d="M48.75,63H52.3l3.05,1.52,1.53,2-.51,3.56L54.84,71.6l-2,.51H46.72l-3-1.52-1-2.54,2-3Z"/><path class="cls-9" d="M136.09,21.84h2l-.51,4.06L134.06,32,128,40.12l-2.54,2.54-2,.5-1.52-.5,1-2.54L127,35l3-7.11,4.57-5.08Z"/><path class="cls-10" d="M68.55,8.63h3.56l.51,2-3.56,3.05-6.6,8.63-5.08,7.11-1.52,1-.51-1,1.53-4.57.5-4.57,2.54-2.54,3-2.54,3-4.57Z"/><path class="cls-11" d="M60.43,35,62,39.61l2.54,1,7.11-1,6.1-2,1.52.51-9.14,6.6-3-1-1.52-1H57.89l-.51-3.56Z"/><path class="cls-12" d="M129,52.81l5.08.51v1l-2.54,1.52-1,1L129,63.48l-2.53,2h-5.59l3-5.59,4.06-2,.51-3Z"/><path class="cls-13" d="M81.25,4.06,90.39,6.6l2,1v2l-2.54,1H84.8L81.25,9.14,79.73,6.6l.5-2Z"/><path class="cls-11" d="M79.22,48.75l2.54.51-.51,4.06L77.7,57.38l-1,.51H73.63l-.5-2,3-4.57Z"/><path class="cls-14" d="M40.63,71.6l10.15,2-1,2-3.05.51v1l-3.56-.51-3-4.06Z"/><path class="cls-15" d="M103.59,46.21h2l-1,3.56h-1l-.5,2-2.54,3.55-2,.51L99,51.8l1.53-2.54,1-1.53h1v-1Z"/><path class="cls-8" d="M96,16.25h1l-.51,3.05-4.06,7.11h-1l.5-4.57,3-5.08Z"/><path class="cls-16" d="M54.84,72.62l2.54.51,1,1,.51,2.54-4.07-.51-2-1.52Z"/><path class="cls-11" d="M72.11,19.8l.51,1-4.57,7.11L64,32V30.47l6.1-7.62Z"/><path class="cls-17" d="M2.54,32.5l1,2,1,3.56,1,.5-.51,2h-1L2.54,36.05Z"/><path class="cls-9" d="M96.48,19.3,97,20.82l-2.54,4.57-1-.51,1-3Z"/><path class="cls-18" d="M97.5,60.94h1L98,64.49,96,66l-1-.51Z"/><path class="cls-19" d="M105.12,47.23h1l-.5,2.54-3,4.06-1-.51,2-3.55h1Z"/><path class="cls-20" d="M56.88,44.69l.5,1-3,4.07-1.53.5,1-2Z"/></g></g></svg>