<svg xmlns="http://www.w3.org/2000/svg" viewBox="0 0 150.31 91.91"><defs><style>.cls-1{fill:#f77e08;}.cls-2{fill:#fd982e;}.cls-3{fill:#e56b08;}.cls-4{fill:#f87e09;}.cls-5{fill:#feab40;}.cls-6{fill:#fd9a31;}.cls-7{fill:#e46b08;}.cls-8{fill:#e46a08;}.cls-9{fill:#feac43;}.cls-10{fill:#f77d08;}.cls-11{fill:#fd9830;}.cls-12{fill:#feac45;}.cls-13{fill:#feab45;}.cls-14{fill:#e56b09;}.cls-15{fill:#e8710f;}.cls-16{fill:#fe982e;}.cls-17{fill:#f87e08;}.cls-18{fill:#fea843;}.cls-19{fill:#f07608;}.cls-20{fill:#e76d08;}.cls-21{fill:#f57b08;}</style></defs><title>chickenL</title><g id="Layer_2" data-name="Layer 2"><g id="Layer_1-2" data-name="Layer 1"><path class="cls-1" d="M114.26,0h22.85l5.08,2.54,4.57,4.06.51,1,1,7.11v8.63l-3.05,4.57-1.52,1.52L145.23,34l4.07,6.1,1,3.55v4.57l-1.52,5.08-4.06,6.6L139.14,67l-6.6,7.62-6.09,7.11-4.57,5.08-2.54,2-4.57,2-4.57,1h-5.59l-6.09-1.52L94,87.85l-5.59-4.06-5.08-4.57L78.2,73.63l-6.09-8.12-5.59-6.6L62,56.37H57.38l-3.55,1.52-3.56,3-6.6,9.14L39.1,75.16l-3.55,1.52H12.7l-6.1-.51L2,73.13l-2-3V67.54l7.11-1v-1l4.57-3.05,6.09-5.58,5.59-5.59,8.12-7.11L35,40.12l2.54-4.07-1.53,1H32.5V34L36.56,30l6.1-7.62,8.12-5.07,6.1-3.56,1.52-.51,6.6.51,8.13,2.54L84.8,18.79h6.61l4.06-2L98,12.19l.51-8.13,4.06-2L110.7.51Z"/><path class="cls-2" d="M114.26,0h15.23l4.57,1-.51,1.52,1,1.52h5.08l4.57,7.11.51,3.05-2.54.51.51-2.54-2-2.54h-2.53l-.51.51v8.12h3l2.54,4.06-.5,2.54-.51,1-1.53.51-9.14-.51-4.06-.51h-7.11l-5.08,1.52-2,1-.51,1,.51,4.57L114.77,35l4.57,1,1,1,4.57-.51,2.54,2.54.51,8.63L131,50.27l.5,1.53v5.58L129,64l-3,4.57-4.06,4.07-5.59,3-2,.51h-7.62l-6.09-1.52L95.47,71.6,90.9,67l-2-4.06-.51-8.13-2-4.57-1.53-3,.51-4.57-3-4.07-.51-5.07L78.2,33l1-.51-2-2-3,.51-1,1.52,4.06.51v.51h-6.1L65,30l-2-1-4.57-1-2-2-2.54-1H45.2l-4.07,3.56L37.07,35l-1,2H32.5V34L36.56,30l6.1-7.62,8.12-5.07,6.1-3.56,1.52-.51,6.6.51,8.13,2.54L84.8,18.79h6.61l4.06-2L98,12.19l.51-8.13,4.06-2L110.7.51Z"/><path class="cls-3" d="M129.49,0h7.62l5.08,2.54,4.57,4.06.51,1,1,7.11v8.63l-3.05,4.57-1.52,1.52L145.23,34l4.07,6.1,1,3.55v4.57l-1.52,5.08-4.06,6.6L139.14,67l-6.6,7.62-6.09,7.11-4.57,5.08-2.54,2-1.53,1-2-.5,2-.51-.51-3.05,2,1,1.52-5.08-3.56,1-1,1.53-.51-1V79.73L110.7,78.2l-4.06-1.52v-.51l7.62-.51,5.08-2,4.06-3L127.46,66l3-6.61.51-2V51.8l-1-2-2.54-2L127,39.1l-2-2-4.57.51-2-1.53-3.55-.5-2-2-.5-4.57,2-2,4.06-1.52,2-.51h7.11l9.65,1h5.08l.51-3.56-2-3.55-3-.51-.51-3.55V10.16l1-1h2.53l2.54,3-.5,2h2l-2-5.08-3-4.06v-1l-5.08.51L133.05,2h1V1L129.49.51Z"/><path class="cls-4" d="M129.49,0h7.62l5.08,2.54,4.57,4.06.51,1,1,7.11v8.63l-3.05,4.57-3,1L143.71,33l.51,3.55,2,2,.51,3-1.53,5.59.51,4.06-3.55,1h-4.57l-3.05-2-2-6.09-2-2-1.53-1V36.56L128,34l-3.56-1.52-1-1.52,1.52-3.05,1.53-1h7.61l1,.51,6.6.51v-1h1l.5-2-.5-1-.51-2.54-1.53-2.54-3-.51-.51-3.55V10.16l1-1h2.53l2.54,3-.5,2h2l-2-5.08-3-4.06v-1l-5.08.51L133.05,2h1V1L129.49.51Z"/><path class="cls-5" d="M87.85,41.13l3.56.51,2,1.52,1,3.56,5.08,1,2,1,.51,3.55-1,4.58v3h1.53l.51,1-.51,1,2.54,1,1,1.52V67l-2,1.52h-1l1,3v2.54l-.51.51h-3L95.47,71.6,90.9,67l-2-4.06-.51-8.13-2-4.57-1.53-3,.51-4.07Z"/><path class="cls-6" d="M36.56,38.09l1,2,2,6.6-.51,3.55L35.55,51.8l-5.08,1.52-2,2-2,2.54L19.8,60.43l-7.1,7.11-5.59,2-6.6,1L0,70.08V67.54l7.11-1v-1l4.57-3.05,6.09-5.58,5.59-5.59,8.12-7.11L35,40.12Z"/><path class="cls-7" d="M64,42.15h.51L66,48.75l3,4.06,2,1.53,3,1.52-1,2.54-2.54,3.05,2,2.53,4.57.51,2,.51.51,3,5.07,1.52,2.54,2,1,2v3.56l-1,4.57h1l-.51,1.52-4.06-3.55-5.59-6.1-6.09-8.12-5.59-6.6L62,56.37l-3-.51,1-2.54,2-3-.5-3L58.91,45.7l.5-1.52Z"/><path class="cls-8" d="M50.78,58.91l1,.5L47.23,65l-5.08,7.11-4.06,3.55-2.54,1H18.79l1.52-1V74.14l1.53-1L29,72.62l3.55-4.57.51-.51h3.55l4.57,1.52,2.54-1.52.51-2-2-1,1.52-2Z"/><path class="cls-9" d="M114.26,0h3.55V.51L126.45,2l1,2-1.52.51h-5.08l-2-.51-2,1-5.08.51h-6.6l-.51,3.55.51,2.54-2.54,2.54-3,.51L99,10.16l-.5-6.1,4.06-2L110.7.51Z"/><path class="cls-10" d="M137.11,54.34l5.08.5,3.55.51-.51,2.54-2.53,3.56-1,2.53L139.14,67l-2,1h-4.57V59.92l3.05-4.57Z"/><path class="cls-11" d="M36.56,38.09l1,2,2,6.6-.51,3.55L35.55,51.8l-5.08,1.52-3.56,3.56-.5-3.05,1.52-2.54L31,47.73l2-2.53H31.48v1l-2-.51,3.56-3Z"/><path class="cls-12" d="M32.5,44.69l1,.51-2,2.53L27.93,51.8l-1,2v3.55H22.34l-1.52,1H19.3l-1,2h-2l.51-2.54,6.6-6.6,4.06-3.56L29,46.21h2.53v-1Z"/><path class="cls-13" d="M58.4,13.2l6.6.51,5.59,2-1,1.53-2.54.5H63.48L62,17.27l-1-1.53-1.53-.51v1l-4.57,1L52.3,19.8l-4.06,2.54h-2l1-3,9.65-5.59Z"/><path class="cls-14" d="M90.39,81.76l4.57.51,4.57,3,1.52,2.54H99.53v2L97,89.38l-3-1.53-5.59-4.06,1.52-1Z"/><path class="cls-15" d="M143.71,27.93v1.52L145.23,34l4.07,6.1,1,3.55v4.57l-1-2-1,1.52h-1l-1-4.57-.51-5.58-2-1L142.19,29Z"/><path class="cls-16" d="M127,29H131l3,2.53-.51,2L131,34,127,33l-1.52-.51-.51-2Z"/><path class="cls-17" d="M126.45,58.4l2,.51.5.5-.5,4.07-1.53,2h-3l-.51-1V60.43l1.52-1.52Z"/><path class="cls-18" d="M41.13,26.91v1.53L37.07,35l-1,2H32.5V34l3-2.54h1.52Z"/><path class="cls-17" d="M106.13,25.9l3.56.51,1.52,2L109.69,30h-4.57l-1-1,.51-2Z"/><path class="cls-19" d="M75.66,30l2.54.51,1,2,2.54.51-.51,1.52L77.19,34V33H73.13V31.48Z"/><path class="cls-16" d="M44.18,26.91h3.55l2.54,1.53V30H45.2l-2-1Z"/><path class="cls-10" d="M133.05,69.57l2,.51v2.54l-2.54,1.52H131l1-4.06Z"/><path class="cls-17" d="M147.27,42.15l1.52,1.52.51,2.54-1,1.52h-1l-.51-1V43.16Z"/><path class="cls-20" d="M45.2,24.38h3l-1,1-3,1-.51,1.52-2.54,1,1-2Z"/><path class="cls-21" d="M85.82,37.58l3.05.51v1.52l-3.05.51-1-.51V38.09Z"/></g></g></svg>