<svg xmlns="http://www.w3.org/2000/svg" viewBox="0 0 151.33 105.37"><defs><style>.cls-1{fill:#fd982f;}.cls-2{fill:#f87e09;}.cls-3{fill:#e56b09;}.cls-4{fill:#e56c09;}.cls-5{fill:#f87e08;}.cls-6{fill:#e56b08;}.cls-7{fill:#fe982e;}.cls-8{fill:#ffac41;}.cls-9{fill:#e46a08;}.cls-10{fill:#feac43;}.cls-11{fill:#fdaa5c;}.cls-12{fill:#f77e09;}.cls-13{fill:#fdd0ca;}.cls-14{fill:#fd9931;}.cls-15{fill:#f87f0a;}.cls-16{fill:#fdd0c9;}.cls-17{fill:#fdc0ac;}.cls-18{fill:#fdc0ab;}.cls-19{fill:#c95517;}.cls-20{fill:#e66d0b;}.cls-21{fill:#fec0ad;}.cls-22{fill:#e56c08;}.cls-23{fill:#c95316;}.cls-24{fill:#f67c08;}.cls-25{fill:#e66c08;}.cls-26{fill:#fdcec4;}.cls-27{fill:#fd972d;}.cls-28{fill:#f47a08;}.cls-29{fill:#e3670d;}.cls-30{fill:#f98717;}.cls-31{fill:#b8331f;}.cls-32{fill:#feab40;}.cls-33{fill:#da4f1d;}.cls-34{fill:#fcbf92;}.cls-35{fill:#fdc0a9;}.cls-36{fill:#d97242;}.cls-37{fill:#e76d08;}.cls-38{fill:#c24615;}.cls-39{fill:#c1491c;}.cls-40{fill:#ef7508;}</style></defs><title>chickenL_2</title><g id="Layer_2" data-name="Layer 2"><g id="Layer_1-2" data-name="Layer 1"><path class="cls-1" d="M54.84,0h4.07l4.57,3.05,1,1,5.08.51,3.56,3.05,4.57.51,2.53,2,2,3v1h1l2,2,2,1.52L90.9,19.3l2,2.54.51,5.07L96,32l.5,5.08v4.57l1.53,3-1,2-4.57,1.52-1,3-2,3.05-3.56,2.54-2,2.53-1,.51H79.22l-2.54-1H70.59l-3,1-10.66.51-2.54,1H50.27l-4.57-2-4.57.51-5.08.51-3-1v-1l-3-1L25.9,55.86l-5.08-1-1-1.52-1.52-4.57-3.05-2-.5-1-.51-5.58-.51-4.57,1-1,.5-4.57,2-2,1.52-5.59,3.05-1.52,3.55-1,1.52-.5,1.53-4.57,2-1.53,5.58-2,1-1.52h1V7.11l2-2.54,3-1.52,6.1-1L52.81.51Z"/><path class="cls-2" d="M92.42,25.9l1.53,2L96,32l.5,5.08v4.57l1.53,3-1,2-4.57,1.52-1,3-2,3.05-3.56,2.54-2,2.53-1,.51H79.22l-2.54-1H70.59l-3,1-10.66.51-2.54,1H50.27l-4.57-2-4.57.51-5.08.51-3-1v-1l-3-1L25.9,55.86l-5.08-1-1-1.52-1.52-4.57-3.05-2-.5-1-.51-5.58-.51-4.57,2-1.53.51,2.54,5.08-2L25.9,32l2.54.51,1,5.08v1H35l1.52,2.54,1,3,2,.51,6.6.51,10.16,4.06,4.06-.51,4.57-3,1.52-2.54V36.05L74.14,32h3l2.54,1,3-.51,1.53-2L84.8,29h2.54l.51,2.53H86.33l2,2h1.52l1-1.53.51-5.08Z"/><path class="cls-3" d="M95,37.07h.51L96,41.64l1.52,3-1,2-4.57,1.52-1,3-2,3.05-3.56,2.54-2,2.53-1,.51H78.71l-2.54-1-7.11-.51.51-2,1.52-2-.5-1-1.53,2h-1l.5-2.54,2.54-2.54,1.53-.5,1,1,2-1h3l3.05,1h4.06l.51-3.55,1.52-1.53h4.06l1-3-1-.51,1.53-3.56Z"/><path class="cls-4" d="M47.23,54.84H51.8l1.52,1h3.56L62,55.35l3,2,1,1,2.53.51-1,1-10.66.51-2.54,1H50.27l-4.57-2H40.63l1.52-1h1l.51-1.52Z"/><path class="cls-5" d="M36.05,34h1.53v1l4.06-.51,3,1.52,2,3.05-.51,2.54-2.54,1.52-3-.5-2-3.56-2.54-1-1-2.54Z"/><path class="cls-6" d="M45.7,45.7l3.56.51,7.11,3,5.08-.51-.51,3-1.53,1H55.35l-4.57-1.52L45.7,46.72Z"/><path class="cls-7" d="M72.11,37.07h4.57l3.55,1.52v1l-5.07,1.52-.51.51H72.11l-2-2V38.09Z"/><path class="cls-8" d="M39.1,11.68l1.53.51-1,2-1.52,3.55-.51.51H33.52l-1-.51V15.23L35,13.71l2.54-1Z"/><path class="cls-5" d="M79.73,27.93h2.54l1.52,2.54-2,2H79.22l-1-1L78.71,29Z"/><path class="cls-5" d="M31.48,29.45H34l1,2L34.53,34H32l-2-2V30Z"/><path class="cls-5" d="M76.17,52.81h3.56l1.52,1-.51,2-3.55,1-1-1.53Z"/><path class="cls-8" d="M41.64,8.13l2.54.5v2.54l-2,1.53h-1l-1-3Z"/><path class="cls-9" d="M35,55.86h5.59l.5,1.52-3.55.51-3-1Z"/><path class="cls-10" d="M75.66,10.16h2v1l1,.51v2l-1-.51-.51.51-2.54-.51,1-1.52Z"/><path class="cls-11" d="M14.73,40.63h.5l1,3.55.51.51v2.54l-1.53-.51-.5-1Z"/><path class="cls-1" d="M85.82,32.25h4.57L94,33.77l4.06,3,6.09,1,3.05,2h5.08l7.11,2,2,2.54,2,5.08,2.54,2.54,7.61.51,3.56,5.58,3,2.54,4.06,1.53,2,2,3.05,6.09,2,3v2.54L148.79,81l-2,9.14-3,2.54-5.08,1-3.55,3-2,2.54L129,100.8l-8.12,1.52-4.57,2.54-2,.51H88.87l-4.57-1.52-4.07-3-3.55-.51-4.06.51-3.05,3.56H60.43l-2,1-4.57-.51-6.1-3-4.57.5-5.07,2.54-3.56.51-6.09-1.52-3.56-2H19.3l-5.08.5-3.56-1.52L8.13,99.28v-1l-2-1L2.54,93.18,1,91.15,0,88.61V84.55l1.52-2V78.46L1,73.89l3.55-2.54h1l1-2,1.53-.51.5-4.06,2-2.54,6.61-1.53,2.53-1.52h1l1-2.54,2-2.54,3-1.52H37.07l2.54-1,3.55-1h5.08l3.56,1.52h9.65v1l2.53-1,4.57-2h1l1-3.05,2-3,2.54-2,2-1.52,1.52-3.55,2.54-2.54Z"/><path class="cls-12" d="M120.35,66.27l2,2.54,3.05,2,4.57,1,1,.5-.51,2-2,3L128,81l5.08-3h3l2.54,3.55,4.07,1,2,2.54,2,1.52v3.56l-3,2.54-5.08,1-3.55,3-2,2.54L129,100.8l-8.12,1.52-4.57,2.54-2,.51H88.87l-4.57-1.52-4.07-3-3.55-.51-4.06.51-3.05,3.56H60.43l-2,1-4.57-.51-6.1-3-4.57.5-5.07,2.54-3.56.51-6.09-1.52-3.56-2H19.3l-5.08.5-3.56-1.52L8.13,99.28v-1l-2-1L2.54,93.18,1,91.15v-2l1.52-.51,7.62,2,2.54,1h4.06l4.57-2,4.06.51,5.08,3.55L34,93.18l3-.5,3.56,2,1.52-5.08,2-3,4.57-3,7.11-5.08,2.54-1L61.45,80h1L65,76.43l2.54.5,2,1.53L72.11,78l2-2.54,1-.51,4.57.51,3.55.51,1-3h.5V89.63h1.53l-6.1,5.08-1.52,1-.51,1.53,2.54,1,3.56.51,4.06-1.52h4.06l6.6,3h5.08l5.08-2,4.06-3.55,2.54-4.57,1.52-6.6,3-5.59,1.53-2.54V71.35l-1.53-3.56Z"/><path class="cls-13" d="M92.93,40.37H98l3.55,1.52,6.1.51,4.06,2,.51.51,1,5.59,2,3.55,3,3.56,1.52,6.6,1.53,5.08,1,2v4.06l-4.57,8.13-2,8.12-3.55,4.57-4.07,3-4.06,1.52H99l-6.6-3H88.36L84.3,99.28l-3.56-.51L78.2,97.25l.51-2,7.11-5.58.51-16.25-3.56-5.59-2.54-3.55-.5,2-2.54-3.56V61.19l-2-1-2-1.53v-1h1l1.52-2.54L79.73,50l3.55-5.08,2.54-2,4.57-2Z"/><path class="cls-14" d="M85.82,32.25h4.57L94,33.77l4.06,3,6.09,1,3.05,2h5.08l7.11,2,2,2.54,2,5.08,2.54,2.54,7.61.51,3.56,5.58,3,2.54,4.06,1.53,2,2,3.05,6.09,2,3v2.54L148.79,81l-1.52,7.61-1-2-3.55-3v-1L138.63,82l-2.54-3.55h-3L129,81h-1V77.44l2-3,1-2-6.61-1.52-3-2.54-1.53-1.52-1.52-8.13-2-3-3.05-3.56-1-3-.51-4.06-4.06-2-6.1-.51L98,40.88H92.93L87.85,42.4l-4.06,2.54-4.06,5.59-4.07,5.08-1,3-.51-1-2,1.52h-1l-.5-3.55-2.54-1-4.57-1,1-2L69.57,50l1-3.05,2-3,2.54-2,2-1.52,1.52-3.55,2.54-2.54Z"/><path class="cls-15" d="M120.35,66.27l2,2.54,3.05,2,4.57,1,1,.5-.51,2-2,3L128,81l5.08-3h3l2.54,3.55,4.07,1,2,2.54,2,1.52v3.56l-3,2.54-5.08,1-3.55,3-2,2.54L129,100.8l-8.12,1.52-4.57,2.54-2,.51h-7.62l-3.55-.51-2-.5-1.52.5H96v-3l-4.57-2.54h-6.1l1.53-1.53,1.52-.5h4.06l6.6,3h5.08l5.08-2,4.06-3.55,2.54-4.57,1.52-6.6,3-5.59,1.53-2.54V71.35l-1.53-3.56Z"/><path class="cls-16" d="M104.1,72.36l3.56.51,2.54,2L114.26,80l2.54,3.56v4.57l-1.53,4.06-3,4.06-4.07,3-4.06,1.52H99l-7.61-3.55-2-1,4.06-4.57L97,83.54l2.54-6.61,1.52-3Z"/><path class="cls-17" d="M104.61,66.27h6.6l5.59,2,3.55,2h1.53l.5,1v4.06l-4.57,8.13-1,1.52-2-3.56-3.56-4.57-2.54-2.54-2.54-1.52-3.55.51-1.53,1L98,82l-3.56,8.63-3,4.07-1.53,1.52,1.53,1-4.57,1-2.54,1-3.56-.51L78.2,97.25l.51-2,7.11-5.58,1-15.74,1,1,2.54-2.54,1,.51v3l-2,3-2.54,1,.5,8.63L91.91,84,95,79,99,70.33l3.56-3.55Z"/><path class="cls-17" d="M112.23,50.53h1l2,3.55,3,3.56,1.52,6.6.51,3.55-5.58-2.54-3-1-5.08-.51-4.57,1-3,2-4.57,5.08-1.52-.51-1-2,.51-3L96,60.68l5.07-5.07,4.58-2.54,4.57-2Z"/><path class="cls-18" d="M92.93,40.37H98l3.55,1.52,6.1.51,4.06,2,.51.51V48.5L109.69,47l-4.06-2-2-.51H96.48L90.39,47,85.31,51l-.51,1-3,1.52h-1l-.51,2.54-3.55,3h-1l-.5,1-2-1.53v-1h1l1.52-2.54L79.73,50l3.55-5.08,2.54-2,4.57-2Z"/><path class="cls-19" d="M88.87,36.31l3.55.51,1,.5v1l2,.51L96,40.37l-7.11,1.52L84.3,44.43,80.74,49l-4.06,5.59-1.52,1.52-.51,2.54-.51-1-2,1.52h-1l-.5-3.55-2.54-1-4.57-1,.5-1.52,4.57,1.52,3.56-.5,3-5.59,2-2,4.06-1.52,6.6-7.11Z"/><path class="cls-1" d="M77.7,95.72l.5,1.53,2.54,1,3.56.51h7.11l5.07,3v2.54h3l2.54-.51,4.57,1v.51H88.87l-4.57-1.52-4.07-3-2.53-1-.51-2Z"/><path class="cls-5" d="M121.88,54.59l2,1,2.54,6.09,3,2,.51,2-1.52,2.54-.51.51h-3l-2.54-1.52-1.52-3.56-1.52-7.62Z"/><path class="cls-6" d="M133.05,88.61l2.54,1,2.54,2,1.52.51,1-2,2,1,.5,1-4.57,1.52-3.55,3-2,2.54L129,100.8h-4.57l2-.51,1-2,2-3.05,3-6.09Z"/><path class="cls-20" d="M83.79,83.54h.51l.5,6.09h1.53l-6.1,5.08-2.53,1-.51,3,1,.51-1.52,1-4.06.51-2.54,3H67.54l1.52-1.53,3.56-3,2.54-6.1,4.57-4.57,3.55-2.54Z"/><path class="cls-5" d="M50.27,74.39h5.08l1.53,1-.51,2L51.29,81.5,46.21,84l-1-1V79.47l3-4.06Z"/><path class="cls-21" d="M102.07,79l2.54,1,1.52,2-.5,2.54-2.54,2.54-1,.51H99V83.54l1.53-4.07Z"/><path class="cls-22" d="M116.8,99.28h3l1,1,3,.51-1.53,1-6.09,3H110.2v-2l4.06-2.54Z"/><path class="cls-23" d="M88.87,36.31l3.55.51,1,.5v1l2,.51L96,40.37l-7.11,1.52-3.05,1-1-1-2,1,3-4.06Z"/><path class="cls-24" d="M53.83,68.81l3.05,1,.5,2.54-.5.51H52.3l-1-.51.51-2.54Z"/><path class="cls-25" d="M75.66,97.25l1.53.5v1l1,.51-1.52,1-4.06.51-2.54,3H67.54l1.52-1.53,3.56-3,1-1Z"/><path class="cls-26" d="M79.73,96.23l3,.51h5.08v1L84.3,99.28l-3.56-.51-2-2Z"/><path class="cls-27" d="M47.23,91.66h3.55v2l-3.55,2-1.53-.51.51-3Z"/><path class="cls-28" d="M116.29,49.51l2.54.51,1,2-.5,2.54-2-1-2-3Z"/><path class="cls-29" d="M87.34,38.85l2,1v1l1,.51-4.57,1.52-1-1-2,1,2-3,2-.5Z"/><path class="cls-30" d="M77.7,95.72l.5,1.53,2.54,1,2.54,2-.51.51-3.55-.51-1.52-1-.51-1.53Z"/><path class="cls-31" d="M71.6,54.59l3.05,1v3l-.51-1-2,1.52h-1l-.5-4.06Z"/><path class="cls-32" d="M100.55,39.36l4.57.5.51,1.53-1.53,1h-2.54Z"/><path class="cls-7" d="M131.52,83l2,.51v2.53l-.5.51h-2.54l-1-1.52Z"/><path class="cls-8" d="M28.44,55.61l.51,1L25.9,60.68l-1.52,2.54-2,.51,2.54-4.06,1.53-2.54Z"/><path class="cls-33" d="M84.8,41.39l1,2L82.27,46l-1.53-.51,1-2Z"/><path class="cls-8" d="M36.05,55.61l3.56.5v1l-3.56,1H34V56.62Z"/><path class="cls-34" d="M77.19,61.19l2,.51,1.52,1.52-.51,3L77.7,63.73Z"/><path class="cls-35" d="M96.48,54.59,98,55.1l-1,2.54-2,1-.51-2Z"/><path class="cls-36" d="M82.77,91.15v1.53l-4.06,3-1.52-.51,2.54-2.53Z"/><path class="cls-37" d="M57.38,77.44l2,1-2,.5L52.3,82.52l-1-.51Z"/><path class="cls-38" d="M64,52.05l4.57,1.52,3.56.51-.51,1-6.6-1-1.52-.51Z"/><path class="cls-39" d="M75.66,95.21l2,.51v2l-2.54.51H73.63Z"/><path class="cls-40" d="M67.54,75.41h3l1,2L70.08,78l-2.54-1.52Z"/></g></g></svg>