<?xml version="1.0" encoding="iso-8859-1"?>
<!-- Uploaded to: SVG Repo, www.svgrepo.com, Generator: SVG Repo Mixer Tools -->
<svg height="800px" width="800px" version="1.1" id="Capa_1" xmlns="http://www.w3.org/2000/svg" xmlns:xlink="http://www.w3.org/1999/xlink" 
	 viewBox="0 0 472.053 472.053" xml:space="preserve">
<g>
	<g>
		<path style="fill:#010002;" d="M181.423,12.772l-1.805,85.74c0,3.381-2.292,7.755-6.6,7.755l0,0h-2.309l0,0l0,0
			c-4.308,0-6.6-4.804-6.6-8.275l-6.893-85.895c-1.764,0.008-3.568,0.008-5.454,0.008c-3.292,0-6.373-0.016-9.291-0.016
			l-6.893,87.081c0.024,3.146-2.276,7.096-6.584,7.096l0,0h-2.309l0,0l0,0c-4.308,0-6.6-4.804-6.6-8.275l-1.788-84.879
			c-22.866,3.601-22.858,19.647-22.858,89.935c0,23.711,9.421,44.358,26.247,55.453c2.3,1.52,4.731,2.861,7.308,4.007
			c2.552,1.13,5.251,2.04,8.064,2.764l-7.73,295.571c0,6.17,13.136,11.209,19.305,11.209h10.161c6.17,0,19.305-5.023,19.305-11.193
			l-7.755-296.677c2.837-0.967,5.495-2.211,8.039-3.609c3.13-1.715,6.023-3.739,8.689-6.04
			c13.526-11.681,21.021-30.36,21.021-51.478C208.093,30.151,206.686,15.609,181.423,12.772z"/>
		</g>
</g>
</svg>