<svg xmlns="http://www.w3.org/2000/svg" xmlns:xlink="http://www.w3.org/1999/xlink" viewBox="0 0 366.45 366.45"><defs><style>.cls-1{isolation:isolate;}.cls-2{fill:url(#linear-gradient);}.cls-3{fill:url(#linear-gradient-2);}.cls-17,.cls-4{fill:#fff;}.cls-4{opacity:0.65;mix-blend-mode:lighten;}.cls-5{fill:url(#linear-gradient-3);}.cls-6{fill:#ddc9ac;}.cls-7{fill:#f9ddaf;}.cls-8{opacity:0.35;fill:url(#linear-gradient-4);}.cls-11,.cls-14,.cls-15,.cls-8{mix-blend-mode:color-burn;}.cls-9{fill:#efca9a;}.cls-10{fill:#ffefcc;}.cls-12{fill:url(#linear-gradient-5);}.cls-13{fill:url(#linear-gradient-6);}.cls-14{fill:url(#linear-gradient-7);}.cls-15{fill:url(#linear-gradient-8);}.cls-16,.cls-18{opacity:0.5;mix-blend-mode:overlay;}.cls-16{fill:url(#linear-gradient-9);}.cls-18{fill:url(#linear-gradient-10);}</style><linearGradient id="linear-gradient" x1="85.61" y1="-818.67" x2="451.98" y2="-818.67" gradientTransform="translate(-495.88 713.65) rotate(33.83)" gradientUnits="userSpaceOnUse"><stop offset="0.01" stop-color="#9ba1b2"/><stop offset="1" stop-color="#b5b9c6"/></linearGradient><linearGradient id="linear-gradient-2" x1="89.39" y1="-818.67" x2="448.2" y2="-818.67" gradientTransform="translate(-495.88 713.65) rotate(33.83)" gradientUnits="userSpaceOnUse"><stop offset="0" stop-color="#ebeffc"/><stop offset="0.99" stop-color="#d5dbef"/></linearGradient><linearGradient id="linear-gradient-3" x1="101.49" y1="-818.67" x2="436.09" y2="-818.67" gradientTransform="matrix(0.98, -0.19, 0.19, 0.98, 78.09, 1038.49)" gradientUnits="userSpaceOnUse"><stop offset="0.01" stop-color="#9ba1b2"/><stop offset="1" stop-color="#b5b9c6"/></linearGradient><linearGradient id="linear-gradient-4" x1="280.75" y1="-911.77" x2="298.87" y2="-911.77" gradientTransform="matrix(0.98, -0.19, 0.19, 0.98, 78.09, 1038.49)" gradientUnits="userSpaceOnUse"><stop offset="0" stop-color="#ccc"/><stop offset="1" stop-color="#999"/></linearGradient><linearGradient id="linear-gradient-5" x1="225.77" y1="-866.48" x2="288.19" y2="-866.48" xlink:href="#linear-gradient-4"/><linearGradient id="linear-gradient-6" x1="118.67" y1="-763.23" x2="416.77" y2="-763.23" xlink:href="#linear-gradient-4"/><linearGradient id="linear-gradient-7" x1="249.32" y1="-823.28" x2="385.36" y2="-823.28" xlink:href="#linear-gradient-4"/><linearGradient id="linear-gradient-8" x1="149.2" y1="-851.92" x2="244.42" y2="-851.92" xlink:href="#linear-gradient-4"/><linearGradient id="linear-gradient-9" x1="225.37" y1="-820.96" x2="266.07" y2="-820.96" gradientTransform="matrix(0.98, -0.19, 0.19, 0.98, 78.09, 1038.49)" gradientUnits="userSpaceOnUse"><stop offset="0.01" stop-color="#e6e6e6"/><stop offset="1" stop-color="#fff"/></linearGradient><linearGradient id="linear-gradient-10" x1="164.56" y1="-719.57" x2="333.95" y2="-719.57" xlink:href="#linear-gradient-9"/></defs><title>garlicSouce</title><g class="cls-1"><g id="Layer_2" data-name="Layer 2"><g id="Layer_1-2" data-name="Layer 1"><circle class="cls-2" cx="183.22" cy="183.22" r="183.19" transform="translate(-75.89 183.22) rotate(-45)"/><circle class="cls-3" cx="183.23" cy="183.22" r="179.41" transform="translate(-75.89 183.23) rotate(-45)"/><path class="cls-4" d="M149.11,10.44A176.12,176.12,0,1,0,356,149.11,176.12,176.12,0,0,0,149.11,10.44Zm67.28,340.73A171.19,171.19,0,1,1,351.17,150.06,171.19,171.19,0,0,1,216.39,351.17Z"/><circle class="cls-5" cx="183.22" cy="183.23" r="167.31"/><circle class="cls-6" cx="183.23" cy="183.23" r="156.2" transform="translate(-75.89 183.23) rotate(-45)"/><path class="cls-7" d="M327.05,154A150,150,0,0,1,32.67,212.14,150,150,0,1,1,327.05,154Z"/><path class="cls-8" d="M193.92,82.13,177.7,93.5C182.85,89.43,188.17,85.22,193.92,82.13Z"/><path class="cls-9" d="M324.17,216.7A135.29,135.29,0,0,1,312.62,252a150,150,0,0,1-115.84,83C120.12,345,47.45,293.51,31.13,218a149.17,149.17,0,0,1-3.35-35c8.29,27.54,33.47,72.17,63.93,89.58,21.16,12.09,51.09,18.69,72.64,17.34A116,116,0,0,0,184,286.77c17.38-4.28,34.79-12.18,49.43-20.92,34.38-20.51,50.49-69,39.67-107.54s-47.88-66.57-87.37-73.43c-15.55-2.69-32.13-2-46.6,4a54.82,54.82,0,0,0-8.56,4.3c-16.7,10.2-27.69,28.59-30.78,47.92s1.28,39.43,10.28,56.87a77,77,0,0,0,4.44,7.54c12.3,18.44,33,32.82,53.85,27.1,14.44-4,25.13-17,29.66-31.28,5.39-17.08,2.21-37.73-11.32-49.47-14.27-12.45-27-5.78-42.37-1.94-13.21,3.31-19.76-3.76-19.48-14.47a35.44,35.44,0,0,1,1.89-9.73,29.51,29.51,0,0,1,1.84-4.32,42.51,42.51,0,0,1,15.22-17c22-14.16,51.86-11.39,72.62,3.78,17.68,13,28.43,34.4,30,56.28,4.37,59.49-36.76,89.84-78.51,95.63a62.8,62.8,0,0,1-10.61.49C90.45,257.79,61.6,210.79,55,179.47,42.54,120.86,83.29,81.13,123.6,60.21c.72-.39,1.46-.74,2.24-1.09,40.32-19.88,100.73-19.34,136.58,7.06,22.37,16.5,41.94,35.51,52.25,61.85C325.67,156.09,329.64,187.14,324.17,216.7Z"/><path class="cls-10" d="M331.36,181A151.41,151.41,0,0,1,329,212.63a137.66,137.66,0,0,1-11.54,35.29,150,150,0,0,1-115.85,83c-76.69,10-149.35-41.48-165.68-117a147.89,147.89,0,0,1-3.34-35c8.28,27.53,33.46,72.17,64,89.57,21.14,12.06,51.07,18.67,72.62,17.35a119.91,119.91,0,0,0,19.66-3.14c17.37-4.3,34.78-12.2,49.41-20.91,25.77-15.34,41.28-46.41,42.87-77.25a95.8,95.8,0,0,0-1.33-22,83.92,83.92,0,0,0-1.84-8.27,88,88,0,0,0-7.17-17.67,103.52,103.52,0,0,0-31.17-35.08,119.64,119.64,0,0,0-49-20.68c-15.57-2.67-32.13-2-46.63,4a56.72,56.72,0,0,0-8.53,4.29c-16.74,10.21-27.69,28.6-30.77,47.93s1.26,39.45,10.28,56.87a67.21,67.21,0,0,0,4.42,7.52c12.32,18.47,33,32.85,53.85,27.12,14.42-4,25.11-17,29.64-31.3,5.39-17.05,2.22-37.7-11.3-49.45-14.27-12.46-27-5.79-42.4-1.95-13.18,3.3-19.74-3.75-19.46-14.46a36.37,36.37,0,0,1,1.88-9.75,28.3,28.3,0,0,1,1.88-4.29,42.16,42.16,0,0,1,15.19-17c22-14.18,51.87-11.4,72.63,3.76a73,73,0,0,1,22.12,26.9,80.74,80.74,0,0,1,7.91,29.38c.17,2.32.29,4.61.28,6.84.86,55-38.68,83.24-78.8,88.81a61.64,61.64,0,0,1-10.61.48c-66.87-2.87-95.73-49.88-102.37-81.2C47.34,116.77,88.12,77,128.44,56.14c.71-.39,1.43-.74,2.22-1.1C171,35.18,231.4,35.68,267.23,62.11c5.11,3.74,10.06,7.64,14.78,11.71,16,13.81,29.51,29.78,37.5,50.14A169.81,169.81,0,0,1,331.36,181Z"/><g class="cls-11"><path class="cls-12" d="M149.14,145.88c15.4-3.84,28.1-10.5,42.37,1.94a36.38,36.38,0,0,1,5.28,5.83c-.85-11.18-5.25-21.9-13.65-29.2-14.27-12.45-27-5.78-42.37-1.94a21.19,21.19,0,0,1-9.6.43C126.6,138.06,132.71,150,149.14,145.88Z"/><path class="cls-13" d="M319.5,124c-.78-2-1.71-3.87-2.6-5.78,6.37,23.12,8.06,47.55,3.73,71.07a136.1,136.1,0,0,1-11.58,35.29,149.94,149.94,0,0,1-115.81,83c-66,8.58-129-28.4-155.68-87.05,19,71.9,89.67,120.09,164.05,110.42a149.89,149.89,0,0,0,115.81-83A136.1,136.1,0,0,0,329,212.63C334.44,183.05,330.5,152,319.5,124Z"/></g><path class="cls-10" d="M122.84,177.23c3.56,14.61,10.07,30,23.38,37,13.09,6.88,31.18,2.66,39.22-9.75s4-31.27-8.8-38.66c-9-5.21-20.23-4.63-30.07-8-16-5.54-23-19.51-26.23-34.87C113.36,137.88,119.13,162,122.84,177.23Z"/><path class="cls-14" d="M189.43,282.67c-.21,0-.4,0-.6,0,17.37-4.29,34.78-12.18,49.42-20.92,34.39-20.51,50.49-69,39.68-107.54S230.05,87.66,190.55,80.8c-15.54-2.69-32.13-2-46.59,4,.22-.64.35-1,.35-1s56.76-33.73,117,9.44S314,275.6,189.43,282.67Z"/><path class="cls-15" d="M172.76,256.08a62.76,62.76,0,0,1-10.61.49c-66.88-2.86-95.73-49.86-102.37-81.18C47.36,116.78,88.11,77.05,128.43,56.13c.72-.39,1.45-.74,2.23-1.09-13.44,11-66.31,57.78-57,105.09C84.4,214.37,107.84,251,171.39,256,171.85,256,172.3,256,172.76,256.08Z"/><path class="cls-16" d="M144.62,193.25c3.25,6.09,8.21,11.54,14.67,14s14.5,1.26,19.08-3.9c6.23-7,3.88-18.73-2.62-25.52s-15.9-9.83-24.94-12.39a20.15,20.15,0,0,0-7.43-1.1C129.94,165.64,141.49,187.36,144.62,193.25Z"/><path class="cls-4" d="M212.17,227.9s31.3-22.43,31.44-59.38c.16-40.39-26.07-68.68-48-65.6s-15.43,10.55,1.51,23.47S241.27,188.37,212.17,227.9Z"/><path class="cls-17" d="M201.3,46.12S261.6,47.35,298.07,99s7.18,115.57,7.18,115.57S344,90.52,201.3,46.12Z"/><path class="cls-17" d="M127.08,75.79S74.51,110.57,91,162.37s42.22,61.73,42.22,61.73S17.22,159.42,127.08,75.79Z"/><path class="cls-18" d="M96.24,280.82s76.29,60,170.47-11.14C266.71,269.68,186.07,317.51,96.24,280.82Z"/><path class="cls-4" d="M331.36,181c-5.88,4.55-14.71-.81-16.6-7.26s0-13.46-1.36-20c-1.14-5.56-7.23-11.34-12.88-8.53-3.84,1.87-4.73,6.55-4.18,10.41.77,5.8,3.67,11,5.59,16.58s2.87,11.82-.09,17.12-11.12,8.51-16.18,5.09c-3.28-2.16-4.21-6-4.55-9.84-.11-.8-.14-1.58-.2-2.31-.35-6.59-.74-13.16-1.13-19.73-.22-4.22-.47-8.46-.73-12.67-.16-3.35-.39-6.82-2.27-9.63a8.46,8.46,0,0,0-6-3.64,6.1,6.1,0,0,0-3.31.4c-4.42,1.87-4.68,7.45-4.19,11.82l3.57,32.51c.5,4.65-.53,11.13-5.64,11.6-4.91.48-7-5.13-7.59-9.57-.68-5.32-1.37-10.68-2.05-16q-1.22-9.54-2.41-19.1c-5.75-.85-9.83,5.86-9.29,11.13s3.58,10.2,3.31,15.5-6.87,11-11.58,8.07c-4.33-2.66-2.24-8.82-.69-13.5,4.64-13.76-.2-29.5-11.84-38.64-3.18-2.51-6.9-4.63-9.38-7.73s-3.4-7.8-.67-10.94c3.8-4.39,11.68-2.76,15.75,1.1s6,9.27,9.74,13.36a15.14,15.14,0,0,0,8.87,4.53,8.74,8.74,0,0,0,6.83-1.8c5.79-4.78.93-13.12-4.12-18.15a26.87,26.87,0,0,1-6.48-9.63c-1-3.1-.81-6.16,1.81-8.58,4.44-4.09,12.25-1.79,16.14,2.44s5.63,9.87,9.34,14.22,11.16,7.17,16,3.53c6.06-4.46,2.34-13-1.83-18.68s-8.17-14-2.42-18.73A9.46,9.46,0,0,1,282,73.82c16,13.81,29.51,29.78,37.5,50.14A169.81,169.81,0,0,1,331.36,181Z"/></g></g></g></svg>