<svg xmlns="http://www.w3.org/2000/svg" viewBox="0 0 272.54 208.91"><defs><style>.cls-1{isolation:isolate;}.cls-2{fill:#eff8fd;}.cls-3{fill:#b0cfe9;}.cls-4{fill:#c7e1ef;}.cls-4,.cls-5{mix-blend-mode:multiply;}.cls-5{fill:#a0c4d7;opacity:0.4;}.cls-10,.cls-11,.cls-6,.cls-8,.cls-9{fill:#dcf2fd;}.cls-6,.cls-7,.cls-8,.cls-9{mix-blend-mode:screen;}.cls-7{fill:#fff;}.cls-7,.cls-8{opacity:0.7;}.cls-10,.cls-9{opacity:0.3;}.cls-10{mix-blend-mode:color-dodge;}</style></defs><title>iceCube</title><g class="cls-1"><g id="Layer_2" data-name="Layer 2"><g id="Layer_1-2" data-name="Layer 1"><path class="cls-2" d="M159.76,200l-80.92,7.34s-9.91-.31-15.66-12.28c0,0-28.26-57.63-46.53-79.81C7.76,104.5-6.28,89.19,6.94,78.47S63.36,42.15,86.21,22.23c0,0,17-16,26.3-16.23,9.8-.31,72.75-4.28,72.75-4.28s14.42-2.57,21.41,10.09c15.84,28.74,22.24,43,46.93,75.8,22.7,30.13,22.51,37.92,3.5,50.74-8.61,5.78-47.67,29-62.61,43.07C176.8,198.09,159.76,200,159.76,200Z"/><path class="cls-3" d="M208,11.06c2.57,4.67,4.88,9,7.07,13,11.51,21.23,19.12,35.27,39.74,62.64,12.22,16.22,19,27.33,17.51,36.19-1.11,6.59-6.54,11.45-14.38,16.72-1.92,1.29-5.34,3.43-9.68,6.16-15.41,9.69-41.23,25.92-52.74,36.77-17.85,16.83-34.88,18.94-35.62,19L78.8,208.91c-.45,0-10.92-.51-17-13.13-.28-.59-28.37-57.73-46.32-79.52L14,114.41C7.36,106.49-.83,96.64.07,87.46.45,83.58,2.44,80.16,6,77.3c5.25-4.27,15.1-10.8,26.5-18.36C49.81,47.44,71.4,33.12,85.17,21.11c.72-.66,17.53-16.34,27.28-16.63S184.54.27,185,.24A21,21,0,0,1,188.67,0h0C193.64.07,202.77,1.58,208,11.06ZM159.6,198.54c.16,0,16.72-2.08,33.85-18.22,11.72-11.07,37.7-27.38,53.21-37.12,4.28-2.71,7.68-4.84,9.59-6.13,8.61-5.8,12.28-9.9,13.09-14.7,1.12-6.77-3.47-16-16.95-33.85-20.76-27.56-28.83-42.43-40-63-2.17-4-4.5-8.3-7.05-13C200.84,4.39,193,3.1,188.63,3a19,19,0,0,0-3.28.22c-.63,0-63.08,4-72.79,4.27-7.15.21-20.7,11.48-25.35,15.85C73.26,35.55,51.57,49.93,34.15,61.47,22.81,69,13,75.48,7.89,79.66,5,82,3.39,84.67,3.1,87.77c-.78,7.89,7,17.22,13.18,24.7l1.54,1.85C36,136.38,64.26,193.86,64.54,194.46c5.25,10.9,14,11.38,14.18,11.4Z"/><path class="cls-4" d="M76.93,203.56c10.48-3.07,17.88-12.35,25.2-19.75,8.94-9,20.12-13.72,30.24-21,9.78-7,18-15.83,27.45-23.26A65.56,65.56,0,0,1,195.15,125c14.58-1.58,29.16-1.06,43.78-1,7.45,0,26.43,0,26,8.24a63.17,63.17,0,0,1-7.87,6.12c-8.61,5.78-47.67,29-62.61,43.07C176.8,198.09,159.76,200,159.76,200l-80.92,7.34A16.73,16.73,0,0,1,71,204.43,21.77,21.77,0,0,0,76.93,203.56Z"/><path class="cls-5" d="M196.07,8.54C188.73,9.8,183.93,16,178.91,20.93,165,34.69,152.6,51,136,61.72a41.05,41.05,0,0,1-13.79,6.16c-3.45.76-6.34,1.6-8.86,4.15-4.51,4.53-.26,13,1.34,17.75,3.26,9.8,6.29,19.77,10.7,29.15,2.82,6,7.79,12.45,8.31,19.33-5.5-8.81-10.51-17.86-15.5-27-2.86-5.23-5.48-10.49-8-15.87-1.93-4-4-8.37-7.3-11.52-11.31-11-24.58-7.1-38.39-3.88-11.09,2.59-22,6.44-33.38,7.65-6.93.74-15.24,1.41-19.18,8.11a14.91,14.91,0,0,0-1.47,12C3,98.07-3.42,86.86,6.94,78.47,20.13,67.72,63.36,42.15,86.21,22.23c0,0,17-16,26.3-16.23,9.8-.31,72.75-4.28,72.75-4.28S199-.68,206.11,10.93C202.89,9.2,199.51,8,196.07,8.54Z"/><path class="cls-4" d="M185.26,1.72s-62.95,4-72.75,4.28c-9.3.27-26.3,16.23-26.3,16.23C63.36,42.15,20.13,67.72,6.94,78.47s.82,26,9.71,36.82c18.27,22.18,46.53,79.81,46.53,79.81,3.57,7.46,8.78,10.38,12.2,11.52,3.3-6,14.91-12.35,18.75-14.29,16.07-8.12,32.27-15.92,47.45-25.58,15.68-10,28.59-23.18,46.06-30.27,11-4.46,23.32-5.53,35.31-6,6.06-.28,18.75-.69,22,7a11.16,11.16,0,0,1,.22,8.44c5.37-3.39,9.68-6.07,11.9-7.56,19-12.82,19.2-20.61-3.5-50.74-24.69-32.78-31.09-47.06-46.93-75.8C199.68-.85,185.26,1.72,185.26,1.72ZM112.91,47.88C119.3,58.14,127.48,75,133.44,85.52a192.58,192.58,0,0,0,10.26,16.41c3.82,5.41,8.33,9.22,11.23,15.25,6.67,13.84-10.76,25.87-19.7,30.72-11.81,6.4-23.68,12.66-33.65,21.82-7.07,6.51-12.06,15.17-21,19.37C69.11,194.5,61.45,182.38,58,172.38c-6.7-19.44-15-36.76-28.73-52.53-6.7-7.68-19-19.57-14.93-30.68,3.84-10.36,10.43-14,20.31-16.66C56.89,63.79,72.24,42.75,85,36.31,97.89,29.77,105.29,35.64,112.91,47.88Z"/><path class="cls-4" d="M206.67,11.81c15.84,28.74,22.24,43,46.93,75.8C272,112,275.35,121.74,265.89,131.37,258,123,233.43,124.44,225.38,125c-14.09.87-29.34-.67-42.85,2.8-8.13,2.08-15.42,5.9-22.42,10.36,5.46-7.56,20.09-8.22-25.53-75.81C126.28,50,114.44,36.61,111.4,21.71,117,29.2,121.15,37.57,126,45.64a138.23,138.23,0,0,0,15.17,20.3c10.89,12.38,23,27.35,37.87,34.35,10.71,5,22.31,2,33.12,1.42,9-.49,20.92-.44,25-9.84,3.42-7.8-2.37-18.36-6.75-25.08C224.22,57.32,216.57,49.13,210,40c-8.29-11.6-9.65-28.39-23.23-35.81-1.45-.8-3-1.56-4.5-2.25l3-.19S199.68-.85,206.67,11.81Z"/><path class="cls-6" d="M189.19,178.85a54.2,54.2,0,0,1-31.85,14.28c-19.61,1.68-64.23,9.59-62.7,6.79s32.8-7.62,49.93-9.51a90.59,90.59,0,0,0,39.13-13.87C192.43,170.93,202.05,168.77,189.19,178.85Z"/><path class="cls-6" d="M37.47,118.87c-8.78-11.33-15.2-17.34-17.37-22.12,5.85,7,14.27,13.23,19.18,18,11.23,10.87,20.36,22.89,25.38,37.89C68,162.68,70.55,173,74.3,182.87c-1.75-.22-7.39-1.6-9.39-10C62.5,163,51.24,136.63,37.47,118.87Z"/><path class="cls-7" d="M80.76,193.9l80.88-60.45s8.8-6-.7-19.24c-8.39-11.63-29.63-46.4-37.1-60.78-8.38-16.12-13.4-34.8-13.4-34.8s22.57,42.59,38,62.74,26.43,37.17,38.26,36.12,73.7.19,77.4,4.37-17.87-.53-34.6,1.47-47.5,3.2-67,18S67.78,207.18,80.76,193.9Z"/><path class="cls-8" d="M113.12,53.44c1.22-5.42-6-9.94-9.05-13.92-2.94-3.76-8.23-6.35-13.92-6.92-9.25-.92-15.52,8.52-21.68,12.5C59.11,51.17,45.67,54,37.16,60.73,24.22,70.91,48,71.84,56.21,69.2c6.51-2.08,12.86-5,19.61-6.53s12.11-.6,18.71-.87c6.1-.24,16.61-2.24,18.46-7.84C113,53.79,113.08,53.62,113.12,53.44Z"/><path class="cls-9" d="M163.91,14.33c-4.49-3-11.43-.3-16.06.37-4.85.72-9-.11-13.74-.72-2.3-.29-6.24-2.21-8.83-1.18C118.61,15.45,124,23,130,29c6.69,9.69,10,17.36,21.63,8.72C158.62,32.49,178,23.58,163.91,14.33Z"/><path class="cls-6" d="M118.37,127.7c-2.65-4.32-5.43-8.55-8.36-12.61-3.84-5.28-7-11.54-11.37-16.38-8.24-9.08-16-13.85-28.7-10.77-8.71,2.1-16.69,5.52-25.73,6.4-3.3.33-7,.51-7.46,4.27-.36,3,3.32,7.46,4.86,9.38,4.85,6.07,9.89,12,15,17.9,6.93,8,11,15.61,14.63,25.55,1.72,4.76,2.64,11.4,6.23,15.37,8.67,9.62,13.68-3,18.88-8.87,4.79-5.42,9.05-8.93,16.41-9.67a59.25,59.25,0,0,0,6.18-1c3.86-.82,7.21-1.75,8.6-5.73C129,137.16,124,132.19,118.37,127.7Z"/><path class="cls-10" d="M205,65.55c-8.53-4-17.46-7.42-26.22-10.86-2.82-1.09-5.54-1.78-8.42-2.67-5.87-1.83-9.21-5.77-13-10.36-5.25-6.38-9.22-13.62-14.93-19.59-1.62-1.69-5.63-6.3-8.35-6.32-11-.17.38,18.56,3.62,22.74,4,5.12,8.7,9.79,12.24,15.28,4.1,6.38,7.72,13,11.73,19.47,7.06,11.29,12.92,20,26.69,23.06,6.18,1.39,12.67.72,18.86-.49,2.63-.53,8.39-.7,13.45-1.68C246.16,89.21,213.62,69.56,205,65.55Z"/><path class="cls-11" d="M256.22,105.28c-1-4.37-5.37-15.5-11.25-15.12-.35,0-.63.07-.73.48-1.49,5.5-1.38,9.56-7.29,12.15-2.28,1-6.48,3.17-5,6.34s6.69,4.21,9.75,4.78a22.62,22.62,0,0,0,4.18.3,11,11,0,0,0,6-.65l.11,0,.19-.06C255.77,111.92,257.08,109.19,256.22,105.28Z"/><path class="cls-11" d="M234.58,141.07c-1.94-10-26.44-7.82-32.41-6.22-13.38,3.56-25.31,10.75-36.61,18.59-6,4.13-9.7,10.74-15.72,14.83-2.77,1.85-15.12,5.59-15.25,9.37-.05,1.72,2.07,3.36,3.63,3.52,20.27,2.15,35.49-20.26,51.17-29.4,11.14-6.46,21.18-8.14,34-7.37C225.61,144.52,235.57,146.15,234.58,141.07Z"/></g></g></g></svg>