<svg xmlns="http://www.w3.org/2000/svg" xmlns:xlink="http://www.w3.org/1999/xlink" viewBox="0 0 366.45 366.45"><defs><style>.cls-1{isolation:isolate;}.cls-2{fill:url(#linear-gradient);}.cls-3{fill:url(#linear-gradient-2);}.cls-4{fill:#fff;opacity:0.65;mix-blend-mode:lighten;}.cls-5{fill:url(#linear-gradient-3);}.cls-6{fill:#aa2011;}.cls-7{fill:url(#linear-gradient-4);}.cls-8{fill:#9b1515;}.cls-9{fill:url(#linear-gradient-5);}.cls-10{fill:url(#linear-gradient-6);}.cls-11{fill:#d13222;}.cls-12,.cls-13,.cls-14{opacity:0.5;mix-blend-mode:overlay;}.cls-12{fill:url(#linear-gradient-9);}.cls-13{fill:url(#linear-gradient-10);}.cls-14{fill:url(#linear-gradient-11);}</style><linearGradient id="linear-gradient" y1="183.23" x2="366.45" y2="183.23" gradientUnits="userSpaceOnUse"><stop offset="0.01" stop-color="#9ba1b2"/><stop offset="1" stop-color="#b5b9c6"/></linearGradient><linearGradient id="linear-gradient-2" x1="3.78" y1="183.23" x2="362.67" y2="183.23" gradientUnits="userSpaceOnUse"><stop offset="0" stop-color="#ebeffc"/><stop offset="0.99" stop-color="#d5dbef"/></linearGradient><linearGradient id="linear-gradient-3" x1="15.89" y1="183.23" x2="350.56" y2="183.23" gradientUnits="userSpaceOnUse"><stop offset="0.01" stop-color="#9ba1b2"/><stop offset="1" stop-color="#b5b9c6"/></linearGradient><linearGradient id="linear-gradient-4" x1="198.98" y1="263.25" x2="198.98" y2="90.83" gradientUnits="userSpaceOnUse"><stop offset="0" stop-color="#b71d1a"/><stop offset="0.99" stop-color="#c62a22"/></linearGradient><linearGradient id="linear-gradient-5" x1="165.09" y1="290.99" x2="165.09" y2="53.17" gradientUnits="userSpaceOnUse"><stop offset="0" stop-color="#b71d1a"/><stop offset="0.45" stop-color="#c0251f"/><stop offset="0.99" stop-color="#c62a22"/></linearGradient><linearGradient id="linear-gradient-6" x1="10.63" y1="179.05" x2="300.19" y2="179.05" gradientUnits="userSpaceOnUse"><stop offset="0.01" stop-color="#e25e58"/><stop offset="0.55" stop-color="#d13222"/><stop offset="1" stop-color="#c62a22"/></linearGradient><linearGradient id="linear-gradient-9" x1="158.71" y1="160.47" x2="213.16" y2="160.47" gradientUnits="userSpaceOnUse"><stop offset="0.01" stop-color="#e6e6e6"/><stop offset="1" stop-color="#fff"/></linearGradient><linearGradient id="linear-gradient-10" x1="134.67" y1="265.12" x2="297.75" y2="265.12" xlink:href="#linear-gradient-9"/><linearGradient id="linear-gradient-11" x1="90.14" y1="160.41" x2="121.72" y2="160.41" xlink:href="#linear-gradient-9"/></defs><title>katchup</title><g class="cls-1"><g id="Layer_2" data-name="Layer 2"><g id="Layer_1-2" data-name="Layer 1"><circle class="cls-2" cx="183.23" cy="183.23" r="183.23"/><circle class="cls-3" cx="183.23" cy="183.23" r="179.45"/><path class="cls-4" d="M183.23,7.07A176.16,176.16,0,1,0,359.38,183.23,176.16,176.16,0,0,0,183.23,7.07Zm0,347.38A171.23,171.23,0,1,1,354.45,183.23,171.22,171.22,0,0,1,183.23,354.45Z"/><circle class="cls-5" cx="183.23" cy="183.23" r="167.34"/><circle class="cls-6" cx="183.23" cy="183.23" r="156.23"/><path class="cls-7" d="M177.44,92.57c-34,7.56-60.91,41.3-58.32,76,1.26,16.78,9.83,33.92,25,41.22,11,5.3,41,3.88,36.31-14.82-3.87-15.35-28.08-16.4-31-36.4-2.65-17.92,11.72-35.52,29.29-40.16,21.62-5.7,46.53,7.08,54.42,27.93s-2.32,46.86-22.32,56.82c-6.78,3.37-14.51,5.13-20.34,10-11.44,9.49-10.88,28.95-.6,39.67s27.45,13,41.44,7.94,25-16.26,32.87-28.88c18.34-29.55,20.18-69.24,2.45-99.16S211.47,85,177.44,92.57Z"/><path class="cls-8" d="M313.26,106.83a161.73,161.73,0,0,1,6.94,69.43c-4.83,41.59-19.14,84.12-50.35,112.2-35.24,31.7-88.33,39.7-133.7,25.74-32-9.89-60.12-29.67-82.45-54.71A151.38,151.38,0,0,0,185.45,336C269.15,336,337,268.38,337,185,337,156.63,326.92,129.49,313.26,106.83Z"/><path class="cls-9" d="M124.86,290.48a42.08,42.08,0,0,0,28.84-5.76C183.08,266,169,223.89,136.91,218.33c-12.56-2.18-23.31.94-33.91-7.57-13-10.41-19.73-30.18-19.78-46.24-.07-25.27,14-49.36,34.12-64.8s45.48-22.87,70.77-24.65c21.85-1.55,46.24,2.05,60.43,18.68,4.93,5.78,8.44,12.94,14.59,17.42l.19.14c8.59,6,19.22-4.5,13.89-13.55-26.83-45.54-71.85-47.85-114.44-42.6C116.94,60.8,75.49,93.37,59.28,136.47s-6.46,94.8,24.34,129.08C94.54,277.7,108.21,288,124.86,290.48Z"/><path class="cls-10" d="M132.37,318.82c45.37,14,100.54-.65,137.48-30.36C322.68,246,323.49,161.08,323.5,160.85,324.31,107.24,298.28,71,250,48.31A151.47,151.47,0,0,0,185.45,34C101.8,34,34,101.57,34,185A149,149,0,0,0,53.7,259.49C71,287.72,100.37,308.93,132.37,318.82Zm131.83-87c-7.83,12.62-18.87,23.84-32.87,28.88-15.57,5.6-35.08,2.2-44.64-11.89a28.74,28.74,0,0,1-2.95-26.17c5-13.07,17.06-14.52,27.09-19.51,20-10,30.22-36,22.32-56.82-10.7-28.26-52.68-41.71-75.32-14.36-5.38,6.5-8.84,14.59-8.68,23,.44,23.51,27.24,23.76,31.32,40,4.71,18.7-25.29,20.12-36.31,14.82-15.21-7.3-23.78-24.44-25-41.22-2.59-34.66,24.29-68.4,58.32-76s71.48,10.15,89.21,40.08S282.54,202.26,264.2,231.81ZM59.28,136.47c16.21-43.1,57.66-75.67,103.49-81.31,42.84-5.28,88.15-2.91,114.92,43.42,5.24,9.06-5.85,18.82-14.37,12.73l-.19-.14c-6.15-4.48-9.66-11.64-14.59-17.42C234.35,77.12,210,73.52,188.11,75.07c-25.29,1.78-50.69,9.22-70.77,24.65s-34.19,39.53-34.12,64.8c0,16.06,6.82,35.83,19.78,46.24,10.6,8.51,21.35,5.39,33.91,7.57C169,223.89,183.08,266,153.7,284.72a42.08,42.08,0,0,1-28.84,5.76C108.21,288,94.54,277.7,83.62,265.55,52.82,231.27,43.07,179.56,59.28,136.47Z"/><path class="cls-10" d="M132.37,318.82c45.37,14,100.54-.65,137.48-30.36C322.68,246,323.49,161.08,323.5,160.85,324.31,107.24,298.28,71,250,48.31A151.47,151.47,0,0,0,185.45,34C101.8,34,34,101.57,34,185A149,149,0,0,0,53.7,259.49C71,287.72,100.37,308.93,132.37,318.82Zm131.83-87c-7.83,12.62-18.87,23.84-32.87,28.88-15.57,5.6-35.08,2.2-44.64-11.89a28.74,28.74,0,0,1-2.95-26.17c5-13.07,17.06-14.52,27.09-19.51,20-10,30.22-36,22.32-56.82-10.7-28.26-52.68-41.71-75.32-14.36-5.38,6.5-8.84,14.59-8.68,23,.44,23.51,27.24,23.76,31.32,40,4.71,18.7-25.29,20.12-36.31,14.82-15.21-7.3-23.78-24.44-25-41.22-2.59-34.66,24.29-68.4,58.32-76s71.48,10.15,89.21,40.08S282.54,202.26,264.2,231.81ZM59.28,136.47c16.21-43.1,57.66-75.67,103.49-81.31,42.84-5.28,88.15-2.91,114.92,43.42,5.24,9.06-5.85,18.82-14.37,12.73l-.19-.14c-6.15-4.48-9.66-11.64-14.59-17.42C234.35,77.12,210,73.52,188.11,75.07c-25.29,1.78-50.69,9.22-70.77,24.65s-34.19,39.53-34.12,64.8c0,16.06,6.82,35.83,19.78,46.24,10.6,8.51,21.35,5.39,33.91,7.57C169,223.89,183.08,266,153.7,284.72a42.08,42.08,0,0,1-28.84,5.76C108.21,288,94.54,277.7,83.62,265.55,52.82,231.27,43.07,179.56,59.28,136.47Z"/><path class="cls-11" d="M124.19,322.1c45.36,14,100.54-.66,137.48-30.37,52.82-42.48,53.64-127.38,53.64-127.61.82-53.61-25.21-89.86-73.46-112.54a151.39,151.39,0,0,0-64.58-14.36c-83.65,0-151.5,67.63-151.5,151.06a149.07,149.07,0,0,0,19.74,74.48C62.8,291,92.18,312.21,124.19,322.1Zm131.83-87c-7.83,12.61-18.87,23.83-32.87,28.87-15.58,5.61-35.08,2.2-44.65-11.89a28.74,28.74,0,0,1-2.95-26.17c5-13.07,17.07-14.52,27.09-19.51,20-10,30.23-36,22.33-56.81-10.71-28.27-52.68-41.71-75.33-14.36-5.38,6.5-8.84,14.58-8.68,23,.44,23.5,27.24,23.75,31.33,40C177,216.9,147,218.32,136,213c-15.2-7.31-23.78-24.45-25-41.22-2.59-34.66,24.28-68.4,58.31-76s71.48,10.16,89.21,40.08S274.36,205.53,256,235.09ZM51.09,139.74C67.3,96.65,108.76,64.08,154.58,58.43c42.85-5.28,88.15-2.91,114.92,43.42,5.24,9.06-5.84,18.82-14.37,12.73l-.18-.13c-6.16-4.48-9.66-11.64-14.6-17.43-14.19-16.63-38.58-20.22-60.42-18.68-25.29,1.79-50.7,9.22-70.77,24.66S75,142.53,75,167.8c0,16.06,6.82,35.82,19.78,46.23,10.6,8.51,21.35,5.39,33.91,7.57,32.07,5.57,46.16,47.69,16.79,66.4a42.14,42.14,0,0,1-28.84,5.76C100,291.23,86.35,281,75.44,268.83,44.63,234.54,34.88,182.83,51.09,139.74Z"/><path class="cls-10" d="M132.37,318.82c45.37,14,100.54-.65,137.48-30.36C322.68,246,323.49,161.08,323.5,160.85,324.31,107.24,298.28,71,250,48.31A151.47,151.47,0,0,0,185.45,34C101.8,34,34,101.57,34,185A149,149,0,0,0,53.7,259.49C71,287.72,100.37,308.93,132.37,318.82Zm131.83-87c-7.83,12.62-18.87,23.84-32.87,28.88-15.57,5.6-35.08,2.2-44.64-11.89a28.74,28.74,0,0,1-2.95-26.17c5-13.07,17.06-14.52,27.09-19.51,20-10,30.22-36,22.32-56.82-10.7-28.26-52.68-41.71-75.32-14.36-5.38,6.5-8.84,14.59-8.68,23,.44,23.51,27.24,23.76,31.32,40,4.71,18.7-25.29,20.12-36.31,14.82-15.21-7.3-23.78-24.44-25-41.22-2.59-34.66,24.29-68.4,58.32-76s71.48,10.15,89.21,40.08S282.54,202.26,264.2,231.81ZM59.28,136.47c16.21-43.1,57.66-75.67,103.49-81.31,42.84-5.28,88.15-2.91,114.92,43.42,5.24,9.06-5.85,18.82-14.37,12.73l-.19-.14c-6.15-4.48-9.66-11.64-14.59-17.42C234.35,77.12,210,73.52,188.11,75.07c-25.29,1.78-50.69,9.22-70.77,24.65s-34.19,39.53-34.12,64.8c0,16.06,6.82,35.83,19.78,46.24,10.6,8.51,21.35,5.39,33.91,7.57C169,223.89,183.08,266,153.7,284.72a42.08,42.08,0,0,1-28.84,5.76C108.21,288,94.54,277.7,83.62,265.55,52.82,231.27,43.07,179.56,59.28,136.47Z"/><path class="cls-4" d="M325.05,172.14c.08,3.1-1.58,7.49-4.48,6.4a4.9,4.9,0,0,1-2.24-2.44l-7-12.64a7.19,7.19,0,0,0-13.39,2.38,130.48,130.48,0,0,1-4.66,19.79,76,76,0,0,1-12.06,23.11c-2.91,3.69-8.81.7-7.72-3.87,2.7-11.28,4.78-22.69,4.81-34.26,0-16.67-4.67-34-16.24-46-2.42-2.5-5.21-4.92-6.21-8.25s1-7.81,4.44-7.82c6.19,0,6,11.84,13.92,11,4.29-.45,7.22-4.53,7.17-8.85C281.27,103,275,98,270.62,92.22c-3.91-5.08-6.36-12.85-2-17.52,7.53-8,18,2.5,23.09,7.81,5.54,5.79,11.86,11.46,16.2,18.18C320.33,119.86,324.48,150,325.05,172.14Z"/><path class="cls-4" d="M238.24,164.14c.08,2.58-.2,5.51-2.22,7.12-2.44,1.93-6.29.78-8.26-1.62s-2.53-5.65-2.93-8.73-.77-6.31-2.47-8.91c-1.1-1.69-3.07-3.11-5-2.62-3.09.79-3.29,5.09-2.56,8.19s1.37,7.12-1.33,8.81a4.93,4.93,0,0,1-5-.25,14.69,14.69,0,0,1-3.74-3.68l-5-6.32c-1.31-1.65-2.68-3.42-2.94-5.52s1.07-4.54,3.18-4.66c1.66-.09,3.08,1.21,4.72,1.5,2.87.49,5.37-2.34,5.88-5.21,1-5.52-3.92-14.79,3.52-17.62,4.11-1.57,10,1.72,12.56,4.8C233.5,137.7,237.93,153.76,238.24,164.14Z"/><path class="cls-12" d="M159.19,145.9c-1.49,7.14.73,14.57,3.93,21.13,4.22,8.64,10.55,16.71,19.35,20.58s20.32,2.49,26.36-5c4.23-5.25,5.18-12.62,3.65-19.18s-5.29-12.4-9.63-17.55C192.07,133.14,164.48,120.54,159.19,145.9Z"/><path class="cls-13" d="M165.81,222c-1.06,5.06,1,10.19,2.66,15.08,3.64,10.45,6,21.72,3.84,32.58s-9.43,21.21-20,24.46c-6.82,2.1-16.34,2.85-17.53,9.89-.64,3.77,2,7.49,5.41,9.28s7.34,2,11.17,2.13c55.06,1.52,112.51-22.78,141.9-69.36,2.15-3.4,4.19-7.06,4.47-11.07s-1.7-8.45-5.49-9.79c-4.1-1.46-8.5,1.05-11.86,3.81-9.73,8-16.65,18.77-24.58,28.55s-17.63,19-29.87,21.95c-15.41,3.68-32.3-4.13-41.29-17.18-6.65-9.64-9-21.32-8.47-32.88.15-3.27,2.85-11.53-.85-13.93C171.14,212.81,166.64,218.05,165.81,222Z"/><path class="cls-14" d="M90.17,165.6c.71,19.38,12.84,39.15,31.55,44.28-8.61-15.75-16.56-32.34-18.59-50.17a65.47,65.47,0,0,1,3-28.81c2.75-7.86,8.14-13.07,12.08-20C98.07,115.9,89.55,148.42,90.17,165.6Z"/></g></g></g></svg>