<?xml version="1.0" encoding="iso-8859-1"?>
<!-- Uploaded to: SVG Repo, www.svgrepo.com, Generator: SVG Repo Mixer Tools -->
<svg height="800px" width="800px" version="1.1" id="Capa_1" xmlns="http://www.w3.org/2000/svg" xmlns:xlink="http://www.w3.org/1999/xlink" 
	 viewBox="0 0 472.053 472.053" xml:space="preserve">
<g>
	<g>
		<path style="fill:white;" d="M314.642,193.194v45.764c0,4.845,1.39,9.332,3.682,13.176c3.869-3.503,9.34-3.552,12.063-3.552
			c1.967,0,4.113,0.122,6.381,0.244c2.398,0.13,4.934,0.268,7.584,0.268h2.552c2.642,0,5.186-0.146,7.584-0.268
			c2.268-0.13,4.414-0.244,6.381-0.244c2.731,0,8.194,0.049,12.063,3.552c2.292-3.845,3.682-8.324,3.682-13.176V0.002
			C323.787-0.713,314.642,179.278,314.642,193.194z"/>
		<path style="fill:white;" d="M360.869,256.711c-1.837,0-3.829,0.114-5.934,0.228c-2.536,0.146-5.235,0.285-8.023,0.285h-2.561
			c-2.796,0-5.495-0.146-8.023-0.285c-2.113-0.122-4.105-0.228-5.934-0.228c-3.471,0-5.576,0.325-6.804,1.609
			c-1.032,1.081-1.447,2.829-1.447,5.739v180.836c0,12.729,9.966,23.093,22.207,23.093h2.552c12.25,0,22.207-10.356,22.207-23.093
			V264.059c0-2.91-0.423-4.658-1.447-5.739C366.445,257.036,364.348,256.711,360.869,256.711z"/>
	</g>
</g>
</svg>