<svg xmlns="http://www.w3.org/2000/svg" xmlns:xlink="http://www.w3.org/1999/xlink" viewBox="0 0 502.42 209.67"><defs><style>.cls-1{isolation:isolate;}.cls-2{fill:#477c24;}.cls-3{fill:url(#Áåçûìÿííûé_ãðàäèåíò_886);}.cls-10,.cls-11,.cls-4,.cls-5,.cls-6,.cls-7,.cls-8,.cls-9{opacity:0.72;}.cls-10,.cls-11,.cls-25,.cls-4,.cls-5,.cls-6,.cls-7,.cls-8,.cls-9{mix-blend-mode:screen;}.cls-4{fill:url(#Áåçûìÿííûé_ãðàäèåíò_878);}.cls-5{fill:url(#Áåçûìÿííûé_ãðàäèåíò_878-2);}.cls-6{fill:url(#Áåçûìÿííûé_ãðàäèåíò_878-3);}.cls-7{fill:url(#Áåçûìÿííûé_ãðàäèåíò_878-4);}.cls-8{fill:url(#Áåçûìÿííûé_ãðàäèåíò_878-5);}.cls-9{fill:url(#Áåçûìÿííûé_ãðàäèåíò_878-6);}.cls-10{fill:url(#Áåçûìÿííûé_ãðàäèåíò_878-7);}.cls-11{fill:url(#Áåçûìÿííûé_ãðàäèåíò_878-8);}.cls-12,.cls-13,.cls-14,.cls-15,.cls-16,.cls-17,.cls-18,.cls-19,.cls-20,.cls-21,.cls-22,.cls-23{opacity:0.47;}.cls-12,.cls-13,.cls-14,.cls-15,.cls-16,.cls-17,.cls-18,.cls-19,.cls-20,.cls-21,.cls-22,.cls-23,.cls-24{mix-blend-mode:multiply;}.cls-12{fill:url(#Áåçûìÿííûé_ãðàäèåíò_881);}.cls-13{fill:url(#Áåçûìÿííûé_ãðàäèåíò_884);}.cls-14{fill:url(#Áåçûìÿííûé_ãðàäèåíò_884-2);}.cls-15{fill:url(#Áåçûìÿííûé_ãðàäèåíò_881-2);}.cls-16{fill:url(#Áåçûìÿííûé_ãðàäèåíò_881-3);}.cls-17{fill:url(#Áåçûìÿííûé_ãðàäèåíò_881-4);}.cls-18{fill:url(#Áåçûìÿííûé_ãðàäèåíò_881-5);}.cls-19{fill:url(#Áåçûìÿííûé_ãðàäèåíò_881-6);}.cls-20{fill:url(#Áåçûìÿííûé_ãðàäèåíò_881-7);}.cls-21{fill:url(#Áåçûìÿííûé_ãðàäèåíò_881-8);}.cls-22{fill:url(#Áåçûìÿííûé_ãðàäèåíò_881-9);}.cls-23{fill:url(#Áåçûìÿííûé_ãðàäèåíò_881-10);}.cls-24{fill:#8fc42a;opacity:0.28;}.cls-25{fill:#fff;opacity:0.82;}</style><linearGradient id="Áåçûìÿííûé_ãðàäèåíò_886" x1="195.57" y1="-84.94" x2="271.23" y2="154.3" gradientUnits="userSpaceOnUse"><stop offset="0.25" stop-color="#477c24"/><stop offset="0.45" stop-color="#629924"/><stop offset="0.82" stop-color="#91ca24"/><stop offset="1" stop-color="#a3dd24"/></linearGradient><linearGradient id="Áåçûìÿííûé_ãðàäèåíò_878" x1="299.16" y1="11.21" x2="426.24" y2="138.28" gradientUnits="userSpaceOnUse"><stop offset="0"/><stop offset="0.11" stop-color="#030500"/><stop offset="0.25" stop-color="#0d1400"/><stop offset="0.39" stop-color="#1d2d00"/><stop offset="0.55" stop-color="#344f00"/><stop offset="0.71" stop-color="#517b00"/><stop offset="0.88" stop-color="#74b000"/><stop offset="1" stop-color="#90db00"/></linearGradient><linearGradient id="Áåçûìÿííûé_ãðàäèåíò_878-2" x1="208.65" y1="-6.07" x2="360.46" y2="145.73" xlink:href="#Áåçûìÿííûé_ãðàäèåíò_878"/><linearGradient id="Áåçûìÿííûé_ãðàäèåíò_878-3" x1="271.52" y1="-32.22" x2="448.52" y2="144.78" xlink:href="#Áåçûìÿííûé_ãðàäèåíò_878"/><linearGradient id="Áåçûìÿííûé_ãðàäèåíò_878-4" x1="153.06" y1="17.62" x2="303.42" y2="167.99" xlink:href="#Áåçûìÿííûé_ãðàäèåíò_878"/><linearGradient id="Áåçûìÿííûé_ãðàäèåíò_878-5" x1="32.33" y1="86.02" x2="32.33" y2="129.18" xlink:href="#Áåçûìÿííûé_ãðàäèåíò_878"/><linearGradient id="Áåçûìÿííûé_ãðàäèåíò_878-6" x1="83.99" y1="60.83" x2="83.99" y2="151.69" xlink:href="#Áåçûìÿííûé_ãðàäèåíò_878"/><linearGradient id="Áåçûìÿííûé_ãðàäèåíò_878-7" x1="122.94" y1="61.06" x2="122.94" y2="162.36" xlink:href="#Áåçûìÿííûé_ãðàäèåíò_878"/><linearGradient id="Áåçûìÿííûé_ãðàäèåíò_878-8" x1="139.15" y1="48.38" x2="262.72" y2="171.95" xlink:href="#Áåçûìÿííûé_ãðàäèåíò_878"/><linearGradient id="Áåçûìÿííûé_ãðàäèåíò_881" x1="295.93" y1="3.5" x2="325.17" y2="32.74" gradientUnits="userSpaceOnUse"><stop offset="0.11" stop-color="#fff"/><stop offset="0.19" stop-color="#fbfdfa"/><stop offset="0.3" stop-color="#f1f7ea"/><stop offset="0.43" stop-color="#e1ecd0"/><stop offset="0.56" stop-color="#c9deac"/><stop offset="0.7" stop-color="#abcc7e"/><stop offset="0.84" stop-color="#86b646"/><stop offset="0.99" stop-color="#5c9c04"/><stop offset="1" stop-color="#599a00"/></linearGradient><linearGradient id="Áåçûìÿííûé_ãðàäèåíò_884" x1="159.58" y1="0.43" x2="208.91" y2="49.76" gradientUnits="userSpaceOnUse"><stop offset="0" stop-color="#599a00"/><stop offset="0.48" stop-color="#a7ca78"/><stop offset="1" stop-color="#fff"/></linearGradient><linearGradient id="Áåçûìÿííûé_ãðàäèåíò_884-2" x1="47.39" y1="14.98" x2="100.25" y2="67.85" xlink:href="#Áåçûìÿííûé_ãðàäèåíò_884"/><linearGradient id="Áåçûìÿííûé_ãðàäèåíò_881-2" x1="10.43" y1="78.26" x2="35.67" y2="103.5" xlink:href="#Áåçûìÿííûé_ãðàäèåíò_881"/><linearGradient id="Áåçûìÿííûé_ãðàäèåíò_881-3" x1="109.77" y1="77.76" x2="233.18" y2="201.17" xlink:href="#Áåçûìÿííûé_ãðàäèåíò_881"/><linearGradient id="Áåçûìÿííûé_ãðàäèåíò_881-4" x1="79.77" y1="91.71" x2="134.78" y2="146.72" xlink:href="#Áåçûìÿííûé_ãðàäèåíò_881"/><linearGradient id="Áåçûìÿííûé_ãðàäèåíò_881-5" x1="45.05" y1="99.87" x2="82.4" y2="137.22" xlink:href="#Áåçûìÿííûé_ãðàäèåíò_881"/><linearGradient id="Áåçûìÿííûé_ãðàäèåíò_881-6" x1="197.26" y1="5.32" x2="347.75" y2="155.8" xlink:href="#Áåçûìÿííûé_ãðàäèåíò_881"/><linearGradient id="Áåçûìÿííûé_ãðàäèåíò_881-7" x1="358.82" y1="22.67" x2="466.74" y2="130.59" xlink:href="#Áåçûìÿííûé_ãðàäèåíò_881"/><linearGradient id="Áåçûìÿííûé_ãðàäèåíò_881-8" x1="311.09" y1="38.47" x2="419.31" y2="146.69" xlink:href="#Áåçûìÿííûé_ãðàäèåíò_881"/><linearGradient id="Áåçûìÿííûé_ãðàäèåíò_881-9" x1="152.98" y1="31.65" x2="291.01" y2="169.69" xlink:href="#Áåçûìÿííûé_ãðàäèåíò_881"/><linearGradient id="Áåçûìÿííûé_ãðàäèåíò_881-10" x1="284.1" y1="-11.54" x2="387.3" y2="91.67" xlink:href="#Áåçûìÿííûé_ãðàäèåíò_881"/></defs><title>lettuce</title><g class="cls-1"><g id="Layer_2" data-name="Layer 2"><g id="Ñëîé_1" data-name="Ñëîé 1"><path class="cls-2" d="M90.59,82.51s41.28,91.66,77,116.11S218,141,218,141L169.81,92C120,66,90.59,82.51,90.59,82.51Z"/><path class="cls-2" d="M497,99.77l-18.38-22-121.16-11c-66.8-13-174.73-32.12-143.43-13l-89.71-8.11L169.81,92c12.39,6.46,26.57,14.9,40.81,28.14,64.16,59.67,76.48,52,76.48,52L208.41,96.72S312,166.61,328.58,164.87c16.8-1.76,6.81-10.44,6.81-10.44s-157.93-94-118.45-74,187.82,57.11,208.77,56.76c10.37-.17,7.43-15.17-.42-30C471.56,107.89,497,99.77,497,99.77Z"/><path class="cls-3" d="M97.7,11.44s.26-3.69,21.58-.92,27.38,4.29,27.38,4.29,3.16-10.21,16.58-6.66S176.67,6,180.22,2s7.11-2,13.62,4.54S235.69,32.23,269.25,33s52.45-4,66.14-19.74S355.13.65,363,12.23a40.4,40.4,0,0,1,6.58,24.48,60.36,60.36,0,0,0,25.79-15c12.11-11.84,25-.78,22.91,10.27s-5,26.59,10.52,25c6.92-.71,16.25-1.88,24.46-3,19-2.51,38.32,6.91,46.17,24.42.55,1.23,1.05,2.5,1.5,3.82,7.1,21-12.9,23.42-33.17,14.47s-32.64-8.16-32.64,14.22-3.68,32.9-18.42,21.58S400.93,98,378.56,102s-14.48,43.43-34.48,56.85-24.75,1.32-34-5.26-12.63.53-15,7.9-7.37,16.58-17.9,6.58-17.11-14.91-25.27,4.39-17.64,38-52.65,37.2-46.06-26.85-54-46.59-17.11-11.59-23.69-3.43-14.21,8.69-21.85-3.42-10.52-20-30.79-6.32-45.28,6.32-46.07-10.26,12.37-20.8-10-30.8S.31,78,18.73,77.51s20.8-2.37,8.42-16.32S19.78,40.13,37.42,44.34s30.53,1.58,24.22-20S51.24-7.82,97.7,11.44Z"/><path class="cls-4" d="M257.61,52.77S301,72.9,364.61,84.35s70.1,21.12,70,38.76a118.05,118.05,0,0,0,.54-12.17c0-22.38,12.37-23.17,32.64-14.22-17.9-8.42-19.87-6-40.4-7.24S295.91,70.14,257.61,52.77Z"/><path class="cls-5" d="M339.34,92.91c-39.88-7.37-128.72-37.78-168.2-61.47,0,0,42.25,30.8,109,54.49C342.39,108,365.39,104.17,360,128.37c3.45-12.63,6.89-24.33,18.54-26.38,9.28-1.64,14.87,1.42,19.31,6.33l-.2-.25C384.74,93.43,379.22,100.28,339.34,92.91Z"/><path class="cls-6" d="M231.55,29.86s40.27,19,99.1,19.35,69-16.71,80-20.66-6.32,30.27,9.21,30.53c0,0-83.7,22.11-208.86-30.79,0,0,79.83,44.42,180,41.06C491,66,502.58,75.68,502.33,91A22.82,22.82,0,0,0,501,82.25c-.45-1.32-.95-2.59-1.5-3.82C491.61,60.92,472.32,51.5,453.29,54c-8.21,1.09-17.54,2.26-24.46,3C413.3,58.56,416.2,43,418.31,32S407.51,9.86,395.4,21.7a60.36,60.36,0,0,1-25.79,15C336.18,49.61,277.35,44.08,231.55,29.86Z"/><path class="cls-7" d="M226.41,92.91c-63.33-46.16-80.07-60.07-84.48-64.16,6.38,6.53,33.29,32.88,92.38,76.09,56.95,41.63,61.26,53.15,61.07,55.88,2.36-7.08,5.85-13.49,14.74-7.14a48.81,48.81,0,0,1,4.21,3.5C303.81,144.77,311.27,154.74,226.41,92.91Z"/><path class="cls-8" d="M24.21,129.18C27.84,122.5,40.75,102.84,52,86c-11.53,14.45-26.61,28.21-39.26,22.69l.24.12C29.69,116.32,26.53,120.56,24.21,129.18Z"/><path class="cls-9" d="M71,148.62c15.92-10.19,20.35-5.85,26,3.07-9-16.21-16.8-76.1-18.62-90.86C80,75.48,85.79,134.66,71,148.62Z"/><path class="cls-10" d="M119,116.73c12,27.68,5.2,39.57,3.16,42.27,6.45-7.82,15.23-14.93,22.85,3.36-8.41-23-31.12-54.25-44.17-101.3C100.86,61.06,105.2,84.75,119,116.73Z"/><path class="cls-11" d="M235.5,142.39c12,14.06,14.76,26,14.47,34.6.67-1.5,1.33-3,2-4.54,6.61-15.64,12.19-15.38,19.67-9.4-11.84-9.6-131.28-115.86-131.28-115.86S210.62,113.18,235.5,142.39Z"/><path class="cls-12" d="M338.41,16.61c10.31-15.56,16-13.28,16.13-13.23-4.93-2.47-10.53,0-19.15,9.9C321.7,29.07,302.82,33.81,269.25,33c-.89,0-1.79-.1-2.69-.15l.42.07C296.43,36.18,328,32.31,338.41,16.61Z"/><path class="cls-13" d="M155.87,8.81c5.23-1.12,59.49,29.21,65,28.69s-37.12-20.67-38.7-29.81S186.83.84,186.83.84l1,.58c-3.07-2-5.37-1.93-7.65.61-3.55,4-3.55,9.67-17,6.12s-16.58,6.66-16.58,6.66c7.89,5.58,19.48,13.94,19.48,13.94S150.64,9.93,155.87,8.81Z"/><path class="cls-14" d="M71,52.77c8-1.85-3.56-21.06-9.35-35S81.38,5.65,92.43,15.39s35.28,25,35.28,25-34-24.48-30-28.95C51.24-7.82,55.32,2.75,61.64,24.34s-6.58,24.21-24.22,20c-7.44-1.77-12.59-1.52-15.18.4C31.63,39.87,63,54.61,71,52.77Z"/><path class="cls-15" d="M50.68,87.59a42,42,0,0,1-35.9,13.61C.28,99.81-.37,92.75,1.56,87.13c-3.65,6.94-1.27,16.05,11.38,21.7l-.24-.12C24.89,114,39.33,101.44,50.68,87.59Z"/><path class="cls-16" d="M140.34,47.19s41.06,42.16,57.38,84.54,21.27,97.14-30.1,66.93c7.66,6.32,17.75,10.67,31.68,11,32.25.72,42.82-15.08,50.67-32.66.29-8.62-2.51-20.54-14.47-34.6C210.62,113.18,140.34,47.19,140.34,47.19Z"/><path class="cls-17" d="M119,116.73a314.37,314.37,0,0,1-16.4-47.86c3,13.85,8.83,43.24,9,63.92.25,26.11-14.38,21.77-19.81,4.83,1.65,5.92,3.37,10.87,5.14,14.07.89,1.41,1.82,2.93,2.82,4.52,7.64,12.11,15.27,11.58,21.85,3.42.17-.21.36-.42.53-.64C124.22,156.3,131,144.41,119,116.73Z"/><path class="cls-18" d="M78.91,66c-3.52,19.4-17.69,86.78-43.86,82-7.57-1.37-11.08-4.91-12.11-9.45,0,.35,0,.67,0,1,.79,16.58,25.8,24,46.07,10.26.69-.47,1.32-.85,2-1.27C84.44,135.94,80.93,86.05,78.91,66Z"/><path class="cls-19" d="M280.11,85.93c-66.72-23.69-109-54.49-109-54.49S212.46,62.24,246.68,82s69.23,24.22,79,49S296.31,143.39,256,114.26c53.51,38.15,49.21,32.18,58.31,42.82,6.93,6.33,13,13,29.75,1.76,9.59-6.43,12.77-18.86,15.94-30.49C365.39,104.17,342.39,108,280.11,85.93Z"/><path class="cls-20" d="M502.33,91a19.34,19.34,0,0,0-.15-3.08c-1.63-13.48-18.09-21.66-111.12-18.54a349.61,349.61,0,0,1-73.27-5.52h-.13C384.35,79.35,441.47,71.77,461,79.9s-47.25,8.37-64.67,5.59c14.5,2.25,25.82,3.69,31.11,4,20.53,1.19,22.5-1.18,40.4,7.24,18.51,8.17,36.72,6.86,34.36-9.45,0,.22,0,.4,0,.62A23.89,23.89,0,0,1,502.33,91Z"/><path class="cls-21" d="M364.61,84.35a526.35,526.35,0,0,1-78.8-20.6c23.7,8.88,58,20.91,85.64,27.22,42.68,9.74,39.12,26.07,24.44,15.2.58.6,1.17,1.21,1.78,1.9l.2.25c6.27,6.93,10.23,17.58,18.86,24.2,11.71,9,16.43,4.16,17.88-9.41C434.71,105.47,428.13,95.79,364.61,84.35Z"/><path class="cls-22" d="M234.31,104.84c-46.5-34-73-57.51-85.33-69.19C162.8,49.09,195,80.06,228.13,109.08c43.82,38.44,58.21,67.48,5.44,20.76,18.87,16.65,34.19,30.08,38.05,33.21-.51-.4-1-.78-1.49-1.12a69.58,69.58,0,0,1,7.09,6.13c10.53,10,15.53.79,17.9-6.58.08-.26.17-.51.26-.76C295.57,158,291.26,146.47,234.31,104.84Z"/><path class="cls-23" d="M410.67,28.55c-11.05,3.95-21.19,21.06-80,20.66-43.46-.29-76.73-10.69-91.18-16.12,13,5.9,49.7,21.14,84.07,21.78,40.47.75,87.77,5.76,76.61,7.38a146.62,146.62,0,0,0,19.73-3.17C404.35,58.82,421.73,24.6,410.67,28.55Z"/><path class="cls-24" d="M124.28,43.29c3.56-2.73,33.43,34.93,26.33,36.61S118.1,48,124.28,43.29Z"/><path class="cls-24" d="M312.78,102.49c3.56-1,33.43,12.61,26.32,13.21S306.6,104.2,312.78,102.49Z"/><path class="cls-24" d="M137.51,50.4c4.25-1.38-9.21-11.52-9.8-10S135.07,51.19,137.51,50.4Z"/><path class="cls-24" d="M472.78,76.2c2.21-3.89-14.57-2.26-14-.75S471.52,78.43,472.78,76.2Z"/><path class="cls-24" d="M137.51,21.57c-.84-4.15,18.19,6.6,16.78,11.45S138.23,25.13,137.51,21.57Z"/><path class="cls-24" d="M164.82,20.64c1.51-2.64,11.06,2.31,9.87,5.28S163.44,23.06,164.82,20.64Z"/><path class="cls-24" d="M394.73,48.06c2.56-1.65,8.76,7.14,6.34,9.22S392.39,49.58,394.73,48.06Z"/><path class="cls-24" d="M201.06,123.86c1.5-2.65,11.05,2.31,9.87,5.27S199.67,126.28,201.06,123.86Z"/><path class="cls-24" d="M329.81,120.43c1.5-2.64,11.05,2.32,9.87,5.28S328.42,122.86,329.81,120.43Z"/><path class="cls-24" d="M175.88,23c.19-2,7.1,1,5.72,2.57S175.68,24.93,175.88,23Z"/><path class="cls-24" d="M282.56,93.51c.13-2,4.68,1,3.77,2.56S282.43,95.48,282.56,93.51Z"/><path class="cls-24" d="M397.88,44.51c.13-2,4.68,1,3.77,2.57S397.75,46.49,397.88,44.51Z"/><path class="cls-24" d="M55.23,145.36c-1.2-2.8,8.52-7.42,10.16-4.69S56.33,147.92,55.23,145.36Z"/><path class="cls-24" d="M63.75,137.94c-1.46-1.35,5.07-5.08,5.5-3S65.2,139.28,63.75,137.94Z"/><path class="cls-24" d="M357.7,10.32c-1-4.67-15.8,6.82-15.6,10.32S359,16.06,357.7,10.32Z"/><path class="cls-24" d="M346.64,23.31c1.21-2,10.86,1.13,9.28,2.75S344.61,26.75,346.64,23.31Z"/><path class="cls-24" d="M235.21,171.18c4.78.12-2.81-17-6.26-17.63S229.34,171,235.21,171.18Z"/><path class="cls-24" d="M225.26,157.32c1.7,1.67-3.7,10.26-4.9,8.34S222.42,154.52,225.26,157.32Z"/><path class="cls-24" d="M302.62,39.34c-2.42-1,11.45-2,8.88,0S305.38,40.53,302.62,39.34Z"/><path class="cls-24" d="M298.47,38.19c.9-1.48-3.35-2.52-4.14-.69S296.89,40.78,298.47,38.19Z"/><path class="cls-24" d="M255.87,53.91c.9-1.47-3.36-2.51-4.15-.68S254.29,56.51,255.87,53.91Z"/><path class="cls-24" d="M153.77,112.22c.89-1.48-3.36-2.52-4.15-.68S152.19,114.81,153.77,112.22Z"/><path class="cls-24" d="M144,107.73c.9-1.48-3.36-2.52-4.15-.69S142.42,110.32,144,107.73Z"/><path class="cls-24" d="M40.61,53.49c-2.21-1.43,11.62,0,8.76,1.5S43.14,55.13,40.61,53.49Z"/><path class="cls-24" d="M36.72,51.66c1.13-1.31-2.89-3-4-1.37S34.72,54,36.72,51.66Z"/><path class="cls-25" d="M257.23,158.77c2.92-2.24-11.9-16.45-15.38-18S251.5,163.17,257.23,158.77Z"/><path class="cls-25" d="M299.46,148.71c2.23-.94-5.26-9.34-10.27-7.5S294.46,150.82,299.46,148.71Z"/><path class="cls-25" d="M285.81,143.58c1.44-.05,1.15-5.66-2.54-5.93S281.76,143.71,285.81,143.58Z"/><path class="cls-25" d="M133.66,149.08c1.44-.05,1.15-5.66-2.53-5.92S129.62,149.21,133.66,149.08Z"/><path class="cls-25" d="M371.13,101.89c-5.2-2.4-19.58,3.65-12.47,3.78S373.11,102.8,371.13,101.89Z"/><path class="cls-25" d="M352.61,101.6c1.48,1.08,6.65-.1,7.22-1.41S350.62,100.17,352.61,101.6Z"/><path class="cls-25" d="M474.57,61c-3.26-4.75-46.79-1-47,1S479,67.49,474.57,61Z"/><path class="cls-25" d="M481,64.43c1.05-2.42-3.81-3.7-4.54-2.76S479.5,67.86,481,64.43Z"/></g></g></g></svg>