<svg xmlns="http://www.w3.org/2000/svg" viewBox="0 0 184.84 174.67"><defs><style>.cls-1{fill:#fff;stroke:#231f20;}.cls-1,.cls-2{stroke-miterlimit:10;stroke-width:8px;}.cls-2{fill:#5cc2a6;stroke:#f99f1e;stroke-linecap:round;}</style></defs><title>Asset 1</title><g id="Layer_2" data-name="Layer 2"><g id="Layer_1-2" data-name="Layer 1"><path class="cls-1" d="M137.81,155.64V118.4a47.05,47.05,0,0,0,18-4.74c3.77-1.86,22.44-11.09,24.79-31.24,1.8-15.39-6.76-29.78-18.67-37A40,40,0,0,0,138.15,40,44.43,44.43,0,0,0,130,22.31C118.84,7.89,97.67.06,78,6,54.53,13.13,46.53,36,45.77,38.27a37.83,37.83,0,0,0-16.3,2.38C16.1,45.82,3.9,59.77,4,77c.1,17,12.2,27.53,14.6,29.54A42.12,42.12,0,0,0,43.4,116v36.11a18.3,18.3,0,0,0,18.23,18.3l61.1.22A15,15,0,0,0,137.81,155.64Z"/><line class="cls-2" x1="64.11" y1="105.85" x2="118.79" y2="105.85"/><line class="cls-2" x1="64.11" y1="127.59" x2="118.79" y2="127.59"/><line class="cls-2" x1="64.11" y1="147.97" x2="118.79" y2="147.97"/></g></g></svg>