<svg xmlns="http://www.w3.org/2000/svg" xmlns:xlink="http://www.w3.org/1999/xlink" viewBox="0 0 366.45 366.45"><defs><style>.cls-1{isolation:isolate;}.cls-2{fill:url(#linear-gradient);}.cls-3{fill:url(#linear-gradient-2);}.cls-16,.cls-4{fill:#fff;}.cls-4{opacity:0.65;mix-blend-mode:lighten;}.cls-5{fill:url(#linear-gradient-3);}.cls-6{fill:url(#linear-gradient-4);}.cls-7{fill:url(#radial-gradient);}.cls-8{fill:#dd8418;}.cls-9{fill:url(#linear-gradient-10);}.cls-10,.cls-15{opacity:0.25;mix-blend-mode:multiply;}.cls-10{fill:url(#radial-gradient-2);}.cls-11{fill:#fbc959;}.cls-12{opacity:0.15;fill:url(#linear-gradient-11);}.cls-12,.cls-13,.cls-14{mix-blend-mode:overlay;}.cls-13{opacity:0.2;fill:url(#linear-gradient-12);}.cls-14,.cls-17{opacity:0.35;}.cls-14{fill:url(#linear-gradient-13);}.cls-15{fill:url(#radial-gradient-3);}.cls-16{opacity:0.5;}.cls-17{mix-blend-mode:color-burn;fill:url(#linear-gradient-14);}</style><linearGradient id="linear-gradient" y1="183.22" x2="366.45" y2="183.22" gradientTransform="translate(183.22 -75.89) rotate(45)" gradientUnits="userSpaceOnUse"><stop offset="0.01" stop-color="#9ba1b2"/><stop offset="1" stop-color="#b5b9c6"/></linearGradient><linearGradient id="linear-gradient-2" x1="3.78" y1="183.22" x2="362.67" y2="183.22" gradientUnits="userSpaceOnUse"><stop offset="0" stop-color="#ebeffc"/><stop offset="0.99" stop-color="#d5dbef"/></linearGradient><linearGradient id="linear-gradient-3" x1="15.89" y1="183.22" x2="350.56" y2="183.22" gradientUnits="userSpaceOnUse"><stop offset="0.01" stop-color="#9ba1b2"/><stop offset="1" stop-color="#b5b9c6"/></linearGradient><linearGradient id="linear-gradient-4" x1="183.23" y1="339.46" x2="183.23" y2="26.99" gradientUnits="userSpaceOnUse"><stop offset="0.2" stop-color="#fccc5b"/><stop offset="0.33" stop-color="#fbc858"/><stop offset="0.45" stop-color="#f8bd4f"/><stop offset="0.56" stop-color="#f2aa3f"/><stop offset="0.58" stop-color="#f1a53b"/><stop offset="0.72" stop-color="#efa137"/><stop offset="0.86" stop-color="#e9972c"/><stop offset="0.99" stop-color="#de8519"/><stop offset="1" stop-color="#dd8317"/></linearGradient><radialGradient id="radial-gradient" cx="206.35" cy="192.98" r="139.95" gradientUnits="userSpaceOnUse"><stop offset="0.2" stop-color="#fccc5b"/><stop offset="0.4" stop-color="#fac857"/><stop offset="0.58" stop-color="#f6bd4d"/><stop offset="0.76" stop-color="#edaa3b"/><stop offset="0.94" stop-color="#e28f22"/><stop offset="1" stop-color="#dd8317"/></radialGradient><linearGradient id="linear-gradient-10" x1="183.22" y1="334.88" x2="183.22" y2="31.59" gradientUnits="userSpaceOnUse"><stop offset="0" stop-color="#dd8317"/><stop offset="0.08" stop-color="#e28f22"/><stop offset="0.3" stop-color="#edaa3b"/><stop offset="0.53" stop-color="#f6bd4d"/><stop offset="0.76" stop-color="#fac857"/><stop offset="1" stop-color="#fccc5b"/></linearGradient><radialGradient id="radial-gradient-2" cx="185.96" cy="170.33" r="136.07" xlink:href="#radial-gradient"/><linearGradient id="linear-gradient-11" x1="36.48" y1="164.93" x2="220.17" y2="164.93" gradientUnits="userSpaceOnUse"><stop offset="0.01" stop-color="#e6e6e6"/><stop offset="1" stop-color="#fff"/></linearGradient><linearGradient id="linear-gradient-12" x1="162.52" y1="205.91" x2="255.73" y2="205.91" xlink:href="#linear-gradient-11"/><linearGradient id="linear-gradient-13" x1="120.91" y1="160.76" x2="213.83" y2="160.76" xlink:href="#linear-gradient-11"/><radialGradient id="radial-gradient-3" cx="282.57" cy="216.85" r="60.09" xlink:href="#radial-gradient"/><linearGradient id="linear-gradient-14" x1="4785.53" y1="6651.33" x2="5097.97" y2="6651.33" gradientTransform="translate(6770.7 -4757.06) rotate(90)" gradientUnits="userSpaceOnUse"><stop offset="0" stop-color="#ccc"/><stop offset="1" stop-color="#999"/></linearGradient></defs><title>mayoSouce</title><g class="cls-1"><g id="Layer_2" data-name="Layer 2"><g id="Layer_1-2" data-name="Layer 1"><circle class="cls-2" cx="183.23" cy="183.22" r="183.23" transform="translate(-75.89 183.23) rotate(-45)"/><circle class="cls-3" cx="183.23" cy="183.22" r="179.45"/><path class="cls-4" d="M183.22,7.07A176.16,176.16,0,1,0,359.38,183.22,176.16,176.16,0,0,0,183.22,7.07Zm0,347.38A171.23,171.23,0,1,1,354.45,183.22,171.22,171.22,0,0,1,183.22,354.45Z"/><circle class="cls-5" cx="183.23" cy="183.22" r="167.34"/><circle class="cls-6" cx="183.23" cy="183.22" r="156.23"/><circle class="cls-6" cx="183.23" cy="183.22" r="156.23"/><path class="cls-7" d="M258.83,46.5A156.22,156.22,0,0,1,73.24,294.16,156.23,156.23,0,1,0,258.83,46.5Z"/><circle class="cls-2" cx="183.23" cy="183.22" r="183.23" transform="translate(-75.89 183.23) rotate(-45)"/><circle class="cls-3" cx="183.23" cy="183.22" r="179.45"/><path class="cls-4" d="M183.22,7.07A176.16,176.16,0,1,0,359.38,183.22,176.16,176.16,0,0,0,183.22,7.07Zm0,347.38A171.23,171.23,0,1,1,354.45,183.22,171.22,171.22,0,0,1,183.22,354.45Z"/><circle class="cls-5" cx="183.23" cy="183.22" r="167.34"/><circle class="cls-6" cx="183.23" cy="183.22" r="156.23"/><path class="cls-8" d="M339.44,183.21c0,4.86-.25,9.68-.64,14.39a156.25,156.25,0,0,1-310.92,2.55A160.07,160.07,0,0,1,27,183.21a156.22,156.22,0,0,1,312.44,0Z"/><path class="cls-9" d="M334.84,183.21c0,4.72-.24,9.39-.62,14a151.65,151.65,0,0,1-301.76,2.48,153.63,153.63,0,0,1-.86-16.45,151.62,151.62,0,0,1,303.24,0Z"/><path class="cls-10" d="M315.85,226.83a149.31,149.31,0,0,1-19.31,36.47,143.88,143.88,0,0,0,7.35-22.42c14-59.62-18.65-117.08-68.82-140.94a118.21,118.21,0,0,0-72.72-9.57c-41.2,7.6-72.11,34.51-77.43,77.8-3.47,28.34,6.87,57.76,26.55,78.33a83.77,83.77,0,0,0,15.19,12.56c45.14,29.24,113.73,14.35,118.39-48.86,1.86-25.17-.42-51.84-27.38-64.58a14.69,14.69,0,0,0-2-.77c-20.63-8-43.59,9.56-21.17,26.19,17.7,13.15,6.34,41.74-10,50.47-11.24,6-21.77,3.46-30.5-3.23-11.48-8.73-19.73-24.64-22.18-37.61-7.3-38.69,19.61-66.92,56-72.36,17.28-2.57,32.11-.48,44.55,5.14,48.55,21.53,60.57,94.66,36.23,139.87-23.2,43-102,67.93-161.69,32.23a111.53,111.53,0,0,1-17.7-12.86C7.66,200.94,42.76,37.27,189.26,38.05a215.42,215.42,0,0,1,32.83,2.45A151.32,151.32,0,0,1,265.8,53.9a112.51,112.51,0,0,1,38.93,38C328.83,131.15,331.64,184.07,315.85,226.83Z"/><path class="cls-11" d="M315.93,227.38A147.06,147.06,0,0,1,298.56,261c-.58.87-1.21,1.75-1.85,2.63a91.52,91.52,0,0,1-6.88,8.67c-8.58,9.8-19.85,17.35-29.07,26.61,16.53-16.62,28.29-40.16,33.66-62.76,8.39-35.62-1-71.88-21.47-100a.69.69,0,0,1-.14-.2,129.69,129.69,0,0,0-37.13-34.44C212.75,87.54,185.24,81,156.41,86.18c-40.83,7.3-75.18,37-80,79.27A92.34,92.34,0,0,0,83.48,212,95.32,95.32,0,0,0,128,259.35a86.31,86.31,0,0,0,44.73,8.87c34.74-2.49,60.64-27.68,63.23-62.52,1.65-22.41,0-45.95-19.52-59.64a55.3,55.3,0,0,0-7.66-4.39c-20.88-9.84-46,8.19-23,25.2,17.56,13,6.24,41.41-10,50-7.26,3.85-14.29,4.14-20.63,2-16.34-5.36-28.59-26.22-31.66-42.54C116.21,138,142.94,110.05,179,104.59c21.81-3.26,39.81,1.08,53.91,10.33,12,7.8,21.17,19.15,27.47,32.31,15.07,30.89,14.68,72-1.18,101.2a73.49,73.49,0,0,1-13.36,17.45c-30.1,29.28-88.64,43.07-137.57,19.78A113.23,113.23,0,0,1,81,267.73C.1,196.54,35,34.14,180.56,34.87a221.84,221.84,0,0,1,32.58,2.43c18.83,2.93,37.08,9,53.08,18.52a111.47,111.47,0,0,1,38.64,37.66C328.81,132.47,331.59,185,315.93,227.38Z"/><path class="cls-12" d="M126.8,288.54a114.78,114.78,0,0,1-27.45-18.06C17.85,198.72,53,35.06,199.51,35.78q10.37.06,20.66,1c-2.59-.52-5.15-1.14-7.77-1.54a223.94,223.94,0,0,0-32.82-2.45C33.07,32.07-2.09,195.73,79.42,267.49a114.93,114.93,0,0,0,27.44,18.06,122.88,122.88,0,0,0,44.84,11.53A119.85,119.85,0,0,1,126.8,288.54Z"/><path class="cls-13" d="M162.52,268.11A85.47,85.47,0,0,0,191.61,271c35-2.51,61.06-27.87,63.63-63,1.67-22.54,0-46.28-19.62-60.09a56.22,56.22,0,0,0-7.71-4.43,28.87,28.87,0,0,0-18.33-2.15,60.13,60.13,0,0,1,6,3.53c19.68,13.87,21.35,37.61,19.68,60.15-2.58,35.16-28.65,60.52-63.63,63A85,85,0,0,1,162.52,268.11Z"/><path class="cls-14" d="M178.08,103.05c-36.36,5.5-63.26,33.73-56,72.35,3.11,16.45,15.43,37.5,31.87,42.88a24.83,24.83,0,0,0,14.27.43C154.68,211,144.78,192.89,142,178.39c-7.29-38.63,19.62-66.85,56-72.35A93.76,93.76,0,0,1,213.83,105C203.34,101.91,191.43,101.05,178.08,103.05Z"/><path class="cls-15" d="M298.38,260.66c-.59.88-1.22,1.77-1.86,2.65a91.34,91.34,0,0,1-6.93,8.74c-8.64,9.87-20,17.48-29.27,26.82,16.65-16.75,28.49-40.47,33.89-63.26,8.45-35.9-1-72.44-21.61-100.77C288.91,154.73,317.68,200.69,298.38,260.66Z"/><path class="cls-16" d="M339.44,183.21c0,4.86-.25,9.68-.64,14.39-3-2-5.06-5.94-6.63-9.53q-11.64-27-23.33-53.92c.64,12.28,1.33,24.55,2,36.88.1,1.92-.39,4.57-2.36,4.62-1.28,0-2.16-1.33-2.75-2.46q-9.06-16.5-18-33,.66,23.64,1.42,47.29c.15,4.67.25,9.43-1.37,13.8s-5.41,8.25-10,8.5a208.07,208.07,0,0,0-39.44-106c6.88-4.08,15.18,2.46,19.84,9s10.22,14.44,18.17,13.85q-11.41-22.84-22.88-45.68c-1.52-3-2.9-7.22-.39-9.52,2.75-2.51,7.12-.25,10.06,2.06Q273.9,82,284.83,90.54c2.41,1.87,5.3,3.88,8.2,3,4.62-1.37,4.47-7.85,3.34-12.52-.34-1.47-1.42-4.52-2.46-8A155.6,155.6,0,0,1,339.44,183.21Z"/><path class="cls-16" d="M184.1,101.57s-79.39,9-60.16,80.63C123.94,182.2,112.89,121.22,184.1,101.57Z"/><path class="cls-17" d="M82.86,185.92A156.2,156.2,0,0,1,213.59,31.8a157,157,0,0,0-32.16-3.33,160.24,160.24,0,0,0-17,.89A156.25,156.25,0,0,0,167,340.27c4.71.4,9.53.64,14.39.64A156.9,156.9,0,0,0,207,338.8,156.28,156.28,0,0,1,82.86,185.92Z"/></g></g></g></svg>