<svg xmlns="http://www.w3.org/2000/svg" xmlns:xlink="http://www.w3.org/1999/xlink" viewBox="0 0 501.28 186.83"><defs><style>.cls-1{isolation:isolate;}.cls-2{fill:url(#Áåçûìÿííûé_ãðàäèåíò_1027);}.cls-18,.cls-19,.cls-21,.cls-22,.cls-23,.cls-24,.cls-25,.cls-26,.cls-3,.cls-7{opacity:0.32;}.cls-10,.cls-11,.cls-12,.cls-13,.cls-18,.cls-3,.cls-4,.cls-7,.cls-8,.cls-9{mix-blend-mode:multiply;}.cls-3{fill:url(#Áåçûìÿííûé_ãðàäèåíò_1002);}.cls-4{opacity:0.68;fill:url(#Áåçûìÿííûé_ãðàäèåíò_985);}.cls-28,.cls-5{opacity:0.8;}.cls-14,.cls-15,.cls-16,.cls-19,.cls-21,.cls-22,.cls-23,.cls-24,.cls-25,.cls-26,.cls-27,.cls-28,.cls-5,.cls-6{mix-blend-mode:screen;}.cls-5{fill:url(#Áåçûìÿííûé_ãðàäèåíò_989);}.cls-6{opacity:0.5;fill:url(#Áåçûìÿííûé_ãðàäèåíò_989-2);}.cls-7{fill:url(#Áåçûìÿííûé_ãðàäèåíò_990);}.cls-10,.cls-11,.cls-12,.cls-13,.cls-8,.cls-9{opacity:0.57;}.cls-8{fill:url(#Áåçûìÿííûé_ãðàäèåíò_1001);}.cls-9{fill:url(#Áåçûìÿííûé_ãðàäèåíò_1001-2);}.cls-10{fill:url(#Áåçûìÿííûé_ãðàäèåíò_1001-3);}.cls-11{fill:url(#Áåçûìÿííûé_ãðàäèåíò_1001-4);}.cls-12{fill:url(#Áåçûìÿííûé_ãðàäèåíò_1001-5);}.cls-13{fill:url(#Áåçûìÿííûé_ãðàäèåíò_1001-6);}.cls-14,.cls-15,.cls-16{opacity:0.78;}.cls-14{fill:url(#Áåçûìÿííûé_ãðàäèåíò_996);}.cls-15{fill:url(#Áåçûìÿííûé_ãðàäèåíò_996-2);}.cls-16{fill:url(#Áåçûìÿííûé_ãðàäèåíò_996-3);}.cls-17{opacity:0.65;}.cls-18{fill:#682309;}.cls-19{fill:#ffa569;}.cls-20{opacity:0.54;}.cls-21{fill:url(#Áåçûìÿííûé_ãðàäèåíò_1059);}.cls-22{fill:url(#Áåçûìÿííûé_ãðàäèåíò_1059-2);}.cls-23{fill:url(#Áåçûìÿííûé_ãðàäèåíò_1059-3);}.cls-24{fill:url(#Áåçûìÿííûé_ãðàäèåíò_1059-4);}.cls-25{fill:url(#Áåçûìÿííûé_ãðàäèåíò_1059-5);}.cls-26{fill:url(#Áåçûìÿííûé_ãðàäèåíò_1059-6);}.cls-28,.cls-29{fill:#ffff7f;}</style><linearGradient id="Áåçûìÿííûé_ãðàäèåíò_1027" x1="222.98" y1="-74.05" x2="287.03" y2="317.03" gradientUnits="userSpaceOnUse"><stop offset="0.11" stop-color="#301616"/><stop offset="0.22" stop-color="#461c14"/><stop offset="0.48" stop-color="#752711"/><stop offset="0.61" stop-color="#872c10"/></linearGradient><linearGradient id="Áåçûìÿííûé_ãðàäèåíò_1002" x1="108.72" y1="-59.99" x2="264.95" y2="96.25" gradientUnits="userSpaceOnUse"><stop offset="0.27" stop-color="#fff"/><stop offset="0.33" stop-color="#ebe2df"/><stop offset="0.47" stop-color="#c4a99f"/><stop offset="0.61" stop-color="#a37969"/><stop offset="0.73" stop-color="#895440"/><stop offset="0.84" stop-color="#773922"/><stop offset="0.93" stop-color="#6c290f"/><stop offset="1" stop-color="#682309"/></linearGradient><linearGradient id="Áåçûìÿííûé_ãðàäèåíò_985" x1="220.8" y1="248.17" x2="245.08" y2="121.63" gradientUnits="userSpaceOnUse"><stop offset="0.4" stop-color="#fff"/><stop offset="0.45" stop-color="#ebe2df"/><stop offset="0.56" stop-color="#c4a99f"/><stop offset="0.67" stop-color="#a37969"/><stop offset="0.78" stop-color="#895440"/><stop offset="0.87" stop-color="#773922"/><stop offset="0.94" stop-color="#6c290f"/><stop offset="1" stop-color="#682309"/></linearGradient><linearGradient id="Áåçûìÿííûé_ãðàäèåíò_989" x1="4.48" y1="85.11" x2="499.06" y2="85.11" gradientUnits="userSpaceOnUse"><stop offset="0"/><stop offset="0.14" stop-color="#150700"/><stop offset="0.44" stop-color="#4a1a00"/><stop offset="0.87" stop-color="#a03800"/><stop offset="0.92" stop-color="#aa3c00"/></linearGradient><linearGradient id="Áåçûìÿííûé_ãðàäèåíò_989-2" x1="347.43" y1="35.99" x2="491.27" y2="35.99" xlink:href="#Áåçûìÿííûé_ãðàäèåíò_989"/><linearGradient id="Áåçûìÿííûé_ãðàäèåíò_990" x1="250.57" y1="224.47" x2="250.57" y2="148.12" gradientUnits="userSpaceOnUse"><stop offset="0" stop-color="#fff"/><stop offset="0.09" stop-color="#ebe2df"/><stop offset="0.28" stop-color="#c4a99f"/><stop offset="0.46" stop-color="#a37969"/><stop offset="0.63" stop-color="#895440"/><stop offset="0.78" stop-color="#773922"/><stop offset="0.91" stop-color="#6c290f"/><stop offset="1" stop-color="#682309"/></linearGradient><linearGradient id="Áåçûìÿííûé_ãðàäèåíò_1001" x1="84.94" y1="-19.13" x2="273.98" y2="169.91" gradientUnits="userSpaceOnUse"><stop offset="0.09" stop-color="#fff"/><stop offset="0.13" stop-color="#ebe2df"/><stop offset="0.21" stop-color="#c4a99f"/><stop offset="0.29" stop-color="#a37969"/><stop offset="0.36" stop-color="#895440"/><stop offset="0.43" stop-color="#773922"/><stop offset="0.48" stop-color="#6c290f"/><stop offset="0.52" stop-color="#682309"/><stop offset="0.94" stop-color="#fff"/></linearGradient><linearGradient id="Áåçûìÿííûé_ãðàäèåíò_1001-2" x1="298.82" y1="-33.04" x2="453.93" y2="122.06" xlink:href="#Áåçûìÿííûé_ãðàäèåíò_1001"/><linearGradient id="Áåçûìÿííûé_ãðàäèåíò_1001-3" x1="80.85" y1="-15.05" x2="259.96" y2="164.06" xlink:href="#Áåçûìÿííûé_ãðàäèåíò_1001"/><linearGradient id="Áåçûìÿííûé_ãðàäèåíò_1001-4" x1="295.99" y1="-30.2" x2="447.87" y2="121.68" xlink:href="#Áåçûìÿííûé_ãðàäèåíò_1001"/><linearGradient id="Áåçûìÿííûé_ãðàäèåíò_1001-5" x1="188.22" y1="-42.38" x2="384.03" y2="153.43" xlink:href="#Áåçûìÿííûé_ãðàäèåíò_1001"/><linearGradient id="Áåçûìÿííûé_ãðàäèåíò_1001-6" x1="183.96" y1="-38.12" x2="368.85" y2="146.77" xlink:href="#Áåçûìÿííûé_ãðàäèåíò_1001"/><linearGradient id="Áåçûìÿííûé_ãðàäèåíò_996" x1="286.16" y1="-22.58" x2="422.73" y2="113.99" gradientUnits="userSpaceOnUse"><stop offset="0"/><stop offset="0.08" stop-color="#150700"/><stop offset="0.25" stop-color="#4a1a00"/><stop offset="0.49" stop-color="#a03800"/><stop offset="0.51" stop-color="#a53a00"/><stop offset="1"/></linearGradient><linearGradient id="Áåçûìÿííûé_ãðàäèåíò_996-2" x1="73.43" y1="-1.31" x2="217.27" y2="142.53" xlink:href="#Áåçûìÿííûé_ãðàäèåíò_996"/><linearGradient id="Áåçûìÿííûé_ãðàäèåíò_996-3" x1="180.21" y1="-28.31" x2="353.21" y2="144.68" xlink:href="#Áåçûìÿííûé_ãðàäèåíò_996"/><linearGradient id="Áåçûìÿííûé_ãðàäèåíò_1059" x1="120.18" y1="142.07" x2="120.18" y2="115.99" gradientUnits="userSpaceOnUse"><stop offset="0" stop-color="#ffa569"/><stop offset="0.01" stop-color="#fba267"/><stop offset="0.12" stop-color="#b9784c"/><stop offset="0.23" stop-color="#815335"/><stop offset="0.34" stop-color="#533522"/><stop offset="0.44" stop-color="#2f1e13"/><stop offset="0.54" stop-color="#150e09"/><stop offset="0.62" stop-color="#050402"/><stop offset="0.69"/></linearGradient><linearGradient id="Áåçûìÿííûé_ãðàäèåíò_1059-2" x1="390.95" y1="172.02" x2="390.95" y2="145.95" xlink:href="#Áåçûìÿííûé_ãðàäèåíò_1059"/><linearGradient id="Áåçûìÿííûé_ãðàäèåíò_1059-3" x1="445.1" y1="129.03" x2="445.1" y2="102.96" xlink:href="#Áåçûìÿííûé_ãðàäèåíò_1059"/><linearGradient id="Áåçûìÿííûé_ãðàäèåíò_1059-4" x1="128.01" y1="151.69" x2="128.01" y2="138.14" xlink:href="#Áåçûìÿííûé_ãðàäèåíò_1059"/><linearGradient id="Áåçûìÿííûé_ãðàäèåíò_1059-5" x1="248.18" y1="149.67" x2="248.18" y2="136.12" xlink:href="#Áåçûìÿííûé_ãðàäèåíò_1059"/><linearGradient id="Áåçûìÿííûé_ãðàäèåíò_1059-6" x1="436.14" y1="137.09" x2="436.14" y2="123.53" xlink:href="#Áåçûìÿííûé_ãðàäèåíò_1059"/></defs><title>meat</title><g class="cls-1"><g id="Layer_2" data-name="Layer 2"><g id="Ñëîé_1" data-name="Ñëîé 1"><path class="cls-2" d="M96.11,10.6c7,1.84,7.89-13.82,21.71-7.5S132,4.32,137.17,1.34,157.32.55,159.28,6C159.28,6,232.15-2,300,5.3s71.36,21.88,87.54,17.54,20.54-.79,33.57,5.92,7.5-2,22.9,0,22.5-9.87,35.14.79,2.76,14.61,2.76,14.61,14.61,4.74,7.5,17c0,0,17.22,7.4,10.27,37.51-2.37,10.26,1.94,9.14.79,18.95-.79,6.71-9.48,4.34-7.9,13.42s-2,13.43-8.69,14.61A17.14,17.14,0,0,1,474,161.79c-15.79,7.5-61.37,17.35-117.72,21.75-80.94,6.32-88.05-3.56-97.52,0s-27.25-3.95-27.25-3.95-7.89,10.65-17.37,6.11-8.16,3.89-31.45-2.82S123,172.09,74,154.32,27.8,129.84,25,125.89s-4.34,5.13-11.84,2.37-4.74-7.5-4.74-7.5-7.9-.79-7.11-6.32,6.32-3.16,1.58-14.21S-.63,71.8,5.29,63.11s-3.55-12.63,0-19.34,15,3.15,19.35-8.3,30-15.79,44.62-19.34S82.68,7.05,96.11,10.6Z"/><path class="cls-3" d="M387.49,22.84C371.31,27.18,367.75,12.57,300,5.3S159.28,6,159.28,6c-2-5.42-17-7.61-22.11-4.63s-5.53,8.07-19.35,1.76-14.75,9.34-21.71,7.5c-13.43-3.55-12.24,2-26.85,5.53S29,24,24.64,35.47,8.85,37.05,5.29,43.77a6.5,6.5,0,0,0-.69,4.4c1.51,4.52,11.17,5,12,11.52C17.66,67.85,25,66,27.14,69.43s12.11,5.79,12.11,5.79,1.84-7.11,9,0,7.37,1,14.21,0S68.2,78.38,73.47,85c2.82,3.53,9.92,8.84,20.77,13.57-10.87-7.86,57.38-9.19,14-36.08-49.91-30.92,17-.13-.32-15.78s81.66,17.31,59.42-5.5,115.81,37.56,77.58,10,85.71,12,55.06-7,43.67,7.74,29.37-11.85,84.95,22.12,72.5,8.82-9.5-21.5,2.93-19.63C400.2,20.54,395.2,20.77,387.49,22.84Z"/><path class="cls-4" d="M479.89,88.91c-13.69,1.31-24.22.79-22.64,7.63s-14.48.27-15.65,5-9.36,14.22-17.78,10.8-6.05,4.73-12.37-1.06-22.9,1.85-50.8,12.37-77.39,0-77.39,0c-1.32,3.95-8.43-.26-8.43-.26-6.31,3.69-11.58-6.58-17.37-1.84s-9.47-1.84-15,3.68S224.82,131,219,121s-9.21-9.47-15.79-7.37-6.06-.79-9.48.53-3.37,5.26-3.37,5.26a365,365,0,0,0-59.54-11.58C98.47,104.44,78.73,91.54,73.47,85s-4.21-10.79-11.06-9.74-7.1,7.11-14.21,0-9,0-9,0-10-2.37-12.11-5.79-9.48-1.58-10.53-9.74c-.84-6.5-10.5-7-12-11.52.78,4.44,5.21,8.31.69,14.94-5.92,8.69-7.1,26.06-2.37,37.12s-.79,8.68-1.58,14.21,7.11,6.32,7.11,6.32-2.76,4.74,4.74,7.5,9.08-6.32,11.84-2.37,0,10.66,49,28.43,85.42,21.85,108.72,28.56,22-1.71,31.45,2.82,17.37-6.11,17.37-6.11,17.77,7.5,27.25,3.95,16.58,6.32,97.52,0c56.35-4.4,101.93-14.25,117.72-21.75a17.14,17.14,0,0,0,9.81-16.16c6.72-1.18,10.27-5.52,8.69-14.61s7.11-6.71,7.9-13.42c1.15-9.81-3.16-8.69-.79-18.95,3.13-13.57,1.34-22.5-1.55-28.25C502.23,79.63,492.71,87.68,479.89,88.91Z"/><path class="cls-5" d="M16.61,59.69C17.66,67.85,25,66,27.14,69.43s12.11,5.79,12.11,5.79,1.84-7.11,9,0,7.37,1,14.21,0S68.2,78.38,73.47,85s25,19.48,57.38,22.9a365,365,0,0,1,59.54,11.58s0-4,3.37-5.26,2.9,1.58,9.48-.53S213.24,111,219,121s17.9,9.74,23.43,4.21,9.21,1.06,15-3.68,11.06,5.53,17.37,1.84c0,0,7.11,4.21,8.43.26,0,0,49.48,10.53,77.39,0s44.48-18.16,50.8-12.37,3.95-2.37,12.37,1.06,16.62-6.06,17.78-10.8,17.23,1.85,15.65-5,8.95-6.32,22.64-7.63c12.82-1.23,22.34-9.28,18.19-18.51,5,13.35-19.25,15.88-34.78,16.93s-4.74,11.32-12.37,9.21-9.21-1.31-10.53,3.16-5.26,13.16-13.69,9.74-9.68,3.13-15.26-1.84-9.48-3.95-21.85,2.89-35,12.9-62.65,14.74-44.09-4-44.09-4c.2,4.64-8.88-2.07-8.88-2.07s1.09,7.4-7.9,1.68-7.83,3.85-15.44,1.22-24,5.76-32.4-4.58-11.58-8.59-17.11-5.76-7.9-5.72-15.27-1-28.42-9.22-61.33-8.43S77.79,89.1,73.65,78.91,58.48,76.57,54,77.06s-7.63-11.31-11.85-7.63-7.35,4.46-12.37-1.32-6-.86-9.72-4.21.51-9.47-5.54-10.53S5,41.27,16.09,41.43c-4.32,0-8.8-1.43-10.8,2.34a6.5,6.5,0,0,0-.69,4.4C6.11,52.69,15.77,53.19,16.61,59.69Z"/><path class="cls-6" d="M382.23,26.52c16.85-3.94,32.11,1.58,39.75,5.27s17.1-3.32,23.16-.79,18.16-5.27,28.43,0,2.89,15,2.89,15c12.79-1.56,14.13,12.17,14.15,12.42,3.62-10.22-8.75-14.26-8.75-14.26s9.87-3.95-2.76-14.61-19.75,1.19-35.14-.79-9.87,6.71-22.9,0-17.38-10.26-33.57-5.92c-11.06,3-16.24-2.92-40.06-9.27C365.89,19.53,367.65,29.94,382.23,26.52Z"/><path class="cls-7" d="M2.92,100.23c4.74,11-.79,8.68-1.58,14.21s7.11,6.32,7.11,6.32-2.76,4.74,4.74,7.5,9.08-6.32,11.84-2.37,0,10.66,49,28.43,85.42,21.85,108.72,28.56,22-1.71,31.45,2.82,17.37-6.11,17.37-6.11,17.77,7.5,27.25,3.95,16.58,6.32,97.52,0c56.35-4.4,101.93-14.25,117.72-21.75a17.14,17.14,0,0,0,9.81-16.16c6.72-1.18,10.27-5.52,8.69-14.61s7.11-6.71,7.9-13.42c1.15-9.81-3.16-8.69-.79-18.95a64.73,64.73,0,0,0,1.47-9.2c-1.7,10.32-10.69,12.36-3.31,21.57s-10.27,18.69-17.38,9.48-8.42-4.74-14.74,17.9-26.32,8.94-33.69,5.52-6.84,9-14,4.48S402,134.18,389.86,150s-9.74,14-20.53,2.63-39.48-20.27-55.54,5-48.17,19.74-63.15,7.63-24,5.27-32.93,8.43-41.06-35.54-67.12-13.95-38.69-6.58-53.17-19.22-6.84-.53-24.74-1.84S39,94.17,28.46,105.75C19.67,115.42,1.77,104,0,85.57A40.88,40.88,0,0,0,2.92,100.23Z"/><path class="cls-8" d="M257.46,121.55c5.79-4.74,11.06,5.53,17.37,1.84,0,0,7.11,4.21,8.43.26a254.41,254.41,0,0,0,32.49,4.25l.28,0L71.2,15.61c-.62.17-1.25.35-1.94.52-7.37,1.79-17.54,3.78-26.37,6.78L256.3,122.27A7.8,7.8,0,0,0,257.46,121.55Z"/><path class="cls-9" d="M479.89,88.91a30.63,30.63,0,0,0,9.79-2.6L318.07,7.62C312.59,6.8,306.59,6,300,5.3,287.67,4,275.22,3.17,263.07,2.71l194.7,90.65C460.05,89.9,468.89,90,479.89,88.91Z"/><path class="cls-10" d="M274.83,123.39s7.11,4.21,8.43.26c0,0,5.89,1.24,14.66,2.44L61.85,17.85c-6.05,1.38-12.82,3-19,5.06L256.3,122.27a7.8,7.8,0,0,0,1.16-.72C263.25,116.81,268.52,127.08,274.83,123.39Z"/><path class="cls-11" d="M479.89,88.91c.31,0,.59-.11.89-.15L298.43,5.15c-11.79-1.23-23.71-2-35.36-2.44l194.7,90.65C460.05,89.9,468.89,90,479.89,88.91Z"/><path class="cls-12" d="M387.18,113.63a84.26,84.26,0,0,1,14.08-3.91c10.57-3.52,17.63-4.65,21.24-1.33,2.64,2.42,3.76,2.37,4.79,1.78L194.34,3.36C173.12,4.46,159.28,6,159.28,6,158.06,2.59,151.76.47,146,.07l-1,.8Z"/><path class="cls-13" d="M387.18,113.63a82.26,82.26,0,0,1,14.3-3.94c2.26-.74,4.42-1.4,6.36-1.91L181.73,4.11C167.81,5,159.28,6,159.28,6,158.06,2.59,151.76.47,146,.07l-1,.8Z"/><path class="cls-14" d="M261,2.63c17.47,7.23,18.36,13,31.19,15.22s6.64,7.16,19.94,10.52,7.9,6.91,14.61,8.49,11.06,3.79,20.74,6.71,20.75,12.13,28.95,13.92S394.21,70.76,405.66,72s8.78,6.34,16,7.13,4.13,3.81,10.07,4.35,6.39.75,16.22,5.33L263.07,2.71Z"/><path class="cls-15" d="M86,48c18.75,5.21,37.11,21.35,50.54,23.94s13,4,18.16,5.75,3,6.69,11.65,7.39,6.51,3.86,14,5.25,7.5,6.91,16,8.29,19.15,9.83,38.3,15c3.44.93,6.34,1.83,8.81,2.68L47.2,24.92C64,32.74,67.28,42.83,86,48Z"/><path class="cls-16" d="M156.32,10.2c6.12.6,9.28,8.3,17,9.28S194,22.84,203.9,30.74s2.17,4.09,18.55,10.43,24.24,12,34.35,14.24,3,5.14,9.87,6.12,6.12,3.16,12.05,4.54,15,10,29.61,13.82,16.39,11,30.8,13.52,6.31,6.23,15.79,9,16.65,8.93,21.46,8.69a20.63,20.63,0,0,1,8.8,1.61L149.1,2.8C152.05,5.64,152.3,9.82,156.32,10.2Z"/><g class="cls-17"><path class="cls-18" d="M333,154.72c2.58-8.63,35.53,16.18,24.87,20.53S330.64,162.61,333,154.72Z"/><path class="cls-18" d="M343.8,151c-.26-3.69,14.74,2.9,13.95,5.26S344.06,154.72,343.8,151Z"/><path class="cls-18" d="M391.44,132.87c4.76-.35,3.16-3.62,0-5S384.34,133.39,391.44,132.87Z"/><path class="cls-18" d="M311.29,107.89c4.76-.2,3.16-2.1,0-2.89S304.18,108.2,311.29,107.89Z"/><path class="cls-18" d="M320,49.66c4.76-.21,3.16-2.11,0-2.89S312.9,50,320,49.66Z"/><path class="cls-18" d="M267.63,22c4.76-.21,3.16-2.11,0-2.89S260.53,22.32,267.63,22Z"/><path class="cls-18" d="M115.42,82.42c4.76-.21,3.16-2.11,0-2.89S108.32,82.72,115.42,82.42Z"/><path class="cls-18" d="M78.31,65.44c4.75-.2,3.16-2.1,0-2.89S71.2,65.75,78.31,65.44Z"/><path class="cls-18" d="M87.22,61.41c4.75-.21,3.16-2.11,0-2.89S80.11,61.71,87.22,61.41Z"/><path class="cls-18" d="M189.66,47.19c4.76-.2,3.16-2.1,0-2.89S182.56,47.5,189.66,47.19Z"/><path class="cls-18" d="M198,52.66c4.75-.2,3.15-2.1,0-2.88S190.85,53,198,52.66Z"/><path class="cls-18" d="M490.17,101.67c4.76-.35,3.16-3.62,0-5S483.07,102.2,490.17,101.67Z"/><path class="cls-18" d="M408.33,159.57c4.76-.35,3.16-3.62,0-5S401.22,160.1,408.33,159.57Z"/><path class="cls-18" d="M149.1,132.9c5.18-1.09,9.13,9.44,3.6,10S143.92,134,149.1,132.9Z"/><path class="cls-18" d="M254.29,85.48c-2.49-4.14,26-4,27,.19S256.78,89.61,254.29,85.48Z"/><path class="cls-18" d="M376.53,30.9c-2.49-4.13,26-4,27,.2S379,35,376.53,30.9Z"/><path class="cls-18" d="M89.79,125c-7.54-3.88.52-16,6-8.66S99,129.71,89.79,125Z"/><path class="cls-18" d="M98.79,136.2c-5.86.93-3.63-6.76,0-7.15S104.33,135.32,98.79,136.2Z"/><path class="cls-18" d="M480.85,108.87c-5.86.93-3.64-6.76,0-7.16S486.39,108,480.85,108.87Z"/><path class="cls-18" d="M37.14,91c3.23-3.68,13.16,11.85,7.11,11.59S35.3,93.12,37.14,91Z"/><path class="cls-18" d="M431.91,147.4c3.22-3.69,13.16,11.84,7.1,11.58S430.06,149.5,431.91,147.4Z"/><path class="cls-18" d="M44.51,120.32c1.35-1.26,13.43,10.61,9.74,12.5S41.29,123.35,44.51,120.32Z"/><path class="cls-18" d="M462.68,118.54c1.8.42-1.4,17-5,15S458.37,117.53,462.68,118.54Z"/><path class="cls-18" d="M294.45,103.28c0,1.85-16.9,2.66-15.79-1.33S294.41,98.85,294.45,103.28Z"/><path class="cls-18" d="M341.83,53.86c0,1.84-16.9,2.65-15.79-1.34S341.79,49.43,341.83,53.86Z"/><path class="cls-18" d="M164.94,33.52c0,1.85-16.9,2.66-15.79-1.33S164.9,29.1,164.94,33.52Z"/><path class="cls-18" d="M153.49,166c-2.37-3.94,5.79-3.74,7.11-1.6S155.86,170,153.49,166Z"/><path class="cls-18" d="M398.39,154.12c-2.37-4,5.79-3.74,7.11-1.6S400.76,158.07,398.39,154.12Z"/></g><path class="cls-19" d="M383.55,81.28c.67-4.07,17.17-2,15.39,0S383,84.83,383.55,81.28Z"/><path class="cls-19" d="M401.82,84.7c1.18-1,11.21-1.28,10.29.41S399.44,86.67,401.82,84.7Z"/><path class="cls-19" d="M248.5,70.22c1.17-1,11.2-1.28,10.28.41S246.11,72.19,248.5,70.22Z"/><path class="cls-19" d="M173.41,98.13c1.18-1,11.2-1.28,10.28.41S171,100.1,173.41,98.13Z"/><path class="cls-19" d="M459.76,54.43c15.64.89,14.2-4.21-.54-3.56S448.18,53.77,459.76,54.43Z"/><path class="cls-19" d="M244.76,77.83c15.65.89,14.21-4.21-.53-3.56S233.19,77.17,244.76,77.83Z"/><path class="cls-19" d="M467.78,57.75c3.45,0,3.16,2.6,0,1.94S465,57.78,467.78,57.75Z"/><path class="cls-19" d="M403.56,75.35c4.22-.11,1.86,1.45,0,1.45S398.7,75.48,403.56,75.35Z"/><path class="cls-19" d="M342,108.22c4.22-.11,1.85,1.45,0,1.45S337.11,108.35,342,108.22Z"/><path class="cls-19" d="M167.45,98.68c4.21-.11,1.85,1.45,0,1.45S162.59,98.81,167.45,98.68Z"/><path class="cls-19" d="M176.06,101.38c4.22-.11,1.86,1.45,0,1.45S171.21,101.52,176.06,101.38Z"/><g class="cls-20"><path class="cls-21" d="M119.75,116.69c-5,5.53-5.21,25.34.76,25.38S124.91,111,119.75,116.69Z"/><path class="cls-19" d="M121.28,135.42c1.28.07,1.61,4.89,0,5.33C117.48,141.78,119.5,135.32,121.28,135.42Z"/></g><g class="cls-20"><path class="cls-22" d="M390.52,146.64c-5,5.54-5.21,25.34.76,25.38S395.68,141,390.52,146.64Z"/><path class="cls-19" d="M392.05,165.37c1.28.07,1.62,4.89,0,5.33C388.25,171.74,390.27,165.27,392.05,165.37Z"/></g><g class="cls-20"><path class="cls-23" d="M444.67,103.65c-5,5.54-5.21,25.34.76,25.38S449.83,98,444.67,103.65Z"/><path class="cls-19" d="M446.2,122.38c1.28.07,1.62,4.89,0,5.33C442.4,128.75,444.42,122.28,446.2,122.38Z"/></g><g class="cls-20"><path class="cls-24" d="M127.79,138.5c-2.61,2.88-2.71,13.17.39,13.19S130.47,135.54,127.79,138.5Z"/><path class="cls-19" d="M128.58,148.23c.67,0,.84,2.54,0,2.77C126.6,151.54,127.66,148.18,128.58,148.23Z"/></g><g class="cls-20"><path class="cls-25" d="M248,136.48c-2.6,2.87-2.7,13.17.4,13.19S250.63,133.52,248,136.48Z"/><path class="cls-19" d="M248.75,146.21c.66,0,.84,2.54,0,2.77C246.77,149.52,247.82,146.16,248.75,146.21Z"/></g><g class="cls-20"><path class="cls-26" d="M435.92,123.89c-2.61,2.88-2.71,13.17.4,13.2S438.6,120.94,435.92,123.89Z"/><path class="cls-19" d="M436.71,133.63c.67,0,.85,2.54,0,2.77C434.74,136.94,435.79,133.58,436.71,133.63Z"/></g><g class="cls-27"><path class="cls-28" d="M432.89,106.34c3.63-2.08,2-9,0-9S428.29,109,432.89,106.34Z"/><path class="cls-28" d="M426.41,104.89c.27-1.63,3.88.66,3.49,1.84S426.06,107,426.41,104.89Z"/><path class="cls-28" d="M494.69,75c-.33-3.47-9.27,1.52-8.53,4.74S495,78.33,494.69,75Z"/><path class="cls-28" d="M482.25,80.8c-.21-1.91,3.64-1.84,3-.37S482.43,82.45,482.25,80.8Z"/><path class="cls-28" d="M480.18,47.32c.92-1.28,5.6,2,4,3.41S479,49,480.18,47.32Z"/><path class="cls-28" d="M313.56,120.74c2.86-.13-.37-4.19-2.75-3S309,121,313.56,120.74Z"/><path class="cls-28" d="M316.79,120.75c.34-1.84,8.58-1.34,8.58,0S316.16,124.12,316.79,120.75Z"/><path class="cls-28" d="M234.76,122.77c2-.34,1.09-4.16-2.36-3.43S224.83,124.47,234.76,122.77Z"/><path class="cls-29" d="M495.68,70.71c2.36-.59-1.09-4.44-1.78-3.85S494.1,71.11,495.68,70.71Z"/></g></g></g></g></svg>