<svg xmlns="http://www.w3.org/2000/svg" xmlns:xlink="http://www.w3.org/1999/xlink" viewBox="0 0 286.99 243.26"><defs><style>.cls-1{isolation:isolate;}.cls-2{fill:url(#radial-gradient);}.cls-13,.cls-3,.cls-36,.cls-40{opacity:0.3;}.cls-3{mix-blend-mode:screen;fill:url(#Gradient_125);}.cls-16,.cls-37,.cls-4,.cls-45{opacity:0.5;}.cls-12,.cls-14,.cls-15,.cls-16,.cls-18,.cls-25,.cls-33,.cls-4,.cls-45{mix-blend-mode:multiply;}.cls-5{fill:url(#Gradient_139);}.cls-6{fill:url(#Gradient_139-2);}.cls-7{fill:url(#Gradient_139-3);}.cls-8{fill:url(#Gradient_139-4);}.cls-9{fill:url(#Gradient_139-5);}.cls-10{fill:url(#Gradient_139-6);}.cls-11{fill:url(#Gradient_139-7);}.cls-12,.cls-16,.cls-33{fill:#ac1f90;}.cls-12,.cls-17,.cls-38{opacity:0.2;}.cls-13,.cls-17{fill:#ffc098;}.cls-13,.cls-17,.cls-34,.cls-35,.cls-36,.cls-37,.cls-38,.cls-40,.cls-42,.cls-43,.cls-44{mix-blend-mode:soft-light;}.cls-14{fill:url(#Gradient_105);}.cls-15{fill:url(#Gradient_105-2);}.cls-18{fill:url(#Gradient_105-3);}.cls-19{fill:url(#Gradient_81);}.cls-20{fill:url(#Gradient_81-2);}.cls-21{fill:url(#Gradient_81-3);}.cls-22{fill:url(#Gradient_81-4);}.cls-23{fill:url(#Gradient_81-5);}.cls-24{fill:url(#Gradient_81-6);}.cls-26{fill:url(#Gradient_105-4);}.cls-27{fill:url(#Gradient_105-5);}.cls-28{fill:url(#Gradient_105-6);}.cls-29{fill:url(#Gradient_105-7);}.cls-30{fill:url(#Gradient_105-8);}.cls-31{fill:url(#Gradient_105-9);}.cls-32{fill:url(#Gradient_105-10);}.cls-33,.cls-43{opacity:0.8;}.cls-34{fill:#d66590;}.cls-35,.cls-36,.cls-37,.cls-38{fill:#ffb690;}.cls-35{opacity:0.35;}.cls-39{fill:#d46645;}.cls-40,.cls-43{fill:#ffcfb1;}.cls-41{fill:#ff9d6f;}.cls-42{fill:#ffb3a4;}.cls-44{fill:#c086a4;}.cls-45{fill:#8b0090;}</style><radialGradient id="radial-gradient" cx="-62.93" cy="271.77" r="170.57" gradientTransform="matrix(0.91, 0.15, -0.16, 0.99, 262.76, -140.5)" gradientUnits="userSpaceOnUse"><stop offset="0" stop-color="#bd4920"/><stop offset="0.71" stop-color="#ba4820"/><stop offset="0.82" stop-color="#b94720"/><stop offset="0.85" stop-color="#b44420"/><stop offset="0.89" stop-color="#a43b20"/><stop offset="0.93" stop-color="#8a2d20"/><stop offset="0.98" stop-color="#671920"/><stop offset="1" stop-color="#561020"/></radialGradient><radialGradient id="Gradient_125" cx="-82.61" cy="346.94" r="106.23" gradientTransform="matrix(0.91, 0.15, -0.16, 0.99, 262.76, -140.5)" gradientUnits="userSpaceOnUse"><stop offset="0" stop-color="#ff4f40"/><stop offset="0.14" stop-color="#fa4d40"/><stop offset="0.3" stop-color="#ec453f"/><stop offset="0.48" stop-color="#d4393f"/><stop offset="0.66" stop-color="#b3283e"/><stop offset="0.85" stop-color="#89133c"/><stop offset="1" stop-color="#63003b"/></radialGradient><linearGradient id="Gradient_139" x1="-21.71" y1="357.83" x2="16.69" y2="355.82" gradientTransform="matrix(0.99, 0.16, -0.16, 0.99, 190.58, -151.97)" gradientUnits="userSpaceOnUse"><stop offset="0" stop-color="#8b0059"/><stop offset="0.21" stop-color="#a9397f"/><stop offset="0.49" stop-color="#ce7eac"/><stop offset="0.73" stop-color="#e8b0ce"/><stop offset="0.9" stop-color="#f9cfe2"/><stop offset="1" stop-color="#ffdbea"/></linearGradient><linearGradient id="Gradient_139-2" x1="10.25" y1="356.3" x2="52.84" y2="354.07" xlink:href="#Gradient_139"/><linearGradient id="Gradient_139-3" x1="33.29" y1="354.52" x2="84.26" y2="351.85" xlink:href="#Gradient_139"/><linearGradient id="Gradient_139-4" x1="53.1" y1="351.57" x2="111.17" y2="348.53" xlink:href="#Gradient_139"/><linearGradient id="Gradient_139-5" x1="-121.62" y1="352.29" x2="-73.25" y2="349.75" xlink:href="#Gradient_139"/><linearGradient id="Gradient_139-6" x1="-91.33" y1="354.89" x2="-54.42" y2="352.95" xlink:href="#Gradient_139"/><linearGradient id="Gradient_139-7" x1="-58.93" y1="357.15" x2="-21.29" y2="355.18" xlink:href="#Gradient_139"/><linearGradient id="Gradient_105" x1="-123.79" y1="216.12" x2="63.27" y2="216.12" gradientTransform="matrix(0.99, 0.16, -0.16, 0.99, 190.58, -151.97)" gradientUnits="userSpaceOnUse"><stop offset="0" stop-color="#ffdbea"/><stop offset="0.1" stop-color="#f9cfe2"/><stop offset="0.27" stop-color="#e8b0ce"/><stop offset="0.51" stop-color="#ce7eac"/><stop offset="0.79" stop-color="#a9397f"/><stop offset="1" stop-color="#8b0059"/></linearGradient><linearGradient id="Gradient_105-2" x1="65.04" y1="300.01" x2="65.04" y2="260.55" xlink:href="#Gradient_105"/><linearGradient id="Gradient_105-3" x1="-7.86" y1="339.09" x2="-7.86" y2="277.46" xlink:href="#Gradient_105"/><linearGradient id="Gradient_81" x1="-57.85" y1="264.39" x2="-57.85" y2="202.98" gradientTransform="matrix(0.99, 0.16, -0.16, 0.99, 190.58, -151.97)" gradientUnits="userSpaceOnUse"><stop offset="0" stop-color="#4f0c1f"/><stop offset="0.31" stop-color="#561020"/><stop offset="0.75" stop-color="#691a22"/><stop offset="1" stop-color="#772224"/></linearGradient><linearGradient id="Gradient_81-2" x1="-33.6" y1="207.28" x2="-33.6" y2="197.16" xlink:href="#Gradient_81"/><linearGradient id="Gradient_81-3" x1="41.61" y1="172.54" x2="41.61" y2="154.66" xlink:href="#Gradient_81"/><linearGradient id="Gradient_81-4" x1="85.25" y1="247.3" x2="85.25" y2="228.75" xlink:href="#Gradient_81"/><linearGradient id="Gradient_81-5" x1="64.7" y1="236.36" x2="64.7" y2="186.47" xlink:href="#Gradient_81"/><linearGradient id="Gradient_81-6" x1="-110.76" y1="217.77" x2="-110.76" y2="184" xlink:href="#Gradient_81"/><linearGradient id="Gradient_105-4" x1="-5.35" y1="264.33" x2="-5.35" y2="247.06" xlink:href="#Gradient_105"/><linearGradient id="Gradient_105-5" x1="9.59" y1="250.12" x2="9.59" y2="245.91" xlink:href="#Gradient_105"/><linearGradient id="Gradient_105-6" x1="0.7" y1="186.47" x2="0.7" y2="179.68" xlink:href="#Gradient_105"/><linearGradient id="Gradient_105-7" x1="-57.54" y1="291" x2="-57.54" y2="269.56" xlink:href="#Gradient_105"/><linearGradient id="Gradient_105-8" x1="80.07" y1="267.6" x2="80.07" y2="255.6" xlink:href="#Gradient_105"/><linearGradient id="Gradient_105-9" x1="33.39" y1="364.14" x2="33.39" y2="336.15" xlink:href="#Gradient_105"/><linearGradient id="Gradient_105-10" x1="-44.5" y1="298.72" x2="-44.5" y2="286.92" xlink:href="#Gradient_105"/></defs><title>minicake_2</title><g class="cls-1"><g id="Layer_2" data-name="Layer 2"><g id="objects"><path class="cls-2" d="M269.27,160.44v0c-5.83,7.72-11.41,13.32-13.87,14.66-5.29,2.9-37.81,62-50.26,65.78a38.47,38.47,0,0,1-5.2,1.14h0a122.18,122.18,0,0,1-17.21,1.2c-2.05,0-4.13,0-6.28,0-4.49,0-9.14-.19-13.73-.4-1.86-.09-3.73-.17-5.57-.28-5.17-.3-10.15-.64-14.67-1h-.06c-3.28-.26-6.31-.54-9-.78h0c-2.31-.21-4.34-.4-6-.57h0l-5.71-.6s-7.72-1.62-18.44-4.23h0c-5.4-1.32-11.54-2.87-17.88-4.61-3-.82-6.06-1.69-9.07-2.6-4.37-1.27-8.66-2.63-12.72-4-1.82-.61-3.6-1.24-5.32-1.89a93.24,93.24,0,0,1-13.81-6.2c-.88-.5-1.67-1-2.38-1.51C31.31,207.09,19,140.74,15,136.32c-1.27-1.32-3.2-4.81-5.26-9.62C4.86,115.48-.7,96.75.54,81.28c1.87-23,57.09-95.36,159.35-78.86s131.94,102.52,126.48,125C283.52,139.07,276.19,151.3,269.27,160.44Z"/><path class="cls-3" d="M269.27,160.46c-5.83,7.72-11.41,13.32-13.87,14.66-5.29,2.9-37.81,62-50.26,65.78-19.73,6-83.51-1.26-83.51-1.26S58.8,226.43,42,214.57C31.31,207.09,19,140.74,15,136.32c-1.27-1.32-3.2-4.81-5.26-9.62,0,0,40.36,21,135.07,34.2C239.89,174.14,269.27,160.46,269.27,160.46Z"/><g class="cls-4"><path class="cls-5" d="M134.12,240.45c-1,2-22.8-4-22.8-4l4.84-75.77s33.36-4.49,38.14,5.06C154.3,165.72,138.66,231.55,134.12,240.45Z"/><path class="cls-6" d="M190.09,171.33s-20.25,54.11-33,71.25c-5.17-.3-10.15-.64-14.67-1h-.06c-1.63-.4-2.72-.7-2.72-.7l15.94-75.35S187.06,160.44,190.09,171.33Z"/><path class="cls-7" d="M221.82,170.84s-21,47.43-45.39,72.42c-4.49,0-9.14-.19-13.73-.4l32.09-74.23S222.16,166.87,221.82,170.84Z"/><path class="cls-8" d="M248.81,172.7c-4.8,19.34-30.52,51-48.87,69.34h0a122.18,122.18,0,0,1-17.21,1.2l44.76-70.52C233.61,167.27,249.74,169,248.81,172.7Z"/><path class="cls-9" d="M58.16,222.28a93.24,93.24,0,0,1-13.81-6.2L18.76,136s21.53.58,25.49,7.45C44.25,143.46,58.38,198.92,58.16,222.28Z"/><path class="cls-10" d="M76.2,228.19c-4.37-1.27-8.66-2.63-12.72-4L48,145.64s15.42-5.15,23.18,5.78C71.2,151.42,79.61,207.46,76.2,228.19Z"/><path class="cls-11" d="M107,235.16c-.21.48-1.71.5-3.84.25h0c-5.4-1.32-11.54-2.87-17.88-4.61l-5.69-77.25s22.59-6.31,30.94,6.6C110.52,160.14,114.45,217.53,107,235.16Z"/></g><path class="cls-12" d="M83.59,154c-3.89,1.15.37,54.15,4.11,63s18.91-30,18.85-50.16S83.59,154,83.59,154Z"/><path class="cls-12" d="M118.23,160.42c-2.63.3-4.46,70.89-4,73.91s26-37,27.25-57.38S119.42,160.29,118.23,160.42Z"/><path class="cls-12" d="M50.44,146.61c-2.24.52,10.82,75.26,14.51,76.76s10.83-28.64,6.44-51.48S52.58,146.11,50.44,146.61Z"/><path class="cls-12" d="M21.07,136.13s23,76.74,25.07,78.18,6.19-37-.36-54.82S23.38,136.24,21.07,136.13Z"/><path class="cls-12" d="M159.72,165.53c-3.88,2.63-14.76,65.85-12.34,70s34.53-33.14,35.25-51.76S163,163.32,159.72,165.53Z"/><path class="cls-12" d="M198.29,169.5c-4.23.94-20.53,43.7-21.89,53.76s21.24-8.33,33-30.89S206.49,167.66,198.29,169.5Z"/><path class="cls-12" d="M227.47,172.71c-2.82,1.6-31.24,52-33.15,57.84s27.71-8.43,43-34.09S241.35,164.81,227.47,172.71Z"/><path class="cls-13" d="M113.79,33.12c-45.3,17.29-12.21,95.6,59.44,111.37s87.77-12.55,92.84-29.14S233.59-12.61,113.79,33.12Z"/><path class="cls-14" d="M26.11,90.45C30.62,53.62,73.05,42,81.41,32.9s-3.65-9.82,9.42-13.08,44.65-3.94,59.75-7,31.72,5.12,50.69,12.35,22.79,12.62,22.79,12.62S184.9,20.23,155.25,18s-31,3.94-36,10.88S91.8,35.18,71.34,42.31,44.4,65.68,43.27,72.65,30.32,80.1,26.11,90.45Z"/><path class="cls-15" d="M135.33,134.05c19.88,5.54,53.73,10.59,64.88.75s6-6,18.45-1.2,27.77,12.46,44.5,11.35,23.21-17.55,23.21-17.55-4.38,17.45-16.08,26.74-38.6,7.65-48.12-1.28S205.78,141.05,199,142.41s-4.41,7.11-13.57,3.62-4.06,3.37-22.19-.9S135.33,134.05,135.33,134.05Z"/><path class="cls-16" d="M98.73,36.15C88.16,37.89,83.49,23,86.66,21.08s37.14-4.38,51.61-6.52a83.3,83.3,0,0,1,44,4.67c15.69,6,19,8.76,19,8.76S183.89,24.07,166.54,20s-36.68-2.79-42.49.52,0,8.41-8.22,11S98.73,36.15,98.73,36.15Z"/><path class="cls-16" d="M168.36,146.15c-5.14-1,11.8-3.58,24.27-7.52s11.08-8.37,15.37-8.25,23.49,12,41.84,15.24,18.89-1,19.54,2.71-16.63,13.83-32.2,8.93-22.82-14.14-29.84-15.92-14.2,1.74-15.36,3.74-5.35-1-10.67-.53S177.45,148.18,168.36,146.15Z"/><path class="cls-17" d="M20.78,123.52C-3,110.47,32.67,79.75,55.65,72.65s62.2,59.18,63.93,66.81S61.75,146,20.78,123.52Z"/><path class="cls-17" d="M0,84.29c1.19,12.45,32.91-22.65,56.72-42s17.37-21.74,25.47-25.8S145.83.68,145.83.68,25.69-7.54,0,84.29Z"/><path class="cls-18" d="M1.46,98.55s48.07,42.38,146,55.51S274,153.71,274,153.71s-14.37,19.59-17.85,21.06-24.71-1-37.1,11.34c0,0-14.53-13.71-30.35-3.45,0,0-22.37-10.95-37.57,2.48,0,0-13.66-29.26-35.61-10.85,0,0-18.66-20.7-34.68-3.24,0,0-14.32-29.33-31.25-17.26,0,0-18.88-18.57-32.93-13.59L15,136.32S5.24,122.28,1.46,98.55Z"/><path class="cls-19" d="M73.15,58.7c-8.53,6.41-5.81,20.07,4.18,33.94s28,2.78,40,0-.83-45.11-8.82-51.61S75.07,57.26,73.15,58.7Z"/><path class="cls-20" d="M121.18,41.71c-5.76,4.6.95,7.3,7,2.92S131.42,33.52,121.18,41.71Z"/><path class="cls-21" d="M182.21,7.41A56,56,0,0,1,204.65,7c12.56,2.26,23.69,21.93,23.69,21.93S196.05,10.82,182.21,7.41Z"/><path class="cls-22" d="M226,90.05c-8.93,8.21-1.56,12.83,8.36,15.44A13.87,13.87,0,0,0,252,95C253.23,87.19,230.85,85.59,226,90.05Z"/><path class="cls-23" d="M198.82,88.69c-11.12-4.58-.42-34,12.34-43.69S241,50.48,245.93,61.36,205.53,91.45,198.82,88.69Z"/><path class="cls-24" d="M31.66,34.33C23.34,48,47.87,45,57,36S69.54,17.28,68.8,15,41.27,18.59,31.66,34.33Z"/><g class="cls-25"><path class="cls-26" d="M135.44,92.89c-11.76,5.7,5.3,19.52,17.44,14.68S151.6,85.06,135.44,92.89Z"/><path class="cls-27" d="M159,93.18c-2.31,1.06.75,5.42,3.24,1.95S160.83,92.35,159,93.18Z"/><path class="cls-28" d="M155,25.55c-9.23,1.46,10.06,10.67,15.74,5.65S159.67,24.82,155,25.55Z"/><path class="cls-29" d="M75.31,106.09c-17.18,10.35,5.52,27,27.32,16.4S85.84,99.74,75.31,106.09Z"/><path class="cls-30" d="M228.44,113.13c-10.79.69-7.92,11.58.67,12.12S234.29,112.76,228.44,113.13Z"/><path class="cls-31" d="M179.41,195.65c5.82-13.47-18.8-14.28-23.23,4.64S171.7,213.48,179.41,195.65Z"/><path class="cls-32" d="M94.91,129.54c.66,10,9.28,6.85,10.54-1S94.68,126.12,94.91,129.54Z"/></g><path class="cls-16" d="M71.38,60.33c-3,6-.67,23.73,11.36,29.57s31.93,1,36.13-5.27-.5-23.93-.5-23.93,7.35,14.44,5.51,25.84S106.46,104.38,86,101.67,65.21,74.34,65.85,69.3,71.38,60.33,71.38,60.33Z"/><path class="cls-33" d="M30,38.76c.74,2.68,12,2.56,22.72-3S68.53,18.05,68.53,18.05s-2,14.69-14.43,23.41-23,9.86-24.35,5.61A13.62,13.62,0,0,1,30,38.76Z"/><path class="cls-33" d="M120.45,42.35c-1.45,2.53.21,3.67,3.67,3.18a12.44,12.44,0,0,0,5.8-2.46,12.88,12.88,0,0,1-8.12,4.47C116.83,48,117.66,43.93,120.45,42.35Z"/><path class="cls-33" d="M196.21,68.23c-4.27,17.84,19.24,16.76,36.94,5.51s8.69-18.92,8.69-18.92,6.63,4.6,6.41,10.78-21.51,29.28-44,30S196.21,68.23,196.21,68.23Z"/><path class="cls-33" d="M223.36,93c-2,4.75,6.79,11.21,17.55,10.37A13.09,13.09,0,0,0,251.81,96s-2.12,13.81-16.8,11.89S216.79,100.48,223.36,93Z"/><path class="cls-34" d="M35.62,31.19c-3.68,5.12,7.32,8.52,16.72,2.7S64,18.81,63.33,17.65,46.42,17.41,35.62,31.19Z"/><path class="cls-35" d="M70.26,68.55c1.71-5,16.65-2,23.34-3.12s13.12-8.81,15-10.66-3.41,5.49-3.64,6.89,6.68-3.52,8-5.9-3-13.07-5.91-14.46S73.63,54.44,70.26,68.55Z"/><path class="cls-36" d="M211.16,45c-6.89,4.46-20.7,27.33-12.24,29.82C216.55,80,241.07,57.27,241.47,55.6,242,53.5,224.7,36.22,211.16,45Z"/><path class="cls-37" d="M227.64,89c-1.85.48,10.11,7.65,16.2,9s8.36-3.91,8.06-4.67S246.35,84.22,227.64,89Z"/><path class="cls-37" d="M192.8,6.09c-3.53.2,28.58,15.77,28.58,15.77s-5.32-9-11.12-12.78S192.8,6.09,192.8,6.09Z"/><path class="cls-38" d="M102.56,92c-.37-5.12,10.3-15.2,14.67-15.87S124,88.44,102.56,92Z"/><path class="cls-39" d="M174.23,146.78c10.4-4.23,13.84,2,17.71,1.76s2.86-8.33,15.15-5.68,11.13,10.78,18.85,12.88a126.76,126.76,0,0,0,15.47,3.06s-9.84-3.1-14.73-6-11.67-9.49-20.11-11.64-13.43,1.85-15.06,3.6-6.53.11-10.2-.22-3.66.85-4.8,1.5A6.13,6.13,0,0,1,174.23,146.78Z"/><path class="cls-39" d="M61.74,46.85a167.22,167.22,0,0,1,27.67-8.43c8-1.54,14.52,0,21.85-1,20-2.82,7.34-9.36,15.14-15s31.29-3.3,46.1-.83,21,4.63,21,4.63-16.21-6-40.5-8.71-30.53,4-31.94,5.66-3.65,7.38-7.89,9.79-15.09,1.24-25.78,4S61.74,46.85,61.74,46.85Z"/><path class="cls-40" d="M157.29,129.2c-11.65-5.91,6.39-25.39,22.88-30.15s28.76-1.33,31.68,3.62,1,24.72-17.45,32.52S157.29,129.2,157.29,129.2Z"/><path class="cls-40" d="M125.7,69.26c-4.16,11.33,30.13,19.09,45.87,15.11s32.83-36.31,33.87-41.06S145.08,16.43,125.7,69.26Z"/><path class="cls-39" d="M223.34,127.64c-8.38.9-1.83,9.6,13.37,9.6S233.87,126.5,223.34,127.64Z"/><path class="cls-13" d="M58.47,67.11C45.28,71.25,53.79,51.28,67,45.93s19.9-7.07,21.54-6.13S67.15,64.38,58.47,67.11Z"/><path class="cls-40" d="M251.87,52.14c-3.32-2.65,5.78,21.84,12.28,39.26s13.07,23.84,16,24.42S286,79.32,251.87,52.14Z"/><path class="cls-39" d="M69.84,117.11c1.71,4.21,17.17,9.16,23,8.09a40.42,40.42,0,0,0,9.46-2.85S91.67,129.11,81.53,127,69.84,117.11,69.84,117.11Z"/><path class="cls-39" d="M95.06,130.92c.29,1.3,2.78,3.41,4.84,3.62s4.62-3,4.62-3-1.93,4.83-5.57,4.91S95.06,130.92,95.06,130.92Z"/><path class="cls-41" d="M94.34,46.81c-4.7,3.94,5.19,2.59,7.69-.4S96.75,44.79,94.34,46.81Z"/><path class="cls-42" d="M200.83,64.06c-5.52,7.41,1.59,11.32,5.38,4.34S203.61,60.33,200.83,64.06Z"/><path class="cls-41" d="M57.18,18c-4.16,2.16,4.19,2.66,5.17.81S59.72,16.7,57.18,18Z"/><path class="cls-36" d="M225.4,93.58c-3-1.13-1.65,5.79,3.51,7.56s7,1.13,7,1.13S229.05,95,225.4,93.58Z"/><path class="cls-35" d="M70.51,70.9S74.83,86,81.63,89.32s10.9,3.08,10.9,3.08S75.48,86.2,70.51,70.9Z"/><path class="cls-35" d="M213.57,81.49C219,80.23,224.32,70,230.84,68.22s10-.77,10-.77S227.33,80.57,213.57,81.49Z"/><path class="cls-40" d="M185.21,57c-10.56,14.68,10.46,12.76,13.71-.54S187.29,54.13,185.21,57Z"/><path class="cls-43" d="M30,98.55C26.5,87.85,34.32,79.11,41,75.22s2.71,21.66-2.55,25.3S30,98.55,30,98.55Z"/><path class="cls-43" d="M48,93c-3.77,13.3,8.16,5.75,10.15.45S49.27,88.58,48,93Z"/><path class="cls-43" d="M90.52,7.76c-8.17,6.25,10.94,5.56,16,0S95.58,3.89,90.52,7.76Z"/><path class="cls-33" d="M202.54,133.7c-6.72,3.79,2.08,5.72,8.31,9.08s11.13,4.27,15.15.95,13.69-.67,13.69-.67-15.59-4.52-22.92-9.36-7.89-4.87-9.83-3.54A51.23,51.23,0,0,0,202.54,133.7Z"/><path class="cls-16" d="M85.68,106.05c-12.16.32-2.29,13,4.47,15.58s14,1.07,15.84-6.52S90.37,105.92,85.68,106.05Z"/><path class="cls-16" d="M36.83,65.43s12.6-14.16,28.42-20.76c10.33-4.31,16.28-5.83,18.69-7.73S83.61,27.32,85.7,24s9.55,5.15,21.83,3.12,11-3.33,19-7.69a43,43,0,0,1,14.36-5s-33,2.34-44.22,4.18-12.48,4.31-12.68,6.32.33,4.93-2.53,8C76.82,37.85,49.43,47.58,36.83,65.43Z"/><path class="cls-44" d="M70.51,73.33c2,2.21,26.27-6,37-11.82s3.48-18.36-.46-20.21S66.73,54.33,70.51,73.33Z"/><path class="cls-42" d="M204.56,54.45s5.81-2,12.32-4.52,8-7,8-7-3.74-2.82-10.87.33S204.56,54.45,204.56,54.45Z"/><path class="cls-45" d="M65,223.37s42.39,14.11,86.61,16.12,74.94-22.26,74.94-22.26S215,234.79,207.38,239.78,121.26,247.82,65,223.37Z"/></g></g></g></svg>