<svg xmlns="http://www.w3.org/2000/svg" xmlns:xlink="http://www.w3.org/1999/xlink" viewBox="0 0 280.88 251.41"><defs><style>.cls-1{isolation:isolate;}.cls-2{fill:url(#radial-gradient);}.cls-10,.cls-3,.cls-42{fill:#bf2a92;}.cls-3{opacity:0.28;}.cls-10,.cls-14,.cls-3,.cls-42,.cls-44,.cls-53,.cls-6,.cls-7,.cls-8,.cls-9{mix-blend-mode:multiply;}.cls-4{fill:url(#linear-gradient);}.cls-5{fill:url(#radial-gradient-2);}.cls-6,.cls-7{opacity:0.3;}.cls-6{fill:url(#Gradient_52);}.cls-7{fill:url(#Gradient_139);}.cls-8{fill:#cd1f90;}.cls-8,.cls-9{opacity:0.2;}.cls-9{fill:#ee83ae;}.cls-10,.cls-11,.cls-38,.cls-41,.cls-53{opacity:0.5;}.cls-11{fill:#ffcea1;}.cls-11,.cls-38,.cls-41,.cls-46{mix-blend-mode:soft-light;}.cls-12{fill:url(#radial-gradient-3);}.cls-13{fill:url(#Gradient_32);}.cls-15{fill:url(#Gradient_53);}.cls-16{fill:url(#Gradient_53-2);}.cls-17{fill:url(#Gradient_53-3);}.cls-18{fill:url(#Gradient_53-4);}.cls-19{fill:url(#Gradient_53-5);}.cls-20{fill:url(#Gradient_53-6);}.cls-21{fill:url(#Gradient_53-7);}.cls-22{fill:url(#Gradient_53-8);}.cls-23{fill:url(#Gradient_53-9);}.cls-24{fill:url(#Gradient_53-10);}.cls-25{fill:url(#Gradient_53-11);}.cls-26{fill:url(#Gradient_53-12);}.cls-27{fill:url(#Gradient_53-13);}.cls-28{fill:url(#Gradient_53-14);}.cls-29{fill:url(#Gradient_53-15);}.cls-30{fill:url(#Gradient_53-16);}.cls-31{fill:url(#Gradient_53-17);}.cls-32{fill:url(#Gradient_53-18);}.cls-33{fill:url(#Gradient_53-19);}.cls-34{fill:url(#Gradient_53-20);}.cls-35{fill:url(#Gradient_53-21);}.cls-36{fill:url(#Gradient_53-22);}.cls-37{fill:url(#Gradient_53-23);}.cls-38{fill:#ffcfb1;}.cls-39,.cls-41{fill:#ffc260;}.cls-40{fill:#ffdb60;}.cls-42{opacity:0.8;}.cls-43{fill:#fff;}.cls-44{fill:url(#Gradient_39);}.cls-45,.cls-46{fill:#ffe072;}.cls-47{fill:#fff790;}.cls-48{fill:#ffdc5c;}.cls-49{fill:#ffb743;}.cls-50{fill:#ffc55c;}.cls-51{fill:#ffbb5c;}.cls-52{fill:url(#Gradient_72);}.cls-53{fill:#cf4510;}.cls-54{fill:#ffe250;}.cls-55{fill:url(#Gradient_72-2);}</style><radialGradient id="radial-gradient" cx="-27.45" cy="5912.44" r="179.93" gradientTransform="matrix(0.98, 0.19, -0.1, 0.55, 823.93, -3054.33)" gradientUnits="userSpaceOnUse"><stop offset="0.31" stop-color="#fa0"/><stop offset="0.58" stop-color="#fea800"/><stop offset="0.68" stop-color="#fda100"/><stop offset="0.75" stop-color="#f99600"/><stop offset="0.8" stop-color="#f48500"/><stop offset="0.85" stop-color="#ee6f00"/><stop offset="0.85" stop-color="#ee6e00"/><stop offset="1" stop-color="#ffc260"/></radialGradient><linearGradient id="linear-gradient" x1="-209.46" y1="199.44" x2="49.94" y2="199.44" gradientTransform="translate(256.96 -57.99) rotate(10.72)" gradientUnits="userSpaceOnUse"><stop offset="0" stop-color="#ffa477"/><stop offset="1" stop-color="#ffd1a9"/></linearGradient><radialGradient id="radial-gradient-2" cx="-27.45" cy="5727.06" r="177.6" xlink:href="#radial-gradient"/><linearGradient id="Gradient_52" x1="-80.12" y1="176.09" x2="-80.12" y2="109.93" gradientTransform="translate(256.96 -57.99) rotate(10.72)" gradientUnits="userSpaceOnUse"><stop offset="0" stop-color="#d61a59"/><stop offset="0.13" stop-color="#dd3971"/><stop offset="0.44" stop-color="#eb7ea4"/><stop offset="0.7" stop-color="#f6b0ca"/><stop offset="0.89" stop-color="#fdcfe1"/><stop offset="1" stop-color="#ffdbea"/></linearGradient><linearGradient id="Gradient_139" x1="-209" y1="285.07" x2="49.01" y2="285.07" gradientTransform="translate(256.96 -57.99) rotate(10.72)" gradientUnits="userSpaceOnUse"><stop offset="0" stop-color="#8b0059"/><stop offset="0.21" stop-color="#a9397f"/><stop offset="0.49" stop-color="#ce7eac"/><stop offset="0.73" stop-color="#e8b0ce"/><stop offset="0.9" stop-color="#f9cfe2"/><stop offset="1" stop-color="#ffdbea"/></linearGradient><radialGradient id="radial-gradient-3" cx="-80.52" cy="164.01" r="95.36" gradientTransform="translate(256.96 -57.99) rotate(10.72)" xlink:href="#radial-gradient"/><linearGradient id="Gradient_32" x1="-206.4" y1="240.23" x2="49.96" y2="240.23" gradientTransform="translate(256.96 -57.99) rotate(10.72)" gradientUnits="userSpaceOnUse"><stop offset="0" stop-color="#ff776a"/><stop offset="0.23" stop-color="#ee8f17"/><stop offset="1" stop-color="#ffc01d"/></linearGradient><linearGradient id="Gradient_53" x1="-180.84" y1="204.81" x2="-180.84" y2="174.45" gradientTransform="translate(256.96 -57.99) rotate(10.72)" gradientUnits="userSpaceOnUse"><stop offset="0" stop-color="#ffdbea"/><stop offset="0.1" stop-color="#fccfe3"/><stop offset="0.27" stop-color="#f3b0cf"/><stop offset="0.51" stop-color="#e57eb0"/><stop offset="0.79" stop-color="#d23985"/><stop offset="1" stop-color="#c20061"/></linearGradient><linearGradient id="Gradient_53-2" x1="-207.23" y1="178.09" x2="-207.23" y2="165.05" xlink:href="#Gradient_53"/><linearGradient id="Gradient_53-3" x1="-168.14" y1="180.07" x2="-168.14" y2="174.46" xlink:href="#Gradient_53"/><linearGradient id="Gradient_53-4" x1="-112.86" y1="203" x2="-112.86" y2="181.97" xlink:href="#Gradient_53"/><linearGradient id="Gradient_53-5" x1="-125.21" y1="212.5" x2="-125.21" y2="204.22" xlink:href="#Gradient_53"/><linearGradient id="Gradient_53-6" x1="-98.18" y1="204.81" x2="-98.18" y2="194.32" xlink:href="#Gradient_53"/><linearGradient id="Gradient_53-7" x1="-43.24" y1="210.92" x2="-43.24" y2="191.42" xlink:href="#Gradient_53"/><linearGradient id="Gradient_53-8" x1="-53.91" y1="190.54" x2="-53.91" y2="184.95" xlink:href="#Gradient_53"/><linearGradient id="Gradient_53-9" x1="-8.84" y1="190.83" x2="-8.84" y2="176.01" xlink:href="#Gradient_53"/><linearGradient id="Gradient_53-10" x1="-11.57" y1="197.94" x2="-11.57" y2="187.25" xlink:href="#Gradient_53"/><linearGradient id="Gradient_53-11" x1="23.62" y1="205.27" x2="23.62" y2="187.65" xlink:href="#Gradient_53"/><linearGradient id="Gradient_53-12" x1="36.48" y1="182.63" x2="36.48" y2="168" xlink:href="#Gradient_53"/><linearGradient id="Gradient_53-13" x1="-191.14" y1="254.77" x2="-191.14" y2="237.21" xlink:href="#Gradient_53"/><linearGradient id="Gradient_53-14" x1="-205.75" y1="235.33" x2="-205.75" y2="222.26" xlink:href="#Gradient_53"/><linearGradient id="Gradient_53-15" x1="-161.69" y1="282.79" x2="-161.69" y2="257.41" xlink:href="#Gradient_53"/><linearGradient id="Gradient_53-16" x1="-157.4" y1="259.58" x2="-157.4" y2="247.29" xlink:href="#Gradient_53"/><linearGradient id="Gradient_53-17" x1="-84.43" y1="291.38" x2="-84.43" y2="258.47" xlink:href="#Gradient_53"/><linearGradient id="Gradient_53-18" x1="-122.63" y1="271.81" x2="-122.63" y2="260.8" xlink:href="#Gradient_53"/><linearGradient id="Gradient_53-19" x1="-66.89" y1="289.87" x2="-66.89" y2="283.33" xlink:href="#Gradient_53"/><linearGradient id="Gradient_53-20" x1="-24.49" y1="288.11" x2="-24.49" y2="260.8" xlink:href="#Gradient_53"/><linearGradient id="Gradient_53-21" x1="22.88" y1="267.65" x2="22.88" y2="234.43" xlink:href="#Gradient_53"/><linearGradient id="Gradient_53-22" x1="18.83" y1="276.47" x2="18.83" y2="265.01" xlink:href="#Gradient_53"/><linearGradient id="Gradient_53-23" x1="-123.31" y1="285.55" x2="-123.31" y2="279.03" xlink:href="#Gradient_53"/><linearGradient id="Gradient_39" x1="-83.12" y1="299.9" x2="-83.12" y2="250.07" gradientTransform="translate(256.96 -57.99) rotate(10.72)" gradientUnits="userSpaceOnUse"><stop offset="0" stop-color="#ffdbea"/><stop offset="0.1" stop-color="#f9cfe2"/><stop offset="0.27" stop-color="#eab0ce"/><stop offset="0.51" stop-color="#d27ead"/><stop offset="0.79" stop-color="#b13980"/><stop offset="1" stop-color="#95005a"/></linearGradient><linearGradient id="Gradient_72" x1="265.94" y1="101.47" x2="265.94" y2="74.61" gradientTransform="matrix(1, -0.04, 0.04, 1, -92.35, -12.06)" gradientUnits="userSpaceOnUse"><stop offset="0" stop-color="#ffac00"/><stop offset="1" stop-color="#cc2500"/></linearGradient><linearGradient id="Gradient_72-2" x1="-317.39" y1="352.86" x2="-317.39" y2="341.02" gradientTransform="translate(570.53 -121.5) rotate(24.56)" xlink:href="#Gradient_72"/></defs><title>minicake</title><g class="cls-1"><g id="Layer_2" data-name="Layer 2"><g id="objects"><path class="cls-2" d="M258.21,198.86s-.25,8.3-5.5,18.65v.05a61.38,61.38,0,0,1-21.07,23.36C190.51,268.42,39,238.12,12,193.33c-8.27-13.72-10.07-24.76-9.72-32.4.3-7.84,2.84-12.11,2.84-12.11-8.37-5.44-6-36.07,4.16-42s68.49-16,135.11-2.9c82.4,16.13,124.82,46.54,126.78,62.7S258.21,198.86,258.21,198.86Z"/><path class="cls-3" d="M13.36,105.18C-5.31,106.5,24.48,154.51,152.66,177,273,198,274.15,161.53,260.93,151.2,246.85,140.19,114.72,98,13.36,105.18Z"/><path class="cls-4" d="M18.11,93.71c-17.72,7,23.51,57.88,114.8,75.16,98.85,18.71,135.21-8.32,137.35-29C274.87,95.29,124.2,51.6,18.11,93.71Z"/><path class="cls-5" d="M23.71,50.55S20.19,33.69,45.94,13.94c41.48-31.82,193.62-4.63,221.83,36,17.71,25.5,9.83,46.55,9.83,46.55s7.52,22.71-.2,37-56.81,21.91-139.4,6.81C71.22,128.14,19.14,102.71,11.79,93.47S13.93,52.56,23.71,50.55Z"/><path class="cls-6" d="M23.71,50.55S50.89,84.32,145.64,100s132-3.53,132-3.53,3.68-20.22-1.88-31.56S265.63,85,152.49,63.13,45.94,13.94,45.94,13.94,26.75,20.89,23.71,50.55Z"/><path class="cls-7" d="M5.1,148.82s9.09,38.9,108.64,62.6c112.92,26.87,144.48-12.55,144.48-12.55s-16.3,62.86-140.69,42.4S5.1,148.82,5.1,148.82Z"/><path class="cls-8" d="M54.59,72.31C14,46.56,43.61,32.37,84.34,44.78s81.22,48.05,88.19,56S121.29,99.37,54.59,72.31Z"/><path class="cls-9" d="M21.37,170.71C7.31,160.51,9.65,138.23,43.49,154s72.74,26.4,76.83,31.2S89.49,228.74,21.37,170.71Z"/><path class="cls-9" d="M36,98.66C21.89,88.46,24.23,66.18,58.08,81.91s72.73,26.39,76.82,31.2S108.5,142.89,36,98.66Z"/><path class="cls-10" d="M252.71,217.51v.05a61.38,61.38,0,0,1-21.07,23.36C190.51,268.42,39,238.12,12,193.33c-8.27-13.72-10.07-24.76-9.72-32.4,3.46,9.56,3.73,62.46,126.48,82C233.7,259.61,252.71,217.51,252.71,217.51Z"/><path class="cls-10" d="M14.89,95.79S1.4,123.05,110.6,145.54c34.13,7,62.24,1.87,82.42,2.58,60.9,2.14,77.24-8.29,77.24-8.29S161.13,165.28,14.89,95.79Z"/><path class="cls-11" d="M135.92,137.31c-16.81-7.21-9.22-29.71,13.59-31.76s84.38,6.53,107.69,5.84,9,28.38-13.95,33.27S135.92,137.31,135.92,137.31Z"/><path class="cls-11" d="M138.71,215c-11-6.33,3.66-25.9,33.3-24.67s48.52,3.2,64.47,4.92S228.28,238.91,138.71,215Z"/><path class="cls-12" d="M23.71,50.55S19,53,17.17,56.08s34.25,29.81,127.2,47.86,133.07,3.23,135.45,1.91-2.22-9.36-2.22-9.36-30.47,19-132.5-.32S23.71,50.55,23.71,50.55Z"/><path class="cls-13" d="M13,121.23s2.21,40,117.53,60.35,133.73-9.42,133.73-9.42-32.09,19.65-136.09,0S13,121.23,13,121.23Z"/><g class="cls-14"><path class="cls-15" d="M34.65,100.77C18.1,69.55,33.05,74.06,52.79,86.61s5.72,8.22,1.35,10.5,3.59,14.66-.66,14.65S38.23,107.51,34.65,100.77Z"/><path class="cls-16" d="M20.67,65.25c-6.93,1.11-6.1,5.65-3.13,11.14s6.52-2.1,9.91-4S20.67,65.25,20.67,65.25Z"/><path class="cls-17" d="M58.08,81.91c-8.51-1.49-4.79,4.46,3.2,6.3S58.08,81.91,58.08,81.91Z"/><path class="cls-18" d="M69.83,94.25c7.26-6.35,26,13.08,45.41,13s3.25-4.35,18.76-3,20,7,18.72,11-5.8,6.62-16.88,6.11,2-6.07-12.36-8-18.5-3.11-17.24,1,8.16,9.73-18.69.33-11-12.64-13.25-15.18S69.83,94.25,69.83,94.25Z"/><path class="cls-19" d="M89.06,121.81c-2.87-1.2-5.32-5.52,7.46-2.2s7.45,7.69-.14,7.92S93.9,123.85,89.06,121.81Z"/><path class="cls-20" d="M118.34,118.13c-3.67-4.62,4.51-5.64,10.42-.87s-9.48,8.17-10.91,6.7S118.34,118.13,118.34,118.13Z"/><path class="cls-21" d="M144.19,126.57c-2.16-5.39,10.71-11,37.5-3.6s35.22,22.77,22.64,22.4-23.18-5.14-31.1-8.94-7.54-1.06-22.19-.45S144.19,126.57,144.19,126.57Z"/><path class="cls-22" d="M161,113.18c-7.52,3.32,11.41,8.19,16.83,6S165,111.43,161,113.18Z"/><path class="cls-23" d="M193.92,118.3c-8.51,5.17,16.39,1.09,24.71,7.52s11.44,6.8,16.66-1.53S209.59,108.79,193.92,118.3Z"/><path class="cls-24" d="M200.12,125.17c-1.15-6.71,21.79,1.36,19.4,8S201.09,130.84,200.12,125.17Z"/><path class="cls-25" d="M222.83,144.46c-5.1-6.68-4.78-11.59,14.68-13.14s21.89,5.74,28.58,5.4-6.38,5-18,5.06-2.26-7.24-11.13-3.61,10.75,5.62,3.83,6.19S222.83,144.46,222.83,144.46Z"/><path class="cls-26" d="M248.15,123.61c-10-3.77,1.61-6.13,15.12-7.89s13.9,3.83,11.67,9.4-3.57-3-10.34,1.6S248.15,123.61,248.15,123.61Z"/><path class="cls-27" d="M13.65,137.71c-8.55,1.16,3,14.2,16.45,19.93s-1.55-5.7-4.83-9.32S19.94,136.86,13.65,137.71Z"/><path class="cls-28" d="M5.05,123.81c-6.71,7.14,8.2,13.37,14,11.74s-9.66-10.7-9.44-13.38S5.05,123.81,5.05,123.81Z"/><path class="cls-29" d="M20.58,164.4c3.34-10,49.6,6.06,53.31,17.67s-.24,15.94-13.83,8.76-5.17-16.45-14-16.75,4.79,5.9-3.89,4.94S20.58,164.4,20.58,164.4Z"/><path class="cls-30" d="M41.51,152.89c-6.79,2,.39,9.65,16.65,15s16.92,1,4-4.88S41.51,152.89,41.51,152.89Z"/><path class="cls-31" d="M99.24,183.8c-21,9.07-6.32,23.22,14.5,27.62s-14-13.23,9.56-13,17.14,14.77,30.47,5.76S130.59,170.3,99.24,183.8Z"/><path class="cls-32" d="M87.18,175.49c-17.44,1.81-8.21,9.74-2,10.61s10.72-4.64,11.86-6S90.13,175.19,87.18,175.49Z"/><path class="cls-33" d="M129.72,211.28c-6.16-5.1,16-4.12,17.49.07S135.42,216,129.72,211.28Z"/><path class="cls-34" d="M166.81,190.36c-19-2.18,4.74,6.77-4.32,14.27s-6,17.6,27.17,13,10.27-18.2,1.68-20.88S166.81,190.36,166.81,190.36Z"/><path class="cls-35" d="M205.46,194.23c-11.08.6,5.9,6,10.41,11s8.45-.2,14.82-6.24,14.42-1.73,8.8,2.74,4.56,2.4,15.31-5.4,11.13-13.83,9.38-14.39S242,192.25,205.46,194.23Z"/><path class="cls-36" d="M216.29,215.05c-4.91-2.29,7.35-7.79,14.56-8.15S236.18,222.8,216.29,215.05Z"/><path class="cls-37" d="M78.37,194.81c-1.31-3.77,4.63-2.83,9,2.32S80.43,200.73,78.37,194.81Z"/></g><path class="cls-8" d="M43.14,188.82c-15-6.38-10.73,23.31,39.11,37.1s49.95,6.28,54.22,1.33S109,216.9,43.14,188.82Z"/><path class="cls-8" d="M42.68,135.5c-22.91-12.85-26.93-27.6,27.83-10.57s75,46.17,75,46.17S89.83,162,42.68,135.5Z"/><path class="cls-38" d="M169.38,148c-22.67-3.7,3.85,26.54,36.7,24.59s37.06-15.77,36.4-17.07S196.16,152.39,169.38,148Z"/><path class="cls-39" d="M148.56,177.91s26.55,11.49,50.56,10.27,31.66-4.43,31.31-5.47S176.18,179.31,148.56,177.91Z"/><path class="cls-40" d="M164.41,104.9c-6.33-.62,27.19,7.06,47.25,6.95s43.3-1.43,43.3-1.43S206,109,164.41,104.9Z"/><path class="cls-41" d="M141.59,59C105.35,43.48,156.86,11.2,215.94,27S279.71,93.3,141.59,59Z"/><path class="cls-41" d="M155.39,246.09c-21.24-9,7.21-17.42,75-26C257.32,216.72,250.87,254.27,155.39,246.09Z"/><path class="cls-41" d="M64.88,4.32C45.94,13.94,173.27,6.87,173.27,6.87S114.65-6.54,64.88,4.32Z"/><path class="cls-42" d="M15.82,106.17S22,126,68.69,145.87c59.89,25.43,102.38,28.33,102.38,28.33s-58-.32-109.66-22.68S15.82,106.17,15.82,106.17Z"/><path class="cls-43" d="M223.69,153.93c-15.12,2.18,7.71,11,13.25,6.28S237.71,151.9,223.69,153.93Z"/><path class="cls-43" d="M147.14,166.12c-5,1.53,5.34,5.72,10.31,5.74S159.29,162.37,147.14,166.12Z"/><path class="cls-44" d="M5.1,148.82c1.64,4,6.22,7.61,8.78,14.31s27.89,22.65,39.52,28.69,20.75,3.62,24,7.88,33.73,13.14,52.38,16.26,20,1.22,24.38,1.6,19.11,2.93,38.08,3.88,17.37-4.26,22.31-4.78,10.68,3.69,20.08.92,15.79-11.38,15.79-11.38-11.58,38.27-123.12,16.47S4.13,168,5.1,148.82Z"/><path class="cls-10" d="M150.23,120.4c-5,.43,14.2,9.72,28.39,13.92s23.09,4.22,26.06,3.42-9.83-12-28.55-15.14S150.23,120.4,150.23,120.4Z"/><path class="cls-10" d="M78.13,93.9c-3.52-.85,8.13,9.63,8.58,13.64s8.19-.06,25.72,1,20.3,2.67,23.21,4,10.54,1.79,11.85-.28-14.75-8.51-18.09-7.73,1.25,2.51-17.38,1.11S78.13,93.9,78.13,93.9Z"/><path class="cls-10" d="M99.24,183.8c-15.49,10.14,15.08,4.41,34.29,9.2s19.89,2.16,18.07-.65S126.49,172.35,99.24,183.8Z"/><path class="cls-10" d="M166.81,190.36c-6.89-.05,8.33,8.72,4.22,15.23s18.67,7,28.67,5.43,1.21-11.84-10.91-15.06S166.81,190.36,166.81,190.36Z"/><path class="cls-10" d="M222.7,134.65c-5.21,3.24,13.7.1,21.86-.18s2.6.36,7.38,1.89,10.21.13,10.21.13-3.65-1.14-9.21-3.4S231.9,129.14,222.7,134.65Z"/><path class="cls-45" d="M219.88,58.79c-12.12,5.95,6.81,10.08,12.61,6S226.57,55.51,219.88,58.79Z"/><path class="cls-46" d="M23.71,50.55c1.51,1.85,14.86-7.29,18.16-15.91a34.44,34.44,0,0,0,1.7-17S23.66,22.76,23.71,50.55Z"/><path class="cls-41" d="M63.92,33.81C49.36,23.13,100.54,14.33,129,54.62,133.89,61.49,81.48,44.71,63.92,33.81Z"/><path class="cls-41" d="M8.68,174.32c1.74-4.51,19.72,16,24.08,24.08a100.4,100.4,0,0,1,6.45,14.38S.48,194.08,8.68,174.32Z"/><path class="cls-45" d="M193.39,236.9c-3.2-2.31,2-9.4,8.54-5.43S196.39,239.06,193.39,236.9Z"/><path class="cls-47" d="M237.41,107.09c-8.69,3,3.26,6.68,11.53,4.24S250.8,102.53,237.41,107.09Z"/><path class="cls-47" d="M218.56,182.19c-11.39.66.13,6.75,9.28,3.15S229.14,181.58,218.56,182.19Z"/><path class="cls-48" d="M89.11,195.48A18.57,18.57,0,0,0,97.73,205c6.69,3.64,16,5.63,18.46,5s1-3.8,1-3.8,3.27,3.39,2.7,5.83S91.75,209.35,89.11,195.48Z"/><path class="cls-48" d="M158.23,212.77c-.56-3,15.78,2.35,27.73,2.79s19.8-3.39,19.8-3.39-6.43,9-23.43,8.61S159.19,214.51,158.23,212.77Z"/><path class="cls-48" d="M207,199.36s5.74,1.12,9.35,3.62,7.11-1.59,16.26-5.48,11-1.44,10,1.31,4.55,2.05,9.44-1a49.27,49.27,0,0,0,12.08-11.27s-3,6.62-11.43,12.23-11.58,6.29-15.2,5.68,1.52-5.24-1.16-5.9-8.73,9.1-15.47,9.87S217.37,204.53,207,199.36Z"/><path class="cls-48" d="M142.51,129.67c-.21,5.58,14.45,5,22.18,3.78s15.37,5.85,25.64,9.23A39.2,39.2,0,0,0,209,144.29a81.89,81.89,0,0,1-23.86-1.24c-13-2.61-14.3-7.07-21.38-7.26s-12.66,3.05-19.39.18S142.51,129.67,142.51,129.67Z"/><path class="cls-48" d="M193.65,120.92c2.53,1,9.46-.45,19.42,1.59s7.81,4.65,13.36,6.16,7.42-2.24,7.42-2.24-1.9,4.68-7,4.69-4.93-5.24-13.32-7.3S198.09,122.65,193.65,120.92Z"/><path class="cls-48" d="M248.15,123.61s6.31,3.55,11.42,3.89,7.1-3,8.51-3.56,1.07,1.29,4,1.73,3.63-2.84,3.63-2.84-.11,4.07-2,4.91-3.17-2.19-7.42-.72-4,2.66-8.55,1.33A40.74,40.74,0,0,1,248.15,123.61Z"/><path class="cls-49" d="M28.35,86.33a32.06,32.06,0,0,0,9.87,17.24c8.51,7.86,11.75,3.74,13.54,3s1.13-5.14,1.13-5.14,3,7,1.72,9.67-12.85-2.45-18.44-7.42S28.35,86.33,28.35,86.33Z"/><path class="cls-49" d="M73.22,102c-2.35,4.31,9,10,21.07,13.91s11.21,1.58,11.13-2.37,5.21-1.91,10-1.25l7,1s-13.15-2.33-15.07-.46,3,4.33,1.43,7.22-24.41-4.71-33.3-10.17S73.22,102,73.22,102Z"/><path class="cls-48" d="M201.17,127.45S206.85,133,211.8,134s7.83-1.25,7.83-1.25.12,5.89-9,2.74S201.17,127.45,201.17,127.45Z"/><path class="cls-48" d="M159.59,114.14c-.28.94,3.63,4.23,10.51,5.12s8.35-.43,8.35-.43-3.14,3.31-13.55.68S159.59,114.14,159.59,114.14Z"/><path class="cls-50" d="M15.39,69.25s.46,5.21,3.69,6.93,7.08-2.83,7.08-2.83-2.67,5.84-6.06,5.8S14.83,72.55,15.39,69.25Z"/><path class="cls-50" d="M54.14,81.9c-2.06,1.64,2.89,4.93,6.75,6s2.92-.78,2.92-.78,1.06,1.08-.14,1.76-8.56-1.67-10.84-4.62S54.14,81.9,54.14,81.9Z"/><path class="cls-51" d="M26.18,161.36c-11.13,2.22,10.8,15.56,14.67,16.36s-1.3-2.38,1.68-4.09,8.71,1.2,9.4,3.15-.62,10.43,9.79,14.89,13.37-1,13.37-1,2.13,3.45-4,4-16.44-4.82-18-8.22-1.87-9.75-4.39-10.84-6.15-1.54-4.54.36,2,1.82,1.4,3.44-11.68-1.53-20.46-9.17S19.23,161.06,26.18,161.36Z"/><path class="cls-51" d="M13.65,137.71c-4,1.18,7.92,15.21,7.92,15.21S8.86,144.76,9.9,141,13.65,137.71,13.65,137.71Z"/><path class="cls-51" d="M40,153.6c-.88,1.11,4.7,7,13.88,11.92s15.35,4.83,15.35,4.83-3.24,1.23-17.46-4.87S37.13,155.33,40,153.6Z"/><path class="cls-51" d="M79,177.56c-4.07,4.1,4,8.48,8.58,7.71A18.61,18.61,0,0,0,95.28,182s-3.92,5.87-10.1,4.47S73.69,181.53,79,177.56Z"/><path class="cls-52" d="M170.87,51.85c-11.72,4.36-12.67,29.25,10.52,25.87C204.17,74.4,183.32,47.21,170.87,51.85Z"/><path class="cls-53" d="M170.87,51.85c-7.81,2.29-7,17.71,4.07,18.29s14.59-9,12.08-11.59S175.34,50.54,170.87,51.85Z"/><path class="cls-54" d="M164.79,70.63c-.74-2.27,12.08,5.9,18.61,4.46,11.94-2.64,4.18-12.42,5.45-12.16s6.16,10.78-4.12,14S166.12,74.7,164.79,70.63Z"/><path class="cls-55" d="M137.79,55.87c-5.47-.62-10.83,9-1,12.27C146.36,71.39,143.61,56.54,137.79,55.87Z"/><path class="cls-53" d="M137.79,55.87c-3.52-.66-6.27,5.57-2.06,8s7.54-.64,7.07-2.13S139.81,56.25,137.79,55.87Z"/><path class="cls-54" d="M131.65,62c.16-1,3.56,4.73,6.42,5.47,5.21,1.35,4.12-4,4.57-3.69s.26,5.47-4.43,4.7S131.36,63.9,131.65,62Z"/></g></g></g></svg>