<svg xmlns="http://www.w3.org/2000/svg" xmlns:xlink="http://www.w3.org/1999/xlink" viewBox="0 0 264.85 264.31"><defs><style>.cls-1{isolation:isolate;}.cls-2{fill:url(#radial-gradient);}.cls-3{fill:url(#Gradient_68);}.cls-17,.cls-4{fill:#ac1f90;}.cls-4{opacity:0.75;}.cls-11,.cls-15,.cls-17,.cls-18,.cls-19,.cls-22,.cls-23,.cls-27,.cls-29,.cls-31,.cls-4,.cls-5,.cls-7{mix-blend-mode:multiply;}.cls-5{fill:#cd77bb;}.cls-14,.cls-15,.cls-17,.cls-19,.cls-22,.cls-23,.cls-5,.cls-7{opacity:0.5;}.cls-14,.cls-6,.cls-8{fill:#ffff95;}.cls-20,.cls-27,.cls-29,.cls-6{opacity:0.3;}.cls-14,.cls-20,.cls-21,.cls-25,.cls-6,.cls-8{mix-blend-mode:soft-light;}.cls-7{fill:#dc8dbb;}.cls-8{opacity:0.71;}.cls-9{fill:url(#radial-gradient-2);}.cls-10{fill:url(#Gradient_68-2);}.cls-11{fill:#cf60ad;}.cls-11,.cls-31{opacity:0.2;}.cls-12{fill:url(#radial-gradient-3);}.cls-13{fill:url(#Gradient_68-3);}.cls-15{fill:#ffb6ca;}.cls-16{opacity:0.84;fill:url(#Gradient_74);}.cls-18{opacity:0.92;fill:url(#Gradient_22);}.cls-19{fill:#f04790;}.cls-20,.cls-21,.cls-24,.cls-25{fill:#ffcfb1;}.cls-21{opacity:0.86;}.cls-22{fill:#f02f90;}.cls-23{fill:#db1390;}.cls-26{fill:url(#Gradient_79);}.cls-27{fill:#cd57aa;}.cls-28{fill:url(#Gradient_82);}.cls-29{fill:#e757aa;}.cls-30{fill:#fff;}.cls-31{fill:#ff97aa;}.cls-32{fill:#ff9fff;}</style><radialGradient id="radial-gradient" cx="26.27" cy="2334.81" r="177.08" gradientTransform="matrix(0.83, 0.15, -0.14, 0.76, 447.45, -1576.36)" gradientUnits="userSpaceOnUse"><stop offset="0" stop-color="#f5ac5c"/><stop offset="0.34" stop-color="#f4a95b"/><stop offset="0.55" stop-color="#f1a156"/><stop offset="0.72" stop-color="#ec924f"/><stop offset="0.82" stop-color="#e78648"/><stop offset="0.85" stop-color="#e88c4c" stop-opacity="0.97"/><stop offset="0.89" stop-color="#ec9f58" stop-opacity="0.9"/><stop offset="0.93" stop-color="#f2bd6b" stop-opacity="0.77"/><stop offset="0.97" stop-color="#fae685" stop-opacity="0.6"/><stop offset="1" stop-color="#ffff95" stop-opacity="0.5"/></radialGradient><linearGradient id="Gradient_68" x1="-40.14" y1="189.47" x2="-40.14" y2="116.95" gradientTransform="translate(188.73 44.96) rotate(10.23)" gradientUnits="userSpaceOnUse"><stop offset="0" stop-color="#e37738"/><stop offset="0.45" stop-color="#dc6c3e"/><stop offset="1" stop-color="#d15948"/></linearGradient><radialGradient id="radial-gradient-2" cx="27.77" cy="2253.85" r="186.54" xlink:href="#radial-gradient"/><linearGradient id="Gradient_68-2" x1="-40.05" y1="129.61" x2="-40.05" y2="51.04" xlink:href="#Gradient_68"/><radialGradient id="radial-gradient-3" cx="29.44" cy="2170.32" r="190.73" xlink:href="#radial-gradient"/><linearGradient id="Gradient_68-3" x1="-39.79" y1="53.61" x2="-39.79" y2="-12.48" xlink:href="#Gradient_68"/><linearGradient id="Gradient_74" x1="-41.86" y1="231.11" x2="-41.86" y2="-40.08" gradientTransform="translate(188.73 44.96) rotate(10.23)" gradientUnits="userSpaceOnUse"><stop offset="0.07" stop-color="#f30"/><stop offset="1" stop-color="#b30038"/></linearGradient><linearGradient id="Gradient_22" x1="-95.14" y1="-5.42" x2="3.76" y2="-5.42" gradientTransform="translate(188.73 44.96) rotate(10.23)" gradientUnits="userSpaceOnUse"><stop offset="0" stop-color="#a90079"/><stop offset="0.01" stop-color="#ab057b"/><stop offset="0.3" stop-color="#c85caa"/><stop offset="0.55" stop-color="#e0a2ce"/><stop offset="0.76" stop-color="#f1d4e9"/><stop offset="0.91" stop-color="#fbf3f9"/><stop offset="1" stop-color="#fff"/></linearGradient><linearGradient id="Gradient_79" x1="-50.3" y1="2.15" x2="54.3" y2="2.15" gradientTransform="translate(188.73 44.96) rotate(10.23)" gradientUnits="userSpaceOnUse"><stop offset="0" stop-color="#ffbf81"/><stop offset="1" stop-color="#ffceb3"/></linearGradient><linearGradient id="Gradient_82" x1="-46.08" y1="-16.62" x2="53.49" y2="-16.62" gradientTransform="translate(188.73 44.96) rotate(10.23)" gradientUnits="userSpaceOnUse"><stop offset="0" stop-color="#ffd8a6"/><stop offset="1" stop-color="#ffe7da"/></linearGradient></defs><title>pancake</title><g class="cls-1"><g id="Layer_2" data-name="Layer 2"><g id="objects"><path class="cls-2" d="M0,191.71c.64-19.61,24.63-57.55,128.05-38.92,96.81,17.45,107.21,62,101.7,80.4-5.39,18-35.31,39.31-117.56,27.6C29.66,249-.65,211.86,0,191.71Z"/><path class="cls-3" d="M230.85,226c0-1.66-.47-10.49-6.87-21.67-9.73-17-33.23-39.52-88.91-50.21-48.61-9.32-79.91-5.53-98.48.16h0a73.59,73.59,0,0,0-18.93,8.51,32.31,32.31,0,0,0-3,2.13c-.89.74-1.32,1.18-1.32,1.18-15.69,11.75,16.92,31.08,54.74,44.78-10.29-8.41,14.64-5.59,29.84,4.3,7.65,5,1,4.73-8,2.79,4.39,1.27,8.77,2.46,13,3.5,7.33,1.8,14.4,3.24,20.88,4.22,1.29.19,2.55.38,3.77.58h0c45.28,6.85,40,5.88,56.23-3.64,16.94-9.91,31.91,3.06,33.1,6S230.93,230.15,230.85,226Zm-107.09-7.36c-4,5.21-14.73,4.25-13.72-1.43C111.37,209.75,127.79,213.43,123.76,218.66Z"/><path class="cls-4" d="M14,166c6.12-1.58,28,27.3,101.35,46,45.86,11.69,72.31.92,89.34-5.78a61.18,61.18,0,0,1,20.16-4s-33.73-44-113-52.23S14,166,14,166Z"/><path class="cls-5" d="M224,204.35a.1.1,0,0,0,0,.09c1.71,5.28,1.24,16.34-20.28,12.73s-28.92,10.91-47.88,5,3.5-10.63-29.28-16.54S77.74,207,60.05,199.24s-43.69-32.52-23.17-45l-.29.08h0a58.28,58.28,0,0,0-18.93,8.51,32.31,32.31,0,0,0-3,2.13c-8,6.2-12.2,13.39-6.4,17.49,10.2,7.22,55.13,31.73,59.9,30s15.95,2.11,20.49,4.92a11.29,11.29,0,0,0,1.24.68c2.36,1.16,5.77,2,13,3.5,5.54,1.12,13.35,2.59,24.65,4.8h0l11.73,2.31c39.14,7.79,40-3.24,58.57-2.29s29.76,11.77,33,2.59S222.44,199.37,224,204.35ZM123.76,218.66c-4,5.21-14.73,4.25-13.72-1.43C111.37,209.75,127.79,213.43,123.76,218.66Z"/><path class="cls-6" d="M56.61,242.27c-39.14-25.8,35.24-13.23,94.26-7.82,59.43,5.45,37.88,29.07-1.61,27.53C110.05,260.45,74.05,253.76,56.61,242.27Z"/><path class="cls-7" d="M12.2,218c-10.38-16.39-3.76-26.37,11.89-21.95s25.61,43.17,29.34,48S33.47,237.25,12.2,218Z"/><path class="cls-5" d="M104.69,259.66s60.86,3.46,90.12-3.42c29.74-7,33.1-18.58,33.1-18.58S215.4,277.66,104.69,259.66Z"/><path class="cls-8" d="M184.62,229.85c-9.88,4,0,8.79,8.89,4.37S190.25,227.56,184.62,229.85Z"/><path class="cls-9" d="M6.19,131.06C6.94,109.84,32.11,68.54,139.87,88c100.86,18.17,111.24,66.29,105.3,86.24-5.79,19.45-37.15,42.66-122.64,30.62C36.78,192.74,5.42,152.83,6.19,131.06Z"/><path class="cls-10" d="M246.39,166.45c0-1.8-.38-11.34-6.94-23.39-10-18.3-34.27-42.54-92.28-53.7-50.37-9.69-83-5.42-102.39.83-.11,0-.2.06-.31.09h0a84.2,84.2,0,0,0-17.14,7.65c-.51.29-1,.64-1.54,1s-.72.46-1.09.73A36.7,36.7,0,0,0,21.59,102c-.93.81-1.38,1.29-1.38,1.29-8.82,6.92-3.1,16.07,10.17,25.33a25.77,25.77,0,0,1-3.95-4.85c-4.55-7.38,19.73.76,23.64,10.38,1.39,3.44-.4,4.53-3.61,3.95A278.52,278.52,0,0,0,77,151.27c.6.43,1.24.81,1.9,1.2,8.6,4.95,22.25,7.23,23,7h0l.61.18c3.58,1,7.15,2,10.66,2.84,7.61,1.89,15,3.4,21.7,4.41,1.35.2,2.66.39,3.92.6h0c47.1,7.06,37.51,2.34,56.51.53,3-.28,6.1-.53,9.18-.7a.23.23,0,0,0,.11,0c2.52-.16,5-.27,7.43-.32h0c10.33-.28,19,.3,19.79,2.36C233.09,172.5,246.43,170.9,246.39,166.45ZM104.68,151.07c-9.4,3.44-23.5-3.29-13.41-5.87C97.23,143.69,114.12,147.61,104.68,151.07Z"/><path class="cls-5" d="M239.45,143.06s0,.08,0,.1c1.73,5.7,1.13,17.66-21.27,13.91s-30.24,12-49.94,5.78,3.74-11.51-30.36-17.67S87,147,68.66,138.74,23.33,103.89,44.78,90.19c-.11,0-.2.06-.31.09h0a58.61,58.61,0,0,0-17.14,7.65c-.51.29-1,.64-1.54,1s-.72.46-1.09.73A36.7,36.7,0,0,0,21.59,102c-8.32,6.77-12.77,14.59-6.74,19,10.58,7.73,57.22,33.9,62.2,31.95a6.38,6.38,0,0,1,1.83-.42c5.59-.66,15.27,2.89,19.47,5.59.15.09,1.28.54,3,1.15a2.54,2.54,0,0,1,.45.17c.23.06.47.15.72.24a98.48,98.48,0,0,0,10.66,2.84c5.76,1.18,13.87,2.71,25.62,5h0q5.53,1.07,12.2,2.4c34.7,6.94,40.55-.69,53.49-2.57a.23.23,0,0,0,.11,0,38.7,38.7,0,0,1,7.43-.32h0c19.37.89,30.87,12.49,34.3,2.56S237.9,137.69,239.45,143.06Zm-193-5c-4.29-.8-11.1-4.54-16-9.48a25.77,25.77,0,0,1-3.95-4.85c-4.55-7.38,19.73.76,23.64,10.38,1.39,3.44-.4,4.53-3.61,3.95Zm44.85,7.14c6-1.51,22.85,2.41,13.41,5.87S81.18,147.78,91.27,145.2Z"/><path class="cls-6" d="M64.84,185.24c-40.59-27.56,36.75-14.52,98.15-9.11,61.85,5.45,39.18,31.1-1.91,29.71C120.31,204.47,82.91,197.51,64.84,185.24Z"/><path class="cls-7" d="M18.76,159.38C8,141.75,4.47,127.21,20.7,131.86s37,50.16,40.82,55.31S40.79,180,18.76,159.38Z"/><path class="cls-5" d="M114.74,203.65s63.29,3.31,93.8-4.33c31-7.76,34.67-20.27,34.67-20.27S229.77,222.28,114.74,203.65Z"/><path class="cls-8" d="M198.18,170.92c-10.33,4.42-.08,9.49,9.22,4.66S204.06,168.4,198.18,170.92Z"/><path class="cls-11" d="M174.93,128.38c-34,7.74,40.65,25.09,58.82,21.21C252.08,145.67,239.6,113.63,174.93,128.38Z"/><path class="cls-6" d="M73.9,122.45c-42.17-29.57,38.42-16,102.45-10.63,64.52,5.44,40.6,33.4-2.25,32.21C131.6,142.85,92.66,135.6,73.9,122.45Z"/><path class="cls-5" d="M118.13,85.69c1.35.32,2.78.58,4.28.82Z"/><path class="cls-5" d="M57.75,145.57s19.32,10.91,37.64,16.48,28.94,5.5,60.53,10.92,42.68-4.36,42.68-4.36-25.69,6-50.9-.22-49.39-11.61-65.08-16.22S57.75,145.57,57.75,145.57Z"/><path class="cls-4" d="M21.59,102c6.3-1.54,29,27.49,104.75,46.63,36,9.11,61.65,4.83,80.36.62,20.62-4.65,32.48-9.78,32.48-9.78s-35-44.22-116.77-52.92S21.59,102,21.59,102Z"/><path class="cls-12" d="M13,64.11c.88-23.07,26-58.8,138-38.63,104.76,18.88,117.64,61.91,111.21,83.61C255.92,130.23,224.26,152.44,135,140,45.54,127.57,12.12,87.76,13,64.11Z"/><path class="cls-13" d="M264.85,95.7c-.1-1.53-1-9.69-8.35-20.17-11.19-15.86-37.38-37.16-97.66-48.62-52.35-9.95-85.91-7.55-105.9-3a1,1,0,0,1-.31.06h0A92.75,92.75,0,0,0,35,29.8c-.53.22-1.06.52-1.59.77-.35.18-.73.37-1.11.58A33.06,33.06,0,0,0,29.16,33a17,17,0,0,0-1.41,1.05c-9,5.52-2.89,13.46,11.15,21.79a25.29,25.29,0,0,1-4.23-4.24C29.77,45.2,55.24,53,59.54,61.25c1.55,3-.3,3.85-3.65,3.24,9.6,4.3,20.67,8.52,32.18,12.34.64.39,1.31.75,2,1.1,9.11,4.51,23.41,7,24.21,6.76h0c.22.06.44.1.63.16,3.79,1,7.54,2,11.21,2.8,8,1.88,15.73,3.44,22.77,4.55,1.43.21,2.79.41,4.13.63h0c49.32,7.69,39.13,3.32,58.82,2.43,3.1-.15,6.33-.26,9.52-.3l.12,0c2.6-.06,5.21-.06,7.7,0h0c10.7.12,19.73.92,20.64,2.71C251.34,100.42,265.1,99.51,264.85,95.7ZM116.92,77.64c-9.69,2.61-24.58-3.63-14.14-5.49C108.93,71.09,126.63,75,116.92,77.64Zm9.39,4.9c-5.59-1.55,35.17-8.66,52.14-3.74S159,91.61,126.31,82.54Z"/><path class="cls-7" d="M26,94.76C14.89,75.71,22.18,63.89,39.13,68.83S66.44,119,70.42,124.56,48.86,117,26,94.76Z"/><path class="cls-5" d="M225.8,49.43c-32-20-100.29-28-100.29-28s78.87,20.61,71.32,19.91-45-5.45-32.19,13C177.17,72.49,218.43,78,200.06,82.69c-16.88,4.3-54.41,7.4-76.92,4,15.27,2.93,60.71,11.33,69.52,9.71,10.64-2,34.52-1.43,51.08-5.78C260.46,86.16,257.26,69.13,225.8,49.43Zm-29.15,6.48c-10.47,3.5-30.65-5.95-24-9C182.45,42.34,207.19,52.37,196.65,55.91ZM212.29,76c-7.58,2-16.27-3.85-6.45-5C207.55,70.79,219.9,74,212.29,76Z"/><path class="cls-5" d="M25.74,45.47S37.6,56.38,38.86,57.24,35,48.41,45.7,53.79,58.8,63.84,54.28,64,76.79,77.9,103,86.59,168,97.38,187.41,98.33s22.92-3.4,34-3.35a213.56,213.56,0,0,1,21.72,1.33s-5.75-4.73-34.13-4.87c-28.21-.14-26.12,4.23-63.22-2.35s-77.26-18.51-81.1-25-11-15-23.55-17.74-7.2,2.2-9.46,2.35S25.74,45.47,25.74,45.47Z"/><path class="cls-6" d="M93.4,115.84c-40.59-27.56,36.75-14.53,98.15-9.12,61.84,5.46,38.75,23.65-1.91,29.72C116.72,147.32,111.46,128.11,93.4,115.84Z"/><path class="cls-14" d="M171.31,104.77c-18.7-.23,0,25.69,23.06,23s19.28-15.19,14.58-16.5S185.77,105,171.31,104.77Z"/><path class="cls-14" d="M132.36,173.09c-21.65-.53-.75,16,10.87,14.24s11.62-11.93,5.27-12.57Z"/><path class="cls-5" d="M40.11,28.7c-15,5.46,19.46,24,55.36,29.1S137.09,37.6,128,31,74.35,16.26,40.11,28.7Z"/><path class="cls-15" d="M45,65.19c-4.81.64,8.14,14.27,19,18.27s28.37,1.23,26.27.2S54.45,63.93,45,65.19Z"/><path class="cls-16" d="M195.32,63.18c-49.25-3.11-94.78-7.57-71.08,1s38,10.42,28.39,20.49a37.7,37.7,0,0,0-5.82,9.17c-7.23,14.9-11,42-13.29,52.95-3.72,18-10.66,9.5-15.55,15.38s-5.08,42.12-12.69,46.93l-.32.22c-7.3,5.12-7.24,24-7.43,29.38-.1,2.59,8.1,7.81,13.31,12.6,5.76,5.28,7.89,10-8.79,10.22-48.5.48-79.76-22.42-64-25.08,1.4-.23,2.79-.44,4.14-.56,13.88-1.6,25.17.62,27.19-4.7,2.22-5.81.63-17.44,6.17-26s8-4.48,10.1-6.8,4.86-29.65,8-40.64,20.34-12.51,21.73-17.81,9-38.29,1.82-36.69c-8.26,1.84-10.21,32.24-12.89,35.79s-22,5.47-25.4,13.44c-7.32,17.22.27,28.13-11.52,33S46.22,177,49.8,171.21s3.28-21.35,5.15-28.53c4.77-18.42,15.55-8.79,19.26-11.68s-1.38-3.64-1.94-7c-.14-.85,2.86,3.06,3.6-1.28,2.21-13,5.08-43.51,9.8-45.64,6.31-2.85,8.74-9.79-14-19.68S58.05,28,60.41,23.7s7.15-6.75,31.5-8.41,63.36-27,93.3-8.67c22.7,13.89,9.36,22.25,27.89,27a28.39,28.39,0,0,1,21.25,21.55S244.57,66.27,195.32,63.18Z"/><path class="cls-17" d="M231,46.81c3.53,12.46-18.84,14.48-59.7,11.45S115.8,49.73,97.55,49,110,61,118,62.9s19-5.42,59.09-.93,59,2,61.43.32-3.39-6.93-3.39-6.93S235,49.48,231,46.81Z"/><path class="cls-18" d="M193.82,28c-11.36-1.46-22.24-3.64-68.31-6.53S91.09,33.8,128.42,40.93s26.84-4.54,20.79-8.88,22.31-3.88,36.44-.31S193.82,28,193.82,28Z"/><path class="cls-17" d="M56.57,37.54S59.76,50.6,69.68,54.19s18.93,6,24.42,9.22-3,11.35-6.59,12.58c0,0-1.73-8.56-8.39-11.64s-16.52-8-20.77-13.15S56.57,37.54,56.57,37.54Z"/><path class="cls-17" d="M49.8,171.2s-4.33,8.11,6.08,11.55,14.95-2.78,17.18-9.13,1.28-17.58,7.88-29.84,17.49-4.93,21.93-6.3,5.24-13,5.24-13-2,16.16-3.76,17.15-19.66,4.81-23.06,11-3.22,22-6.86,30.79-17.62,3.53-22.81.43S48.14,173.05,49.8,171.2Z"/><path class="cls-19" d="M55.52,151.88c-.66-10.68-2.76-12.8,8.64-11.76s12.48,7,6.94,16.89S56.09,161.09,55.52,151.88Z"/><path class="cls-19" d="M84.14,83.35c5-6.62,26.55-1.38,26.74,7.9s-6.76,30.89-20.28,31.06S77.61,92,84.14,83.35Z"/><path class="cls-17" d="M102.05,261.49c-48.5.48-79.76-22.42-64-25.08,1.4-.23,2.79-.44,4.14-.56-.77,3.37-6.63,8.89,8.38,15.11,23.49,9.72,58.49,9,60.22,2.61a5.5,5.5,0,0,0,.07-2.3C116.6,256.55,118.73,261.31,102.05,261.49Z"/><path class="cls-17" d="M107.26,204.57c7-12.28,6.38-37.23,8.34-41.66,5.17-11.69,9.39-2.63,14.21-14.85s13.4-52.88,16.94-54.67l.06.42c-7.23,14.9-10,50.79-14.47,61-5.62,12.85-9.48,1.44-14.37,7.32s-5.08,42.12-12.69,46.93l-.32.22A37.48,37.48,0,0,1,107.26,204.57Z"/><path class="cls-20" d="M99.93,70.08c-13.42,2.48.75,11.26,22.7,15.19s26.57,3.39,15.88-3.64,5.94-3.75,9.38-5.16S126.49,65.16,99.93,70.08Z"/><path class="cls-21" d="M104.16,48.26c-19.38-10.77,12.78-10.06,37.5-5.08s28.25,9.61,44.05,10.13-22.31,6.54-50,.77S104.16,48.26,104.16,48.26Z"/><path class="cls-19" d="M71.76,236.33C68,231.08,71.56,217,75,214.18s20.7,4,21.55,8.95S92.27,241,90,241.79,72.36,237.18,71.76,236.33Z"/><path class="cls-19" d="M96,156.88c-3.57-.12-4.61,18.26-4.73,26.17s17.7,10.14,21.06-2.35S106.09,157.2,96,156.88Z"/><path class="cls-19" d="M125.55,95.22c2.71-2.3-4.71,16.4-3.07,23s4.44-6.8,8.84-12.41,3.77,7.52,7.07,1.27,6.36-14.82,4-16-19.47-5.73-28.06-6.38,1.53,6.94,4.58,9.11S122.49,97.83,125.55,95.22Z"/><path class="cls-21" d="M60,26.14c5.92-6.92,19.26-4.12,42.13-5s13.52-4.51,23.53-8.78,17.31-3.58,17.31-3.58-16.27-.27-27,3.07-28.58,4.81-40.57,5.08S60,26.14,60,26.14Z"/><path class="cls-22" d="M169.8,31.93c-19,1.86,7.51,20.3,34.16,20.31S204.1,28.56,169.8,31.93Z"/><path class="cls-21" d="M85.61,78.22c-2.51,1.29,3.9,3.68,7.77,2.41S92.79,74.51,85.61,78.22Z"/><path class="cls-23" d="M61.51,35.82c-7-11.88,6.66-14.06,15.31-11.42s-1.94,16.39-4.7,17.85S62.2,37,61.51,35.82Z"/><path class="cls-24" d="M115.87,151.85c-9,4.09,6.29,5.07,7.64,3.2S118.84,150.5,115.87,151.85Z"/><path class="cls-24" d="M138.51,81.63c-14.49,1,2.69,6.22,5.38,4.54S143,81.32,138.51,81.63Z"/><path class="cls-25" d="M42.45,237.72c-4.71,2.35,3.81,9.65,15.55,11.9s-5.61-4.35-4.23-8.73,14.91-6.44,9.83-6.35S46.25,235.82,42.45,237.72Z"/><path class="cls-24" d="M73.61,238c-3.06.67,1.62,1.82,3.77,1.34S74.64,237.74,73.61,238Z"/><path class="cls-24" d="M74.84,208.87c-2.59.88-1.12,4.16,2.39,3.92S76.25,208.39,74.84,208.87Z"/><path class="cls-24" d="M63.16,132.45c-2.59.89-1.12,4.16,2.39,3.93S64.57,132,63.16,132.45Z"/><path class="cls-24" d="M217,40.81c-8.55,3.85,1.68,8.06,6.29,4.89S220,39.47,217,40.81Z"/><path class="cls-22" d="M124.48,18.65c1.14-6.28,19-16,36.1-11S185.9,22,181.14,23,124.48,18.65,124.48,18.65Z"/><path class="cls-24" d="M124.49,8.63c-5.1,1.42,4.6,3.47,7.56,1.12S128.29,7.57,124.49,8.63Z"/><path class="cls-4" d="M233.94,71.83c5.74,3.48-10.38,15.42-42.41,10.36s-48.87-16.71-52.14-23.32,24.82-12.39,52.27-9S233.94,71.83,233.94,71.83Z"/><path class="cls-26" d="M143.21,54.73c-3.55-1.33-3.3-31.87-.11-37.22S179,10,195.46,13.91,243.58,42,243.19,48.09s-5.59,24.77-10.95,28.42-46.64,6.32-55.39,2.78C161.57,73.11,143.21,54.73,143.21,54.73Z"/><path class="cls-27" d="M143.1,17.51c2-1.6,40.28,23.76,42.19,25.53S180.51,80,180.51,80s-30.13-13.44-37.3-25.22C140.21,49.8,143.1,17.51,143.1,17.51Z"/><path class="cls-28" d="M147.34,15.54c-2.57.53,28.47,24.2,39.79,27.83s55.67,3.16,55.67,3.16S214.24,19.75,198,14.29,147.34,15.54,147.34,15.54Z"/><path class="cls-29" d="M153.65,24.58c-6-2.41-6.16,25.6,2.73,36.93S174.23,75.88,177.72,76,186.32,37.62,153.65,24.58Z"/><path class="cls-30" d="M180.73,39.92c-4.47-.34,3.78,7.64,5.27,8.56s6.45-3.28,6.45-3.28S192.34,40.8,180.73,39.92Z"/><path class="cls-30" d="M210.3,45.12c-5.37-1.42,11-1.6,19-1S238.42,47,238.42,47,218.83,47.38,210.3,45.12Z"/><path class="cls-31" d="M185.17,61.3c0,6.87,42.81-.58,50.56-9S197.05,47.87,193.32,48,185.17,61.3,185.17,61.3Z"/><path class="cls-32" d="M140.65,35.77s.56-15.37,5.91-19.33,19.08-4.3,19.08-4.3-15.41-1.77-21.9,1.8S140.65,35.77,140.65,35.77Z"/></g></g></g></svg>