<svg xmlns="http://www.w3.org/2000/svg" xmlns:xlink="http://www.w3.org/1999/xlink" viewBox="0 0 196.65 256.92"><defs><style>.cls-1{mask:url(#mask);filter:url(#luminosity-noclip-2);}.cls-2,.cls-23,.cls-29,.cls-31,.cls-33,.cls-38,.cls-7,.cls-9{mix-blend-mode:multiply;}.cls-2{fill:url(#radial-gradient);}.cls-16,.cls-3,.cls-4{mix-blend-mode:color-dodge;}.cls-3{fill:url(#radial-gradient-2);}.cls-4{fill:url(#radial-gradient-3);}.cls-5{isolation:isolate;}.cls-6{fill:url(#radial-gradient-4);}.cls-8{fill:url(#radial-gradient-5);}.cls-9{fill:url(#radial-gradient-6);}.cls-10{mask:url(#mask-2);}.cls-11{fill:url(#radial-gradient-7);}.cls-12,.cls-23,.cls-29{opacity:0.5;}.cls-12,.cls-14,.cls-17,.cls-18,.cls-20,.cls-21,.cls-22,.cls-35,.cls-36,.cls-39,.cls-40{mix-blend-mode:screen;}.cls-12{fill:url(#radial-gradient-8);}.cls-13{mask:url(#mask-3);}.cls-14{fill:url(#radial-gradient-9);}.cls-15{mask:url(#mask-4);}.cls-16{fill:url(#radial-gradient-10);}.cls-17{fill:url(#radial-gradient-11);}.cls-18{fill:url(#radial-gradient-12);}.cls-19{fill:url(#radial-gradient-13);}.cls-20{fill:url(#radial-gradient-14);}.cls-21{fill:url(#radial-gradient-15);}.cls-22{fill:url(#radial-gradient-16);}.cls-24{fill:url(#radial-gradient-17);}.cls-25{fill:url(#radial-gradient-18);}.cls-26{fill:url(#radial-gradient-19);}.cls-27{fill:url(#radial-gradient-20);}.cls-28{fill:url(#radial-gradient-21);}.cls-29{fill:url(#radial-gradient-22);}.cls-30{fill:url(#radial-gradient-23);}.cls-31,.cls-35{opacity:0.4;}.cls-32{fill:url(#linear-gradient);}.cls-33,.cls-36{opacity:0.3;}.cls-33{fill:url(#linear-gradient-2);}.cls-34{fill:url(#radial-gradient-24);}.cls-35{fill:url(#radial-gradient-25);}.cls-37{fill:url(#radial-gradient-26);}.cls-38{opacity:0.2;fill:url(#radial-gradient-27);}.cls-39,.cls-40{opacity:0.9;}.cls-39{fill:url(#radial-gradient-28);}.cls-40{fill:url(#radial-gradient-29);}.cls-41{fill:url(#radial-gradient-30);}.cls-42{filter:url(#luminosity-noclip);}</style><filter id="luminosity-noclip" x="19.59" y="-9024" width="177.05" height="32766" filterUnits="userSpaceOnUse" color-interpolation-filters="sRGB"><feFlood flood-color="#fff" result="bg"/><feBlend in="SourceGraphic" in2="bg"/></filter><mask id="mask" x="19.59" y="-9024" width="177.05" height="32766" maskUnits="userSpaceOnUse"><g class="cls-42"/></mask><radialGradient id="radial-gradient" cx="260.59" cy="-339.54" r="509.55" gradientTransform="matrix(0.67, -0.12, 0.12, 0.64, -33.49, 353.76)" gradientUnits="userSpaceOnUse"><stop offset="0"/><stop offset="1" stop-color="#fff"/></radialGradient><radialGradient id="radial-gradient-2" cx="278.2" cy="-272.78" r="105.87" gradientTransform="matrix(0.67, -0.12, 0.12, 0.64, -33.49, 353.76)" gradientUnits="userSpaceOnUse"><stop offset="0.6" stop-color="#fff"/><stop offset="0.64" stop-color="#e9e9e9"/><stop offset="0.74" stop-color="#afafaf"/><stop offset="0.88" stop-color="#535353"/><stop offset="1"/></radialGradient><radialGradient id="radial-gradient-3" cx="3581.95" cy="1414.14" r="46.21" gradientTransform="matrix(-0.68, -0.11, 0.11, -0.65, 2325.64, 1411.55)" xlink:href="#radial-gradient-2"/><radialGradient id="radial-gradient-4" cx="244.41" cy="-335.09" r="173.3" gradientTransform="matrix(0.67, -0.12, 0.12, 0.64, -33.49, 353.76)" gradientUnits="userSpaceOnUse"><stop offset="0.09" stop-color="#fff130"/><stop offset="0.37" stop-color="#ffd814"/><stop offset="0.7" stop-color="#f7c400"/><stop offset="0.94" stop-color="#d8a500"/></radialGradient><radialGradient id="radial-gradient-5" cx="240.77" cy="-282.38" r="108.43" gradientTransform="matrix(0.67, -0.12, 0.12, 0.64, -33.49, 353.76)" gradientUnits="userSpaceOnUse"><stop offset="0.53" stop-color="#fff"/><stop offset="0.76" stop-color="#ffd814"/><stop offset="0.85" stop-color="#f7c400"/><stop offset="0.94" stop-color="#d8a500"/></radialGradient><radialGradient id="radial-gradient-6" cx="269.52" cy="-460.12" r="55.15" xlink:href="#radial-gradient-5"/><filter id="luminosity-noclip-2" x="19.59" y="103.47" width="177.05" height="153.46" filterUnits="userSpaceOnUse" color-interpolation-filters="sRGB"><feFlood flood-color="#fff" result="bg"/><feBlend in="SourceGraphic" in2="bg"/></filter><mask id="mask-2" x="19.59" y="103.47" width="177.05" height="153.46" maskUnits="userSpaceOnUse"><g class="cls-1"><path class="cls-2" d="M194.48,103.47c3.83,19.12-2.34,34.75-7.44,48.62-6.37,17.35-12.27,25.42-15.89,47.61S152.77,215.47,153,187.15s-6.9-41.85-6.9-41.85c1.49,65.14-13.76,81.68-38.38,84.83s-48.39-44-59.42-71.11c4.82,25.69,12.82,68.23,7.15,70-11.87,3.69-18.78-19.06-34.1-39.43l-1.77-2.37a97.09,97.09,0,0,1,12.47,31.26c6.25,28.3,30.28,35.77,37.1,34.82a15,15,0,0,0,10.19-6.64s14.37,10.68,32.48,10.25,22.49-9.14,24.66-12.29,6.34-4.7,16.57-4.31c17.11.35,19.66-7.14,28.76-20,8-12.36,7.43-25.56,6-40.1-1.93-27,12.77-47.57,7.81-72.08C195.3,106.49,194.91,105,194.48,103.47Z"/></g></mask><radialGradient id="radial-gradient-7" cx="241.93" cy="-429.42" r="290.44" xlink:href="#radial-gradient-5"/><radialGradient id="radial-gradient-8" cx="358.22" cy="-212.2" r="244.47" gradientTransform="matrix(0.67, -0.12, 0.12, 0.64, -33.49, 353.76)" gradientUnits="userSpaceOnUse"><stop offset="0.52"/><stop offset="0.68" stop-color="#f9e502"/><stop offset="0.81" stop-color="#fff"/><stop offset="1"/></radialGradient><mask id="mask-3" x="50.56" y="82.08" width="95.15" height="127.22" maskUnits="userSpaceOnUse"><path class="cls-3" d="M141.82,148.19c-4.71,29.15-49.9,63.36-66,61s-28.71-47.37-24-76.5S73.52,87.2,89.54,84.22C158.65,71.4,146.53,119.06,141.82,148.19Z"/></mask><radialGradient id="radial-gradient-9" cx="179.63" cy="-302.93" r="88.4" gradientTransform="matrix(0.67, -0.12, 0.12, 0.64, -33.49, 353.76)" gradientUnits="userSpaceOnUse"><stop offset="0.06" stop-color="#fff"/><stop offset="0.23" stop-color="#f2cec9"/><stop offset="0.4" stop-color="#e5a197"/><stop offset="0.46" stop-color="#d7978e"/><stop offset="0.57" stop-color="#b37e76"/><stop offset="0.72" stop-color="#77544f"/><stop offset="0.9" stop-color="#271b19"/><stop offset="0.98"/></radialGradient><mask id="mask-4" x="43.74" y="98.68" width="48.35" height="51.05" maskUnits="userSpaceOnUse"><path class="cls-4" d="M51.66,115.33C58.06,104,81.87,96.19,88.15,99.41s4.58,23.49-1.81,34.82S70.45,149.92,63.4,148.92C33,144.58,45.27,126.66,51.66,115.33Z"/></mask><radialGradient id="radial-gradient-10" cx="3548.89" cy="1400.67" r="38.59" gradientTransform="matrix(-0.68, -0.11, 0.11, -0.65, 2325.64, 1411.55)" xlink:href="#radial-gradient-9"/><radialGradient id="radial-gradient-11" cx="74.69" cy="-376.83" r="122.38" gradientTransform="matrix(0.67, -0.12, 0.12, 0.64, -33.49, 353.76)" gradientUnits="userSpaceOnUse"><stop offset="0.25" stop-color="#fff"/><stop offset="0.59" stop-color="#ecdc02"/><stop offset="0.69" stop-color="#ecbe02"/><stop offset="0.98"/></radialGradient><radialGradient id="radial-gradient-12" cx="442.69" cy="-362.15" r="119.9" gradientTransform="matrix(0.67, -0.12, 0.12, 0.64, -33.49, 353.76)" gradientUnits="userSpaceOnUse"><stop offset="0.25" stop-color="#fff"/><stop offset="0.53" stop-color="#ecdc02"/><stop offset="0.69" stop-color="#ecbe02"/><stop offset="0.98"/></radialGradient><radialGradient id="radial-gradient-13" cx="250.6" cy="-405.78" r="69.27" gradientTransform="matrix(0.67, -0.12, 0.12, 0.64, -33.49, 353.76)" gradientUnits="userSpaceOnUse"><stop offset="0.01" stop-color="#719f07"/><stop offset="0.52" stop-color="#38770e"/><stop offset="0.65" stop-color="#38720d"/><stop offset="0.79" stop-color="#36650b"/><stop offset="0.94" stop-color="#344f07"/><stop offset="1" stop-color="#334405"/></radialGradient><radialGradient id="radial-gradient-14" cx="294.09" cy="-384.42" r="29.7" gradientTransform="matrix(0.67, -0.12, 0.12, 0.64, -33.49, 353.76)" gradientUnits="userSpaceOnUse"><stop offset="0.08" stop-color="#719f07"/><stop offset="0.38" stop-color="#38770e"/><stop offset="0.54" stop-color="#365f0a"/><stop offset="0.68" stop-color="#334405"/><stop offset="0.98"/></radialGradient><radialGradient id="radial-gradient-15" cx="195.95" cy="-402.49" r="43.66" xlink:href="#radial-gradient-14"/><radialGradient id="radial-gradient-16" cx="204.99" cy="-368.62" r="12.5" xlink:href="#radial-gradient-14"/><radialGradient id="radial-gradient-17" cx="250.6" cy="-405.78" r="69.28" gradientTransform="matrix(0.67, -0.12, 0.12, 0.64, -33.49, 353.76)" gradientUnits="userSpaceOnUse"><stop offset="0.08" stop-color="#fff"/><stop offset="0.4" stop-color="#38770e"/><stop offset="0.67" stop-color="#334405"/><stop offset="0.89" stop-color="#719f07"/><stop offset="1" stop-color="#fff"/></radialGradient><radialGradient id="radial-gradient-18" cx="250.61" cy="-405.76" r="69.27" xlink:href="#radial-gradient-17"/><radialGradient id="radial-gradient-19" cx="250.6" cy="-405.76" r="69.27" xlink:href="#radial-gradient-17"/><radialGradient id="radial-gradient-20" cx="250.59" cy="-405.84" r="69.33" xlink:href="#radial-gradient-17"/><radialGradient id="radial-gradient-21" cx="250.62" cy="-405.78" r="69.3" xlink:href="#radial-gradient-17"/><radialGradient id="radial-gradient-22" cx="231.05" cy="-321.99" r="62.19" xlink:href="#radial-gradient-17"/><radialGradient id="radial-gradient-23" cx="251.5" cy="-510.22" r="157.45" xlink:href="#radial-gradient-13"/><linearGradient id="linear-gradient" x1="815.65" y1="225.9" x2="792.07" y2="251.71" gradientTransform="translate(-744.53 -68.91) rotate(-10.16)" gradientUnits="userSpaceOnUse"><stop offset="0.01" stop-color="#fff"/><stop offset="0.3" stop-color="#719f07"/><stop offset="0.64" stop-color="#38770e"/><stop offset="0.74" stop-color="#38720d"/><stop offset="0.84" stop-color="#36650b"/><stop offset="0.96" stop-color="#344f07"/><stop offset="1" stop-color="#334405"/></linearGradient><linearGradient id="linear-gradient-2" x1="839.76" y1="248.87" x2="819.98" y2="250.27" xlink:href="#linear-gradient"/><radialGradient id="radial-gradient-24" cx="169.02" cy="-466.73" r="116.04" gradientTransform="matrix(0.67, -0.12, 0.12, 0.64, -33.49, 353.76)" gradientUnits="userSpaceOnUse"><stop offset="0.32" stop-color="#719f07"/><stop offset="0.58" stop-color="#38770e"/><stop offset="0.69" stop-color="#38720d"/><stop offset="0.82" stop-color="#36650b"/><stop offset="0.95" stop-color="#344f07"/><stop offset="1" stop-color="#334405"/></radialGradient><radialGradient id="radial-gradient-25" cx="231.45" cy="-528.13" r="141.02" xlink:href="#radial-gradient-24"/><radialGradient id="radial-gradient-26" cx="169.02" cy="-466.73" r="116.05" xlink:href="#radial-gradient-14"/><radialGradient id="radial-gradient-27" cx="250.27" cy="-382.7" r="7.67" gradientTransform="matrix(0.67, -0.12, 0.12, 0.64, -33.49, 353.76)" gradientUnits="userSpaceOnUse"><stop offset="0.04" stop-color="#fff"/><stop offset="0.19" stop-color="#38770e"/><stop offset="0.39" stop-color="#334405"/><stop offset="0.63" stop-color="#719f07"/><stop offset="1" stop-color="#fff"/></radialGradient><radialGradient id="radial-gradient-28" cx="329.26" cy="-414.28" r="70.39" gradientTransform="matrix(0.67, -0.12, 0.12, 0.64, -33.49, 353.76)" gradientUnits="userSpaceOnUse"><stop offset="0"/><stop offset="0" stop-color="#1c1c1c"/><stop offset="0.01" stop-color="#646464"/><stop offset="0.03" stop-color="#d5d5d5"/><stop offset="0.03" stop-color="#fff"/><stop offset="0.05" stop-color="#eff8e3"/><stop offset="0.1" stop-color="#c7e69c"/><stop offset="0.16" stop-color="#88ca2a"/><stop offset="0.16" stop-color="#84c823"/><stop offset="0.17" stop-color="#80c222"/><stop offset="0.21" stop-color="#5e8f19"/><stop offset="0.26" stop-color="#416311"/><stop offset="0.31" stop-color="#2a3f0b"/><stop offset="0.36" stop-color="#172406"/><stop offset="0.41" stop-color="#0a1003"/><stop offset="0.46" stop-color="#030401"/><stop offset="0.51"/></radialGradient><radialGradient id="radial-gradient-29" cx="190.35" cy="-418.14" r="80.49" xlink:href="#radial-gradient-28"/><radialGradient id="radial-gradient-30" cx="267.34" cy="-352.11" r="267.96" xlink:href="#radial-gradient-5"/></defs><title>peper1</title><g class="cls-5"><g id="Layer_2" data-name="Layer 2"><g id="Layer_1-2" data-name="Layer 1"><path class="cls-6" d="M31.14,88.41S51.62,57.58,77.52,64.54c15.68,4.62,24.47,3.11,35.05-2.8s35.26-8.07,44.69,12.87c16.27.17,33.4,9,38.36,33.49s-9.74,45-7.81,72.08c1.44,14.54,2,27.74-6,40.1-9.1,12.89-11.65,20.38-28.76,20-10.23-.39-14.42,1.14-16.57,4.31s-6.54,11.86-24.66,12.29-32.48-10.25-32.48-10.25a15,15,0,0,1-10.19,6.64c-6.82.95-30.85-6.52-37.1-34.82-3.73-17.38-10-28.11-21.29-45.08s-13.55-41.07-7.43-60.59C10.62,94.44,22,89.46,31.14,88.41Z"/><g class="cls-7"><path class="cls-8" d="M31.28,88.34c21.1,2.39,22.37,13.37,16.22,27.71s-2.92,33.23.82,45.88c-2.23-31.72-3.31-57.09,28.81-67,13.25-4,36.92-7.47,51,3.92,7.46,7.41,13.13,18.63,17.74,45.64C143.25,117.1,139,109.65,133.4,101S130,76.32,157.46,74.64c-11.46-3.3-30.42,7.46-39.27.07-6.47-5.4-3.93-13.41,6.34-16.68a34.61,34.61,0,0,0-12,3.71c-10.58,5.91-19.37,7.42-35,2.8A29.89,29.89,0,0,0,72,63.6C72.12,79,59.06,80.3,31.28,88.34Z"/><path class="cls-9" d="M129.52,80.35c6.67-5.49-5.3,1.57-17.09-7.09-3.9-2.75-5.66-5.77-4.57-9.14-8.69,3.84-17,4.34-30.34.42l-1-.24c-.91,4.73-4.58,16.54-18.88,19-12.61,1.83-5.21,3.9-2.81,5.5s4,8,.18,14-7,14.69,7-.87a13.33,13.33,0,0,1,3-1.63,51.51,51.51,0,0,1,12.09-5.35c11.3-3.37,30.2-6.42,44.22-.16,0,0,0,0,0,0C120.49,91.9,122.85,85.83,129.52,80.35Z"/></g><g class="cls-7"><g class="cls-10"><path class="cls-11" d="M194.48,103.47c3.83,19.12-2.34,34.75-7.44,48.62-6.37,17.35-12.27,25.42-15.89,47.61S152.77,215.47,153,187.15s-6.9-41.85-6.9-41.85c1.49,65.14-13.76,81.68-38.38,84.83s-48.39-44-59.42-71.11c4.82,25.69,12.82,68.23,7.15,70-11.87,3.69-18.78-19.06-34.1-39.43l-1.77-2.37a97.09,97.09,0,0,1,12.47,31.26c6.25,28.3,30.28,35.77,37.1,34.82a15,15,0,0,0,10.19-6.64s14.37,10.68,32.48,10.25,22.49-9.14,24.66-12.29,6.34-4.7,16.57-4.31c17.11.35,19.66-7.14,28.76-20,8-12.36,7.43-25.56,6-40.1-1.93-27,12.77-47.57,7.81-72.08C195.3,106.49,194.91,105,194.48,103.47Z"/></g></g><path class="cls-12" d="M89.2,96.28S52.4,98,49.6,133.9c.08,39.94,31.26,88.67,51,86.88C125.65,218.53,155.21,88.9,89.2,96.28Z"/><g class="cls-13"><path class="cls-14" d="M125.66,145.37c-5.79,42-37,46.73-53.19,44.36s-25.4-27.92-20.67-57S73.41,81.85,89.54,84.22,132.27,97.46,125.66,145.37Z"/></g><g class="cls-15"><path class="cls-16" d="M57.88,118.73c8.8-16.47,22.38-14.08,28.66-10.86s6.19,15-.2,26.36-16.66,17.9-22.94,14.69S47.84,137.54,57.88,118.73Z"/></g><path class="cls-17" d="M21,94.08S-2.3,108.88,4.88,147,47,219.53,46.32,205s-20.29-46.36-5.4-82.1C49.6,102,34.72,85.07,21,94.08Z"/><path class="cls-18" d="M147.43,90.71s14.69,21,18.6,46.22,35.86-8,24.5-35.55C176.94,68.42,130.17,73.28,147.43,90.71Z"/><path class="cls-19" d="M126.38,79.86c-.67-1.25-3.34-.69-8.91-2-5.32-1.74-6.76-4.66-7.83-4.48s-3,2.51-8.78,4S82.28,79,78.94,77.18s-3.44-2.38-5.88-2.91-.15,3.34-4.88,7-13.61,4.33-13.61,4.33c-2.38-.46,5.33,4.12,4.72,7.39s.22,6.8-1.26,8.23,0,0,4,.65a77,77,0,0,1,26-9.52l.89-.16c2-.33,4.1-.73,6.18-.88a22.5,22.5,0,0,1,3.18,0h0a31.11,31.11,0,0,1,6.68.17,82,82,0,0,1,13.36,2C117.94,89.5,127.07,81.13,126.38,79.86Z"/><path class="cls-20" d="M101,80.65a47.45,47.45,0,0,0,6.79-4.56c3.07-2.56,1.85.36,2.11,2.7s2.92,4.25,6.4,3.81,1.77,2.76-4.45,2.8S99.41,81.43,101,80.65Z"/><path class="cls-21" d="M60.76,85.65s3.59.49,9.86-2.13.88,3.41-3.19,4.1S57.29,85.79,60.76,85.65Z"/><path class="cls-22" d="M67.1,94.57s-3.42,2.35-5.42,3.84-.2,1,4.68-.67S68.17,93.88,67.1,94.57Z"/><g class="cls-23"><path class="cls-24" d="M104.39,76.27a29,29,0,0,1-3.53,1.18c-5.27,1.38-16.18,1.56-20.7.21C84.73,81.74,93,85.53,104.39,76.27Z"/><path class="cls-25" d="M72.67,74.22c-1.78,0,0,3.62-4.49,7.07-3.17,2.47-8.25,3.57-11.23,4l5.31-.39C74.13,84.21,73.77,77.73,72.67,74.22Z"/><path class="cls-26" d="M124.89,79.05c-1.42-.27-3.8-.33-7.42-1.16a17,17,0,0,1-6.1-3.44C111.57,78.51,113.59,84.59,124.89,79.05Z"/><path class="cls-27" d="M123.58,84.24c-6,1.72-12.33,4.56-5.09,7.87C119.15,89.81,121.58,86.76,123.58,84.24Z"/><path class="cls-28" d="M64.1,89.74c-1.23-1.91-5.31-2.58-8.88-2.8,1.64,1.53,4.45,4,4.07,6.07-.47,2.5-.09,5.13-.54,6.88C64.67,94.14,66.16,93,64.1,89.74Z"/></g><path class="cls-29" d="M112,86.77c-5.5-1-15.06-4.67-15.06-4.67l-22,4.24s-5.13,3.78-8.22,4.79,1.88,3.3,6.69,4.65a107.29,107.29,0,0,1,11-2.61,43.05,43.05,0,0,1,4.52-1c2-.33,4.1-.73,6.18-.88a24.1,24.1,0,0,1,3.18,0h0a32.37,32.37,0,0,1,5.74.05,46.52,46.52,0,0,1,7.66.76C115.09,88.65,117.46,87.77,112,86.77Z"/><path class="cls-30" d="M104.7,84.81C97.41,82,96.24,75.8,95,70.23S91.94,53,79.52,31.48C64.24,3.62,50.87.93,45.32.05s-13.61,8.79-11,23.39S42.72,36.06,44.94,34s7.75-2.15,14.64,1.31C76.84,46,82.52,67,82.36,74.45S69.26,89.59,67.75,90.84,75,95.9,75,95.9a60.43,60.43,0,0,1,16-4,41.31,41.31,0,0,1,4.15-.54,22.5,22.5,0,0,1,3.18,0h0a30.37,30.37,0,0,1,6.6.17c2.53-.8,7.52-2.5,7.21-3.26C111.67,87.18,110.28,87.2,104.7,84.81Z"/><g class="cls-31"><path class="cls-32" d="M104.7,84.81A13.39,13.39,0,0,1,101,82.74,4.45,4.45,0,0,0,102.36,84c5.46,3,6.19,4.48-1.73,3.17S100,91.23,95.36,90s-7.22-2.54-12.76.19S71.87,92.5,81.35,86c9.87-8.11,5.88-25.63-8-46.53S51.06,25.07,50.15,12.82C49.67,6.28,47.9,2.41,46.36.23l-1-.18c-5.54-.87-13.61,8.79-11,23.39S42.72,36.06,44.94,34s7.75-2.15,14.64,1.31C76.84,46,82.52,67,82.36,74.45S69.26,89.59,67.75,90.84,75,95.9,75,95.9a60.43,60.43,0,0,1,16-4,41.31,41.31,0,0,1,4.15-.54,22.5,22.5,0,0,1,3.18,0h0a30.37,30.37,0,0,1,6.6.17c2.53-.8,7.52-2.5,7.21-3.26C111.67,87.18,110.28,87.2,104.7,84.81Z"/></g><path class="cls-33" d="M78.7,53.57c-2.94-9.84-17.27-22.68-21.27-24.28s-9,.51-8.34-5.19c.8-13.2-3-20.65-5.38-24C38.36,1,32,10.2,34.28,23.44,36.85,38.06,42.72,36.06,44.94,34s7.75-2.15,14.64,1.31C76.84,46,82.52,67,82.36,74.45S69.26,89.59,67.75,90.84a.44.44,0,0,0-.14.51c5-1.76,7.74-3.51,13.49-8.84C87.93,76.18,81.62,63.41,78.7,53.57Z"/><path class="cls-34" d="M43.48.49a3.91,3.91,0,0,0-1.31.08c-4.94,2.24-10,10.89-7.89,22.87C36.49,36,41.11,36.29,43.79,34.85,51.74,28.08,47.29,1,43.48.49Z"/><path class="cls-35" d="M50.17,2.47s.54,3.94,3.06,5S72.74,18.08,87.86,52.41c7,20.85,3.46,5.11,1.62.46S75.92,25.8,69.46,17,49.8.51,50.17,2.47Z"/><g class="cls-36"><path class="cls-37" d="M43.48.49a3.91,3.91,0,0,0-1.31.08c-4.94,2.24-10,10.89-7.89,22.87,1.53,8.66,4.2,11.49,6.59,11.93-1.53-1.92-3-5.3-3.35-11.17C36.91,11.71,39.63,9.44,41,15.81s4.34-1.94.12-6-.19-6,1.61-6.5,6.2,7.87,5.38,17.76a15.38,15.38,0,0,0,0,2.24C48.89,13.19,46,.85,43.48.49Z"/></g><path class="cls-38" d="M90.55,71.65s.09,9.11-2.69,12.92C86.22,87.07,93.11,85.23,90.55,71.65Z"/><path class="cls-39" d="M127,59.86a18.42,18.42,0,0,1,5.46-.83c5.29.31,10.29,1.89,13.91,5.78s-5.1,4.28-7.19,4.31c-4,.08-12.82-.31-15.67-3.54C120.91,62.7,123.71,60.84,127,59.86Z"/><path class="cls-40" d="M44,75.9a67.67,67.67,0,0,1,7.94-5.78c5.56-3.6,11.75-6,17.41-5.44,5.5.54,3.85,7.47-4.17,12.77C61,80.2,44.65,87.48,38.34,85.6,34.42,84.43,40.78,78.71,44,75.9Z"/><g class="cls-7"><path class="cls-41" d="M156.43,234.5c-8.39,1.84-9.49-19.8-10.27-39.53-2.13,37.08-13.48,52.73-36.08,56.59S67.51,227.1,55.91,187.7c3.57,21.24,20.9,59.61,9.71,59.93-20.2,1.08-33.56-29.15-33.56-29.15,6.25,28.3,30.28,35.77,37.1,34.82a15,15,0,0,0,10.19-6.64s14.37,10.68,32.48,10.25,22.49-9.14,24.66-12.29,6.34-4.7,16.57-4.31c17.11.35,19.66-7.14,28.76-20,8-12.36,7.43-25.56,6-40.1a79.8,79.8,0,0,1,1-18.45c-4.83,14-6.51,20.4-7.45,39.12C180.38,220.08,164.84,232.67,156.43,234.5Z"/></g></g></g></g></svg>