<svg xmlns="http://www.w3.org/2000/svg" xmlns:xlink="http://www.w3.org/1999/xlink" viewBox="0 0 574.55 477.4"><defs><style>.cls-1{fill:url(#linear-gradient);}.cls-2{fill:url(#linear-gradient-2);}.cls-3{fill:none;stroke:#000;stroke-miterlimit:10;stroke-width:14px;}.cls-4{opacity:0.56;}.cls-5{fill:#82654a;}</style><linearGradient id="linear-gradient" x1="4.53" y1="187.44" x2="570.61" y2="187.44" gradientUnits="userSpaceOnUse"><stop offset="0"/><stop offset="0.12" stop-color="#1c140e"/><stop offset="0.27" stop-color="#38281c"/><stop offset="0.4" stop-color="#493425"/><stop offset="0.5" stop-color="#4f3828"/><stop offset="0.6" stop-color="#4a3425"/><stop offset="0.73" stop-color="#3a291d"/><stop offset="0.87" stop-color="#201710"/><stop offset="1"/></linearGradient><linearGradient id="linear-gradient-2" x1="0.61" y1="325.77" x2="571.66" y2="325.77" xlink:href="#linear-gradient"/></defs><title>plate</title><g id="Layer_2" data-name="Layer 2"><g id="Layer_1-2" data-name="Layer 1"><path class="cls-1" d="M557.08,207.7c-.09-8.9-28.36,69.52-38.29,78.44-59,53-202,114-314,67-81.57-34.23-147-36-185.71-134.44a104.08,104.08,0,0,1-12-30c-7.82-34.35,4.53-62.4,8-70,12.77-27.94,33.6-42.3,57-58,12.93-8.67,41.46-26.21,91-40,20.46-5.69,81.1-20.93,162-14,28.77,2.47,74.49,6.77,128,30,54.14,23.51,77.42,49.55,83,56,13.63,15.79,38.47,44.56,34,81A78.72,78.72,0,0,1,557.08,207.7Z"/><path class="cls-2" d="M569.79,174.14c5,27-.65,80-10,113-7.1,25.09-22.67,77.62-69,121-55.19,51.69-122.21,60.59-163,66a312,312,0,0,1-57,3c-23.64-1-152.07-9.17-220-106-25.16-35.87-34.54-73.25-40-95-9.52-38-10.75-77.91-10-101,14,25.08,43.42,76.67,97,111,66.05,42.32,130.6,44.56,172,46,99.08,3.44,169.46-32.33,184-37C512.73,276.2,552.83,233.31,569.79,174.14Z"/><path class="cls-3" d="M39.08,243.7c-8.72-9.85-33.64-40.7-32-83,2-52.56,43.6-85.14,60-98,23.07-18.08,44.59-25.22,71-34,8.79-2.92,44.86-14.52,107-19,41.35-3,88.43-6.36,148,7,27.92,6.27,66.18,15.23,107,43,23.77,16.18,47.63,32.9,60,65,2.33,6,13.59,36.92,3,73-11.79,40.14-43.18,61.4-70,79-46.78,30.7-90.88,38.87-126,45-44.29,7.74-111,18.62-192-5C113.53,298.76,68.22,268.05,39.08,243.7Z"/><g class="cls-4"><path class="cls-5" d="M66.87,351.62A129.84,129.84,0,0,0,82.53,375,155.14,155.14,0,0,0,101.3,393.4a192.51,192.51,0,0,0,20,14.16c6.77,4.08,13.59,7.83,20.42,11.07s13.67,6.23,20.5,8.83l2.56,1,2.51.91,5,1.8c3.34,1.24,6.73,2.33,10.11,3.42a414.31,414.31,0,0,0,41.14,11,418.34,418.34,0,0,0,84.45,8.8,416.27,416.27,0,0,0,42.49-2.23c7.07-.7,14.09-1.6,21.37-2.8s14.65-2.69,22.14-4.6c-.64-1.12-7.43.44-8.79.7-5.93,1.17-11.73,2.09-17.42,2.83s-11.23,1.28-16.8,1.68-11.13.68-16.73.89c-2.8.11-5.61.06-8.42.09s-5.64,0-8.47-.1l-1.87,0-5.25-.19c-2.28,0-5.07-.33-8.32-.59l-5.21-.48c-1.85-.21-3.8-.48-5.85-.75l-6.45-.91-7-1.25c-4.83-.84-10-2.07-15.4-3.37a262.22,262.22,0,0,1-34.92-11.51,242,242,0,0,1-37-19.2c-3-1.95-6.09-3.91-9.06-6.08s-5.94-4.24-8.86-6.6-5.78-4.73-8.57-7.19-5.49-5.08-8.07-7.82-5-5.53-7.41-8.37c-1.15-1.47-2.27-2.94-3.38-4.41s-2.1-3-3.12-4.54a80,80,0,0,1-9.37-19,51.77,51.77,0,0,1-2.74-19,34.2,34.2,0,0,1,5.07-15.93A50.78,50.78,0,0,0,121.34,321a38.45,38.45,0,0,0-5.62,5.58,37,37,0,0,0-4.34,7,41.65,41.65,0,0,0-3.67,18.6A63.7,63.7,0,0,0,112.87,375c-4.42-1.72-9.2-3.84-14-6.2L95.31,367c-1.18-.62-2.4-1.2-3.53-1.89L85,361.17C76.42,355.87,69.62,350.73,66.87,351.62Z"/></g><g class="cls-4"><path class="cls-5" d="M479.13,330.05c-3.23,0-6.45-.08-9.67-.07l-9.62.25-4.8.13c-1.6.06-3.19.17-4.78.26l-9.55.58c-3.18.2-6.31.54-9.47.81s-6.33.53-9.45.93c-6.24.78-12.53,1.43-18.69,2.41-24.79,3.6-49,8.62-72.52,14.41S284,362,261.34,368.42l-17,4.85c-5.68,1.64-11.45,3.31-17.27,5.05-11.64,3.49-23.53,7.28-35.54,11.66.68,1.09,6.17-.8,7.27-1.18,19.27-6.23,37.52-10.81,55.91-14.95l1.52-.36,4.29-.95c3.73-.8,9.2-1.9,16.1-3.07a413.64,413.64,0,0,1,56.78-5.72c5.79-.21,11.86-.17,18-.06,3.08,0,6.25.22,9.42.37s6.38.35,9.62.65c6.51.62,13.07,1.28,19.73,2.41,3.33.54,6.65,1.08,10,1.76s6.69,1.45,10,2.25c26.65,6.44,52.91,18.45,73.2,36.45.4-10.23-2.6-20.37-9.14-29.94a68,68,0,0,0-12.4-13.55Q460,362.5,458,361c-1.36-1-2.76-2.05-4.21-3q-4.35-2.87-9.29-5.49c3.61-1.74,7.48-3.77,11.31-5.83s7.64-4,11-6.08a85.84,85.84,0,0,0,8.56-5.72C477.57,333.07,479,331.43,479.13,330.05Z"/></g></g></g></svg>