<svg xmlns="http://www.w3.org/2000/svg" viewBox="0 0 1390.4 1390.11"><defs><style>.cls-1{fill:#f99f1e;fill-rule:evenodd;}</style></defs><title>Asset 2</title><g id="Layer_2" data-name="Layer 2"><g id="Layer_1-2" data-name="Layer 1"><path class="cls-1" d="M1347.28,521.29H953.09c-47.78,0-59.34-27.11-24.59-61.69l133.8-133.19A523.55,523.55,0,0,0,695.06,173.76V0a697.63,697.63,0,0,1,490.62,203.3L1328.77,60.82c33.88-33.63,61.34-21.72,61.34,25.19V478.46a43.44,43.44,0,0,1-42.83,42.83ZM0,695.05C0,311.21,311.21,0,695.05,0V173.76c-287.92,0-521.29,233.37-521.29,521.29s233.37,521.29,521.29,521.29v173.77c-383.84,0-695-311.21-695-695.06Zm1217.21,66.47a81.92,81.92,0,0,1,86-66.47,86.93,86.93,0,0,1,85,106c-53.43,339.54-346.22,589.58-689.84,589.06h-3.38V1216.34h3c262.82.44,485.07-194.26,519.21-454.82Z"/></g></g></svg>