
<svg xmlns="http://www.w3.org/2000/svg" viewBox="0 0 140.69 99.33"><defs><style>
  
  
.cls-3{
  animation:cry 5s ease-in-out infinite;
  animation-delay:1s;
  opacity:0;
}
.cls-4{
  fill:#5ce1ff;
  animation:cry1 2s ease-in-out infinite;
   animation-delay:2.5s;
    opacity:0
}
.cls-5{
  fill:#5ce1ff;
  animation:cry2 2s ease-in-out infinite;
   animation-delay:2s;
    opacity:0
}
@keyframes cry{
  0%{
    rx:6px;
    ry:1px;
    opacity:1
  }
  50%{
    rx:17px;
    ry:5px;
    opacity:1
  }
  100%{
    rx:4px;
    ry:1px;
    opacity:1
  }
}
@keyframes cry1{
  0%{
    cy:35px;
    rx:6px;
    ry:1px;
    opacity:1
    
  }
  100%{
    cy:59px;
    opacity:1
  }
}
@keyframes cry2{
  0%{
    cy:35px;
    rx:6px;
    ry:1px;
    opacity:1
    
  }
  100%{
    cy:88px;
    opacity:1
  }
}
  
  
  .cls-1{fill:none;stroke:#000;stroke-miterlimit:10;stroke-width:3px;}.cls-1,.cls-2{fill-rule:evenodd;}.cls-2{fill:silver;}.cls-3{fill:#5ce1ff;}</style></defs><title>sad</title><g id="Layer_2" data-name="Layer 2"><g id="Layer_1-2" data-name="Layer 1"><circle cx="17.86" cy="17.86" r="17.86"/><circle cx="122.79" cy="19.68" r="17.86"/><path class="cls-1" d="  M 93.45 78.22 a 24.78 24.78 0 0 0 -48 -1.19">
    
</path><path class="cls-2" d="M119.87,20.53a5.48,5.48,0,0,1-5.29,5.41,5.69,5.69,0,0,1-5.65-5.54,5.71,5.71,0,0,1,5.6-5.59A5.5,5.5,0,0,1,119.87,20.53Z"/><path class="cls-2" d="M14.81,20.53a5.47,5.47,0,0,1-5.29,5.41A5.68,5.68,0,0,1,3.88,20.4a5.69,5.69,0,0,1,5.59-5.59A5.49,5.49,0,0,1,14.81,20.53Z"/><path class="cls-2" d="M135.89,11.54a5.87,5.87,0,0,1-5.67,5.8,6.09,6.09,0,0,1-6-5.94,6.1,6.1,0,0,1,6-6A5.89,5.89,0,0,1,135.89,11.54Z"/><path class="cls-2" d="M27.58,11.54a5.86,5.86,0,0,1-5.67,5.8,6.09,6.09,0,0,1-6.05-5.94,6.11,6.11,0,0,1,6-6A5.89,5.89,0,0,1,27.58,11.54Z"/><ellipse class="cls-3" cx="123.19" cy="35.76" rx="17.5" ry="5.95"/><ellipse class="cls-3" cx="17.86" cy="32.7" rx="17.5" ry="5.95"/><ellipse class="cls-4" cx="122.79" cy="59.86" rx="4.35" ry="10.65"/><ellipse class="cls-5" cx="124.17" cy="88.67" rx="4.35" ry="10.65"/><ellipse class="cls-4" cx="16.04" cy="58.72" rx="4.35" ry="10.65"/></g></g></svg>

