<svg xmlns="http://www.w3.org/2000/svg" xmlns:xlink="http://www.w3.org/1999/xlink" viewBox="0 0 498.79 183.06"><defs><style>.cls-1{isolation:isolate;}.cls-2{fill:url(#Áåçûìÿííûé_ãðàäèåíò_1233);}.cls-15,.cls-22,.cls-23,.cls-3,.cls-4,.cls-8{opacity:0.92;}.cls-15,.cls-22,.cls-23,.cls-3,.cls-34,.cls-35,.cls-36,.cls-37,.cls-38,.cls-39,.cls-4,.cls-40,.cls-41,.cls-42,.cls-8{mix-blend-mode:multiply;}.cls-3{fill:url(#Áåçûìÿííûé_ãðàäèåíò_1261);}.cls-4{fill:url(#Áåçûìÿííûé_ãðàäèåíò_1260);}.cls-5{fill:url(#Áåçûìÿííûé_ãðàäèåíò_1233-2);}.cls-6{opacity:0.16;}.cls-11,.cls-14,.cls-16,.cls-18,.cls-24,.cls-27,.cls-28,.cls-43,.cls-44,.cls-45,.cls-46,.cls-47,.cls-48,.cls-49,.cls-50,.cls-51,.cls-52,.cls-53,.cls-6,.cls-9{mix-blend-mode:screen;}.cls-7{fill:#ffdaa6;}.cls-8{fill:url(#Áåçûìÿííûé_ãðàäèåíò_1263);}.cls-9{opacity:0.69;}.cls-10{fill:url(#Áåçûìÿííûé_ãðàäèåíò_1258);}.cls-11{opacity:0.72;fill:url(#Áåçûìÿííûé_ãðàäèåíò_1259);}.cls-12,.cls-19{fill:#fff;}.cls-12{opacity:0.76;}.cls-13{fill:url(#Áåçûìÿííûé_ãðàäèåíò_1233-3);}.cls-14{opacity:0.38;}.cls-15{fill:url(#Áåçûìÿííûé_ãðàäèåíò_1260-2);}.cls-16{opacity:0.86;}.cls-17{fill:url(#Áåçûìÿííûé_ãðàäèåíò_1258-2);}.cls-18{fill:url(#Áåçûìÿííûé_ãðàäèåíò_1259-2);}.cls-20{fill:url(#Áåçûìÿííûé_ãðàäèåíò_1233-4);}.cls-21{fill:url(#Áåçûìÿííûé_ãðàäèåíò_1233-5);}.cls-22{fill:url(#Áåçûìÿííûé_ãðàäèåíò_1267);}.cls-23{fill:url(#Áåçûìÿííûé_ãðàäèåíò_1267-2);}.cls-24{opacity:0.64;}.cls-25{fill:url(#Áåçûìÿííûé_ãðàäèåíò_1268);}.cls-26{fill:url(#Áåçûìÿííûé_ãðàäèåíò_1268-2);}.cls-27{fill:url(#Áåçûìÿííûé_ãðàäèåíò_1259-3);}.cls-28{fill:url(#Áåçûìÿííûé_ãðàäèåíò_1259-4);}.cls-29{fill:url(#Áåçûìÿííûé_ãðàäèåíò_500);}.cls-30{fill:url(#Áåçûìÿííûé_ãðàäèåíò_502);}.cls-31{fill:url(#Áåçûìÿííûé_ãðàäèåíò_501);}.cls-32{fill:url(#Áåçûìÿííûé_ãðàäèåíò_498);}.cls-33{fill:url(#Áåçûìÿííûé_ãðàäèåíò_498-2);}.cls-34,.cls-35,.cls-36,.cls-37,.cls-38{opacity:0.68;}.cls-34{fill:url(#Áåçûìÿííûé_ãðàäèåíò_510);}.cls-35{fill:url(#Áåçûìÿííûé_ãðàäèåíò_510-2);}.cls-36{fill:url(#Áåçûìÿííûé_ãðàäèåíò_510-3);}.cls-37{fill:url(#Áåçûìÿííûé_ãðàäèåíò_510-4);}.cls-38{fill:url(#Áåçûìÿííûé_ãðàäèåíò_510-5);}.cls-39,.cls-40,.cls-41,.cls-42{opacity:0.28;}.cls-39{fill:url(#Áåçûìÿííûé_ãðàäèåíò_511);}.cls-40{fill:url(#Áåçûìÿííûé_ãðàäèåíò_511-2);}.cls-41{fill:url(#Áåçûìÿííûé_ãðàäèåíò_511-3);}.cls-42{fill:url(#Áåçûìÿííûé_ãðàäèåíò_511-4);}.cls-43,.cls-44,.cls-45,.cls-53{opacity:0.65;}.cls-43{fill:url(#Áåçûìÿííûé_ãðàäèåíò_630);}.cls-44{fill:url(#Áåçûìÿííûé_ãðàäèåíò_630-2);}.cls-45{fill:url(#Áåçûìÿííûé_ãðàäèåíò_630-3);}.cls-46,.cls-47,.cls-48,.cls-49,.cls-50,.cls-51{opacity:0.46;}.cls-46{fill:url(#Áåçûìÿííûé_ãðàäèåíò_630-4);}.cls-47{fill:url(#Áåçûìÿííûé_ãðàäèåíò_630-5);}.cls-48{fill:url(#Áåçûìÿííûé_ãðàäèåíò_630-6);}.cls-49{fill:url(#Áåçûìÿííûé_ãðàäèåíò_630-7);}.cls-50{fill:url(#Áåçûìÿííûé_ãðàäèåíò_630-8);}.cls-51{fill:url(#Áåçûìÿííûé_ãðàäèåíò_630-9);}.cls-52{fill:#ffc;opacity:0.89;}.cls-53{fill:url(#Áåçûìÿííûé_ãðàäèåíò_630-10);}</style><linearGradient id="Áåçûìÿííûé_ãðàäèåíò_1233" x1="97.22" y1="76.33" x2="10.07" y2="218.19" gradientUnits="userSpaceOnUse"><stop offset="0" stop-color="#cc382c"/><stop offset="0.14" stop-color="#d44325"/><stop offset="0.71" stop-color="#f36e0a"/><stop offset="1" stop-color="#ff7f00"/></linearGradient><linearGradient id="Áåçûìÿííûé_ãðàäèåíò_1261" x1="101.61" y1="66.13" x2="-58.53" y2="159.2" gradientUnits="userSpaceOnUse"><stop offset="0.09" stop-color="#e36900"/><stop offset="0.28" stop-color="#f1b17b"/><stop offset="0.44" stop-color="#fbe9da"/><stop offset="0.51" stop-color="#fff"/></linearGradient><linearGradient id="Áåçûìÿííûé_ãðàäèåíò_1260" x1="97.59" y1="75.74" x2="10.44" y2="217.6" gradientUnits="userSpaceOnUse"><stop offset="0.09" stop-color="#e36900"/><stop offset="0.34" stop-color="#f1b17b"/><stop offset="0.55" stop-color="#fbe9da"/><stop offset="0.65" stop-color="#fff"/></linearGradient><linearGradient id="Áåçûìÿííûé_ãðàäèåíò_1233-2" x1="192.01" y1="29.8" x2="445.08" y2="129.03" xlink:href="#Áåçûìÿííûé_ãðàäèåíò_1233"/><linearGradient id="Áåçûìÿííûé_ãðàäèåíò_1263" x1="107.97" y1="65.33" x2="283.7" y2="65.33" gradientUnits="userSpaceOnUse"><stop offset="0.26" stop-color="#fff"/><stop offset="0.37" stop-color="#fbe9da"/><stop offset="0.61" stop-color="#f1b17b"/><stop offset="0.91" stop-color="#e36900"/></linearGradient><linearGradient id="Áåçûìÿííûé_ãðàäèåíò_1258" x1="235.1" y1="58.43" x2="451" y2="58.43" gradientUnits="userSpaceOnUse"><stop offset="0"/><stop offset="0.09" stop-color="#070606"/><stop offset="0.21" stop-color="#1a1615"/><stop offset="0.36" stop-color="#3a312e"/><stop offset="0.53" stop-color="#655751"/><stop offset="0.72" stop-color="#9e877e"/><stop offset="0.91" stop-color="#e1c0b4"/><stop offset="0.99" stop-color="#ffdacc"/></linearGradient><linearGradient id="Áåçûìÿííûé_ãðàäèåíò_1259" x1="364.56" y1="94.98" x2="439.79" y2="94.98" gradientUnits="userSpaceOnUse"><stop offset="0"/><stop offset="0.13" stop-color="#1c1817"/><stop offset="0.42" stop-color="#645650"/><stop offset="0.85" stop-color="#d7b7ac"/><stop offset="0.99" stop-color="#ffdacc"/></linearGradient><linearGradient id="Áåçûìÿííûé_ãðàäèåíò_1233-3" x1="53.53" y1="27.68" x2="412.47" y2="168.42" xlink:href="#Áåçûìÿííûé_ãðàäèåíò_1233"/><linearGradient id="Áåçûìÿííûé_ãðàäèåíò_1260-2" x1="189.91" y1="75.5" x2="95.33" y2="170.08" xlink:href="#Áåçûìÿííûé_ãðàäèåíò_1260"/><linearGradient id="Áåçûìÿííûé_ãðàäèåíò_1258-2" x1="122.08" y1="88.2" x2="414.75" y2="88.2" xlink:href="#Áåçûìÿííûé_ãðàäèåíò_1258"/><linearGradient id="Áåçûìÿííûé_ãðàäèåíò_1259-2" x1="260.37" y1="129.97" x2="414.14" y2="129.97" xlink:href="#Áåçûìÿííûé_ãðàäèåíò_1259"/><linearGradient id="Áåçûìÿííûé_ãðàäèåíò_1233-4" x1="97.2" y1="97.81" x2="123.52" y2="124.12" xlink:href="#Áåçûìÿííûé_ãðàäèåíò_1233"/><linearGradient id="Áåçûìÿííûé_ãðàäèåíò_1233-5" x1="132.75" y1="126.78" x2="140.2" y2="134.23" xlink:href="#Áåçûìÿííûé_ãðàäèåíò_1233"/><linearGradient id="Áåçûìÿííûé_ãðàäèåíò_1267" x1="91.24" y1="113.22" x2="129.16" y2="113.22" gradientUnits="userSpaceOnUse"><stop offset="0.09" stop-color="#e36900"/><stop offset="0.43" stop-color="#f1b17b"/><stop offset="0.7" stop-color="#fbe9da"/><stop offset="0.83" stop-color="#fff"/></linearGradient><linearGradient id="Áåçûìÿííûé_ãðàäèåíò_1267-2" x1="131.91" y1="131.12" x2="142.87" y2="131.12" xlink:href="#Áåçûìÿííûé_ãðàäèåíò_1267"/><linearGradient id="Áåçûìÿííûé_ãðàäèåíò_1268" x1="127.93" y1="106.67" x2="116.91" y2="117.69" gradientUnits="userSpaceOnUse"><stop offset="0.01" stop-color="#ffdacc"/><stop offset="0.09" stop-color="#e1c0b4"/><stop offset="0.28" stop-color="#9e877e"/><stop offset="0.47" stop-color="#655751"/><stop offset="0.64" stop-color="#3a312e"/><stop offset="0.79" stop-color="#1a1615"/><stop offset="0.91" stop-color="#070606"/><stop offset="1"/></linearGradient><linearGradient id="Áåçûìÿííûé_ãðàäèåíò_1268-2" x1="139.99" y1="126.84" x2="135.43" y2="131.4" xlink:href="#Áåçûìÿííûé_ãðàäèåíò_1268"/><linearGradient id="Áåçûìÿííûé_ãðàäèåíò_1259-3" x1="135.47" y1="128.06" x2="140.97" y2="128.06" xlink:href="#Áåçûìÿííûé_ãðàäèåíò_1259"/><linearGradient id="Áåçûìÿííûé_ãðàäèåíò_1259-4" x1="109.36" y1="108.16" x2="127.63" y2="108.16" xlink:href="#Áåçûìÿííûé_ãðàäèåíò_1259"/><linearGradient id="Áåçûìÿííûé_ãðàäèåíò_500" x1="321.13" y1="4.5" x2="58.77" y2="266.86" gradientUnits="userSpaceOnUse"><stop offset="0.02" stop-color="#f4e2cb"/><stop offset="0.27" stop-color="#eed6be"/><stop offset="0.72" stop-color="#dfb89b"/><stop offset="1" stop-color="#d4a283"/></linearGradient><linearGradient id="Áåçûìÿííûé_ãðàäèåíò_502" x1="4.12" y1="139.33" x2="-48.14" y2="182.24" gradientTransform="matrix(1, -0.1, 0.1, 1, 80.55, -53.69)" gradientUnits="userSpaceOnUse"><stop offset="0" stop-color="#f4e2cb"/><stop offset="0.52" stop-color="#e4c3a8"/><stop offset="1" stop-color="#d4a283"/></linearGradient><linearGradient id="Áåçûìÿííûé_ãðàäèåíò_501" x1="219.58" y1="9.1" x2="187.9" y2="40.78" gradientUnits="userSpaceOnUse"><stop offset="0" stop-color="#f4e2cb"/><stop offset="0.24" stop-color="#efd8bf"/><stop offset="0.66" stop-color="#e1bda1"/><stop offset="1" stop-color="#d4a283"/></linearGradient><linearGradient id="Áåçûìÿííûé_ãðàäèåíò_498" x1="367.05" y1="102.28" x2="342.72" y2="126.6" gradientUnits="userSpaceOnUse"><stop offset="0" stop-color="#f4e2cb"/><stop offset="0.25" stop-color="#f2dfc7"/><stop offset="0.48" stop-color="#eed5bc"/><stop offset="0.7" stop-color="#e5c5aa"/><stop offset="0.91" stop-color="#daae90"/><stop offset="1" stop-color="#d4a283"/></linearGradient><linearGradient id="Áåçûìÿííûé_ãðàäèåíò_498-2" x1="395.43" y1="98.56" x2="383.37" y2="110.62" xlink:href="#Áåçûìÿííûé_ãðàäèåíò_498"/><linearGradient id="Áåçûìÿííûé_ãðàäèåíò_510" x1="421.86" y1="5.74" x2="340.15" y2="87.45" gradientUnits="userSpaceOnUse"><stop offset="0" stop-color="#d4a283"/><stop offset="0.33" stop-color="#d5a485"/><stop offset="0.5" stop-color="#d7a98d"/><stop offset="0.63" stop-color="#dcb39a"/><stop offset="0.74" stop-color="#e3c1ad"/><stop offset="0.84" stop-color="#ebd4c5"/><stop offset="0.93" stop-color="#f5eae3"/><stop offset="1" stop-color="#fff"/></linearGradient><linearGradient id="Áåçûìÿííûé_ãðàäèåíò_510-2" x1="185.71" y1="39.07" x2="134.27" y2="90.51" xlink:href="#Áåçûìÿííûé_ãðàäèåíò_510"/><linearGradient id="Áåçûìÿííûé_ãðàäèåíò_510-3" x1="312.95" y1="-1.66" x2="184.47" y2="126.82" xlink:href="#Áåçûìÿííûé_ãðàäèåíò_510"/><linearGradient id="Áåçûìÿííûé_ãðàäèåíò_510-4" x1="203.48" y1="39.92" x2="90.15" y2="153.25" xlink:href="#Áåçûìÿííûé_ãðàäèåíò_510"/><linearGradient id="Áåçûìÿííûé_ãðàäèåíò_510-5" x1="335.46" y1="13.84" x2="287.62" y2="61.67" xlink:href="#Áåçûìÿííûé_ãðàäèåíò_510"/><linearGradient id="Áåçûìÿííûé_ãðàäèåíò_511" x1="87.41" y1="95.45" x2="68.9" y2="113.96" gradientUnits="userSpaceOnUse"><stop offset="0" stop-color="#fff"/><stop offset="0.07" stop-color="#f5eae3"/><stop offset="0.16" stop-color="#ebd4c5"/><stop offset="0.26" stop-color="#e3c1ad"/><stop offset="0.37" stop-color="#dcb39a"/><stop offset="0.5" stop-color="#d7a98d"/><stop offset="0.67" stop-color="#d5a485"/><stop offset="1" stop-color="#d4a283"/></linearGradient><linearGradient id="Áåçûìÿííûé_ãðàäèåíò_511-2" x1="219.2" y1="9.46" x2="194.32" y2="34.34" xlink:href="#Áåçûìÿííûé_ãðàäèåíò_511"/><linearGradient id="Áåçûìÿííûé_ãðàäèåíò_511-3" x1="366.75" y1="102.57" x2="342.72" y2="126.6" xlink:href="#Áåçûìÿííûé_ãðàäèåíò_511"/><linearGradient id="Áåçûìÿííûé_ãðàäèåíò_511-4" x1="395.33" y1="98.66" x2="383.37" y2="110.62" xlink:href="#Áåçûìÿííûé_ãðàäèåíò_511"/><linearGradient id="Áåçûìÿííûé_ãðàäèåíò_630" x1="104.4" y1="60.54" x2="405.82" y2="60.54" gradientUnits="userSpaceOnUse"><stop offset="0"/><stop offset="0.11" stop-color="#131310"/><stop offset="0.32" stop-color="#464638"/><stop offset="0.64" stop-color="#979779"/><stop offset="1" stop-color="#ffc"/></linearGradient><linearGradient id="Áåçûìÿííûé_ãðàäèåíò_630-2" x1="275.94" y1="52.42" x2="493.66" y2="52.42" xlink:href="#Áåçûìÿííûé_ãðàäèåíò_630"/><linearGradient id="Áåçûìÿííûé_ãðàäèåíò_630-3" x1="28.83" y1="91.71" x2="288.44" y2="91.71" xlink:href="#Áåçûìÿííûé_ãðàäèåíò_630"/><linearGradient id="Áåçûìÿííûé_ãðàäèåíò_630-4" x1="253.6" y1="32.98" x2="373.9" y2="32.98" xlink:href="#Áåçûìÿííûé_ãðàäèåíò_630"/><linearGradient id="Áåçûìÿííûé_ãðàäèåíò_630-5" x1="84.09" y1="55.44" x2="241.04" y2="55.44" xlink:href="#Áåçûìÿííûé_ãðàäèåíò_630"/><linearGradient id="Áåçûìÿííûé_ãðàäèåíò_630-6" x1="73.04" y1="101.72" x2="95.76" y2="101.72" xlink:href="#Áåçûìÿííûé_ãðàäèåíò_630"/><linearGradient id="Áåçûìÿííûé_ãðàäèåíò_630-7" x1="198.34" y1="17.91" x2="230.58" y2="17.91" xlink:href="#Áåçûìÿííûé_ãðàäèåíò_630"/><linearGradient id="Áåçûìÿííûé_ãðàäèåíò_630-8" x1="347.56" y1="110.11" x2="377.82" y2="110.11" xlink:href="#Áåçûìÿííûé_ãðàäèåíò_630"/><linearGradient id="Áåçûìÿííûé_ãðàäèåíò_630-9" x1="387.57" y1="102.49" x2="400.68" y2="102.49" xlink:href="#Áåçûìÿííûé_ãðàäèåíò_630"/><linearGradient id="Áåçûìÿííûé_ãðàäèåíò_630-10" x1="179.02" y1="48.63" x2="373.9" y2="48.63" xlink:href="#Áåçûìÿííûé_ãðàäèåíò_630"/></defs><title>salmon</title><g class="cls-1"><g id="Layer_2" data-name="Layer 2"><g id="Ñëîé_1" data-name="Ñëîé 1"><path class="cls-2" d="M23.55,35.48S8.55,50.22,6.18,60C4.75,65.84,7.16,72,9.29,76A7.74,7.74,0,0,0,16.54,80,139.14,139.14,0,0,0,38,77.33c11.58-2.63,58.43,2.37,85.54,9.21S191,90.23,191,90.23L138.84,29.69Z"/><path class="cls-3" d="M138.84,29.69,23.55,35.48A121.55,121.55,0,0,0,12.84,47.77c9.8-9.64,74.41,17.71,74.41,17.71C56.45,60,2.5,68.91,6.57,58.7c-.14.42-.29.85-.39,1.26C4.75,65.84,7.16,72,9.29,76A7.74,7.74,0,0,0,16.54,80,139.14,139.14,0,0,0,38,77.33c11.58-2.63,58.43,2.37,85.54,9.21S191,90.23,191,90.23Z"/><path class="cls-4" d="M23.55,35.48S8.55,50.22,6.18,60C4.75,65.84,7.16,72,9.29,76A7.74,7.74,0,0,0,16.54,80,139.14,139.14,0,0,0,38,77.33c11.58-2.63,58.43,2.37,85.54,9.21S191,90.23,191,90.23L138.84,29.69Z"/><path class="cls-5" d="M161.67,13S169.38,3.1,186,5.21c15.78,2,44.44,2.68,62.82-4.12A7.83,7.83,0,0,1,254.26,1C269,6.51,338.66,32.6,360.74,43.64,385.48,56,402.59,66.27,423.12,72.33,438.93,77,447.4,83,450.47,90.5a7.62,7.62,0,0,1-3.11,9.21,27.48,27.48,0,0,0-7.39,7.1c-5.53,7.63-22.9,14.48-31.59,18.16s-128.19-6.84-128.19-6.84Z"/><g class="cls-6"><path class="cls-7" d="M427.13,73.63c-1.3-.44-2.59-.88-4-1.3-2.28-.67-4.5-1.42-6.72-2.19,8.15,4.73,16.46,14.56,14.36,22.46a16.25,16.25,0,0,1-1.1,3.1c-2.6-4-6.85-7.81-13.64-11-5.65-2.65-12.83-5.41-20.77-8.22,6.36-3-1.52-12.74-7.87-19.2q-6-3-12.44-6.39c7.63,7.43,17.16,18.5,11.15,22.43-12.35-4.15-25.91-8.37-38.74-12.51,17-.81-4.63-21.08-14-29.16q-5.19-2.13-10.7-4.34c10.51,8.88,33.57,29.82,20,32-12.66-4.13-24.32-8.17-32.93-11.94-4.87-2.13-10.42-4.78-16.33-7.69,13.6-2.26-6-21.85-13.85-29.1L267.1,5.83c2.51,1.86,8.69,7.11,20.2,20.81,5.11,6.08,4.9,9.24,1.11,10.53C264,25,235.13,9.45,221.36,6.14c-2,.13-4,.26-6,.33,21.49,5.74,48.49,19.46,71.45,31.1-9.21,1.63-31.7-3.53-55.31-7.88-37.12-6.85-30.27,0-30.27,0l3.54,21.53,37.6,33.36L315.19,121c20.31,1.59,45.57,3.4,64.76,4.25a23.11,23.11,0,0,0,.53-10.82c-4.64-28.83,27.61-13.45,46.85-14.38a21.92,21.92,0,0,1,1.77,15.28q2-1.16,3.85-2.37a23.93,23.93,0,0,0-1.28-13.49C443.19,96.1,431.89,79.77,427.13,73.63ZM275.19,63.16c-1.11,6.69-52.64-18.47-51.33-25S257,36.53,287,39.69a30.19,30.19,0,0,0,4.3.17c11.38,5.75,21.56,10.79,29.25,13.78,4.4,1.71,9.43,3.55,14.75,5.42-1.18-.16-2.42-.35-3.82-.63C290.46,50.33,276.3,56.46,275.19,63.16Zm47.38,19.43s-36.59-7.1-35.8-15.53,16.27-12.22,51.5-7c15.05,5.22,32,10.58,44.85,14.33-3,.59-7.43.49-14-.68C325.47,65.92,322.57,82.59,322.57,82.59ZM394.22,95c-32.59-5.51-28,5-28,5L334.15,88.2S340.73,68.64,380,76.28c6,1.17,10.12,1.35,12.91.89,2.81.76,5.2,1.37,6.91,1.74,7.8,1.71,20.68,9,26.69,19.47C422.41,99.62,414,98.33,394.22,95Z"/></g><path class="cls-8" d="M161.67,13,280.19,118.13S399.7,128.66,408.38,125c4.82-2,12.29-5.08,18.95-8.67C403.94,128,365.47,92,309.94,70.75S174.11,4.22,186.91,5.32c-.29-.05-.66-.08-.95-.11C169.38,3.1,161.67,13,161.67,13Z"/><g class="cls-9"><path class="cls-10" d="M440,106.81a27.71,27.71,0,0,1,7.39-7.11,7.61,7.61,0,0,0,3.11-9.2C447.4,83,438.93,77,423.12,72.33,402.59,66.27,385.48,56,360.74,43.64,338.66,32.6,269,6.51,254.26,1a7.83,7.83,0,0,0-5.48.07A78.11,78.11,0,0,1,235.1,4.56c17.12-2,43.85,3.31,87.08,31.05,47.38,30.4,63.48,29.46,84.89,34s43.68,34.64,20.26,46.73C432.67,113.43,437.51,110.21,440,106.81Z"/></g><path class="cls-11" d="M402.72,95.62c-14.41,2.77-38.16,13.82-38.16,13.82l11.71,6.79s3.65-14.49,29.07-20,22.56-7.9,25.37-13.82c2.4-5.06,6.61-4.33,9.08-3.11a64.17,64.17,0,0,0-12.34-5.56C439,79,417.08,92.87,402.72,95.62Z"/><path class="cls-12" d="M423.78,91.53c-1.84-.78,4.61-4.83,4.61-3.33S425.62,92.31,423.78,91.53Z"/><path class="cls-13" d="M5.16,38.79a6.18,6.18,0,0,1-5.08-7c.62-3.61,2-7.66,5-8.63,5.79-1.85,37.64.26,65.81-7.9s53.43-13.69,64-15,27,3,84.23,32.64,172.15,65.54,184.79,71.86,11.75,28,9.47,34c-2.63,6.85-68.71,59.24-138,40.3a10,10,0,0,1-6.76-6.56c-2.1-6.48-6.54-17.78-13.56-24.26-10.27-9.48-89.63-52.52-149.65-78.57C47.84,44.57,47,45.85,5.16,38.79Z"/><g class="cls-14"><path class="cls-7" d="M353.09,125.26c9.23-9.2-16.14-37.21-28.32-49-6.48-2.35-13.1-4.77-19.78-7.25a121.4,121.4,0,0,1,19.42,19.9c9.68,12.22,21.69,25.26,19.12,32.29a82.83,82.83,0,0,0-11.48-5c-9.13-3.13-22.7-7.53-38.54-13.44a1.19,1.19,0,0,1-.46-2c7.4-7.47-10.35-32.66-22.83-45.23-6.37-2.55-12.59-5.12-18.61-7.69,16,15,38.07,44.2,34.87,51.21a1.12,1.12,0,0,1-1.43.44c-20.71-8.06-44.38-18.54-66.86-32-8.59-5.14-17.8-10.48-27.34-15.74l1.69.21c23.18,2.55,17.68-16.48,4.85-30.21q-6.7-3.3-12.46-6c6.35,9.59,22.38,35.43,10.51,34.9-2.56-.11-5.2-.44-7.84-.75a1.36,1.36,0,0,1-.43-.14C150.66,30,109.9,12.14,80.15,13.34l-8.67,1.71c-2.85.84-5.75,1.55-8.65,2.19C129.62,19.58,148.12,29.87,170,44.63a1.23,1.23,0,0,1-.89,2.23c-24.31-5.15-52.63-13.62-88.45-14.34-49.51-1-34,5.38-33.06,14.45,5.34,1.49,10.94,3.34,17.76,5.92-2.18-3.45-5.54-9.46-2.21-11,17.93-8.09,78.7,2.9,114.78,8.19a1.07,1.07,0,0,1,.46.17c25.37,16.76,65,34.53,87.71,44.54,4,1.77,8.84,3.66,14.14,5.63-17.8-2.42-64.79-18.89-100.87-27.6-32.44-7.84-40,1.58-37.31,13.51,7.56,3.63,15.14,7.34,22.61,11.08-2.77-7.17-4.2-14.46,1.8-14.59,11.85-.27,83.33,12,111.61,19a32,32,0,0,0,8.53,1.08.91.91,0,0,1,.4.06c17.45,6.34,38.44,13.51,54.38,20.94-3.59,2.53-11.35,3.36-25.41,1.61-40.88-5.08-93.92-12-100.25-1.32,9.63,5.29,18,10.11,24.67,14.11-5.24-13.41,1.8-11.75,29.52-12,28.69-.26,55.25.81,69.49,1.84a29.42,29.42,0,0,0,8.91-.48,1.2,1.2,0,0,1,.83.11,72.43,72.43,0,0,1,9.36,5.84c11.7,8.93,11.09,25,9,35.69q2.38-1.06,4.7-2.16c3.44-16.84-6.15-30.57-19.1-40A1.2,1.2,0,0,1,353.09,125.26Z"/></g><path class="cls-15" d="M279.53,158.4c-10.66-28.42-26-35.14-93.18-66.87C119.45,59.9,8.64,17,2,26a18.08,18.08,0,0,0-1.9,5.73,6.18,6.18,0,0,0,5.07,7.05C47,45.85,47.84,44.57,105.41,69.57c60,26.05,139.38,69.09,149.64,78.57,7,6.48,11.47,17.78,13.57,24.26a10,10,0,0,0,6.76,6.56,121.13,121.13,0,0,0,45.21,3.31C314.91,182.78,289,183.66,279.53,158.4Z"/><g class="cls-16"><path class="cls-17" d="M413.38,138.66c2.28-5.91,3.16-27.64-9.47-33.95S276.38,62.46,219.12,32.85s-73.7-34-84.23-32.64c-3.07.38-7.52,1.16-12.81,2.22C149.89-2,160.4,8.87,190.7,43.51,225.59,83.38,302.44,81.41,348.55,96s55,59.21,0,80.38C385.2,165.1,411.74,143,413.38,138.66Z"/></g><path class="cls-18" d="M403.91,104.71c-2.54-1.27-9.26-3.76-18.77-7.13,11.8,5.71,22.65,10-2.38,23.65-36.15,19.68-106.27,30-118.34,13.18-1.6-2.23-2.93-3.3-4.05-3.53,9.43,7.66,14.74,15.72,19.16,27.52a42.52,42.52,0,0,0,1.75,4c-7-19.49,56.73-7.54,79.59-24.07s49.36-33.58,53.27-16.95C413,114.54,410.07,107.79,403.91,104.71Z"/><path class="cls-19" d="M394.83,119.05c-3.2-3.35,7.1-8.16,10-5.66S397.46,121.82,394.83,119.05Z"/><path class="cls-19" d="M352.6,142.64c-1.53-2.23,11.09-12.79,11.92-7.64S353.68,144.2,352.6,142.64Z"/><path class="cls-19" d="M350.88,143.17c.15-1.78-9.35-.22-8.1,2.18S350.63,146.24,350.88,143.17Z"/><path class="cls-12" d="M430.32,83.29c-1-1,.38-3.81,1.6-2.78S431.33,84.25,430.32,83.29Z"/><path class="cls-20" d="M96.61,118.79a79.47,79.47,0,0,1-5.13-11.57,4.65,4.65,0,0,1,4-6.14c8-.57,23-1,29.87,3.18a4.25,4.25,0,0,1,1.78,2.6,78.86,78.86,0,0,1,1.93,9.07,4.61,4.61,0,0,1-3.2,5c-3.6,1.13-9.52,2.92-13.87,4a4.59,4.59,0,0,1-2.24,0,54.44,54.44,0,0,1-11.39-4.33A4.48,4.48,0,0,1,96.61,118.79Z"/><path class="cls-21" d="M134.1,135c4.29,1.65,9.48-2.91,8.69-5s-6.32-4.75-8.69-4.21S130.68,133.66,134.1,135Z"/><path class="cls-22" d="M109.36,108.39c-4.07-.37-17-5.7-14.55-7.08a4.58,4.58,0,0,0-3.33,5.91,79.47,79.47,0,0,0,5.13,11.57,4.48,4.48,0,0,0,1.8,1.86A54.44,54.44,0,0,0,109.8,125a4.47,4.47,0,0,0,2.24,0c1.06-.26,2.22-.57,3.42-.9C106.29,126,113.7,108.79,109.36,108.39Z"/><path class="cls-23" d="M134.1,135c2.79,1.07,5.93-.48,7.59-2.27-2.89,2.78-9.14-2.81-8.85-5.8C131.51,129.14,131.39,133.93,134.1,135Z"/><g class="cls-24"><path class="cls-25" d="M129.11,115.93a78.86,78.86,0,0,0-1.93-9.07,4.25,4.25,0,0,0-1.78-2.6,20.64,20.64,0,0,0-5.91-2.19c4.07,1.61,5.49,4.41,3.3,7.24-3.15,4.07,8,10.34-1.25,13l4.37-1.34A4.61,4.61,0,0,0,129.11,115.93Z"/></g><g class="cls-24"><path class="cls-26" d="M142.79,130c-.79-2.1-6.32-4.75-8.69-4.21a2.23,2.23,0,0,0-1.26,1.15,5.41,5.41,0,0,0,1.66,3.56c-2.39-4.54,9.48-2.11,8,1.11A2.06,2.06,0,0,0,142.79,130Z"/></g><path class="cls-27" d="M135.55,126.91c.51-1,5.75.9,5.41,2.15S134.7,128.51,135.55,126.91Z"/><path class="cls-28" d="M109.36,108.39c1.28.12,1.53,1.71,1.49,3.83.92-5.7,7.85-2.18,10.42-3.76s5.59-3.29,6.36.16c-.16-.65-.32-1.26-.45-1.76a4.25,4.25,0,0,0-1.78-2.6c-.1-.06-.24-.1-.34-.15C129.48,107,114.82,109.39,109.36,108.39Z"/><path class="cls-29" d="M37.31,93.87S10.26,83.21,10.46,64.46s26.77-21.34,58.43-6.72C148.85,94.66,214,97.21,214,97.21s-30.91-12.66-76.71-26.1S76.59,36.22,84.09,22.8s27.54-6.49,92,13.42c66.47,20.54,184.39,19.35,184.39,19.35a441.47,441.47,0,0,0-66.07-14.08c-35-4.48-50.54-14.48-37.9-25.8s49.3-3,74,6.32c45,17.11,85,11.58,130,22.11s47.9,46.59,21.32,49.75S446,86,446,86s13.69,3.69,20.79-5-56.59-42.38-181.1-52.91c0,0,18.69,4,39.42,6.39s66.53,8.88,78.77,34.94S367.05,94,337.18,93.48c-33.75-.6-112.26-13.3-168.33-30.67s-61.07-16.06-59.62-12.24c2.52,6.65,43.76,15.27,116,28.1,62.69,11.13,68.63,33.7,60.21,43.23-10.92,12.38-108.78,5.73-176.69-20.72S32.05,74.25,29,76.89C22.89,82.22,37.31,93.87,37.31,93.87Z"/><path class="cls-30" d="M70.4,107.74c31.17,4.13,32.65-2.81,17.08-7.82S42.87,104.1,70.4,107.74Z"/><path class="cls-31" d="M202.35,28.92c44.42,3.15,30-17,5.33-17.18S169,26.55,202.35,28.92Z"/><path class="cls-32" d="M355.94,120.32c39.47,1.26,16.19-16,2.76-16.58S306.19,118.75,355.94,120.32Z"/><path class="cls-33" d="M389.23,107.75c19.34.72,10.46-8.09,1.18-8.09S368.1,107,389.23,107.75Z"/><path class="cls-34" d="M479.85,63.73c-16.58-16.32-74.62-18.29-111.34-26.58s-55.94-17.64-77.78-20.67-18.69,9.22-5,11.58C410.23,38.59,473.93,72.29,466.82,81S446,86,446,86C465,92.42,496.44,80.05,479.85,63.73Z"/><path class="cls-35" d="M244.92,98.45C233.61,82.77,143,72.8,112.26,59.13c-30.46-13.55-34.42-40-17.73-43-5,.89-8.27,2.79-10.44,6.66-7.5,13.42,7.4,34.86,53.2,48.31S214,97.21,214,97.21A255.18,255.18,0,0,0,244.92,98.45Z"/><path class="cls-36" d="M225.71,66C130.16,29.64,110.15,26,103.84,32s-.27,15.53,6.27,19.78a3.69,3.69,0,0,1-.88-1.22c-1.45-3.82,3.56-5.13,59.62,12.24S303.43,92.88,337.18,93.48c21,.36,51.47,1.18,63.49-7.42C390.21,93.21,321.1,102.23,225.71,66Z"/><path class="cls-37" d="M170,111C97.4,93.83,55.27,56.49,34.48,57.28,13.87,58.07,7.38,69.7,18.11,81.2c7.94,8.2,19.2,12.67,19.2,12.67s-14.42-11.65-8.3-17c3-2.64,11.85-2.17,79.76,24.29s165.77,33.1,176.69,20.72C274.67,130.46,242.64,128.25,170,111Z"/><path class="cls-38" d="M373.9,52.28c-11-6.32-46.85-13.69-79-15.53-25.68-1.47-45.22-11.69-39.82-19.63-9.83,10.73,5.77,20.08,39.29,24.37a441.47,441.47,0,0,1,66.07,14.08C372.84,55.61,373.9,52.28,373.9,52.28Z"/><path class="cls-39" d="M66.55,99.54c-8.86,1.94-12.49,6,3.85,8.2,23.57,3.12,30.14-.08,25.23-4C98.52,107.19,54.45,102.59,66.55,99.54Z"/><path class="cls-40" d="M202.35,28.92c23.42,1.66,30.39-3.15,28.22-8.1,1.24,6.1-62.72,3.73-35.69-7.69C179.38,16.87,175.41,27,202.35,28.92Z"/><path class="cls-41" d="M355.94,120.32c18.93.61,23.41-3,21.48-7.08,3.59,5.51-62.29,4.63-31.82-7.37C331.31,110.06,318.6,119.14,355.94,120.32Z"/><path class="cls-42" d="M389.23,107.75c10,.38,12.45-1.82,11.16-4,2.73,3.37-28.32,1-15.85-3.25C377.22,102.4,372.46,107.12,389.23,107.75Z"/><path class="cls-43" d="M360.48,89.33c-57.45,8.88-151-30.6-166-37.47-14.42-6.61-77.1-32-90-20.33,6.94-5.34,28.43-.87,121.31,34.44,95.39,36.26,164.5,27.24,175,20.09,5.07-3.63,6.88-8.93,3.24-16.67a35.52,35.52,0,0,0-6.86-9.66C400.07,63.37,412,81.37,360.48,89.33Z"/><path class="cls-44" d="M493.34,73.54c-5.72-32.58-106-27.84-145.1-42.65-38.44-14.56-67.47-20.39-72.3-12.7,1.93-1.83,6.6-2.84,14.79-1.71,21.84,3,41.06,12.37,77.78,20.67s94.76,10.26,111.34,26.58S465,92.42,446,86c0,0,.18.21.52.54C468,91.38,497,94.37,493.34,73.54Z"/><path class="cls-45" d="M267.5,121.31c-28.43,2.57-118.06-9.87-158.53-33.16S56.11,52.67,28.83,57.82a55.34,55.34,0,0,1,5.65-.54C55.27,56.49,97.39,93.83,170,111s104.65,19.42,115.44,10.86c3.91-4.42,4.62-11.66-1.9-19.26C285.31,105.25,293.21,119,267.5,121.31Z"/><path class="cls-46" d="M294.94,36.75c32.11,1.84,67.91,9.21,79,15.53-7.5-6.45-31-12.7-62-15.07s-67-13.2-52.51-23.53a15.7,15.7,0,0,0-2.9,2,15.86,15.86,0,0,0-2.91,3.4,14.31,14.31,0,0,1,1.52-2C249.72,25.06,269.26,35.28,294.94,36.75Z"/><path class="cls-47" d="M94.53,16.14c-16.69,3-12.73,29.44,17.73,43C140.7,71.77,220.28,81.25,241,95c-25.59-20.85-75.48-18.5-118-33.34-44.82-15.62-40.08-48.15-19.1-45.4-10.78-1.33-16.5.64-19.8,6.53C86.26,18.93,89.56,17,94.53,16.14Z"/><path class="cls-48" d="M83.7,104.66c7,.54,13,.42,11.93-.92a27.16,27.16,0,0,0-8.15-3.82A39.33,39.33,0,0,0,73,98.62C83.68,97.87,94.94,105.17,83.7,104.66Z"/><path class="cls-49" d="M214.07,24.08c9.07,0,16.94-1.08,16.5-3.26-1.95-4.44-11.23-9-22.89-9.08a56.81,56.81,0,0,0-9.34.71C219,10,231.2,21.68,214.07,24.08Z"/><path class="cls-50" d="M357,116.43c10.08.32,20.36-.68,20.6-2.69a3.07,3.07,0,0,0-.13-.5.74.74,0,0,1,.13.5,3.56,3.56,0,0,1,.27,1c-.28-4.69-11.34-10.62-19.12-11a41.05,41.05,0,0,0-11.14,1.58l.22,0C365.47,100.48,386.51,116.75,357,116.43Z"/><path class="cls-51" d="M390.86,105.15c5.31.43,10.74.07,9.53-1.42a2.1,2.1,0,0,1,.29.8c-.33-2.27-5.22-4.87-10.27-4.87a21.4,21.4,0,0,0-2.84.22C397.62,98.6,401.33,105.72,390.86,105.15Z"/><path class="cls-52" d="M384.8,83.37c-3.24-1.41,8.8-7.87,11.52-6.71S391.22,86.16,384.8,83.37Z"/><path class="cls-52" d="M397.75,75.12C396.2,74,398.88,70,400,70.87S399.94,76.7,397.75,75.12Z"/><path class="cls-52" d="M370.94,110.11c1-1.17-5.79-6.43-9.14-4.26S369.62,111.67,370.94,110.11Z"/><path class="cls-52" d="M493.27,80.23c2.76-1.89,1.85-11.5-1.84-11.17S488.79,83.3,493.27,80.23Z"/><path class="cls-52" d="M490.4,85.2c2.3-.15,3.56-2.31,2-2.74S488.93,85.3,490.4,85.2Z"/><path class="cls-52" d="M260.59,123c-3-2.59,10-4.23,10.73-2.11S264.27,126.12,260.59,123Z"/><path class="cls-52" d="M275.63,120c1.26.85,3.7-.58,3.57-1.22S274.28,119.05,275.63,120Z"/><path class="cls-52" d="M280.73,118c-.86-.36.73-1.46,1.32-.81S281.6,118.34,280.73,118Z"/><path class="cls-52" d="M217.72,14.79c4.7-.28,7.54,4.18,4.37,4.22S213,15.08,217.72,14.79Z"/><path class="cls-53" d="M373.9,53.33l-.88-.09c-1.31,1-4.56,2.36-12.54,2.33,0,0-114.53,1.14-181.46-18.49l1.5.46C280.11,67.81,363.9,61.76,373.9,53.33Z"/><path class="cls-52" d="M314.48,60.85c2,1.7,11.55.58,11.09-1.81S311.25,58.09,314.48,60.85Z"/><path class="cls-52" d="M309.41,59.25c.24,1.5,2.44,2.2,2.81,1.18S309.26,58.29,309.41,59.25Z"/></g></g></g></svg>