<svg xmlns="http://www.w3.org/2000/svg" xmlns:xlink="http://www.w3.org/1999/xlink" viewBox="0 0 117.81 110.41"><defs><style>.cls-1{isolation:isolate;}.cls-2{fill:url(#Áåçûìÿííûé_ãðàäèåíò_1286);}.cls-3,.cls-4{fill:#d85400;}.cls-3,.cls-8{opacity:0.85;}.cls-3,.cls-4,.cls-5{mix-blend-mode:multiply;}.cls-5{fill:url(#Áåçûìÿííûé_ãðàäèåíò_1288);}.cls-6,.cls-9{opacity:0.65;}.cls-6,.cls-7,.cls-8,.cls-9{mix-blend-mode:screen;}.cls-6{fill:url(#Áåçûìÿííûé_ãðàäèåíò_595);}.cls-7{opacity:0.93;fill:url(#Áåçûìÿííûé_ãðàäèåíò_610);}.cls-8,.cls-9{fill:#fff;}</style><linearGradient id="Áåçûìÿííûé_ãðàäèåíò_1286" x1="96.46" y1="22.54" x2="40.55" y2="78.45" gradientUnits="userSpaceOnUse"><stop offset="0" stop-color="#cec628"/><stop offset="1" stop-color="#5e7d1d"/></linearGradient><linearGradient id="Áåçûìÿííûé_ãðàäèåíò_1288" x1="67.3" y1="44.22" x2="39.46" y2="99.64" gradientUnits="userSpaceOnUse"><stop offset="0.18" stop-color="#fff"/><stop offset="0.26" stop-color="#fcfdf9"/><stop offset="0.36" stop-color="#f5f6e9"/><stop offset="0.48" stop-color="#e9eccf"/><stop offset="0.6" stop-color="#d7ddaa"/><stop offset="0.73" stop-color="#c1cb7b"/><stop offset="0.86" stop-color="#a6b441"/><stop offset="1" stop-color="#889a00"/></linearGradient><linearGradient id="Áåçûìÿííûé_ãðàäèåíò_595" x1="86.83" y1="-1.27" x2="89.11" y2="97.73" gradientUnits="userSpaceOnUse"><stop offset="0" stop-color="#e3ff65"/><stop offset="0.13" stop-color="#b4ca50"/><stop offset="0.33" stop-color="#758334"/><stop offset="0.5" stop-color="#424b1e"/><stop offset="0.65" stop-color="#1e220e"/><stop offset="0.77" stop-color="#080904"/><stop offset="0.84"/></linearGradient><linearGradient id="Áåçûìÿííûé_ãðàäèåíò_610" x1="23.91" y1="75.65" x2="88.54" y2="19.8" gradientUnits="userSpaceOnUse"><stop offset="0"/><stop offset="0.11" stop-color="#050503"/><stop offset="0.23" stop-color="#13130d"/><stop offset="0.36" stop-color="#2a2a1d"/><stop offset="0.5" stop-color="#4b4b34"/><stop offset="0.64" stop-color="#767651"/><stop offset="0.79" stop-color="#a9a975"/><stop offset="0.94" stop-color="#e5e59e"/><stop offset="1" stop-color="#ffffb0"/></linearGradient></defs><title>vi_1</title><g class="cls-1"><g id="Layer_2" data-name="Layer 2"><g id="Ñëîé_1" data-name="Ñëîé 1"><path class="cls-2" d="M5.35,68.11C-10,44.42,10.61,13.64,31.8,4.56S75.71-1.51,100.5,27c25.27,29.1,20.53,64.76.79,77C80.48,116.94,34.36,112.74,5.35,68.11Z"/><path class="cls-3" d="M16.46,48.05C6.94,37.45,18.12,16.1,41.94,14.14S66.55,33.23,57.38,42.68,29.47,62.52,16.46,48.05Z"/><path class="cls-4" d="M57.38,42.68c5.16-5.31,7.16-14.3,3.69-20.8a25.88,25.88,0,0,0-11.59-1.33C26.63,22.43,15.47,42.12,23,53.08,35.15,59.21,49.66,50.63,57.38,42.68Z"/><path class="cls-5" d="M5.35,68.11c29,44.63,75.13,48.83,95.94,35.93A33.51,33.51,0,0,0,114.1,88.55C116,76.74,86,74.32,42.86,70.74c-50.65-4.2-44.51-43.45-17.8-62.5C6.61,20.2-8.4,47,5.35,68.11Z"/><path class="cls-6" d="M101.29,104c19.74-12.24,24.48-47.9-.79-77C85.45,9.71,71.16,1.83,57.51.31,87,3.86,139.28,110.85,75.46,110.4,85.69,110.45,94.75,108.1,101.29,104Z"/><path class="cls-7" d="M68.92,69.88C92.21,65,92.42,40.27,85.56,24.08c-6.21-14.66,1.18-10.23,2.62-9.27C80.41,8.25,72.83,4.07,65.45,1.9,89.29,11,96,48.05,62.8,67.71,30.45,86.85,8.66,72.25,4.06,65.76c.43.78.79,1.58,1.29,2.35A99.17,99.17,0,0,0,32.09,96C22.17,85.29,46.54,74.62,68.92,69.88Z"/><path class="cls-8" d="M87.66,32.57c1.76-9,12.85-.33,10.48,15.24S86.27,39.68,87.66,32.57Z"/><path class="cls-8" d="M99.46,60.1c-3.2,1.46-1.92-8.94.85-8.57S103.54,58.23,99.46,60.1Z"/><path class="cls-9" d="M105.24,96c-2.42-3.37,1-12.7,4.94-9S106.76,98.13,105.24,96Z"/></g></g></g></svg>